<!-- by TradingView --><svg width="18" height="18" viewBox="0 0 18 18" xmlns="http://www.w3.org/2000/svg"><path fill="#F0F3FA" d="M0 0h18v18H0z"/><path d="M9 3.5c.02 0 .86.45 2.5 1.36 1.65.91 2.47 1.37 2.49 1.4L14 9c0 1.82 0 2.73-.02 2.75 0 .02-.84.48-2.48 1.39L9 14.5c-.02 0-.86-.45-2.5-1.36A99.57 99.57 0 0 1 4 11.74L4 9c0-1.82 0-2.74.02-2.75 0-.02.84-.48 2.48-1.39L9 3.5Z"/><path d="m9 5.12 1.83.96c1.2.63 1.81.96 1.82.98.01.02.02.66.02 1.94 0 1.28-.01 1.93-.02 1.94-.01.02-.62.35-1.82.98L9 12.88l-1.83-.96c-1.2-.64-1.81-.96-1.82-.98-.01-.02-.02-.66-.02-1.94 0-1.28 0-1.93.02-1.94.01-.02.62-.35 1.82-.99L9 5.12Z" fill="#FFC83D"/></svg>