<!-- by TradingView --><svg width="18" height="18" viewBox="0 0 18 18" xmlns="http://www.w3.org/2000/svg"><path fill="#F0F3FA" d="M0 0h18v18H0z"/><path d="M9.76 3.04 9.52 5c-.01.1-.07.15-.17.15a4 4 0 0 0-2.44.9c-.7.55-1.2 1.26-1.52 2.14a.12.12 0 0 1-.13.1H4.8c-.07 0-.1-.04-.08-.1.26-.97.77-1.78 1.53-2.44a5.32 5.32 0 0 1 2.58-1.23.24.24 0 0 0 .18-.14l.7-1.37c0-.02.01-.02.03-.02.02 0 .03.02.02.04Z" fill="#6AC3E0"/><path d="M14.98 8.6c.02 0 .02.02.02.03 0 .01-.01.02-.03.02l-2.08-.03c-.06 0-.1-.03-.1-.1l.02-.63v-.02a3.13 3.13 0 0 0-2.47-2.8c-.1-.02-.14-.08-.13-.18l.05-.35c.02-.11.08-.15.2-.12 1.84.55 2.84 1.72 3 3.51.01.06.04.1.1.12l1.42.55Z" fill="#125A8A"/><path d="M11.17 9H8.21l-.57-1.71.01-.04c.01-.02.02-.02.04-.01L11.17 9Z" fill="#6AC3E0"/><path d="M8.2 9h2.97c.03.07-.09.17-.35.28-1.16.49-2.31.98-3.45 1.48h-.04c-.02-.02-.02-.04 0-.06L8.2 9ZM3.02 9.05C3 9.05 3 9.03 3 9.02 3 9 3.01 9 3.03 9h2.09c.06 0 .1.03.1.1l-.01.64v.02c.24 1.5 1.09 2.44 2.53 2.8.1.03.14.09.12.19l-.04.35c-.02.12-.08.16-.2.12-1.85-.53-2.88-1.7-3.07-3.52 0-.05-.04-.1-.1-.11l-1.43-.54Z" fill="#125A8A"/><path d="m8.32 14.96.27-2.13c0-.07.04-.1.11-.1a4.4 4.4 0 0 0 3.99-3c0-.01.02-.02.05-.02h.6c.02 0 .03 0 .02.03A5.02 5.02 0 0 1 9.3 13.3a.19.19 0 0 0-.15.11l-.8 1.56c-.03.05-.04.05-.03 0Z" fill="#6AC3E0"/></svg>