<!-- by TradingView --><svg width="18" height="18" viewBox="0 0 18 18" xmlns="http://www.w3.org/2000/svg"><path fill="#F0F3FA" d="M0 0h18v18H0z"/><path d="M6.37 4c1.07 0 1.97 1.5 2.26 3.56-.26.03-.54.08-.68.12.15.03.44.09.71.12v.04c-.35.03-.77.1-.98.13.21.04.65.1 1.02.13v.03c-.46.03-1.01.1-1.28.13.27.04.84.12 1.3.14v.03c-.54.04-1.24.2-1.56.28.32.08 1.03.23 1.58.28V9c-.71.04-1.67.2-2.1.3.42.08 1.37.24 2.08.28v.01c-.79.04-1.86.2-2.35.3.47.08 1.52.24 2.3.28v.02c-.95.05-2.24.3-2.83.43.56.12 1.76.35 2.69.42C8.16 12.78 7.33 14 6.37 14 5.06 14 4 11.76 4 9s1.06-5 2.37-5Z" fill="#222D7C"/><path d="M11.63 4C12.94 4 14 6.24 14 9s-1.06 5-2.37 5c-.96 0-1.79-1.22-2.16-2.96.87-.07 1.91-.3 2.69-.42-.82-.13-1.93-.38-2.83-.43v-.02c.74-.04 1.64-.2 2.3-.29-.68-.08-1.6-.25-2.35-.28v-.02c.67-.04 1.49-.2 2.09-.29-.61-.08-1.43-.24-2.1-.28v-.02c.5-.05 1.12-.2 1.57-.28-.45-.09-1.05-.24-1.56-.28V8.4c.43-.03.92-.1 1.3-.14-.37-.03-.86-.1-1.28-.13V8.1c.34-.03.72-.1 1.02-.13-.29-.04-.66-.1-1-.13l.01-.04.72-.12c-.2-.04-.45-.09-.69-.12C9.66 5.5 10.56 4 11.63 4Z" fill="#117B33"/></svg>