<!-- by TradingView --><svg width="18" height="18" viewBox="0 0 18 18" xmlns="http://www.w3.org/2000/svg"><path fill="#F0F3FA" d="M0 0h18v18H0z"/><path d="M15.9 11.98c-.45.02-.84.03-1.17 0a1.91 1.91 0 0 1-1.11-.43h-.02c-.22.18-.46.3-.72.38a3 3 0 0 1-.79.07h-1c-.43-.01-.83-.15-1.19-.44h-.05c-.37.28-.76.43-1.19.43h-1.1c-.3 0-.54-.01-.7-.06a2.24 2.24 0 0 1-1.08-.72c-.11-.13-.3-.45-.56-.95L3.88 7.67c-.23-.44-.4-.73-.54-.89a2.4 2.4 0 0 0-.6-.51A1.55 1.55 0 0 0 2 6.03v-.01L2.74 6c.33 0 .57.02.72.05.45.12.84.37 1.16.75.12.14.31.47.58.99l1.32 2.54c.23.45.41.75.54.9.26.3.57.52.91.64a.1.1 0 0 0 .07 0 2.35 2.35 0 0 0 1.21-1.08v-.02L7.57 7.59c-.2-.4-.37-.67-.5-.8a2.4 2.4 0 0 0-.6-.52 1.6 1.6 0 0 0-.73-.24v-.01L6.53 6c.32 0 .58.02.77.08.56.17 1.01.56 1.35 1.16a8.9 8.9 0 0 1 .3.53l.11-.22c.13-.26.23-.43.3-.53.34-.5.77-.82 1.29-.96.19-.05.45-.07.8-.06h.64c.28 0 .5.01.65.04.35.07.67.23.96.49a2.86 2.86 0 0 1 .69.97h-1.24l-.01-.01a6.24 6.24 0 0 0-.17-.33 2.6 2.6 0 0 0-.53-.64 1.9 1.9 0 0 0-.68-.4h-.05c-.35.14-.66.35-.92.66-.14.17-.32.45-.52.85a124.74 124.74 0 0 1-.7 1.39l.9 1.7c.3.57.71.96 1.25 1.16h.05a2.34 2.34 0 0 0 1.22-1.09v-.02l-.25-.47a2.6 2.6 0 0 0-.73-.88 1.78 1.78 0 0 0-.99-.4h.01c.66-.02 1.04-.03 1.13-.02.65.05 1.19.36 1.6.94a4.66 4.66 0 0 1 .47.8c.4.73.95 1.14 1.67 1.24Z" fill="#091F8F"/></svg>