<svg xmlns="http://www.w3.org/2000/svg" viewBox="0 0 18 18">
  <g clip-path="url(#a)">
    <path fill="#2B9969" d="M0 0h18v18H0V0Z"/>
    <path fill="#fff" d="M8.91 4.51c.35-.003.701-.012 1.052-.008.064.003.129-.002.193.006-.15.27-.305.536-.459.804-.526.914-1.053 1.83-1.588 2.738-.067.023-.138.019-.208.026-.46.011-.92.006-1.381.007-.187.318-.368.64-.554.958l1.57.028c-.26.455-.525.908-.785 1.364l-.6 1.038c.2.001.4-.002.601.003.68-.002 1.358.002 2.038.001.415.006.83 0 1.246.004h.676c.258.005.516 0 .774.004.85.003 1.7.006 2.55.02.082.003.163.005.244.011-.142.265-.292.525-.436.789l-.396.702H3.62c.032-.042.052-.092.081-.137.343-.588.681-1.179 1.02-1.77.108-.191.22-.382.326-.576-.014-.022-.041-.022-.063-.026a3.515 3.515 0 0 0-.367-.012l-.521-.001c-.124.001-.25-.006-.374-.004-.073-.003-.146-.002-.22-.008.155-.278.316-.552.472-.827.156-.268.31-.538.465-.806.155-.267.307-.535.464-.8.529-.012 1.058-.02 1.588-.03l.95-1.645c.04-.062.07-.13.108-.193.32-.551.637-1.104.957-1.656.076 0 .15-.005.226-.002.06.002.12-.005.179-.002Z"/>
    <path fill="#fff" d="M10.084 6.694c.034-.055.065-.112.103-.163.112.168.213.344.318.516.192.322.383.646.567.973a.49.49 0 0 1 .024.052c-.115.008-.23.006-.345.01-.295.003-.591 0-.887 0-.144-.003-.288 0-.432-.009-.043 0-.086 0-.129-.007.055-.123.128-.237.192-.356.193-.34.388-.68.59-1.016ZM8.732 9.055h2.924c.25.426.505.85.753 1.279.028.05.058.098.085.149H9.4c-.204-.007-.408-.003-.611-.006a35.133 35.133 0 0 1-.775-.011c-.032-.002-.065-.002-.098-.006.105-.183.213-.364.318-.548.036-.062.075-.123.107-.187l.391-.67Zm4.093.011c.202-.01.405-.009.608-.011.263 0 .527-.002.79.003.091.003.183 0 .273.009-.078.15-.164.297-.25.444-.153.267-.31.532-.468.796-.03.047-.056.094-.087.14a.03.03 0 0 1-.047.002c-.05-.052-.082-.119-.12-.18l-.479-.816c-.073-.13-.152-.255-.22-.387Z"/>
  </g>
  <defs>
    <clipPath id="a">
      <path fill="#fff" d="M0 0h18v18H0z"/>
    </clipPath>
  </defs>
</svg>
