<svg xmlns="http://www.w3.org/2000/svg" viewBox="0 0 18 18">
  <g clip-path="url(#a)">
    <path fill="#fff" d="M0 0h18v18H0V0Z"/>
    <path fill="#BD242A" d="M10.365 3.906a.366.366 0 1 0 .19-.707.366.366 0 0 0-.19.707Zm-2.73.001a.366.366 0 1 0-.19-.708.366.366 0 0 0 .19.708Zm.778.995a.494.494 0 1 1-.954.256.494.494 0 0 1 .954-.256Zm.269 2.913a.59.59 0 1 0-.305-1.139.59.59 0 0 0 .305 1.14Zm.218 3.092a.59.59 0 1 1 1.14-.305.59.59 0 0 1-1.14.305Zm1.036 1.586a.494.494 0 1 0 .256.954.494.494 0 0 0-.256-.954Zm.17 2.049a.366.366 0 1 1 .708-.19.366.366 0 0 1-.708.19Zm.595-6.409a.59.59 0 1 1-.834-.834.59.59 0 0 1 .834.834Zm.856-1.69a.494.494 0 1 0 .699-.699.494.494 0 0 0-.699.699Zm1.69-1.172a.366.366 0 1 1-.518-.518.366.366 0 0 1 .518.518ZM8.133 9.867a.59.59 0 1 0-.834.834.59.59 0 0 0 .834-.834Zm-2.389 1.69a.494.494 0 1 1 .699.699.494.494 0 0 1-.699-.699Zm-.473 1.172a.366.366 0 1 0-.518.518.366.366 0 0 0 .518-.518ZM7.398 7.96a.59.59 0 1 1-.305 1.14.59.59 0 0 1 .305-1.139Zm-1.891.104a.494.494 0 1 0-.954-.256.494.494 0 0 0 .954.256Zm-1.86-.878a.366.366 0 1 1-.19.708.366.366 0 0 1 .19-.708Zm6.538 2.131a.59.59 0 1 0 1.139.305.59.59 0 0 0-1.14-.305Zm2.657 1.223a.494.494 0 1 1 .256-.953.494.494 0 0 1-.256.954Zm1.252-.175a.366.366 0 1 0 .707.19.366.366 0 0 0-.707-.19Zm-2.537 1.891a.494.494 0 1 1 .699-.699.494.494 0 0 1-.699.699Zm1.172.473a.366.366 0 1 0 .518.518.366.366 0 0 0-.518-.518ZM6.443 5.744a.494.494 0 1 1-.699.699.494.494 0 0 1 .699-.699Zm-1.172-.473a.366.366 0 1 0-.518-.518.366.366 0 0 0 .518.518Zm2.189 7.571a.494.494 0 1 1 .953.256.494.494 0 0 1-.954-.256Zm.175 1.252a.366.366 0 1 0-.19.707.366.366 0 0 0 .19-.707Zm2.905-8.936a.494.494 0 1 1-.953-.256.494.494 0 0 1 .954.256ZM4.902 9.587a.494.494 0 1 1 .256.954.494.494 0 0 1-.256-.954Zm-.996.778a.366.366 0 1 0-.707.19.366.366 0 0 0 .707-.19Zm9.192-1.952a.494.494 0 1 1-.256-.954.494.494 0 0 1 .256.954Zm.996-.778a.366.366 0 1 0 .707-.19.366.366 0 0 0-.707.19Z"/>
    <path fill="#0E696F" d="M9 2.5c.132 0 .24.1.24.223s-.108.223-.24.223-.239-.1-.239-.223.107-.223.24-.223Zm.398 1.609A.406.406 0 0 0 9 3.695a.406.406 0 0 0-.398.414c0 .229.178.414.398.414.22 0 .398-.185.398-.414Zm.128 1.816A.518.518 0 0 0 9 5.415a.518.518 0 0 0-.526.51c0 .282.236.51.526.51.29 0 .526-.228.526-.51ZM9 12.585a.518.518 0 0 1-.526-.51c0-.282.236-.51.526-.51.29 0 .526.228.526.51 0 .281-.236.51-.526.51Zm0 1.72a.407.407 0 0 1-.398-.414c0-.229.178-.414.398-.414.22 0 .398.185.398.414a.407.407 0 0 1-.398.414ZM9 15.5c-.132 0-.239-.1-.239-.223s.107-.223.24-.223c.131 0 .238.1.238.223S9.132 15.5 9 15.5Zm3.345-11.816c.062-.107.02-.247-.095-.313-.114-.066-.257-.033-.318.074-.062.106-.02.246.095.312.114.066.257.033.319-.073Zm-.555 1.28a.406.406 0 0 0-.137-.558.406.406 0 0 0-.552.16.406.406 0 0 0 .137.557c.19.11.438.039.552-.16ZM10.993 6.6a.518.518 0 0 0-.2-.704.518.518 0 0 0-.71.179.518.518 0 0 0 .2.704.518.518 0 0 0 .71-.179Zm-3.785 5.505a.518.518 0 0 1-.2-.705.518.518 0 0 1 .71-.178c.251.145.34.46.2.704a.518.518 0 0 1-.71.179Zm-.861 1.49a.407.407 0 0 1-.137-.558.407.407 0 0 1 .552-.16c.19.11.252.36.137.558a.406.406 0 0 1-.552.16ZM5.75 14.63c-.114-.067-.157-.207-.095-.313.061-.107.204-.14.318-.074.114.066.157.206.095.313-.061.107-.204.14-.318.073Zm8.88-8.88c.065.115.032.257-.075.319-.106.061-.246.019-.312-.096-.066-.114-.033-.256.073-.318.107-.062.247-.019.313.095Zm-1.036.598c.11.19.039.437-.16.552a.406.406 0 0 1-.557-.138.406.406 0 0 1 .16-.552.406.406 0 0 1 .557.138Zm-1.49.86a.518.518 0 0 1-.178.71.518.518 0 0 1-.705-.2.518.518 0 0 1 .179-.71.518.518 0 0 1 .704.2Zm-6.03 2.874a.518.518 0 0 0-.178.71c.145.252.46.342.704.201a.518.518 0 0 0 .179-.71.518.518 0 0 0-.705-.2ZM4.565 11.1a.406.406 0 0 0-.16.553c.11.19.36.252.558.138a.406.406 0 0 0 .16-.552.406.406 0 0 0-.558-.138Zm-1.121.832c-.106.061-.14.204-.073.318.066.115.206.157.312.096.107-.062.14-.204.074-.319-.066-.114-.206-.157-.313-.095Zm8.631-2.406c.281 0 .51-.235.51-.526a.518.518 0 0 0-.51-.525.518.518 0 0 0-.51.525c0 .29.228.526.51.526Zm1.815-.127A.407.407 0 0 0 14.306 9a.407.407 0 0 0-.414-.398.407.407 0 0 0-.414.398c0 .22.185.399.414.399Zm1.387-.159c.123 0 .223-.108.223-.24s-.1-.239-.223-.239-.223.107-.223.24c0 .131.1.238.223.238ZM5.415 9c0-.29.229-.525.51-.525.282 0 .51.235.51.525 0 .29-.228.526-.51.526A.518.518 0 0 1 5.415 9Zm-1.72 0c0-.22.185-.398.414-.398.229 0 .414.178.414.398 0 .22-.185.399-.414.399A.406.406 0 0 1 3.695 9ZM2.5 9c0-.132.1-.239.223-.239s.223.107.223.24c0 .131-.1.238-.223.238S2.5 9.132 2.5 9Zm.87-3.25c.067-.114.207-.157.313-.095.107.062.14.204.074.318-.066.115-.206.157-.312.096-.107-.062-.14-.204-.074-.319Zm1.036.598c.11-.19.36-.252.557-.138.199.114.27.361.16.552a.406.406 0 0 1-.558.138.407.407 0 0 1-.16-.552Zm1.49.86a.518.518 0 0 1 .704-.2c.244.14.324.458.179.71a.518.518 0 0 1-.705.2.518.518 0 0 1-.178-.71Zm5.504 3.785c.244.14.56.051.704-.2a.518.518 0 0 0-.178-.71.518.518 0 0 0-.705.2.518.518 0 0 0 .179.71Zm1.637.797a.407.407 0 0 0 .557-.137.406.406 0 0 0-.16-.552.406.406 0 0 0-.557.138.406.406 0 0 0 .16.552Zm1.279.556c.107.061.247.019.313-.096.066-.114.033-.257-.073-.318-.107-.062-.247-.019-.313.095-.066.115-.033.257.073.319ZM6.068 3.445c-.061-.107-.204-.14-.318-.074-.114.066-.157.206-.095.313.061.107.204.14.318.074.114-.066.157-.206.095-.313ZM6.9 4.566a.407.407 0 0 0-.553-.16.406.406 0 0 0-.137.558c.114.198.361.27.552.16.19-.11.252-.36.137-.558Zm1.018 1.509a.518.518 0 0 0-.71-.179.518.518 0 0 0-.2.704c.14.244.458.324.71.179a.518.518 0 0 0 .2-.704Zm2.874 6.03a.518.518 0 0 1-.71-.179.518.518 0 0 1 .2-.704.518.518 0 0 1 .71.178.518.518 0 0 1-.2.705Zm.861 1.49a.407.407 0 0 1-.553-.16.406.406 0 0 1 .138-.558.407.407 0 0 1 .552.16.406.406 0 0 1-.137.558Zm.597 1.035c-.114.065-.257.033-.319-.074-.061-.107-.018-.247.096-.313s.257-.033.318.074c.062.107.02.247-.095.313ZM9 9.972a.972.972 0 1 0 0-1.944.972.972 0 0 0 0 1.944Z"/>
  </g>
  <defs>
    <clipPath id="a">
      <path fill="#fff" d="M0 0h18v18H0z"/>
    </clipPath>
  </defs>
</svg>
