<svg xmlns="http://www.w3.org/2000/svg" viewBox="0 0 18 18">
  <g clip-path="url(#a)">
    <path d="M0 0h18v18H0V0Z"/>
    <path fill="#F99F2D" d="M5.949 5.024c.214-.032.435-.022.651-.024h4.857c.17.002.337-.006.505.014.344.035.68.148.964.342.22.147.409.34.566.554.277.372.447.823.492 1.284.022.184.014.37.016.554v5.396h-1.905c0-.86 0-1.72-.002-2.582H7.091V8.658h5.004V7.473c-.006-.15-.026-.308-.113-.431a.358.358 0 0 0-.297-.137H6.289a.326.326 0 0 0-.283.155c-.085.138-.095.304-.101.461v5.623H4V7.586c0-.245.018-.491.075-.732.109-.48.364-.926.72-1.268a2.02 2.02 0 0 1 1.154-.562Z"/>
  </g>
  <defs>
    <clipPath id="a">
      <path fill="#fff" d="M0 0h18v18H0z"/>
    </clipPath>
  </defs>
</svg>
