<svg xmlns="http://www.w3.org/2000/svg" viewBox="0 0 18 18">
  <g clip-path="url(#a)">
    <path fill="#0A7EA6" d="M0 0h18v18H0V0Z"/>
    <path fill="#fff" fill-rule="evenodd" d="M13.987 6.805c-.111.86-.693 1.704-1.598 2.209.338.466.774 1.052.521 2.265a3.655 3.655 0 0 1-3.616 2.816H5.527l1.79-1.789h2.165c.632 0 1.188-.46 1.294-1.249.101-.738-.308-1.173-.94-1.173H4.785l1.79-1.79h4.105c.581 0 1.082-.42 1.183-1.153.097-.688-.273-1.071-.855-1.071H4.072l1.795-1.79h5.814c1.512 0 2.538 1.087 2.306 2.725Z" clip-rule="evenodd"/>
  </g>
  <defs>
    <clipPath id="a">
      <path fill="#fff" d="M0 0h18v18H0z"/>
    </clipPath>
  </defs>
</svg>
