<svg xmlns="http://www.w3.org/2000/svg" viewBox="0 0 18 18">
  <g clip-path="url(#a)">
    <path d="M0 0h18v18H0V0Z"/>
    <path fill="#fff" fill-rule="evenodd" d="M11.836 5.988v.933c0 1.048-.404 1.724-1.211 2.03.873.295 1.31.987 1.31 2.079v.982c0 .775-.225 1.386-.672 1.833-.437.437-1.091.655-1.964.655h-2.93v-11H9.2c.873 0 1.528.224 1.965.671.447.437.67 1.042.67 1.817ZM9.102 4.515H7.531V8.46h1.571c1.048 0 1.572-.502 1.572-1.506V6.02c0-1.004-.524-1.506-1.572-1.506Zm1.67 7.464v-.982c0-1.004-.524-1.506-1.572-1.506H7.53v3.994H9.2c1.048 0 1.572-.502 1.572-1.506Z" clip-rule="evenodd"/>
  </g>
  <defs>
    <clipPath id="a">
      <path fill="#fff" d="M0 0h18v18H0z"/>
    </clipPath>
  </defs>
</svg>
