<svg xmlns="http://www.w3.org/2000/svg" viewBox="0 0 18 18">
  <g clip-path="url(#a)">
    <path fill="#fff" d="M0 0h18v18H0V0Z"/>
    <path fill="#4A4F55" fill-rule="evenodd" d="M8.413 10.622s1.044.842 2.38.512c1.09-.268 2.796-1.53 3.812-6.142l.002-.003s-7.252.958-6.194 5.636v-.003ZM3.512 6.79s.07.23.087.463c.019.234-.004.917-.087 1.374-.01.048-.055.417.125.425 0 0 .194.018.382.073.186.055 1.674.328 3.66 3.234 0 0 .06.068.079.086.018.017.03.027.054.027.052 0 .102-.043.128-.057.029-.018.495-.298.563-.632a.646.646 0 0 0 .01-.115c0-.042.007-.148-.177-.563a4.219 4.219 0 0 0-.3-.548l-.325-.496S5.993 7.566 3.987 6.892c-.217-.073-.475-.102-.475-.102Z" clip-rule="evenodd"/>
  </g>
  <defs>
    <clipPath id="a">
      <path fill="#fff" d="M0 0h18v18H0z"/>
    </clipPath>
  </defs>
</svg>
