<svg xmlns="http://www.w3.org/2000/svg" viewBox="0 0 18 18">
  <g clip-path="url(#a)">
    <path fill="#fff" d="M0 0h18v18H0V0Z"/>
    <path fill="#ECB02E" d="M13.562 10.871a4.46 4.46 0 0 0 .45-1.838 2.064 2.064 0 0 0 1.262-2.648 2.065 2.065 0 0 0-2.65-1.261 2.074 2.074 0 0 0-.861.586 9.15 9.15 0 0 0-1.35-.166c-.264-.215-.802-.606-1.272-.489 0 0-.097.03 0 .088.059.04.098.07.147.108.068.039.127.097.186.147l.04.039a.066.066 0 0 1 0 .058c-.011.02-.03.03-.05.039h-.02a2.906 2.906 0 0 0-1.721-.244c-.108.02-.215.05-.323.088-.078.04-.108.088-.068.147.04.048.47.136.665.254a8.97 8.97 0 0 0-2.612 1.114 2.078 2.078 0 0 0-2.777.968 2.075 2.075 0 0 0 .968 2.776 2 2 0 0 0 .948.204c.333.822.92 1.526 1.683 1.985a5.018 5.018 0 0 0 3.227.782 5.217 5.217 0 0 0 4.128-2.737Z"/>
    <path fill="#F4DDA1" d="M11.087 9.943c-.489-.527-1.251-1.193-2.024-1.036-.773.157-1.252 1.017-1.536 1.691-.274.665-.537 1.671.079 2.19.616.517 1.486.478 2.22.37.733-.107 1.575-.458 1.956-1.123.382-.665-.215-1.583-.695-2.092Z"/>
    <path fill="#0056A2" fill-rule="evenodd" d="M9.122 9.288c.723-.117 1.037-.039.822.479a.798.798 0 0 1-.304.43.797.797 0 0 1-1.105-.185c-.382-.411-.108-.588.597-.724m1.477 2.219c.009 0 .02.01.02.02v.019a1.409 1.409 0 0 1-.823.547 1.838 1.838 0 0 1-.312.059.96.96 0 0 1-.235 0 .955.955 0 0 1-.235-.03c-.342-.078-.734-.322-.783-.674 0-.02.02-.03.04-.03.01-.01.029 0 .038.02a.75.75 0 0 0 .842.45.562.562 0 0 0 .333-.303c0-.01.009-.02.02-.02.019-.01.028 0 .038.02.078.196.313.283.508.205a1.65 1.65 0 0 0 .5-.274c.019-.009.038-.009.049 0v-.009ZM7.244 7.314c.059-.02.117.01.147.06a.142.142 0 0 1-.05.194 1.323 1.323 0 0 0-.488.547c0 .01-.01.02-.02.02h-.03a.703.703 0 0 1 .392-.792c.02-.02.04-.03.058-.03h-.009Zm2.954-.518c.02-.01.04-.01.06 0 .331.03.596.283.645.606v.01h-.02c-.01.01-.02.01-.03 0a1.435 1.435 0 0 0-.655-.352.14.14 0 0 1-.117-.156c.01-.059.058-.099.117-.108ZM4.036 7.95a1.46 1.46 0 0 0-.499 1.095c0 .02-.02.039-.039.039a.054.054 0 0 1-.049-.029 1.384 1.384 0 0 1-.069-.489c0-.332.177-.645.46-.82 0 0 .01-.011.02-.011.078-.029.166 0 .196.079.02.048.009.107-.02.136Zm9.321-1.818a.15.15 0 0 1 .147-.147h.03a.97.97 0 0 1 .714.597c.068.157.107.323.107.489 0 .02-.02.039-.04.039a.07.07 0 0 1-.048-.02 1.503 1.503 0 0 0-.851-.86c-.049-.02-.068-.068-.059-.118v.02Z" clip-rule="evenodd"/>
    <path fill="#F4DDA1" d="M10.149 7.812a.43.43 0 0 1 .4.41.419.419 0 0 1-.244.538l-.03.01a.441.441 0 0 1-.4-.411.418.418 0 0 1 .235-.537c.01 0 .02 0 .039-.01Zm-2.455.44a.44.44 0 0 1 .4.41.42.42 0 0 1-.244.537l-.029.01a.447.447 0 0 1-.421-.43.42.42 0 0 1 .245-.537l.03-.01"/>
    <path fill="#0056A2" d="M7.802 9.082a.355.355 0 0 1-.294-.333c.02.03.059.04.088.04.098-.02.176-.107.156-.215a.215.215 0 0 0-.088-.205c.166.02.293.156.304.322.068.166-.01.342-.166.391 0 .01 0 .01 0 0l-.01.01Zm2.435-.43a.353.353 0 0 1-.293-.332c.02.03.058.039.088.039.097-.02.175-.108.156-.215a.214.214 0 0 0-.088-.206c.166.02.293.147.303.304a.312.312 0 0 1-.166.41c-.01 0-.01 0 0 0h-.01Z"/>
  </g>
  <defs>
    <clipPath id="a">
      <path fill="#fff" d="M0 0h18v18H0z"/>
    </clipPath>
  </defs>
</svg>
