<svg xmlns="http://www.w3.org/2000/svg" viewBox="0 0 18 18">
  <g clip-path="url(#a)">
    <path d="M0 0h18v18H0V0Z"/>
    <path fill="#fff" d="M11.795 4.747c.755.5.836.645.634 1.152l-.092.23-.265-.23a4.561 4.561 0 0 0-1.425-.79c-.64-.213-1.58-.224-2.221-.023-.755.231-1.188.496-1.765 1.072-.427.42-.571.616-.761 1.008-.329.674-.433 1.112-.433 1.844 0 .38.035.742.092.978.416 1.614 1.858 2.864 3.49 3.042 1.229.139 2.285-.236 3.254-1.134l.438-.41.035.42c.051.52.005.646-.358.968-.508.45-1.177.796-1.979 1.015-.576.161-1.897.143-2.503-.03-1.517-.431-2.763-1.537-3.34-2.949-.27-.668-.346-1.077-.346-1.9 0-.9.086-1.32.427-2.052A4.61 4.61 0 0 1 5.813 5.38c.704-.668 1.483-1.083 2.382-1.273 1.252-.26 2.585-.023 3.6.64Z"/>
  </g>
  <defs>
    <clipPath id="a">
      <path fill="#fff" d="M0 0h18v18H0z"/>
    </clipPath>
  </defs>
</svg>
