<svg xmlns="http://www.w3.org/2000/svg" viewBox="0 0 18 18">
  <g clip-path="url(#a)">
    <path fill="#014271" d="M0 0h18v18H0V0Z"/>
    <path fill="#fff" d="M2.696 9.09v.01a2.01 2.01 0 0 0 2.03 2.078 1.987 1.987 0 0 0 1.587-.68l-.489-.503a1.454 1.454 0 0 1-1.07.463c-.707 0-1.243-.588-1.243-1.37v-.011c0-.774.536-1.359 1.244-1.359.39.007.763.166 1.038.443l.492-.578A2.014 2.014 0 0 0 4.761 7a2.032 2.032 0 0 0-2.065 2.09Zm9.894.227 1.264 1.77h.926l-1.694-2.339.02-.023 1.576-1.675h-.914l-1.743 1.916V7.05h-.775v4.037h.775V9.852l.01-.01.53-.56.025.035Z"/>
    <path fill="#fff" fill-rule="evenodd" d="M6.991 11.016V7.069h.775v1.613h1.809V7.07h.775v3.945h-.775v-1.63h-1.81v1.63h-.774Z" clip-rule="evenodd"/>
  </g>
  <defs>
    <clipPath id="a">
      <path fill="#fff" d="M0 0h18v18H0z"/>
    </clipPath>
  </defs>
</svg>
