<svg xmlns="http://www.w3.org/2000/svg" viewBox="0 0 18 18">
  <g clip-path="url(#a)">
    <path fill="#122B4A" d="M0 0h18v18H0V0Z"/>
    <path fill="#25A9E0" fill-rule="evenodd" d="M6.869 3.988h.973c-.584.545-1.052 1.253-1.379 2.076H4.822l2.046-2.076Zm1.95 2.076H6.831c.36-.854.883-1.567 1.536-2.076h.452v2.076Zm.813-2.076h-.451v2.076h1.984c-.359-.854-.881-1.567-1.533-2.076Zm1.462 0 2.074 2.076h-1.636c-.325-.823-.791-1.531-1.375-2.076h.937ZM6.332 6.427H4.464L4 6.897v1.905h1.934c.018-.85.155-1.65.398-2.375Zm2.487 2.375H6.276a7.668 7.668 0 0 1 .414-2.375h2.13v2.375Zm.362 0h2.534a7.657 7.657 0 0 0-.41-2.375H9.18v2.375Zm2.483-2.375h1.866l.47.47v1.905h-1.943a8.022 8.022 0 0 0-.393-2.375ZM4 9.165h1.934c.017.855.155 1.663.4 2.393H4.451L4 11.107V9.165Zm2.693 2.393h2.126V9.165H6.276c.017.86.16 1.67.417 2.393Zm5.02-2.393H9.182v2.393h2.112a7.647 7.647 0 0 0 .42-2.393Zm-.062 2.393h1.885l.464-.464v-1.93h-1.944a8.018 8.018 0 0 1-.405 2.394Zm-4.75 2.454L4.814 11.92h1.655c.331.828.806 1.542 1.4 2.09h-.966Zm1.495 0h.423V11.92H6.834c.365.86.897 1.578 1.562 2.09Zm.785-2.091v2.09h.405c.665-.512 1.199-1.23 1.565-2.09h-1.97Zm1.905 2.09h-.972c.595-.549 1.07-1.262 1.403-2.09h1.658l-2.09 2.09Z" clip-rule="evenodd"/>
  </g>
  <defs>
    <clipPath id="a">
      <path fill="#fff" d="M0 0h18v18H0z"/>
    </clipPath>
  </defs>
</svg>
