<svg xmlns="http://www.w3.org/2000/svg" viewBox="0 0 18 18">
  <g clip-path="url(#a)">
    <path d="M0 0h18v18H0V0Z"/>
    <path fill="#fff" fill-rule="evenodd" d="M4.523 12.034 3.357 8.367a.225.225 0 0 1 .063-.219l1.788-1.426a.132.132 0 0 1 .187.02c0 .003.002.004.004.004L6.725 8.61a.223.223 0 0 1 .004.227L4.647 12.05c-.044.064-.096.056-.124-.016Zm5.853 2.314-3.786-.004a.21.21 0 0 1-.184-.127l-.78-2.171a.141.141 0 0 1 .084-.179l2.15-.708a.21.21 0 0 1 .21.067l2.357 3.01c.049.06.025.108-.051.112Zm3.969-4.954-1.17 3.668a.208.208 0 0 1-.18.135l-2.265.088a.142.142 0 0 1-.143-.14l.004-2.297a.21.21 0 0 1 .127-.187l3.54-1.354c.067-.024.111.016.087.087Zm-3.4-5.375 3.062 2.27a.214.214 0 0 1 .076.21l-.621 2.226v.004a.135.135 0 0 1-.172.088l-2.146-.713a.206.206 0 0 1-.135-.179l-.171-3.847c0-.075.047-.103.107-.06ZM4.878 5.652l3.061-2.267a.206.206 0 0 1 .223-.003l1.888 1.286c.06.044.075.131.031.195l-1.33 1.86a.214.214 0 0 1-.21.075L4.898 5.77c-.072-.02-.084-.075-.02-.118Z" clip-rule="evenodd"/>
  </g>
  <defs>
    <clipPath id="a">
      <path fill="#fff" d="M0 0h18v18H0z"/>
    </clipPath>
  </defs>
</svg>
