<svg xmlns="http://www.w3.org/2000/svg" viewBox="0 0 18 18">
  <g clip-path="url(#a)">
    <path fill="#F9A61A" d="M0 0h18v18H0V0Z" />
    <path fill="#561B0D" fill-rule="evenodd"
      d="M10.296 13.797c-2.975.14-5.521-.403-7.075-1.769l.005-.068-.006.066c-.736-.612-2.089-2.553-1.626-5.024.179-.61.436-1.14.808-1.555.053-.065.112-.124.177-.177.509-.38.918-.641 1.692-.636H4.27a3.458 3.458 0 0 1 1.836.534c.096.061.19.126.283.19.357.246.708.488 1.186.53.364.032.767-.064.897-.28a.44.44 0 0 0 .043-.124c.015-.06.03-.122.075-.17.136.004.274.025.412.045.175.026.352.052.528.044.31-.013.593-.099.874-.184.13-.04.26-.078.39-.11l.046-.011c.48-.116.975-.236 1.587-.21 1.15.051 2.111.45 2.794 1.132.686.687 1.235 1.52 1.279 2.882v.176a4.33 4.33 0 0 1-2.058 3.499c-1.168.73-2.51 1.143-4.146 1.22ZM1.746 7.05c.18-.638.398-1.097.773-1.5a2.322 2.322 0 0 1 1.72-.77h.001c.661-.008 1.276.223 1.72.49.118.072.232.15.346.226.368.25.732.496 1.227.539.604.053 1.05-.124 1.146-.573.67.201 1.253.04 1.819-.118.13-.036.258-.072.386-.103.425-.103.872-.202 1.382-.206 1.288-.007 2.144.447 2.823 1.074.724.668 1.335 1.665 1.264 3.101-.07 1.399-.931 2.51-1.838 3.131-.985.676-2.2 1.112-3.704 1.265-3.007.304-5.963-.291-7.576-1.773-1.576-1.561-1.703-3.913-1.49-4.783Zm4.39 6.026a6.918 6.918 0 0 1-1.106-.372v-.638c.01-.35.007-.714.004-1.077-.004-.469-.008-.938.015-1.381.062-.037.127-.068.191-.099.146-.07.286-.137.382-.254.098-.12.377-.622.191-.691-.07-.026-.154.063-.24.152a.828.828 0 0 1-.157.142c-.117.067-.228.113-.382.088a1.057 1.057 0 0 1-.012-.2c0-.081 0-.165-.018-.241a.385.385 0 0 0-.05-.113c-.025-.043-.047-.08-.038-.122.256-.04.547-.037.838-.032l.265.002h.11c.34-.001.69-.003.933.103.326.14.543.636.427 1.03-.103.345-.47.435-.882.499.533.001.947.15 1.234.382.01.008.02.021.028.035.02.029.04.058.075.039-.042-.388.05-.764.25-.97a.918.918 0 0 1 .441-.236c.131-.017.228.024.325.064a.705.705 0 0 0 .249.068.373.373 0 0 0 .114-.02c.055-.015.112-.031.165-.01 0 .18-.007.372-.015.567-.016.423-.033.858.03 1.213a1.95 1.95 0 0 0-.251 0c-.159.007-.317.013-.41-.044-.129.1-.365.1-.545.044 0-.008-.012-.017-.014 0 .247 1.114-.329 1.862-1.206 2.043 1.976.328 4.553.243 6.072-.441-1.746.021-2.428-1.022-2.852-2.323-.032.2-.02.558.014.691h-.676c.057-.187.052-.423.047-.68-.001-.075-.003-.152-.003-.231l.002-.206c.004-.301.007-.56-.075-.735.127.003.255 0 .38-.003.52-.013.99-.024 1.104.37.108.376-.202.538-.514.603.083.032.19.013.275-.002.043-.007.08-.014.107-.012.055.307.151.574.28.808a6.784 6.784 0 0 1 .006-.69c.018-.406.035-.808-.066-1.074.16.019.335.01.508 0 .207-.01.414-.021.595.015a.513.513 0 0 1 .382.647c-.051.158-.203.21-.365.267-.05.018-.1.035-.15.056.093.006.174 0 .254-.007l.1-.008c.076.34.217.617.358.893l.01.019c-.095-.004-.195-.002-.296 0a2.982 2.982 0 0 1-.47-.015c-.002-.256-.088-.427-.175-.599l-.06-.121-.003.098c-.01.227-.02.486.018.637h-.588c.148.391.392.676.706.94.27.23.69.518 1.117.544.413.026.758-.212 1.032-.402l.056-.039c.347-.238.596-.458.823-.72.47-.543.877-1.299.897-2.176.01-.45-.106-.91-.25-1.278-.413-1.054-1.355-1.882-2.75-1.882-.996 0-1.656.39-2.278.823.056-.014.105-.034.154-.054a.938.938 0 0 1 .2-.063c.11.536.22 1.073.47 1.47h-.75a6.92 6.92 0 0 1-.142-.487c-.05-.19-.1-.382-.167-.557.002.088-.005.196-.013.31-.014.19-.028.393-.002.543a.288.288 0 0 0 .035.087c.016.03.03.056.024.089h-.794a.445.445 0 0 0 .044-.191 11.3 11.3 0 0 0-.044-2.073 4.39 4.39 0 0 0 .735-.162c.01.15.012.307.016.464.003.15.005.302.014.448l.033-.021c.712-.446 1.475-.924 2.73-.846a2.954 2.954 0 0 1 2.073 1c.464.535.834 1.312.882 2.19.048.87-.28 1.547-.632 2.102-.63.992-1.659 1.61-2.867 1.984-1.856.574-4.581.509-6.512.03ZM3.287 9.438l.042.022c.264.138.592.254 1.058.22.716-.05 1.272-.438 1.426-1.028a.984.984 0 0 0-.237.175c-.101.094-.196.181-.395.207-.605.08-1.12-.236-1.426-.617-.539-.67-.774-2.139.03-2.779.158-.126.533-.316.764-.132a.485.485 0 0 1 .132.514c-.04.102-.129.157-.22.214-.093.057-.188.116-.236.228.114.017.178-.028.248-.077a.615.615 0 0 1 .12-.07c.291-.12.607-.12.95-.118h.094a.27.27 0 0 1 .044.006c.053.011.116.024.117-.065-.03-.05-.085-.064-.138-.079-.043-.011-.085-.023-.112-.053a.34.34 0 0 1-.06-.139.414.414 0 0 0-.028-.082c-.25-.474-.784-.742-1.456-.69-.96.072-1.616.872-1.914 1.727a1.803 1.803 0 0 0-.102.698c.07 1.136.86 1.743 1.283 1.915l.004-.004.012.007Zm8.067-2.256c.033-.425.31-.914.797-.894a.751.751 0 0 1 .1.012c.345.061.564.436.5.926-.131.02-.286.018-.441.015-.095-.002-.19-.004-.28 0-.002.265.102.457.295.455.099-.001.146-.066.192-.13.055-.077.11-.153.248-.12l-.02.077c-.064.23-.13.468-.303.6-.218.164-.615.116-.823-.06-.209-.175-.288-.573-.265-.881Zm2.039-.89h.197c.455.009.837.096.793.566-.025.261-.255.342-.559.382.078.051.183.038.287.024l.08-.009c.07.329.234.633.361.871l.022.04h-.75c-.014-.226-.087-.395-.159-.563-.026-.061-.053-.122-.076-.186-.051.193-.048.56.015.735h-.691c.037-.167.034-.408.03-.672a18.72 18.72 0 0 1-.001-.24c0-.082.002-.163.003-.24.007-.288.012-.538-.077-.7.115.002.238 0 .362-.004l.162-.003Zm-8.172.019.176-.003c.507-.006.963.027 1.018.447.043.332-.227.482-.588.515.078.047.195.03.3.013a1.43 1.43 0 0 1 .097-.013c.057.286.189.55.3.774l.067.137h-.75c.004-.202-.06-.337-.125-.472-.035-.074-.07-.148-.095-.233-.051.176-.05.547.015.705h-.691c-.004-.133.01-.33.024-.549.025-.378.055-.82.005-1.097a.313.313 0 0 0-.045-.104c-.023-.038-.045-.075-.043-.117.11.001.223 0 .335-.003Zm3.15.297a.836.836 0 0 1 .658-.293c.152.003.312.046.473.131a3.262 3.262 0 0 0 0 .266 2.6 2.6 0 0 1-.015.455c-.153.02-.169-.103-.183-.22-.006-.043-.01-.085-.022-.118-.046-.133-.147-.31-.265-.31-.342.005-.265 1.195.103 1.206.09.003.14-.049.197-.107a.42.42 0 0 1 .23-.142c.138.545-.584.937-1.03.676-.462-.271-.504-1.138-.147-1.544Zm-1.897.544c.045-.438.361-.83.818-.817a.82.82 0 0 1 .093.009c.058.008.113.025.17.043.122.038.255.08.462.045.009.186.005.4 0 .623-.008.389-.016.8.044 1.111l-.084.007c-.194.015-.467.036-.592-.036-.632.26-.977-.345-.911-.985Zm7.1-.074c.356.052.388-.537.069-.561a.297.297 0 0 0-.069.003 2.148 2.148 0 0 0 0 .559Zm-1.308-.528a.195.195 0 0 0-.083-.018c-.172.006-.2.32-.182.503.082.062.234.018.294-.03a.813.813 0 0 0-.03-.455Zm-6.674.544c.36.101.382-.512.117-.552a.24.24 0 0 0-.131.022c.003.065.001.135 0 .205-.003.116-.006.232.014.325Zm1.808-.47a.208.208 0 0 0-.041-.006c-.415-.01-.31 1.324.026 1.24.06-.113.054-.28.048-.449a7.072 7.072 0 0 1-.001-.315c.004-.174.008-.341-.032-.47Zm6.865 2.042a2.26 2.26 0 0 0 .764-.147h.03c.035.352.012.733-.011 1.11-.025.396-.05.789-.004 1.14.01.077.047.145.074.195l.014.025h-.882c.087-.18.082-.506.077-.88a14.242 14.242 0 0 1-.003-.296l.002-.284c.005-.355.01-.67-.061-.863Zm-8.128.956c.622.09.597-1.05.015-1.029-.019.006-.03.019-.03.044a8.67 8.67 0 0 1 0 .38c-.003.21-.006.42.015.605Zm6.85-.294a.71.71 0 0 1 .488-.216c.384-.01.754.302.644.921h-.72c.01.27.1.49.338.456.08-.01.12-.07.16-.129.051-.076.102-.151.237-.12-.056.254-.116.506-.294.66-.224.195-.654.149-.867-.058-.334-.324-.325-1.166.014-1.514Zm.633.015a.238.238 0 0 0-.045-.008c-.2-.014-.203.302-.205.478v.015c.077.073.217.032.294-.015.05-.138.035-.375-.044-.47Zm-1.75.573c.367.064.415-.55.086-.577a.307.307 0 0 0-.071.004c-.021.1-.018.226-.015.351.002.076.004.151 0 .222Zm-1.602.03c.353.067.41-.57.072-.58a.314.314 0 0 0-.072.006v.573Zm-1.441-.53a.193.193 0 0 0-.079-.011c-.363.03-.292 1.284.064 1.246.04-.36.075-.873.015-1.235Zm-1.97.941a1.173 1.173 0 0 0-.705-.264.074.074 0 0 0-.044.043c0 .309.004.615.008.921.006.537.012 1.074.006 1.623 1.286.262 1.47-1.665.735-2.323Z"
      clip-rule="evenodd" />
  </g>
  <defs>
    <clipPath id="a">
      <path fill="#fff" d="M0 0h18v18H0z" />
    </clipPath>
  </defs>
</svg>