<svg xmlns="http://www.w3.org/2000/svg" viewBox="0 0 18 18">
  <g clip-path="url(#a)">
    <path fill="#1B1A19" d="M0 0h18v18H0V0Z"/>
    <path fill="#fff" fill-rule="evenodd" d="M6.964 3.758c.016.01.116.07.223.138.948.587 1.65 1.343 2.074 2.232.13.274.277.711.332.995.236 1.182-.288 2.57-1.525 4.049a11.87 11.87 0 0 1-1.487 1.447 13.503 13.503 0 0 1-2.83 1.696c-.064.029-.108.05-.1.052.029 0 .575-.17.9-.28 1.52-.523 2.876-1.269 3.921-2.157.306-.261.776-.74 1.006-1.027.58-.723.92-1.425 1.075-2.206a4.22 4.22 0 0 0 .03-1.129c-.2-1.425-1.222-2.651-2.918-3.505-.282-.14-.785-.36-.7-.305Z" clip-rule="evenodd"/>
    <path fill="#761F21" fill-rule="evenodd" d="M14.258 5.34a11.228 11.228 0 0 0-2.994.691c-.335.133-.918.396-.967.44a.518.518 0 0 1-.098.057 1.32 1.32 0 0 0-.124.07 4.737 4.737 0 0 0-.374.232c-1.37.911-2.015 2.087-1.704 3.102.052.173.188.466.21.453.026-.015.36-.53.463-.712.09-.157.09-.16.09-.338 0-.32.07-.61.217-.913.428-.88 1.42-1.694 2.815-2.31.775-.342 1.76-.622 2.646-.752.111-.017.205-.035.211-.038.012-.014-.084-.008-.391.019ZM9.84 11.19l-.24.269c-.115.128-.129.111.148.23.241.107.535.207.811.28l.215.056.205-.22a5.43 5.43 0 0 0 .213-.235 1 1 0 0 0-.226-.096 5.554 5.554 0 0 1-.8-.353 1.46 1.46 0 0 0-.173-.09 1.406 1.406 0 0 0-.153.159Z" clip-rule="evenodd"/>
  </g>
  <defs>
    <clipPath id="a">
      <path fill="#fff" d="M0 0h18v18H0z"/>
    </clipPath>
  </defs>
</svg>
