<svg xmlns="http://www.w3.org/2000/svg" viewBox="0 0 18 18">
  <g clip-path="url(#a)">
    <path fill="#fff" d="M0 0h18v18H0V0Z"/>
    <path fill="#00B2A9" fill-rule="evenodd" d="M3.454 12.18A.464.464 0 0 1 3 11.705V6.294c0-.262.203-.474.454-.474s.454.212.454.474v5.412a.464.464 0 0 1-.454.473Z" clip-rule="evenodd"/>
    <path fill="#34B233" fill-rule="evenodd" d="M5.464 12.18h-.623a.476.476 0 0 1-.478-.474c0-.262.214-.474.478-.474h.623c1.244 0 2.256-1.001 2.256-2.232 0-1.231-1.012-2.232-2.256-2.232h-.623a.476.476 0 0 1-.478-.474c0-.262.214-.474.478-.474h.623c1.772 0 3.214 1.427 3.214 3.18 0 1.753-1.442 3.18-3.214 3.18Z" clip-rule="evenodd"/>
    <path fill="#C70099" fill-rule="evenodd" d="M12.074 12.18a.464.464 0 0 1-.422-.274L9.176 6.494a.478.478 0 0 1 .225-.63.461.461 0 0 1 .618.23l2.476 5.411a.478.478 0 0 1-.225.63.457.457 0 0 1-.196.044Z" clip-rule="evenodd"/>
    <path fill="#6E2CA9" fill-rule="evenodd" d="M12.953 10.363a.43.43 0 0 1-.19-.045.485.485 0 0 1-.219-.63l1.595-3.594a.442.442 0 0 1 .6-.229c.226.11.324.393.219.63l-1.595 3.593a.45.45 0 0 1-.41.275Z" clip-rule="evenodd"/>
  </g>
  <defs>
    <clipPath id="a">
      <path fill="#fff" d="M0 0h18v18H0z"/>
    </clipPath>
  </defs>
</svg>
