<svg xmlns="http://www.w3.org/2000/svg" viewBox="0 0 18 18">
  <g clip-path="url(#a)">
    <path fill="#FEB700" d="M0 0h18v18H0V0Z"/>
    <g clip-path="url(#b)">
      <path fill="#ED0000" d="M4.603 9.389a.663.663 0 0 1-.158-.346.484.484 0 0 1 .079-.276l3.088-4.188a.204.204 0 0 0 .036-.13.234.234 0 0 0-.239-.233H4.206a.715.715 0 0 0-.706.708v8.16a.701.701 0 0 0 .706.7h3.203a.235.235 0 0 0 .239-.234.289.289 0 0 0-.045-.147l-3-4.014Z"/>
      <path fill="#ED0000" d="M13.812 4.217h-3.109a1.019 1.019 0 0 0-.697.328L4.832 8.948a.125.125 0 0 0 0 .173l5.312 4.464a.902.902 0 0 0 .56.2h3.099a.694.694 0 0 0 .697-.7v-8.16a.706.706 0 0 0-.688-.708Z"/>
    </g>
  </g>
  <defs>
    <clipPath id="a">
      <path fill="#fff" d="M0 0h18v18H0z"/>
    </clipPath>
    <clipPath id="b">
      <path fill="#fff" d="M3.5 4.217h11v9.567h-11z"/>
    </clipPath>
  </defs>
</svg>
