<svg xmlns="http://www.w3.org/2000/svg" viewBox="0 0 18 18">
  <g clip-path="url(#a)">
    <path fill="#235BA8" d="M0 0h18v18H0V0Z"/>
    <g clip-path="url(#b)">
      <path fill="#4DAA50" d="M8.5 4.754h1.032v3.4H8.5v-3.4Zm5.476 6.217a2.182 2.182 0 0 1-.203.963 2.215 2.215 0 0 1-.6.78c-.904.731-2.937.627-2.937.627H7.743c-.107.003-2.056.078-2.936-.63a2.181 2.181 0 0 1-.771-1.315 2.234 2.234 0 0 1-.032-.517v-.898l.685-1.12.653 1.12v.895a1.01 1.01 0 0 0 .091.443 1.033 1.033 0 0 0 .27.363c.49.421 2.047.383 2.047.383h2.486s1.57.038 2.056-.383a1.034 1.034 0 0 0 .331-.575.976.976 0 0 0 .018-.225v-2.02l.675 1.12.683-1.12-.023 2.109Z"/>
      <path fill="#fff" d="M13.536 5.922a2.252 2.252 0 0 1 .411.904c.034.164.049.33.045.498v.424l-.676 1.117-.678-1.117v-.34a.998.998 0 0 0-.084-.44 1.053 1.053 0 0 0-.265-.363c-.487-.43-2.036-.391-2.036-.391V4.93s2.023-.101 2.936.63c.129.106.245.228.347.36ZM7.75 4.93v1.292s-1.556-.038-2.043.382a1.019 1.019 0 0 0-.365.794v1.466l-.653-1.12-.685 1.12V7.353a2.234 2.234 0 0 1 .45-1.427c.103-.135.221-.257.353-.365.913-.731 2.943-.63 2.943-.63Z"/>
    </g>
  </g>
  <defs>
    <clipPath id="a">
      <path fill="#fff" d="M0 0h18v18H0z"/>
    </clipPath>
    <clipPath id="b">
      <path fill="#fff" d="M4 4.75h10v8.602H4z"/>
    </clipPath>
  </defs>
</svg>
