<svg xmlns="http://www.w3.org/2000/svg" viewBox="0 0 18 18">
  <g clip-path="url(#a)">
    <path fill="#fff" d="M0 0h18v18H0V0Z"/>
    <path fill="#FF1443" d="M5.086 5.834v3.018c0 .09.045.172.122.217l2.615 1.506a.169.169 0 0 0 .253-.144V7.413a.25.25 0 0 0-.125-.216L5.336 5.69a.167.167 0 0 0-.25.144Zm8.054-2.356L9.377 5.647a.36.36 0 0 0-.18.312v4.345c0 .184.203.3.363.207l3.765-2.169a.356.356 0 0 0 .176-.312V3.685c0-.184-.2-.3-.36-.207Zm-5.164 9.24-1.046.604a.1.1 0 0 0-.05.086v1.208c0 .051.056.083.1.058l1.047-.603a.099.099 0 0 0 .049-.087v-1.207a.067.067 0 0 0-.1-.058Zm-.61-1.113-1.567-.907a.15.15 0 0 0-.15 0l-1.567.907a.1.1 0 0 0 0 .173l1.567.906a.15.15 0 0 0 .15 0l1.567-.906a.1.1 0 0 0 0-.173Zm2.523.163.696.403a.133.133 0 0 0 .133 0l.696-.403a.089.089 0 0 0 0-.154l-.696-.403a.133.133 0 0 0-.133 0l-.696.403a.089.089 0 0 0 0 .154Zm-.56.97.696.401a.133.133 0 0 1 .067.116v.804a.09.09 0 0 1-.134.077l-.697-.402a.133.133 0 0 1-.065-.115v-.804c0-.069.074-.112.133-.077Z"/>
  </g>
  <defs>
    <clipPath id="a">
      <path fill="#fff" d="M0 0h18v18H0z"/>
    </clipPath>
  </defs>
</svg>
