<svg xmlns="http://www.w3.org/2000/svg" viewBox="0 0 18 18">
  <g clip-path="url(#a)">
    <path d="M0 0h18v18H0V0Z"/>
    <path fill="#fff" d="M13.182 10.482c-1.094 1.482-1.73 2.33-2.258 2.824-.424.388-.777.458-1.483.458H7.218c-.036 0-.07-.035-.036-.07L12.9 4.305l-.282-.705H5.629L4.5 7.27l.318.141C5.876 5.964 6.512 5.153 6.97 4.694c.388-.389.776-.424 1.411-.424H10.5c.035 0 .07.035.035.07l-5.682 9.354.282.706h7.2l1.165-3.777-.318-.141Z"/>
  </g>
  <defs>
    <clipPath id="a">
      <path fill="#fff" d="M0 0h18v18H0z"/>
    </clipPath>
  </defs>
</svg>
