<svg xmlns="http://www.w3.org/2000/svg" viewBox="0 0 18 18">
  <g clip-path="url(#a)">
    <path fill="#fff" d="M0 0h18v18H0V0Z"/>
    <path d="M12.163 5.438C10.68 3.485 7.987 2.933 5.75 4.128 6.624 6.09 7.276 8.4 11.582 8.534c.504.015 1.06 0 1.67-.048-.086-1.233-.49-2.256-1.09-3.048Zm-.793 4.017c-2.591.13-3.806 1.07-4.564 2.237-.446.687-.734 1.445-1.056 2.16 3.14 1.675 7.195-.091 7.502-4.363a14.892 14.892 0 0 0-1.881-.034Z"/>
  </g>
  <defs>
    <clipPath id="a">
      <path fill="#fff" d="M0 0h18v18H0z"/>
    </clipPath>
  </defs>
</svg>
