<svg xmlns="http://www.w3.org/2000/svg" viewBox="0 0 18 18">
  <g clip-path="url(#a)">
    <path fill="#023557" d="M0 0h18v18H0V0Z"/>
    <path fill="#fff" d="M8.368 13.722a1.503 1.503 0 0 1-.74-1.315v-4.92a.232.232 0 0 1 .462 0v4.915c.007.854.703 1.327 1.85 1.348 1.696-.045 3.386-.813 3.386-2.678 0-.834-.607-2.15-2.44-2.351v-.026c1.098-.378 1.833-1.112 1.795-2.035-.06-1.452-1.276-1.91-2.587-1.91h-5.07a.27.27 0 0 0-.25.149l-.12.242c-.074.137.06.176.283.227.62.087.919.292.934.789H8.74c.008-.231.065-.401.18-.524.153-.144.397-.217.753-.183.024.003.047.005.07.009.047.006.092.013.14.021.652.123 1.017.499 1.017 1.43 0 .834-.556 1.617-1.594 1.617h-.1c-.148.003-.205.066-.207.194v.282c.002.15.067.208.197.208h.085c1.265 0 2.022.747 2.048 1.91.025 1.188-.57 1.948-1.605 1.948-.653 0-.986-.278-.986-1.125v-4.74a.295.295 0 0 0 .292-.294.29.29 0 0 0-.292-.292H5.873a.3.3 0 0 0-.293.292c0 .162.136.293.293.293v5.127c0 .643.503 1.044 1.133 1.195-.36-.29-.488-.615-.486-1.103l-.002-4.934a.232.232 0 0 1 .462 0v4.934c-.004.84.646 1.186 1.388 1.3Z"/>
  </g>
  <defs>
    <clipPath id="a">
      <path fill="#fff" d="M0 0h18v18H0z"/>
    </clipPath>
  </defs>
</svg>
