<svg xmlns="http://www.w3.org/2000/svg" viewBox="0 0 18 18">
  <g clip-path="url(#a)">
    <path fill="#534E4C" d="M0 0h18v18H0V0Z"/>
    <path fill="#fff" fill-rule="evenodd" d="M8.525 9.802h-.169v-.516h1.728v.516h-.569v2.89h-.59V9.796h-.399v.005Zm-3.543 2.89-.384-2.002-.043-.233v-.013h-.011l-.398 2.248H3.65L3 9.287h.55l.016.085.347 2.098h.01l.03-.18.046-.25.307-1.753h.485l.015.085.384 2.098h.01l.027-.18.038-.256.263-1.747h.549l-.03.169-.573 3.238h-.492Zm-1.063-1.78-.268-1.626h.057l.242 1.46-.031.165Zm8.527-.925a1.184 1.184 0 0 0-.094-.332 1.222 1.222 0 0 0-.083-.151 1.123 1.123 0 0 1 .195.346 1.07 1.07 0 0 1 .056.394v.338h-.759v-.071h.693v-.351a1.14 1.14 0 0 0-.008-.173Zm.58 2.681V9.262h.594v1.4h.62v-1.4h.596v3.406h-.588v-1.493h-.628v1.493h-.594Zm-2.84-3.382h.07v.685h-.569v2.893h-.76v-.072h.69V9.9h.569v-.614ZM4.55 10.972l.045.232-.296 1.66h-.636l-.013-.071h.578l.014-.082.308-1.739Zm1.713-1.686-.633 3.578h-.636l-.013-.071h.576l.015-.082.612-3.408v-.017h.08Zm1.415 3.407-.092-.651-.012-.084h-.648l-.105.735h-.569l.631-3.407h.732l.015.085.617 3.322H7.68Zm-.19-.628.01.07h-.413l-.105.729h-.745l.014-.071h.658l.015-.085.09-.651.475.008Zm.284-2.778.664 3.577H7.69l-.01-.071h.687l-.02-.117-.629-3.39h.055Zm4.682 2.184h.071v.48a.895.895 0 0 1-.58.907.913.913 0 0 1-.38.055 1.029 1.029 0 0 1-.376-.055.978.978 0 0 1-.33-.19 1.128 1.128 0 0 0 .298.132.98.98 0 0 0 .16.03c.055.008.11.01.165.008a.892.892 0 0 0 .127-.007 1.962 1.962 0 0 0 .128-.02.864.864 0 0 0 .7-.742 1.014 1.014 0 0 0 .013-.202l.004-.396Zm-.973 1.275a.927.927 0 0 1-.482-.111.92.92 0 0 1-.139-.092.913.913 0 0 1-.216-.306.889.889 0 0 1-.066-.37v-1.76c0-.493.286-.887.897-.887h.04a.841.841 0 0 1 .49.158c.046.035.09.074.128.118a1.03 1.03 0 0 1 .208.486.98.98 0 0 1 .01.178v.252h-.59v-.265a.56.56 0 0 0-.069-.3.296.296 0 0 0-.034-.046.23.23 0 0 0-.094-.06.33.33 0 0 0-.055-.014h-.034c-.236 0-.313.123-.313.38v1.742c0 .169.037.283.135.338a.426.426 0 0 0 .087.03.485.485 0 0 0 .091.007h.04c.184-.009.246-.131.246-.338v-.415h.6v.397c0 .473-.274.86-.834.878h-.046ZM15 9.263v3.576h-.759v-.071h.69V9.263H15Zm-1.285 2.012h.434v.07h-.36v1.495h-.762v-.071h.688v-1.494ZM8.357 9.902h.472v.07h-.472v-.07Zm-3.17.995-.293-1.61h.053l.264 1.444-.024.166Zm2.307.548-.188-1.183-.043-.272-.249 1.455h.48Zm-.276-.098h-.083l.122-.77.04.267-.079.503Zm4.127-1.149v1.745a.43.43 0 0 0 .01.128.296.296 0 0 0 .01.042c-.063-.031-.091-.102-.091-.261v-1.748a.24.24 0 0 1-.001-.023v-.07c.014-.139.068-.185.17-.185h.039a.166.166 0 0 1 .109.046c.01.01.017.02.024.032a.074.074 0 0 0-.012-.001.08.08 0 0 0-.025 0h-.012c-.154 0-.228.044-.222.295Zm2.445.366h-.071v-1.3h.07v1.3Zm-8.111-4.08h.074v.685h-.787v1.489h-.761v-.071h.69V7.099h.784v-.614Zm.27-1.399h.068v.686H4.966v.619h-.071V5.7h1.05v-.1l.004-.515Zm1.24 0h.07v3.573h-.76v-.072h.686v-.094l.004-3.407Zm4.963 2.597a1.216 1.216 0 0 0-.065-.378 1.185 1.185 0 0 0-.185-.337 1.143 1.143 0 0 1 .234.367 1.172 1.172 0 0 1 .085.427c0 .595-.387.963-1.014.963a.844.844 0 0 1-.173-.012.83.83 0 0 1-.324-.122.864.864 0 0 1-.139-.106.925.925 0 0 0 .623.168 1.257 1.257 0 0 0 .337-.06 1.03 1.03 0 0 0 .33-.19.928.928 0 0 0 .17-.215.88.88 0 0 0 .106-.32.978.978 0 0 0 .015-.19v.005Zm-1.021.879a.79.79 0 0 1-.43-.11.81.81 0 0 1-.261-.244.964.964 0 0 1-.105-.18.974.974 0 0 1-.094-.405V7.61l.57-.076v.094a.534.534 0 0 0 .189.377.208.208 0 0 0 .073.034.382.382 0 0 0 .04.01.396.396 0 0 0 .04.001h.053a.283.283 0 0 0 .26-.164.286.286 0 0 0 .028-.114v-.02a.643.643 0 0 0-.128-.376.692.692 0 0 0-.086-.1c-.156-.164-.368-.315-.558-.495a1.19 1.19 0 0 1-.427-.845v-.042c0-.547.333-.856.912-.856h.037a.735.735 0 0 1 .643.394.998.998 0 0 1 .115.289c.011.05.02.102.023.153h-.013l-.393.044h-.084l-.07.009a.504.504 0 0 0-.077-.252.271.271 0 0 0-.086-.085.26.26 0 0 0-.056-.026.232.232 0 0 0-.059-.015h-.038c-.188 0-.293.124-.293.338l-.001.01v.018l.001.008a.79.79 0 0 0 .098.254.794.794 0 0 0 .182.202c.166.161.384.312.553.5.056.05.106.107.15.17.044.06.082.126.113.196a1.108 1.108 0 0 1 .1.44v.042c-.018.522-.373.817-.88.834h-.041Zm-.15-.736a.53.53 0 0 1-.07-.195.559.559 0 0 1-.007-.105l.064-.01v.092a.682.682 0 0 0 .022.154.754.754 0 0 0 .05.15.587.587 0 0 1-.06-.086Zm1.138-1.97a1.249 1.249 0 0 0-.117-.42 1.365 1.365 0 0 0-.072-.127 1.082 1.082 0 0 1 .236.46c.014.057.024.114.029.172v.085l-.732.08v-.08h.01l.562-.06.098-.011-.014-.098Zm2.167-.785h.072v.685h-.57v2.89h-.768v-.07h.69v-2.89h.57v-.1l.006-.515Zm-1.666.514h-.169v-.507h1.737v.507h-.57v2.893h-.598v-2.89h-.4v-.003ZM8.737 7.18l.022.074h-.1v1.401H7.92v-.068h.668V7.183l.149-.004Zm.55 1.31h-.062l-.39-1.328-.024-.084a30.063 30.063 0 0 0-.152.012 60.628 60.628 0 0 1-.151.003h-.01v1.404H7.92V5.083h.815c.37 0 .626.09.787.283a1.132 1.132 0 0 1 .163.343 1.102 1.102 0 0 1 .036.376v.033c0 .42-.147.704-.406.82v.027l.488 1.52h-.516v.005Zm.208-1.419.508 1.589h-.758l-.02-.069h.717l-.04-.13-.466-1.452v-.015a.765.765 0 0 0 .236-.235.772.772 0 0 0 .12-.31 1.8 1.8 0 0 0 .036-.272c.001-.03.002-.06.001-.09a1.257 1.257 0 0 0-.177-.722 1.167 1.167 0 0 1 .202.38 1.177 1.177 0 0 1 .047.426c0 .543-.214.79-.405.9ZM4.204 8.494v-3.4h1.642V5.6H4.792v.89h.79v.507h-.79v1.496h-.59Zm2.463-.002h-.169V5.085h.59v3.41h-.42v-.003Zm4.368-2.527a.356.356 0 0 0 .022.123.428.428 0 0 0 .056.11.532.532 0 0 1-.103-.145.485.485 0 0 1-.047-.184v-.036c.01-.17.115-.19.17-.19h.016c.016 0 .03 0 .045.005a.17.17 0 0 1 .109.076.06.06 0 0 0-.016-.005.864.864 0 0 0-.051-.007c-.053 0-.21 0-.201.253Zm1.417-.283h.472v.072h-.472v-.072Zm-3.963.938h.22c.323 0 .438-.129.444-.507v-.036a.79.79 0 0 0-.008-.165.77.77 0 0 0-.052-.194.458.458 0 0 0-.01-.016l-.008-.015a.33.33 0 0 0-.076-.079.067.067 0 0 0-.012-.007l-.01-.007a.422.422 0 0 0-.094-.036l-.029-.006h-.366l.001 1.068Zm.17-.102h-.07v-.876h.25a.174.174 0 0 1 .043.01.375.375 0 0 1 .063.03l.006.006a.173.173 0 0 1 .012.009l.011.01a.167.167 0 0 1 .019.024.217.217 0 0 0-.017-.005.16.16 0 0 0-.017-.005l-.017-.005a.109.109 0 0 0-.017-.003h-.012a.055.055 0 0 0-.01-.001h-.244v.806Z" clip-rule="evenodd"/>
  </g>
  <defs>
    <clipPath id="a">
      <path fill="#fff" d="M0 0h18v18H0z"/>
    </clipPath>
  </defs>
</svg>
