<svg xmlns="http://www.w3.org/2000/svg" viewBox="0 0 18 18">
  <g clip-path="url(#a)">
    <path fill="#442447" d="M0 0h18v18H0V0Z"/>
    <path fill="#fff" d="M8.304 6.792c0 .108-.059.167-.178.167H5.28v1.537h2.435c.108 0 .167.059.167.177V9.74c0 .107-.059.176-.167.176H5.28v2.407c0 .117-.059.177-.178.177H3.876c-.118 0-.177-.059-.177-.177V5.676c0-.117.06-.175.177-.175h4.25c.118 0 .178.058.178.177v1.114Z"/>
    <path fill="#E0310B" d="M8.95 12.499c-.117 0-.177-.059-.177-.177V5.677c0-.117.059-.177.177-.177h1.306c.089 0 .158.039.196.117l1.315 2.34c.413.782.835 1.604 1.05 2.094l.03-.01a34.639 34.639 0 0 1-.108-2.612V5.677c0-.117.059-.177.177-.177h1.219c.108 0 .166.059.166.177v6.645c0 .117-.058.177-.166.177h-1.306a.23.23 0 0 1-.206-.117l-1.277-2.114a21.163 21.163 0 0 1-1.139-2.28l-.03.009c.088.89.157 1.929.157 2.79v1.536c0 .117-.058.177-.166.177H8.95v-.001Z"/>
  </g>
  <defs>
    <clipPath id="a">
      <path fill="#fff" d="M0 0h18v18H0z"/>
    </clipPath>
  </defs>
</svg>
