<svg xmlns="http://www.w3.org/2000/svg" viewBox="0 0 18 18">
  <g clip-path="url(#a)">
    <path fill="#06F" d="M0 0h18v18H0V0Z"/>
    <path fill="#fff" d="M4.274 9.572 2.82 9.569l.008-2.726L2.3 6.84l.003-.933h.528v-.052c0-.37.025-.718.275-1.03.288-.354.744-.412 1.176-.41l1.08.098-.003.926-.662-.06c-.36-.031-.462.176-.426.531l.925.003-.004.933-.91-.001m2.867 2.731-1.421-.003.01-3.702 1.422.003-.01 3.702Zm.012-4.056-1.42-.003.002-.985 1.422.003m3.08 5.046L9.028 9.58 7.496 4.607l1.677.002.704 2.629.147-.526.59-2.1 1.158.002"/>
    <path fill="#fff" fill-rule="evenodd" d="M15.795 7.93c-.255 1.205-1.147 1.758-2.126 1.758-.607-.002-1.198-.158-1.666-.656-.444-.478-.678-1.16-.676-1.869.002-.67.223-1.4.612-1.876a2.11 2.11 0 0 1 1.647-.765c1.377.003 2.217 1.073 2.211 2.707v.264l-2.77-.005c-.026.534.135.924.62.925.364.002.568-.174.634-.603m-.101-1.293c0-.486-.127-.856-.58-.857-.422-.001-.593.397-.579.855l1.159.002ZM2.35 9.884l1.634.002c.252.001.512.022.72.174a.89.89 0 0 1 .354.714.737.737 0 0 1-.567.733v.009c.385.07.647.366.645.769 0 .29-.103.615-.343.787-.258.187-.62.19-.922.19l-1.53-.003.008-3.375ZM3.7 11.18c.098 0 .215.005.288-.064a.312.312 0 0 0 .099-.223c0-.25-.204-.284-.4-.285h-.4l-.001.57.414.002Zm.026 1.33c.103 0 .214.005.297-.064a.3.3 0 0 0 .124-.238.298.298 0 0 0-.16-.265c-.089-.044-.205-.044-.298-.044l-.404-.001-.003.61.444.001Zm4.089.76-2.511-.005.01-3.375 2.511.005-.002.777-1.507-.002-.002.492 1.22.002-.002.753-1.219-.003-.002.546 1.506.003-.002.807Zm2.648.006-2.347-.006.011-3.375 1.034.003-.008 2.548 1.313.002-.003.828Zm4.275.008-.863-.001-.458-1.862h-.009l-.44 1.86-.897-.003-.882-3.376.965.001.457 1.95h.011l.46-1.947.804.002.486 1.949h.01l.468-1.948.784.001-.896 3.374Z" clip-rule="evenodd"/>
    <path fill="#fff" fill-rule="evenodd" d="M11.153 10.87a.902.902 0 0 1-1.03.754.905.905 0 0 1-.747-1.037.902.902 0 0 1 1.03-.756.905.905 0 0 1 .747 1.039Zm-.513-.082a.382.382 0 0 0-.315-.438.381.381 0 0 0-.435.32.383.383 0 0 0 .315.437.382.382 0 0 0 .435-.319Z" clip-rule="evenodd"/>
  </g>
  <defs>
    <clipPath id="a">
      <path fill="#fff" d="M0 0h18v18H0z"/>
    </clipPath>
  </defs>
</svg>
