<svg xmlns="http://www.w3.org/2000/svg" viewBox="0 0 18 18">
  <g clip-path="url(#a)">
    <path fill="#fff" d="M0 0h18v18H0V0Z"/>
    <g clip-path="url(#b)">
      <path fill="#11325C" d="M8.046 3.358a5.9 5.9 0 0 1 3.805.558 5.838 5.838 0 0 1 3.13 5.632 5.847 5.847 0 0 1-7.387 5.198 5.85 5.85 0 0 1-4.191-4.505 5.905 5.905 0 0 1 .341-3.4c-.249-.12-.49-.257-.744-.368v-.014c.12-.048.225-.125.335-.192.68-.418 1.356-.839 2.036-1.255.003.881 0 1.762.001 2.643l-.52-.259a4.686 4.686 0 0 0-.225 2.903 4.678 4.678 0 0 0 9.1-.063 4.665 4.665 0 0 0-2.26-5.113 4.681 4.681 0 0 0-3.026-.548c-.128-.406-.267-.81-.395-1.217Z"/>
      <path fill-rule="evenodd" d="M8.625 6.457c.12-.043.234-.164.367-.136.716.376 1.425.761 2.14 1.14.092.053.2.092.263.183.275.357.55.715.827 1.072.03.04.077.103.025.146-.26.192-.548.349-.806.544-.025.44-.013.88-.034 1.32.006.055-.036.094-.083.111-.797.365-1.596.724-2.39 1.093L6.51 10.692c-.042-.02-.082-.058-.078-.11-.002-.458.002-.917-.001-1.376-.223-.107-.455-.198-.673-.315-.048-.067.013-.13.043-.19.228-.382.45-.767.678-1.15.037-.068.113-.096.178-.13.657-.32 1.31-.646 1.967-.964Zm-.139.206c-.003.618 0 1.237-.001 1.856.165.102.35.176.503.298.708-.387 1.414-.777 2.121-1.163.065-.014.006-.07-.025-.078-.716-.378-1.426-.768-2.144-1.142-.15.08-.302.153-.454.229Zm-1.74.894c.15.098.312.176.468.265.383.208.76.426 1.151.621-.002-.566.001-1.133-.002-1.7-.54.268-1.077.543-1.616.814Zm-.152.095c-.226.384-.453.769-.677 1.153.823.38 1.65.752 2.472 1.134.15-.352.285-.709.435-1.06-.742-.41-1.487-.818-2.23-1.227Zm2.417 1.332.944 1.208c.712-.466 1.425-.932 2.134-1.402l-.812-1.053c-.756.415-1.503.844-2.266 1.247Zm-.506 1.068c-.022.078-.116.053-.168.025l-1.758-.804v1.285c.756.389 1.516.771 2.27 1.164.002-.844-.003-1.688.004-2.53-.112.287-.228.575-.348.86Zm.498-.834v2.512c.753-.342 1.505-.685 2.258-1.029.019-.402.01-.804.03-1.205-.441.285-.877.579-1.319.862-.024-.005-.071-.016-.095-.02-.289-.376-.584-.747-.874-1.12Z" clip-rule="evenodd"/>
      <path fill="#723812" d="M8.486 6.663c.152-.075.304-.149.454-.228.718.374 1.428.763 2.144 1.142.031.007.09.064.025.077L8.988 8.817c-.153-.122-.338-.195-.503-.297.001-.62-.002-1.238.001-1.857Zm-1.74.894c.54-.27 1.077-.546 1.617-.813.003.567 0 1.133.002 1.7-.39-.195-.768-.414-1.151-.621-.156-.09-.318-.167-.467-.266Z"/>
      <path fill="#C16B30" d="M6.594 7.653c.743.41 1.488.817 2.23 1.228-.15.35-.285.708-.435 1.059-.823-.382-1.65-.754-2.472-1.134.224-.384.451-.768.677-1.153Zm2.417 1.332c.763-.402 1.51-.832 2.266-1.247l.812 1.054c-.71.469-1.422.935-2.134 1.401L9.01 8.985Zm-.507 1.068c.12-.285.237-.573.35-.86-.008.842-.003 1.687-.004 2.53-.755-.392-1.515-.775-2.271-1.164V9.274l1.758.804c.052.028.146.053.167-.025Zm.499-.834c.29.373.585.744.874 1.12l.095.02c.442-.283.878-.576 1.319-.861-.02.4-.011.803-.03 1.204l-2.258 1.03V9.219Z"/>
    </g>
  </g>
  <defs>
    <clipPath id="a">
      <path fill="#fff" d="M0 0h18v18H0z"/>
    </clipPath>
    <clipPath id="b">
      <path fill="#fff" d="M3 3.25h12v11.707H3z"/>
    </clipPath>
  </defs>
</svg>
