<svg xmlns="http://www.w3.org/2000/svg" viewBox="0 0 18 18">
  <g clip-path="url(#a)">
    <path fill="#fff" d="M0 0h18v18H0V0Z"/>
    <path fill="#319B42" d="M14.416 8.04a5.489 5.489 0 0 0-1.385-2.781c0 .013-.003.028-.004.041a2.723 2.723 0 0 0 .34 1.582c.26.47.639.86 1.05 1.158Zm-2.698 4.574c.43-.436.736-.838.912-1.195.173-.353.212-.645.12-.89-.046-.119-.158-.263-.317-.404a3.27 3.27 0 0 0-.693-.454 4.67 4.67 0 0 0-.897-.336 3.64 3.64 0 0 0-.913-.125 1.87 1.87 0 0 0-.76.139.71.71 0 0 1-.772-.125l-.66-.6a.624.624 0 0 1-.18-.652.635.635 0 0 1 .582-.45c.336-.047.683-.096 1.03-.364.439-.34.8-.986 1.074-1.92.134-.46.219-1.016.279-1.524A5.49 5.49 0 0 0 8.999 3.5a5.482 5.482 0 0 0-3.844 1.568c.15.064.286.154.4.271.155.157.316.438.207.878-.051.209-.15.412-.257.626-.225.46-.362.78-.223 1.04.086.151.352.493 1.17 1.09.53.388 1.07.72 1.343.883a.746.746 0 0 1 .345.825c-.058.236-.103.481-.046.674.023.075.09.305.6.486a.673.673 0 0 1 .374.946c-.161.31-.496.952-.877 1.656a5.5 5.5 0 0 0 1.238.043c.652-.466 1.571-1.144 2.289-1.872Z"/>
    <path fill="#00558C" d="M8.522 12.33c-1.149-.41-1.024-1.212-.885-1.774a.23.23 0 0 0-.106-.253c-.521-.312-2.266-1.39-2.702-2.169-.515-.94.801-1.977.356-2.43a.736.736 0 0 0-.42-.21A5.465 5.465 0 0 0 3.5 8.999a5.504 5.504 0 0 0 4.16 5.336c.415-.767.787-1.48.948-1.79a.155.155 0 0 0-.086-.216Zm5.97-3.619c-.676-.398-1.237-.956-1.58-1.575a3.236 3.236 0 0 1-.403-1.88c.012-.145.035-.29.066-.436a5.493 5.493 0 0 0-1.549-.935c-.063.499-.148 1.035-.283 1.497-.723 2.47-1.877 2.56-2.598 2.663a.11.11 0 0 0-.06.19l.661.601a.196.196 0 0 0 .211.035 2.39 2.39 0 0 1 .972-.183c1.354 0 2.994.826 3.307 1.657.475 1.264-1.213 2.83-2.625 3.915a5.502 5.502 0 0 0 3.881-5.549Z"/>
    <path fill="#fff" d="M14.416 8.04c.04.22.065.443.076.67-.676-.398-1.237-.956-1.58-1.576a3.237 3.237 0 0 1-.403-1.88c.012-.144.035-.289.066-.435.16.137.314.283.456.438 0 .014-.003.028-.004.042a2.723 2.723 0 0 0 .34 1.582c.26.471.639.86 1.05 1.158ZM9.07 12.785a.677.677 0 0 0-.373-.947c-.511-.182-.578-.41-.6-.485-.057-.193-.012-.439.045-.674a.746.746 0 0 0-.344-.825 17.73 17.73 0 0 1-1.343-.883c-.819-.598-1.086-.94-1.17-1.091-.14-.259-.003-.58.223-1.039.105-.214.205-.417.256-.626.109-.44-.052-.72-.206-.878a1.224 1.224 0 0 0-.4-.271 5.648 5.648 0 0 0-.392.425.74.74 0 0 1 .42.21c.445.453-.871 1.49-.356 2.43.437.779 2.18 1.858 2.702 2.168.087.053.13.155.106.254-.137.563-.263 1.364.885 1.773a.155.155 0 0 1 .086.216c-.16.31-.532 1.023-.949 1.79.176.043.353.079.535.105.38-.702.713-1.342.875-1.652Zm4.166-2.441c-.313-.831-1.953-1.657-3.307-1.657a2.4 2.4 0 0 0-.972.183.196.196 0 0 1-.21-.035l-.662-.6a.11.11 0 0 1 .06-.191c.72-.104 1.876-.193 2.598-2.663.135-.462.22-.998.283-1.497a5.44 5.44 0 0 0-.503-.172c-.06.508-.145 1.063-.28 1.523-.272.934-.633 1.58-1.074 1.92-.346.267-.693.317-1.029.365l-.069.01a.63.63 0 0 0-.334 1.091l.66.6a.71.71 0 0 0 .773.125 1.88 1.88 0 0 1 .76-.138c.285 0 .593.042.913.125.307.08.617.195.897.336.271.136.511.293.693.454.16.142.273.285.316.403.093.247.054.538-.12.89-.173.358-.48.76-.911 1.196-.718.728-1.637 1.406-2.288 1.869a5.419 5.419 0 0 0 1.18-.223c1.413-1.084 3.101-2.65 2.626-3.914Z"/>
  </g>
  <defs>
    <clipPath id="a">
      <path fill="#fff" d="M0 0h18v18H0z"/>
    </clipPath>
  </defs>
</svg>
