<svg xmlns="http://www.w3.org/2000/svg" viewBox="0 0 18 18">
  <g clip-path="url(#a)">
    <path fill="#FC0" d="M0 0h18v18H0V0Z"/>
    <path fill="#212121" d="M13.609 5.087a6.74 6.74 0 0 0-.604-.521.327.327 0 0 0-.257-.06c-.335.065-2.152.332-3.75.332-1.598 0-3.413-.266-3.748-.332a.327.327 0 0 0-.257.06 6.77 6.77 0 0 0-.602.521.31.31 0 0 0-.096.218 19.7 19.7 0 0 0 .002 1.544 19.89 19.89 0 0 0 1.177 6 .32.32 0 0 0 .09.132C6.519 13.812 8 14.5 9 14.5s2.482-.688 3.435-1.52a.32.32 0 0 0 .09-.13 19.916 19.916 0 0 0 1.18-7.545.31.31 0 0 0-.096-.218ZM8.292 10.75a.692.692 0 0 1-.017.03c-.375.666-.98.75-1.66.482-.645-.255-1.247-.829-1.01-1.607.225-.701 1.322-.416 1.826-.29.714.175 1.258.593.876 1.36.012-.028.017-.037-.015.025Zm4.114-.488c-.173.712-.884 1.083-1.586 1.157-.645.067-1.214-.56-1.237-1.186 0 .043 0 .082-.001-.025v-.02c.022-.759 1.139-.887 1.704-.952.744-.084 1.327.171 1.12 1.026Z"/>
  </g>
  <defs>
    <clipPath id="a">
      <path fill="#fff" d="M0 0h18v18H0z"/>
    </clipPath>
  </defs>
</svg>
