<svg xmlns="http://www.w3.org/2000/svg" viewBox="0 0 18 18">
  <g clip-path="url(#a)">
    <path fill="#fff" d="M0 0h18v18H0V0Z"/>
    <path fill="#1762BD" d="M10.747 14.762A6.03 6.03 0 0 1 3.25 7.248a5.847 5.847 0 0 1 4.003-4.003 6.03 6.03 0 0 1 7.497 7.514 5.847 5.847 0 0 1-4.003 4.003ZM9.435 3.754C6.186 3.49 3.48 6.198 3.742 9.43c.213 2.56 2.28 4.626 4.823 4.823a5.265 5.265 0 0 0 5.677-5.676c-.197-2.56-2.264-4.626-4.807-4.823Z"/>
    <path fill="#EB1B2E" d="M11.37 10.414c0-.952-.492-1.624-1.082-2.674C9.5 6.345 9.008 5 9.008 5s-.393 1.198-1.263 2.723c-.295.525-1.083 1.723-1.083 2.674 0 .82.69 2.313 2.346 2.313 1.657 0 2.363-1.476 2.363-2.296Z"/>
  </g>
  <defs>
    <clipPath id="a">
      <path fill="#fff" d="M0 0h18v18H0z"/>
    </clipPath>
  </defs>
</svg>
