<svg xmlns="http://www.w3.org/2000/svg" viewBox="0 0 18 18">
  <g clip-path="url(#a)">
    <path fill="#262729" d="M0 0h18v18H0V0Z"/>
    <path fill="#fff" fill-rule="evenodd" d="M5 4.155c0-.041.033-.075.075-.075h1.944c.041 0 .074.034.074.075v3.619c0 .04.034.074.075.074h3.664a.075.075 0 0 0 .074-.074v-3.62c0-.04.034-.074.075-.074h1.944c.041 0 .075.034.075.075v9.69a.075.075 0 0 1-.075.074h-1.944a.075.075 0 0 1-.075-.074V9.867a.075.075 0 0 0-.074-.075H7.168a.075.075 0 0 0-.075.075v3.978a.075.075 0 0 1-.074.074H5.075A.075.075 0 0 1 5 13.845v-9.69Z" clip-rule="evenodd"/>
  </g>
  <defs>
    <clipPath id="a">
      <path fill="#fff" d="M0 0h18v18H0z"/>
    </clipPath>
  </defs>
</svg>
