<svg xmlns="http://www.w3.org/2000/svg" viewBox="0 0 18 18">
  <g clip-path="url(#a)">
    <path fill="#DF2A63" d="M0 0h18v18H0V0Z"/>
    <path fill="#fff" d="M4.535 7.2h2.242L6.6 13.818H4.58l-.046-6.62Zm5.615-3.17-.046 3.228a4.9 4.9 0 0 1 1.553-.274 2.92 2.92 0 0 1 1.692.543c.917.648 1.366 1.6 1.366 2.86 0 1.162-.397 2.072-1.179 2.732-.689.584-1.53.881-2.527.881a4.883 4.883 0 0 1-2.365-.607 4.275 4.275 0 0 1-.63-.426c.088-.338.128-.753.128-1.249l-.081-6.14c0-.363-.041-.76-.111-1.197l2.2-.35Zm-.093 5.09.018 2.832c.315.192.653.297 1.01.297.571 0 1.027-.222 1.36-.671.216-.304.332-.671.332-1.11 0-.542-.169-.957-.508-1.237a1.652 1.652 0 0 0-1.109-.39c-.373-.018-.735.087-1.103.28ZM6.782 6.463h-.128c-1.652 0-2.154-.91-2.154-.91V4s.56.525 2.113.525h.17v1.938Z"/>
  </g>
  <defs>
    <clipPath id="a">
      <path fill="#fff" d="M0 0h18v18H0z"/>
    </clipPath>
  </defs>
</svg>
