<svg xmlns="http://www.w3.org/2000/svg" viewBox="0 0 18 18">
  <g clip-path="url(#a)">
    <path d="M0 0h18v18H0V0Z"/>
    <path fill="#fff" fill-rule="evenodd" d="M4.466 10.356 4.467 8.4h.153l.956 1.953h.638L7.17 8.4h.155v1.955h.764V7.653H6.713L5.898 9.27l-.822-1.614-1.37.005-.002 2.696h.762Zm-2.216 0h.855V7.653H2.25v2.703Zm7.363-2.703-1.374 2.703h.914l.239-.46h1.707l.232.46h.916l-1.374-2.703h-1.26Zm.674.615h-.085l-.52 1.023h1.119l-.514-1.023Zm3.261-.615h-1.06l1.07 1.269-1.279 1.434h1.132l.86-.977.851.977h1.128L14.978 8.92l1.065-1.267h-1.042l-.737.878-.715-.878Z" clip-rule="evenodd"/>
  </g>
  <defs>
    <clipPath id="a">
      <path fill="#fff" d="M0 0h18v18H0z"/>
    </clipPath>
  </defs>
</svg>
