<svg xmlns="http://www.w3.org/2000/svg" viewBox="0 0 18 18">
  <g clip-path="url(#a)">
    <path fill="#fff" d="M0 0h18v18H0V0Z"/>
    <path fill="#FF4D00" d="m9.599 9.143 1.355.226.919.992-.124 1.425-3.308-1.875 1.158-.768Z"/>
    <path fill="#FF7D00" d="m14.499 9-2.75 2.787L9 3.427 14.5 9Z"/>
    <path fill="#001AFF" d="m12.667 9.001-4.226.912.116-2.058 4.11 1.146Z"/>
    <path fill="#E23400" d="m3.5 9.001 2.037.456 1.348.886.098.892-.547.742L3.5 9Z"/>
    <path fill="#FF4D00" d="m8.702 3.729-1.817 6.613L3.5 9l5.202-5.27Z"/>
    <path fill="#FF7D00" d="m6.885 10.342 4.523 1.79-2.409 2.441-2.563-2.597.449-1.634Z"/>
  </g>
  <defs>
    <clipPath id="a">
      <path fill="#fff" d="M0 0h18v18H0z"/>
    </clipPath>
  </defs>
</svg>
