<svg xmlns="http://www.w3.org/2000/svg" viewBox="0 0 18 18">
  <g clip-path="url(#a)">
    <path fill="#FF8001" d="M0 0h18v18H0V0Z"/>
    <path fill="#fff" d="M13.971 8.833c-.031-.082-.466-.886-1.274-1.895a.166.166 0 0 1-.038-.086 15.952 15.952 0 0 0-.242-1.75.284.284 0 0 0-.246-.222l-.842-.101h-.022a.177.177 0 0 0-.177.177v.292a.01.01 0 0 1-.01.01.011.011 0 0 1-.008-.002 11.78 11.78 0 0 0-1.695-1.282.743.743 0 0 0-.832 0c-2.9 1.792-4.495 4.7-4.557 4.859a.287.287 0 0 0 .19.4l.835.162a.286.286 0 0 1 .208.244c.007.147.165 3.44.363 4.294a.288.288 0 0 0 .278.214h.006c.488-.013.934-.02 1.418-.027h.042a.094.094 0 0 0 .093-.094v-.002a89.91 89.91 0 0 1-.096-1.64l-.003-.056a.178.178 0 0 0-.089-.139.9.9 0 0 1-.437-.727c-.044-1.154-.066-2.489-.003-3.533a.168.168 0 0 1 .336.007v.013a31.816 31.816 0 0 0-.03 2.33.2.2 0 0 0 .398-.006c-.015-.818-.01-1.646.032-2.344a.168.168 0 1 1 .335.007v.013c-.04.692-.044 1.51-.03 2.318a.2.2 0 0 0 .343.136.199.199 0 0 0 .056-.142c-.015-.814-.01-1.64.031-2.333a.168.168 0 1 1 .336.007v.013c-.06 1.016-.04 2.3 0 3.428v.038a.9.9 0 0 1-.39.744.175.175 0 0 0-.075.132s-.02.174.056 1.012c.036.367.063.62.076.735a.089.089 0 0 0 .088.077h1.267l.474.004a.089.089 0 0 0 .088-.078c.11-1.005.136-1.57.136-1.57a.1.1 0 0 0-.089-.096l-.576-.08a.196.196 0 0 1-.164-.14.283.283 0 0 1-.007-.09c.23-3.351 1.334-4.48 1.334-4.48a.36.36 0 0 1 .053-.044.176.176 0 0 1 .27.08.33.33 0 0 1 .013.08c.096 1.053.05 2.845-.01 4.243-.05 1.187-.11 2.118-.11 2.118a.07.07 0 0 0 .069.07c.313.005.62.011.95.02h.005a.288.288 0 0 0 .279-.214c.198-.854.354-4.147.362-4.295a.286.286 0 0 1 .21-.244l.834-.16a.288.288 0 0 0 .19-.401l-.002-.004Z"/>
  </g>
  <defs>
    <clipPath id="a">
      <path fill="#fff" d="M0 0h18v18H0z"/>
    </clipPath>
  </defs>
</svg>
