<svg xmlns="http://www.w3.org/2000/svg" viewBox="0 0 18 18">
  <g clip-path="url(#a)">
    <path fill="#FFC527" d="M0 0h18v18H0V0Z"/>
    <path fill="#222720" d="M14.146 8.134a2.35 2.35 0 0 0-1.77-.768c-.906 0-1.368.408-1.644.738V5.5H8.98v.972h.432v6.09h1.26v-.696c.354.54.924.822 1.656.822.75 0 1.386-.264 1.842-.768.432-.474.666-1.146.666-1.89-.006-.738-.246-1.41-.69-1.896Zm-.636 1.89c0 .39-.138.75-.384 1.02-.264.294-.63.444-1.056.444-.666 0-1.386-.456-1.386-1.464s.714-1.464 1.386-1.464c.426 0 .786.156 1.056.444.246.27.384.636.384 1.02ZM8.182 11.5a.756.756 0 0 1-.57-.276L6.4 9.796l2.184-2.31H6.88L4.996 9.514V5.506H3.25v.972h.432v6.084h1.314v-2.49l1.428 1.746c.45.612.792.81 1.41.81.126 0 .516-.012.678-.054l.024-.006v-1.062c.006-.006-.3-.006-.354-.006Z"/>
  </g>
  <defs>
    <clipPath id="a">
      <path fill="#fff" d="M0 0h18v18H0z"/>
    </clipPath>
  </defs>
</svg>
