<svg xmlns="http://www.w3.org/2000/svg" viewBox="0 0 18 18">
  <g clip-path="url(#a)">
    <path fill="#163B64" d="M0 0h18v18H0V0Z"/>
    <g clip-path="url(#b)">
      <path fill="#FCB717" fill-rule="evenodd" d="M15.482 10.576c-.156 0-.35.01-.513 0-.07-.005-.153.003-.218-.005-.088-.01-.179.013-.263.004-.093-.01-.246-.002-.329-.006-.054-.003-.112.005-.163 0h-.022l-.011.001a.06.06 0 0 0-.01.001c-.199-.014-.39.013-.605 0-.01 0-.01.003-.023.001-.061-.01-.136.005-.207.004-.13 0-.262.003-.403.008-.07 0-.14.008-.204.004-.168-.01-.33.006-.504-.005-.172-.01-.36-.008-.536-.008a.423.423 0 0 1-.02-.102c-.002-.096-.017-.245-.011-.277-.003-.022-.002-.053-.002-.086-.002-.054-.007-.108-.002-.164 0-.02.01-.04.012-.06.022-.14.031-.28.05-.418a1.968 1.968 0 0 1 .1-.386c.06-.16.12-.32.205-.458.061-.09.12-.179.19-.262.022-.027.047-.052.067-.082.01-.012.055-.054.061-.066.04-.034.11-.105.118-.114.047-.034.084-.063.125-.095l.129-.094c.06-.03.115-.058.174-.084.059-.026.114-.055.177-.078.016-.01.057-.03.057-.03s.079-.035.12-.05c.108-.025.222-.043.335-.063a2.05 2.05 0 0 1 .738.06c.055.014.099.02.14.04.006.002.008.009.013.01.024.011.046.021.07.035l.022.015.047.022.056.029.059.033.023.016c.045.028.093.061.136.092.028.02.05.047.078.065.023.02.03.029.067.058.012.022.016.03.028.044l.009.012.032.044c.017.02.031.031.047.055a2.449 2.449 0 0 1 .122.192l.038.066.009.012a.244.244 0 0 1 .015.024.47.47 0 0 1 .008.012l.025.063c.061.132.118.26.157.416a.609.609 0 0 0 .014.063l.008.031.01.03.021.098.02.098.02.098.02.097c.003.033.003.068.012.095.017.126.024.258.037.384.003.042.006.102.011.126-.001.152.043.3.014.435Z" clip-rule="evenodd"/>
      <path fill="#F06323" fill-rule="evenodd" d="M11.165 10.606c-.06.002-.132-.006-.184.005-.044-.003-.09 0-.137.002-.282.009-.59.002-.863-.002-.057-.002-.121.004-.164-.005-.02.002-.04 0-.058 0-.068 0-.155.002-.217-.007-.064-.01-.133.002-.201-.003-.208-.013-.378-.012-.586-.017-.005 0-.012-.004-.016-.004-.01 0-.018.002-.032 0-.036-.005-.08 0-.12 0-.113 0-.235.002-.353-.005-.114-.006-.226-.002-.333-.012-.075-.006-.156-.002-.235-.002-.064 0-.133 0-.2-.005l-.026-.002c-.127-.01-.232.006-.35-.01-.003-.14-.012-.265-.018-.402-.001-.035-.007-.07-.007-.102 0-.023.005-.047.005-.072 0-.076.009-.135.02-.203.007-.056.017-.11.026-.164.005-.025.016-.05.021-.076.003-.014 0-.028.005-.042.003-.011.01-.022.012-.034.004-.014.002-.026.005-.04.002-.01.01-.02.013-.03.005-.022.003-.042.01-.062.014-.05.037-.108.05-.164l.027-.114c.026-.109.078-.208.12-.305.014-.035.024-.066.044-.098a15.398 15.398 0 0 1 .224-.346l.032-.04a5.58 5.58 0 0 1 .289-.353c.066-.053.137-.088.206-.13.07-.043.136-.088.207-.129.09-.036.194-.06.29-.09.107-.021.215-.03.329-.04l.03-.001h.03a.545.545 0 0 1 .06.006c.038.006.085.002.117.007.033.005.066.001.094.004a.459.459 0 0 1 .084.017.39.39 0 0 1 .028.007l.155.048c.019.006.037.017.057.024.02.006.042.01.062.018l.037.017c.114.038.176.075.257.114.045.026.092.05.13.083a2.478 2.478 0 0 1 .127.088 1.562 1.562 0 0 1 .116.1c.04.03.067.075.11.104.027.042.066.073.086.122.033.038.056.085.09.121.002.011.015.027.018.035.052.073.085.137.136.213.035.09.063.188.102.274a1.505 1.505 0 0 0 .06.196c.009.066.03.124.047.185.027.101.04.207.072.304.018.14.035.266.045.413.002.054 0 .125.007.16-.001.07.005.155.008.2.004.073-.004.159 0 .244Z" clip-rule="evenodd"/>
      <path fill="#fff" fill-rule="evenodd" d="M6.707 10.563c-.151-.007-.29.01-.444 0-.08-.005-.156.003-.235-.002-.043-.003-.095-.008-.133-.004l-.079-.004h-.189a17.25 17.25 0 0 0-.513-.006c-.055 0-.113.004-.16-.002-.075-.009-.152.007-.227.003-.16-.01-.325.003-.49-.005-.128-.004-.259.006-.388.008-.451.01-.911.015-1.34.026-.01-.09.008-.179.018-.267.01-.093.014-.186.023-.28a2.555 2.555 0 0 1 .017-.182 4.465 4.465 0 0 1 .027-.18c.02-.112.035-.222.07-.32.022-.123.07-.232.118-.335.011-.025.044-.11.095-.206.046-.082.097-.168.154-.243.016-.023.038-.04.05-.058l.07-.1.032-.041.032-.04.033-.04c.01-.013.022-.026.034-.039.011-.012.032-.025.044-.038.011-.012.06-.077.081-.095.058-.05.054-.053.208-.167.154-.114.246-.14.381-.2.105-.028.207-.058.325-.08.152-.012.295 0 .43.012.018.002.037 0 .055.002.082.01.165.032.247.051.06.014.127.028.189.047l.046.015.047.016.044.018.045.02c.048.026.091.043.134.066a1.369 1.369 0 0 1 .238.157c.036.029.128.106.161.141.043.064.105.118.15.182.046.064.082.133.129.198.017.041.04.077.063.113a69.728 69.728 0 0 0 .025.052l.015.025.015.024c.036.078.074.153.11.23.026.077.055.15.084.223.015.073.042.135.053.213.025.092.044.19.064.288.012.088.021.206.031.279a.596.596 0 0 0 .005.063.607.607 0 0 0 .006.062 3.81 3.81 0 0 1 0 .4Z" clip-rule="evenodd"/>
    </g>
  </g>
  <defs>
    <clipPath id="a">
      <path fill="#fff" d="M0 0h18v18H0z"/>
    </clipPath>
    <clipPath id="b">
      <path fill="#fff" d="M2.5 7.5h13v3.117h-13z"/>
    </clipPath>
  </defs>
</svg>
