<svg xmlns="http://www.w3.org/2000/svg" viewBox="0 0 18 18">
  <g clip-path="url(#a)">
    <path fill="#1E222E" d="M0 0h18v18H0V0Z"/>
    <path fill="#fff" d="M5.504 4.122c.04.067.227.134.4.134.16 0 .347.093.387.213.147.374.094 8.73-.053 9.01-.08.134-.267.254-.4.254-.147 0-.268.053-.268.133 0 .08 1.335.134 3.725.134h3.737l.147-.734c.2-1.001.12-1.362-.174-.694-.307.72-.814.894-2.59.894-1.628-.013-2.549-.147-2.722-.414-.067-.107-.12-2.095-.12-4.431 0-3.925.013-4.245.24-4.312.787-.254.654-.307-.814-.307-1.015-.013-1.549.04-1.495.12Z"/>
  </g>
  <defs>
    <clipPath id="a">
      <path fill="#fff" d="M0 0h18v18H0z"/>
    </clipPath>
  </defs>
</svg>
