<svg xmlns="http://www.w3.org/2000/svg" viewBox="0 0 18 18">
  <g clip-path="url(#a)">
    <path fill="#0B7D6C" d="M0 0h18v18H0V0Z"/>
    <path fill="#fff" d="M9.406 4.401c.186.313.358.59.374.61.09.11.076.14-.355.855-.234.389-.426.708-.429.711-.01.014-.863-1.43-.854-1.448a86.12 86.12 0 0 1 .822-1.36c.035-.048.03-.056.442.632Zm-5.22-.311c.014 0 .304.1 1.05.366.35.125.806.284 1.012.358.283.098.377.143.388.184.008.03.084.244.165.475a860.498 860.498 0 0 0 .575 1.62l.11.304-.454-.16L5.37 6.65l-.338-.122-.234-.657c-.33-.93-.583-1.65-.605-1.723-.008-.033-.013-.06-.005-.06Zm9.614.002c.025-.002.022.027-.008.112-.092.252-.312.876-.497 1.405-.108.306-.206.58-.22.61-.013.03-.04.106-.056.171-.02.065-.054.128-.076.141-.038.02-.573.21-1.861.665-.223.078-.44.158-.48.174-.043.016-.076.021-.076.01 0-.016.124-.371.38-1.093.076-.217.168-.48.206-.583.038-.106.11-.317.168-.475l.1-.282.353-.128c.195-.068.602-.214.909-.322.306-.107.684-.242.84-.299.158-.057.299-.106.318-.106Zm-3.342 4.181a1.612 1.612 0 0 1-.966 2.203 1.609 1.609 0 0 1-2.11-1.573 1.602 1.602 0 0 1 1.292-1.539 1.607 1.607 0 0 1 1.784.91Zm-5.425-.19.15.081c.08.047.167.098.189.117.022.016.277.17.561.342.288.168.524.315.521.323 0 .022-1.405.854-1.43.849-.061-.014-1.375-.827-1.375-.852 0-.016.313-.217.692-.445l.692-.415Zm7.932.016c.021.008.211.12.42.247.212.127.515.312.675.41.16.098.29.182.29.19 0 .01-.45.29-.637.396-.03.016-.217.13-.414.25l-.361.219-.494-.301a27.24 27.24 0 0 0-.589-.353c-.192-.108-.325-.198-.317-.217a13.4 13.4 0 0 1 .697-.436c.38-.23.708-.413.73-.405Zm-5.47 2.315c.015-.003.018.008.009.021-.013.02-.225.613-.341.952l-.123.34a9.73 9.73 0 0 0-.108.311c-.016.068-.23.66-.268.747-.03.065-.07.092-.21.14l-1.136.402c-1.118.399-1.112.396-1.112.367 0-.011.111-.332.244-.708a167.1 167.1 0 0 0 .497-1.408c.016-.039.045-.123.07-.188l.043-.122 1.207-.426a64.797 64.797 0 0 1 1.229-.428Zm3.047.008c.06.024 1.134.404 1.856.66.277.094.515.189.531.205.017.02.063.125.1.236l.204.583c.344.96.567 1.601.562 1.607a4.3 4.3 0 0 1-.396-.13c-.215-.077-.597-.213-.852-.302a73.377 73.377 0 0 1-1.085-.388c-.109-.04-.111-.043-.214-.347-.06-.166-.12-.32-.133-.339-.014-.017-.016-.033-.008-.033.01 0 .005-.024-.011-.057a.443.443 0 0 1-.041-.114.808.808 0 0 0-.038-.114 47.214 47.214 0 0 1-.504-1.421c-.017-.057-.014-.063.03-.046Zm-1.518 1.044c.146.206.824 1.373.813 1.4a45.52 45.52 0 0 1-.83 1.379c-.016.018-.25-.342-.516-.799a31.86 31.86 0 0 0-.197-.33c-.087-.144-.155-.274-.15-.288.003-.011.196-.336.426-.716.37-.613.423-.69.454-.646Z"/>
  </g>
  <defs>
    <clipPath id="a">
      <path fill="#fff" d="M0 0h18v18H0z"/>
    </clipPath>
  </defs>
</svg>
