<svg xmlns="http://www.w3.org/2000/svg" viewBox="0 0 18 18">
  <g clip-path="url(#a)">
    <path fill="#181411" d="M0 0h18v18H0V0Z"/>
    <path fill="#AB7159" d="M5.015 8.591 3.52 7.097a.073.073 0 0 1 0-.103l.775-.775a.075.075 0 0 1 .105 0l2.264 2.264a.071.071 0 0 1-.052.124H5.068a.073.073 0 0 1-.053-.016Zm3.577-3.573L7.096 3.522a.073.073 0 0 0-.104 0l-.773.775a.07.07 0 0 0 0 .103l2.264 2.264a.073.073 0 0 0 .125-.05v-1.55a.078.078 0 0 0-.016-.046Zm.021 3.525v-.775a.073.073 0 0 0-.02-.053L4.99 4.117a.07.07 0 0 0-.103 0l-.768.774a.077.077 0 0 0 0 .104l3.595 3.596a.075.075 0 0 0 .052.023h.773a.073.073 0 0 0 .073-.071Zm-.021 4.441-1.496 1.494a.074.074 0 0 1-.052.022.073.073 0 0 1-.052-.022l-.773-.773a.073.073 0 0 1-.017-.08.074.074 0 0 1 .017-.025l2.264-2.264a.074.074 0 0 1 .08-.016.074.074 0 0 1 .045.067v1.55a.082.082 0 0 1-.016.047ZM5.015 9.406 3.52 10.902a.075.075 0 0 0 0 .105l.775.773a.073.073 0 0 0 .105 0l2.264-2.264a.073.073 0 0 0-.052-.125H5.068a.082.082 0 0 0-.053.015Zm3.525-.02h-.773a.073.073 0 0 0-.052.02l-3.595 3.6a.075.075 0 0 0 0 .104l.775.775a.073.073 0 0 0 .103 0l3.594-3.6a.074.074 0 0 0 .021-.052v-.77a.071.071 0 0 0-.073-.076Zm4.441.02 1.496 1.496a.073.073 0 0 1 0 .104l-.778.774a.072.072 0 0 1-.08.016.072.072 0 0 1-.023-.016l-2.264-2.264a.073.073 0 0 1-.017-.08.074.074 0 0 1 .07-.045h1.55c.016 0 .032.005.046.015Zm-3.575 3.578 1.496 1.494a.071.071 0 0 0 .103 0l.778-.773a.074.074 0 0 0 0-.105l-2.264-2.264a.072.072 0 0 0-.08-.017.072.072 0 0 0-.044.068v1.55a.073.073 0 0 0 .01.047Zm-.023-3.522v.774a.08.08 0 0 0 .021.052l3.598 3.596a.073.073 0 0 0 .103 0l.775-.775a.071.071 0 0 0 .022-.051.07.07 0 0 0-.022-.052l-3.597-3.6a.073.073 0 0 0-.052-.02h-.775a.073.073 0 0 0-.073.076Zm.023-4.444 1.496-1.496a.07.07 0 0 1 .051-.022.072.072 0 0 1 .051.022l.779.775a.073.073 0 0 1 0 .103L9.519 6.664a.071.071 0 0 1-.124-.05v-1.55a.07.07 0 0 1 .01-.046Zm3.575 3.573 1.496-1.496a.07.07 0 0 0 .022-.051.07.07 0 0 0-.022-.051l-.778-.774a.073.073 0 0 0-.103 0l-2.264 2.264a.073.073 0 0 0 .052.124h1.55a.07.07 0 0 0 .047-.016Zm-3.525.025h.775c.02 0 .039-.008.052-.023l3.599-3.598a.074.074 0 0 0 .021-.052.073.073 0 0 0-.021-.052l-.774-.773a.073.073 0 0 0-.104 0l-3.6 3.603a.082.082 0 0 0-.02.052v.775a.073.073 0 0 0 .072.068Z"/>
  </g>
  <defs>
    <clipPath id="a">
      <path fill="#fff" d="M0 0h18v18H0z"/>
    </clipPath>
  </defs>
</svg>
