<svg xmlns="http://www.w3.org/2000/svg" viewBox="0 0 18 18">
  <g clip-path="url(#a)">
    <path d="M0 0h18v18H0V0Z"/>
    <path fill="#fff" d="M7.002 7.48c.162 0 .28.09.28.252 0 .09-.037.208-.1.352l-.694 1.714-.785-1.777a.773.773 0 0 1-.09-.334c0-.108.09-.207.288-.207v-.082H4.746v.082c.235 0 .307.08.442.397l1.11 2.553h.063L7.4 7.904c.126-.298.288-.433.415-.433v-.073H7.01v.082H7ZM2.5 7.398v.082c.325 0 .397.08.397.351v1.985c0 .424-.063.47-.397.47v.08h2.273l.253-.802-.063-.018c-.244.604-.415.694-.93.694h-.315c-.397 0-.415-.009-.415-.496V7.94c0-.37.072-.451.469-.451v-.09H2.5Zm9.41.082v-.082h-.74l-1.083 2.346L8.96 7.398h-.757v.082c.315 0 .388.099.388.388v1.94c0 .423-.082.468-.388.468v.082h.92v-.082c-.316 0-.388-.045-.388-.469v-1.94l1.146 2.49h.072l1.136-2.49v1.94c0 .424-.063.47-.414.47v.08h1.235v-.08c-.342 0-.397-.055-.397-.47V7.822c0-.261.082-.342.397-.342Zm1.217.469c0-.415.063-.47.397-.47V7.4h-1.209v.08c.343 0 .397.055.397.47v1.858c0 .415-.063.47-.397.47v.08h1.21v-.08c-.344 0-.398-.055-.398-.47v-.785c0-.08.036-.108.127-.108h1.308c.099 0 .126.036.126.135v.758c0 .415-.063.47-.397.47v.08H15.5v-.08c-.343 0-.397-.055-.397-.47V7.95c0-.415.063-.47.397-.47V7.4h-1.209v.08c.343 0 .397.055.397.47v.694c0 .109-.027.136-.126.136h-1.317c-.09 0-.127-.027-.127-.1v-.73h.01Z"/>
  </g>
  <defs>
    <clipPath id="a">
      <path fill="#fff" d="M0 0h18v18H0z"/>
    </clipPath>
  </defs>
</svg>
