<svg xmlns="http://www.w3.org/2000/svg" viewBox="0 0 18 18">
  <g clip-path="url(#a)">
    <path d="M0 0h18v18H0V0Z"/>
    <mask id="b" width="13" height="6" x="2" y="6" maskUnits="userSpaceOnUse" style="mask-type:luminance">
      <path fill="#fff" d="M2.9 6.75h11.996v4.546H2.9V6.75Z"/>
    </mask>
    <g mask="url(#b)">
      <path fill="#fff" fill-rule="evenodd" d="m14.864 7.752-.366.133c-.144-.463-.553-.761-1.107-.761-.605 0-1.002.304-1.002.818 0 1.103 2.506.52 2.506 2.073 0 .742-.591 1.262-1.473 1.262-.818 0-1.31-.393-1.65-1.02l.34-.21c.227.482.643.856 1.273.856.73 0 1.107-.336 1.107-.894 0-1.11-2.505-.564-2.505-2.074 0-.893.8-1.185 1.39-1.185.668 0 1.273.305 1.487 1.002Zm-3.703 3.544-.73-.786c-.264.418-.623.722-1.215.722-.762 0-1.323-.532-1.323-1.185 0-.545.335-.88.976-1.25-.364-.366-.566-.67-.566-1.032 0-.527.44-.945.975-.945.567 0 .99.418.99.945 0 .507-.397.849-.794 1.109l.907.995.535-.874.32.203-.59.97.812.868-.296.26Zm-2.864-1.255c0 .45.402.824.92.824.465 0 .704-.216.962-.634L9.122 9.077c-.574.317-.825.57-.825.964Zm.402-2.276c0 .247.164.456.523.843.422-.247.655-.507.655-.843 0-.33-.22-.59-.599-.59a.573.573 0 0 0-.579.59Zm-1.813-.958v4.425h-.403V7.62l-1.448 2.828h-.283L3.303 7.625v3.607H2.9V6.807h.422l1.574 3.056 1.575-3.056h.415Z" clip-rule="evenodd"/>
    </g>
  </g>
  <defs>
    <clipPath id="a">
      <path fill="#fff" d="M0 0h18v18H0z"/>
    </clipPath>
  </defs>
</svg>
