<svg xmlns="http://www.w3.org/2000/svg" viewBox="0 0 18 18">
  <g clip-path="url(#a)">
    <path fill="#5FCE3D" d="M0 0h18v18H0V0Z"/>
    <path fill="#fff" d="M6.2 5.844a1.865 1.865 0 0 1 3.73 0v2.3h3.923a2.366 2.366 0 0 1-1.488 1.968v1.275a.957.957 0 0 1-.957.956h-2.95A2.259 2.259 0 0 1 6.2 10.085V5.844ZM4.478 7.507c0-.352.286-.638.638-.638h.606v.638H4.478Zm5.092 5.314v1.015H8.102v.686h2.146v-1.7h-.68Z"/>
    <path d="M10.08 8.325a.287.287 0 1 0 0 .574h1.743a.287.287 0 0 0 0-.574h-1.744Zm2.56.287c0-.158.13-.287.288-.287h.266a.287.287 0 1 1 0 .574h-.266a.287.287 0 0 1-.287-.287ZM7.507 6.38a.298.298 0 1 0 0-.595.298.298 0 0 0 0 .595Z"/>
    <path fill-rule="evenodd" d="M8.459 12.821h.632v.537h-.303c-.643 0-1.164.521-1.164 1.164V15h2.62a.484.484 0 0 0 .484-.484v-1.695h.68c.793 0 1.435-.642 1.435-1.435v-.97a2.85 2.85 0 0 0 1.486-2.224l.023-.234.029-.292h-3.972V5.844a2.344 2.344 0 0 0-4.687 0v.547h-.606A1.115 1.115 0 0 0 4 7.507v.478h1.722v2.1a2.737 2.737 0 0 0 2.737 2.736Zm3.906-2.71a2.37 2.37 0 0 0 1.488-1.966H9.08a2.367 2.367 0 0 0 2.354 2.131h.064c.305 0 .598-.058.867-.164Zm0 .508a2.84 2.84 0 0 1-.867.135h-.063a2.844 2.844 0 0 1-2.83-2.562l-.024-.234a.266.266 0 0 1 .265-.292H9.93V5.844a1.865 1.865 0 1 0-3.73 0v4.24a2.259 2.259 0 0 0 2.258 2.259h2.949a.957.957 0 0 0 .957-.957v-.767Zm-2.796 2.202h.68v1.695a.005.005 0 0 1-.005.006H8.103a.684.684 0 0 1 .685-.686h.781v-1.015ZM5.722 7.507v-.638h-.606a.635.635 0 0 0-.638.638h1.244Z" clip-rule="evenodd"/>
  </g>
  <defs>
    <clipPath id="a">
      <path fill="#fff" d="M0 0h18v18H0z"/>
    </clipPath>
  </defs>
</svg>
