<svg xmlns="http://www.w3.org/2000/svg" viewBox="0 0 18 18">
  <g clip-path="url(#a)">
    <path d="M0 0h18v18H0V0Z"/>
    <path fill="#fff" d="M13.95 10.333h-.436c-.747 0-1.121 0-1.379-.197a.955.955 0 0 1-.176-.177c-.198-.257-.198-.631-.198-1.378 0-.748 0-1.121.198-1.379a.953.953 0 0 1 .176-.176c.258-.198.632-.198 1.379-.198h.117c.86 0 1.29 0 1.565.257.016.015.032.03.047.047.171.184.229.436.248.84.003.08.005.12-.02.147-.025.026-.066.026-.148.026h-.559c-.07 0-.106 0-.129-.018-.023-.019-.033-.06-.051-.141a.313.313 0 0 0-.082-.16c-.106-.106-.276-.106-.616-.106h-.33c-.378 0-.568 0-.697.102a.479.479 0 0 0-.083.082c-.101.13-.101.319-.101.698 0 .379 0 .568.101.698a.53.53 0 0 0 .082.082c.13.101.32.101.698.101h.33c.34 0 .51 0 .616-.105.056-.056.082-.13.095-.238.01-.082.014-.123.038-.145.024-.021.062-.021.138-.021h.556c.081 0 .121 0 .146.025.025.025.025.065.024.145-.006.497-.04.776-.226.962-.227.227-.593.227-1.324.227Zm-10.664-.032h-.701a.085.085 0 0 1-.085-.085v-3.07c0-.152.124-.275.276-.275h.908c.107 0 .205.062.25.159l.945 2.018.914-2.015a.276.276 0 0 1 .252-.162h.884c.152 0 .276.123.276.276v3.07a.085.085 0 0 1-.085.084h-.69a.085.085 0 0 1-.085-.085V7.89l-1.1 2.332a.138.138 0 0 1-.124.08h-.496a.141.141 0 0 1-.124-.078 226.69 226.69 0 0 1-.723-1.498 35.542 35.542 0 0 0-.407-.836v2.326a.085.085 0 0 1-.085.085Z"/>
    <path fill="#fff" fill-rule="evenodd" d="M7.725 10.206c0 .046.039.085.085.085h.712a.085.085 0 0 0 .085-.085V9.43h1.466c.146 0 .265.12.265.266v.51c0 .046.038.085.085.085h.733a.085.085 0 0 0 .085-.085v-.547c0-.173-.003-.358-.11-.494a.497.497 0 0 0-.283-.188.025.025 0 0 1-.021-.025c.141-.05.425-.227.425-.541v-.786a.754.754 0 0 0-.755-.754h-2.56a.212.212 0 0 0-.212.212v3.123Zm.967-2.464a.085.085 0 0 0-.085.084v.659c0 .047.038.085.085.085h1.444a.266.266 0 0 0 .266-.266v-.297a.266.266 0 0 0-.266-.265H8.692Z" clip-rule="evenodd"/>
    <path fill="#D21344" d="M2.5 10.907c0-.047.038-.085.085-.085h12.83c.047 0 .085.038.085.085v.319a.085.085 0 0 1-.085.085H2.585a.085.085 0 0 1-.085-.085v-.319Z"/>
  </g>
  <defs>
    <clipPath id="a">
      <path fill="#fff" d="M0 0h18v18H0z"/>
    </clipPath>
  </defs>
</svg>
