<svg xmlns="http://www.w3.org/2000/svg" viewBox="0 0 18 18">
  <g clip-path="url(#a)">
    <path fill="#fff" d="M0 0h18v18H0V0Z"/>
    <path fill="#5DDB76" d="M6.27 14.493a1.53 1.53 0 0 0 1.507-.061c.476-.291.76-.796.76-1.351 0-.553-.27-1.072-.721-1.39l-1.828-1.289a.463.463 0 0 0-.534.757l1.828 1.288a.776.776 0 0 1 .329.634c0 .23-.119.44-.317.56a.606.606 0 0 1-.603.027 5.058 5.058 0 0 1-2.742-5.003 5.072 5.072 0 0 1 4.125-4.496.463.463 0 0 0-.167-.912 6.003 6.003 0 0 0-4.88 5.322 5.98 5.98 0 0 0 3.242 5.914Zm4.759.167c-.283 0-.565-.078-.818-.231a1.549 1.549 0 0 1-.748-1.332c0-.562.274-1.09.733-1.414l1.816-1.28a.463.463 0 0 1 .534.757l-1.816 1.28a.804.804 0 0 0-.34.657c0 .226.11.423.303.54a.65.65 0 0 0 .64.02 5.068 5.068 0 0 0-1.408-9.483.463.463 0 0 1 .168-.911A5.994 5.994 0 0 1 11.76 14.48a1.59 1.59 0 0 1-.731.18Z"/>
    <path fill="#5DDB76" d="M8.378 7.712a1.079 1.079 0 0 0 1.244 0L11.2 6.6a.463.463 0 0 0-.534-.757L9.09 6.955a.155.155 0 0 1-.178 0L7.334 5.842a.463.463 0 1 0-.534.757l1.578 1.113Z"/>
    <path fill="#5DDB76" d="M8.376 10.461a1.081 1.081 0 0 0 1.246 0l3.088-2.175a.463.463 0 0 0-.533-.757L9.089 9.704a.157.157 0 0 1-.18 0L5.823 7.53a.464.464 0 0 0-.533.757l3.086 2.175Z"/>
  </g>
  <defs>
    <clipPath id="a">
      <path fill="#fff" d="M0 0h18v18H0z"/>
    </clipPath>
  </defs>
</svg>
