<svg xmlns="http://www.w3.org/2000/svg" viewBox="0 0 18 18">
  <g clip-path="url(#a)">
    <path fill="#fff" d="M0 0h18v18H0V0Z"/>
    <path fill="#183D85" d="M13.749 7.424v1.05L6.94 4.559l.761-.437a.914.914 0 0 1 .913 0l4.831 2.777a.607.607 0 0 1 .304.525Z"/>
    <path fill="#1E8CFA" d="M13.749 7.457a.604.604 0 0 1-.304.525L7.82 11.237v1.4l5.625-3.231a.609.609 0 0 0 .304-.525V7.457Z"/>
    <path fill="#183D85" d="m7.851 14.018-.914-.524 6.812-3.916v.875a.904.904 0 0 1-.457.787l-4.83 2.777a.607.607 0 0 1-.611.002Z"/>
    <path fill="#1E8CFA" d="M7.823 14.003a.608.608 0 0 1-.305-.526l-.02-6.457-1.218-.694v6.44a.604.604 0 0 0 .305.526l1.238.71Z"/>
    <path fill="#183D85" d="m5.054 5.644.913-.526v7.83l-.761-.438a.913.913 0 0 1-.456-.788V6.17a.604.604 0 0 1 .304-.525Z"/>
    <path fill="#1E8CFA" d="M5.082 5.63a.611.611 0 0 1 .609 0l5.63 3.213 1.213-.704L6.93 4.916a.61.61 0 0 0-.609 0l-1.238.714Z"/>
    <path fill="#183D85" d="M13.749 7.424v1.05L6.94 4.559l.761-.437a.914.914 0 0 1 .913 0l4.831 2.777a.607.607 0 0 1 .304.525Z"/>
    <path fill="#1E8CFA" d="M13.75 7.46a.603.603 0 0 1-.304.526L7.82 11.24v1.4l5.625-3.231a.608.608 0 0 0 .304-.526V7.461Z"/>
    <path fill="#183D85" d="m7.851 14.018-.914-.524 6.812-3.916v.875a.904.904 0 0 1-.457.787l-4.83 2.777a.607.607 0 0 1-.611.002Z"/>
    <path fill="#1E8CFA" d="M7.823 14.003a.608.608 0 0 1-.305-.526l-.02-6.457-1.218-.694v6.44a.604.604 0 0 0 .305.526l1.238.71Z"/>
    <path fill="#183D85" d="m5.054 5.644.913-.526v7.83l-.761-.438a.913.913 0 0 1-.456-.788V6.17a.604.604 0 0 1 .304-.525Z"/>
    <path fill="#1E8CFA" d="M5.082 5.63a.611.611 0 0 1 .609 0l5.63 3.213 1.213-.704L6.93 4.916a.61.61 0 0 0-.609 0l-1.238.714Z"/>
  </g>
  <defs>
    <clipPath id="a">
      <path fill="#fff" d="M0 0h18v18H0z"/>
    </clipPath>
  </defs>
</svg>
