<svg xmlns="http://www.w3.org/2000/svg" viewBox="0 0 18 18">
  <g clip-path="url(#a)">
    <path fill="#001731" d="M0 0h18v18H0V0Z"/>
    <path fill="#fff" d="M12.202 5.8H6.988c-.603 0-1.18.24-1.607.666L4.144 7.7a.15.15 0 0 0 .107.257h4.822c.261 0 .518-.07.743-.202l1.039-.61-.621 1.102a1.47 1.47 0 0 0-.19.721v4.815a.15.15 0 0 0 .256.105l1.266-1.265c.407-.407.635-.96.635-1.535l.001-5.29Z"/>
  </g>
  <defs>
    <clipPath id="a">
      <path fill="#fff" d="M0 0h18v18H0z"/>
    </clipPath>
  </defs>
</svg>
