<svg xmlns="http://www.w3.org/2000/svg" viewBox="0 0 18 18">
  <g clip-path="url(#a)">
    <path fill="#fff" d="M0 0h18v18H0V0Z"/>
    <path fill="#F47422" d="m7.492 12.404.857-1.612c.1-.151.1-.353.1-.554 0-.454-.251-.857-.604-1.059L2.101 5.955C2.05 5.905 2 5.854 2 5.804c0-.101.1-.152.151-.152h.05l12.446 3.83c.202.05.353.252.353.504a.441.441 0 0 1-.353.453l-7.054 2.167c-.05.05-.151-.1-.1-.202Z"/>
  </g>
  <defs>
    <clipPath id="a">
      <path fill="#fff" d="M0 0h18v18H0z"/>
    </clipPath>
  </defs>
</svg>
