<svg xmlns="http://www.w3.org/2000/svg" viewBox="0 0 18 18">
  <g clip-path="url(#a)">
    <path fill="#2A7DE1" d="M0 0h18v18H0V0Z"/>
    <path fill="#fff" d="m3.7 11.665-1.07-.291v-5.29h1.919c1.058 0 1.92.861 1.92 1.92a1.923 1.923 0 0 1-1.92 1.919h-.52l.272-1.07h.248a.85.85 0 0 0 0-1.699h-.85v4.511Zm5.37-.045H7.282V7.524l1.07.298v2.728h.716a.86.86 0 0 0 .86-.86V8.014a.86.86 0 0 0-.86-.86H7.31l.264-1.07H9.07c1.064 0 1.93.866 1.93 1.93V9.69a1.93 1.93 0 0 1-1.93 1.93Zm6.166-4.407.264-1.07h-3.673v5.229l1.07.293V9.62h1.75l.258-1.07h-2.008V7.213h2.338Z"/>
  </g>
  <defs>
    <clipPath id="a">
      <path fill="#fff" d="M0 0h18v18H0z"/>
    </clipPath>
  </defs>
</svg>
