<svg xmlns="http://www.w3.org/2000/svg" viewBox="0 0 18 18">
  <g clip-path="url(#a)">
    <path fill="#fff" d="M0 0h18v18H0V0Z"/>
    <path d="m5.195 4.501.465 1.42h.794l-.01 6.758-.93.06V14H9.29v-1.262l-1.101-.06L8.19 4.5l-2.994.001Z"/>
    <path d="M13.044 7.63a3.446 3.446 0 0 0-.224-1.258 2.518 2.518 0 0 0-.69-.988 3.275 3.275 0 0 0-1.185-.647 5.564 5.564 0 0 0-1.698-.235H8.155V5.92h1.093a2.86 2.86 0 0 1 .872.118c.228.067.438.183.616.34.163.15.288.335.366.542.083.227.125.468.121.71a2.17 2.17 0 0 1-.121.749 1.47 1.47 0 0 1-.366.568 1.612 1.612 0 0 1-.616.355 8.283 8.283 0 0 1-.931.174l.453 1.414c.428-.07.852-.164 1.27-.28.436-.136.84-.361 1.184-.661.313-.28.556-.627.71-1.017.163-.415.243-.858.238-1.303"/>
  </g>
  <defs>
    <clipPath id="a">
      <path fill="#fff" d="M0 0h18v18H0z"/>
    </clipPath>
  </defs>
</svg>
