<svg xmlns="http://www.w3.org/2000/svg" viewBox="0 0 18 18">
  <g clip-path="url(#a)">
    <path d="M0 0h18v18H0V0Z"/>
    <path fill="url(#b)" d="M13.594 4.12c.003 0 .005 0 .008.002a.024.024 0 0 0 .006.004.024.024 0 0 1 .006.005s-.058 3.6-.103 5.385a4.662 4.662 0 0 1-.025.392 4.596 4.596 0 0 1-.142.775 4.686 4.686 0 0 1-.116.376 8.18 8.18 0 0 1-.355.822 7.732 7.732 0 0 1-.453.777 6.576 6.576 0 0 1-.9 1.061 6.188 6.188 0 0 1-.491.424l-.146.11a6.025 6.025 0 0 1-.55.351 8.608 8.608 0 0 1-.507.256c-.087.04-.174.078-.261.114-.117.05-.216.095-.308.127a2.409 2.409 0 0 1-.293.09 2.11 2.11 0 0 1-.293-.091c-.093-.03-.193-.076-.309-.126a6.218 6.218 0 0 1-.26-.114 5.543 5.543 0 0 1-.257-.123 8.62 8.62 0 0 1-.251-.133 22.229 22.229 0 0 1-.245-.143 9.66 9.66 0 0 1-.304-.208 5.797 5.797 0 0 1-.64-.534 6.116 6.116 0 0 1-.323-.332 6.064 6.064 0 0 1-.301-.355 7.156 7.156 0 0 1-.274-.374 7.707 7.707 0 0 1-.453-.777 8.354 8.354 0 0 1-.355-.822 6.18 6.18 0 0 1-.117-.376 5.284 5.284 0 0 1-.14-.775 4.633 4.633 0 0 1-.026-.392 803.524 803.524 0 0 1-.104-5.388l.03-.012a10.574 10.574 0 0 1 1.105-.378 11.304 11.304 0 0 1 .897-.218c.175-.035.351-.066.527-.096A13.542 13.542 0 0 1 8.95 3.25h.029c.351.004.667.015 1.016.046a15.761 15.761 0 0 1 1.063.128c.176.03.352.061.527.096a11.297 11.297 0 0 1 .898.218 11.442 11.442 0 0 1 .741.241 8.857 8.857 0 0 1 .37.141Z"/>
    <path fill="#B12B28" d="m8.854 14.986-.17-.058c-.09-.03-.187-.075-.297-.123a8.094 8.094 0 0 1-.74-.359 13.007 13.007 0 0 1-.234-.14 3.386 3.386 0 0 1-.293-.201 2.698 2.698 0 0 1-.141-.107 7.193 7.193 0 0 1-.463-.4 4.065 4.065 0 0 1-.154-.155 4.076 4.076 0 0 1-.15-.158h2.64c.002 0 .002 1.701.002 1.701Zm-.002-3.072h-3.59a8.272 8.272 0 0 1-.113-.22 11.207 11.207 0 0 1-.197-.455 5.032 5.032 0 0 1-.15-.424h2.916c.019.017.038.036.056.05a2.064 2.064 0 0 0 .505.307 1.983 1.983 0 0 0 .573.142v.6Zm4.488-2.496h-2.55V8.292h2.575c-.008.41-.016.796-.025 1.126Zm.05-2.4H9.01V5.924h4.399l-.019 1.092Z"/>
    <path fill="#613E18" fill-rule="evenodd" d="M13.363 10.606a1.852 1.852 0 0 1-.029.126c-.01.043-.02.086-.033.127a4.268 4.268 0 0 1-.077.25 9.084 9.084 0 0 1-.164.419c-.06.137-.123.273-.189.407-.068.134-.14.266-.214.397a5.843 5.843 0 0 1-.513.758 5.773 5.773 0 0 1-.625.687 6.119 6.119 0 0 1-.492.424 9.425 9.425 0 0 1-.297.218 5.423 5.423 0 0 1-.399.243 8.738 8.738 0 0 1-.507.257 10.5 10.5 0 0 1-.261.112c-.117.05-.216.096-.308.127a3.144 3.144 0 0 1-.145.052l-.075.02a1.046 1.046 0 0 1-.073.02l-.074-.017a2.103 2.103 0 0 1-.147-.046l-.071-.029a5.61 5.61 0 0 1-.31-.127 5.777 5.777 0 0 1-.498-.238 10.293 10.293 0 0 1-.478-.274 3.771 3.771 0 0 1-.156-.1l-.153-.106a13.695 13.695 0 0 1-.293-.229 5.95 5.95 0 0 1-.58-.544 6.702 6.702 0 0 1-.506-.612l-.013-.02a6.737 6.737 0 0 0 .503.591 7.276 7.276 0 0 0 .71.641 5.78 5.78 0 0 0 .297.216c.051.035.102.069.154.102.081.049.163.097.245.144a5.542 5.542 0 0 0 .509.255c.085.04.172.078.26.114.115.05.215.096.309.127a1.453 1.453 0 0 0 .218.073c.025.005.05.011.074.018l.073-.018.075-.023a1.17 1.17 0 0 0 .145-.05c.092-.031.193-.077.308-.127.088-.036.175-.074.261-.114a6.245 6.245 0 0 0 .507-.255 4.22 4.22 0 0 0 .399-.245 5.68 5.68 0 0 0 .789-.64c.112-.107.22-.218.326-.333a6.707 6.707 0 0 0 1.026-1.505 8.389 8.389 0 0 0 .355-.823s.08-.224.14-.454l-.003.004Zm.081-6.27-.008-.004-.006-.002-.009-.004-.006-.002-.008-.004a10.75 10.75 0 0 0-1.063-.368 7.7 7.7 0 0 0-.362-.1 13.005 13.005 0 0 0-3.011-.376h-.03a12.796 12.796 0 0 0-2 .173 12.1 12.1 0 0 0-.506.093 10.593 10.593 0 0 0-.864.21 15.095 15.095 0 0 0-.706.235 14.93 14.93 0 0 0-.347.133l-.008.004c-.002 0-.003 0-.004.002-.002 0-.004 0-.007.002l-.004.002-.004.004-.002-.068.029-.013a10.571 10.571 0 0 1 2.424-.67c.169-.028.339-.053.51-.073a12.787 12.787 0 0 1 1.49-.098h.029a12.74 12.74 0 0 1 2 .17 13.707 13.707 0 0 1 1.011.204 17.435 17.435 0 0 1 .72.21 11.85 11.85 0 0 1 .705.257l.008.004c.002.002.004.002.006.002l.009.005.006.002a.024.024 0 0 1 .006.004l.002.066Zm-4.594.431a12.49 12.49 0 0 0-1.902.168 12.664 12.664 0 0 0-1.012.205 11.743 11.743 0 0 0-1.423.465v.003h-.001l-.002-.063.006-.004a10.79 10.79 0 0 1 1.063-.37l.362-.1c.166-.04.333-.076.502-.11a12.116 12.116 0 0 1 1.016-.165 12.6 12.6 0 0 1 1.391-.094v.065Z" clip-rule="evenodd"/>
    <path fill="#432918" fill-rule="evenodd" d="M12.136 11.54v.026c0 .016-.002.02-.015.025a.681.681 0 0 0-.28.147.117.117 0 0 0-.015.017l-.006-.007c-.002 0-.002-.006-.002-.01-.002-.014.008-.027.027-.043a.414.414 0 0 1 .062-.048.532.532 0 0 1 .216-.096c.009 0 .013-.004.013-.01Zm-.505-.294.004-.002.002-.004v-.002l-.004.037v.006l-.004.004c0 .002-.001.003-.004.005l-.004.004a.422.422 0 0 0-.118.064.494.494 0 0 0-.1.09l-.027.03a.198.198 0 0 0-.023.034.501.501 0 0 0-.04.07c-.008-.006-.002-.018-.002-.02a.296.296 0 0 1 .037-.085.393.393 0 0 1 .059-.075.742.742 0 0 1 .102-.092.6.6 0 0 1 .12-.064h.002Zm.006-.01v.002-.002Zm-.542-.117a.036.036 0 0 0 .007-.008l.002-.006a.018.018 0 0 0 .002-.009.056.056 0 0 1 0 .021c0 .007 0 .013-.002.019l-.004.02a.073.073 0 0 1-.007.02.647.647 0 0 0-.22.19.51.51 0 0 0-.08.175.695.695 0 0 0-.014.093h-.006c-.006-.004-.006-.01-.006-.018 0-.018 0-.036.002-.052a.567.567 0 0 1 .027-.102.675.675 0 0 1 .212-.28 1.073 1.073 0 0 1 .087-.063Zm-.712.15.004-.002c0-.002 0-.003.002-.005v-.006.019c0 .005 0 .011-.002.017a3.984 3.984 0 0 0-.01.033.512.512 0 0 0-.056.058.47.47 0 0 0-.042.069.492.492 0 0 0-.06.149.82.82 0 0 0-.023.158.508.508 0 0 1 .035-.272.566.566 0 0 1 .063-.12l.025-.034a.635.635 0 0 1 .064-.064Zm-1.148.949a.16.16 0 0 1-.034-.036.25.25 0 0 1-.02-.043.188.188 0 0 1-.008-.093.22.22 0 0 0 .024.083.33.33 0 0 0 .058.069c.002 0 .002.002.002.003l-.002.004c-.001.002-.002.002-.004.002a.635.635 0 0 0-.016.01Zm2.392-2.305c0 .041-.002.06-.019.068a.558.558 0 0 0-.1.058.585.585 0 0 0-.111.12.374.374 0 0 0-.052.084.348.348 0 0 0-.021.045c-.006-.004-.004-.014-.002-.02a.325.325 0 0 1 .041-.102.335.335 0 0 1 .064-.087.295.295 0 0 1 .038-.046.58.58 0 0 1 .091-.073.329.329 0 0 1 .054-.027c.01-.005.016-.012.017-.02Zm.694.13v.034c0 .004-.005.016-.015.018a.87.87 0 0 0-.129.04c-.02.01-.04.02-.058.033a.496.496 0 0 0-.095.07.308.308 0 0 0-.038.036l-.033.037a.374.374 0 0 0-.029.042c-.019-.006-.008-.021-.008-.023a.441.441 0 0 1 .066-.096.68.68 0 0 1 .201-.147.938.938 0 0 1 .065-.023.922.922 0 0 1 .064-.014c.007 0 .009-.005.009-.007Zm0-.006v.006-.006Zm.507.41a.456.456 0 0 0-.075.01.373.373 0 0 0-.144.054.482.482 0 0 0-.062.041l-.012.008a.067.067 0 0 1-.01.009.073.073 0 0 0-.011.008.036.036 0 0 0-.01.01c-.002 0-.003-.002-.005-.004a.08.08 0 0 1-.004-.004c-.001 0-.003 0-.004-.002l-.004-.004c0-.002-.004-.01.01-.02a.135.135 0 0 1 .015-.013l.012-.013.017-.012a.492.492 0 0 1 .214-.102.702.702 0 0 1 .075-.008c.006.002.01-.004.01-.01 0 .022-.004.05-.012.051Zm-3.105.857v.014l-.003.015v.012a.18.18 0 0 1-.008.038.232.232 0 0 1-.018.031.15.15 0 0 1-.028.025.184.184 0 0 1-.033.017.325.325 0 0 1-.05.012.212.212 0 0 1-.052-.002.198.198 0 0 1-.091-.046.123.123 0 0 1-.033.027.117.117 0 0 1-.037.019.112.112 0 0 1-.042.008.15.15 0 0 1-.044-.002.12.12 0 0 1-.03-.012.16.16 0 0 1-.03-.017 4.575 4.575 0 0 0-.025-.02.186.186 0 0 1-.025-.04l-.004-.012a.04.04 0 0 0-.002-.013l-.004-.013a1.441 1.441 0 0 1-.158.013v-.048c.053-.001.105-.005.156-.01h.004c.002.008.006.027.015.05l.02.029a.211.211 0 0 0 .027.023.13.13 0 0 0 .031.016.209.209 0 0 0 .075.015.154.154 0 0 0 .042-.01.12.12 0 0 0 .037-.02.203.203 0 0 0 .031-.028.116.116 0 0 0 .04.029c.015.008.03.014.045.016a.198.198 0 0 0 .05.002.142.142 0 0 0 .048-.012.11.11 0 0 0 .037-.015.125.125 0 0 0 .05-.058.18.18 0 0 0 .009-.037v-.01.014Zm.174 1.302a.205.205 0 0 0 .031-.04.213.213 0 0 0 .033-.096.288.288 0 0 1-.033.117.249.249 0 0 1-.035.05.213.213 0 0 1-.046.042.18.18 0 0 1-.054.02.188.188 0 0 1-.112 0 .232.232 0 0 1-.054-.022.227.227 0 0 1-.019-.017.249.249 0 0 1-.054-.06c-.004-.006-.01-.01-.012-.008a.268.268 0 0 1-.085.05.186.186 0 0 1-.048.01.184.184 0 0 1-.14-.031.195.195 0 0 1-.068-.069.236.236 0 0 1-.05-.13.276.276 0 0 1 0-.048l.003-.007c0 .013 0 .025.002.038l.008.037a.263.263 0 0 0 .033.069.3.3 0 0 0 .077.068c.015.008.03.015.046.021a.568.568 0 0 0 .052.01c.015.002.03.001.045-.002a.27.27 0 0 0 .048-.008.257.257 0 0 0 .081-.048c.002-.002.008.002.013.01l.016.021a.21.21 0 0 0 .038.038.232.232 0 0 0 .13.046.232.232 0 0 0 .112-.031.222.222 0 0 0 .042-.03Zm1.589.355c0 .015-.004.042-.009.044a.685.685 0 0 1-.039.014l-.037.017a.289.289 0 0 1-.036.019.306.306 0 0 0-.076.058.27.27 0 0 0-.038.042.335.335 0 0 0-.06.093l-.006-.004v-.002l-.002-.002v-.004a.418.418 0 0 1 .15-.195.464.464 0 0 1 .07-.04l.037-.017a.412.412 0 0 1 .037-.014c.007-.002.009-.005.009-.009Zm-.389-.162a.598.598 0 0 0-.188.096.553.553 0 0 0-.14.162l-.012-.004c-.002 0-.002-.01 0-.013a.508.508 0 0 1 .345-.283h.002l.002-.001.002-.002v-.002c0 .02-.002.045-.01.047Zm-.633-.101.002-.003.002-.002v-.002c.002-.001.002-.002.002-.004v.017c0 .005 0 .01-.002.014 0 .006 0 .011-.002.017a.21.21 0 0 1-.004.014.636.636 0 0 0-.042.046.63.63 0 0 0-.04.048 16.17 16.17 0 0 1-.037.05 1.15 1.15 0 0 0-.05.091.347.347 0 0 0-.019.083l.001.042-.002-.002-.002-.002c0-.002 0-.002-.002-.002v-.005a.198.198 0 0 1-.002-.05.3.3 0 0 1 .016-.1.655.655 0 0 1 .019-.045.794.794 0 0 1 .116-.158.757.757 0 0 1 .046-.045v-.002Zm-.559.224c0-.002.001-.002.002-.002l.002-.004v-.002.039a.04.04 0 0 0-.002.013.27.27 0 0 0-.066.105.337.337 0 0 0-.017.125.417.417 0 0 1-.006-.073.32.32 0 0 1 .013-.072.263.263 0 0 1 .074-.13Zm-.3.527a.737.737 0 0 1-.022-.062.991.991 0 0 1-.014-.069.348.348 0 0 1-.008-.074.34.34 0 0 1 .008.052c.001.01.003.02.006.029l.008.033a.3.3 0 0 0 .042.095c0 .003.014.01.006.015l-.014.01-.013-.029Zm.317.544a.155.155 0 0 0 .02-.03.18.18 0 0 0 .023-.07c0 .014 0 .03-.002.044a.219.219 0 0 1-.033.088.263.263 0 0 1-.027.037.167.167 0 0 1-.077.04.15.15 0 0 1-.043.002.227.227 0 0 1-.042-.009l-.037-.016a.307.307 0 0 1-.035-.023.208.208 0 0 1-.032-.03.29.29 0 0 1-.027-.03c-.004-.007-.014.002-.014.002a.277.277 0 0 1-.033.052.249.249 0 0 1-.04.045.317.317 0 0 1-.106.058.354.354 0 0 1-.04.002.18.18 0 0 1-.039-.008.141.141 0 0 1-.037-.014.51.51 0 0 1-.033-.023c-.04-.027-.054-.035-.054-.158 0 .01 0 .02.002.03a.311.311 0 0 0 .01.032l.019.03a.256.256 0 0 0 .054.048l.035.014a.186.186 0 0 0 .04.008c.012 0 .025 0 .037-.002a.317.317 0 0 0 .106-.058.33.33 0 0 0 .073-.098s.01-.008.014-.002a.299.299 0 0 0 .027.031c.01.011.02.021.031.03a.306.306 0 0 0 .073.039.227.227 0 0 0 .042.008.153.153 0 0 0 .12-.041.151.151 0 0 0 .025-.028Zm-.669-.249a.223.223 0 0 1-.035-.045.337.337 0 0 1-.02-.052.249.249 0 0 1-.007-.056.315.315 0 0 0 .012.052.187.187 0 0 0 .067.083.18.18 0 0 0 .048.024c.002 0 .008.007.002.009a.317.317 0 0 1-.023.02.259.259 0 0 1-.044-.035ZM4.757 6.448a.163.163 0 0 1-.006-.025L4.746 6.4c0-.009 0-.018-.002-.027V6.37a.106.106 0 0 1 .002.021l.005.021a44.907 44.907 0 0 1 .018.046v.008c0 .001 0 .003-.002.004-.001.003-.003.004-.006.004l-.004-.025Zm.135 2.48a.082.082 0 0 1-.01-.012.135.135 0 0 1-.009-.015.138.138 0 0 1-.008-.014 1.165 1.165 0 0 1-.015-.098l.002.008.002.015c0 .005.001.01.003.014a.288.288 0 0 0 .03.052.217.217 0 0 0 .011.019.217.217 0 0 0 .013.019c.006.006 0 .016-.007.022l-.002.003a.031.031 0 0 1-.01-.013Zm.662.226a.152.152 0 0 1 .005.05.19.19 0 0 1-.015.048.141.141 0 0 1-.03.042.165.165 0 0 1-.04.027.226.226 0 0 1-.13.04.265.265 0 0 1-.047-.01.233.233 0 0 1-.062-.031.46.46 0 0 1-.052-.045c-.01-.013-.021.004-.034.012a.343.343 0 0 1-.058.034.143.143 0 0 1-.029.014l-.029.013a.157.157 0 0 1-.06.016.184.184 0 0 1-.12-.033.217.217 0 0 1-.044-.044.472.472 0 0 1-.019-.037.187.187 0 0 1-.012-.04.46.46 0 0 1-.009-.08l.004.03.009.03a.13.13 0 0 0 .012.027c.004.01.01.018.015.027a.217.217 0 0 0 .043.043.191.191 0 0 0 .118.031.229.229 0 0 0 .09-.03.287.287 0 0 0 .03-.015l.028-.017a.204.204 0 0 0 .027-.016c.015-.009.027-.021.038-.009a.375.375 0 0 0 .025.023l.024.02.03.018.03.012a.188.188 0 0 0 .046.006c.016.002.03 0 .046-.002a.226.226 0 0 0 .044-.012.615.615 0 0 0 .074-.044c.01-.01.02-.02.027-.031a.165.165 0 0 0 .025-.075v-.004.012Zm-.263-1.021a.224.224 0 0 1-.073.02.185.185 0 0 1-.075-.008.158.158 0 0 1-.066-.035.164.164 0 0 1-.048-.058.024.024 0 0 0-.006-.004c-.003-.003-.006-.005-.009-.005h-.008a.272.272 0 0 1-.098.046.183.183 0 0 1-.047.01.303.303 0 0 1-.05.005.269.269 0 0 1-.048-.013.206.206 0 0 1-.077-.06.188.188 0 0 1-.033-.087.116.116 0 0 1-.002-.023v-.023a.06.06 0 0 1 .002.015.2.2 0 0 0 .004.014c0 .006.002.01.004.015l.004.012a.206.206 0 0 0 .059.075c.013.01.028.017.043.023.015.004.03.007.046.008.017 0 .033 0 .05-.002a.756.756 0 0 0 .048-.01.432.432 0 0 0 .087-.042c.008-.008.033-.004.035.004a.198.198 0 0 0 .116.085.16.16 0 0 0 .075.004.215.215 0 0 0 .069-.027.217.217 0 0 0 .033-.027.16.16 0 0 0 .027-.035.147.147 0 0 0 .025-.083c.002.12-.023.162-.087.206Zm-.495-.443a.188.188 0 0 1-.027-.064.28.28 0 0 1-.006-.04l.01.03.015.027c.006.01.012.018.019.024.004.009.006.02 0 .021 0 .002-.001.002-.002.002-.002 0-.002.001-.002.002H4.8c0 .002-.002.002-.002.002l-.002-.004ZM5.73 8v-.004l.002-.005v.042a.04.04 0 0 1-.004.02.572.572 0 0 0-.108.175.397.397 0 0 0-.025.104 3.902 3.902 0 0 1-.004.04v.037c0 .012 0 .026.002.04a.614.614 0 0 1-.006-.152l.008-.05a.612.612 0 0 1 .087-.191A.427.427 0 0 1 5.729 8Zm.585-.193c.002 0 .003-.001.003-.002 0-.002 0-.003.002-.005v-.004c0 .025.002.06-.007.065a.475.475 0 0 0-.187.197.53.53 0 0 0-.047.129.62.62 0 0 0-.009.137.53.53 0 0 1-.002-.152.502.502 0 0 1 .243-.361l.004-.004Zm.356.224a.832.832 0 0 1 .185-.23.939.939 0 0 1 .122-.098v-.004a.016.016 0 0 0 .002-.007v.032c-.002.01 0 .03-.006.035a1.056 1.056 0 0 0-.106.085 1.561 1.561 0 0 0-.091.1 1.236 1.236 0 0 0-.077.112c-.022.04-.043.08-.06.122l-.015.002c-.006 0-.019-.01-.019-.014a.93.93 0 0 1 .065-.135Zm-.902-1.19v-.002.064c-.001 0-.002 0-.002.002h-.002a.477.477 0 0 0-.033.023.523.523 0 0 0-.03.027.176.176 0 0 0-.024.031.182.182 0 0 0-.02.036.458.458 0 0 0-.081.297c-.003-.005-.003-.015-.005-.02a.384.384 0 0 1-.006-.088c0-.03.003-.059.01-.088a.387.387 0 0 1 .027-.083.373.373 0 0 1 .042-.077.204.204 0 0 1 .025-.035.643.643 0 0 1 .06-.062.542.542 0 0 1 .04-.025Zm0-.004v.002-.002Zm.638-.177v.033c0 .017-.002.03-.017.038a.888.888 0 0 0-.087.066.377.377 0 0 0-.04.042 1.2 1.2 0 0 0-.101.153l-.025.06a.548.548 0 0 0-.02.063.014.014 0 0 1-.007-.006.014.014 0 0 1-.006-.006l-.005-.009a.023.023 0 0 1-.002-.01.733.733 0 0 1 .154-.303l.042-.04a.475.475 0 0 1 .095-.062c.01-.004.019-.01.019-.019Zm0-.002v.002-.002Zm.727 0 .004-.004a.024.024 0 0 0 .004-.006v-.002.035c0 .012.002.029-.012.031a.56.56 0 0 0-.35.187.494.494 0 0 0-.066.118c-.003 0-.005-.001-.008-.004L6.7 7.007l-.004-.008V6.99a.442.442 0 0 1 .022-.072.39.39 0 0 1 .147-.168.511.511 0 0 1 .125-.06.545.545 0 0 1 .137-.027l.007-.005Zm.008-.017v.005-.005Zm.239.368c-.02-.002-.008-.01.008-.025a.684.684 0 0 1 .168-.097.656.656 0 0 1 .187-.059c.004 0 .009-.002.009-.006v.027c0 .023-.005.03-.015.03a1.249 1.249 0 0 0-.152.043.81.81 0 0 0-.139.073l-.022.014H7.38ZM5.928 5.481l.004-.005.002-.006v-.006l.002.019c0 .005 0 .011-.002.018v.017a.407.407 0 0 1-.004.019 1.13 1.13 0 0 0-.129.112 2.541 2.541 0 0 0-.116.126.565.565 0 0 0-.06.133.651.651 0 0 0-.027.144c-.004-.002-.01-.002-.01-.007a.578.578 0 0 1 .083-.326 1.252 1.252 0 0 1 .257-.238Zm.81-.181v.037c0 .006 0 .025-.006.031a1.016 1.016 0 0 0-.177.141 1.867 1.867 0 0 0-.054.053.398.398 0 0 0-.041.054.854.854 0 0 0-.065.122.612.612 0 0 0-.02.067h-.009c-.002.002-.008-.005-.008-.009a.52.52 0 0 1 .13-.297 1.982 1.982 0 0 1 .25-.197V5.3Zm.837-.052.004-.004a.024.024 0 0 0 .004-.006c.002-.002.002-.003.002-.005v.05c0 .01-.004.023-.012.025l-.091.035a.867.867 0 0 0-.088.046.771.771 0 0 0-.16.112.542.542 0 0 0-.118.208c-.006 0-.014-.002-.014-.008a.443.443 0 0 1 .018-.07.599.599 0 0 1 .064-.133.446.446 0 0 1 .123-.117.91.91 0 0 1 .262-.129.024.024 0 0 0 .006-.004Zm.715.328v.054c0 .008-.01.017-.017.017a1.342 1.342 0 0 0-.152.006 1.391 1.391 0 0 0-.15.019.65.65 0 0 0-.068.033l-.033.02-.029.026-.03-.009-.003-.004c-.002-.001-.002-.003-.002-.004-.002-.003-.002-.005 0-.006 0-.002 0-.003.002-.004a.425.425 0 0 1 .035-.036.223.223 0 0 1 .042-.029.272.272 0 0 1 .043-.025.23.23 0 0 1 .046-.02l.075-.013.074-.008.075-.004.075-.003c.006-.002.017-.004.017-.01ZM5.392 6.691l.002-.002v-.006a.164.164 0 0 1 0 .054.19.19 0 0 1-.017.052.096.096 0 0 1-.012.027.325.325 0 0 1-.016.023l-.021.02-.025.017a.183.183 0 0 1-.073.035.2.2 0 0 1-.079.007.203.203 0 0 1-.076-.03.24.24 0 0 1-.059-.053c0-.002-.002-.002-.002-.002-.001-.002-.002-.003-.004-.003h-.004l-.004.003a.343.343 0 0 0-.03.018 75.364 75.364 0 0 0-.058.033.586.586 0 0 0-.03.015.226.226 0 0 1-.063.008.178.178 0 0 1-.06-.01.196.196 0 0 1-.102-.07.732.732 0 0 0-.012-.032.279.279 0 0 1-.006-.033.137.137 0 0 1-.005-.033.151.151 0 0 1 0-.036v-.012.017l.002.004v.006l.003.017.002.006a.2.2 0 0 1 .004.014l.002.007.002.004.002.004.004.004a.247.247 0 0 0 .042.05.165.165 0 0 0 .054.027c.02.007.04.01.06.008a.16.16 0 0 0 .058-.01l.033-.013a.635.635 0 0 1 .06-.03 1.178 1.178 0 0 0 .034-.022h.004l.004.002c.001 0 .002.001.002.003a.179.179 0 0 0 .023.022.469.469 0 0 0 .05.035.264.264 0 0 0 .075.019.267.267 0 0 0 .093-.016.152.152 0 0 0 .042-.023c.058-.04.079-.046.101-.12V6.69Zm2.831-.46a.407.407 0 0 0 .008-.057.268.268 0 0 1 0 .065.22.22 0 0 1-.008.064c-.002.01-.01.031-.02.033h-.011l-.008-.004-.009-.004-.004-.008a1.216 1.216 0 0 0-.525-.251 1.017 1.017 0 0 0-.195-.024 4.67 4.67 0 0 0-1.07.15 4.762 4.762 0 0 0-1.011.382l-.005-.008a.033.033 0 0 0-.006-.008.033.033 0 0 0-.006-.009l-.006-.006c-.007-.006 0-.019.006-.023a4.837 4.837 0 0 1 1.013-.386 5.007 5.007 0 0 1 1.074-.15 1.29 1.29 0 0 1 .382.077 1.216 1.216 0 0 1 .337.2.024.024 0 0 0 .004.006l.008.004c.003 0 .005 0 .006.002.003 0 .006 0 .009-.002.004 0 .007 0 .01-.002a.032.032 0 0 0 .008-.006.032.032 0 0 1 .009-.007.146.146 0 0 0 .01-.03ZM7.158 7.378l.004.002h.004v.058h-.002c-.001 0-.002 0-.002-.002h-.006a1.216 1.216 0 0 0-.106-.033.739.739 0 0 0-.11-.017 3.117 3.117 0 0 0-.41.035 3.131 3.131 0 0 0-.787.22 3.13 3.13 0 0 0-.367.183l-.002.002-.004.002-.005.005-.002.004-.004-.013a.023.023 0 0 1-.002-.01.08.08 0 0 1-.004-.01.08.08 0 0 0-.004-.01c-.004-.01.008-.024.016-.028a3.63 3.63 0 0 1 .368-.183 3.211 3.211 0 0 1 1.197-.255.696.696 0 0 1 .17.033l.056.017h.002Zm.01 1.107v.045h-.004c-.001.002-.003.002-.004.002-.002 0-.003 0-.004-.002H7.15a2.754 2.754 0 0 0-.425.017 2.643 2.643 0 0 0-.415.09 4.285 4.285 0 0 0-.42.152c-.068.03-.135.061-.202.094a7.53 7.53 0 0 0-.197.108l-.002-.004-.004-.004c-.002-.001-.002-.003-.002-.004l-.004-.004c-.017-.019-.02-.017 0-.027a3.953 3.953 0 0 1 .4-.208 3.907 3.907 0 0 1 .424-.156 2.277 2.277 0 0 1 .418-.085 2.73 2.73 0 0 1 .423-.014h.023Zm2.904 2.467c.184-.046.924-.316 1.38-.322a1.549 1.549 0 0 1 .418.048 1.698 1.698 0 0 1 .393.152c.031.019.062.039.09.06a.962.962 0 0 1 .173.137.797.797 0 0 1 .075.079c.004.002.006.016.019.018h.006l.004-.004c.002 0 .003 0 .004-.002.002-.001.002-.003.002-.004a.407.407 0 0 0 .017-.048.364.364 0 0 0 .012-.047.319.319 0 0 0 .009-.05l.004-.05a.926.926 0 0 1-.008.122.76.76 0 0 1-.04.127l-.004.002h-.006c-.013-.002-.015-.01-.019-.014a.841.841 0 0 0-.077-.08 1.346 1.346 0 0 0-.08-.074 4.612 4.612 0 0 0-.09-.067 1.01 1.01 0 0 0-.091-.058 1.698 1.698 0 0 0-.6-.187c-.07-.007-.14-.01-.21-.008-.457.006-1.203.274-1.388.32l-.01.004c-.028.02-.056.037-.083.054a2.854 2.854 0 0 1-.175.098c-.03.015-.06.03-.091.043a.015.015 0 0 1-.002-.006l-.019-.033a3.272 3.272 0 0 0 .191-.091c.03-.017.06-.035.09-.055.03-.018.06-.037.089-.058a.41.41 0 0 0 .017-.006Zm1.941 1.325a.12.12 0 0 0 .007-.02.126.126 0 0 0 .008-.042c0 .01 0 .022-.002.033l-.004.031a.303.303 0 0 1-.023.062l-.013.009a.194.194 0 0 0-.014.004.061.061 0 0 1-.031 0l-.046-.054-.05-.05a1.658 1.658 0 0 0-.052-.05l-.054-.046a.6.6 0 0 0-.148-.095.591.591 0 0 0-.165-.06 1.83 1.83 0 0 0-.133-.021 2.114 2.114 0 0 0-.133-.008 2.218 2.218 0 0 0-.268.018 2.13 2.13 0 0 0-.253.048 2.588 2.588 0 0 0-.721.283l-.015-.021c-.006-.008.002-.013.017-.023a2.791 2.791 0 0 1 .72-.287 2.302 2.302 0 0 1 .524-.064 1.415 1.415 0 0 1 .266.031.819.819 0 0 1 .243.102.87.87 0 0 1 .124.1.839.839 0 0 1 .102.1l.046.053h.029a.046.046 0 0 0 .014-.006.043.043 0 0 0 .015-.006.154.154 0 0 1 .01-.02Zm-.722 1.294a.194.194 0 0 0 .02-.03.164.164 0 0 0 .013-.032.258.258 0 0 0 .006-.034.206.206 0 0 1 0 .042.45.45 0 0 1-.01.041.358.358 0 0 1-.019.04.288.288 0 0 1-.027.031l-.008.004a.019.019 0 0 1-.009.002h-.008l-.006-.002a1.104 1.104 0 0 0-.123-.104l-.045-.029a.837.837 0 0 0-.123-.047.81.81 0 0 0-.386-.034 1.487 1.487 0 0 0-.54.198c-.056.033-.108.07-.158.11l-.019-.013c-.006-.006 0-.02.013-.03a1.385 1.385 0 0 1 .328-.2 1.494 1.494 0 0 1 .37-.106.996.996 0 0 1 .128-.008 1.027 1.027 0 0 1 .258.041c.043.014.084.03.122.048l.046.029.044.033a.98.98 0 0 1 .079.07c.006.005.024.011.03.005a.128.128 0 0 0 .024-.025Z" clip-rule="evenodd"/>
    <path fill="url(#c)" fill-rule="evenodd" d="M13.617 4.134s-.059 3.602-.104 5.386a5.142 5.142 0 0 1-.166 1.167 5.354 5.354 0 0 1-.119.376 6.965 6.965 0 0 1-.569 1.217c-.075.13-.154.257-.237.382a7.105 7.105 0 0 1-.575.729 6.082 6.082 0 0 1-.673.64l-.143.116a5.764 5.764 0 0 1-.297.216 8.676 8.676 0 0 1-.154.102l-.247.143a7.107 7.107 0 0 1-.766.37c-.117.05-.218.095-.31.126a1.46 1.46 0 0 1-.218.071l-.075.02a6.72 6.72 0 0 1-.292-.09c-.092-.032-.194-.08-.308-.127a5.586 5.586 0 0 1-.261-.114 6.234 6.234 0 0 1-.507-.256 4.067 4.067 0 0 1-.399-.245 5.883 5.883 0 0 1-.297-.216 6.15 6.15 0 0 1-1.117-1.111 5.85 5.85 0 0 1-.513-.756 7.709 7.709 0 0 1-.57-1.217 4.694 4.694 0 0 1-.116-.376 4.661 4.661 0 0 1-.14-.775 4.629 4.629 0 0 1-.026-.392 859.924 859.924 0 0 1-.104-5.388l.03-.012a11.49 11.49 0 0 1 1.479-.48 15.727 15.727 0 0 1 1.05-.212c.176-.027.352-.052.53-.074.177-.023.355-.04.533-.054.35-.032.663-.042 1.016-.046h.03c.35.004.666.014 1.015.046.177.013.354.031.531.054.178.022.355.047.532.074.176.03.351.061.525.096a10.991 10.991 0 0 1 2.032.61Zm-3.556 6.833a1.995 1.995 0 0 1-.274.162c-.032.016-.064.03-.096.044l.017.031a.19.19 0 0 1 .017.052.152.152 0 0 1 0 .052.125.125 0 0 1-.023.07.107.107 0 0 1-.065.042.147.147 0 0 1-.05.012.149.149 0 0 1-.05 0 .26.26 0 0 1-.05-.016.14.14 0 0 1-.04-.03.203.203 0 0 1-.032.03.149.149 0 0 1-.04.019.097.097 0 0 1-.039.008.15.15 0 0 1-.077-.013.315.315 0 0 1-.029-.018.106.106 0 0 1-.025-.025.11.11 0 0 1-.02-.03c-.009-.02-.013-.04-.017-.05a1.64 1.64 0 0 1-.156.013l-.002 3.63v.057c.058-.015.14-.046.235-.077.09-.031.187-.075.297-.123a8.094 8.094 0 0 0 .976-.498 5.153 5.153 0 0 0 .569-.422c.116-.095.228-.195.336-.299a5.75 5.75 0 0 0 .314-.322c.1-.11.196-.225.289-.342.091-.12.179-.24.264-.364a7.767 7.767 0 0 0 .617-1.146c.056-.134.109-.27.157-.405a4.488 4.488 0 0 0 .191-.715 4.785 4.785 0 0 0 .081-.735h-2.548v.087a1.71 1.71 0 0 1-.056.387 1.733 1.733 0 0 1-.185.428c-.36.373-.471.492-.486.506Zm0 0a1.635 1.635 0 0 0 .486-.506l.004-.005.042-.01.253-.056c.008 0 .017-.013.017-.017a1.437 1.437 0 0 1 .062-.18.969.969 0 0 1 .09-.166.535.535 0 0 1 .124-.113.533.533 0 0 1 .156-.062.478.478 0 0 1 .326.044.02.02 0 0 1 .008.01.017.017 0 0 1 .002.015.023.023 0 0 1-.004.012.02.02 0 0 1-.01.008.61.61 0 0 0-.1.06.354.354 0 0 0-.081.084.405.405 0 0 0-.091.137.235.235 0 0 0-.02.052c-.001.008-.003.018.005.023.01.006.133 0 .183.01.008.002.01-.006.016-.017a.602.602 0 0 1 .038-.093.612.612 0 0 1 .185-.241.39.39 0 0 1 .087-.052.336.336 0 0 1 .097-.031.497.497 0 0 1 .102-.006c.035.002.069.01.102.02a.267.267 0 0 1 .154.098.286.286 0 0 1 .03.052c.005.004.005.019-.008.019a.482.482 0 0 0-.128.041.842.842 0 0 0-.06.031.804.804 0 0 0-.142.114.954.954 0 0 0-.066.094c0 .002-.013.019.01.025l.046.01.048.013a.604.604 0 0 1 .089.03c.008.007.025-.001.029-.007a.499.499 0 0 1 .305-.206c.185-.03.364.052.393.174.004.02.008.04-.006.04a.658.658 0 0 0-.075.008.552.552 0 0 0-.245.127l-.013.012c-.014.01-.01.019-.01.019.042.044.18.145.191.285l.002.066a1.11 1.11 0 0 1-.006.064.88.88 0 0 1-.038.131c0 .002-.002.003-.004.004l-.004.002h-.006c-.012-.002-.015-.012-.019-.014a1.036 1.036 0 0 0-.077-.081 1.366 1.366 0 0 0-.17-.14l-.091-.06a1.69 1.69 0 0 0-.393-.149 1.762 1.762 0 0 0-.418-.044c-.456.007-1.202.273-1.387.32l-.01.002Zm-.37.206v-.002l-.002.002h.002Zm-4.924-.482h2.827a1.556 1.556 0 0 1-.306-.484 1.687 1.687 0 0 1-.08-.274 1.65 1.65 0 0 1-.03-.287v-.043H4.597c.003.091.009.183.019.274a6.207 6.207 0 0 0 .085.546c.02.09.041.18.066.268Zm4.087 2.596H6.213l.15.158a8.315 8.315 0 0 0 .479.44 5.725 5.725 0 0 0 .424.324 5.096 5.096 0 0 0 .384.237l.24.129a8.07 8.07 0 0 0 .497.23c.112.048.21.094.297.123.064.023.123.041.17.058v-1.699Zm0-1.231H5.338a8.668 8.668 0 0 0 .407.654 4.236 4.236 0 0 0 .225.295c.038.048.078.095.118.14h2.766v-1.09Zm0-.742a1.93 1.93 0 0 1-1.136-.496H4.802a5.995 5.995 0 0 0 .35.876c.035.075.073.149.112.222h3.59v-.602Zm0-6.592c-.299.004-.575.015-.878.044a12.598 12.598 0 0 0-1.529.216c-.169.034-.336.072-.502.112a13.722 13.722 0 0 0-.721.21 11.865 11.865 0 0 0-.702.257H4.52l-.002.002h-.004c.02 1.16.052 2.84.079 3.9h2.583l-.002-.97h-.023a2.166 2.166 0 0 0-.423.015 2.644 2.644 0 0 0-.415.09 2.97 2.97 0 0 0-.215.07 3.979 3.979 0 0 0-.613.289c-.016.01-.016.01 0 .027.009.01.017.02.024.031.006.01.013.02.018.031a.877.877 0 0 0 .017.036c.005.012.01.024.012.035a.13.13 0 0 1 .002.052.12.12 0 0 1-.014.048.117.117 0 0 1-.03.039.141.141 0 0 1-.04.03.162.162 0 0 1-.04.022.28.28 0 0 1-.092.017.264.264 0 0 1-.045-.009.732.732 0 0 0-.031-.012.342.342 0 0 1-.08-.063c-.012-.014-.022.003-.035.013a.284.284 0 0 1-.114.06.23.23 0 0 1-.062.017.191.191 0 0 1-.062-.006.162.162 0 0 1-.057-.027.152.152 0 0 1-.043-.046.196.196 0 0 1-.03-.056.226.226 0 0 1-.008-.063c0-.02.005-.04.013-.06a.196.196 0 0 1 .029-.056c.025-.025.064-.043.093-.068.007-.007.01-.017.007-.023a.811.811 0 0 0-.027-.038.081.081 0 0 1-.01-.018l-.013-.021a.19.19 0 0 1-.008-.056.175.175 0 0 1 .03-.112.193.193 0 0 1 .038-.046.216.216 0 0 1 .05-.027.257.257 0 0 1 .11-.008c.018.004.035.01.052.018.044.02.079.08.106.119.006.008.012.014.02.008l.07-.04c.007-.006.003-.024 0-.035-.084-.21-.105-.353-.026-.5a.415.415 0 0 1 .098-.12.537.537 0 0 1 .066-.042.458.458 0 0 1 .12-.038.274.274 0 0 1 .048 0 .644.644 0 0 1 .048.007c.015.004.03.01.046.016.004.002.002.013 0 .019a.43.43 0 0 0-.083.114.628.628 0 0 0-.052.131l-.008.06a.47.47 0 0 0 .006.123l.012.06c.007.012.015.019.025.015.03-.009.12-.044.16-.054.013-.003.004-.023.002-.034a.746.746 0 0 1-.023-.199.614.614 0 0 1 .04-.195.477.477 0 0 1 .453-.264c.033 0 .076.031.052.05a.51.51 0 0 0-.202.218.507.507 0 0 0-.04.295c0 .008.011.016.017.014.065-.018.133-.037.195-.056.01-.004.009-.02.009-.033a.829.829 0 0 1 .041-.23.818.818 0 0 1 .115-.204.584.584 0 0 1 .201-.143.597.597 0 0 1 .12-.034.602.602 0 0 1 .123-.004.065.065 0 0 1 .023.009.115.115 0 0 1 .023.01.763.763 0 0 1 .04.027.023.023 0 0 1 .001.01v.009c0 .002 0 .005-.002.008a.827.827 0 0 0-.366.459c-.001.006.009.017.013.014.096-.006.2-.02.295-.03.015 0 .015-.003.017-.013a.596.596 0 0 1 .083-.156.442.442 0 0 1 .133-.116l.004-.004.004-.002.004-.003.004-.004-.002-.467c0-.001 0-.002-.002-.002-.001 0-.002 0-.002-.002h-.006a.666.666 0 0 0-.112-.033.825.825 0 0 0-.114-.019 3.117 3.117 0 0 0-.41.035c-.135.021-.27.05-.4.085a3.77 3.77 0 0 0-.387.135 3.632 3.632 0 0 0-.367.183c-.009.004-.021.019-.017.027.058.141.023.224-.058.278a.197.197 0 0 1-.069.027.18.18 0 0 1-.075-.004.167.167 0 0 1-.068-.029.265.265 0 0 1-.052-.056l-.006-.006-.006-.002h-.009l-.008.004a.62.62 0 0 1-.087.042.756.756 0 0 1-.048.01.598.598 0 0 1-.05.002.181.181 0 0 1-.046-.01.162.162 0 0 1-.077-.054.206.206 0 0 1-.024-.042.211.211 0 0 1-.009-.08.212.212 0 0 1 .021-.08.228.228 0 0 1 .052-.064.179.179 0 0 1 .073-.04c.012-.004.01-.012.002-.02a.172.172 0 0 1-.036-.067.172.172 0 0 1 .02-.145.183.183 0 0 1 .053-.054.198.198 0 0 1 .285.11c.002.01.004.006.014.004a.191.191 0 0 0 .023-.006.11.11 0 0 0 .023-.006.346.346 0 0 0 .046-.023c.012-.004.027-.05.027-.06.008-.241-.005-.391.155-.547.069-.068.295-.12.351-.045.004.004.007.01 0 .012a.57.57 0 0 0-.069.052l-.028.033a.605.605 0 0 0-.066.112.46.46 0 0 0-.036.173.37.37 0 0 0 .006.087c0 .006.002.02.009.019.066-.021.134-.046.197-.073.008-.004 0-.017 0-.023-.002-.04 0-.08.004-.12a.581.581 0 0 1 .025-.119.65.65 0 0 1 .108-.214c.104-.114.361-.23.488-.12.01.01 0 .025-.015.031a.337.337 0 0 0-.047.03 1.19 1.19 0 0 0-.044.032.376.376 0 0 0-.077.083.756.756 0 0 0-.077.123.68.68 0 0 0-.046.137c-.001.01.013.033.023.031.057-.012.16-.025.216-.043.03-.01.021-.017.027-.048a.53.53 0 0 1 .295-.43.475.475 0 0 1 .177-.048.48.48 0 0 1 .064-.008.52.52 0 0 1 .065.004l.062.014a.278.278 0 0 1 .087.048l.013.013.012.012a.019.019 0 0 1 .002.008c.002.005.002.008 0 .01l-.004.01a1.013 1.013 0 0 0-.077.015.397.397 0 0 0-.066.017.373.373 0 0 0-.065.027.42.42 0 0 0-.058.034.327.327 0 0 0-.112.101.514.514 0 0 0-.037.067.443.443 0 0 0-.023.073c0 .012.006.027.019.027.07 0 .162 0 .232-.007h.008l.005-.004.004-.004a.464.464 0 0 1 .436-.33.422.422 0 0 1 .125.01.447.447 0 0 1 .216.118c.014.021.012.025.002.028a.89.89 0 0 0-.274.102.858.858 0 0 0-.084.053c-.014.015-.029.023-.006.025h1.466V4.722Zm2.995 6.642c.04 0 .08.006.114.019a.338.338 0 0 1 .175.15c.008.016.002.026-.01.026a.5.5 0 0 0-.15.056.697.697 0 0 0-.13.092c-.018.016-.028.025-.026.04 0 .003 0 .007.002.01.021.02.041.042.06.064a1.362 1.362 0 0 1 .096.147l.035.081a.25.25 0 0 1 .017.065.356.356 0 0 1 .006.066.308.308 0 0 1-.031.127.893.893 0 0 0-.012.008.202.202 0 0 0-.015.004l-.014.002c-.006 0-.012 0-.017-.002l-.046-.054a1.78 1.78 0 0 0-.102-.1l-.054-.045a.877.877 0 0 0-.147-.098.844.844 0 0 0-.297-.079 2.338 2.338 0 0 0-.135-.008 1.428 1.428 0 0 0-.268.019 2.67 2.67 0 0 0-.255.045 3.154 3.154 0 0 0-.488.167 3.054 3.054 0 0 0-.233.118c-.017.01-.023.017-.017.023a.08.08 0 0 1 .023.029l.019.031a.263.263 0 0 1 .012.133.19.19 0 0 1-.018.058.249.249 0 0 1-.036.05.332.332 0 0 1-.05.037.183.183 0 0 1-.054.021.212.212 0 0 1-.116 0 .183.183 0 0 1-.054-.02l-.02-.017a.123.123 0 0 1-.02-.019.242.242 0 0 1-.016-.019.125.125 0 0 1-.014-.022.027.027 0 0 0-.015-.01.206.206 0 0 1-.085.049.23.23 0 0 1-.098.01.248.248 0 0 1-.093-.03.277.277 0 0 1-.116-.177.241.241 0 0 1 .002-.06.168.168 0 0 1 .018-.057c.034-.05.034-.056.08-.079.008-.004.001-.01 0-.012a.19.19 0 0 1-.073-.102.2.2 0 0 1 .008-.124.848.848 0 0 1 .02-.036l.026-.029.029-.027a.216.216 0 0 1 .033-.02.183.183 0 0 1 .054-.021.254.254 0 0 1 .056-.01.255.255 0 0 1 .112.02.28.28 0 0 1 .114.125.232.232 0 0 1 .019.052c.002.006.008.004.01.004.038-.019.14-.073.177-.09.01-.002.008-.012.008-.016a.623.623 0 0 1-.025-.146 1.34 1.34 0 0 1-.002-.074l.006-.075a.437.437 0 0 1 .225-.332.538.538 0 0 1 .155-.056.426.426 0 0 1 .176.004c.005.002.007.005.007.008a.019.019 0 0 1 0 .013.72.72 0 0 0-.158.224.66.66 0 0 0-.027.09.698.698 0 0 0-.006.186c.002.001.002.003.002.004l.002.002c.002.002.003.002.005.002 0 .002.002.002.004.002l.041-.012.042-.012.041-.009a.452.452 0 0 1 .048-.012.026.026 0 0 1 .006-.004l.004-.005a.423.423 0 0 1 .17-.509.42.42 0 0 1 .113-.087.482.482 0 0 1 .21-.074.435.435 0 0 1 .22.033c.006.002.004.029-.015.041a.776.776 0 0 0-.156.125.688.688 0 0 0-.153.262.535.535 0 0 0-.01.052.67.67 0 0 0-.003.051c-.002.009-.002.017.006.02.012 0 .023-.002.034-.003.012 0 .024 0 .035-.002a1.687 1.687 0 0 0 .07-.008c.007 0 .013-.007.017-.017a.814.814 0 0 1 .019-.102.814.814 0 0 1 .035-.097.627.627 0 0 1 .114-.17.378.378 0 0 1 .141-.091.338.338 0 0 1 .082-.024c.027-.004.056-.005.085-.004a.327.327 0 0 1 .064.01.238.238 0 0 1 .119.059.296.296 0 0 1 .05.05l-.003.006-.002.004h-.006a.812.812 0 0 0-.172.11.768.768 0 0 0-.106.12.586.586 0 0 0-.023.042.798.798 0 0 0-.015.044c-.002.004-.01.022.01.022.046.005.121.017.167.021.006.004.014-.014.017-.019a.418.418 0 0 1 .043-.066.406.406 0 0 1 .183-.141.309.309 0 0 1 .114-.021Zm1.516-3.07h-2.573v.2l-.002.926h2.55c.009-.33.017-.716.025-1.126Zm.023-1.117h-2.596v.96h2.577l.02-.96Zm.023-1.248H9.012v1.09h4.378l.021-1.09Zm.006-.364-.002-.002h-.002l-.002-.002h-.002a9.56 9.56 0 0 0-.702-.257 13.78 13.78 0 0 0-.72-.21c-.167-.04-.334-.077-.503-.11a12.12 12.12 0 0 0-1.016-.166c-.17-.021-.341-.038-.513-.052-.324-.03-.619-.04-.943-.044v1.066h4.401l.004-.223Zm.021-1.279c-.003 0-.005 0-.006-.002a.642.642 0 0 0-.015-.006l-.008-.004a12.96 12.96 0 0 0-1.061-.368 9.892 9.892 0 0 0-.864-.21 12.137 12.137 0 0 0-1.016-.166 12.693 12.693 0 0 0-1.49-.096h-.026a12.795 12.795 0 0 0-2.505.262 10.157 10.157 0 0 0-1.576.445c-.118.043-.235.087-.351.133l-.027.012s.006.461.019 1.134l.002-.002h.002l.002-.002h.002a10.782 10.782 0 0 1 1.063-.368c.12-.036.24-.069.362-.1a15.366 15.366 0 0 1 1.007-.205 12.959 12.959 0 0 1 1.022-.125c.336-.03.642-.05.978-.054h.03c.338.005.639.023.973.054a12.615 12.615 0 0 1 1.529.216c.169.035.336.072.502.113a13.86 13.86 0 0 1 .72.21 11.878 11.878 0 0 1 .703.257h.004a.922.922 0 0 0 .004.004h.002c.013-.669.019-1.13.019-1.132Zm-1.952 8.669c.006.012.008.018-.002.023a.329.329 0 0 0-.04.014 6.106 6.106 0 0 1-.037.017.896.896 0 0 0-.07.04.463.463 0 0 0-.15.194v.003a.043.043 0 0 1 .002.002v.002a4.307 4.307 0 0 0 .031.019.311.311 0 0 1 .05.041.212.212 0 0 1 .06.09c.006.022.01.05.008.074a.22.22 0 0 1-.018.073.21.21 0 0 1-.046.06c-.006.006-.023 0-.031-.004a1.001 1.001 0 0 0-.166-.133 1.028 1.028 0 0 0-.123-.05.981.981 0 0 0-.388-.033 1.405 1.405 0 0 0-.368.108 1.424 1.424 0 0 0-.328.201c-.015.009-.019.021-.013.027a.265.265 0 0 1 .1.108.171.171 0 0 1 .013.054.24.24 0 0 1-.007.054.203.203 0 0 1-.022.05.205.205 0 0 1-.038.04.163.163 0 0 1-.12.041.218.218 0 0 1-.042-.008.226.226 0 0 1-.073-.04.29.29 0 0 1-.058-.06c-.004-.006-.014.002-.014.004a.31.31 0 0 1-.033.05.245.245 0 0 1-.09.081.284.284 0 0 1-.056.023.115.115 0 0 1-.037.002.18.18 0 0 1-.04-.008.113.113 0 0 1-.035-.015.257.257 0 0 1-.031-.023.195.195 0 0 1-.056-.147.308.308 0 0 1 .012-.054.232.232 0 0 1 .042-.058.413.413 0 0 1 .054-.048c.006-.004 0-.008-.002-.01a.183.183 0 0 1-.08-.048.191.191 0 0 1-.043-.081.194.194 0 0 1 .002-.092.203.203 0 0 1 .046-.079.202.202 0 0 1 .075-.041.142.142 0 0 1 .041-.006.22.22 0 0 1 .044.004c.015.004.03.01.043.019a.18.18 0 0 1 .04.027.19.19 0 0 1 .033.033c.011.012.02.025.027.04.002.003.008.001.008 0 .027-.021.048-.036.075-.059.009-.002-.004-.01-.006-.012a.641.641 0 0 1-.017-.032L9.6 13.4a.711.711 0 0 1-.012-.03 1.47 1.47 0 0 0-.009-.036.36.36 0 0 1-.019-.085.342.342 0 0 1 .031-.168.412.412 0 0 1 .046-.075.312.312 0 0 1 .191-.098c.025-.001.05 0 .073.002.019.006.015.017.004.023a.329.329 0 0 0-.077.274.357.357 0 0 0 .034.094c.002.004.012.002.014.002.038-.015.067-.034.106-.048.006-.004.002-.013.002-.015a.656.656 0 0 1-.023-.14.62.62 0 0 1 .017-.144.513.513 0 0 1 .158-.228.406.406 0 0 1 .139-.077.251.251 0 0 1 .191.027.014.014 0 0 1 .006.006.018.018 0 0 1 .002.008c0 .003 0 .006-.002.008l-.004.009-.046.045-.041.05a.725.725 0 0 0-.075.108.35.35 0 0 0-.033.196l.002.004c0 .001 0 .002.002.002l.004.004h.004l.03-.004a.222.222 0 0 1 .026-.006l.03-.009.028-.008c.007-.002.003-.01.003-.02a.544.544 0 0 1 .089-.2.591.591 0 0 1 .156-.156c.135-.085.409-.096.463.037.002.005.004.01-.004.015a.525.525 0 0 0-.202.104.45.45 0 0 0-.08.08.437.437 0 0 0-.063.096c-.002.002-.002.015 0 .015l.106.03c.006.005.01-.01.012-.014.011-.02.022-.04.034-.058a.482.482 0 0 1 .041-.052.487.487 0 0 1 .098-.087c.118-.077.371-.07.434.075Zm-3.452-7.57a.277.277 0 0 1 .16.06.249.249 0 0 1 .06.06c.018.024.032.05.042.077.002.006-.009.015-.017.015-.025 0-.05 0-.075.002l-.074.004-.075.008a1.38 1.38 0 0 0-.075.01.333.333 0 0 0-.046.021l-.043.025a.971.971 0 0 0-.077.063c-.006.006-.002.018.004.02a.49.49 0 0 1 .165.063.527.527 0 0 1 .14.108.325.325 0 0 1 .098.153.3.3 0 0 1-.002.193.014.014 0 0 1-.006.007.033.033 0 0 1-.007.008.08.08 0 0 1-.01.004h-.008l-.009-.004-.008-.004a1.182 1.182 0 0 0-.725-.282 4.679 4.679 0 0 0-1.073.149 4.666 4.666 0 0 0-1.012.384c-.008.004-.012.019-.006.023a.48.48 0 0 1 .023.033l.014.038a.18.18 0 0 1 .009.039l-.002.04c-.023.074-.044.08-.102.122a.18.18 0 0 1-.069.035.18.18 0 0 1-.08.007.207.207 0 0 1-.13-.081l-.006-.003c-.001 0-.003 0-.004-.002h-.002c-.001.002-.003.002-.004.002a.338.338 0 0 1-.06.036.215.215 0 0 1-.032.014.214.214 0 0 1-.09.027.233.233 0 0 1-.061-.008.173.173 0 0 1-.052-.03.177.177 0 0 1-.042-.043.212.212 0 0 1-.01-.17.228.228 0 0 1 .044-.075.24.24 0 0 1 .074-.056l.002-.006v-.006c0-.002 0-.004-.002-.007a.139.139 0 0 1-.02-.064.16.16 0 0 1 .037-.133.133.133 0 0 1 .052-.043c.077-.046.251-.075.297.072 0 .002 0 .003.002.004.001.003.003.005.004.005l.004.002h.007a.244.244 0 0 0 .029-.01.245.245 0 0 0 .029-.011l.029-.013a.152.152 0 0 0 .027-.012c.008-.004.014-.023.01-.04a.657.657 0 0 1-.01-.29.713.713 0 0 1 .108-.27c.162-.185.355-.268.56-.187.007.004 0 .02-.006.027-.08.08-.19.135-.251.232a.574.574 0 0 0-.083.241.434.434 0 0 0-.004.085c0 .007.014.007.018.005.104-.034.23-.08.353-.117.009-.002.025-.004.023-.012v-.05a.628.628 0 0 1 .009-.104.61.61 0 0 1 .118-.31.572.572 0 0 1 .32-.204.498.498 0 0 1 .203 0 .486.486 0 0 1 .098.026c.006.004.012.02.006.027a1.835 1.835 0 0 0-.129.092 13.882 13.882 0 0 0-.118.105.547.547 0 0 0-.05.063.722.722 0 0 0-.064.15.396.396 0 0 0-.013.08c0 .004.002.009.005.009l.085-.02a1.56 1.56 0 0 1 .168-.031c.028-.003.055-.008.083-.012.003 0 .006 0 .008-.002.002 0 .004-.001.007-.004l.004-.004a.018.018 0 0 0 .002-.008c.016-.104.102-.395.243-.488a.664.664 0 0 1 .249-.106.55.55 0 0 1 .135-.009c.046.002.09.008.133.019l.029.017a.46.46 0 0 1 .05.043.164.164 0 0 1 .02.025c.007.008-.004.023-.012.025a.864.864 0 0 0-.179.081.77.77 0 0 0-.16.112.344.344 0 0 0-.083.118.447.447 0 0 0-.043.14c0 .006.01.006.017.006a4.656 4.656 0 0 1 .3.002c.002 0 .003 0 .005-.002.001 0 .003 0 .004-.002 0-.002 0-.003.002-.004a.591.591 0 0 1 .1-.16.757.757 0 0 1 .15-.114.541.541 0 0 1 .167-.05.615.615 0 0 1 .177 0Z" clip-rule="evenodd"/>
    <path fill="url(#d)" fill-rule="evenodd" d="M12.138 3.954c.091.025.183.05.274.077l.27.085a8.663 8.663 0 0 1 .536.191c.008.003.01.013.01.023.004.077.002.083 0 .162 0 .017-.01.019-.029.013a9.009 9.009 0 0 0-.804-.26c-.002 0-.01.002-.01.006v.096c0 .004.006.008.01.008a11.73 11.73 0 0 1 .82.266l.003.004.002.004c.004.077.002.156 0 .233 0 .004 0 .01-.006.008a11.82 11.82 0 0 0-.831-.268c-.004-.002-.01 0-.01.002l-.005.092.002.004v.004c.002 0 .003 0 .005.002a5.814 5.814 0 0 1 .42.127L13 4.9a12.13 12.13 0 0 1 .207.08c.002 0 .003.002.005.003l.004.005v.006c.004.066 0 .137 0 .205 0 .005 0 .017-.017.01a12.309 12.309 0 0 0-.802-.27 6.08 6.08 0 0 0-.272-.076c-.006-.002-.008-.01-.008-.017.002-.3.01-.581.017-.882 0-.004 0-.01.004-.01Zm-1.246.64c.004-.156.025-.743.027-.88 0-.007.006-.013.01-.013.075.01.135.02.208.033.001.002.003.002.004.002l.004.004a.16.16 0 0 0 .004.005v.004c0 .11 0 .216-.002.326 0 .006-.002.014.004.014.183.036.378.075.563.115.004 0 .004-.002.004-.007.009-.11.007-.214.013-.324 0-.006.004-.018.012-.016.077.016.148.033.225.052.004 0 .006.006.006.01-.004.303-.008.663-.019.887 0 .008-.004.01-.02.006-.07-.014-.14-.033-.21-.05-.003 0-.005 0-.007-.002l-.004-.004a.016.016 0 0 1-.002-.006 7.687 7.687 0 0 0 .004-.314c0-.012-.02-.014-.025-.014-.182-.04-.363-.077-.548-.11-.006 0-.01 0-.01.006.002.093.002.214.002.315 0 .009-.01.013-.017.01-.064-.012-.147-.022-.226-.034v-.015Zm-.075-.912c.001.002.003.002.004.002l.004.005a.024.024 0 0 1 .005.006c0 .001 0 .003.002.004l-.007.191c0 .006-.01.01-.018.01-.262-.029-.524-.076-.787-.097-.017-.002-.042.006-.042.025v.403c0 .004 0 .008.002.012a.026.026 0 0 0 .006.01.068.068 0 0 0 .01.009.079.079 0 0 0 .011.004c.266.027.565.066.79.095.003.003.014.01.014.015v.208c0 .004-.01.008-.017.008a14.337 14.337 0 0 0-.94-.106.168.168 0 0 1-.109-.095.213.213 0 0 1-.01-.05l.006-.594a.215.215 0 0 1 .07-.12.194.194 0 0 1 .063-.034.179.179 0 0 1 .07-.01c.356.035.58.058.873.1ZM9.573 3.59v.158a.04.04 0 0 1-.002.012.105.105 0 0 1-.006.01.069.069 0 0 1-.01.009.08.08 0 0 1-.011.004 12.175 12.175 0 0 0-.777-.01c-.014 0-.025.004-.025.018l-.004.073c0 .003 0 .006.002.008l.004.009.009.004.008.004c.224.004.473-.002.694.01.05.004.128.052.128.117l-.002.311a.128.128 0 0 1-.018.05.123.123 0 0 1-.034.042.153.153 0 0 1-.1.039 6.515 6.515 0 0 0-.937 0l.003-.017.01-.19c.003-.013 0-.009.015-.011.262-.02.534-.008.793-.008l.009-.002a.024.024 0 0 0 .006-.005.033.033 0 0 0 .006-.008v-.008l.002-.065c0-.016-.014-.027-.03-.027-.223-.014-.427-.01-.655-.016-.067-.002-.154-.052-.154-.119l.004-.322c.002-.06.085-.112.146-.114.29-.012.606-.004.895.009.016.002.031.027.031.035Zm-1.292.61c.02.025.035.052.048.081a.592.592 0 0 1 .031.088.69.69 0 0 1 .015.093c0 .004-.01.004-.015.004l-.232.017a.22.22 0 0 0-.009-.044.491.491 0 0 0-.027-.085 1.024 1.024 0 0 0-.02-.04c-.04-.062-.088-.09-.13-.084l-.47.051v.266h-.003c-.001.002-.003.002-.004.002l-.233.03v-.912c.26-.031.717-.09.927-.094a.154.154 0 0 1 .096.035.13.13 0 0 1 .032.04c.01.015.017.031.021.048a.826.826 0 0 1 .006.07l.005.071v.139a.137.137 0 0 1-.005.048.137.137 0 0 1-.02.046.127.127 0 0 1-.031.035.128.128 0 0 1-.042.025.58.58 0 0 1 .06.07Zm-.224-.355a.2.2 0 0 0-.004-.014.031.031 0 0 0-.01-.013.061.061 0 0 0-.03-.008l-.552.054-.006.002v.204l.006.004.527-.052a.157.157 0 0 0 .027-.01.15.15 0 0 0 .023-.02.234.234 0 0 0 .015-.024.105.105 0 0 0 .004-.03v-.093Zm-.962.586a.113.113 0 0 1-.004.031.11.11 0 0 1-.025.058.117.117 0 0 1-.018.025.182.182 0 0 1-.06.052.285.285 0 0 1-.073.031c-.268.048-.542.1-.812.16a.113.113 0 0 1-.032-.004.065.065 0 0 1-.027-.01.079.079 0 0 1-.024-.017.15.15 0 0 1-.02-.023.19.19 0 0 1-.02-.029.186.186 0 0 1-.017-.033.305.305 0 0 1-.016-.07l-.002-.555a.152.152 0 0 1 .006-.03.157.157 0 0 1 .01-.026.079.079 0 0 1 .017-.025.374.374 0 0 1 .07-.066.157.157 0 0 1 .032-.015.13.13 0 0 1 .03-.013c.275-.058.547-.116.817-.158a.118.118 0 0 1 .031 0l.03.007.028.014a.15.15 0 0 1 .023.019.15.15 0 0 1 .023.019l.017.025a.19.19 0 0 1 .01.024l.006.03v.579Zm-.268-.411a.026.026 0 0 0 0-.015.082.082 0 0 0-.006-.016.033.033 0 0 0-.008-.013.12.12 0 0 0-.013-.01l-.012-.004a.026.026 0 0 0-.015-.005.046.046 0 0 0-.027 0c-.15.021-.338.059-.481.086l-.017.004a.135.135 0 0 0-.044.025.068.068 0 0 1-.008.01 4.546 4.546 0 0 1-.01.025v.374a.061.061 0 0 0-.002.014l.004.013.004.012.008.013a.08.08 0 0 0 .01.004.079.079 0 0 0 .011.004h.022c.146-.029.354-.066.497-.096.006 0 .011-.002.017-.004a.114.114 0 0 0 .044-.019l.01-.01a.052.052 0 0 0 .006-.012.114.114 0 0 0 .006-.015V4.37l.004-.351Zm-.97.44c0 .007 0 .014-.002.02a.407.407 0 0 1-.004.02l-.008.02-.012.017a.155.155 0 0 1-.03.029.216.216 0 0 0-.018.012l-.021.009-.808.249c-.006.002-.008.012-.008.02l.006.258c0 .009 0 .015-.008.017a14.3 14.3 0 0 0-.285.104l-.002-.164v-.73a.018.018 0 0 0 .002-.008.024.024 0 0 0 .004-.006.024.024 0 0 1 .004-.006.024.024 0 0 1 .007-.004c.324-.119.648-.243.972-.326l.037-.004a.172.172 0 0 1 .075.016c.01.004.021.01.031.019a.149.149 0 0 1 .042.041.51.51 0 0 1 .012.027l.006.03.009.34Zm-.27-.102v-.03a.221.221 0 0 1-.002-.032 1.793 1.793 0 0 1-.004-.031c-.002-.015-.018-.035-.035-.031a4.858 4.858 0 0 0-.45.145l-.148.056c-.008.002-.019.008-.019.019v.176c0 .007.008.009.015.007l.59-.192c.02-.006.054-.033.054-.056v-.03Z" clip-rule="evenodd"/>
    <path fill="#432918" fill-rule="evenodd" d="M4.948 4.48c-.008.003-.019.01-.019.018v-.046c0-.008.01-.014.019-.016a4.629 4.629 0 0 1 .596-.201c.019-.005.035.016.037.03l.004.044c-.002-.015-.02-.035-.039-.031l-.152.043-.15.05a6.437 6.437 0 0 0-.296.108Zm.907-.02v.009-.008Zm0 .009v.056a.118.118 0 0 1-.006.02.046.046 0 0 1-.008.02.072.072 0 0 1-.025.033.157.157 0 0 1-.017.014.082.082 0 0 1-.018.01.081.081 0 0 1-.019.01l-.808.248c-.006.002-.006.013-.006.019v-.046c0-.006 0-.017.008-.019l.806-.245a.081.081 0 0 0 .019-.01.081.081 0 0 0 .018-.01.157.157 0 0 0 .042-.048.046.046 0 0 0 .008-.019.118.118 0 0 0 .006-.02v-.013Zm-.903.691c0 .007 0 .015-.006.017-.05.015-.287.104-.287.104v-.046s.235-.09.287-.106c.006-.002.006-.008.006-.014v.045Zm1.86-1.183.01.012.005.015v.056c0-.002 0-.004-.002-.007a.026.026 0 0 0-.004-.014l-.008-.013a.082.082 0 0 0-.013-.01.052.052 0 0 0-.012-.006.2.2 0 0 0-.015-.004h-.027a11.616 11.616 0 0 0-.498.091.113.113 0 0 0-.015.006.03.03 0 0 0-.014.009.082.082 0 0 0-.013.01.02.02 0 0 0-.008.01.026.026 0 0 0-.006.01.026.026 0 0 0-.004.015.039.039 0 0 0-.002.013v-.05c0-.004 0-.008.002-.013a.02.02 0 0 1 .004-.012.052.052 0 0 1 .006-.012.02.02 0 0 1 .008-.01.082.082 0 0 1 .013-.011.135.135 0 0 1 .046-.019c.145-.027.332-.064.481-.085a.046.046 0 0 1 .042.002.053.053 0 0 0 .012.006.083.083 0 0 1 .013.01Zm.015.091V4.06v.008Zm.123.544a.164.164 0 0 0 .035-.016l.033-.025a.182.182 0 0 0 .027-.03l.021-.024a.167.167 0 0 0 .025-.059 1.8 1.8 0 0 0 .004-.03v.05l-.004.03a.245.245 0 0 1-.025.058l-.02.025a.519.519 0 0 1-.028.03.471.471 0 0 1-.068.041.197.197 0 0 1-.037.012c-.268.046-.54.096-.81.156-.032.006-.069-.02-.102-.058a.187.187 0 0 1-.019-.027.135.135 0 0 1-.016-.031.306.306 0 0 1-.017-.067v-.039l.004.033a.286.286 0 0 0 .027.062l.02.03a.15.15 0 0 0 .02.022l.024.017a.156.156 0 0 0 .027.01c.01.003.02.005.032.005.27-.06.542-.115.81-.16a.416.416 0 0 0 .037-.015Zm1.08-.802a.052.052 0 0 1 .012.007.082.082 0 0 1 .01.012.026.026 0 0 1 .005.015v.05a.026.026 0 0 0-.004-.015.083.083 0 0 0-.01-.012.046.046 0 0 0-.015-.007.026.026 0 0 0-.015 0l-.552.052-.004.004v-.05l.004-.002.552-.054a.034.034 0 0 1 .017 0Zm.284.256a.152.152 0 0 1-.033.066.248.248 0 0 1-.027.027 6.499 6.499 0 0 0-.008-.008l-.008-.008a.032.032 0 0 1-.009-.006.033.033 0 0 0-.008-.007.165.165 0 0 0 .091-.11.207.207 0 0 0 .007-.03v.039a.172.172 0 0 1-.005.037Zm.005-.094v.017-.017Zm.054.489v.045c0 .006-.01.006-.015.006l-.233.017a.412.412 0 0 0-.018-.087L8.09 4.4a1.024 1.024 0 0 0-.02-.04c-.038-.061-.088-.09-.127-.084l-.472.052V4.28l.472-.05c.041-.008.089.023.126.083l.021.04.017.043.012.042.006.045.233-.018c.004 0 .015 0 .015-.004Zm-.906.087c.001 0 .002 0 .002-.002.002 0 .002-.001.002-.002v.047l-.002.002-.002.003h-.002l-.233.03V4.58l.233-.03.002-.001Zm.004-.006v.002-.002Zm1.294-.723c-.012 0-.025.002-.025.016l.002-.043c0-.015.01-.021.023-.021.222-.006.553.004.777.01a.022.022 0 0 0 .012-.004.02.02 0 0 0 .01-.008.026.026 0 0 0 .007-.01.039.039 0 0 0 .002-.013v.048c0 .004 0 .008-.002.012a.101.101 0 0 1-.006.01.068.068 0 0 1-.01.009l-.013.004a12.134 12.134 0 0 0-.777-.01Zm-.027.016h.002-.002Zm-.243.194v-.046c.002.066.087.116.152.118.23.004.434 0 .656.015.017.002.031.01.031.027l-.002.045c0-.016-.014-.024-.029-.024-.222-.015-.426-.01-.656-.017-.065-.002-.152-.054-.152-.118Zm0-.048v.002-.002Zm.985.465a.16.16 0 0 0 .045-.03.148.148 0 0 0 .036-.04.195.195 0 0 0 .018-.05v.045a.232.232 0 0 1-.018.052.2.2 0 0 1-.036.042.189.189 0 0 1-.045.027.139.139 0 0 1-.054.01 6.524 6.524 0 0 0-.233-.008 6.69 6.69 0 0 0-.47 0 6.524 6.524 0 0 0-.232.008v-.046a13.108 13.108 0 0 1 .467-.014 6.69 6.69 0 0 1 .468.014.22.22 0 0 0 .054-.01Zm1.343-.555v.046c0 .006-.01.01-.018.01-.262-.029-.526-.076-.788-.097-.016-.002-.041.008-.041.025v-.048c0-.017.025-.025.041-.023.262.021.526.069.788.098.008 0 .018-.004.018-.01Zm0-.002v.002-.002Zm-.018.738c0 .006-.01.01-.015.01a14.288 14.288 0 0 0-.939-.106.137.137 0 0 1-.045-.02.16.16 0 0 1-.038-.032.154.154 0 0 1-.025-.043.187.187 0 0 1-.01-.05V4.34a.183.183 0 0 0 .01.048.124.124 0 0 0 .025.043.14.14 0 0 0 .038.034.163.163 0 0 0 .045.018c.303.03.603.056.941.108.006 0 .015-.004.017-.008l-.004.044Zm.882-.162c-.182-.04-.363-.077-.548-.11-.006 0-.008 0-.008.006v-.046c0-.008.002-.008.008-.006.185.031.366.068.548.108.004 0 .027.004.027.017-.002.018-.002.027-.002.045 0-.012-.02-.014-.025-.014Zm-.567.176c.002 0 .003 0 .004-.002.002 0 .003 0 .005-.002l.002-.004-.002.035c0 .006-.01.013-.017.01-.065-.012-.145-.02-.222-.035v-.04c.077.015.162.026.224.038h.006Zm.831.164-.002.044c0 .008-.004.01-.023.006-.069-.014-.133-.033-.206-.05-.002 0-.004 0-.006-.002L11.71 4.8a.016.016 0 0 1-.002-.006l-.002-.006V4.74l.002.006c0 .002 0 .003.002.004a.022.022 0 0 0 .004.007l.006.002c.073.016.142.035.21.05.015.004.021.002.021-.005Zm0-.002v.002-.002Zm1.273-.311-.002.04c0 .018-.01.02-.031.014a8.871 8.871 0 0 0-.798-.258c-.004 0-.012.002-.012.006V4.25c0-.004.008-.007.01-.007.283.073.59.18.804.258.019.006.03.006.03-.008Zm-.008.371-.002.042c0 .004-.002.01-.007.008a10.51 10.51 0 0 0-.828-.27h-.006c-.002 0-.002.001-.002.002h-.005l.002-.043c0-.004.009-.006.01-.004.292.08.58.176.834.27.002 0 .002-.002.004-.005Zm0-.006v.006-.006Zm-.006.343-.003.04c0 .003 0 .016-.014.01a10.202 10.202 0 0 0-.266-.096 10.09 10.09 0 0 0-.806-.251c-.006 0-.008-.008-.008-.015v-.045c0 .006.002.014.008.014.092.025.182.05.272.077a20.154 20.154 0 0 1 .536.175c.089.031.177.064.266.097.01.004.014 0 .014-.006Zm0-.002V5.2v-.002Z" clip-rule="evenodd"/>
    <path fill-rule="evenodd" d="m13.19 4.407-.001.072-.058-.022-.04-.015-.004-.002a11.444 11.444 0 0 0-.536-.175h-.004l-.069-.018-.072-.021-.063-.017v.173l.04.01.027.008.093.027c.103.03.205.06.306.094.101.031.201.064.299.1l.025.008.054.019v.022l-.002.154h-.005l-.051-.016-.036-.01a8.86 8.86 0 0 0-.668-.213l-.09-.025-.002.086-.002.08v.003l.037.012.071.02.069.02.054.018c.1.03.195.06.286.092.09.03.187.06.27.091l.008.002.009.004.014.006.031.01v.082c0 .014 0 .027-.002.041 0 .014 0 .027-.002.04h-.002l-.052-.017-.01-.004-.01-.004c-.167-.06-.333-.112-.482-.16-.15-.048-.33-.104-.468-.141v-.004c.003-.073.005-.212.007-.343.002-.13.006-.488.008-.499a11.735 11.735 0 0 1 .935.3l.006.002.033.012.05.017v.08Zm-1.256-.46h.002v.044l-.006.37-.006.334-.002.023v.052l-.052-.012-.031-.009-.036-.008-.051-.012v-.002l.002-.034V4.63c0-.019 0-.035.002-.054v-.108l.002-.06h-.002l-.069-.015-.027-.006-.31-.062a4.533 4.533 0 0 0-.2-.038l-.007-.002-.006-.002-.027-.004v.06l-.002.106-.002.06v.048l-.002.064h-.002c-.02-.002-.05-.008-.065-.01l-.044-.006-.024-.004a.27.27 0 0 0-.044-.009v-.002l.002-.106.004-.101c0-.023 0-.046.002-.071.002-.023.002-.048.002-.073.005-.085.007-.172.009-.249l.006-.197v-.04l.052.009.037.006.031.004.042.006v.164l-.002.096v.097l.012.003.05.008.048.01h.01l.01.002c.067.013.136.027.202.042.067.012.133.027.195.04l.025.006.027.004.031.006.042.01.002-.035v-.02a.825.825 0 0 0 .004-.084l.004-.083v-.008c0-.01-.002-.021 0-.031v-.088c.021.005.065.013.088.02l.068.016h.006Zm-1.136-.238v.089l-.002.077a30.667 30.667 0 0 0-.787-.102h-.012a6.068 6.068 0 0 1-.013.004l-.012.005a.1.1 0 0 0-.01.006l-.009.008a.08.08 0 0 1-.004.01.034.034 0 0 0-.002.01.02.02 0 0 0 0 .013v.455c0 .003 0 .005.002.006 0 .002 0 .003.002.005l.002.004.004.002.004.004c.002 0 .003 0 .004.002h.005c.11.01.218.025.334.04.114.014.222.024.33.039h.013l.054.008.072.01v.073l-.002.083-.062-.008c-.14-.02-.268-.033-.403-.048a20.07 20.07 0 0 0-.392-.037l-.02-.002h-.007a.034.034 0 0 0-.01-.002c-.004 0-.006 0-.01-.002l-.01-.002-.016-.005a.047.047 0 0 1-.015-.006.056.056 0 0 1-.014-.01.055.055 0 0 1-.015-.01.033.033 0 0 0-.006-.009.032.032 0 0 1-.006-.008.033.033 0 0 0-.006-.008.08.08 0 0 0-.005-.01.034.034 0 0 1-.002-.011.04.04 0 0 1-.002-.013.023.023 0 0 1-.002-.01v-.316s-.002-.255.002-.29a.114.114 0 0 1 .009-.03.096.096 0 0 1 .012-.027.15.15 0 0 1 .042-.041.128.128 0 0 1 .056-.033.147.147 0 0 1 .064-.009c.05.004.162.017.303.031.183.021.41.046.542.065Zm-2.49.577a.414.414 0 0 1 .027.077.33.33 0 0 1 .01.04l.005.041-.196.01a.456.456 0 0 0-.041-.122.346.346 0 0 0-.044-.079.16.16 0 0 0-.037-.031.13.13 0 0 0-.044-.017.18.18 0 0 0-.047-.006c-.084.01-.501.052-.501.054-.002.002 0 .268 0 .268l-.18.023V3.69s.803-.091.89-.085c.09.004.11.052.115.098l.008.074.004.075v.073c0 .025 0 .05-.002.075a.187.187 0 0 1-.013.04.29.29 0 0 1-.048.064.2.2 0 0 1-.033.022.403.403 0 0 1 .1.114.79.79 0 0 1 .027.046Zm-.216-.442a.02.02 0 0 0 0-.013.04.04 0 0 0-.002-.012.052.052 0 0 0-.006-.013l-.008-.008a.136.136 0 0 0-.03-.014.068.068 0 0 0-.016-.002h-.017l-.58.056v.257l.28-.025.277-.025c.007 0 .014 0 .021-.002a.245.245 0 0 0 .038-.018l.016-.013.013-.017a.118.118 0 0 0 .017-.056l-.003-.095Zm-1.044.004.004.575a.157.157 0 0 1-.015.054.16.16 0 0 1-.029.046.135.135 0 0 1-.041.037.204.204 0 0 1-.05.023c-.075.015-.733.144-.794.154-.058.012-.135-.062-.135-.127v-.569c0-.064.069-.114.127-.129.058-.014.752-.147.798-.157a.102.102 0 0 1 .045.002.11.11 0 0 1 .042.016.13.13 0 0 1 .048.075Zm-.183.154c0-.05-.021-.094-.096-.081-.095.016-.407.072-.51.093-.086.017-.12.048-.12.12V4.5c0 .052.034.09.088.081.054-.01.511-.097.563-.11a.122.122 0 0 0 .031-.012.214.214 0 0 0 .027-.023.091.091 0 0 0 .015-.031.075.075 0 0 0 .004-.036l-.002-.367Zm2.61-.065a.115.115 0 0 1 .015.007.033.033 0 0 1 .012.008.083.083 0 0 1 .013.01.037.037 0 0 1 .01.01.082.082 0 0 1 .01.013.199.199 0 0 1 .01.03l-.003.325a.041.041 0 0 1-.004.019.054.054 0 0 1-.009.014.055.055 0 0 1-.01.015.33.33 0 0 1-.027.02l-.017.01a.074.074 0 0 1-.018.005.068.068 0 0 1-.017.002l-.106-.002-.093-.004-.133-.006-.15-.002c-.056 0-.12.002-.189.004-.068 0-.158.004-.239.008l.005-.15c.05-.001.114-.005.172-.008.056-.002.118-.002.183-.002h.112l.11.002h.093l.108.003c.027 0 .042-.005.048-.015l.004-.012a.06.06 0 0 0 .002-.015.046.046 0 0 0 0-.027l.002-.042a.04.04 0 0 0 .003-.012v-.012a.04.04 0 0 0-.003-.013v-.014c-.004-.013-.014-.021-.035-.023a4.33 4.33 0 0 0-.235-.01c-.078-.003-.157-.003-.232-.003l-.11-.002c-.038 0-.077 0-.114-.002-.006 0-.012 0-.02-.002a.394.394 0 0 0-.018-.004l-.016-.008a25.699 25.699 0 0 0-.017-.009l-.013-.008a.082.082 0 0 1-.01-.013.052.052 0 0 1-.006-.012.046.046 0 0 1-.006-.015l.004-.344a.113.113 0 0 1 .006-.015.052.052 0 0 1 .006-.012.037.037 0 0 1 .01-.01 5.388 5.388 0 0 0 .028-.02l.016-.008a.074.074 0 0 1 .019-.006.069.069 0 0 1 .017-.002c.024 0 .257-.004.469 0l.16.002h.016c.09.002.15.006.24.01v.15c-.05 0-.12-.004-.177-.004h-.075l-.523-.002c-.023.002-.036.006-.04.016a.096.096 0 0 0-.002.02c0 .005 0 .01-.002.018v.091a.009.009 0 0 0 0 .008.009.009 0 0 0 0 .009l.002.006a3.21 3.21 0 0 0 .008.017c.002 0 .003 0 .005.002l.004.002h.002c.006.002.251 0 .297 0a7.768 7.768 0 0 1 .434.008.115.115 0 0 1 .014.006Zm-3.663.185.008.339v.006a.016.016 0 0 0-.002.006v.006c0 .002 0 .004-.002.007a.082.082 0 0 1-.004.01.08.08 0 0 1-.004.01 6.499 6.499 0 0 1-.035.037.052.052 0 0 1-.013.007.026.026 0 0 1-.01.006l-.84.262.007.287s-.212.076-.225.078v-.402c0-.148-.004-.42-.004-.428 0-.007.004-.009.017-.013.01-.004.268-.097.586-.205.093-.034.315-.1.359-.108l.029-.005.027.003a.119.119 0 0 1 .027.008.191.191 0 0 1 .025.01.096.096 0 0 1 .018.015.07.07 0 0 1 .017.018l.013.021a.165.165 0 0 1 .006.025Zm-.191.26a2.152 2.152 0 0 0-.009-.131.08.08 0 0 0-.01-.02 6.499 6.499 0 0 0-.017-.017.026.026 0 0 0-.01-.007l-.012-.004a.034.034 0 0 0-.01-.002h-.011s-.19.054-.29.09c-.1.033-.356.13-.356.13l.004.254.642-.208a.046.046 0 0 0 .014-.006.116.116 0 0 0 .015-.007.068.068 0 0 0 .01-.008.083.083 0 0 0 .013-.01.037.037 0 0 0 .01-.01.135.135 0 0 0 .015-.03.046.046 0 0 0 .002-.014Zm5.01 2.756h.001a5154784772.194 5154784772.194 0 0 1 .004.006l-.002 2.557a.748.748 0 0 1-.006.095 1.094 1.094 0 0 1-.064.285 1.814 1.814 0 0 1-.12.257 1.807 1.807 0 0 1-.364.436 1.814 1.814 0 0 1-.436.268 1.665 1.665 0 0 1-.663.141 1.752 1.752 0 0 1-1.35-.664 1.528 1.528 0 0 1-.322-.914l-.004-2.461c0-.006 0-.008.006-.008l3.315.002c.001-.002.003-.002.004 0Zm-.074.083v-.002c0-.002 0-.002-.002-.002 0-.002 0-.002-.002-.002H7.39c-.007 0-.007.002-.007.008l.004 2.365a1.435 1.435 0 0 0 .141.609 1.485 1.485 0 0 0 .382.498 1.73 1.73 0 0 0 .499.301 1.685 1.685 0 0 0 .573.11c.072 0 .144-.007.216-.018a1.552 1.552 0 0 0 .609-.218 1.472 1.472 0 0 0 .413-.353c.058-.07.11-.146.156-.224a1.476 1.476 0 0 0 .164-.428 1.06 1.06 0 0 0 .018-.185V7.22Zm-1.607.207v.341a.027.027 0 0 1-.008.02.033.033 0 0 1-.023.011.026.026 0 0 1-.021-.01c-.006-.006-.01-.013-.01-.02v-.342h-.056a.044.044 0 0 1-.023-.008.044.044 0 0 1-.009-.02c0-.009.005-.017.009-.023a.044.044 0 0 1 .023-.009h.176c.006 0 .015.004.02.009a.044.044 0 0 1 .01.022.044.044 0 0 1-.01.021.044.044 0 0 1-.02.008H8.95Zm.43.165v.018c0 .007 0 .013-.002.019l-.002.019-.002.02a.307.307 0 0 1-.01.034.135.135 0 0 1-.017.03.128.128 0 0 1-.021.028.152.152 0 0 1-.027.025l-.017.008a.146.146 0 0 1-.018.006.051.051 0 0 1-.02.004.137.137 0 0 1-.054-.002.124.124 0 0 1-.032-.016.103.103 0 0 1-.027-.023.15.15 0 0 1-.02-.03.164.164 0 0 1-.016-.035.34.34 0 0 1 .019-.27.127.127 0 0 1 .02-.027.09.09 0 0 1 .057-.03.137.137 0 0 1 .033-.005.22.22 0 0 1 .037.004c.013.004.025.01.036.017.01.007.018.015.027.025.008.01.014.02.018.033v.008c0 .005 0 .008-.002.01a.014.014 0 0 1-.006.007l-.008.004a.018.018 0 0 1-.008.002c-.005.002-.008.002-.01 0a.022.022 0 0 1-.01-.004l-.007-.008a.109.109 0 0 0-.01-.017.154.154 0 0 0-.017-.014.248.248 0 0 0-.02-.009.041.041 0 0 0-.018-.004.061.061 0 0 0-.023.004.279.279 0 0 0-.018.01.072.072 0 0 0-.015.015.146.146 0 0 0-.01.021l-.013.025-.008.029a1.132 1.132 0 0 0-.006.056v.03l.004.028a.655.655 0 0 0 .019.054.074.074 0 0 0 .012.023c.004.006.01.011.017.017a.114.114 0 0 0 .022.01.152.152 0 0 0 .025.002.165.165 0 0 0 .036-.016.107.107 0 0 0 .027-.03.092.092 0 0 0 .016-.035.201.201 0 0 0 .004-.04v-.02h-.068a.014.014 0 0 1-.013-.002.032.032 0 0 1-.008-.006.026.026 0 0 1-.006-.01.039.039 0 0 1-.002-.013c0-.01.004-.023.029-.023h.095c.032 0 .038.023.038.044Zm.932-.165v.339a.043.043 0 0 1-.008.023.031.031 0 0 1-.023.008.031.031 0 0 1-.023-.008.044.044 0 0 1-.008-.023v-.339h-.058a.044.044 0 0 1-.02-.008.031.031 0 0 1-.01-.023.03.03 0 0 1 .01-.02.044.044 0 0 1 .02-.009h.176c.009 0 .015.004.021.009a.03.03 0 0 1 .009.02.031.031 0 0 1-.009.023c-.006.004-.012.008-.02.008h-.057Zm-.228.312a.425.425 0 0 0 .006.006c0 .003 0 .005.002.006a.018.018 0 0 1 .002.009.016.016 0 0 1 .002.006c-.002.017-.012.027-.03.027-.004 0-.006 0-.01-.002 0 0-.003 0-.005-.002a.025.025 0 0 1-.007-.004.013.013 0 0 1-.006-.007l-.093-.128h-.058v.114a.02.02 0 0 1 0 .012.033.033 0 0 1-.009.013.026.026 0 0 1-.01.006.04.04 0 0 1-.025 0 .026.026 0 0 1-.01-.006.053.053 0 0 1-.007-.013.04.04 0 0 1-.002-.012v-.368c.002-.001.002-.003.002-.006.002-.001.002-.003.002-.006l.005-.004a.014.014 0 0 1 .006-.007l.006-.002.006-.002h.129a.248.248 0 0 1 .052.015.128.128 0 0 1 .023.014.107.107 0 0 1 .023.021.147.147 0 0 1 .027.052c.002.01.004.02.004.03a.087.087 0 0 1 0 .026.06.06 0 0 1-.006.027.075.075 0 0 1-.013.023.062.062 0 0 1-.017.02l-.012.013a.136.136 0 0 1-.046.025l-.008.004.077.1Zm-.135-.15a.07.07 0 0 0 .035-.004.076.076 0 0 0 .054-.045.105.105 0 0 0 .01-.036c0-.005 0-.01-.002-.016a.113.113 0 0 0-.006-.015.031.031 0 0 0-.008-.012.037.037 0 0 0-.01-.01.056.056 0 0 0-.015-.011.03.03 0 0 0-.015-.008 10.07 10.07 0 0 0-.016-.005.042.042 0 0 0-.019 0h-.073v.162h.065Zm-.193.165a.018.018 0 0 1 .002.008v.017l-.004.009a.024.024 0 0 1-.007.004.024.024 0 0 1-.006.004.016.016 0 0 1-.006.002.018.018 0 0 1-.008.002c-.005 0-.008 0-.01-.002l-.01-.004-.007-.008-.005-.009-.018-.062h-.164l-.019.065c-.004.018-.019.02-.035.02h-.006a.024.024 0 0 0-.007-.004l-.004-.004-.004-.004a.024.024 0 0 0-.004-.006.016.016 0 0 1-.002-.007v-.014l.116-.362a.046.046 0 0 1 .006-.014l.009-.013a.046.046 0 0 1 .014-.006.026.026 0 0 1 .015-.004c.004 0 .009.001.014.004a.052.052 0 0 1 .013.006l.008.013a.02.02 0 0 1 .008.012l.12.356Zm-.092-.086-.072-.234-.067.234h.14Zm-1.817-.068.013.02a.088.088 0 0 1 .008.026.075.075 0 0 1 0 .024.15.15 0 0 1-.008.048.145.145 0 0 1-.01.021.096.096 0 0 1-.015.019.128.128 0 0 1-.027.02.147.147 0 0 1-.096.023.099.099 0 0 1-.04-.004.153.153 0 0 1-.035-.012.12.12 0 0 1-.03-.023.126.126 0 0 1-.026-.03c-.002-.005-.004-.032.017-.039a.04.04 0 0 1 .012-.002.034.034 0 0 1 .021.009.033.033 0 0 1 .008.006c.006.005.011.01.017.012a.081.081 0 0 0 .019.01.12.12 0 0 0 .041.009h.021a.148.148 0 0 0 .019-.006.074.074 0 0 0 .018-.007l.017-.012a.048.048 0 0 0 .008-.012.046.046 0 0 0 .007-.015v-.015a.037.037 0 0 0-.005-.016.084.084 0 0 0-.018-.02.129.129 0 0 0-.023-.015.064.064 0 0 0-.025-.01.206.206 0 0 0-.03-.003.117.117 0 0 1-.084-.035.061.061 0 0 1-.017-.021.339.339 0 0 1-.012-.023.085.085 0 0 1-.004-.027.164.164 0 0 1-.003-.027.11.11 0 0 1 .007-.023.115.115 0 0 1 .025-.041.061.061 0 0 1 .02-.017.137.137 0 0 1 .044-.02.722.722 0 0 1 .023-.005.075.075 0 0 1 .025 0c.089 0 .12.054.12.075 0 .017-.031.04-.048.019a.155.155 0 0 0-.016-.015.081.081 0 0 0-.019-.01.065.065 0 0 0-.02-.009.052.052 0 0 0-.021 0 .075.075 0 0 0-.025 0 .114.114 0 0 0-.023.01.094.094 0 0 0-.017.017.037.037 0 0 0-.01.021.063.063 0 0 0 0 .023.066.066 0 0 0 .008.02.05.05 0 0 0 .017.015.065.065 0 0 0 .02.009c.012 0 .023.001.036.004a.146.146 0 0 1 .033.008.163.163 0 0 1 .033.013.215.215 0 0 1 .031.014.12.12 0 0 1 .02.019Zm.2-.17v.34a.031.031 0 0 1-.009.023.044.044 0 0 1-.023.008c-.008 0-.014-.004-.02-.008a.033.033 0 0 1-.01-.023v-.34h-.057c-.008 0-.017-.003-.02-.009-.007-.006-.011-.014-.011-.02 0-.009.004-.017.01-.023a.032.032 0 0 1 .021-.009h.177c.008 0 .016.004.02.009.007.006.01.014.01.022a.028.028 0 0 1-.01.021c-.004.006-.012.009-.02.009h-.059ZM5.55 5.877a.544.544 0 0 0-.027.185c0 .03.002.062.006.093l.135-.05a5.245 5.245 0 0 1 .274-.085c.046-.013.093-.026.14-.037.006-.035-.005-.18 0-.218a.459.459 0 0 1 .14-.334.417.417 0 0 1 .155-.1.666.666 0 0 1 .114-.031.456.456 0 0 1 .06-.004.164.164 0 0 1 .079.006l.025.008a.506.506 0 0 1-.052.035.765.765 0 0 0-.206.193.69.69 0 0 0-.047.082l-.025.07a1.333 1.333 0 0 0-.02.07.622.622 0 0 0-.017.145c.001.001.278-.07.518-.113a.845.845 0 0 1 .04-.206c.011-.033.023-.066.037-.1a.538.538 0 0 1 .127-.183.53.53 0 0 1 .21-.115.486.486 0 0 1 .118-.015c.127.004.162.03.187.054l-.012.008a.052.052 0 0 0-.013.007.052.052 0 0 0-.012.006.525.525 0 0 0-.183.081.583.583 0 0 0-.14.12.57.57 0 0 0-.047.08.624.624 0 0 0-.083.259 3.032 3.032 0 0 1 .224-.009h.114l.113.005a.739.739 0 0 1 .054-.104.77.77 0 0 1 .074-.092.667.667 0 0 1 .191-.133.518.518 0 0 1 .127-.027.965.965 0 0 1 .064-.002.945.945 0 0 1 .11.015.22.22 0 0 1 .044.02.187.187 0 0 1 .06.075.734.734 0 0 0-.166.007.696.696 0 0 0-.056.006.367.367 0 0 0-.172.073.445.445 0 0 0-.1.101.256.256 0 0 0-.023.032.182.182 0 0 0-.02.035.567.567 0 0 1 .164.033.945.945 0 0 1 .233.127.352.352 0 0 1 .1.162.3.3 0 0 1 .015.095l-.002-.002a.715.715 0 0 0-.176-.13.825.825 0 0 0-.204-.084 1.165 1.165 0 0 0-.133-.033 1.097 1.097 0 0 0-.135-.02 1.087 1.087 0 0 0-.272 0 5.45 5.45 0 0 0-.211.016 5.554 5.554 0 0 0-.424.068 5.425 5.425 0 0 0-.51.13c-.1.033-.2.068-.296.105a3.555 3.555 0 0 0-.289.125 4.102 4.102 0 0 0-.28.143c-.004.027.069.058.077.133a.14.14 0 0 1-.002.042.12.12 0 0 1-.035.069.176.176 0 0 1-.032.024.248.248 0 0 1-.018.008.407.407 0 0 1-.059.01.152.152 0 0 1-.072-.018l-.021-.012a16.416 16.416 0 0 1-.019-.02l-.018-.018a.255.255 0 0 1-.02-.02.227.227 0 0 1-.016-.02.462.462 0 0 1-.13.081.674.674 0 0 1-.05.015.148.148 0 0 1-.077-.015.14.14 0 0 1-.052-.06.222.222 0 0 1-.004-.043c0-.014.002-.029.006-.044a.204.204 0 0 1 .042-.075.214.214 0 0 1 .026-.022.263.263 0 0 1 .03-.021l.029-.017.033-.012a.291.291 0 0 1-.019-.025.285.285 0 0 1-.025-.058.206.206 0 0 1-.006-.031.124.124 0 0 1 .002-.04.187.187 0 0 1 .013-.04.176.176 0 0 1 .024-.03.159.159 0 0 1 .08-.038.112.112 0 0 1 .047-.002.184.184 0 0 1 .048.01.181.181 0 0 1 .04.027.449.449 0 0 1 .02.027l.017.03.014.03c.004.01.008.02.01.032.055-.031.225-.075.219-.106a.823.823 0 0 1-.015-.1.802.802 0 0 1-.006-.1.8.8 0 0 1 .002-.1.812.812 0 0 1 .01-.099.574.574 0 0 1 .183-.293.442.442 0 0 1 .12-.075.42.42 0 0 1 .138-.035c.064.002.072.006.072.01 0 .003 0 .015-.047.044a.68.68 0 0 0-.185.185.823.823 0 0 0-.042.077.73.73 0 0 0-.03.087Zm1.954.974a.624.624 0 0 0-.155.094.55.55 0 0 0-.063.064h-.124v.31a.832.832 0 0 0-.222-.05h-.046c-.017 0-.033 0-.048.002a.506.506 0 0 0-.091.008c-.075.01-.15.02-.223.033a4.133 4.133 0 0 0-.78.22 3.72 3.72 0 0 0-.258.119c-.042.02-.082.043-.122.066l-.102.052.01.017.02.025a.283.283 0 0 1 .026.06.28.28 0 0 1 .006.033.172.172 0 0 1-.004.037.112.112 0 0 1-.015.036.12.12 0 0 1-.052.052.135.135 0 0 1-.014.008.205.205 0 0 0-.015.004l-.016.004h-.017c-.01 0-.02 0-.031-.002a.157.157 0 0 1-.027-.01 53.902 53.902 0 0 0-.025-.017.15.15 0 0 1-.019-.023c-.008-.012-.045-.1-.058-.087a.239.239 0 0 1-.083.067.731.731 0 0 1-.05.018.368.368 0 0 1-.052.009l-.033-.002a.092.092 0 0 1-.029-.013.09.09 0 0 1-.025-.02.087.087 0 0 1-.019-.028.13.13 0 0 1-.016-.045.152.152 0 0 1 .025-.096.115.115 0 0 1 .035-.033.11.11 0 0 1 .03-.02.342.342 0 0 1 .028-.02.343.343 0 0 1 .067-.025l-.031-.043a.083.083 0 0 1-.01-.013l-.01-.012a8.977 8.977 0 0 0-.017-.027.115.115 0 0 1-.01-.023.722.722 0 0 0-.003-.023c0-.008 0-.016.002-.025a.078.078 0 0 1 .012-.041.056.056 0 0 1 .01-.015.135.135 0 0 1 .013-.014.109.109 0 0 1 .033-.017.407.407 0 0 1 .037-.01h.02c.01 0 .02.001.03.004l.03.01.027.019a.197.197 0 0 1 .02.025.337.337 0 0 1 .032.073.25.25 0 0 1 .006.027c.025-.01.166-.075.21-.096a2.385 2.385 0 0 1 .002-.2c.002-.033.007-.065.012-.097a1.23 1.23 0 0 1 .017-.1.411.411 0 0 1 .1-.162.314.314 0 0 1 .076-.056.346.346 0 0 1 .087-.037c.071-.015.088-.006.092-.004a.083.083 0 0 1-.013.01.137.137 0 0 0-.014.013l-.013.012a.654.654 0 0 0-.052.058.57.57 0 0 0-.058.11l-.018.06a.612.612 0 0 0-.017.146.63.63 0 0 0 .015.143c.07-.027.245-.093.321-.112a.798.798 0 0 1 .002-.1.81.81 0 0 1 .01-.1.962.962 0 0 1 .048-.191.368.368 0 0 1 .057-.095.306.306 0 0 1 .08-.077.433.433 0 0 1 .098-.05.372.372 0 0 1 .11-.016h.021a.404.404 0 0 1 .056.01.055.055 0 0 1-.014.01.335.335 0 0 1-.027.02.535.535 0 0 0-.112.11.533.533 0 0 0-.077.118.68.68 0 0 0-.064.212.683.683 0 0 0-.009.074l.06-.02a537.648 537.648 0 0 1 .123-.032.977.977 0 0 1 .062-.01c.048-.008.148-.031.148-.031l.01-.056a.496.496 0 0 1 .16-.337.478.478 0 0 1 .16-.101.553.553 0 0 1 .22-.036.184.184 0 0 1 .035.009.162.162 0 0 1 .033.012c.01.004.02.01.03.017l-.027.008a.574.574 0 0 0-.169.06.555.555 0 0 0-.139.116.79.79 0 0 0-.081.135l-.016.05a.154.154 0 0 1-.007.027l-.004.025a.164.164 0 0 0-.002.027.152.152 0 0 0-.002.025l.204-.014c.054-.003.186.024.197-.007a.506.506 0 0 1 .162-.251.48.48 0 0 1 .08-.058l.044-.017.046-.012a.645.645 0 0 1 .141-.006c.016.001.03.004.046.008.015.003.03.007.044.012a.55.55 0 0 1 .074.04l.009.008a1.728 1.728 0 0 1-.083.025.46.46 0 0 0-.088.03Zm-.34 1.113v.451a1.752 1.752 0 0 0-.146-.008 3.126 3.126 0 0 0-.598.089 3.039 3.039 0 0 0-.57.197 4.91 4.91 0 0 0-.125.056 3.22 3.22 0 0 0-.36.195.238.238 0 0 1 .073.056l.029.038a.194.194 0 0 1 .02.042c.026.087-.03.17-.147.174-.106.002-.133-.09-.164-.125-.01.005-.1.09-.128.106a.146.146 0 0 1-.042.017.118.118 0 0 1-.02.006c-.01 0-.017 0-.024.002a.129.129 0 0 1-.03-.004.088.088 0 0 1-.028-.008.079.079 0 0 1-.025-.017.107.107 0 0 1-.045-.068.099.099 0 0 1-.005-.027l.003-.03a.122.122 0 0 1 .012-.03.1.1 0 0 1 .017-.03.212.212 0 0 1 .025-.025.345.345 0 0 1 .051-.03.339.339 0 0 0 .044-.028l.02-.016c-.005-.03-.064-.077-.08-.119a.173.173 0 0 1-.006-.045.105.105 0 0 1 .006-.046.141.141 0 0 1 .019-.042.184.184 0 0 1 .03-.035.153.153 0 0 1 .038-.017.181.181 0 0 1 .04-.004c.013 0 .027.002.041.007a.182.182 0 0 1 .035.02c.06.036.092.144.1.154a5.32 5.32 0 0 0 .191-.129.91.91 0 0 1-.075-.189.842.842 0 0 1-.022-.201c.03-.208.245-.35.348-.3a.546.546 0 0 0-.1.152.581.581 0 0 0-.026.088.63.63 0 0 0-.01.089.606.606 0 0 0 .001.139.582.582 0 0 0 .044.13c.01.022.228-.09.312-.115a.621.621 0 0 1-.032-.11.668.668 0 0 1-.006-.233.816.816 0 0 1 .025-.112.454.454 0 0 1 .067-.096.456.456 0 0 1 .089-.073.453.453 0 0 1 .222-.06.547.547 0 0 0-.222.613c.046-.01.31-.098.343-.108a.653.653 0 0 1 .068-.339.65.65 0 0 1 .127-.17.448.448 0 0 1 .164-.1.546.546 0 0 1 .093-.025h.021a.077.077 0 0 0 .019.003.405.405 0 0 1 .04.008c0 .01 0 .01-.022.025l-.014.01a.91.91 0 0 0-.152.141.91.91 0 0 0-.066.08.47.47 0 0 0-.116.314l.002.01s.135-.026.24-.036c.104-.01.208-.012.208-.012l.013-.034.016-.033a.214.214 0 0 1 .015-.031.938.938 0 0 0 .019-.031l.024-.033a.633.633 0 0 1 .092-.088Zm4.37 1.948a.313.313 0 0 0-.063.027.31.31 0 0 0-.108.081.302.302 0 0 0-.04.054c-.082.127-.111.268-.064.273.034.002.09 0 .102 0h.044c.015 0 .03 0 .043.002a.48.48 0 0 1 .044.002c.014 0 .028 0 .044.002l.008-.002c.003 0 .005-.001.008-.003a.026.026 0 0 1 .006-.004l.007-.006a.033.033 0 0 0 .006-.008.034.034 0 0 1 .006-.008.086.086 0 0 1 .004-.01.033.033 0 0 0 .007-.01.898.898 0 0 1 .039-.1.935.935 0 0 1 .056-.094.689.689 0 0 1 .152-.156.569.569 0 0 1 .037-.023.198.198 0 0 1 .04-.017.453.453 0 0 1 .041-.01.222.222 0 0 1 .044-.004.295.295 0 0 1 .183.056.214.214 0 0 1 .047.046c.02.029-.097-.03-.278.158a.42.42 0 0 0-.04.045.389.389 0 0 0-.066.102.726.726 0 0 0-.027.056c-.002.004.006.017.012.019.084.025.23.058.304.089a.022.022 0 0 0 .012.004.042.042 0 0 0 .025-.008.33.33 0 0 1 .118-.133.487.487 0 0 1 .098-.062.43.43 0 0 1 .114-.031.27.27 0 0 1 .058-.003l.017.002c.168.021.179.104.189.117.008.012-.037.012-.058.016a.605.605 0 0 0-.166.069.508.508 0 0 0-.133.116c-.01.021.033.056.033.056a.39.39 0 0 1 .085.065.32.32 0 0 1 .09.187.342.342 0 0 1 0 .106c-.003.024 0 .037-.023.037a.083.083 0 0 1-.02-.01.154.154 0 0 1-.033-.025 1.854 1.854 0 0 0-.191-.154 13.47 13.47 0 0 0-.062-.042.954.954 0 0 0-.212-.108 1.108 1.108 0 0 0-.23-.064 1.094 1.094 0 0 0-.18-.027l-.092-.008a2.037 2.037 0 0 0-.297.006 3.373 3.373 0 0 0-.407.06 5.372 5.372 0 0 0-.2.05c-.047.014-.22.062-.37.112l-.093.03.06-.055a1.381 1.381 0 0 0 .144-.15.81.81 0 0 0 .043-.051l.042-.054.07-.017.306-.068a.067.067 0 0 0 .041-.025.056.056 0 0 0 .013-.019.087.087 0 0 0 .008-.025.535.535 0 0 1 .091-.247.367.367 0 0 1 .055-.069.37.37 0 0 1 .123-.125.36.36 0 0 1 .164-.058c.136-.01.192.038.17.048Zm-2.227 2.264a.235.235 0 0 1-.025-.04.185.185 0 0 1-.027-.089.147.147 0 0 1 .025-.083.175.175 0 0 1 .066-.058.266.266 0 0 1 .048-.012.272.272 0 0 1 .096.008.25.25 0 0 1 .043.02c.069.048.073.098.098.169h.002c0 .001 0 .002.002.002h.002c0 .002.001.002.002.002.059-.031.162-.077.233-.116l.037-.02s.017-.007.01-.028a.86.86 0 0 1-.035-.233.545.545 0 0 1 .025-.126.452.452 0 0 1 .059-.116c.108-.187.315-.17.294-.152a.725.725 0 0 0-.09.137.599.599 0 0 0-.057.293c.001.015.004.03.008.046.002.027.007.06.023.068.017.01.081-.025.123-.04.052-.02.122-.028.17-.041.027-.008.019-.023.019-.03a.755.755 0 0 1 .03-.246.991.991 0 0 1 .105-.229.442.442 0 0 1 .3-.17c.042-.004.107.017.086.03a.233.233 0 0 1-.019.012.217.217 0 0 0-.018.012l-.02.015a.671.671 0 0 0-.183.201.456.456 0 0 0-.032.081.453.453 0 0 0-.02.085.61.61 0 0 0-.002.172 1.191 1.191 0 0 0 .277-.035.025.025 0 0 0 .01-.006.034.034 0 0 0 .01-.006.027.027 0 0 0 .005-.01.068.068 0 0 0 .004-.011c.034-.108.071-.31.183-.386a.31.31 0 0 1 .044-.03.319.319 0 0 1 .048-.024.561.561 0 0 1 .052-.015.21.21 0 0 1 .051-.006c.052-.004.191.04.16.054a.794.794 0 0 0-.118.07.564.564 0 0 0-.054.044.527.527 0 0 0-.077.098.49.49 0 0 0-.04.1.535.535 0 0 0-.01.051c-.008.042.036.052.036.052a156.875 156.875 0 0 1 .114.01l.058.009a.95.95 0 0 1 .056.01c.023.005.04-.027.044-.035a.393.393 0 0 1 .058-.077.444.444 0 0 1 .152-.123.284.284 0 0 1 .047-.016.492.492 0 0 1 .048-.006c.141 0 .212.102.191.108a.6.6 0 0 0-.24.133.725.725 0 0 0-.063.066c-.004.007-.017.013.004.031a.732.732 0 0 1 .206.297.71.71 0 0 1 .027.119c0 .012.008.07-.01.079a1.267 1.267 0 0 0-.071-.077 1.2 1.2 0 0 0-.241-.2 1.25 1.25 0 0 0-.253-.094 1.111 1.111 0 0 0-.134-.02 2.167 2.167 0 0 0-.785.093 3.065 3.065 0 0 0-.51.208 4.45 4.45 0 0 0-.163.09l.025.02a.334.334 0 0 1 .021.023l.017.025.012.03a.164.164 0 0 1-.012.15.13.13 0 0 1-.036.038.154.154 0 0 1-.029.017.114.114 0 0 1-.03.008.089.089 0 0 1-.034.002.335.335 0 0 1-.031-.006c-.102-.014-.129-.118-.141-.152a.214.214 0 0 1-.03.048.09.09 0 0 1-.02.019.127.127 0 0 1-.023.014.144.144 0 0 1-.118.032.144.144 0 0 1-.102-.069.144.144 0 0 1-.025-.048.142.142 0 0 1-.002-.054.122.122 0 0 1 .014-.05.147.147 0 0 1 .036-.041l.05-.044a.377.377 0 0 1-.036-.03Zm.388 1.29-.012-.025-.012-.025a.354.354 0 0 1-.01-.027.675.675 0 0 1-.03-.083.454.454 0 0 1-.015-.12.255.255 0 0 1 .033-.13.252.252 0 0 1 .046-.057.222.222 0 0 1 .135-.056.182.182 0 0 0-.03.041.16.16 0 0 0-.021.05.216.216 0 0 0-.009.104.363.363 0 0 0 .009.054.73.73 0 0 0 .031.1.313.313 0 0 0 .025.047c.008.01.012.006.016.004a1.31 1.31 0 0 1 .13-.064 1.138 1.138 0 0 0 .049-.023v-.006a.466.466 0 0 1-.017-.204.513.513 0 0 1 .108-.26.367.367 0 0 1 .208-.111c.004 0 .07.002.075.027a.312.312 0 0 0-.052.041.74.74 0 0 0-.085.104.358.358 0 0 0-.058.189.525.525 0 0 0 .008.133c0 .002.008.006.012.004.067-.017.131-.033.2-.048l.004-.002.004-.004.002-.004.002-.004a.66.66 0 0 1 .183-.324.804.804 0 0 1 .056-.04.833.833 0 0 1 .06-.03.612.612 0 0 1 .133-.034c.118-.004.135.037.148.054.008.01-.025-.004-.082.019a.459.459 0 0 0-.095.062.363.363 0 0 0-.081.079.322.322 0 0 0-.073.135.623.623 0 0 0-.01.05c0 .004.002.014.004.014l.052.008a.63.63 0 0 1 .1.025.668.668 0 0 1 .05.015h.006c.001 0 .002 0 .002-.002.001 0 .003 0 .004-.002l.03-.052a.648.648 0 0 1 .161-.177.413.413 0 0 1 .104-.042.252.252 0 0 1 .125.005.296.296 0 0 1 .06.029c.01.008.047.037.035.044a.487.487 0 0 0-.112.05.337.337 0 0 0-.05.037.268.268 0 0 0-.046.043c-.079.094-.083.119-.087.14-.004.02-.004.03.02.045.128.083.142.152.148.198.009.047-.022.118-.062.066a.492.492 0 0 0-.044-.05.482.482 0 0 0-.168-.1 1.673 1.673 0 0 0-.09-.03 2.178 2.178 0 0 0-.09-.023 1.143 1.143 0 0 0-.364-.005.924.924 0 0 0-.168.044 1.5 1.5 0 0 0-.216.085.924.924 0 0 0-.104.056 1.633 1.633 0 0 0-.18.129.413.413 0 0 0-.057.046.48.48 0 0 0-.027.025c-.016.014.01.025.023.03.148.065.15.163.112.206a.13.13 0 0 1-.027.021.101.101 0 0 1-.033.01.132.132 0 0 1-.033 0 .12.12 0 0 1-.031-.012c-.113-.07-.092-.133-.14-.118-.033.01-.068.093-.093.122a.109.109 0 0 1-.033.03.163.163 0 0 1-.042.014.153.153 0 0 1-.043-.002.117.117 0 0 1-.088-.102.121.121 0 0 1 .023-.093.247.247 0 0 1 .021-.02.234.234 0 0 1 .02-.018.298.298 0 0 1 .046-.035c-.006-.004-.08-.052-.11-.077a.127.127 0 0 1-.027-.042.14.14 0 0 1-.008-.047.146.146 0 0 1 .013-.05.106.106 0 0 1 .03-.04.133.133 0 0 1 .098-.023.11.11 0 0 1 .048.02c.015.008.028.02.04.035.008.014.052.07.056.076.004.005.01.005.014-.002a3.895 3.895 0 0 1 .143-.11v-.004c.002 0 .002 0 0-.002v-.004Zm.675-4.1-.012.013a.133.133 0 0 1-.014.008.031.031 0 0 1-.015.008.196.196 0 0 1-.031.01.05.05 0 0 0-.017.003h-.017a.046.046 0 0 0-.014-.002c-.041-.01-.066-.025-.108-.038a.196.196 0 0 0-.014-.004.078.078 0 0 0-.02-.002.034.034 0 0 0-.016 0c-.005 0-.01 0-.016.002a.047.047 0 0 0-.015.006.055.055 0 0 0-.014.01.083.083 0 0 0-.013.011.058.058 0 0 0-.01.015.014.014 0 0 0-.007.006l-.004.008a.018.018 0 0 0-.002.008.018.018 0 0 0-.002.009c-.004.031.013.064.002.095l-.008.03a.209.209 0 0 1-.01.03 36.278 36.278 0 0 0-.023.056l-.013.021a.19.19 0 0 1-.014.021.19.19 0 0 1-.015.02.188.188 0 0 1-.014.022c-.021.027-.046.035-.06.066l-.005.008a.024.024 0 0 0-.004.007l-.004.008a.502.502 0 0 0-.027.062.22.22 0 0 0-.008.06.245.245 0 0 0 .014.055l.013.025a.233.233 0 0 0 .014.024l.077.117a.085.085 0 0 0 .004.01c0 .004 0 .008.002.01v.01c0 .005 0 .008-.002.011 0 .004 0 .008-.002.01a.08.08 0 0 1-.004.011.033.033 0 0 1-.006.008.415.415 0 0 0-.216.268l-.002.006v.003l-.003.006-.002.006-.002.004a2.793 2.793 0 0 0-.025.023.188.188 0 0 1-.048.025.084.084 0 0 1-.026.004l-.081.023a.024.024 0 0 0-.007.004c-.002 0-.004 0-.006.002a.024.024 0 0 1-.006.004.024.024 0 0 1-.004.006l-.004.013a.039.039 0 0 0-.002.012l.004.013a.026.026 0 0 0 .006.01.032.032 0 0 1 .006.009l.004.008a.08.08 0 0 1 .007.019v.006l-.002.006-.003.004-.002.004-.004.005c-.001 0-.003 0-.004.002 0 .001 0 .002-.002.002l-.004.004a.509.509 0 0 1-.027.012l-.025.013a.164.164 0 0 0-.027.01.216.216 0 0 1-.03.006c-.024.007-.04 0-.034-.029l.012-.037a.485.485 0 0 1 .01-.035l.013-.038a.269.269 0 0 1 .014-.035l.013-.02a.242.242 0 0 1 .016-.02l.017-.016a.186.186 0 0 1 .02-.015l.026-.02.025-.021a.823.823 0 0 1 .054-.038.096.096 0 0 0 .018-.014.072.072 0 0 0 .015-.015.155.155 0 0 0 .014-.016l.013-.017a.298.298 0 0 1 .023-.035.298.298 0 0 1 .023-.036.478.478 0 0 0 .022-.033.348.348 0 0 1 .027-.035.133.133 0 0 0 .009-.015.2.2 0 0 0 .004-.014.068.068 0 0 0 0-.033.115.115 0 0 0-.008-.03.167.167 0 0 0-.015-.027.074.074 0 0 0-.02-.02.105.105 0 0 0-.028-.017.356.356 0 0 1-.041-.017.267.267 0 0 1-.069-.033l-.029-.025a.27.27 0 0 1-.025-.029.014.014 0 0 0-.006-.006.014.014 0 0 0-.006-.006 3.215 3.215 0 0 0-.009-.004.034.034 0 0 0-.01-.002c-.031 0-.04.043-.042.068v.079a.15.15 0 0 1 .003.025.035.035 0 0 1 .002.01.018.018 0 0 1 .002.009v.01l-.002.008-.002.007-.005.004a.022.022 0 0 0-.006.004l-.006.002a.656.656 0 0 0-.073.03 1.054 1.054 0 0 0-.226.125.092.092 0 0 0-.006.01.026.026 0 0 0-.007.01l-.008.012a.09.09 0 0 1-.08.046.112.112 0 0 1-.032-.005.126.126 0 0 0-.02-.006h-.011c-.003 0-.006 0-.008.002l-.007.002-.008.005a.024.024 0 0 1-.006.004l-.004.004a1.634 1.634 0 0 0-.01.01v.002c-.002 0-.003.001-.003.002l-.002.002v.016l.002.002v.002l.01.03a.026.026 0 0 1 .005.014.024.024 0 0 1-.002.014.034.034 0 0 1-.009.013.027.027 0 0 1-.012.006l-.025.008-.025.009a.162.162 0 0 1-.025.006l-.025.004c-.02.004-.037-.004-.033-.027a.209.209 0 0 1 .006-.031l.008-.03.009-.028.012-.03a.08.08 0 0 1 .004-.01.033.033 0 0 1 .007-.008.032.032 0 0 1 .008-.006.033.033 0 0 1 .008-.007.23.23 0 0 0 .048-.03.25.25 0 0 0 .02-.02.09.09 0 0 0 .022-.018.096.096 0 0 1 .018-.015.144.144 0 0 1 .021-.01.064.064 0 0 1 .023-.008.298.298 0 0 0 .123-.033.278.278 0 0 0 .028-.021.61.61 0 0 0 .088-.067l.025-.025a.203.203 0 0 0 .029-.054.18.18 0 0 0 .01-.06.204.204 0 0 0-.042-.114l-.01-.019c-.008-.014-.014-.035-.023-.052a.026.026 0 0 1-.006-.01.046.046 0 0 1-.006-.015l-.004-.012a.04.04 0 0 1-.002-.013c0-.035.012-.066.014-.101v-.005s0-.002-.002-.002l-.002-.004c-.001 0-.003 0-.004-.002l-.017-.004-.016-.004-.017-.004-.019-.002a1.045 1.045 0 0 1-.137.008.603.603 0 0 1-.07 0 18.795 18.795 0 0 1-.069-.004.569.569 0 0 1-.052-.019.731.731 0 0 1-.05-.019.79.79 0 0 1-.093-.052c-.027-.016-.042-.035-.069-.051-.006-.005-.008-.003-.014.004a.383.383 0 0 1-.052.029.28.28 0 0 1-.116.033.439.439 0 0 1-.06 0l-.038-.008-.037-.009a.264.264 0 0 1-.036-.01l-.037-.012c-.035-.013-.094-.036-.129-.007-.014.013-.01.03-.01.046a.34.34 0 0 1 .002.037v.04a.34.34 0 0 1-.009.075v.012a.459.459 0 0 0 .003.002v.002h.002v.002c.001.002.002.002.004.002a.024.024 0 0 0 .006.005c.001 0 .003 0 .004.002.002 0 .003 0 .004.002l.004.002c.015.004.02.01.025.029a.024.024 0 0 1 .005.006c0 .003 0 .006.002.008 0 .003 0 .006.002.009v.006a.018.018 0 0 1 .002.008v.009c0 .002 0 .005-.002.008v.006l-.004.02a.037.037 0 0 0-.005.017v.017l.002.017.005.016.004.009a.014.014 0 0 0 .006.006.024.024 0 0 0 .004.006.032.032 0 0 0 .008.006h.003v.002h.022l.002-.002h.003l.002-.002.004-.002.004-.002.004-.002h.006c.002 0 .002 0 .002.002h.002c.005 0 .008.001.01.004a.068.068 0 0 1 .011.009.051.051 0 0 1 .006.012.017.017 0 0 1 .005.013l-.002.027c0 .01-.002.019-.005.028a.248.248 0 0 1-.006.027.155.155 0 0 0-.01.027.65.65 0 0 1-.017.015.039.039 0 0 1-.012.002c-.003 0-.007 0-.01-.002l-.009-.004-.02-.013-.017-.012a2.6 2.6 0 0 0-.033-.033l-.009-.013-.008-.012a.21.21 0 0 0-.004-.015.068.068 0 0 1-.002-.016c0-.005-.001-.008-.003-.01 0-.005 0-.008-.002-.011a.083.083 0 0 0-.004-.01.032.032 0 0 1-.006-.009l-.004-.004c-.002 0-.003 0-.004-.002-.002 0-.003 0-.004-.002h-.005a.08.08 0 0 0-.01-.004l-.008-.004-.009-.009a.033.033 0 0 1-.008-.006.231.231 0 0 1-.025-.052.205.205 0 0 1 0-.058.793.793 0 0 0-.004-.239.469.469 0 0 0-.023-.093v-.013c0-.004 0-.009.002-.014 0-.004 0-.009.002-.013l.009-.02c0-.002 0-.003.002-.003V9.45l.002-.002a.024.024 0 0 1 .004-.006l.004-.004a.024.024 0 0 1 .006-.004l.007-.002h.014c.02 0 .038-.002.056-.005a.696.696 0 0 0 .183-.035c.003 0 .005 0 .008-.002h.009a.286.286 0 0 0 .035.002c.014 0 .029-.014.012-.025a.037.037 0 0 1-.01-.01.083.083 0 0 1-.013-.01.068.068 0 0 0-.008-.011.083.083 0 0 1-.01-.012.014.014 0 0 0-.006-.007.024.024 0 0 0-.007-.004l-.006-.002c-.003 0-.005 0-.008.002h-.002v.002h-.002l-.005.002a.036.036 0 0 1-.018.01.044.044 0 0 1-.023.003.049.049 0 0 1-.02-.01.057.057 0 0 1-.015-.017.339.339 0 0 1-.013-.023l-.012-.025a.655.655 0 0 1-.017-.052l-.008-.033-.013-.03a.1.1 0 0 0-.016-.028.188.188 0 0 0-.019-.027.07.07 0 0 0-.019-.017.191.191 0 0 0-.025-.01.078.078 0 0 0-.025-.004.075.075 0 0 0-.024 0 .074.074 0 0 0-.02.006.081.081 0 0 0-.032.025 2.907 2.907 0 0 0-.05.069l-.004.008-.005.008c0 .003 0 .005-.002.008v.012c.002.001.002.002.002.004v.004l.003.004a.046.046 0 0 1 .004.02.053.053 0 0 1 0 .022.248.248 0 0 1-.009.018.155.155 0 0 1-.014.017 1.441 1.441 0 0 1-.054.044.024.024 0 0 0-.006.014.018.018 0 0 0-.002.008l-.003.009v.006a.019.019 0 0 0-.002.008c0 .003 0 .005-.002.006v.007a.016.016 0 0 0-.002.006v.01l.002.002v.005a.016.016 0 0 1 .002.006l.005.004a.024.024 0 0 0 .004.006l.004.004h.002l.002.002.002.002v.003h.002a2061270796.626 2061270796.626 0 0 0 .004.006v.002l.004.008v.008a.08.08 0 0 1-.004.01.024.024 0 0 1-.004.007l-.004.004-.002.002c-.001.002-.003.002-.004.002 0 .002 0 .003-.002.005a.129.129 0 0 1-.023.014.129.129 0 0 1-.023.015 28.93 28.93 0 0 0-.05.022l-.002.003h-.004l-.002.002h-.004c-.019 0-.025-.015-.025-.032a1.068 1.068 0 0 1 0-.085.082.082 0 0 1 .006-.016.032.032 0 0 1 .008-.017.065.065 0 0 1 .013-.017.107.107 0 0 0 .014-.024.096.096 0 0 0 .013-.027.217.217 0 0 0 .008-.059v-.018l.004-.017a.081.081 0 0 1 .006-.017.136.136 0 0 0 .009-.014.037.037 0 0 0 .01-.01.104.104 0 0 1 .006-.01.052.052 0 0 0 .007-.013.082.082 0 0 0 .01-.02l.004-.01c.002 0 .004-.003.006-.006l.005-.008a1.441 1.441 0 0 0 .108-.141c.01-.017.022-.033.033-.05.027-.044.077-.095.116-.037l.008.012.01.01a.037.037 0 0 0 .011.01.037.037 0 0 0 .01.011.617.617 0 0 1 .063.042l.033.02a.403.403 0 0 0 .033.02c.046.026.054-.022.063-.061v-.002a6.068 6.068 0 0 1 .008-.023l.004-.012a.473.473 0 0 1 .052-.075l.027-.03.03-.028c.02-.019.051-.038.072-.056.01-.009.012-.009.016-.021a.525.525 0 0 1 .017-.037c.004-.015.006-.027.012-.038a.053.053 0 0 1 .007-.012.053.053 0 0 1 .006-.013l.004-.012.004-.013v-.008l-.002-.002c0-.001 0-.003-.002-.004 0-.002 0-.003-.002-.004l-.002-.002-.004-.003a.026.026 0 0 0-.01-.006l-.013-.004a.06.06 0 0 0-.015-.002h-.033a.394.394 0 0 1-.037.008.081.081 0 0 0-.017.007.032.032 0 0 0-.008.006.032.032 0 0 0-.008.006.014.014 0 0 0-.007.006l-.004.009-.004.008a.033.033 0 0 1-.006.008l-.004.008-.007.007a.055.055 0 0 1-.014.01.041.041 0 0 1-.019.004c-.005 0-.01 0-.016-.002l-.017-.008c-.01-.008-.006-.023 0-.031l.006-.007a.024.024 0 0 1 .004-.006 3.215 3.215 0 0 0 .008-.015l.003-.001v-.015h-.002V8.55h-.002l-.005-.004h-.006c-.001-.002-.003-.002-.006 0h-.004a.492.492 0 0 0-.056.019.026.026 0 0 1-.015-.005.031.031 0 0 1-.012-.01.052.052 0 0 1-.007-.012v-.009l-.002-.006v-.006l.002-.009V8.5a.024.024 0 0 1 .005-.006.032.032 0 0 1 .008-.006.024.024 0 0 1 .006-.004c.01-.003.025-.009.023-.021v-.011l.002-.004v-.002l.002-.004.002-.002.004-.004c.002 0 .003 0 .005-.002 0-.002 0-.003.002-.004l.004-.003a.978.978 0 0 0 .12-.085 3.696 3.696 0 0 1 .054-.04H8.4l.008.005.006.002a.081.081 0 0 0 .017.006.051.051 0 0 0 .018.004.105.105 0 0 0 .04 0l.006-.002c.001 0 .004 0 .006-.002a.024.024 0 0 0 .004-.006l.005-.004v-.006l-.002-.002-.003-.002c0-.002 0-.003-.002-.005L8.5 8.288l-.006-.002-.004-.002-.03-.01a.016.016 0 0 0-.005-.002.024.024 0 0 1-.007-.004.016.016 0 0 0-.006-.003.024.024 0 0 1-.006-.004.032.032 0 0 1-.008-.006.024.024 0 0 1-.007-.014l.002-.009c.01-.056.073-.058.119-.052h.002a.097.097 0 0 1 .019-.002c.005 0 .01 0 .016-.002a.421.421 0 0 0 .019-.004l.016-.004c.03-.01.052-.033.081-.046a.81.81 0 0 1 .088-.04c.008-.003.016-.001.025-.006l.004-.002c.001 0 .003 0 .004-.002l.004-.004.004-.002a.329.329 0 0 1 .033-.044 16.416 16.416 0 0 0 .037-.04.51.51 0 0 1 .087-.037.966.966 0 0 1 .032-.008c.006-.002.023-.006.025.004 0 .009-.008.013-.02.021a.046.046 0 0 0-.015.006.082.082 0 0 0-.013.01.037.037 0 0 0-.01.011.083.083 0 0 0-.01.013.247.247 0 0 0-.015.04l-.004.02v.02l.004.013a.026.026 0 0 0 .006.01.068.068 0 0 0 .01.009.068.068 0 0 0 .011.008.404.404 0 0 0 .052.012.042.042 0 0 0 .019 0 .206.206 0 0 0 .056-.008.192.192 0 0 0 .025-.01.096.096 0 0 0 .027-.013.58.58 0 0 1 .033-.008l.033-.004a.15.15 0 0 1 .035 0c.012 0 .023.001.036.004a.15.15 0 0 1 .025.002l.025.004a.19.19 0 0 1 .025.01.188.188 0 0 1 .02.015c.013.009.01.019.007.019-.009.002-.015-.006-.023-.004-.006 0-.011 0-.017.002a.407.407 0 0 0-.054.012c-.029.013-.044.02-.056.046l-.004.008a.018.018 0 0 0-.002.009v.01c0 .003 0 .006.002.008.004.013.016.021.02.03l.005.016.008.015.008.016a.327.327 0 0 0 .017.021c.001 0 .003 0 .004.002l.004.002a94.723 94.723 0 0 0 .073.058l.033.031.033.032.009.012a.08.08 0 0 1 .004.01l.004.013.004.012c.002.007-.004.015-.008.013a1.626 1.626 0 0 1-.025-.02.024.024 0 0 0-.006-.005l-.007-.006a.018.018 0 0 0-.008-.002.066.066 0 0 0-.02-.009l-.021-.004a.14.14 0 0 0-.023-.002H9.33c-.012 0-.04.013-.025.019a.081.081 0 0 1 .019.01.097.097 0 0 1 .018.015c.006.004.01.009.015.014l.015.019a.221.221 0 0 1 .052.154c0 .002-.005.004-.007.002a.322.322 0 0 0-.023-.03.135.135 0 0 0-.014-.012.135.135 0 0 0-.015-.012.128.128 0 0 0-.023-.015.655.655 0 0 0-.054-.014.165.165 0 0 0-.027-.002c-.008.002-.029 0-.027.008a.328.328 0 0 1 .017.023.325.325 0 0 1 .031.047l.013.025.012.034a.28.28 0 0 1 .008.068.151.151 0 0 1 0 .035c-.002.003-.01.005-.012.003a.068.068 0 0 1-.008-.01l-.01-.011-.009-.009a.068.068 0 0 1-.01-.008.067.067 0 0 1-.01-.008l-.013-.008-.013-.009a.052.052 0 0 1-.012-.006.152.152 0 0 0-.025-.002.088.088 0 0 0-.027 0 .164.164 0 0 0-.069.029l-.016.017a26.02 26.02 0 0 0-.017.016l-.012.021a.307.307 0 0 0-.027.075.165.165 0 0 0-.002.027.267.267 0 0 0 0 .064.146.146 0 0 0 .008.033l.012.03a.11.11 0 0 0 .017.026.293.293 0 0 0 .048.042c.01.006.02.01.029.014a.453.453 0 0 0 .124.021.207.207 0 0 0 .042 0c.069.002.137-.006.208-.008a.29.29 0 0 1 .047-.004.3.3 0 0 1 .05 0h.05l.05.004a.557.557 0 0 1 .04.01l.037.013.037.016.033.021.03.021a.213.213 0 0 0 .026.023.214.214 0 0 0 .027.023l.025.025c.005.002.013-.003.017-.005a.384.384 0 0 0 .023-.025.363.363 0 0 0 .033-.06.215.215 0 0 0 .01-.03.265.265 0 0 0 .003-.034 1.784 1.784 0 0 1-.005-.031.24.24 0 0 0-.01-.03.099.099 0 0 0-.017-.028c-.022-.044-.056-.09-.083-.135a.34.34 0 0 1-.027-.036L9.882 8.9a121.347 121.347 0 0 1-.05-.075.088.088 0 0 1-.008-.027.154.154 0 0 1-.006-.027v-.027a.217.217 0 0 1 .006-.029.253.253 0 0 1 .009-.019l.012-.016a.156.156 0 0 1 .015-.017.081.081 0 0 1 .018-.01c.004-.004.01.002.009.01l-.005.013a.06.06 0 0 0-.002.014v.015l.002.012.009.02a.248.248 0 0 1 .008.02l.012.016.015.015c.006.004.025-.002.027-.01.01-.021.004-.055.012-.077l.009-.03.012-.029a.284.284 0 0 1 .015-.029.29.29 0 0 1 .019-.025l.041-.029a.491.491 0 0 1 .09-.047.297.297 0 0 1 .047-.021c.017-.01.027-.052.046-.046.018.006.008.05-.006.07-.021.032-.044.05-.065.08a.418.418 0 0 0-.06.089.428.428 0 0 0-.025.048.073.073 0 0 0-.006.018.068.068 0 0 0-.002.017v.019a.126.126 0 0 0 .006.014.033.033 0 0 0 .008.013.038.038 0 0 0 .01.01l.013.008c.01.007.025-.004.033-.012a.056.056 0 0 0 .015-.01l.012-.013a.136.136 0 0 0 .013-.014.32.32 0 0 1 .01-.015c.01-.019.004-.044.015-.062.004-.004.016-.004.018 0l.009.008a.026.026 0 0 1 .006.01.014.014 0 0 1 .004.01l.004.013v.028a.197.197 0 0 1-.006.027c0 .004-.01.015-.014.023l-.003.004a.016.016 0 0 0-.002.007l-.002.004a.027.027 0 0 0-.004.006c-.016.031-.037.056-.062.06-.004.002-.008.013-.004.017a.085.085 0 0 0 .01.018.155.155 0 0 0 .015.017.154.154 0 0 0 .014.017l.017.012a.245.245 0 0 0 .018.008.077.077 0 0 0 .02.002h.018a.433.433 0 0 0 .018-.004c.015-.004.025-.014.04-.018.006-.002.004.002.004.008a.034.034 0 0 0-.002.01v.01l-.004.013c0 .003 0 .006-.002.01a.08.08 0 0 1-.027.031.02.02 0 0 1-.01.009.146.146 0 0 1-.021.01.229.229 0 0 1-.02.009l-.02.004a.14.14 0 0 1-.023.002c-.012.004-.033.012-.029.027a.08.08 0 0 1 .004.01.08.08 0 0 0 .005.01.118.118 0 0 1 .006.011.098.098 0 0 1 .006.01l.008.009a.086.086 0 0 0 .01.004.014.014 0 0 0 .011.004.034.034 0 0 0 .01.002h.017c.006 0 .011 0 .017-.002a.136.136 0 0 0 .03-.015c.02-.012.03-.037.046-.053.005-.005.015 0 .015.004 0 .007 0 .014-.002.02l-.004.021a.214.214 0 0 1-.015.037.096.096 0 0 1-.014.02.096.096 0 0 1-.015.018 2.6 2.6 0 0 1-.016.017.093.093 0 0 1-.02.014c-.005.006-.016.015-.016.025a.08.08 0 0 0 .005.01c0 .005.002.009.004.013a.026.026 0 0 1 .006.01l.008.009a.02.02 0 0 0 .008.01.031.031 0 0 0 .009.006.052.052 0 0 0 .012.006l.013.005a.04.04 0 0 0 .012.002h.025l.013-.002c.006 0 .004.012-.002.014Zm-1.38-.73a1.206 1.206 0 0 0-.009-.215.216.216 0 0 0-.01-.052.201.201 0 0 0-.019-.047.305.305 0 0 0-.064-.081.08.08 0 0 0-.03-.02.134.134 0 0 0-.064-.008.205.205 0 0 0-.031.01c-.004.005-.008.01-.004.013.008.01.023.017.033.025l.006.007a.024.024 0 0 1 .004.006l.005.004a.024.024 0 0 0 .004.006c.004.01.012.02.016.031a.115.115 0 0 0 .007.015c.001.005.003.01.006.014l.004.017a18.183 18.183 0 0 1 .015.04c0 .01.003.018.006.026a.164.164 0 0 0 .006.025l.004.027c.004.03.002.059.004.088v.041c0 .01 0 .023-.002.033l-.002.05v.04c.002.035.006.06.023.06.004 0 .008 0 .01-.002h.01a.08.08 0 0 0 .011-.004.08.08 0 0 0 .01-.004.038.038 0 0 0 .017-.013.097.097 0 0 0 .015-.019l.008-.02a.69.69 0 0 0 .01-.093Zm-4.3 1.779a4.624 4.624 0 0 1-.085-.546 4.562 4.562 0 0 1-.02-.274h2.583v.043a1.47 1.47 0 0 0 .11.561 1.642 1.642 0 0 0 .305.484H4.757a4.445 4.445 0 0 1-.067-.268Zm4.154 2.723H6.078l-.119-.142a10.265 10.265 0 0 1-.224-.295 7.357 7.357 0 0 1-.407-.654h3.516v1.09Zm4.517-5.012h-2.577V7.17h2.594c-.007.322-.013.646-.017.957Zm.042-2.349H9.002V4.712a12.75 12.75 0 0 1 3.337.471c.12.036.239.074.358.113.119.038.236.08.353.122a15.215 15.215 0 0 1 .355.137h.002l-.004.222ZM8.42 7.381c.007-.007.013-.01.021-.01a.03.03 0 0 1 .023.01.027.027 0 0 1 .008.02v.216a.133.133 0 0 1 0 .034.137.137 0 0 1-.004.033l-.008.033a.214.214 0 0 1-.015.031.178.178 0 0 1-.05.042.115.115 0 0 1-.03.008.267.267 0 0 1-.065 0 .206.206 0 0 1-.031-.01.1.1 0 0 1-.03-.017.177.177 0 0 1-.022-.023.215.215 0 0 1-.025-.064.137.137 0 0 1-.004-.033.269.269 0 0 1-.002-.034v-.216c0-.008.004-.016.01-.02.006-.007.012-.01.02-.01.01 0 .017.003.024.01.006.004.008.012.008.02v.255a.407.407 0 0 1 .004.02.074.074 0 0 0 .006.018l.009.017.012.014.017.009a.037.037 0 0 0 .016.004.077.077 0 0 0 .019.002h.017a.074.074 0 0 0 .018-.006.136.136 0 0 1 .015-.009.136.136 0 0 0 .012-.014l.009-.017a.146.146 0 0 1 .006-.018.096.096 0 0 0 .002-.02v-.255c0-.008.004-.014.01-.02Zm.25.047v.339a.033.033 0 0 1-.01.023c-.005.006-.013.008-.022.008a.031.031 0 0 1-.022-.008.031.031 0 0 1-.009-.023v-.339H8.55c-.008 0-.014-.004-.02-.01-.007-.004-.009-.012-.009-.02 0-.009.002-.015.008-.021a.027.027 0 0 1 .021-.009h.177c.008 0 .016.002.02.009a.027.027 0 0 1 .009.02c0 .009-.002.017-.009.021a.026.026 0 0 1-.02.01H8.67Zm.94 3.799a.055.055 0 0 1 .013.03.06.06 0 0 1 0 .03.055.055 0 0 1-.013.03.06.06 0 0 1-.022.022c-.046.023-.115-.02-.144-.068-.004-.007-.02 0-.025.004-.029.064-.056.091-.093.085-.007 0-.014 0-.021-.002a.084.084 0 0 1-.019-.01.045.045 0 0 1-.023-.031.022.022 0 0 1-.004-.007.016.016 0 0 1-.002-.006l-.004-.008c0-.003 0-.005-.002-.007l.09-.016a.84.84 0 0 0 .085-.021 1.058 1.058 0 0 0 .17-.054l.014.029Z" clip-rule="evenodd"/>
  </g>
  <defs>
    <linearGradient id="b" x1="4.314" x2="13.617" y1="9.221" y2="9.221" gradientUnits="userSpaceOnUse">
      <stop stop-color="#E1BE78"/>
      <stop offset="1" stop-color="#E3AB36"/>
    </linearGradient>
    <linearGradient id="c" x1="3.619" x2="13.405" y1="5.337" y2="10.986" gradientUnits="userSpaceOnUse">
      <stop stop-color="#E1BE78"/>
      <stop offset=".3" stop-color="#FFFAD1"/>
      <stop offset=".8" stop-color="#C69632"/>
      <stop offset="1" stop-color="#FCDC99"/>
    </linearGradient>
    <linearGradient id="d" x1="4.659" x2="13.23" y1="4.388" y2="4.388" gradientUnits="userSpaceOnUse">
      <stop stop-color="#FFE3A8"/>
      <stop offset="1" stop-color="#D2A249"/>
    </linearGradient>
    <clipPath id="a">
      <path fill="#fff" d="M0 0h18v18H0z"/>
    </clipPath>
  </defs>
</svg>
