<svg xmlns="http://www.w3.org/2000/svg" viewBox="0 0 18 18">
  <g clip-path="url(#a)">
    <path fill="#D7282F" d="M0 0h18v18H0V0Z"/>
    <path fill="#fff" d="M13.139 5.203c-.71-.557-2.075-.62-3.496-.69-1.537-.077-3.42.228-3.785.288a.943.943 0 0 0-.652.48c-.106.393-.06.768.283.998.316.21 1.575.135 1.575.135.519-.039.212.385.212.385l-.414.729s-1.35 2.21-1.54 2.479a12.963 12.963 0 0 0-1.192 2.438c-.366 1.038.114 1.672.538 1.98.423.308.94-.615 1.094-.802.154-.186.986-1.754 1.153-2.025.167-.271-.114-.365 1.633-.442 1.747-.077 2.747-.518 3.669-1.267.922-.75 1.554-1.585 1.744-2.61.153-.802-.146-1.543-.827-2.076m-.916 2.44c-.385.365-1.42 1.384-2.785 1.787-1.365.403-1.172.269-1.172.269s-.308.057-.019-.403L9.839 6.7s.385-.613.801-.672c.417-.058 1.442-.058 1.73.404.287.463.228.845-.154 1.21"/>
  </g>
  <defs>
    <clipPath id="a">
      <path fill="#fff" d="M0 0h18v18H0z"/>
    </clipPath>
  </defs>
</svg>
