<svg xmlns="http://www.w3.org/2000/svg" viewBox="0 0 18 18">
  <g clip-path="url(#a)">
    <path fill="#fff" d="M0 0h18v18H0V0Z"/>
    <path fill="url(#b)" d="m4 6.217.488.36L6.943 8.39l2.824 2.085 2.012 1.486.86-.637v2.673l-.86.637L4 8.888v-2.67Zm3.557 1.34.036-.026a2.23 2.23 0 0 1 .206-.122 2.887 2.887 0 0 1 1.108-.316c.719-.06 1.395.071 2.01.468l.023.017.024-.018a1.93 1.93 0 0 0 .515-.512c.215-.326.304-.68.224-1.07-.076-.372-.284-.666-.564-.911a2.43 2.43 0 0 0-.523-.343 3.031 3.031 0 0 0-.93-.281 3.32 3.32 0 0 0-.96.006 2.848 2.848 0 0 0-1.291.529c-.493.366-.988.729-1.482 1.092-.066.05-.128.1-.2.152l1.804 1.335Zm4.407 3.253.038-.027c.19-.147.362-.318.51-.507.303-.39.48-.829.485-1.326.007-.787 0-1.575 0-2.36a.122.122 0 0 0-.005-.043c-.004-.006-.013-.003-.016.005a.628.628 0 0 1-.014.055c-.026.102-.045.207-.079.308-.162.476-.468.89-.875 1.185-.562.422-1.136.828-1.705 1.24l-.164.124 1.825 1.346Z"/>
  </g>
  <defs>
    <linearGradient id="b" x1=".901" x2="16.152" y1="12.037" y2="12.037" gradientUnits="userSpaceOnUse">
      <stop stop-color="#1D5EDC"/>
      <stop offset="1" stop-color="#060F76"/>
    </linearGradient>
    <clipPath id="a">
      <path fill="#fff" d="M0 0h18v18H0z"/>
    </clipPath>
  </defs>
</svg>
