<svg xmlns="http://www.w3.org/2000/svg" viewBox="0 0 18 18">
  <g clip-path="url(#a)">
    <path fill="#fff" d="M0 0h18v18H0V0Z"/>
    <path fill="#011128" fill-rule="evenodd" d="M1.666 7.882a3.228 3.228 0 1 0 0-6.455 3.228 3.228 0 0 0 0 6.455Zm0-1.584a1.644 1.644 0 1 0 0-3.288 1.644 1.644 0 0 0 0 3.288Z" clip-rule="evenodd"/>
    <path fill="#011128" fill-rule="evenodd" d="M24.259 1.708A9.46 9.46 0 0 0 18.291-.4c-3.127 0-5.9 1.51-7.632 3.841a9.01 9.01 0 0 0-.47-1.905 11.148 11.148 0 0 1 1.823-1.571h-4.35a7.612 7.612 0 0 1-9.346 11.527V9.814a6.15 6.15 0 0 0 7.33-9.849h-8.913v18.27h1.584V13.09a9.008 9.008 0 0 0 1.583.466v4.678h1.583v-4.508a9.25 9.25 0 0 0 1.584-.106v4.614H4.65v-5.008a9.031 9.031 0 0 0 1.455-.657c.04.142.083.282.128.422v5.243h1.584v-2.01a12.73 12.73 0 0 0 1.699 2.01h2.496a11.095 11.095 0 0 1-4.519-6.624 9.127 9.127 0 0 0 1.36-1.417c.543 4.732 4.561 8.407 9.438 8.407a9.46 9.46 0 0 0 5.968-2.109v-2.19a7.917 7.917 0 1 1 0-10.404v-2.19ZM-1.683 7.759V1.55a4.567 4.567 0 1 1 0 6.21Z" clip-rule="evenodd"/>
    <path fill="#011128" fill-rule="evenodd" d="M18.291 12.51a3.41 3.41 0 1 0 0-6.82 3.41 3.41 0 0 0 0 6.82Zm0-1.583a1.827 1.827 0 1 0 0-3.654 1.827 1.827 0 0 0 0 3.654Z" clip-rule="evenodd"/>
    <path fill="#011128" fill-rule="evenodd" d="M24.259 6.635A6.457 6.457 0 0 0 11.836 9.1a6.455 6.455 0 0 0 12.423 2.464V6.635Zm-5.968 7.336a4.872 4.872 0 1 0 0-9.743 4.872 4.872 0 0 0 0 9.743Z" clip-rule="evenodd"/>
    <path fill="#011128" d="M-8.017-.035H-9.6v18.27h1.583V-.036Zm3.167 0h-1.583v18.27h1.583V-.036Z"/>
  </g>
  <defs>
    <clipPath id="a">
      <path fill="#fff" d="M0 0h18v18H0z"/>
    </clipPath>
  </defs>
</svg>
