<svg xmlns="http://www.w3.org/2000/svg" viewBox="0 0 18 18">
  <g clip-path="url(#a)">
    <path d="M0 0h18v18H0V0Z"/>
    <path fill="#fff" d="M5.505 8.034V6.567h1.14c.49 0 .816.3.816.734s-.326.733-.815.733H5.505Zm1.847 2.716H8.52l-.842-2.064.027-.027c.353-.136.788-.598.788-1.358 0-.978-.68-1.63-1.684-1.63H4.5v5.052h1.005v-1.82h1.168l.68 1.847Zm5.962-1.52c0-1.115-1.059-1.36-1.901-1.576-.543-.136-1.032-.245-1.032-.598s.299-.543.76-.543c.544 0 1.06.19 1.467.543l.543-.733c-.461-.462-1.113-.68-1.901-.68-1.114 0-1.901.625-1.901 1.522 0 1.113 1.032 1.358 1.847 1.548.597.136 1.086.272 1.086.652 0 .299-.299.597-.923.597a2.423 2.423 0 0 1-1.63-.651l-.543.76c.516.516 1.222.76 2.091.76 1.304 0 2.037-.597 2.037-1.602Z"/>
    <path fill="#FBE700" d="M13.5 12.352H4.527v1.006H13.5v-1.006Z"/>
  </g>
  <defs>
    <clipPath id="a">
      <path fill="#fff" d="M0 0h18v18H0z"/>
    </clipPath>
  </defs>
</svg>
