<svg xmlns="http://www.w3.org/2000/svg" viewBox="0 0 18 18">
  <g clip-path="url(#a)">
    <path fill="#fff" d="M0 0h18v18H0V0Z"/>
    <path fill="#0684BC" d="M5.865 6.8v5.207c0 .05.041.091.092.091H7.24c.05 0 .092-.04.092-.091V7.405c0-.05.04-.092.091-.092h3.044c.05 0 .091.041.091.092v1.522a.09.09 0 0 1-.091.091H9.092A.092.092 0 0 0 9 9.11v.971c0 .072.02.143.059.204l1.106 1.77a.092.092 0 0 0 .078.043h1.326a.092.092 0 0 0 .078-.139l-.907-1.496a.092.092 0 0 1 .04-.13l.674-.307a1.1 1.1 0 0 0 .644-1.001V6.8a.88.88 0 0 0-.88-.88H6.745a.88.88 0 0 0-.88.88Z"/>
    <path fill="#FF7A00" fill-rule="evenodd" d="M5.92 3.5h6.16a2.42 2.42 0 0 1 2.42 2.42v6.16a2.42 2.42 0 0 1-2.42 2.42H5.92a2.42 2.42 0 0 1-2.42-2.42V5.92A2.42 2.42 0 0 1 5.92 3.5Zm0 .935c-.82 0-1.485.665-1.485 1.485v6.16c0 .82.665 1.485 1.485 1.485h6.16c.82 0 1.485-.665 1.485-1.485V5.92c0-.82-.665-1.485-1.485-1.485H5.92Z" clip-rule="evenodd"/>
  </g>
  <defs>
    <clipPath id="a">
      <path fill="#fff" d="M0 0h18v18H0z"/>
    </clipPath>
  </defs>
</svg>
