<svg xmlns="http://www.w3.org/2000/svg" viewBox="0 0 18 18">
  <g clip-path="url(#a)">
    <path fill="#5B5CE8" d="M0 0h18v18H0V0Z"/>
    <path fill="#fff" fill-rule="evenodd" d="M10.061 8.47a3.024 3.024 0 0 0-.769-.095h-.029a3.063 3.063 0 0 0-1.39.335V6.274H6.2v7.758h1.674v-2.604a1.383 1.383 0 0 1 .414-.98 1.401 1.401 0 0 1 .982-.41h.02a1.385 1.385 0 0 1 .96.407 1.387 1.387 0 0 1 .41.98v2.61h1.671v-2.607c0-.755-.28-1.483-.785-2.044l-.11-.118-.162-.148a3.044 3.044 0 0 0-1.055-.599c-.06-.02-.113-.035-.158-.048Z" clip-rule="evenodd"/>
    <path fill="#fff" fill-rule="evenodd" d="M10.356 8.2A1.392 1.392 0 0 0 9.29 5.92H6.2V4.25h3.09a3.06 3.06 0 0 1 2.476 4.859l-.091-.093a3.369 3.369 0 0 0-1.317-.82l-.002.004Z" clip-rule="evenodd"/>
  </g>
  <defs>
    <clipPath id="a">
      <path fill="#fff" d="M0 0h18v18H0z"/>
    </clipPath>
  </defs>
</svg>
