<svg xmlns="http://www.w3.org/2000/svg" viewBox="0 0 18 18">
  <g clip-path="url(#a)">
    <path fill="#fff" d="M0 0h18v18H0V0Z"/>
    <path fill="#221E1F" fill-rule="evenodd" d="M12.5 11.72h-.387c-.235 1.93-1.695 2.98-3.375 3.225-.314.05-.632.068-.95.055-.72 0-1.865-.1-2.675-.91a2 2 0 0 1-.605-1.62 2.125 2.125 0 0 1 1.265-1.765 4.32 4.32 0 0 1 2.125-.4c.53.04 1.058.11 1.58.21-.297-.771-.85-1.393-1.387-1.998-.732-.823-1.438-1.616-1.438-2.717.005-1.62 1.515-2.8 3.43-2.8.7 0 2.525.385 2.525 1.945a1.3 1.3 0 0 1-.365.96 1.21 1.21 0 0 1-.805.345.96.96 0 0 1-.535-.1.14.14 0 0 1-.03-.21 1.394 1.394 0 0 0 .37-1.075A1.115 1.115 0 0 0 10.138 3.8a1.295 1.295 0 0 0-1.36 1.41c0 1.03.687 1.666 1.441 2.362.87.804 1.828 1.689 1.919 3.358H13l-.5.79Zm-5.037 2.09a1.93 1.93 0 0 0 1.115-.055v-.01c.675-.28 1.115-1.025 1.12-2.025v-.115a4.501 4.501 0 0 0-2.08 0 1.28 1.28 0 0 0-1 1.035 1.085 1.085 0 0 0 .845 1.17Z" clip-rule="evenodd"/>
  </g>
  <defs>
    <clipPath id="a">
      <path fill="#fff" d="M0 0h18v18H0z"/>
    </clipPath>
  </defs>
</svg>
