<svg xmlns="http://www.w3.org/2000/svg" viewBox="0 0 18 18">
  <g clip-path="url(#a)">
    <path fill="#464646" d="M0 0h18v18H0V0Z"/>
    <path fill="#BE9C60" fill-rule="evenodd" d="M9.76 3.764c0-.146.119-.264.265-.264h4.4v4.308a.264.264 0 0 1-.528 0V4.402L6.63 11.67v2.565a.264.264 0 0 1-.529 0v-2.037l-.84.84v1.197a.264.264 0 0 1-.529 0v-1.042h-.967a.264.264 0 0 1 0-.528h1.122l.84-.84H3.765a.264.264 0 1 1 0-.529h2.491l7.269-7.269h-3.5a.264.264 0 0 1-.263-.264Zm3.43 2.734v1.31a.264.264 0 0 1-.528 0v-.074l-1.127 1.078h2.552a.34.34 0 0 1 .339.339v2.566c0 .07-.028.137-.077.186l-2.492 2.519a.264.264 0 0 1-.188.078H8.872a.264.264 0 0 1 0-.528h2.687l2.338-2.363V9.34H10.22l2.972-2.842Zm-3.82 3.607a.264.264 0 0 1 .19-.08h3.296c.146 0 .264.118.264.264v1.428c0 .07-.028.138-.077.187l-.599.598a2.273 2.273 0 0 1-1.607.666H8.872a.264.264 0 1 1 0-.528h1.965c.463 0 .906-.184 1.234-.511l.147-.147H9.805a.264.264 0 0 1 0-.529h2.787v-.9h-2.92l-1.75 1.797v1.887a.264.264 0 0 1-.528 0v-1.994c0-.069.027-.135.075-.184l1.9-1.953Z" clip-rule="evenodd"/>
    <path fill="#BE9C60" fill-rule="evenodd" d="M11.66 4.739h-1.33a.264.264 0 1 0 0 .528h.054L8.208 7.443H5.319v-.86h2.786a.264.264 0 1 0 0-.527H5.71l.376-.363a1.521 1.521 0 0 1 1.056-.426h1.82a.264.264 0 1 0 0-.528H7.14a2.05 2.05 0 0 0-1.423.574l-.846.817a.264.264 0 0 0-.081.19v1.387c0 .146.118.264.264.264h3.262c.07 0 .138-.027.187-.077L11.66 4.74Zm-2.435-.971a.264.264 0 0 0-.264-.264H6.42a.264.264 0 0 0-.182.071L3.591 6.068a.264.264 0 0 0-.084.192v2.798c0 .146.119.264.265.264H6.47l-.685.684H3.772a.264.264 0 1 0 0 .528h2.124a.26.26 0 0 0 .186-.077l1.664-1.663h-3.71v-2.42l2.489-2.342H8.96a.264.264 0 0 0 .264-.264Z" clip-rule="evenodd"/>
  </g>
  <defs>
    <clipPath id="a">
      <path fill="#fff" d="M0 0h18v18H0z"/>
    </clipPath>
  </defs>
</svg>
