<svg xmlns="http://www.w3.org/2000/svg" viewBox="0 0 18 18">
  <g clip-path="url(#a)">
    <path fill="#0F313C" d="M0 0h18v18H0V0Z"/>
    <path fill="#04A4A8" d="M2.833 10.41a3.1 3.1 0 0 0 1.488.37c.369 0 .651-.06.848-.181.197-.122.295-.287.295-.497 0-.351-.347-.573-1.042-.665l-.245-.032c-.57-.07-.986-.212-1.25-.423-.264-.212-.396-.502-.396-.87 0-.252.076-.474.227-.67.15-.194.364-.346.64-.454a2.61 2.61 0 0 1 .961-.164c.297 0 .587.037.87.11.282.073.535.173.757.298a.089.089 0 0 1 .056.088.2.2 0 0 1-.012.057l-.17.364c-.017.042-.044.063-.082.063a.147.147 0 0 1-.062-.019 2.658 2.658 0 0 0-1.357-.345c-.36 0-.636.06-.829.182-.193.121-.289.285-.289.49 0 .159.08.293.239.402.159.108.423.186.791.232l.245.031c.59.076 1.014.216 1.272.421.257.205.386.507.386.904 0 .256-.073.48-.22.676a1.42 1.42 0 0 1-.637.455c-.279.109-.61.163-.996.163-.322 0-.638-.039-.948-.116a3.203 3.203 0 0 1-.816-.317c-.038-.021-.057-.05-.057-.088 0-.013.004-.031.013-.057l.175-.364c.017-.042.044-.063.082-.063.017 0 .038.007.063.02Zm3.925-1.3c0-.456.1-.857.298-1.202a2.02 2.02 0 0 1 .848-.801c.366-.189.792-.283 1.278-.283.255 0 .512.035.77.104.257.069.505.168.744.298.041.017.062.046.062.088a.113.113 0 0 1-.018.057l-.183.364a.09.09 0 0 1-.087.056.102.102 0 0 1-.057-.012 2.988 2.988 0 0 0-.615-.251 2.382 2.382 0 0 0-.616-.076c-.34 0-.638.07-.898.208a1.48 1.48 0 0 0-.603.58c-.142.25-.213.54-.213.87 0 .331.07.621.213.87.142.25.343.443.603.581.26.138.559.207.898.207.31 0 .611-.054.904-.163v-.546c0-.072.036-.107.107-.107h.478c.07 0 .106.035.106.107v.785c0 .096-.04.165-.12.207-.41.23-.901.345-1.475.345-.486 0-.912-.094-1.278-.282a2.02 2.02 0 0 1-.848-.801 2.367 2.367 0 0 1-.298-1.203Zm2.506.195c0 .071.035.107.107.107h1.3c.07 0 .106-.036.106-.107V8.89c0-.07-.035-.106-.106-.106h-1.3c-.072 0-.107.035-.107.106v.415Zm2.393-2.286c0-.071.035-.107.106-.107h.478c.07 0 .106.036.106.107v1.765h1.633c.071 0 .107.035.107.106v.415c0 .071-.036.107-.107.107h-1.633v1.79c0 .07-.035.106-.106.106h-.478c-.07 0-.107-.035-.107-.107V7.02Zm3.163 0c0-.071.035-.107.107-.107h.466c.071 0 .107.036.107.107V11.2c0 .072-.036.107-.107.107h-.466c-.072 0-.107-.035-.107-.107V7.02Z"/>
  </g>
  <defs>
    <clipPath id="a">
      <path fill="#fff" d="M0 0h18v18H0z"/>
    </clipPath>
  </defs>
</svg>
