<svg xmlns="http://www.w3.org/2000/svg" viewBox="0 0 18 18">
  <g clip-path="url(#a)">
    <path fill="#001AFF" d="M0 0h18v18H0V0Z"/>
    <path fill="#fff" d="M8.767 5.153c1.57-.543 3.224-1.137 5.233-1.137v1.389c-1.757 0-3.21.516-4.78 1.059C7.67 7.007 6.009 7.6 4 7.6V6.212c1.757 0 3.21-.517 4.767-1.06ZM4 8.299h10V9.7H4V8.3Zm0 4.295c1.757 0 3.21-.516 4.767-1.059 1.57-.543 3.224-1.137 5.233-1.137v1.389c-1.757 0-3.21.517-4.78 1.06-1.557.542-3.211 1.136-5.22 1.136v-1.389Z"/>
  </g>
  <defs>
    <clipPath id="a">
      <path fill="#fff" d="M0 0h18v18H0z"/>
    </clipPath>
  </defs>
</svg>
