<svg xmlns="http://www.w3.org/2000/svg" viewBox="0 0 18 18">
  <g clip-path="url(#a)">
    <path fill="#20855B" d="M0 0h18v18H0V0Z"/>
    <path fill="#fff" d="M14 8.977c0 .842-.673 1.515-1.514 1.515a1.508 1.508 0 0 1-1.515-1.515c0-.841.673-1.514 1.515-1.514.84 0 1.514.673 1.514 1.514Zm-6.971 0c0 .842-.673 1.515-1.515 1.515A1.508 1.508 0 0 1 4 8.977c0-.841.673-1.514 1.514-1.514.842 0 1.515.673 1.515 1.514ZM8.4 6.5c0 .576-.458 1.033-1.035 1.033A1.026 1.026 0 0 1 6.332 6.5c0-.576.456-1.033 1.033-1.033.577.024 1.034.48 1.034 1.033Zm3.34 0c0 .576-.456 1.033-1.033 1.033A1.026 1.026 0 0 1 9.673 6.5c0-.576.457-1.033 1.034-1.033.577.024 1.033.48 1.033 1.033ZM8.4 11.477c0 .577-.458 1.034-1.035 1.034a1.026 1.026 0 0 1-1.033-1.034c0-.577.456-1.034 1.033-1.034S8.4 10.9 8.4 11.477Zm1.682-2.5c0 .577-.481 1.057-1.058 1.057-.577 0-1.058-.48-1.058-1.057s.481-1.058 1.058-1.058c.577 0 1.058.457 1.058 1.058Zm-.409-4.352a.636.636 0 0 1-.625.625.636.636 0 0 1-.625-.625c0-.337.289-.625.625-.625.337 0 .625.288.625.625Zm0 8.678a.636.636 0 0 1-.625.625.636.636 0 0 1-.625-.625c0-.337.289-.625.625-.625.337 0 .625.288.625.625Zm2.067-1.826c0 .577-.456 1.034-1.033 1.034a1.026 1.026 0 0 1-1.034-1.034c0-.577.457-1.034 1.034-1.034s1.033.457 1.033 1.034Z"/>
  </g>
  <defs>
    <clipPath id="a">
      <path fill="#fff" d="M0 0h18v18H0z"/>
    </clipPath>
  </defs>
</svg>
