<svg xmlns="http://www.w3.org/2000/svg" viewBox="0 0 18 18">
  <g clip-path="url(#a)">
    <path fill="#fff" d="M0 0h18v18H0V0Z"/>
    <path fill="#BA2232" d="M11.922 5.286c-.01.322-.14.627-.367.855-.185.2-.43.33-.698.372a1.68 1.68 0 0 1-.45.026c-.27-.03-.523-.14-.73-.316a1.288 1.288 0 0 1-.357-.404 1.427 1.427 0 0 1-.119-.885c.035-.254.158-.488.347-.662a.502.502 0 0 1 .334-.15c-.082.08-.162.16-.243.237l.028.036c.193-.078.382-.163.579-.23a.767.767 0 0 1 .53-.046.117.117 0 0 0 .042.003.064.064 0 0 0 .044-.021l-.143-.04v-.015a.371.371 0 0 1 .042-.007c.074-.005.147.013.224.008.084-.005.173.069.26.107.281.143.5.385.612.68a.988.988 0 0 1 .064.452"/>
    <path fill="#A90E25" d="m7.125 4.977.016-.018c.017-.062.04-.123.068-.18a1.43 1.43 0 0 0-.084.198"/>
    <path fill="#A90E25" d="M7.209 4.778c-.028.058-.05.119-.069.18l-.015.02a1.29 1.29 0 0 1 .084-.199"/>
    <path fill="#A90E25" d="M7.209 4.778c-.028.058-.05.119-.069.18l-.015.02a1.29 1.29 0 0 1 .084-.199"/>
    <path fill="#A90E25" d="M7.209 4.778c-.028.058-.05.119-.069.18l-.015.02a1.29 1.29 0 0 1 .084-.199"/>
    <path fill="#A90E25" d="M7.209 4.778c-.028.058-.05.119-.069.18l-.015.02a1.29 1.29 0 0 1 .084-.199m.79.908a.16.16 0 0 1-.023-.05.14.14 0 0 1-.01-.056.368.368 0 0 0 .033.106M9.77 7.539l-.052-.024c.02.012.04.024.062.034-.008-.008-.008-.01-.01-.01Zm0 0-.052-.024c.02.012.04.024.062.034-.008-.008-.008-.01-.01-.01"/>
    <path fill="#BA2232" d="M13.979 11.703c.003.17-.012.34-.046.507-.078.438-.257.85-.523 1.207a3.497 3.497 0 0 1-1.11.996 4.125 4.125 0 0 1-1.237.479.103.103 0 0 0-.044.014c-.042.002-.097.016-.14.022a.615.615 0 0 0-.066.01c-.109.016-.213.026-.32.037l-.02.002h-.023c-.044.004-.09.004-.135.004-.109.014-.218.02-.328.019-.385 0-.768-.037-1.145-.112-.1-.315-.075-.657.072-.954a4.96 4.96 0 0 0 1.113.126c.09 0 .182 0 .272-.006h.002c.179-.016.354-.05.527-.08.32-.039.626-.15.897-.323.056-.034.106-.07.164-.106a2.204 2.204 0 0 0 .822-.935 2.24 2.24 0 0 0 .212-.953 2.404 2.404 0 0 0-.16-.852c0-.002-.006-.002-.006-.01-.019-.03-.028-.056-.044-.084a2.842 2.842 0 0 0-.744-.88.468.468 0 0 0-.088-.062 1.892 1.892 0 0 0-.315-.197c-.445-.223-1.595-.755-1.713-.825a19.243 19.243 0 0 1-1.098-.69 4.74 4.74 0 0 1-.738-.621 2.876 2.876 0 0 1-.876-1.262.34.34 0 0 1-.032-.085.105.105 0 0 1-.01-.046 1.755 1.755 0 0 1-.075-.503 1.55 1.55 0 0 1 .1-.558v-.006l.017-.019a1.146 1.146 0 0 1 .148-.324 1.903 1.903 0 0 1 .349-.434c.069-.072.142-.138.22-.2l.248-.168a1.45 1.45 0 0 1 .129-.08c.062-.032.122-.066.19-.094.006-.006.014-.006.02-.012.092-.041.185-.077.28-.108l.079-.026c.016-.008.034-.01.05-.019a4.163 4.163 0 0 1 1.52-.214 2.71 2.71 0 0 0-2.049.847.328.328 0 0 1-.019.024 1.35 1.35 0 0 0-.308.485.688.688 0 0 0-.05.19.12.12 0 0 0-.02.063c-.032.194-.027.393.014.585a.622.622 0 0 0 .024.108c0 .02.003.038.01.056a.159.159 0 0 0 .022.05c.115.304.289.582.513.818.124.132.253.248.383.366.066.06.138.12.208.18.21.18.434.342.668.488l-.052-.024c.02.013.04.024.062.034.08.05.17.1.257.153a.6.6 0 0 1 .088.044c.516.3 1.05.567 1.6.801.52.255.99.605 1.38 1.033.36.358.618.805.75 1.294.071.272.113.55.125.83"/>
    <path fill="#1EBDC1" d="M12.135 3.512c-.006.006-.006.01-.01.016a6.123 6.123 0 0 1-.461-.146 4.3 4.3 0 0 0-1.697-.249 5.976 5.976 0 0 0-.728.086 1.096 1.096 0 0 0-.214.044c-.046.01-.09.025-.137.034a4.06 4.06 0 0 0-.805.265c-.328.13-.639.3-.924.509-.1.061-.195.13-.282.208a3.95 3.95 0 0 0-.52.473 6.407 6.407 0 0 0-.234.257c-.076.089-.149.188-.223.282a3.34 3.34 0 0 0-.196.29 5.3 5.3 0 0 0-.714 1.66v.015a5.645 5.645 0 0 0-.062 2.421c.077.415.202.819.373 1.205a1 1 0 0 0-.804.523A5.982 5.982 0 0 1 4 9.012c0-.127.008-.25.019-.375.006-.105.012-.205.022-.311a.58.58 0 0 1 .008-.118c.044-.3.105-.599.184-.892a5.676 5.676 0 0 1 .818-1.736 5.969 5.969 0 0 1 1.34-1.399 5.753 5.753 0 0 1 1.826-.908c.305-.09.617-.161.932-.21.388-.061.782-.08 1.174-.054a4.71 4.71 0 0 1 1.267.229c.026.01.056.02.084.032.157.068.311.164.461.241"/>
    <path fill="#2E50A3" d="M8.842 14.888a5.986 5.986 0 0 1-4.345-3.483.999.999 0 0 1 .804-.523 5.268 5.268 0 0 0 3.613 3.052 1.275 1.275 0 0 0-.072.954"/>
    <path fill="#A90E25" d="M7.999 5.687a.16.16 0 0 1-.023-.05.14.14 0 0 1-.01-.056.368.368 0 0 0 .033.106"/>
    <path fill="#A90E25" d="M7.999 5.687a.16.16 0 0 1-.023-.05.14.14 0 0 1-.01-.056.368.368 0 0 0 .033.106"/>
    <path fill="#058DC0" d="M5.299 10.883a.999.999 0 0 0-.802.523 5.862 5.862 0 0 1-.425-1.463 1.01 1.01 0 0 1 .854-.264c.077.414.202.819.373 1.204Z"/>
    <path fill="#743069" d="m10.492 14.977-.02.002h-.025c-.044.002-.09.002-.134.002a2.41 2.41 0 0 1-.329.019 5.98 5.98 0 0 1-1.148-.111 1.293 1.293 0 0 1 .076-.954c.365.083.738.126 1.113.126.09 0 .18 0 .272-.006h.002a.995.995 0 0 0 .193.924"/>
  </g>
  <defs>
    <clipPath id="a">
      <path fill="#fff" d="M0 0h18v18H0z"/>
    </clipPath>
  </defs>
</svg>
