<svg xmlns="http://www.w3.org/2000/svg" viewBox="0 0 18 18">
  <g clip-path="url(#a)">
    <path d="M0 0h18v18H0V0Z"/>
    <path fill="#fff" d="M9 5c1.752 0 3.63.357 5.125 1.306.971.62 1.875 1.562 1.875 2.789 0 1.432-1.223 2.474-2.395 3.083-1.395.722-3.043 1.008-4.605 1.008-1.752 0-3.626-.353-5.122-1.305C2.908 11.26 2 10.318 2 9.095c0-1.44 1.22-2.477 2.395-3.087C5.794 5.286 7.438 5 9 5Zm-.015.435c-1.629 0-3.384.305-4.798 1.157-.889.531-1.767 1.369-1.767 2.48 0 1.307 1.19 2.22 2.254 2.746 1.317.643 2.857.893 4.311.893 1.633 0 3.389-.306 4.802-1.158.885-.535 1.767-1.368 1.767-2.48 0-1.309-1.187-2.224-2.254-2.745-1.317-.644-2.857-.893-4.315-.893ZM2.837 8.17l2.683-.46.807-1.752.804 1.752 2.681.458-2.681.461-.804 1.756-.807-1.756-2.682-.461Zm5.895 1.335 1.183-.208.353-.792.354.792 1.183.208-1.183.204-.354.793-.353-.793-1.183-.204ZM11.18 7.39l1.183-.204.353-.796.353.796 1.183.204-1.183.208-.353.793-.354-.793-1.182-.208Zm-1.265 3.75 1.18-.205.352-.796.358.796 1.182.205-1.182.208-.358.793-.353-.793-1.179-.208Zm-3.634.286 1.183-.204.357-.797.353.797 1.183.204-1.183.208-.353.793-.357-.793-1.183-.208Zm5.948-1.956 1.179-.208.353-.793.357.793 1.183.208-1.183.205-.357.791-.353-.792-1.179-.204Z"/>
  </g>
  <defs>
    <clipPath id="a">
      <path fill="#fff" d="M0 0h18v18H0z"/>
    </clipPath>
  </defs>
</svg>
