<svg xmlns="http://www.w3.org/2000/svg" viewBox="0 0 18 18">
  <g clip-path="url(#a)">
    <path fill="#539E05" d="M0 0h18v18H0V0Z"/>
    <path fill="#fff" fill-rule="evenodd" d="M8.985 3.836a5.147 5.147 0 0 1 4.957 3.708h.923a6.039 6.039 0 0 0-11.73 0h.923a5.147 5.147 0 0 1 4.927-3.708Z" clip-rule="evenodd"/>
    <path fill="#fff" fill-rule="evenodd" d="M3.063 8.253c-.29 1.682.263 5.39 5.147 7.092-.108-.965-.9-3.533-3.202-4.863.48.44 1.536 1.719 1.925 3.242-1.02-.48-3.06-2.03-3.06-4.64 1.203-.108 4.17 1.058 5.127 7.194.956-6.136 3.924-7.302 5.127-7.194 0 2.61-2.04 4.16-3.06 4.64.389-1.523 1.445-2.803 1.925-3.242-2.302 1.33-3.094 3.898-3.202 4.864 4.884-1.703 5.438-5.41 5.147-7.093-2.35-.08-3.857 1.223-4.316 1.885C10.556 8.869 9.588 7.32 9 6.835c-.588.486-1.556 2.034-1.621 3.303-.46-.662-1.966-1.966-4.316-1.885ZM9 8.112c-1.378 1.977-.83 4.16-.365 4.984L9 9.733l.365 3.363c.466-.824 1.013-3.007-.365-4.984Z" clip-rule="evenodd"/>
  </g>
  <defs>
    <clipPath id="a">
      <path fill="#fff" d="M0 0h18v18H0z"/>
    </clipPath>
  </defs>
</svg>
