<svg xmlns="http://www.w3.org/2000/svg" viewBox="0 0 18 18">
  <g clip-path="url(#a)">
    <path fill="#fff" d="M0 0h18v18H0V0Z"/>
    <path fill="#003" d="M12.796 8.018H9.913l-.89-2.738-.891 2.738H5.249l2.326 1.703-.89 2.739 2.337-1.692 2.338 1.692-.89-2.739 2.326-1.703Z"/>
    <path fill="#C00" d="M8.989 3.49c1.48 0 2.872.568 3.918 1.614a5.452 5.452 0 0 1 1.614 3.907c0 1.48-.567 2.861-1.614 3.896A5.487 5.487 0 0 1 9 14.51a5.494 5.494 0 0 1-5.51-5.532A5.494 5.494 0 0 1 8.989 3.49ZM8.978 3C5.694 3 3 5.694 3 8.978c0 3.35 2.66 6.01 6 6.022a5.993 5.993 0 0 0 6-5.989A6.003 6.003 0 0 0 8.978 3Z"/>
  </g>
  <defs>
    <clipPath id="a">
      <path fill="#fff" d="M0 0h18v18H0z"/>
    </clipPath>
  </defs>
</svg>
