<svg xmlns="http://www.w3.org/2000/svg" viewBox="0 0 18 18">
  <g clip-path="url(#a)">
    <path fill="#FEF9E8" d="M0 0h18v18H0V0Z"/>
    <path fill="#00A69D" fill-rule="evenodd" d="M9.885 8.466c-1.453-2.264.91-3.092 2.07-4.384.467 1.05 1.212 3.115-.728 3.718-.535.182-1.09.447-1.342.666Z" clip-rule="evenodd"/>
    <path fill="#8CC33D" fill-rule="evenodd" d="M8.984 10.544C11.267 7.317 13.63 8.232 16 9.097c-2.388 2.276-4.808 3.29-7.016 1.447Z" clip-rule="evenodd"/>
    <path fill="#AB3B65" fill-rule="evenodd" d="M8.879 6.959c-2.01-.848-1.986-2.338-1.459-3.554 0 0 2.708.682 1.459 3.554Z" clip-rule="evenodd"/>
    <path fill="#E71324" fill-rule="evenodd" d="M7.258 8.77c-.383-.449-.826-.629-1.405-.51a4.07 4.07 0 0 0-1.522.652c-.575.391-.9.8-1.077 1.102-.148.232-.242.49-.253.791-.04 1.048 1.412 2.061 2.811 2.849 1.4.787 2.333.707 2.307-.81-.015-.863-.191-3.288-.861-4.073Z" clip-rule="evenodd"/>
    <path fill="#D6DE23" fill-rule="evenodd" d="M11.106 8.314c-.694-.643-1.685-.996-2.53-.573-.798.398-1.13 1.19-1.408 1.99-.212.612-.36 1.247-.504 1.877-.35 1.533.508 1.7 1.955 1.09 1.25-.525 2.626-1.072 2.929-1.912.304-.666.355-1.733-.442-2.472Z" clip-rule="evenodd"/>
    <path fill="#6FBB43" fill-rule="evenodd" d="M11.548 10.785c-.092.254-.281.48-.535.688-.691-.083-1.37-.379-2.029-.93.768-1.084 1.544-1.701 2.328-2.009.579.72.511 1.65.236 2.251Z" clip-rule="evenodd"/>
    <path fill="#B7292F" fill-rule="evenodd" d="M8.12 12.884c-1.139.362-1.763.07-1.456-1.277.144-.63.292-1.265.504-1.876.081-.235.167-.469.269-.693.523.967.668 3.025.682 3.807v.04Z" clip-rule="evenodd"/>
    <path fill="#00974A" fill-rule="evenodd" d="M10.71 8c-.347.15-.655.319-.825.467a2.966 2.966 0 0 1-.408-.906c.429.023.856.188 1.232.439Z" clip-rule="evenodd"/>
  </g>
  <defs>
    <clipPath id="a">
      <path fill="#fff" d="M0 0h18v18H0z"/>
    </clipPath>
  </defs>
</svg>
