<svg xmlns="http://www.w3.org/2000/svg" viewBox="0 0 18 18">
  <g clip-path="url(#a)">
    <path fill="#BA9141" d="M0 0h18v18H0V0Z"/>
    <path fill="#fff" fill-rule="evenodd" d="M11.132 4.11a.898.898 0 0 1-.401-.07 5.86 5.86 0 0 0-1.197-.226 5.992 5.992 0 0 0-.406-.018c-1.35 0-3.065.566-4.263 2.5a5.123 5.123 0 0 0-.836 2.406 5.591 5.591 0 0 0 .312 2.494c.577 1.436 2.09 3.076 4.335 3.28.953.078 2.275-.078 3.026-.458a5.623 5.623 0 0 0 1.098-.825 5.735 5.735 0 0 0 .87-1.062c.169-.245-.128-.475-.335-.255a4.387 4.387 0 0 1-1.219 1.076 4.371 4.371 0 0 1-1.53.55 3.92 3.92 0 0 1-1.871-.205 3.967 3.967 0 0 1-1.564-1.05C6.184 11.11 6.107 9.77 6.063 9.233c-.025-2.785 1.406-4.606 3.13-4.638a3.212 3.212 0 0 1 1.004.144 3.157 3.157 0 0 1 .905.454c1.244.834 1.32 1.807 1.789 1.979.217.083.67-.028.673-.282 0-.593-.396-1.079-.804-1.953-.311-.67-.58-1.322-.701-1.416a.723.723 0 0 0-.32 0c-.09.055-.216.23-.373.355-.158.126-.13.195-.23.23" clip-rule="evenodd"/>
  </g>
  <defs>
    <clipPath id="a">
      <path fill="#fff" d="M0 0h18v18H0z"/>
    </clipPath>
  </defs>
</svg>
