<svg xmlns="http://www.w3.org/2000/svg" viewBox="0 0 18 18">
  <g clip-path="url(#a)">
    <path fill="#fff" d="M0 0h18v18H0V0Z"/>
    <path fill="#25B8BF" d="M14.552 11.28a5.94 5.94 0 0 0 .303-.964l-.827.827.524.138Z"/>
    <path fill="#43B68E" d="M14.237 11.931c.118-.21.223-.425.315-.65l-.524-.137.209.787Z"/>
    <path fill="#25B8BF" d="m12.749 12.421.987.26c.184-.237.353-.489.5-.752l-.208-.787-1.28 1.279Z"/>
    <path fill="#67C18E" d="M13.022 13.453a6.05 6.05 0 0 0 .714-.77l-.987-.261.273 1.032v-.002Z"/>
    <path fill="#00B59E" d="m11.81 13.79.588.155a6.19 6.19 0 0 0 .624-.492l-.273-1.032-1.24 1.239c.1.043.2.088.301.13Z"/>
    <path fill="#25BBD2" d="M12.316 13.996c.028-.017.055-.033.082-.052l-.588-.155c.167.07.335.14.506.207Z"/>
    <path fill="#137FAF" d="m14.94 8.15-.015-.101-.077.077.092.025Z"/>
    <path fill="#00B59E" d="M14.991 8.67a6.18 6.18 0 0 0-.051-.52l-.092-.025.143.545Zm-.041 1.1a6.174 6.174 0 0 0 .04-1.098l-.144-.545-1.28 1.28 1.382.364.002-.001Z"/>
    <path fill="#43B68E" d="m14.028 11.142.827-.826c.04-.18.072-.363.096-.547l-1.381-.365.458 1.738Z"/>
    <path fill="#67C18E" d="m14.028 11.142-.46-1.738-1.278 1.278 1.738.46Z"/>
    <path fill="#43B68E" d="m12.29 10.684.459 1.738 1.28-1.278-1.739-.46Z"/>
    <path fill="#00B59E" d="m11.011 11.963 1.738.459-.459-1.738-1.279 1.279Z"/>
    <path fill="#1CB6B2" d="m11.454 13.635.057.026 1.24-1.24-1.739-.458.442 1.672Z"/>
    <path fill="#00B59E" d="m11.454 13.635-.442-1.672-.95.95c.397.249.876.49 1.393.722h-.001Z"/>
    <path fill="#008B8A" d="M14.925 8.048a5.965 5.965 0 0 0-.519-1.656l-.017-.004.459 1.738.077-.078Z"/>
    <path fill="#009589" d="m14.848 8.126-.459-1.738-1.28 1.279 1.739.459Z"/>
    <path fill="#03A687" d="m13.568 9.405 1.28-1.28-1.738-.458.458 1.738Z"/>
    <path fill="#009589" d="m13.568 9.405-.458-1.738-1.28 1.278 1.738.46Z"/>
    <path fill="#43B68E" d="m12.29 10.683 1.278-1.278-1.738-.46.46 1.738Z"/>
    <path fill="#1CB6B2" d="m10.553 10.225 1.737.458-.46-1.738-1.277 1.28Z"/>
    <path fill="#25BBD2" d="m11.011 11.963 1.28-1.28-1.739-.458.459 1.738Z"/>
    <path fill="#1CB6B2" d="m9.273 11.502 1.738.46-.458-1.737-1.28 1.277Z"/>
    <path fill="#1DA2CA" d="M9.55 12.552c.149.12.32.241.51.36l.951-.95-1.738-.458.278 1.05v-.002Z"/>
    <path fill="#25B8BF" d="m6.635 14.14-.257.257c.157.076.318.145.482.208l-.094-.35a4.862 4.862 0 0 1-.132-.114l.001-.001Z"/>
    <path fill="#03A687" d="m14.39 6.387-.017-.06a6.033 6.033 0 0 0-.85-1.27l-.872.872 1.738.458Z"/>
    <path fill="#00818D" d="m13.11 7.668 1.28-1.28-1.739-.458.459 1.738Z"/>
    <path fill="#00768C" d="M12.499 7.376c0 .044-.002.086-.005.13l.616.162-.459-1.738-.606.606c.28.248.445.526.455.84Z"/>
    <path fill="#00818D" d="m11.799 8.82.033.126 1.28-1.28-.616-.162c-.026.52-.305.944-.697 1.317Z"/>
    <path fill="#00768C" d="m11.83 8.945-.033-.125c-.031.03-.064.06-.099.09l.132.035Z"/>
    <path fill="#009589" d="m10.446 9.822.107.403 1.279-1.28-.132-.034c-.371.33-.824.623-1.254.911Z"/>
    <path fill="#00768C" d="m10.055 10.092.498.13-.107-.402c-.134.09-.264.18-.39.27v.002Z"/>
    <path fill="#009589" d="m9.137 10.982.138.522 1.279-1.28-.498-.13c-.388.277-.724.563-.918.888h-.001Z"/>
    <path fill="#5CC4E3" d="m5.73 12.85-.673.672c.058.05.115.1.174.147l1.256.332c-.338-.34-.6-.727-.757-1.151Z"/>
    <path fill="#25BBD2" d="m6.489 14.001-1.257-.332c.353.285.736.53 1.147.73l.258-.257c-.05-.046-.1-.094-.148-.141Z"/>
    <path fill="#00B59E" d="M12.79 4.35a5.955 5.955 0 0 0-.433-.324l-.166.166.6.158Z"/>
    <path fill="#00B59E" d="m12.651 5.93.871-.872a6.078 6.078 0 0 0-.73-.708l-.6-.159.46 1.738Z"/>
    <path fill="#009589" d="m12.651 5.93-.46-1.739-1.278 1.278 1.738.46Z"/>
    <path fill="#008B8A" d="M11.038 5.944c.411.175.755.37 1.005.592l.607-.607-1.738-.458.125.474.001-.001Z"/>
    <path fill="#1DA2CA" d="m8.356 8.026 1.048.277c.214-.09.407-.18.57-.276l-.339-1.279-1.279 1.28v-.002Z"/>
    <path fill="#137FAF" d="m8.356 8.026.167.634c.313-.13.614-.244.88-.356l-1.048-.278h.001Z"/>
    <path fill="#1DA2CA" d="m8.523 8.66-.167-.634-1.28 1.28.127.033c.434-.286.89-.499 1.32-.679Z"/>
    <path fill="#91D4EA" d="M6.042 10.437a4.323 4.323 0 0 1 1.062-1.028l-.027-.102-1.28 1.279.125.033c.038-.06.075-.122.118-.182h.002Z"/>
    <path fill="#91D4EA" d="m5.797 10.586.046.174c.025-.048.05-.095.08-.141l-.126-.033Z"/>
    <path fill="#25BBD2" d="m5.843 10.76-.046-.174-1.279 1.28 1.052.277c-.04-.456.03-.925.272-1.383h.001Z"/>
    <path fill="#91D4EA" d="M5.586 12.287c-.007-.049-.01-.097-.014-.146l-1.053-.278.407 1.541c.043.04.088.08.132.118l.673-.673a2.666 2.666 0 0 1-.144-.562h-.001Z"/>
    <path fill="#25BBD2" d="M4.026 12.356c.26.384.562.735.9 1.048l-.407-1.54-.493.492Z"/>
    <path fill="#00B59E" d="M12.357 4.026a5.728 5.728 0 0 0-.252-.16l.086.326.165-.166Z"/>
    <path fill="#00B59E" d="m12.191 4.192-.086-.326a5.965 5.965 0 0 0-1.222-.562l-.43.43 1.738.458Z"/>
    <path fill="#1CB6B2" d="m10.913 5.47 1.278-1.279-1.738-.46.46 1.738Z"/>
    <path fill="#03A687" d="m10.453 3.731-1.278 1.28 1.738.458-.46-1.738Z"/>
    <path fill="#3B99C3" d="m9.277 5.396-.102-.385-.297.297c.135.029.267.058.4.09v-.002Zm.313 1.192a12.762 12.762 0 0 0-1.487-.506l-.207.207 1.738.459-.043-.161v.001Z"/>
    <path fill="#27ADD4" d="m7.896 6.29.46 1.737 1.278-1.278-1.738-.459Z"/>
    <path fill="#2191BE" d="M7.896 6.29 6.618 7.568l1.738.459-.46-1.737Z"/>
    <path fill="#3B99C3" d="m8.356 8.027-1.738-.459.459 1.738 1.279-1.28Z"/>
    <path fill="#73CCE7" d="m6.618 7.568-1.28 1.28 1.739.458-.459-1.738Z"/>
    <path fill="#00B5DF" d="m5.339 8.848.458 1.738 1.28-1.28-1.738-.458Z"/>
    <path fill="#B3E4FA" d="m5.339 8.848-1.28 1.278 1.738.46-.458-1.738Z"/>
    <path fill="#91D4EA" d="m4.06 10.125.46 1.738 1.277-1.278-1.738-.46Z"/>
    <path fill="#73CCE7" d="m4.06 10.125-.758.758c.083.254.182.5.299.738l.917.243-.459-1.738v-.001Z"/>
    <path fill="#91D4EA" d="M3.602 11.621c.125.256.266.502.424.736l.493-.493-.917-.243Z"/>
    <path fill="#03A687" d="M10.883 3.303a6.163 6.163 0 0 0-.585-.161l.155.589.43-.43v.002Z"/>
    <path fill="#43B68E" d="m10.453 3.732-.155-.59A6.036 6.036 0 0 0 9 3h-.013l-.273.273 1.738.459h.001Z"/>
    <path fill="#00B59E" d="m10.453 3.731-1.738-.459.46 1.738 1.278-1.279Z"/>
    <path fill="#1CB6B2" d="m9.175 5.01-.46-1.738-1.278 1.28 1.738.458Z"/>
    <path fill="#25BBD2" d="m7.821 6.004.075.286.207-.207a25.218 25.218 0 0 0-.283-.078l.001-.001Zm1.057-.695.297-.298-1.738-.458.138.52c.445.07.883.148 1.304.237l-.001-.001Z"/>
    <path fill="#1DA2CA" d="m6.158 5.83 1.738.458-.075-.286a37.105 37.105 0 0 0-1.475-.36l-.186.186-.002.002Zm1.416-.759-.138-.52L7 4.986c.192.026.383.055.574.085Z"/>
    <path fill="#3B99C3" d="m6.158 5.83.46 1.738L7.896 6.29l-1.738-.46Z"/>
    <path fill="#73CCE7" d="M6.158 5.83 4.88 7.11l1.738.458-.46-1.738Z"/>
    <path fill="#5CC4E3" d="M6.618 7.568 4.88 7.109l.459 1.738 1.28-1.28Z"/>
    <path fill="#25BBD2" d="M4.88 7.11 3.6 8.386l1.739.46L4.88 7.11Z"/>
    <path fill="#91D4EA" d="m3.6 8.388.46 1.738 1.279-1.278-1.738-.46Z"/>
    <path fill="#5CC4E3" d="m3.6 8.388-.6.6v.014c0 .293.022.58.062.86l.997.264-.458-1.738Z"/>
    <path fill="#00B5DF" d="M3.063 9.862c.05.351.132.692.24 1.02l.758-.757-.998-.263Z"/>
    <path fill="#009589" d="M8.989 3a5.4 5.4 0 0 0-.343.011l.07.262L8.988 3Z"/>
    <path fill="#00B59E" d="M8.646 3.012a5.921 5.921 0 0 0-.644.073l.715.188-.07-.261Z"/>
    <path fill="#67C18E" d="m8.715 3.273-.714-.188a5.979 5.979 0 0 0-.894.223l.329 1.245 1.28-1.28Z"/>
    <path fill="#1CB6B2" d="m7.437 4.552-.329-1.244c-.4.133-.782.306-1.14.517l-.268.269 1.737.458Z"/>
    <path fill="#25BBD2" d="m7.002 4.988.435-.436L5.7 4.094l.2.759c.363.04.732.085 1.102.136v-.001Zm-.907.599.065.243.186-.187a70.679 70.679 0 0 0-.251-.056Z"/>
    <path fill="#00B5DF" d="m5.7 4.092-.672.671c.285.026.577.055.871.088l-.2-.76Zm.395 1.495A58.691 58.691 0 0 0 4.52 5.27l-.1.1 1.737.459-.065-.243.002.001Z"/>
    <path fill="#5CC4E3" d="m4.42 5.371.46 1.738 1.278-1.28-1.738-.458Z"/>
    <path fill="#1DA2CA" d="m4.42 5.371-.596.597a6.16 6.16 0 0 0-.378.761l1.433.38-.459-1.738Z"/>
    <path fill="#00B5DF" d="m4.88 7.109-1.433-.38c-.06.149-.115.298-.164.45l.32 1.208 1.279-1.28-.002.002Z"/>
    <path fill="#73CCE7" d="M3.282 7.18c-.11.341-.187.695-.233 1.06l.55.145-.319-1.207.002.001Z"/>
    <path fill="#00B5DF" d="M3.05 8.242c-.03.245-.049.493-.049.746l.601-.6-.55-.146H3.05Z"/>
    <path fill="#25BBD2" d="m4.387 5.245.033.125.1-.1a1.949 1.949 0 0 0-.133-.025ZM5.7 4.092l-.108-.029c-.29.202-.56.43-.812.679l.248.022.672-.672Z"/>
    <path fill="#5CC4E3" d="M4.387 5.245c-.019-.002-.039-.007-.057-.01-.025.03-.05.062-.074.094l.164.043-.033-.125v-.002Z"/>
    <path fill="#00B5DF" d="M4.256 5.33a6.025 6.025 0 0 0-.434.639l.597-.597-.164-.043h.001Z"/>
    <path fill="#25BBD2" d="M5.968 3.824a4.589 4.589 0 0 0-.291.183l.023.087.268-.268v-.002Z"/>
    <path fill="#00B59E" d="M5.677 4.006a1.774 1.774 0 0 0-.085.059l.108.029-.023-.088Z"/>
    <path fill="#00768C" d="m10.913 5.47-.306.305a9.6 9.6 0 0 1 .433.167l-.125-.474-.002.001Zm-.742 1.42a3.037 3.037 0 0 0-.44-.24l-.097.098.537.142Z"/>
    <path fill="#1DA2CA" d="M9.972 8.027c.31-.185.509-.398.527-.697.009-.145-.109-.293-.328-.44l-.537-.142.338 1.28Z"/>
    <path fill="#00818D" d="m10.606 5.777.306-.306-1.738-.458.102.385c.477.112.926.237 1.33.38Zm-.874.874-.141-.063.043.16.098-.097Z"/>
    <path fill="#137FAF" d="m9.55 12.551-.277-1.049-.293.293c.057.25.263.505.57.756Z"/>
    <path fill="#25BBD2" d="M6.861 14.606c.275.105.56.19.852.254a4.76 4.76 0 0 1-.945-.605l.093.35Z"/>
    <path fill="#5CC4E3" d="m8.971 11.423.302.08-.138-.522c-.083.14-.14.287-.164.442Z"/>
    <path fill="#1DA2CA" d="M8.967 11.728a.56.56 0 0 0 .013.068l.293-.294-.302-.08c-.014.098-.017.2-.004.306Z"/>
    <path fill="#73CCE7" d="m7.077 9.307.027.102.1-.068-.127-.033v-.001Z"/>
    <path fill="#03A687" d="M14.406 6.393 14.4 6.38l-.01.009.017.004Zm-.006-.014-.027-.052.015.06.011-.008Z"/>
  </g>
  <defs>
    <clipPath id="a">
      <path fill="#fff" d="M0 0h18v18H0z"/>
    </clipPath>
  </defs>
</svg>
