<svg xmlns="http://www.w3.org/2000/svg" viewBox="0 0 18 18">
  <g clip-path="url(#a)">
    <path d="M0 0h18v18H0V0Z"/>
    <path fill="#fff" d="M3.501 5.5h.693c.102.242.212.48.316.72 1.1 2.484 2.196 4.97 3.296 7.452h-.692c-.247-.564-.498-1.126-.746-1.69-.956-2.16-1.91-4.322-2.867-6.482Zm1.573 0h.692c.2.46.406.92.608 1.38 1.002 2.263 2.002 4.529 3.004 6.793-.228-.002-.458 0-.687-.001-.025-.032-.033-.074-.052-.11L5.074 5.5Zm1.48 0h.693c.018.055.045.106.067.16 1.182 2.67 2.362 5.342 3.543 8.013l-.691-.001-1.44-3.26L6.552 5.5Zm4.2 0h.686c-.599 1.353-1.195 2.706-1.795 4.059-.113-.246-.218-.495-.33-.741-.006-.017-.016-.035-.006-.052.482-1.088.962-2.178 1.445-3.266Zm1.529 0h.686c-.854 1.93-1.705 3.86-2.56 5.79-.114-.258-.227-.517-.344-.774.74-1.672 1.478-3.345 2.218-5.016Zm1.53 0h.686c-1.11 2.506-2.216 5.014-3.326 7.52-.113-.26-.228-.518-.343-.776.995-2.248 1.987-4.497 2.982-6.744Z"/>
  </g>
  <defs>
    <clipPath id="a">
      <path fill="#fff" d="M0 0h18v18H0z"/>
    </clipPath>
  </defs>
</svg>
