<svg xmlns="http://www.w3.org/2000/svg" viewBox="0 0 18 18">
  <g clip-path="url(#a)">
    <path fill="#E2A7BF" d="M0 0h18v18H0V0Z"/>
    <path fill="#fff" d="M9.013 15.283c-.085 0-.167-.003-.244-.01-1.566-.147-3.127-1.178-3.086-3.15.03-1.468.794-2.518 2.152-2.953a2.217 2.217 0 0 1 1.553.066c.203.079.34.208.406.383.129.337-.06.716-.069.732l-.474.99-.032-.435a.72.72 0 0 0-.02-.105c-.069-.266-.3-.713-1.077-.713-.405 0-.733.128-.975.38-.525.547-.49 1.509-.49 1.518.174 2.54 2.258 2.568 2.346 2.568h.117l.019.116v.613h-.126Z"/>
    <path fill="#E2A7BF" d="M8.513 8.944c-.238 0-.478.038-.714.114-1.409.452-2.202 1.54-2.233 3.062-.042 2.047 1.573 3.116 3.192 3.268.078.007.161.01.255.01h.233l.01-.233v-.73h-.243l-.018.002c-.077 0-2.056-.029-2.223-2.463 0-.003-.031-.917.459-1.428.222-.23.513-.343.89-.343.698 0 .904.392.964.626a.58.58 0 0 1 .016.086l.078.842.365-.76.286-.599c.02-.04.216-.444.072-.822a.782.782 0 0 0-.473-.45 2.493 2.493 0 0 0-.917-.182Zm0 .233c.327 0 .607.079.833.167.635.247.275.953.275.953l-.286.599s-.004-.05-.023-.125c-.065-.253-.308-.801-1.19-.801-1.67 0-1.582 2.02-1.582 2.02.183 2.666 2.416 2.68 2.463 2.68h.001l.018-.002v.497h-.009c-.08 0-.159-.002-.233-.01-1.625-.152-3.019-1.195-2.98-3.03.032-1.593.938-2.482 2.07-2.845a2.09 2.09 0 0 1 .643-.103Z"/>
    <path fill="#fff" d="M8.978 14.367c-.22 0-.291-.178-.524-.768L5.387 5.927c-.265-.675-.425-.774-.816-.885-.17-.046-.372-.046-.439-.046-.129 0-.216-.082-.216-.203 0-.203.264-.203.44-.203.398 0 .847.016 1.144.027.146.006.257.01.305.01.042 0 .132-.004.25-.01.235-.01.59-.027.903-.027.158 0 .451 0 .451.203 0 .061-.023.203-.24.203-.184 0-.354.021-.424.052-.077.035-.092.079-.092.142 0 .137.155.54.32.967l2.286 6.095c.777-1.842 2.285-5.787 2.533-6.6.027-.081.107-.318.107-.437 0-.05-.013-.14-.096-.181-.117-.038-.292-.038-.42-.038-.228 0-.253-.133-.253-.19 0-.216.253-.216.39-.216.323 0 .67.015.925.026.134.006.237.011.29.011l.178-.008c.201-.011.538-.03.788-.03.217 0 .327.07.327.204 0 .061-.025.203-.265.203-.08 0-.326 0-.533.131-.137.096-.313.299-.635 1.11a291.64 291.64 0 0 1-1.002 2.427l-.51 1.229c-.702 1.677-1.208 2.89-1.478 3.465-.084.18-.15.328-.205.448-.194.431-.252.561-.422.561Z"/>
    <path fill="#E2A7BF" d="M13.701 4.473c-.253 0-.592.018-.794.029-.087.005-.15.008-.173.008-.05 0-.152-.005-.284-.01a21.627 21.627 0 0 0-.93-.027c-.125 0-.506 0-.506.332 0 .032.01.308.37.308.112 0 .264 0 .375.03.019.017.023.047.023.071 0 .046-.017.152-.1.397-.237.779-1.616 4.395-2.418 6.324L7.09 6.136l-.009-.022c-.146-.38-.311-.81-.311-.925 0-.014.001-.021.002-.023 0 0 .007-.005.022-.012.044-.02.192-.041.375-.041.263 0 .357-.173.357-.32 0-.32-.398-.32-.568-.32-.317 0-.672.017-.908.027-.116.006-.204.01-.245.01-.048 0-.156-.004-.3-.01a32.366 32.366 0 0 0-1.15-.027c-.18 0-.555 0-.555.32 0 .188.136.32.332.32.063 0 .254 0 .41.041.333.095.48.16.736.815l3.038 7.6.03.073c.241.612.332.841.632.841.245 0 .328-.184.529-.63.054-.12.12-.267.203-.446.272-.578.778-1.79 1.48-3.47l.123-.295.386-.93c.48-1.157.895-2.156 1.004-2.433.312-.784.477-.975.598-1.06.17-.106.39-.106.462-.106.371 0 .382-.288.382-.32 0-.096-.043-.32-.444-.32Zm0 .233c.137 0 .21.025.21.086 0 .063-.049.087-.148.087-.086 0-.36 0-.595.15-.16.11-.347.322-.682 1.164-.136.347-.756 1.835-1.388 3.36-.756 1.81-1.314 3.148-1.599 3.755-.347.744-.397.942-.52.942-.15 0-.211-.173-.447-.768L5.496 5.884c-.273-.695-.46-.83-.893-.955-.186-.05-.396-.05-.47-.05-.075 0-.1-.037-.1-.087 0-.074.124-.086.322-.086.595 0 1.302.037 1.45.037.125 0 .682-.037 1.153-.037.223 0 .335.025.335.086 0 .063-.037.087-.124.087-.136 0-.36.013-.471.062a.248.248 0 0 0-.161.248c0 .162.149.546.335 1.03l2.38 6.346c.718-1.661 2.38-5.987 2.652-6.88.062-.186.111-.36.111-.47 0-.1-.037-.224-.16-.286-.15-.05-.336-.05-.472-.05-.074 0-.136-.012-.136-.074 0-.074.074-.1.272-.1.496 0 1.067.038 1.215.038.075 0 .608-.037.967-.037Z"/>
    <path fill="#fff" d="m8.906 14.554.115-.001c1.078-.01 1.939-.931 2.243-1.417.23-.365.425-1.065.222-1.836-.256-.973-1.049-1.824-2.356-2.531l-.478-.39c-1.27-1.043-1.368-2.49-1.368-2.91 0-1.167.895-1.952 2.227-1.952.367 0 .677.034.976.105.19.04.261.048.33.048.19 0 .218.118.218.188l-.005.081c-.01.137-.036.459-.036 1 0 .114 0 .351-.187.351-.169 0-.19-.164-.198-.235a1.7 1.7 0 0 0-.12-.468c-.078-.144-.349-.48-1.172-.48-.68 0-1.138.429-1.138 1.067 0 .434.137 1.04 1.2 1.871l.286.225c1.58.834 2.584 1.918 2.965 3.21.355 1.206.047 2.247-.19 2.672a4.709 4.709 0 0 1-1.502 1.566 3.754 3.754 0 0 1-1.915.565h-.117v-.729Z"/>
    <path fill="#E2A7BF" d="M9.511 3.4c-1.402 0-2.344.831-2.344 2.068 0 .432.102 1.925 1.411 3l.459.377.017.014.02.011c1.278.691 2.052 1.519 2.3 2.459.193.735.008 1.399-.209 1.744-.292.467-1.117 1.353-2.145 1.362l-.231.003v.961h.234A3.874 3.874 0 0 0 11 14.815a4.83 4.83 0 0 0 1.542-1.608c.247-.441.567-1.519.2-2.762-.388-1.318-1.405-2.422-3.02-3.282l-.27-.212c-1.024-.8-1.155-1.37-1.155-1.78 0-.577.401-.95 1.021-.95.782 0 1.017.321 1.07.42.04.072.097.31.106.417.035.288.19.347.314.347.201 0 .304-.158.304-.468 0-.537.025-.855.035-.99l.006-.091c0-.14-.088-.305-.335-.305-.06 0-.125-.007-.31-.046a4.186 4.186 0 0 0-.996-.107Zm0 .232c.398 0 .694.041.949.103.193.04.275.05.357.05.082 0 .102.021.102.072 0 .05-.041.387-.041 1.081 0 .163-.02.235-.071.235-.062 0-.072-.051-.082-.133a1.785 1.785 0 0 0-.133-.51c-.06-.112-.336-.54-1.275-.54-.703 0-1.254.438-1.254 1.183 0 .581.265 1.198 1.245 1.963l.285.224c3.816 2.02 3.193 4.933 2.745 5.734a4.635 4.635 0 0 1-1.462 1.525 3.657 3.657 0 0 1-1.854.546v-.496c1.097-.01 1.996-.922 2.34-1.472.43-.685.953-2.84-2.177-4.532l-.459-.378C7.645 7.4 7.4 6.162 7.4 5.468c0-1.09.816-1.836 2.111-1.836Z"/>
    <path fill="#fff" d="M9.004 14.67s-.39.002-.861-.186l-.225.498c.275.088.564.146.862.174.306.028.678-.003 1.063-.101l-.257-.47a2.11 2.11 0 0 1-.582.085Z"/>
  </g>
  <defs>
    <clipPath id="a">
      <path fill="#fff" d="M0 0h18v18H0z"/>
    </clipPath>
  </defs>
</svg>
