<svg xmlns="http://www.w3.org/2000/svg" viewBox="0 0 18 18">
  <g clip-path="url(#a)">
    <path fill="#fff" d="M0 0h18v18H0V0Z"/>
    <path fill="#007DC5" d="M4.47 5.004h1.355c.148 0 .258.037.357.11.086.075.16.161.21.272l2.119 5.48c.073.172.135.37.196.59.062.21.124.444.185.678.098-.48.21-.899.358-1.256l2.094-5.492a.555.555 0 0 1 .197-.259.568.568 0 0 1 .357-.123h1.356l-3.635 8.99H8.104l-3.635-8.99Z"/>
  </g>
  <defs>
    <clipPath id="a">
      <path fill="#fff" d="M0 0h18v18H0z"/>
    </clipPath>
  </defs>
</svg>
