<svg xmlns="http://www.w3.org/2000/svg" viewBox="0 0 18 18">
  <g clip-path="url(#a)">
    <path fill="url(#b)" d="M0 0h18v18H0V0Z"/>
    <path fill="#fff" d="M8.415 3.542 3.55 8.414c-.107.085-.022.254.105.212l4.062-.89.91-4.066c.02-.106-.043-.17-.127-.17-.029 0-.057.014-.085.042Zm.952.128.889 4.066 4.061.89c.127.042.212-.127.127-.212L9.578 3.542c-.028-.028-.056-.042-.084-.042-.085 0-.148.064-.127.17ZM3.55 9.579l4.865 4.871c.085.106.232.022.211-.106l-.91-4.066-4.061-.91h-.021a.122.122 0 0 0-.084.21Zm10.767-.212-4.061.91-.889 4.067c-.042.128.127.212.211.106l4.866-4.871a.122.122 0 0 0-.084-.212h-.043Z"/>
  </g>
  <defs>
    <linearGradient id="b" x1="26.399" x2="-5.26" y1="-15.096" y2="37.042" gradientUnits="userSpaceOnUse">
      <stop stop-color="#FF902B"/>
      <stop offset="1" stop-color="#FF472D"/>
    </linearGradient>
    <clipPath id="a">
      <path fill="#fff" d="M0 0h18v18H0z"/>
    </clipPath>
  </defs>
</svg>
