<svg xmlns="http://www.w3.org/2000/svg" viewBox="0 0 18 18">
  <g clip-path="url(#a)">
    <path fill="#231F20" d="M0 0h18v18H0V0Z"/>
    <path fill="#fff" d="M13.999 6.367a.822.822 0 0 0-.278.055c-.111.028-.194.084-.305.14a.787.787 0 0 0-.278.25 1.27 1.27 0 0 0-.194.388c-.223.75-.5 1.638-.806 2.665-.306 1-.639 2.082-1 3.248h-.444L8.916 7.7l-1.833 5.385h-.417C6.333 11.92 6 10.725 5.638 9.504a65.25 65.25 0 0 1-.694-2.498.569.569 0 0 0-.139-.25.841.841 0 0 0-.222-.222 1.3 1.3 0 0 0-.278-.14c-.11-.027-.194-.027-.305-.027v-.361h2.833v.36c-.195 0-.416.029-.611.056-.194.056-.278.112-.278.195 0 .028 0 .083.028.11 0 .056.028.112.028.14.083.277.222.777.389 1.443.194.667.472 1.666.86 2.998L9 6.119h.473l1.75 5.274c.25-.805.444-1.527.61-2.138.167-.61.306-1.138.417-1.554.083-.306.14-.5.167-.611a.94.94 0 0 0 .028-.278c0-.111-.084-.194-.223-.277a1.83 1.83 0 0 0-.75-.167v-.361H14v.36Z"/>
  </g>
  <defs>
    <clipPath id="a">
      <path fill="#fff" d="M0 0h18v18H0z"/>
    </clipPath>
  </defs>
</svg>
