<svg xmlns="http://www.w3.org/2000/svg" viewBox="0 0 18 18">
  <g clip-path="url(#a)">
    <path fill="#D92231" d="M0 0h18v18H0V0Z"/>
    <path fill="#fff" d="M9.115 7.338c.338-.355 1.127-1.331 2.006-2.983.147-.283.28-.355.477-.355h1.63c.144 0 .319.072.224.355-.65 1.917-2.124 3.6-2.94 4.47.891.845 2.47 2.84 3.217 4.797.063.177.03.378-.344.378h-1.947c-.201 0-.354-.018-.49-.353-.482-1.201-1.238-2.463-2.098-3.291-.942.997-1.657 2.228-2.141 3.29-.116.262-.232.354-.49.354H4.435c-.12 0-.242-.138-.165-.353.531-1.456 1.589-3.268 3.1-4.632-1.183-1.436-2.33-3.186-2.78-4.66-.07-.222.05-.355.215-.355H6.9c.228 0 .345.093.46.355.512 1.2 1.219 2.345 1.755 2.983Z"/>
  </g>
  <defs>
    <clipPath id="a">
      <path fill="#fff" d="M0 0h18v18H0z"/>
    </clipPath>
  </defs>
</svg>
