<svg xmlns="http://www.w3.org/2000/svg" viewBox="0 0 18 18">
  <g clip-path="url(#a)">
    <path fill="#1E23AA" d="M0 0h18v18H0V0Z"/>
    <path fill="#fff" d="M14 5h-3.183L9.43 6.659l.58.694 1.32-1.577h.86L10.01 8.38 7.184 5H4l2.936 3.51h1.142l-.518-.644-1.75-2.091h.86l2.747 3.284-2.747 3.284h-.86l1.75-2.091.518-.643H6.936L4 13.119h3.183l2.828-3.38 2.178 2.604h-.859l-1.32-1.578-.58.695 1.387 1.658H14l-3.396-4.06L14 5Z"/>
  </g>
  <defs>
    <clipPath id="a">
      <path fill="#fff" d="M0 0h18v18H0z"/>
    </clipPath>
  </defs>
</svg>
