<svg xmlns="http://www.w3.org/2000/svg" viewBox="0 0 18 18">
  <g clip-path="url(#a)">
    <path fill="#103426" d="M0 0h18v18H0V0Z"/>
    <path fill="#00D2B9" d="M12.424 14H6.372a.736.736 0 0 1-.694-.48.703.703 0 0 1 .232-.803l1.349-1.09H4.731a.736.736 0 0 1-.693-.48.705.705 0 0 1 .218-.803L6.87 8.198a.52.52 0 0 1 .717.06.502.502 0 0 1-.061.707L5.51 10.63h3l4.084-3.285H5.691c-.45 0-.874-.18-1.203-.49a1.64 1.64 0 0 1-.486-1.176c0-.444.17-.863.499-1.187A1.695 1.695 0 0 1 5.69 4h5.881c.316 0 .583.192.693.48.11.287.013.6-.231.803L10.722 6.35h2.65c.315 0 .583.192.693.48a.707.707 0 0 1-.23.803l-3.732 2.997h2.32a1.694 1.694 0 0 1 1.691 1.678v.024A1.677 1.677 0 0 1 12.424 14Zm-5.262-.995h5.262a.724.724 0 0 0 .486-.192.657.657 0 0 0 .194-.48v-.024a.707.707 0 0 0-.194-.48.677.677 0 0 0-.486-.19H8.863l-1.701 1.366Zm-1.47-8.01a.724.724 0 0 0-.487.192.652.652 0 0 0-.194.48c0 .18.073.347.194.479a.677.677 0 0 0 .486.192H9.13l1.665-1.343H5.69Z"/>
  </g>
  <defs>
    <clipPath id="a">
      <path fill="#fff" d="M0 0h18v18H0z"/>
    </clipPath>
  </defs>
</svg>
