<svg xmlns="http://www.w3.org/2000/svg" viewBox="0 0 18 18">
  <g clip-path="url(#a)">
    <path fill="#fff" d="M0 0h18v18H0V0Z"/>
    <g clip-path="url(#b)">
      <path fill="#F6EF63" fill-rule="evenodd" d="M6.49 5.718c.606-.207 1.27-.286 1.9-.144a2.286 2.286 0 0 1 1.409.94l.002.005A5.514 5.514 0 0 0 8.56 7.847c-.418.631-.711 1.358-.77 2.116-.046.6.066 1.235.415 1.736l-.004.003a4.891 4.891 0 0 1-1.901.922c-.37.082-.754.115-1.132.074a2.53 2.53 0 0 1-1.09-.367 2.23 2.23 0 0 1-.736-.766c-.25-.431-.35-.938-.335-1.433.02-.663.226-1.31.54-1.89a5.547 5.547 0 0 1 1.157-1.457 5.183 5.183 0 0 1 1.785-1.067Zm.052.507c-.507.057-.985.276-1.394.574a3.61 3.61 0 0 0-1.085 1.273c-.184.372-.302.786-.287 1.203.01.326.116.656.328.907.208.249.512.407.83.459.392.067.797-.004 1.166-.144.373-.144.714-.36 1.014-.625.445-.394.802-.897.991-1.462.132-.403.178-.85.045-1.258a1.31 1.31 0 0 0-.612-.752c-.3-.168-.657-.212-.996-.175Z" clip-rule="evenodd"/>
      <path fill="#D7303A" fill-rule="evenodd" d="M11.552 5.632a3.527 3.527 0 0 1 1.349-.104c.324.043.643.14.928.302.3.17.56.41.752.697.225.336.354.73.397 1.13.08.774-.125 1.554-.48 2.238a5.515 5.515 0 0 1-1.25 1.582 5.1 5.1 0 0 1-1.908 1.079c-.461.135-.95.196-1.43.14a2.483 2.483 0 0 1-1.121-.406 2.257 2.257 0 0 1-.588-.587l.004-.003a5.59 5.59 0 0 0 1.323-1.462c.364-.586.618-1.25.68-1.94.055-.614-.055-1.261-.407-1.779l-.002-.003a5.026 5.026 0 0 1 1.753-.884Zm1.199 1.92a2.22 2.22 0 0 0-.418.045c-.701.144-1.325.564-1.79 1.098-.43.499-.745 1.125-.77 1.79-.011.347.074.705.287.983.178.24.444.407.732.482a2.04 2.04 0 0 0 1.06-.033 3.17 3.17 0 0 0 1.06-.541 3.542 3.542 0 0 0 1.125-1.447c.162-.402.243-.849.154-1.277a1.35 1.35 0 0 0-.479-.795c-.269-.215-.62-.307-.961-.305Z" clip-rule="evenodd"/>
      <path fill="#F4971E" d="M8.56 7.847a5.48 5.48 0 0 1 1.241-1.328c.352.517.462 1.164.407 1.779-.062.69-.316 1.353-.68 1.939a5.584 5.584 0 0 1-1.323 1.462c-.35-.501-.46-1.135-.415-1.736.059-.759.352-1.485.77-2.116Z"/>
    </g>
  </g>
  <defs>
    <clipPath id="a">
      <path fill="#fff" d="M0 0h18v18H0z"/>
    </clipPath>
    <clipPath id="b">
      <path fill="#fff" d="M3 5.5h12v7.218H3z"/>
    </clipPath>
  </defs>
</svg>
