<svg xmlns="http://www.w3.org/2000/svg" viewBox="0 0 18 18">
  <g clip-path="url(#a)">
    <path fill="#1D1D1B" d="M0 0h18v18H0V0Z"/>
    <path fill="#fff" fill-rule="evenodd" d="M13.5 8.895V6.732c0-.067 0-.334-.075-.654-.074-.313-.218-.678-.504-.964-.644-.647-1.764-.716-2.566-.716h-.999c-1.68 0-2.832.053-3.589.417-.638.306-.866.87-.946 1.263-.053.26-.042.447-.042.447l2.463.003c.022-.22.066-.36.22-.45v.003c.174-.099.49-.128 1.071-.128.582 0 .803.006 1.055.01.397.006.683.046.89.116.582.2.529.63.529 1.137v.572s-.318-.731-1.755-.731H7.76c-.929 0-1.806.039-2.37.372-.583.344-.822.982-.876 1.467-.01.08-.014.153-.014.221v.396c0 1.33.647 2.178 2.346 2.178h1.819c.761 0 1.983-.132 2.342-1.24v1.108h2.492V8.896l.001-.001Zm-2.566 0c.046.067.067.14.067.204v.223c-.022.396-.223.728-1.829.728l-1.27.002c-.528 0-.954-.326-.954-.696v-.214c0-.06.022-.15.087-.244.131-.192.448-.401 1.144-.401 1.037 0 1.375.021 1.902.021.455 0 .734.183.853.377Z" clip-rule="evenodd"/>
    <path fill="#68B339" d="M4.6 13h9v1.5h-9z"/>
  </g>
  <defs>
    <clipPath id="a">
      <path fill="#fff" d="M0 0h18v18H0z"/>
    </clipPath>
  </defs>
</svg>
