<svg xmlns="http://www.w3.org/2000/svg" viewBox="0 0 18 18">
  <g clip-path="url(#a)">
    <path fill="#fff" d="M0 0h18v18H0V0Z"/>
    <path fill="#375F9B" d="M9.371 3.5H4V9c0 3.044 2.398 5.5 5.371 5.5 2.973 0 5.371-2.456 5.371-5.5 0-3.024-2.398-5.5-5.37-5.5Zm3.806 9.397H9.37c-2.1 0-3.805-1.746-3.805-3.897S7.27 5.103 9.37 5.103 13.177 6.85 13.177 9v3.897ZM9.37 6.666c1.249 0 2.28 1.035 2.28 2.334v2.314H9.37c-1.248 0-2.28-1.035-2.28-2.334 0-1.259 1.032-2.314 2.28-2.314Z"/>
  </g>
  <defs>
    <clipPath id="a">
      <path fill="#fff" d="M0 0h18v18H0z"/>
    </clipPath>
  </defs>
</svg>
