<svg xmlns="http://www.w3.org/2000/svg" viewBox="0 0 18 18">
  <g clip-path="url(#a)">
    <path fill="#fff" d="M0 0h18v18H0V0Z"/>
    <path fill="#0F9BD7" fill-rule="evenodd" d="M5.379 9.992s.717.194.887-.13c.399-.757-.742-3.178-.742-3.178s1.323 3.134 2.841 4.584c.833.794 1.788.842 2.444.48 1.34-.74 3.132-4.418 3.33-4.787.2-.37-1.303 3.327-1.828 4.158-.524.833-.977 1.793-2.678 1.849-2.034.066-4.254-2.976-4.254-2.976Z" clip-rule="evenodd"/>
    <path fill="#ACD5F1" fill-rule="evenodd" d="M3.577 7.606c0-.403.32-.731.716-.731.396 0 .716.328.716.731 0 .404-.32.732-.716.732a.724.724 0 0 1-.716-.732Z" clip-rule="evenodd"/>
    <path fill="#1A3967" fill-rule="evenodd" d="M8.601 4.003s.525-.185.597-.093c.152.194.127.388-.29.87-.416.48-1.61 1.755-1.61 1.755s2.448-2.24 3.13-2.015c.562.185.327.998.236 1.294-.09.296-1.194 3.346-5.194 9.685-.044.07 5.88-7.153 6.135-10.22.217-2.607-1.031-2.275-1.122-2.255-1.06.216-1.882.979-1.882.979Z" clip-rule="evenodd"/>
  </g>
  <defs>
    <clipPath id="a">
      <path fill="#fff" d="M0 0h18v18H0z"/>
    </clipPath>
  </defs>
</svg>
