<svg xmlns="http://www.w3.org/2000/svg" viewBox="0 0 18 18">
  <g clip-path="url(#a)">
    <path d="M0 0h18v18H0V0Z"/>
    <g clip-path="url(#b)">
      <path fill="#fff" d="M6.23 9.029h.164l-.086-.218-.078.218Zm-.17.212.242-.576h.065l.243.576h-.125l-.052-.146h-.217l-.059.146H6.06Zm.57-.027-.007-.106a.262.262 0 0 0 .17.073.139.139 0 0 0 .08-.02.067.067 0 0 0 .006-.099c-.02-.026-.06-.04-.144-.08-.08-.039-.118-.092-.118-.165a.17.17 0 0 1 .052-.119c.072-.066.197-.04.21-.04a.817.817 0 0 1 .065.02l.007.1a.267.267 0 0 0-.072-.04c-.079-.027-.164-.007-.164.06 0 .033.02.052.066.079.098.053.15.073.183.119.046.053.046.165-.026.218a.256.256 0 0 1-.15.046.451.451 0 0 1-.158-.046Zm.544.027v-.51c-.046 0-.098.007-.17.014l.006-.086h.44l.006.086c-.092-.014-.144-.014-.17-.014v.503h-.112v.007Zm.57-.06c.092 0 .171-.073.171-.231 0-.014 0-.14-.079-.205a.138.138 0 0 0-.091-.027c-.118 0-.17.113-.17.232.006.158.084.231.17.231Zm0 .073c-.17 0-.288-.126-.288-.298 0-.178.118-.297.289-.297.17 0 .288.119.288.297 0 .172-.118.298-.288.298Zm.381-.013v-.576h.059l.341.39v-.39h.079v.576h-.06l-.34-.39v.39h-.079Zm.787 0 .066-.576h.059l.203.404.197-.404h.059l.065.576h-.118l-.033-.358-.157.331h-.052l-.164-.33-.033.35h-.092v.007Zm.86-.212h.163L9.85 8.81l-.079.218ZM9.6 9.24l.242-.576h.066l.243.576h-.125l-.052-.146h-.217l-.059.146H9.6Zm.701-.318c.014 0 .033.007.046.007.092 0 .118-.053.118-.1 0-.072-.052-.099-.118-.099h-.039v.192h-.007Zm-.104.318v-.57c.032-.006.072-.006.13-.006.053 0 .099.007.132.02.052.02.118.06.118.146a.198.198 0 0 1-.033.099.187.187 0 0 1-.092.06l.204.257h-.132l-.177-.245h-.039v.245h-.111V9.24Zm.59 0v-.51c-.046 0-.099.007-.17.014l.006-.086h.44l.006.086c-.092-.014-.145-.014-.17-.014v.503h-.112v.007Zm.354-.576h.111v.576h-.111v-.576Zm.223.576v-.576h.059l.341.39v-.39h.079v.576h-.06l-.34-.39v.39h-.08Z"/>
      <path fill="#fff" d="M15.917 7.99a.223.223 0 0 0-.197-.105H10.1c-.092 0-.237 0-.388.152a.548.548 0 0 0-.098.139c-.046.086-.079.145-.236.145h-.82c-.15 0-.19-.06-.236-.145a.596.596 0 0 0-.098-.14c-.151-.151-.296-.151-.387-.151H2.223c-.092 0-.164.04-.197.106-.04.066-.033.152.013.224l.098.172c.053.093.125.106.177.12.046.006.08.013.112.079l.092.159c.072.132.15.145.21.158.046.007.091.014.15.12.06.105.145.264.361.33.02.007 2.092.615 2.099.615.216.073.275.152.34.252.04.059.152.218.414.29l1.994.543a.411.411 0 0 0 .413-.106l.36-.344c.053-.046.08-.066.112-.066.033 0 .06.02.112.066l.36.344c.066.053.197.159.414.106l1.994-.543a.669.669 0 0 0 .413-.29c.065-.1.124-.186.34-.252l2.1-.615c.21-.066.301-.225.36-.33.06-.106.098-.113.144-.12.06-.013.145-.026.217-.158l.092-.16c.039-.065.065-.072.111-.079.053-.013.125-.026.177-.119l.099-.172c.046-.079.052-.158.013-.224Zm-3.837.464v.992H5.863v-.992h6.217Zm-2.23 2.453c-.15 0-.203-.132-.243-.238-.045-.119-.288-.9-.36-1.11h.308c.164.284.466.786.597.998.026.04.092.152.21.225-.473.125-.46.125-.512.125Zm.728-.198c-.17 0-.262-.132-.315-.218a54.646 54.646 0 0 1-.557-.933h.34c.217.232.67.714.847.9.026.026.085.086.17.139-.42.105-.42.112-.485.112Zm.695-.192c-.13 0-.23-.092-.295-.159a36.732 36.732 0 0 1-.76-.807h.373c.236.18.78.582.997.728.04.027.118.073.21.106-.485.132-.472.132-.525.132Zm.88-.37c-.06.092-.106.139-.21.139a.512.512 0 0 1-.283-.106c-.177-.126-.59-.423-.852-.622h.446c.544.271.774.397.924.443l.08.02c-.047.033-.073.08-.106.126Zm.163-.258c-.125 0-.289-.086-.787-.338h.485l.683.172c.045.014.091.02.13.034-.386.119-.445.132-.51.132Zm1.325-.37c-.4.118-.466.145-.577.145-.079 0-.177-.013-.341-.06l-.538-.138v-.192l1.456.244Zm.42-.12c-.131.033-.25.02-.433-.013l-1.43-.238v-.152l2.341.264-.478.14Zm.879-.443c-.02.033-.04.066-.06.093-.078.112-.13.106-.38.08l-2.315-.265v-.146l2.67.159c.019 0 .071.006.13.006-.013.02-.032.047-.045.073Zm.452-.443s-.052.086-.072.132c-.079.126-.118.126-.341.106l-2.787-.165v-.12h3.233c-.013.02-.02.034-.033.047Zm.4-.37-.072.125c-.053.08-.072.08-.243.08H9.673c.06-.073.079-.146.144-.212.112-.112.204-.112.289-.112h5.62c.04 0 .066.013.08.033a.108.108 0 0 1-.014.086Zm-7.411 2.731a.69.69 0 0 0 .079-.159c.046-.118.301-.932.374-1.157h.282c.072.232.327 1.039.373 1.158a.492.492 0 0 0 .08.158c-.007-.006-.02-.013-.027-.02l-.36-.343c-.06-.053-.119-.106-.204-.106-.085 0-.151.053-.203.106l-.361.343a.143.143 0 0 0-.033.02Zm-.8-.099a.618.618 0 0 0 .21-.225c.13-.205.433-.714.597-.999h.308a52.36 52.36 0 0 1-.36 1.112c-.04.105-.093.238-.244.238-.052.006-.039.006-.511-.126Zm-.695-.185a.581.581 0 0 0 .17-.139c.177-.179.636-.668.846-.9h.341c-.19.325-.446.755-.557.933-.053.086-.144.218-.315.218-.066.007-.072 0-.485-.112Zm-.735-.205a.764.764 0 0 0 .21-.106c.216-.146.76-.549.997-.728h.374c-.23.252-.604.649-.761.807-.066.066-.157.16-.295.16-.053 0-.046 0-.525-.133Zm-.459-.37c.026-.007.053-.007.079-.02.157-.047.387-.166.924-.444h.446c-.268.199-.675.496-.852.622a.495.495 0 0 1-.282.106c-.105 0-.151-.046-.21-.139-.033-.04-.066-.086-.105-.126Zm-.57-.252c.039-.006.085-.02.13-.033l.683-.172h.485c-.498.251-.662.337-.787.337-.072-.006-.131-.02-.512-.132Zm.636-.49v.193l-.538.138c-.164.04-.263.06-.341.06-.112 0-.177-.027-.577-.146l1.456-.244ZM3.416 9.26l2.342-.264v.152l-1.43.238c-.19.033-.308.046-.433.013l-.479-.139Zm-.459-.377c.053-.006.112-.006.131-.006l2.67-.159v.146l-2.316.264c-.249.027-.301.033-.38-.08a.861.861 0 0 1-.059-.092.273.273 0 0 0-.046-.073Zm-.433-.41h3.234v.12l-2.788.165c-.223.013-.262.02-.34-.106-.027-.046-.073-.132-.073-.132-.013-.02-.026-.033-.033-.047Zm-.38-.416c.013-.02.04-.033.079-.033h5.62c.085 0 .184 0 .289.112.065.066.085.139.144.212H2.472c-.17 0-.19 0-.243-.08l-.072-.125c-.02-.033-.026-.066-.013-.086Z"/>
    </g>
  </g>
  <defs>
    <clipPath id="a">
      <path fill="#fff" d="M0 0h18v18H0z"/>
    </clipPath>
    <clipPath id="b">
      <path fill="#fff" d="M2 7.885h14v3.223H2z"/>
    </clipPath>
  </defs>
</svg>
