<svg xmlns="http://www.w3.org/2000/svg" viewBox="0 0 18 18">
  <g clip-path="url(#a)">
    <path fill="#151923" d="M0 0h18v18H0V0Z"/>
    <path fill="#fff" d="M12.015 8.936c.12-.176.224-.328.326-.482.27-.414.539-.83.813-1.241a.201.201 0 0 1 .14-.08c.495-.01.99-.013 1.485-.016.04 0 .08.017.12.026-.018.041-.028.089-.054.124a368.15 368.15 0 0 1-1.436 1.86c-.063.082-.06.138.005.218.225.273.439.554.66.83.296.37.595.736.892 1.104.056.069.044.097-.045.112a.33.33 0 0 1-.054.004c-.51 0-1.021.002-1.531-.006a.253.253 0 0 1-.18-.093c-.298-.44-.588-.885-.88-1.33-.075-.115-.145-.233-.219-.35-.007-.01-.022-.017-.055-.042v.13c0 .518-.002 1.036.002 1.553.001.105-.031.142-.137.14a75.683 75.683 0 0 0-1.233-.023c-.083 0-.104-.034-.104-.112l-.002-4.954c0-.069.008-.138.012-.206.004-.075.05-.1.117-.1.415-.002.83 0 1.246-.002.086 0 .1.048.1.12v2.701c0 .03.006.06.012.115Zm-6.35 1.826c-.117.15-.206.294-.324.408-.251.244-.56.357-.913.34-.14-.006-.285.015-.423-.009-.493-.086-.855-.357-.965-.855-.091-.411-.038-.823.282-1.147.085-.086.196-.15.302-.213.357-.216.753-.317 1.162-.377.172-.025.346-.052.51-.106a.48.48 0 0 0 .226-.177c.081-.117.07-.23-.032-.333a.67.67 0 0 0-.45-.2c-.564-.034-1.081.102-1.531.456-.068.054-.126.122-.193.177-.025.02-.063.023-.096.034-.005-.033-.015-.067-.015-.1 0-.109.005-.218.004-.326-.003-.237-.012-.473-.009-.71.001-.037.043-.083.078-.11a2.716 2.716 0 0 1 1.286-.554 3.63 3.63 0 0 1 1.084.014c.323.05.598.177.83.393.24.222.36.504.361.836.004.966.013 1.931.018 2.897.001.273 0 .273-.268.273-.277 0-.555-.002-.832.002-.083 0-.12-.024-.113-.112.01-.127.015-.254.02-.38.002-.035 0-.07 0-.121Zm-1.321-.542c0 .167.104.319.245.377.178.074.574-.027.71-.19.198-.242.249-.525.28-.819.008-.085-.036-.087-.102-.063-.217.08-.436.154-.653.233-.085.031-.174.06-.247.11-.122.084-.252.172-.233.352Zm4.113-2.054c.098-.35.203-.685.462-.955.226-.235.495-.311.81-.285.163.013.296.093.437.156.081.036.085.11.08.186l-.038.781c-.008.178-.013.356-.023.534-.002.032-.024.063-.036.094-.032-.014-.066-.024-.095-.042-.12-.07-.232-.17-.362-.21-.288-.09-.636.058-.825.35-.152.237-.193.507-.233.775-.083.548-.044 1.097-.026 1.646.006.192.006.194-.19.194H7.391c-.184 0-.211-.027-.211-.207V7.236c0-.144.02-.163.164-.164H8.36c.137 0 .146.006.14.14-.012.288-.029.574-.043.86-.002.032 0 .063 0 .094Z"/>
  </g>
  <defs>
    <clipPath id="a">
      <path fill="#fff" d="M0 0h18v18H0z"/>
    </clipPath>
  </defs>
</svg>
