<svg xmlns="http://www.w3.org/2000/svg" viewBox="0 0 18 18">
  <g clip-path="url(#a)">
    <path fill="#D0043C" d="M0 0h18v18H0V0Z"/>
    <path fill="#fff" d="M9.555 11.52H7.946V6.554h1.617c.992 0 1.461.633 1.461 1.236a1.119 1.119 0 0 1-.63 1.032v.008a1.22 1.22 0 0 1 .962 1.198c0 .708-.524 1.492-1.8 1.492m-.224-4.198h-.454v1.312h.554a.684.684 0 0 0 .662-.671c0-.377-.246-.641-.762-.641m.177 2.057h-.63v1.373h.592c.624 0 .932-.27.932-.723 0-.384-.324-.648-.893-.648m5.235-2.065h-1.648v1.319h1.624l.007.746h-1.631v2.14h-.93V6.554H15l-.255.76Zm-8.299 4.173-.501-1.244H4.137l-.47 1.244H2.75L4.72 6.5h.675l2.039 4.989h-.988Zm-1.2-3.127a5.066 5.066 0 0 1-.193-.619h-.009a3.838 3.838 0 0 1-.185.603l-.438 1.153h1.23l-.405-1.137Z"/>
  </g>
  <defs>
    <clipPath id="a">
      <path fill="#fff" d="M0 0h18v18H0z"/>
    </clipPath>
  </defs>
</svg>
