<svg xmlns="http://www.w3.org/2000/svg" viewBox="0 0 18 18">
  <g clip-path="url(#a)">
    <path d="M0 0h18v18H0V0Z"/>
    <path fill="#fff" fill-rule="evenodd" d="M13.25 4.657h-1.904v.589l-.08-.05c-.672-.417-1.25-.775-2.499-.775C6.29 4.42 4.25 6.44 4.25 9c0 2.542 2.04 4.58 4.517 4.58a4.47 4.47 0 0 0 2.58-.809v.572h1.903V4.657ZM8.784 6.138c1.652 0 2.562 1.431 2.562 2.862 0 1.92-1.28 2.879-2.545 2.879-1.298 0-2.562-.96-2.562-2.879 0-1.431.927-2.862 2.545-2.862Z" clip-rule="evenodd"/>
  </g>
  <defs>
    <clipPath id="a">
      <path fill="#fff" d="M0 0h18v18H0z"/>
    </clipPath>
  </defs>
</svg>
