<svg xmlns="http://www.w3.org/2000/svg" viewBox="0 0 18 18">
  <g clip-path="url(#a)">
    <path fill="#253947" d="M0 0h18v18H0V0Z"/>
    <path fill="#fff" d="M3.498 7.711V6.156h.927c.24-.03.484.025.688.155a.872.872 0 0 1 .3.658.713.713 0 0 1-.26.568c-.194.129-.425.19-.658.174h-.997Zm0-1.939v-1.38h.917a1.1 1.1 0 0 1 .579.105.603.603 0 0 1 .299.568.708.708 0 0 1-.26.558c-.226.13-.488.184-.747.154l-.788-.005Zm.997 2.343c.353.036.708-.058.997-.264a1.032 1.032 0 0 0 .394-.862 1.047 1.047 0 0 0-.848-1.047.902.902 0 0 0 .753-.937.952.952 0 0 0-.434-.808 1.386 1.386 0 0 0-.862-.189H3v4.107h1.495Zm2.393-1.55a1.83 1.83 0 0 1 .149-.762.778.778 0 0 1 1.077-.34.808.808 0 0 1 .289.265c.14.256.208.545.194.837.011.27-.04.54-.15.788a.783.783 0 0 1-1.38.054 1.744 1.744 0 0 1-.18-.842Zm-.499 0c0 .802.409 1.605 1.32 1.605.913 0 1.411-.748 1.411-1.595s-.443-1.58-1.335-1.58c-.892 0-1.41.728-1.41 1.57h.014Zm3.683 0c-.01-.262.041-.523.15-.762a.772.772 0 0 1 1.075-.341.792.792 0 0 1 .285.266c.143.255.21.545.195.837.016.27-.035.542-.15.788a.782.782 0 0 1-1.041.368.823.823 0 0 1-.34-.314 1.815 1.815 0 0 1-.174-.842Zm-.498 0c0 .802.409 1.605 1.316 1.605s1.41-.748 1.41-1.595-.453-1.58-1.326-1.58c-.872 0-1.415.728-1.415 1.57h.015Zm5.243-1.236-1.675 2.417h1.675v.369h-2.243v-.37l1.62-2.302h-1.495V5.07h2.118v.26ZM5.218 12.18H3.942l.633-1.968.643 1.969Zm-.314-2.492H4.33L3 13.77h.434l.363-1.196h1.52l.4 1.196h.498L4.904 9.688Zm4.799 2.249a.922.922 0 0 1 .878-.928.842.842 0 0 1 .842.838c.003.03.003.06 0 .09h-1.72Zm1.725.921a.852.852 0 0 1-.822.589.927.927 0 0 1-.803-.474 1.495 1.495 0 0 1-.1-.698h2.233c0-.842-.383-1.634-1.33-1.634a1.456 1.456 0 0 0-1.401 1.634c0 .853.474 1.58 1.396 1.58a1.325 1.325 0 0 0 1.29-.892l-.463-.104Zm1.61-1.614a1.047 1.047 0 0 1 .947-.593.952.952 0 0 1 .857.498c.129.303.18.634.15.962v1.66h-.454v-1.88a1.143 1.143 0 0 0-.09-.563.618.618 0 0 0-.498-.279.818.818 0 0 0-.628.31c-.175.235-.26.524-.24.817v1.595h-.488v-3.046h.444v.519ZM6.713 13.77V9.665h.454v4.107h-.454Zm1.386 0V9.665h.453v4.107H8.1Z"/>
  </g>
  <defs>
    <clipPath id="a">
      <path fill="#fff" d="M0 0h18v18H0z"/>
    </clipPath>
  </defs>
</svg>
