<svg xmlns="http://www.w3.org/2000/svg" viewBox="0 0 18 18">
  <g clip-path="url(#a)">
    <path fill="#FF6E00" d="M0 0h18v18H0V0Z"/>
    <path fill="#fff" d="M6.661 8.71 3.554 9.77a5.486 5.486 0 0 1 .43-3.028l2.688 1.901c.017.014.025.025.025.035 0 .011-.017.03-.036.036v-.006Zm2.32-5.21a5.462 5.462 0 0 0-2.941.864l2.257 2.39c.016.016.027.024.04.024.014 0 .027 0 .033-.035.019-.152.611-3.243.611-3.243ZM7.248 7.465a.065.065 0 0 0 0-.027L6.004 4.385A5.53 5.53 0 0 0 4 6.702l3.191.79h.027a.027.027 0 0 0 .03-.027Zm4.09 1.244 3.11 1.062c.035-.255.053-.513.052-.771a5.487 5.487 0 0 0-.48-2.257l-2.692 1.901c-.017.014-.025.025-.025.035 0 .011.02.025.035.03ZM9.63 6.743c0 .027.022.035.035.035.014 0 .025 0 .038-.024l2.26-2.39A5.476 5.476 0 0 0 9.022 3.5l.608 3.243Zm1.152.752h.027L14 6.705a5.53 5.53 0 0 0-2.004-2.317s-1.23 3.04-1.239 3.053v.027a.027.027 0 0 0 .025.027ZM9 14.5a5.506 5.506 0 0 0 5.432-4.674l-2.05.288a.052.052 0 0 0-.052.044 3.532 3.532 0 0 1-2.702 2.317 1.453 1.453 0 1 0-1.271 0 3.53 3.53 0 0 1-2.684-2.317.054.054 0 0 0-.051-.044l-2.06-.288a5.502 5.502 0 0 0 5.433 4.675"/>
  </g>
  <defs>
    <clipPath id="a">
      <path fill="#fff" d="M0 0h18v18H0z"/>
    </clipPath>
  </defs>
</svg>
