<svg xmlns="http://www.w3.org/2000/svg" viewBox="0 0 18 18">
  <g clip-path="url(#a)">
    <path fill="#0D243A" d="M0 0h18v18H0V0Z"/>
    <path fill="#939598" d="M14.48 8.775c-.435.199-1.487 1.133-1.844.832-.475-.377.398-1.133.398-1.685-.02-.556-1.21-.735-2.497-.812-1.072-.081-6.9.455-6.9.475-.158.02-.097.081 0 .081 0 0 2.08.098 3.172.159 1.348.08 2.916.138 3.054.357.158.22 0 .418 0 .418s-.297.585-.415.792a.95.95 0 0 1-.791.459H2.37c-.138 0-.118.077 0 .097 0 0 5.668 1.271 8.86 1.19 2.34-.081 3.411-1.567 3.667-1.884.378-.439.812-.317.832-.378.037-.101-.653-.361-1.25-.101Z"/>
    <path fill="url(#b)" d="M14.48 8.775c-.435.199-1.487 1.133-1.844.832-.475-.377.398-1.133.398-1.685-.02-.556-1.21-.735-2.497-.812-1.072-.081-6.9.455-6.9.475-.158.02-.097.081 0 .081 0 0 2.08.098 3.172.159 1.348.08 2.916.138 3.054.357.158.22 0 .418 0 .418s-.297.585-.415.792a.95.95 0 0 1-.791.459H2.37c-.138 0-.118.077 0 .097 0 0 5.668 1.271 8.86 1.19 2.34-.081 3.411-1.567 3.667-1.884.378-.439.812-.317.832-.378.037-.101-.653-.361-1.25-.101Z"/>
    <path fill="url(#c)" d="M14.48 8.775c-.435.199-1.487 1.133-1.844.832-.475-.377.398-1.133.398-1.685-.02-.556-1.21-.735-2.497-.812-1.072-.081-6.9.455-6.9.475-.158.02-.097.081 0 .081 0 0 2.08.098 3.172.159 1.348.08 2.916.138 3.054.357.158.22 0 .418 0 .418s-.297.585-.415.792a.95.95 0 0 1-.791.459H2.37c-.138 0-.118.077 0 .097 0 0 5.668 1.271 8.86 1.19 2.34-.081 3.411-1.567 3.667-1.884.378-.439.812-.317.832-.378.037-.101-.653-.361-1.25-.101Z"/>
    <path fill="url(#d)" d="M14.48 8.775c-.435.199-1.487 1.133-1.844.832-.475-.377.398-1.133.398-1.685-.02-.556-1.21-.735-2.497-.812-1.072-.081-6.9.455-6.9.475-.158.02-.097.081 0 .081 0 0 2.08.098 3.172.159 1.348.08 2.916.138 3.054.357.158.22 0 .418 0 .418s-.297.585-.415.792a.95.95 0 0 1-.791.459H2.37c-.138 0-.118.077 0 .097 0 0 5.668 1.271 8.86 1.19 2.34-.081 3.411-1.567 3.667-1.884.378-.439.812-.317.832-.378.037-.101-.653-.361-1.25-.101Z"/>
    <path fill="url(#e)" d="M14.48 8.775c-.435.199-1.487 1.133-1.844.832-.475-.377.398-1.133.398-1.685-.02-.556-1.21-.735-2.497-.812-1.072-.081-6.9.455-6.9.475-.158.02-.097.081 0 .081 0 0 2.08.098 3.172.159 1.348.08 2.916.138 3.054.357.158.22 0 .418 0 .418s-.297.585-.415.792a.95.95 0 0 1-.791.459H2.37c-.138 0-.118.077 0 .097 0 0 5.668 1.271 8.86 1.19 2.34-.081 3.411-1.567 3.667-1.884.378-.439.812-.317.832-.378.037-.101-.653-.361-1.25-.101Z"/>
    <path fill="url(#f)" d="M14.48 8.775c-.435.199-1.487 1.133-1.844.832-.475-.377.398-1.133.398-1.685-.02-.556-1.21-.735-2.497-.812-1.072-.081-6.9.455-6.9.475-.158.02-.097.081 0 .081 0 0 2.08.098 3.172.159 1.348.08 2.916.138 3.054.357.158.22 0 .418 0 .418s-.297.585-.415.792a.95.95 0 0 1-.791.459H2.37c-.138 0-.118.077 0 .097 0 0 5.668 1.271 8.86 1.19 2.34-.081 3.411-1.567 3.667-1.884.378-.439.812-.317.832-.378.037-.101-.653-.361-1.25-.101Z"/>
    <path fill="url(#g)" d="M14.48 8.775c-.435.199-1.487 1.133-1.844.832-.475-.377.398-1.133.398-1.685-.02-.556-1.21-.735-2.497-.812-1.072-.081-6.9.455-6.9.475-.158.02-.097.081 0 .081 0 0 2.08.098 3.172.159 1.348.08 2.916.138 3.054.357.158.22 0 .418 0 .418s-.297.585-.415.792a.95.95 0 0 1-.791.459H2.37c-.138 0-.118.077 0 .097 0 0 5.668 1.271 8.86 1.19 2.34-.081 3.411-1.567 3.667-1.884.378-.439.812-.317.832-.378.037-.101-.653-.361-1.25-.101Z"/>
    <path fill="url(#h)" d="M14.48 8.775c-.435.199-1.487 1.133-1.844.832-.475-.377.398-1.133.398-1.685-.02-.556-1.21-.735-2.497-.812-1.072-.081-6.9.455-6.9.475-.158.02-.097.081 0 .081 0 0 2.08.098 3.172.159 1.348.08 2.916.138 3.054.357.158.22 0 .418 0 .418s-.297.585-.415.792a.95.95 0 0 1-.791.459H2.37c-.138 0-.118.077 0 .097 0 0 5.668 1.271 8.86 1.19 2.34-.081 3.411-1.567 3.667-1.884.378-.439.812-.317.832-.378.037-.101-.653-.361-1.25-.101Z"/>
    <path fill="url(#i)" d="M10.935 11.077c-2.948 0-7.708-1.011-8.45-1.17h6.172A1 1 0 0 0 9.5 9.42c.114-.199.382-.73.414-.792a.406.406 0 0 0-.004-.487c-.125-.2-1.068-.268-2.607-.353l-.49-.029a882.4 882.4 0 0 0-2.917-.146c1.028-.106 4.979-.455 6.351-.455.118 0 .212.004.28.008 1.04.065 2.42.211 2.441.756 0 .207-.138.454-.272.694-.211.382-.43.78-.105 1.035.056.05.13.074.219.074.316 0 .775-.309 1.181-.585.195-.13.382-.256.504-.313.162-.069.345-.105.54-.105.26 0 .471.065.569.113-.159.012-.48.045-.764.374-.012.016-.028.032-.04.053a4.734 4.734 0 0 1-1.08 1.027c-.72.487-1.56.751-2.498.784a6.48 6.48 0 0 1-.288.004Z"/>
  </g>
  <defs>
    <linearGradient id="b" x1="8.659" x2="8.999" y1="13.752" y2="9.413" gradientUnits="userSpaceOnUse">
      <stop offset=".641" stop-color="#fff" stop-opacity="0"/>
      <stop offset=".842" stop-color="#fff"/>
      <stop offset=".979" stop-color="#fff" stop-opacity=".134"/>
      <stop offset="1" stop-color="#fff" stop-opacity="0"/>
    </linearGradient>
    <linearGradient id="c" x1="9.023" x2="8.972" y1="10.72" y2="7.497" gradientUnits="userSpaceOnUse">
      <stop offset=".457" stop-color="#939598" stop-opacity="0"/>
      <stop offset=".511" stop-color="#86888B" stop-opacity=".109"/>
      <stop offset=".642" stop-color="#6B6C6E" stop-opacity=".37"/>
      <stop offset=".765" stop-color="#555557" stop-opacity=".614"/>
      <stop offset=".874" stop-color="#464648" stop-opacity=".831"/>
      <stop offset=".959" stop-color="#414042"/>
      <stop offset=".971" stop-color="#434345" stop-opacity=".705"/>
      <stop offset=".979" stop-color="#4B4B4D" stop-opacity=".521"/>
      <stop offset=".985" stop-color="#58595B" stop-opacity=".368"/>
      <stop offset=".991" stop-color="#696B6D" stop-opacity=".231"/>
      <stop offset=".996" stop-color="#7D7F82" stop-opacity=".106"/>
      <stop offset="1" stop-color="#939598" stop-opacity="0"/>
    </linearGradient>
    <linearGradient id="d" x1="8.927" x2="9.143" y1="10.732" y2="6.825" gradientUnits="userSpaceOnUse">
      <stop offset=".699" stop-color="#fff" stop-opacity="0"/>
      <stop offset=".907" stop-color="#fff"/>
    </linearGradient>
    <linearGradient id="e" x1="8.373" x2="10.443" y1="10.538" y2="6.71" gradientUnits="userSpaceOnUse">
      <stop offset=".698" stop-color="#fff" stop-opacity="0"/>
      <stop offset="1" stop-color="#fff"/>
    </linearGradient>
    <linearGradient id="f" x1="8.784" x2="8.902" y1="11.775" y2="10.471" gradientUnits="userSpaceOnUse">
      <stop offset=".849" stop-color="#6D6E71"/>
      <stop offset=".905" stop-color="#6F7173" stop-opacity=".629"/>
      <stop offset=".94" stop-color="#76777A" stop-opacity=".397"/>
      <stop offset=".969" stop-color="#808285" stop-opacity=".204"/>
      <stop offset=".995" stop-color="#909294" stop-opacity=".032"/>
      <stop offset="1" stop-color="#939598" stop-opacity="0"/>
    </linearGradient>
    <linearGradient id="g" x1="9.249" x2="9.112" y1="11.726" y2="10.424" gradientUnits="userSpaceOnUse">
      <stop stop-color="#D1D3D4"/>
      <stop offset=".443" stop-color="#B4B6B8" stop-opacity=".557"/>
      <stop offset="1" stop-color="#939598" stop-opacity="0"/>
    </linearGradient>
    <linearGradient id="h" x1="10.033" x2="9.553" y1="12.189" y2="10.879" gradientUnits="userSpaceOnUse">
      <stop stop-color="#939598"/>
      <stop offset=".674" stop-color="#87898C" stop-opacity=".322"/>
      <stop offset=".995" stop-color="#808285" stop-opacity="0"/>
    </linearGradient>
    <linearGradient id="i" x1="3.059" x2="15.988" y1="10.201" y2="7.827" gradientUnits="userSpaceOnUse">
      <stop stop-color="#BCBEC0"/>
      <stop offset=".157" stop-color="#CED0D1"/>
      <stop offset=".478" stop-color="#EFF0F0"/>
      <stop offset=".646" stop-color="#fff"/>
    </linearGradient>
    <clipPath id="a">
      <path fill="#fff" d="M0 0h18v18H0z"/>
    </clipPath>
  </defs>
</svg>
