<svg xmlns="http://www.w3.org/2000/svg" viewBox="0 0 18 18">
  <g clip-path="url(#a)">
    <path fill="#fff" d="M0 0h18v18H0V0Z"/>
    <path fill="#fff" d="M3.75 3.749h10.498v10.497H3.75V3.75Z"/>
    <path fill="#C8202F" d="M10.954 13.145 5.078 7.242c-.146-.147-.398-.145-.581.041l-.334.328-.413-.42v7.053h7.142l.22-.326c.203-.353.047-.588-.158-.773ZM3.75 3.749v2.72l1.79-2.72H3.75Zm2.472 0 6.756 6.782c.445.42.76.71 1.272.358v-7.14H6.222Zm8.026 10.497v-2.202l-2.195 2.202h2.195Z"/>
  </g>
  <defs>
    <clipPath id="a">
      <path fill="#fff" d="M0 0h18v18H0z"/>
    </clipPath>
  </defs>
</svg>
