<svg xmlns="http://www.w3.org/2000/svg" viewBox="0 0 18 18">
  <g clip-path="url(#a)">
    <path fill="#FB0303" d="M0 0h18v18H0V0Z"/>
    <path fill="#fff" fill-rule="evenodd" d="M8.617 18h.997v-4.96h1.033l1.033-.001v.933a1302.326 1302.326 0 0 1 2.78-1.41l-2.78-1.41v.932H9.615V10.39c.928-.151 1.811-.646 2.373-1.407.406-.546.626-1.257.494-1.935-.071-.37-.288-.687-.513-.98-.147-.2-.312-.44-.245-.701a.173.173 0 0 1 .264-.107c.07.055.107.133.146.212a.573.573 0 0 0 .145.212c.176.14.467.06.558-.143.109-.244.022-.536-.145-.733a6.2 6.2 0 0 1 .792-.131c-.209-.327-.577-.523-.951-.59.115-.105.243-.243.205-.414-.013-.118-.12-.2-.23-.221a.912.912 0 0 0-.114-.025c-.11-.02-.223-.04-.273-.15-.018-.032-.033-.07-.05-.108-.054-.13-.113-.271-.271-.274-.192-.015-.266.194-.302.343l-.063-.069c-.106-.117-.214-.236-.358-.304-.139-.067-.318.029-.349.177-.029.133.023.264.072.386l.001.004a2.263 2.263 0 0 0-.614-.088c-.115.002-.248.06-.277.18-.039.147.045.297.165.376.202.138.447.19.68.238-.209.151-.344.382-.433.62-.117.311-.182.637-.247.963-.069.341-.137.683-.265 1.007-.104.257-.27.512-.537.618-.334.137-.753.075-.999-.201.328-.628.442-1.35.427-2.052-.022-.67-.261-1.354-.752-1.824-.532-.521-1.334-.722-2.056-.575-.9.181-1.633.967-1.756 1.877.451-.303 1.013-.473 1.554-.376.309.052.599.203.815.43-.607.03-1.252.178-1.701.615-.298.287-.462.688-.51 1.094a2.06 2.06 0 0 1 1.437-.317c.36.056.707.238.923.536-.522.031-1.068.168-1.464.531-.304.272-.47.675-.474 1.079.242-.161.509-.309.806-.334a.816.816 0 0 1 .655.205c.197.192.312.444.424.692l.08.175c.184.408.41.817.772 1.096.332.26.75.382 1.163.426v1.661h-.945l-.945.001a96.661 96.661 0 0 1-.216-.47l-.067-.147H3.542c.165.365.331.73.498 1.094l-.498 1.094h2.9l.143-.308.142-.308h1.89v4.967V18Z" clip-rule="evenodd"/>
  </g>
  <defs>
    <clipPath id="a">
      <path fill="#fff" d="M0 0h18v18H0z"/>
    </clipPath>
  </defs>
</svg>
