<svg xmlns="http://www.w3.org/2000/svg" viewBox="0 0 18 18">
  <g clip-path="url(#a)">
    <path d="M0 0h18v18H0V0Z"/>
    <path fill="#FF00C3" d="M14.36 10.03c0 .056-.027.14-.055.195.028-.055.028-.139.056-.195Z"/>
    <path fill="#fff" d="M6.313 8.944a2.555 2.555 0 0 0 2.562 2.562 2.71 2.71 0 0 0 1.531-.502L8.958 9l1.671-1.921a2.519 2.519 0 0 0-1.726-.668 2.538 2.538 0 0 0-2.59 2.534Z"/>
    <path fill="#61A60E" d="M12.969 5.213 9.681 9v.028l2.952 4.094a5.482 5.482 0 0 0 1.643-2.646.815.815 0 0 0 .056-.25c.028-.056.028-.14.056-.195a6.58 6.58 0 0 0 .111-1.059 5.658 5.658 0 0 0-1.531-3.76Z"/>
    <path fill="#fff" d="M3.5 9a5.467 5.467 0 0 0 5.458 5.458 5.402 5.402 0 0 0 3.175-1.03l-.891-1.225a3.911 3.911 0 0 1-2.34.752A3.952 3.952 0 0 1 4.948 9a3.97 3.97 0 0 1 6.572-2.98l.975-1.141A5.34 5.34 0 0 0 8.93 3.542C5.923 3.542 3.5 5.992 3.5 9Z"/>
  </g>
  <defs>
    <clipPath id="a">
      <path fill="#fff" d="M0 0h18v18H0z"/>
    </clipPath>
  </defs>
</svg>
