<svg xmlns="http://www.w3.org/2000/svg" viewBox="0 0 18 18">
  <g clip-path="url(#a)">
    <path fill="#D50032" d="M0 0h18v18H0V0Z"/>
    <path fill="#fff" d="m3.297 11.941 4.254-6.433h.405l-3.04 6.822c-.015.025-.028.066-.063.064l-1.849.001c.088-.157.196-.302.293-.454Zm6.751-6.433h.405c1.468 2.218 2.934 4.438 4.402 6.657.047.077.104.148.145.229-.623.001-1.246-.001-1.869.001-.034-.04-.053-.088-.074-.135l-3.009-6.752ZM8.785 7.443c.112-.007.225 0 .336-.003.038.002.078-.004.115.005.039.025.048.075.053.117l.194 1.804c.002.035.008.077-.021.103-.025.03-.066.035-.103.034l-.74-.001c-.058.004-.11-.05-.1-.108.068-.608.14-1.215.208-1.823.006-.047.016-.1.058-.128Zm-.41 3.169c.011-.079.098-.115.17-.114h.947c.071 0 .157.04.166.118l.246 1.778-1.804.001.274-1.783Z"/>
  </g>
  <defs>
    <clipPath id="a">
      <path fill="#fff" d="M0 0h18v18H0z"/>
    </clipPath>
  </defs>
</svg>
