<svg xmlns="http://www.w3.org/2000/svg" viewBox="0 0 18 18">
  <g clip-path="url(#a)">
    <path fill="#80A344" d="M0 0h18v18H0V0Z"/>
    <path fill="#fff" d="M15.171 8.033c-2.499.433-4.315-.941-5.164-1.89a.496.496 0 0 0-.627-.104L6.736 7.666l-2.42-1.32c-.075-.041-.115-.124-.158-.197-.085-.143-.3-.239-.484-.292a.195.195 0 0 0-.094-.003c-.132.028-.2.174-.271.288-.195.315-.39.851-.385 1.062.005.187 1.5.991 2.31 1.27-.675.452-2.445.13-3.04.028-.111-.02-.194.055-.194.168v1.653c0 .462.385.731.578.808.654.308 2.31.832 3.696.462 1.386-.37 2.31-.23 3.234 0 .924.231 5.453.462 6.47-.924.868-1.184.001-2.387-.586-2.623a.406.406 0 0 0-.22-.013Z"/>
  </g>
  <defs>
    <clipPath id="a">
      <path fill="#fff" d="M0 0h18v18H0z"/>
    </clipPath>
  </defs>
</svg>
