<svg xmlns="http://www.w3.org/2000/svg" viewBox="0 0 18 18">
  <g clip-path="url(#a)">
    <path fill="#fff" d="M0 0h18v18H0V0Z"/>
    <path d="M8.427 10.193v2.914c0 .719-.026.732-.04.758l-.078.091c-.026.026-.078.079-.13.092l-.092.052-.04.013-.025.013v.026h2.208v-.026h-.04l-.09-.065-.131-.105-.066-.13c-.013 0-.039-.014-.039-1.124V7.108L7.97 9.003c.13-.052.3-.026.392.079.079.104.079.3.079 1.124"/>
    <path fill="#6FBE4A" fill-rule="evenodd" d="m3.5 8.794.026-.562 4.9-4.9a5.57 5.57 0 0 1 1.347.026l-6.22 6.22a7.645 7.645 0 0 1-.053-.784Zm1.908 4.143a5.578 5.578 0 0 1-.68-.693l2.993-2.993c.13-.052.353-.026.431.079.066.091.066.157.066.784l-2.81 2.823Zm7.03-8.403c.262.196.497.43.707.68l-3.02 3.005V6.873l2.314-2.34Zm-1.058-.68c.3.144.588.327.863.523l-7.671 7.671a5.227 5.227 0 0 1-.523-.863l7.331-7.33Zm-1.294-.431c.353.065.706.183 1.046.313l-7.188 7.188a4.637 4.637 0 0 1-.326-1.045l6.468-6.456ZM3.591 7.8a5.489 5.489 0 0 1 4.405-4.404L3.59 7.8Z" clip-rule="evenodd"/>
    <path fill="#00954C" fill-rule="evenodd" d="M13.275 12.152a5.792 5.792 0 0 1-.666.72l-2.496-2.484V8.99l3.162 3.162Zm.693-1.019c-.144.3-.288.562-.484.837l-3.358-3.372.653-.654 3.189 3.19Zm.431-1.294a6.05 6.05 0 0 1-.326 1.046L10.948 7.76l.693-.679 2.757 2.757Zm-1.712-3.816.628-.614c.522.667.914 1.45 1.084 2.326l-1.712-1.712Zm-.183.183 1.96 1.96c.052.453.047.909-.013 1.36l-2.626-2.627.68-.693Z" clip-rule="evenodd"/>
  </g>
  <defs>
    <clipPath id="a">
      <path fill="#fff" d="M0 0h18v18H0z"/>
    </clipPath>
  </defs>
</svg>
