<svg xmlns="http://www.w3.org/2000/svg" viewBox="0 0 18 18">
  <g clip-path="url(#a)">
    <path fill="#4099DA" d="M0 0h18v18H0V0Z"/>
    <path fill="#fff" d="M9.844 4.458C12.227 4.826 14 6.77 14 9.266c0 2.752-2.17 4.922-5.007 4.922C6.156 14.188 4 12.018 4 9.266c0-2.496 1.801-4.44 4.156-4.808V3.01h1.688v1.447Zm2.199 4.794c0-1.518-.88-2.667-2.199-3.007v2.88H8.142v-2.88c-1.305.34-2.185 1.49-2.185 3.007 0 1.745 1.305 3.078 3.036 3.078 1.73 0 3.05-1.32 3.05-3.078Z"/>
  </g>
  <defs>
    <clipPath id="a">
      <path fill="#fff" d="M0 0h18v18H0z"/>
    </clipPath>
  </defs>
</svg>
