<svg xmlns="http://www.w3.org/2000/svg" viewBox="0 0 18 18">
  <g clip-path="url(#a)">
    <path fill="#fff" d="M0 0h18v18H0V0Z"/>
    <path fill="#F57921" d="M8.392 3.502c.413.005.828.008 1.242.004l-.007.512c1.168.158 2.295.676 3.122 1.524.91.886 1.45 2.125 1.533 3.39-.46.002-.919.002-1.378 0-.134-1.744-1.552-3.252-3.273-3.53a6.78 6.78 0 0 0 .018.755c1.201.217 2.164 1.202 2.47 2.365-.407.007-.816.008-1.224-.004-.35-.9-1.384-1.48-2.334-1.239-.672.128-1.189.653-1.476 1.251-.395-.005-.79-.005-1.186-.007.282-1.191 1.289-2.159 2.494-2.38a92.201 92.201 0 0 0-.005-.745C6.67 5.671 5.233 7.171 5.11 8.92c-.46.025-.924.012-1.386.012.108-2.492 2.204-4.665 4.678-4.917l-.011-.512Z"/>
    <path fill="#0B4696" d="M5.833 8.919c2.117.01 4.236-.02 6.353.013a5.519 5.519 0 0 1-.093 1.078H9.628c.002.228.002.454.002.682.738-.001 1.475.007 2.213-.008-.216.421-.537.77-.883 1.087-.444.01-.887.01-1.33.006 0 .442-.008.884.013 1.323 1.709-.292 3.131-1.78 3.257-3.523.46-.002.922-.002 1.382-.001-.092 1.327-.69 2.618-1.673 3.52-.978.903-2.307 1.435-3.643 1.401-1.845.027-3.644-1.036-4.55-2.638-.414-.693-.615-1.487-.695-2.283.455 0 .91.003 1.366-.01.16 1.75 1.567 3.257 3.301 3.536.008-.44.01-.88.008-1.322-.44 0-.881-.005-1.32-.001-.361-.308-.696-.66-.897-1.094.738.014 1.477.005 2.216.01l.001-.685c-.839-.014-1.679.032-2.514-.025a7.448 7.448 0 0 1-.05-1.066Z"/>
  </g>
  <defs>
    <clipPath id="a">
      <path fill="#fff" d="M0 0h18v18H0z"/>
    </clipPath>
  </defs>
</svg>
