<svg xmlns="http://www.w3.org/2000/svg" viewBox="0 0 18 18">
  <g clip-path="url(#a)">
    <path fill="#001733" d="M0 0h18v18H0V0Z"/>
    <path fill="#fff" d="M11.112 8.86c.033.045.066.09.105.13.195.209.427.355.694.447.267.09.6.176.998.254.31.062.534.117.668.166.137.052.202.127.202.232 0 .088-.052.156-.157.198-.104.046-.277.066-.518.066-.28 0-.574-.043-.88-.124a3.623 3.623 0 0 1-.828-.326l-.163.352H8.919l1.372-1.503a13.544 13.544 0 0 0-1.972-.055l-.907.997a2.857 2.857 0 0 0 .05-.932c-.555.058-1.083.15-1.585.27v.046c0 .368-.1.655-.306.857-.206.202-.476.303-.818.303h-.665v-.596a6.338 6.338 0 0 0-1.588 1.01v.874h2.321c.525 0 .988-.098 1.389-.296a2.32 2.32 0 0 0 .446-.287v.603H11.4v-.183a5.672 5.672 0 0 0 1.692.258c.518 0 .955-.075 1.32-.222.362-.147.636-.345.815-.593.036-.052.072-.105.101-.157-.942-.847-2.438-1.493-4.215-1.79Z"/>
    <path fill="#fff" d="M4.088 9.326V7.918h.665c.342 0 .612.101.818.303a.96.96 0 0 1 .24.404 10.883 10.883 0 0 1 1.56-.329 2.162 2.162 0 0 0-.144-.368h1.79l-.245.267h.143c.603 0 1.19.049 1.754.14l.254-.28c-.003.03-.003.062-.003.091 0 .082.007.16.016.235 1.875.355 3.452 1.186 4.42 2.204.095-.193.144-.398.144-.62 0-.355-.101-.632-.3-.838a1.737 1.737 0 0 0-.704-.443 6.807 6.807 0 0 0-.998-.241 4.394 4.394 0 0 1-.658-.157c-.134-.049-.199-.124-.199-.221 0-.206.225-.307.672-.307.453 0 .932.12 1.44.365l.525-1.196a3.483 3.483 0 0 0-.906-.32A5.081 5.081 0 0 0 13.33 6.5c-.518 0-.958.072-1.32.218-.307.124-.551.284-.727.486V6.65H6.728v.63a2.243 2.243 0 0 0-.522-.35c-.397-.202-.86-.3-1.385-.3H2.5v3.893a6.224 6.224 0 0 1 1.588-1.197Z"/>
  </g>
  <defs>
    <clipPath id="a">
      <path fill="#fff" d="M0 0h18v18H0z"/>
    </clipPath>
  </defs>
</svg>
