<svg xmlns="http://www.w3.org/2000/svg" viewBox="0 0 18 18">
  <g clip-path="url(#a)">
    <path fill="#2F2D29" d="M0 0h18v18H0V0Z"/>
    <path fill="#fff" d="M13.277 4v3.043h-.024a1.57 1.57 0 0 0-.394-.44 2.252 2.252 0 0 0-.498-.286 2.51 2.51 0 0 0-.526-.155 2.896 2.896 0 0 0-.491-.046 2.693 2.693 0 0 0-1.184.246 2.434 2.434 0 0 0-1.107 1.057c.278.471.492.977.636 1.504.014-.17.04-.34.076-.507a2.24 2.24 0 0 1 .298-.733 1.55 1.55 0 0 1 .549-.515 1.67 1.67 0 0 1 .835-.194c.297-.01.591.056.857.188.229.12.426.29.578.498.153.215.264.458.326.715.135.542.137 1.11.006 1.653-.06.256-.167.498-.315.715a1.605 1.605 0 0 1-1.396.704 1.735 1.735 0 0 1-.818-.184c-.039-.02-.075-.044-.112-.067a2.354 2.354 0 0 0 1.501 1.017 2.66 2.66 0 0 0 .425-.137c.331-.134.6-.387.755-.71h.023v.801h.972V4h-.973ZM6.18 11.375a1.928 1.928 0 0 1-1.597-.892l3.08-2.259c-.288-.843-.685-1.623-1.458-2.114H6.18c-1.616 0-2.93 1.395-2.93 3.11 0 1.714 1.314 3.109 2.93 3.109a2.884 2.884 0 0 0 2.415-1.356 6.754 6.754 0 0 1-.49-1.268 2.025 2.025 0 0 1-1.925 1.67ZM4.203 9.219c0-1.19.887-2.156 1.977-2.156.398 0 .785.13 1.104.369l-3.039 2.23a2.342 2.342 0 0 1-.042-.443Z"/>
    <path fill="url(#b)" d="M6.272 6.11c2.936 1.538 1.033 6.822 5.698 6.128-3.506-.62-1.334-6.048-5.698-6.129Z"/>
  </g>
  <defs>
    <linearGradient id="b" x1="9.121" x2="9.121" y1="12.3" y2="6.109" gradientUnits="userSpaceOnUse">
      <stop offset=".016" stop-color="#F36A10"/>
      <stop offset=".995" stop-color="#FFB700"/>
    </linearGradient>
    <clipPath id="a">
      <path fill="#fff" d="M0 0h18v18H0z"/>
    </clipPath>
  </defs>
</svg>
