<svg xmlns="http://www.w3.org/2000/svg" viewBox="0 0 18 18">
  <g clip-path="url(#a)">
    <path fill="url(#b)" d="M0 0h18v18H0V0Z"/>
    <path fill="#fff" d="M14.417 4.25h-5.02a1.352 1.352 0 0 0-1.351 1.352v.533H4.85a1.352 1.352 0 0 0 0 2.703h3.194v.969H5.913a1.352 1.352 0 1 0 0 2.703h2.131v.483a1.352 1.352 0 0 0 1.353 1.353H10.8a1.353 1.353 0 0 0 1.288-1.879 1.351 1.351 0 0 0-1.288-.823H8.912v-.968h2.945a1.348 1.348 0 0 0 1.25-.834 1.35 1.35 0 0 0-1.25-1.87H8.912v-.97h3.27A2.318 2.318 0 0 0 14.5 4.686v-.35a.084.084 0 0 0-.083-.085Zm-3.612 8.262a.48.48 0 0 1 .342.822.488.488 0 0 1-.343.144H9.402a.485.485 0 0 1-.484-.484v-.482h1.893-.006Zm-2.76-.868H5.912a.485.485 0 0 1 0-.97h2.131v.97Zm3.815-2.805a.484.484 0 1 1 0 .97H8.915v-.97h2.945Zm-3.816-.868H4.85a.484.484 0 1 1 0-.968h3.194v.968Zm4.137-1.836H8.912v-.533a.485.485 0 0 1 .484-.484h4.17a1.454 1.454 0 0 1-1.384 1.017h-.001Z"/>
  </g>
  <defs>
    <linearGradient id="b" x1="-.003" x2="18" y1="0" y2="0" gradientUnits="userSpaceOnUse">
      <stop stop-color="#6A26B5"/>
      <stop offset="1" stop-color="#06ACEF"/>
    </linearGradient>
    <clipPath id="a">
      <path fill="#fff" d="M0 0h18v18H0z"/>
    </clipPath>
  </defs>
</svg>
