<svg xmlns="http://www.w3.org/2000/svg" viewBox="0 0 18 18">
  <g clip-path="url(#a)">
    <path fill="#FF6801" d="M0 0h18v18H0V0Z"/>
    <path fill="#fff" fill-rule="evenodd" d="M13.05 9.339H8.439c-.209 0-.304.095-.304.27 0 .42.228.819.684 1.198.456.384.952.575 1.487.575a3.74 3.74 0 0 0 1.047-.171c.38-.119.703-.27.95-.442.228-.152.403-.228.537-.228.171 0 .342.095.494.304a1 1 0 0 1 .247.651c0 .476-.285.913-.874 1.35-1.031.784-2.23 1.165-3.584 1.165-1.368 0-2.514-.4-3.445-1.203a4.735 4.735 0 0 1-1.108-1.406A5.02 5.02 0 0 1 4 9.072c0-1.083.323-2.076.989-2.95a5.219 5.219 0 0 1 2.19-1.698 5.37 5.37 0 0 1 2.154-.423c1.24 0 2.285.348 3.16 1.051.442.342.785.76 1.05 1.259.305.551.457 1.085.457 1.602 0 .418-.096.76-.266 1.045-.191.248-.42.38-.684.38Zm-4.345-1.83h.99c.42 0 .63-.19.63-.57 0-.342-.094-.647-.308-.856-.209-.233-.456-.328-.799-.328-.361 0-.646.153-.855.442-.19.266-.285.533-.285.817 0 .191.038.324.133.419.095.038.247.076.494.076Z" clip-rule="evenodd"/>
  </g>
  <defs>
    <clipPath id="a">
      <path fill="#fff" d="M0 0h18v18H0z"/>
    </clipPath>
  </defs>
</svg>
