<svg xmlns="http://www.w3.org/2000/svg" viewBox="0 0 18 18">
  <g clip-path="url(#a)">
    <path fill="#4B4F51" d="M0 0h18v18H0V0Z"/>
    <path fill="#fff" d="M2.525 7.918c.021-.007.043-.003.066-.003h4.29a.76.76 0 0 1 .597.29c.057.07.092.154.133.234l.68 1.361a.45.45 0 0 0 .27.233c.068.02.14.015.21.016h.563a.43.43 0 0 0 .338-.188c.037-.052.06-.112.09-.167l.612-1.226c.048-.092.087-.191.155-.272a.759.759 0 0 1 .582-.281h4.336c.024-.004.05.013.05.039l.001.134c0 .027-.026.045-.05.041h-3.946c-.05 0-.1 0-.148.014a.43.43 0 0 0-.273.223l-.695 1.391c-.028.053-.051.107-.083.157a.748.748 0 0 1-.638.35H8.45c-.06-.002-.12.002-.18-.003a.746.746 0 0 1-.62-.43l-.724-1.45a.43.43 0 0 0-.382-.252h-3.99c-.024.003-.048-.01-.052-.034-.003-.04 0-.08-.001-.12-.003-.02.001-.048.024-.057ZM3.65 8.984c.016-.005.034-.003.05-.003h2.012a.043.043 0 0 1 .046.038v.106c0 .02.003.046-.016.06-.017.015-.04.01-.06.01H3.67c-.024.003-.048-.016-.047-.04v-.128a.043.043 0 0 1 .026-.043Zm8.619 0c.056-.007.113-.001.17-.003h1.892c.024-.002.046.02.045.045v.13a.043.043 0 0 1-.046.039h-2.04c-.024.003-.048-.016-.048-.04v-.129a.043.043 0 0 1 .027-.042ZM2.533 10.05c.094-.004.188 0 .282-.001H6.83c.023-.004.049.012.05.036.002.045.001.091.001.136a.04.04 0 0 1-.037.041c-.022.002-.045.001-.067.001H2.552c-.025.004-.052-.015-.051-.042v-.129a.041.041 0 0 1 .032-.042Zm8.618 0c.16-.004.319 0 .478-.001h3.819c.025-.004.052.017.05.044v.135c-.002.024-.028.038-.05.035h-4.277c-.015.001-.033-.002-.043-.015-.012-.014-.01-.034-.01-.05v-.105c0-.02.014-.038.033-.043Z"/>
  </g>
  <defs>
    <clipPath id="a">
      <path fill="#fff" d="M0 0h18v18H0z"/>
    </clipPath>
  </defs>
</svg>
