<svg xmlns="http://www.w3.org/2000/svg" viewBox="0 0 18 18">
  <g clip-path="url(#a)">
    <path fill="#00481A" d="M0 0h18v18H0V0Z"/>
    <path fill="#fff" d="m14.596 5.222-1.66-.026c-1.88-.03-3.78-.023-5.605.433 0 0-1.366.32-2 .762 0 0-1.047.708-1.33 1.538 0 0-.513 1.434.55 2.285 0 0 1.045 1.026 2.745-.071 0 0 1.293-.78 1.151-2.108 0 0-.035-.726-.211-.885l-.171.07s.406.974-.017 1.595c0 0-.32.654-1.367.957 0 0-1.025.46-1.895-.036 0 0-.64-.171-.674-1.046a1.71 1.71 0 0 1 .855-1.433 5.667 5.667 0 0 1 2.064-.724s2.002-.267 2.745-.248c.744.02 2.817.035 2.817.035s-.017.071-.23.124c0 0-1.366.46-1.771.816 0 0-.744.425-1.612 1.806l-.13.236-.597.012-.106.248c.196-.035.393-.054.592-.057-.294.533-.757 1.367-.805 1.456 0 0-.727 1.737-2.037 2.038 0 0-.974.39-1.47-.32a.451.451 0 0 1-.106-.3.64.64 0 0 0 .425-.638.632.632 0 0 0-.531-.71s-.513-.07-.743.32c0 0-.392.443-.072 1.133 0 0 .32.726 1.647.855 0 0 1.116.159 2.463-.549 0 0 1.648-.798 2.143-1.895 0 0 .455-.89.716-1.453l.648-.019v.356c0 .318.142.07.142.07l.425-.602-1.136.024c.043-.094.075-.17.09-.219 0 0 .885-1.558 1.311-1.967.308-.38.754-.624 1.24-.677 0 0 1.117.106 1.24.089 0 0 1.196-.089 1.169-.637 0 0 .089-.549-.902-.638Z"/>
  </g>
  <defs>
    <clipPath id="a">
      <path fill="#fff" d="M0 0h18v18H0z"/>
    </clipPath>
  </defs>
</svg>
