<svg xmlns="http://www.w3.org/2000/svg" viewBox="0 0 18 18">
  <g clip-path="url(#a)">
    <path fill="#fff" d="M0 0h18v18H0V0Z"/>
    <path fill="#00AE64" d="M15 6.873c-.03-1.766-1.436-3.202-3.202-3.202H3v7.481c0 1.766 1.436 3.172 3.202 3.202H15V6.873Z"/>
    <path fill="#fff" d="M11.798 4.24h-8.23v6.913a2.605 2.605 0 0 0 2.604 2.603h8.23V6.844a2.605 2.605 0 0 0-2.604-2.604Z"/>
    <path fill="#1B459C" d="M11.768 4.629h-7.81v6.524a2.241 2.241 0 0 0 2.244 2.244h7.84V6.873c0-1.227-1.017-2.244-2.274-2.244Z"/>
    <path fill="#fff" d="m8.387 12.35 1.795-6.824h-.419L7.968 12.38l.419-.03Zm3.65-2.335c.3-.06.569-.18.778-.419.18-.24.27-.538.18-.838-.06-.269-.24-.508-.479-.688-.21-.15-.449-.24-.688-.24H9.913c.479.15.838.51.987.988 0 0 .3.928-.957 1.197.24.09.449.24.658.449.15.15.24.36.3.539.209.987-.988 1.227-.988 1.227h1.855c.658 0 .928-.36.988-.42a.883.883 0 0 0 .239-.807c-.06-.24-.18-.48-.389-.629-.15-.15-.36-.27-.569-.359Zm-3.95-.419c.18-.18.24-.568.15-.898a1.47 1.47 0 0 0-.509-.748 1.536 1.536 0 0 0-.718-.299H4.975c.509.15.898.539 1.077 1.047.21 1.048-.987 1.257-.987 1.257h2.244c.27 0 .569-.12.778-.359Zm-.21-3.89-.03 1.526H4.946V5.706h2.933Z"/>
  </g>
  <defs>
    <clipPath id="a">
      <path fill="#fff" d="M0 0h18v18H0z"/>
    </clipPath>
  </defs>
</svg>
