<svg xmlns="http://www.w3.org/2000/svg" viewBox="0 0 18 18">
  <g clip-path="url(#a)">
    <path fill="#222D65" d="M0 0h18v18H0V0Z"/>
    <path fill="#fff" d="M8.646 6.5v.936H4.68v1.423h2.156v.977H4.68v2.034H3.5V6.5h5.146Z"/>
    <path fill="#6CADDF" d="M10.614 9.53v1.363h2.705c.406 0 .57-.081.57-.468v-.406c0-.387-.164-.468-.57-.468h-2.705v-.02Zm0-2.155v1.28h2.705c.366 0 .549-.08.549-.386v-.508c0-.305-.183-.386-.55-.386h-2.704ZM9.434 6.5h4.373c.773 0 1.139.285 1.139 1.037v.651c0 .529-.326.834-.875.895.59.081.915.448.915 1.037v.692c0 .712-.508 1.058-1.505 1.058H9.434V6.5Z"/>
  </g>
  <defs>
    <clipPath id="a">
      <path fill="#fff" d="M0 0h18v18H0z"/>
    </clipPath>
  </defs>
</svg>
