<svg xmlns="http://www.w3.org/2000/svg" viewBox="0 0 18 18">
  <g clip-path="url(#a)">
    <path d="M0 0h18v18H0V0Z"/>
    <g clip-path="url(#b)">
      <path fill="#EA2028" fill-rule="evenodd" d="M14.07 5.467v.04a8.636 8.636 0 0 0-1.162-1.074.377.377 0 0 0-.098-.049 4.512 4.512 0 0 0-1.91-.857 3.963 3.963 0 0 0-.71-.02c.319.022.634.065.946.129a.44.44 0 0 0 .197.059.09.09 0 0 0 .078.02A5.244 5.244 0 0 1 14.15 5.9v.04a13.695 13.695 0 0 0-1.359-1.291 2.27 2.27 0 0 0-.236-.148 2.499 2.499 0 0 0-.69-.374c-.023.007-.023.017 0 .03a.344.344 0 0 0 .138.068 9.894 9.894 0 0 1 2.02 1.891c.012.014.012.027 0 .04a8.816 8.816 0 0 0-1.37-1.162 1.912 1.912 0 0 0-.59-.345.39.39 0 0 0 .078.069c.093.112.198.21.315.295 0 .011-.007.018-.02.02a64.202 64.202 0 0 0-.807-.364 1.367 1.367 0 0 0-.295-.04l.098.07c.118.12.256.215.414.285a.048.048 0 0 1-.04.01 1.983 1.983 0 0 1-.492-.168.842.842 0 0 0-.493.02c-.162.088-.327.17-.492.246a1.26 1.26 0 0 0-.315.02h-.04a1.271 1.271 0 0 0-.374.04h-.04a.392.392 0 0 0-.196.039 1.505 1.505 0 0 0-.335.059.464.464 0 0 0-.217.059.135.135 0 0 0-.098.02.433.433 0 0 0-.197.059.73.73 0 0 0-.256.078 6.524 6.524 0 0 0-.63.237.22.22 0 0 0-.138.04 1.504 1.504 0 0 0-.335.058c-.11-.002-.215.01-.315.04h-.06a2.38 2.38 0 0 0-.433.039c-.183.007-.36.043-.532.108a.149.149 0 0 0-.078.148c.039.18.13.328.275.443.161.104.332.19.513.256.105.119.223.224.354.315.095.038.187.081.276.128a.22.22 0 0 0 .138.04c.12.02.245.026.374.02a.21.21 0 0 0 .177-.06c.163-.08.305-.192.424-.334.113-.168.231-.332.354-.493a.744.744 0 0 1 .443-.266c.197-.031.394-.061.591-.088a.048.048 0 0 1 .04.01 5.447 5.447 0 0 1-.443.817c-.33.307-.681.583-1.054.827a7.47 7.47 0 0 0-.571.079.491.491 0 0 0-.237.04c-.296.037-.592.076-.886.118a7.763 7.763 0 0 1-.65-.06 1.226 1.226 0 0 1-.335-.137 1.185 1.185 0 0 1-.502-.926 3.07 3.07 0 0 1 .275-1.477c.211-.51.516-.954.916-1.33.223-.17.46-.322.71-.453a.462.462 0 0 1 .334-.06c.022.016.022.032 0 .05a5.838 5.838 0 0 1-.532.443 2.08 2.08 0 0 0-.462.581.319.319 0 0 0-.01.217.129.129 0 0 0 .059-.059c.33-.293.671-.572 1.024-.837a5.415 5.415 0 0 1 1.99-.768 5.46 5.46 0 0 1 3.19.709 5.769 5.769 0 0 1 1.556 1.585Z" clip-rule="evenodd"/>
      <path fill="#EDE524" fill-rule="evenodd" d="M4.3 5.093c-.293.463-.553.949-.777 1.457a29.217 29.217 0 0 0-.542 1.93c-.04.107-.067.218-.079.335a.09.09 0 0 1-.02-.078 7.315 7.315 0 0 1 1.015-3.25 7.61 7.61 0 0 1 .571-.73l-.167.336Z" clip-rule="evenodd"/>
      <path fill="#706162" fill-rule="evenodd" d="M10.013 5.112a1.26 1.26 0 0 1 .315-.02h.197v.04a4.385 4.385 0 0 0-.512-.02Z" clip-rule="evenodd"/>
      <path fill="#FCFCFC" fill-rule="evenodd" d="M9.935 5.12a.472.472 0 0 1 .078-.007c.171-.003.342.003.512.02.325.03.635.112.93.25a.16.16 0 0 1 .061.044.124.124 0 0 1 .013.127c-.032.07-.09.113-.177.13-.33.114-.665.206-1.004.276a18.66 18.66 0 0 0-.472.087c-.04.008-.083.008-.123.014-.068.011-.13.042-.198.052-.162.023-.325.047-.488.074a.744.744 0 0 0-.443.266c-.123.16-.24.324-.354.492a1.291 1.291 0 0 1-.358.3c-.043.024-.092.038-.14.052-.071.021-.142.045-.216.044-.066 0-.13-.005-.194-.012-.045-.006-.084-.026-.126-.04-.05-.014-.103-.022-.149-.045-.04-.02-.08-.039-.121-.057a.753.753 0 0 1-.206-.126 3.109 3.109 0 0 0-.53-.355 2.584 2.584 0 0 1-.216-.125.752.752 0 0 1-.254-.363c-.017-.053-.031-.112-.007-.161.027-.057.094-.08.154-.099.143-.046.29-.071.442-.077.128.002.254-.008.375-.028a.7.7 0 0 1 .118-.011.92.92 0 0 0 .315-.04c.109-.032.22-.051.335-.059.097.004.182-.059.272-.096.137-.056.276-.107.418-.154.052-.017.107-.027.16-.04a1.44 1.44 0 0 0 .353-.113.425.425 0 0 0 .018-.01c.057-.038.134-.019.2-.035a.511.511 0 0 0 .014-.004c.07-.02.136-.052.207-.067.075-.017.151-.027.229-.032.056 0 .11-.01.16-.026a.247.247 0 0 1 .076-.013 2.48 2.48 0 0 0 .336-.033Z" clip-rule="evenodd"/>
      <path fill="#6A6A6A" fill-rule="evenodd" d="M10.013 5.114c.171-.004.342.003.512.02.325.029.635.112.93.249a.16.16 0 0 1 .061.044.124.124 0 0 1 .013.127c-.032.07-.09.113-.177.13a7.74 7.74 0 0 1-1.004.276 18.66 18.66 0 0 0-.472.087c-.022.004-.045.006-.067.008a.79.79 0 0 0-.056.007.615.615 0 0 0-.096.025.846.846 0 0 1-.102.026c-.162.023-.325.048-.488.074a.744.744 0 0 0-.443.266c-.123.16-.24.325-.354.492a1.291 1.291 0 0 1-.358.3.607.607 0 0 1-.16.058.632.632 0 0 1-.196.039 1.772 1.772 0 0 1-.194-.013.37.37 0 0 1-.086-.024l-.04-.015a.959.959 0 0 0-.051-.014.486.486 0 0 1-.098-.032c-.04-.02-.08-.039-.121-.056a.753.753 0 0 1-.206-.127 3.109 3.109 0 0 0-.53-.355 2.582 2.582 0 0 1-.216-.125.753.753 0 0 1-.254-.363c-.017-.053-.031-.111-.007-.161.027-.057.094-.08.154-.098.143-.046.29-.072.442-.077.128.001.254-.008.375-.029a.702.702 0 0 1 .118-.01.92.92 0 0 0 .315-.04c.109-.032.22-.052.335-.06a.42.42 0 0 0 .197-.06.84.84 0 0 1 .075-.035c.137-.056.276-.108.418-.155a1.2 1.2 0 0 1 .16-.04h.004a1.426 1.426 0 0 0 .367-.123c.035-.023.077-.025.12-.027a.356.356 0 0 0 .08-.008 1.513 1.513 0 0 1 .45-.103c.056 0 .11-.009.16-.025a.247.247 0 0 1 .076-.014 2.48 2.48 0 0 0 .336-.033.473.473 0 0 1 .078-.006Zm-.414 0c.113-.004.222-.015.33-.032a.512.512 0 0 1 .083-.008 4.46 4.46 0 0 1 .517.02c.33.03.644.114.943.253a.2.2 0 0 1 .075.056.163.163 0 0 1 .018.167.267.267 0 0 1-.202.153 8.19 8.19 0 0 1-1.007.276h-.001a18.99 18.99 0 0 0-.471.087.631.631 0 0 1-.066.008h-.006a.747.747 0 0 0-.053.006.565.565 0 0 0-.091.025h-.002a.656.656 0 0 1-.105.027c-.162.023-.324.048-.487.074a.705.705 0 0 0-.419.251c-.122.16-.24.324-.353.49v.002l-.002.002a1.33 1.33 0 0 1-.368.309.641.641 0 0 1-.136.051l-.012.004a.695.695 0 0 1-.228.046 1.81 1.81 0 0 1-.2-.013.333.333 0 0 1-.071-.018l-.025-.01c-.013-.005-.024-.01-.037-.013l-.047-.013a.425.425 0 0 1-.107-.036 2.615 2.615 0 0 0-.12-.055.791.791 0 0 1-.215-.132 3.07 3.07 0 0 0-.523-.35 2.626 2.626 0 0 1-.219-.128l-.002-.001-.001-.001a.792.792 0 0 1-.267-.382c-.017-.051-.038-.124-.006-.19a.185.185 0 0 1 .081-.08.546.546 0 0 1 .096-.039c.147-.047.298-.073.454-.079h.002c.126.002.248-.007.368-.028a.74.74 0 0 1 .124-.011v.04l.001-.04a.88.88 0 0 0 .302-.038 1.54 1.54 0 0 1 .344-.06l.003.039.001-.04c.04.002.079-.01.122-.03l.056-.026.009-.005c.022-.01.045-.022.07-.032.137-.056.277-.108.42-.155.04-.014.084-.023.125-.032l.038-.009h.002c.12-.028.238-.055.342-.11a.395.395 0 0 0 .015-.008.226.226 0 0 1 .115-.032l.028-.001a.347.347 0 0 0 .068-.007.503.503 0 0 0 .013-.003c.029-.008.057-.019.087-.03l.013-.005a.85.85 0 0 1 .11-.033c.077-.017.155-.028.234-.033h.002a.498.498 0 0 0 .149-.024.287.287 0 0 1 .088-.015Z" clip-rule="evenodd"/>
      <path fill="#2D3690" fill-rule="evenodd" d="M14.228 7.003a3.09 3.09 0 0 1 .443 1.675.372.372 0 0 1-.049.138c-.018.021-.034.021-.05 0a1.517 1.517 0 0 1-.078-.178 3.685 3.685 0 0 0-.335-.945.6.6 0 0 0-.167-.197c-.045-.065-.104-.091-.178-.079.146.415.274.835.384 1.26a5.474 5.474 0 0 1-.088 2.364.71.71 0 0 1-.187-.67.445.445 0 0 1 .079-.157c.014-.098-.029-.16-.129-.187a2.638 2.638 0 0 1-.334-.138 5.915 5.915 0 0 0-.69-.394.792.792 0 0 0-.148-.03.113.113 0 0 0-.098.04c.005.19.011.38.02.571a.147.147 0 0 1-.148.06 8.263 8.263 0 0 1-1.674-.631 5.37 5.37 0 0 1-.374-1.142v-.02a.58.58 0 0 1 .177-.04c.395-.067.77-.192 1.123-.374.097-.035.189-.081.275-.138a.15.15 0 0 0 .118-.078c.055-.057.12-.1.197-.128a.425.425 0 0 0 .119-.148.134.134 0 0 0 .02-.158.126.126 0 0 0-.1-.098 1.534 1.534 0 0 0-.413-.138 1.653 1.653 0 0 0-.492-.07c-.22.14-.45.265-.69.375a4.577 4.577 0 0 0-.315.089h-.098a2.854 2.854 0 0 1 .748-1.635 1.54 1.54 0 0 0 .256-.118.23.23 0 0 0 .197-.197c.331-.11.66-.1.985.03.508.225.945.55 1.31.974l.217.256c.06.084.116.17.167.256Z" clip-rule="evenodd"/>
      <path fill="#A36462" fill-rule="evenodd" d="M14.07 5.465a.318.318 0 0 1 .109.177.361.361 0 0 1-.109-.138v-.04Z" clip-rule="evenodd"/>
      <path fill="#F2EA24" fill-rule="evenodd" d="M4.202 5.978a8.632 8.632 0 0 0-.541 1.478 9.157 9.157 0 0 0 .177 2.678c.079.356.197.697.354 1.025.032.057.068.11.109.157-.004.02.003.033.02.04-.002.03.011.05.039.059.218.293.467.559.748.797.38.334.787.63 1.222.887.024.013.024.023 0 .03a.859.859 0 0 1-.572-.02c-.547-.406-1.325-1.109-1.703-1.675a6.61 6.61 0 0 1-.769-2.403 5.365 5.365 0 0 1 .316-2.206c.147-.404.318-.798.512-1.182a60.11 60.11 0 0 0-.286.828c-.054.09-.094.189-.118.295a2.357 2.357 0 0 0-.158.571c.164-.498.361-.984.591-1.457l.286-.453c-.073.183-.149.366-.227.551Z" clip-rule="evenodd"/>
      <path fill="#626367" fill-rule="evenodd" d="M11.352 5.684a1.57 1.57 0 0 1-.256.118 5.102 5.102 0 0 1-.748.157c.339-.07.673-.162 1.004-.275Z" clip-rule="evenodd"/>
      <path fill="#916B6A" fill-rule="evenodd" d="M14.15 5.901a.318.318 0 0 1 .088.158.257.257 0 0 1-.089-.118V5.9Z" clip-rule="evenodd"/>
      <path fill="#F6ED22" fill-rule="evenodd" d="M4.478 6.551a6.705 6.705 0 0 0-.207 2.108c.012.141.038.28.079.414.01-.085.013-.17.01-.256.01-.852.134-1.686.374-2.502a.09.09 0 0 1 .02.079 9.086 9.086 0 0 0-.04.295 7.308 7.308 0 0 0-.088 1.793c.007.041.02.08.04.118.015-.065.025-.13.029-.197.016-.104.04-.21.069-.315.013.059.023.118.03.177.04.202.076.406.108.61.042.124.094.242.157.355a.097.097 0 0 0 .01-.059.491.491 0 0 1 .04-.236.3.3 0 0 0 .118.138.338.338 0 0 0 .118.256.874.874 0 0 0 .177.207c.168.076.325.168.473.275.13.095.274.135.433.119a5.99 5.99 0 0 1 .867-.188c.049-.007.062.006.04.04-.292.215-.58.435-.868.66-.122.105-.24.214-.354.325a.927.927 0 0 0-.236.216 1.559 1.559 0 0 0-.129.158.132.132 0 0 0-.02.118c.072.1.197.156.316.187.06.032.095.013.167.02.072-.007.138.022.197-.01a.954.954 0 0 0 .168-.138 2.12 2.12 0 0 1 .295-.374c.417-.43.834-.856 1.251-1.28.58.118 1.132.315 1.655.59.164.29.394.513.689.67.023.06.056.112.098.158-.001.03.012.05.04.059.158.283.266.585.325.906.054.48-.107.87-.483 1.172a3.54 3.54 0 0 1-1.457.59 3.565 3.565 0 0 1-1.576-.039 17.142 17.142 0 0 1-.749-.325 1.852 1.852 0 0 1-.167-.157.173.173 0 0 1-.03-.099c.218.025.428.081.63.168.12.022.238.048.355.079.125.013.25.013.375 0a.394.394 0 0 0 .196-.07c.056-.005.066-.025.03-.058-.463-.111-.92-.246-1.369-.404-.267-.137-.53-.278-.788-.424a4.25 4.25 0 0 1-1.802-2.324c-.437-1.221-.4-2.43.108-3.624.017.007.023.02.02.04a6.996 6.996 0 0 1-.06.295c-.225.96-.209 1.92.05 2.875.079.269.193.518.345.749-.002.03.012.05.04.059a.623.623 0 0 0 .108.177.427.427 0 0 0-.09-.177 4.991 4.991 0 0 1-.511-1.674 10.284 10.284 0 0 1-.01-1.064 9.69 9.69 0 0 1 .089-.59c.09-.38.218-.747.384-1.104a5.067 5.067 0 0 1-.089.433Z" clip-rule="evenodd"/>
      <path fill="#A19C19" fill-rule="evenodd" d="M4.754 6.392a.09.09 0 0 0-.02-.078.577.577 0 0 1 .05-.138.47.47 0 0 1-.03.216Z" clip-rule="evenodd"/>
      <path fill="#918C17" fill-rule="evenodd" d="M4.222 6.57c.003-.02-.003-.033-.02-.04.021-.06.044-.119.07-.177a.45.45 0 0 1-.05.216Z" clip-rule="evenodd"/>
      <path fill="#FCFCFC" fill-rule="evenodd" d="M11.946 7.041c.133.058.27.104.414.138a.126.126 0 0 1 .075.048c.022.03.024.07.02.106a.796.796 0 0 1-.008.058.23.23 0 0 1-.03.084.414.414 0 0 1-.05.064c-.028.031-.067.05-.105.07a.513.513 0 0 0-.069.041c-.05.036-.102.067-.15.105-.027.02-.052.044-.08.061a1.355 1.355 0 0 1-.233.111c-.155.057-.31.116-.463.177-.208.058-.412.118-.614.182a.6.6 0 0 1-.095.02.578.578 0 0 0-.074.016.738.738 0 0 1-.112.025 1.55 1.55 0 0 0-.258.053c-.04.012-.08.018-.12.025-.09.015-.117.061-.082.139.024.05.05.1.066.153.035.107.09.205.166.293.19.205.41.369.66.492.534.27 1.092.48 1.674.63a.189.189 0 0 0 .026.002c.091.001.12-.111.116-.203a30.748 30.748 0 0 1-.01-.319c-.003-.07.024-.155.095-.15.04.005.079.012.117.022.02.005.04.013.059.022.23.113.45.24.66.38.11.053.221.1.336.138.059.016.098.044.117.085.029.062-.015.128-.043.19a.46.46 0 0 0-.025.069.706.706 0 0 0 .146.623c.026.03.038.072.066.102.019.02.045.033.06.055.056.081.034.152-.065.214a.196.196 0 0 1-.02.011c-.037.018-.077.028-.114.046l-.034.017a.384.384 0 0 1-.06.024 3.948 3.948 0 0 1-1.84.128 7.722 7.722 0 0 1-1.596-.669 1.693 1.693 0 0 1-.69-.67 13.258 13.258 0 0 1-.561-.885 1.508 1.508 0 0 1-.156-.42c-.018-.084-.053-.197-.139-.183-.034.005-.067.03-.1.072a5.91 5.91 0 0 1-.699.826c-.417.424-.834.85-1.25 1.28a2.128 2.128 0 0 0-.273.338.36.36 0 0 1-.053.066.979.979 0 0 1-.075.064.28.28 0 0 1-.138.055 1.034 1.034 0 0 1-.319-.011.486.486 0 0 1-.245-.147c-.029-.031-.052-.072-.044-.114a.14.14 0 0 1 .024-.054c.03-.042.06-.082.094-.12a.427.427 0 0 1 .075-.066.924.924 0 0 0 .177-.166.48.48 0 0 1 .038-.042 8.46 8.46 0 0 1 .335-.305c.276-.216.554-.428.834-.636.021-.015.05-.018.07-.033.02-.014.032-.037.052-.051.314-.222.592-.485.834-.79a.087.087 0 0 0 .02-.035c.006-.036-.036-.058-.072-.06a.185.185 0 0 0-.064.01 3.897 3.897 0 0 0-.938.628.574.574 0 0 0-.093.119.431.431 0 0 1-.368.198 1.016 1.016 0 0 1-.477-.046.332.332 0 0 1-.066-.032c-.272-.168-.54-.34-.807-.516-.045-.03-.077-.076-.122-.105-.027-.017-.059-.027-.083-.048a.295.295 0 0 1-.058-.067c-.016-.026-.032-.055-.05-.08a1.065 1.065 0 0 1-.13-.257 1.13 1.13 0 0 1-.058-.433.248.248 0 0 1 .137-.187.584.584 0 0 1 .335-.089h.493c.203.027.408.046.613.057.025.002.05 0 .074-.003.282-.04.565-.077.85-.113a.963.963 0 0 0 .236-.04c.189-.033.379-.059.571-.078a.805.805 0 0 0 .24-.028.535.535 0 0 1 .074-.016 89.19 89.19 0 0 0 1.9-.266.41.41 0 0 0 .062-.014c.082-.026.164-.05.249-.07a.4.4 0 0 0 .07-.025c.194-.09.38-.19.56-.3a.363.363 0 0 1 .208-.056 1.7 1.7 0 0 1 .38.066Z" clip-rule="evenodd"/>
      <path fill="#6A6A6A" fill-rule="evenodd" d="M11.93 7.013h.002c.13.057.264.102.404.135.04.01.073.03.097.063.03.042.03.094.027.132a.803.803 0 0 1-.008.06.267.267 0 0 1-.036.097.451.451 0 0 1-.053.07.351.351 0 0 1-.11.073l-.006.004a.468.468 0 0 0-.063.038 2.121 2.121 0 0 1-.076.052c-.025.017-.05.033-.072.051l-.02.017a.532.532 0 0 1-.064.047 1.385 1.385 0 0 1-.237.113c-.153.056-.306.115-.458.175h-.002l-.002.001a15.64 15.64 0 0 0-.607.18.634.634 0 0 1-.1.022.538.538 0 0 0-.07.014.769.769 0 0 1-.116.026 1.5 1.5 0 0 0-.25.052.835.835 0 0 1-.106.022l-.018.003c-.04.007-.055.019-.06.027-.003.006-.007.022.01.056l.014.031c.018.04.038.082.052.126.033.1.085.192.156.276.186.2.4.359.643.479a8.164 8.164 0 0 0 1.65.62.065.065 0 0 0 .019.002c.025 0 .043-.013.057-.043a.272.272 0 0 0 .019-.118c-.005-.105-.008-.21-.011-.316a.254.254 0 0 1 .024-.122c.02-.038.057-.07.112-.066h.002a.828.828 0 0 1 .122.022.343.343 0 0 1 .065.025c.229.112.448.238.658.377.105.052.213.096.324.133.065.018.115.052.14.106.02.043.014.087.002.123-.008.025-.021.05-.032.073l-.012.025a.407.407 0 0 0-.022.062.661.661 0 0 0 .136.583c.014.017.025.037.034.053l.002.004a.19.19 0 0 0 .028.042l.02.018.007.005c.011.009.025.02.037.037.031.046.045.096.03.146-.015.049-.054.088-.106.121a.269.269 0 0 1-.024.014.398.398 0 0 1-.059.023h-.002a.452.452 0 0 0-.051.021l-.035.017a.42.42 0 0 1-.064.027 3.955 3.955 0 0 1-1.844.128h-.004a7.702 7.702 0 0 1-1.59-.668 1.717 1.717 0 0 1-.699-.677 13.195 13.195 0 0 1-.557-.88 1.534 1.534 0 0 1-.159-.427.405.405 0 0 0-.039-.116c-.018-.03-.035-.039-.054-.036-.02.003-.044.018-.073.056-.208.295-.44.57-.698.824-.414.42-.827.843-1.24 1.269-.1.101-.189.21-.266.329a.391.391 0 0 1-.058.072.974.974 0 0 1-.077.066.316.316 0 0 1-.156.063c-.11.013-.219.01-.328-.012h-.002a.522.522 0 0 1-.263-.157c-.03-.034-.065-.086-.053-.147a.178.178 0 0 1 .03-.069 1.61 1.61 0 0 1 .096-.122.46.46 0 0 1 .081-.071.88.88 0 0 0 .168-.158.511.511 0 0 1 .04-.045c.109-.104.22-.205.334-.304l.002-.001c.274-.215.55-.425.828-.63a.169.169 0 0 1 .044-.023.114.114 0 0 0 .027-.011.108.108 0 0 0 .018-.02.239.239 0 0 1 .032-.031 3.948 3.948 0 0 0 .83-.794l-.003-.003a.057.057 0 0 0-.03-.009.144.144 0 0 0-.047.007 3.825 3.825 0 0 0-.92.615.533.533 0 0 0-.085.11.466.466 0 0 1-.393.215 1.046 1.046 0 0 1-.49-.049.368.368 0 0 1-.073-.035c-.27-.167-.537-.338-.801-.512a.446.446 0 0 1-.064-.055l-.002-.002a.34.34 0 0 0-.055-.047.306.306 0 0 0-.039-.02.23.23 0 0 1-.048-.03.332.332 0 0 1-.084-.108l-.03-.047a1.14 1.14 0 0 1-.133-.263 1.16 1.16 0 0 1-.06-.445v-.004a.285.285 0 0 1 .156-.213.618.618 0 0 1 .352-.093h.493c.2.027.402.046.605.057.022 0 .044 0 .066-.003.28-.04.56-.077.843-.112h.003a.974.974 0 0 0 .225-.038h.002l.002-.001c.188-.033.378-.06.57-.078h.005a.759.759 0 0 0 .225-.027.567.567 0 0 1 .08-.017c.631-.082 1.26-.17 1.884-.264a.369.369 0 0 0 .055-.013 5.98 5.98 0 0 1 .248-.07.357.357 0 0 0 .064-.022 5.72 5.72 0 0 0 .551-.294.399.399 0 0 1 .228-.062c.131.007.26.03.386.067h.003Zm-6.538.915a.58.58 0 0 0-.333.088.246.246 0 0 0-.136.185 1.085 1.085 0 0 0 .187.684l.031.05.019.03a.229.229 0 0 0 .106.096l.033.018a.386.386 0 0 1 .062.053.408.408 0 0 0 .06.051c.263.174.53.345.8.512.02.013.041.024.064.032.154.053.312.068.474.046a.427.427 0 0 0 .364-.197.57.57 0 0 1 .092-.118c.28-.252.59-.46.931-.622a.184.184 0 0 1 .063-.01c.037.001.078.023.071.059a.086.086 0 0 1-.02.035 3.98 3.98 0 0 1-.826.783.142.142 0 0 0-.025.025.141.141 0 0 1-.026.025.144.144 0 0 1-.034.016.199.199 0 0 0-.036.017 41 41 0 0 0-.827.63c-.114.1-.225.2-.332.303a.487.487 0 0 0-.037.042.915.915 0 0 1-.176.165.426.426 0 0 0-.075.065 1.567 1.567 0 0 0-.093.119.14.14 0 0 0-.024.053c-.008.042.016.082.044.114a.48.48 0 0 0 .243.145c.106.02.211.024.316.012a.278.278 0 0 0 .137-.056c.025-.02.05-.04.074-.063a.353.353 0 0 0 .053-.065c.078-.12.168-.233.27-.336.413-.425.827-.848 1.24-1.268.257-.253.488-.526.694-.82.032-.042.065-.066.099-.071.084-.014.12.098.137.182.03.145.082.284.155.416.174.3.36.594.557.878.163.287.39.508.683.664a7.66 7.66 0 0 0 1.583.664c.618.101 1.227.06 1.825-.127a.392.392 0 0 0 .059-.024l.019-.01.015-.008c.018-.009.038-.016.057-.023a.509.509 0 0 0 .076-.033c.098-.061.12-.132.064-.212a.158.158 0 0 0-.034-.033c-.009-.007-.018-.014-.025-.022a.248.248 0 0 1-.036-.054.294.294 0 0 0-.03-.047.7.7 0 0 1-.144-.618.438.438 0 0 1 .038-.097c.026-.053.053-.108.03-.16-.02-.04-.059-.068-.117-.084a2.611 2.611 0 0 1-.332-.137 5.877 5.877 0 0 0-.656-.376.305.305 0 0 0-.058-.023.79.79 0 0 0-.117-.02c-.07-.006-.096.078-.094.148l.01.316c.004.09-.024.202-.115.201-.008 0-.016 0-.025-.002a8.204 8.204 0 0 1-1.66-.624 2.244 2.244 0 0 1-.655-.488.836.836 0 0 1-.164-.29A1.007 1.007 0 0 0 9.9 8.56c-.036-.078-.01-.124.08-.139l.018-.003c.034-.005.069-.01.102-.02.082-.026.168-.043.255-.054a.732.732 0 0 0 .111-.024.572.572 0 0 1 .074-.016.595.595 0 0 0 .094-.02c.2-.064.402-.124.608-.18.153-.06.306-.12.46-.176.08-.03.157-.066.23-.11a.446.446 0 0 0 .056-.041.975.975 0 0 1 .111-.081l.062-.043a.51.51 0 0 1 .068-.041l.006-.003a.34.34 0 0 0 .1-.066.42.42 0 0 0 .048-.064.23.23 0 0 0 .03-.083.782.782 0 0 0 .008-.057c.003-.036.002-.075-.02-.105a.125.125 0 0 0-.074-.048 2.53 2.53 0 0 1-.41-.136 1.64 1.64 0 0 0-.378-.066.36.36 0 0 0-.205.056 5.766 5.766 0 0 1-.556.297.394.394 0 0 1-.07.024 4.546 4.546 0 0 0-.246.07.408.408 0 0 1-.061.014 94.97 94.97 0 0 1-1.885.264.53.53 0 0 0-.074.015.798.798 0 0 1-.237.028c-.19.02-.38.045-.567.078a1.013 1.013 0 0 1-.234.04c-.282.035-.563.072-.843.111a.382.382 0 0 1-.073.004 7.7 7.7 0 0 1-.608-.057h-.488Z" clip-rule="evenodd"/>
      <path fill="#2D358E" fill-rule="evenodd" d="M14.839 9.229a4.983 4.983 0 0 1-.581 2.895 6.644 6.644 0 0 1-1.586 1.763 5.95 5.95 0 0 1-1.36.67 52.03 52.03 0 0 1-.964.246 33.05 33.05 0 0 0-.847.118l-.06-.01c.13-.021.255-.05.375-.088a9.464 9.464 0 0 0 1.595-.404c-.243.05-.486.108-.728.177a7.55 7.55 0 0 1-.985.148 3.138 3.138 0 0 1-.532.01 11.99 11.99 0 0 0 2.147-.454 8.407 8.407 0 0 0 2.59-2.117 2.72 2.72 0 0 0 .473-1.004 9.57 9.57 0 0 0 .236-2.187c.08.076.155.155.227.237Z" clip-rule="evenodd"/>
      <path fill="#2D2C1E" fill-rule="evenodd" d="M4.104 8.874c.071.587.242 1.145.512 1.674h-.02c-.027-.01-.04-.029-.04-.059a4.37 4.37 0 0 1-.452-1.615Z" clip-rule="evenodd"/>
      <path fill="#6E6C53" fill-rule="evenodd" d="M4.596 10.549h.02a.427.427 0 0 1 .089.177.62.62 0 0 1-.109-.177Z" clip-rule="evenodd"/>
      <path fill="#2E368F" fill-rule="evenodd" d="M13.933 11.455a5.489 5.489 0 0 1-1.419 1.9 5.159 5.159 0 0 1-2.028.956c-.151.03-.302.053-.453.07.23-.07.453-.152.67-.247a5.681 5.681 0 0 0 2.294-1.615c.17-.227.314-.47.433-.73a.35.35 0 0 0 .04-.157c-.726 1.353-1.84 2.206-3.339 2.561a2.26 2.26 0 0 1-.433.069c.464-.157.917-.34 1.359-.552.247-.126.484-.268.709-.423a2.32 2.32 0 0 0 .532-.443c-.666.428-1.375.78-2.127 1.054-.195.07-.392.126-.591.167a9.073 9.073 0 0 0 1.93-1.034 3.86 3.86 0 0 0 .256-.207 1.546 1.546 0 0 0-.335.148 1.988 1.988 0 0 0-.236.088c.226-.193.445-.393.66-.6a.627.627 0 0 0 .069-.119.567.567 0 0 0 .088-.118c.014-.016.01-.03-.01-.04-.11.046-.208.105-.295.178a.387.387 0 0 0-.187.138 3.609 3.609 0 0 1-.01-.02c.12-.169.255-.327.404-.472.059-.14.108-.278.147-.414a3.948 3.948 0 0 0 1.872-.138Z" clip-rule="evenodd"/>
      <path fill="#2E368C" fill-rule="evenodd" d="M12.495 14.43c-.657.301-1.34.52-2.049.66a5.363 5.363 0 0 1-1.556.05 3.458 3.458 0 0 1-.295-.05 54.59 54.59 0 0 0 1.28-.079c.278-.022.554-.061.827-.118a49.754 49.754 0 0 0 2.344-.748c-.188.09-.372.186-.551.285Z" clip-rule="evenodd"/>
    </g>
  </g>
  <defs>
    <clipPath id="a">
      <path fill="#fff" d="M0 0h18v18H0z"/>
    </clipPath>
    <clipPath id="b">
      <path fill="#fff" d="M2.4 2.7h13v12.902h-13z"/>
    </clipPath>
  </defs>
</svg>
