<svg xmlns="http://www.w3.org/2000/svg" viewBox="0 0 18 18">
  <g clip-path="url(#a)">
    <path fill="#fff" d="M0 0h18v18H0V0Z"/>
    <g clip-path="url(#b)">
      <path fill="#FFA400" d="M8.742 15.986c1.231-2.042.522-4.592.522-4.592-.252-1.125-.554-2.245-.8-3.37 0 0-.854-3.464.597-6.008-.78 2.938.748 5.798.748 5.798.384.825.817 1.636 1.188 2.466 0 0 1.673 3.342-2.255 5.706Z"/>
      <path fill="#005EB8" d="M11.559 10.412c-.298-.877-.735-1.72-1.146-2.568-.427-.882-.815-1.771-.905-2.71-.081-.887.157-1.588.157-1.588.112 1.15.712 2.234.712 2.234.362.686.757 1.363 1.137 2.045.638 1.147 1.11 2.317 1.075 3.564-.082 1.604-1.126 2.744-1.126 2.744s.9-1.515.096-3.72Z"/>
      <path fill="#05C3DD" d="M7.013 7.676c-.396.744-.385 1.531-.188 2.337.241.992.711 1.927 1.115 2.879.672 1.486.758 2.639.758 2.639s.272-.65.264-1.301c.013-.817-.227-1.608-.476-2.397-.426-1.344-.743-2.696-.626-4.076.034-.495.208-1.236.208-1.236s-.677.47-1.055 1.155Z"/>
      <path fill="#6CACE4" d="M6.494 13.455c-.378-.483-.737-.975-.912-1.546-.426-1.433.94-2.158.94-2.158s-.203 1.239.646 2.82c.273.557.572 1.104.776 1.683.337.796.203 1.5.203 1.5s-.07-.447-1.653-2.299Z"/>
    </g>
  </g>
  <defs>
    <clipPath id="a">
      <path fill="#fff" d="M0 0h18v18H0z"/>
    </clipPath>
    <clipPath id="b">
      <path fill="#fff" d="M5.5 2.015h7.091v13.97H5.5z"/>
    </clipPath>
  </defs>
</svg>
