<svg xmlns="http://www.w3.org/2000/svg" viewBox="0 0 18 18">
  <g clip-path="url(#a)">
    <path fill="#fff" d="M0 0h18v18H0V0Z"/>
    <path d="m13.98 10.204-.583.212c-.269.085-.403.254-.403.509 0 .762.045 1.525.134 2.288-1.167.636-2.513.975-3.949.975-1.032 0-1.929-.17-2.692-.551-1.57-.763-2.468-2.077-2.692-3.9 0-.21-.045-.423-.045-.592 0-1.484.538-2.67 1.57-3.518 1.257-1.06 2.738-1.525 4.443-1.525.987 0 2.064.17 3.186.466l-.225 2.33c0 .128-.044.212-.09.17-.044 0-.09-.085-.134-.212l-.27-1.144a1.903 1.903 0 0 0-.134-.381c-.045-.085-.224-.17-.404-.255a5.116 5.116 0 0 0-1.884-.339c-1.167 0-2.154.255-3.007.763-1.211.72-1.795 1.95-1.75 3.645 0 .762.18 1.44.449 2.034.359.763.853 1.356 1.526 1.695.762.381 1.525.593 2.288.593.673 0 1.346-.17 2.02-.466.403-.212.627-.466.627-.805.045-.763-.044-1.271-.134-1.568-.045-.085-.135-.17-.314-.212l-.673-.212c-.135-.042-.225-.085-.18-.127 0-.042.135-.085.27-.085h3.05c.18 0 .27.043.27.085-.09.042-.135.085-.27.127Z"/>
  </g>
  <defs>
    <clipPath id="a">
      <path fill="#fff" d="M0 0h18v18H0z"/>
    </clipPath>
  </defs>
</svg>
