<svg xmlns="http://www.w3.org/2000/svg" viewBox="0 0 18 18">
  <g clip-path="url(#a)">
    <path fill="#636569" d="M0 0h18v18H0V0Z"/>
    <path fill="#fff" d="M8.991 13.753c.498 0 .902-.523.902-1.169s-.404-1.169-.902-1.169c-.497 0-.902.524-.902 1.17 0 .645.405 1.168.902 1.168Zm0-2.827c.498 0 .902-.523.902-1.17 0-.645-.404-1.168-.902-1.168-.497 0-.897.519-.897 1.169s.404 1.169.901 1.169m-.841-2.622c.217-.454-.073-1.051-.647-1.332-.574-.28-1.215-.143-1.43.315-.216.459.073 1.05.646 1.33.574.28 1.215.144 1.431-.313ZM5.65 7.074c.215-.454-.074-1.05-.648-1.33-.574-.28-1.215-.144-1.43.315-.216.458.073 1.05.647 1.33.573.28 1.215.144 1.43-.315Zm4.177 1.229c-.216-.455.074-1.05.648-1.332.574-.282 1.214-.144 1.43.315.218.459-.074 1.051-.648 1.332-.573.28-1.213.143-1.43-.315Zm2.513-1.231c-.217-.454.073-1.05.647-1.33.574-.28 1.214-.144 1.438.315.224.459-.073 1.05-.647 1.33-.574.28-1.215.144-1.438-.315Z"/>
  </g>
  <defs>
    <clipPath id="a">
      <path fill="#fff" d="M0 0h18v18H0z"/>
    </clipPath>
  </defs>
</svg>
