<svg xmlns="http://www.w3.org/2000/svg" viewBox="0 0 18 18">
  <g clip-path="url(#a)">
    <path fill="#fff" d="M0 0h18v18H0V0Z"/>
    <path fill="#4EB2D0" d="M14.447 8.707c-.06-.403-.19-.77-.38-1.125a3.508 3.508 0 0 0-.615-.83c-.32-.332-.83-.71-1.268-.924.024.071.06.154.083.225.32.119.675.332.924.533.403.332.7.735.9 1.209.107.272.19.545.202.841.024.462 0 .924-.154 1.362a3.71 3.71 0 0 1-.652 1.185 4.141 4.141 0 0 1-1.054.924 4.81 4.81 0 0 1-.782.391 3.82 3.82 0 0 1-.806.225c-.663.664-1.338 1.102-2.002 1.375 0 0-.012 0-.012.012a6.197 6.197 0 0 0 1.552-.119 5.251 5.251 0 0 0 1.896-.794 5.217 5.217 0 0 0 1.15-1.019 5.13 5.13 0 0 0 .627-.96c.213-.438.367-.888.415-1.374a4.081 4.081 0 0 0-.024-1.137Z"/>
    <path fill="#4EB2D0" d="M8.725 14.097c.687-.25 1.327-.723 1.836-1.34-5.379.285-5.083-6.361-.166-6.978a3.017 3.017 0 0 0-.462-.284c-5.343.356-7.132 7.512-1.208 8.602Z"/>
    <path fill="#F27321" d="M12.61 7.7a7.93 7.93 0 0 0-.331-1.647c-.024-.083-.06-.154-.083-.225-1.659-4.29-7.274-2.95-8.471 1.978-1.066 4.36 1.825 7.642 5.142 6.303.663-.26 1.339-.71 2.002-1.374 1.292-1.291 1.848-3.21 1.742-5.035Zm-.71 1.919c-.095 1.114-.593 2.263-1.339 3.14-.521.616-1.15 1.09-1.836 1.338-1.398.498-2.95-.154-3.65-1.421-1.232-2.299-.45-4.645.806-6.126 1.315-1.469 2.856-1.658 4.052-1.054.154.083.308.178.462.284 1.02.759 1.67 2.168 1.505 3.839Z"/>
  </g>
  <defs>
    <clipPath id="a">
      <path fill="#fff" d="M0 0h18v18H0z"/>
    </clipPath>
  </defs>
</svg>
