<svg xmlns="http://www.w3.org/2000/svg" viewBox="0 0 18 18">
  <g clip-path="url(#a)">
    <path fill="#1B2845" d="M0 0h18v18H0V0Z"/>
    <path fill="#FBBF16" d="M14.986 9.013h-.933a5.05 5.05 0 0 1-3.11 4.654 5.05 5.05 0 0 1-5.54-1.134l-.668.651a5.957 5.957 0 0 0 4.272 1.798v.003c.811 0 1.585-.162 2.29-.455a5.94 5.94 0 0 0 1.888-1.245l-.002-.002a5.958 5.958 0 0 0 1.803-4.27"/>
    <path fill="#2D9EDF" d="M14.355 9.003h-.836a4.526 4.526 0 0 1-2.787 4.171 4.526 4.526 0 0 1-4.966-1.017l-.598.584a5.338 5.338 0 0 0 3.828 1.611v.003c.727 0 1.42-.145 2.053-.408a5.321 5.321 0 0 0 1.692-1.115l-.002-.002a5.339 5.339 0 0 0 1.616-3.827Z"/>
    <path fill="url(#b)" d="m5.637 4.035-.001-.003A5.974 5.974 0 0 0 3.31 7.096a5.96 5.96 0 0 0-.255 2.71c.119.89.44 1.766.976 2.558a5.973 5.973 0 0 0 3.063 2.325l.001-.002a5.992 5.992 0 0 0 5.268-.72l-.476-.703a5.16 5.16 0 0 1-6.002-.162 5.176 5.176 0 0 1-1.99-3.412 5.176 5.176 0 0 1 .988-3.786 5.16 5.16 0 0 1 5.75-1.788l.27-.805A5.96 5.96 0 0 0 9.005 3c-1.211 0-2.384.37-3.368 1.035Z"/>
    <path fill="#FBBF16" d="M9 3.647v-.002c-.788 0-1.536.17-2.21.477a5.338 5.338 0 0 0-1.535 1.05l-.027.027-.015.014A5.322 5.322 0 0 0 4.174 6.68v.002a4.98 4.98 0 0 0-.045.094l-.022.05-.02.045A5.325 5.325 0 0 0 3.645 9h.003c0 1.352.506 2.705 1.525 3.745l.597-.585a4.526 4.526 0 0 1-.948-4.882l.002-.006a3.2 3.2 0 0 1 .052-.12l.011-.025a4.546 4.546 0 0 1 2.246-2.243l.037-.016.05-.022a4.527 4.527 0 0 1 4.975.958l.591-.591A5.337 5.337 0 0 0 9 3.648"/>
    <path fill="#E51636" d="m9.69 5.18.059.012.026.005.084.019c.415.093.821.257 1.201.495l.449-.715a4.703 4.703 0 0 0-1.458-.603 4.454 4.454 0 0 0-.11-.023l-.026-.006a4.14 4.14 0 0 0-.178-.031 4.7 4.7 0 0 0-2.55.305 4.7 4.7 0 0 0-1.952 1.506l-.005.008a3.303 3.303 0 0 0-.053.07l-.03.042a11.105 11.105 0 0 0-.09.13 4.698 4.698 0 0 0-.664 1.555l.823.188a3.865 3.865 0 0 1 .546-1.277l.008-.012.042-.06.024-.035a2.012 2.012 0 0 1 .072-.099A3.907 3.907 0 0 1 7.51 5.418a3.905 3.905 0 0 1 2.126-.246l.053.009m-.516 7.696a4.014 4.014 0 0 1-.173.004c-.426 0-.858-.07-1.281-.217l-.279.797c.514.18 1.04.265 1.555.265.038 0 .075 0 .112-.002h.027l.08-.003a6.326 6.326 0 0 0 .1-.006 4.696 4.696 0 0 0 2.42-.862 4.698 4.698 0 0 0 1.57-1.902c0-.003.002-.006.003-.008l.036-.081.02-.047.019-.048.032-.081.007-.018a4.705 4.705 0 0 0 .304-1.663l-.844-.001a3.873 3.873 0 0 1-.25 1.366l-.005.014a8.854 8.854 0 0 1-.027.068l-.016.039-.017.038-.028.066-.004.008a3.903 3.903 0 0 1-1.288 1.56 3.906 3.906 0 0 1-2.019.711l-.054.003"/>
    <path fill="#2D9EDF" d="m11.195 12.439-.454-.712a3.24 3.24 0 0 1-3.523-.027l-.023-.015a3.437 3.437 0 0 1-.114-.08l-.017-.012a3.409 3.409 0 0 1-.113-.088l-.014-.012a3.048 3.048 0 0 1-.108-.094l-.014-.012a3.554 3.554 0 0 1-.212-.213l-.013-.015a3.06 3.06 0 0 1-.091-.106l-.012-.014a3.355 3.355 0 0 1-.087-.114l-.007-.01a3.24 3.24 0 0 1-.175-3.566l-.727-.431a4.084 4.084 0 0 0 .07 4.277 3 3 0 0 0 .096.144l.003.005c.016.022.032.045.05.067a1.374 1.374 0 0 0 .055.076l.02.026.04.05.025.03.039.047.028.032.037.043.03.033.038.042.031.032.04.04.03.032.041.04.032.03.042.04.032.029.044.038.032.028.045.038.034.028a4.365 4.365 0 0 0 .08.064l.042.032.041.03.038.027.048.034.03.02.058.04.017.01.138.087a4.084 4.084 0 0 0 4.278-.07"/>
    <path fill="url(#c)" d="M5.563 8.972V9h.844A2.595 2.595 0 0 1 9 6.408v-.845a3.441 3.441 0 0 0-3.437 3.409Z"/>
    <path fill="url(#d)" d="M11.592 9A2.595 2.595 0 0 1 9 11.593v.844A3.441 3.441 0 0 0 12.437 9h-.845Z"/>
    <path fill="#1E59AE" d="M7.858 12.24A3.426 3.426 0 0 1 5.9 10.485l.761-.365c.31.645.851 1.104 1.477 1.324l-.28.796Z"/>
    <path fill="url(#e)" d="M14.513 8.58h-3.585a1.96 1.96 0 0 1-.002.848h3.206a4.497 4.497 0 0 1-.005.054l-.01.09a5.149 5.149 0 0 1-.252 1.115 5.289 5.289 0 0 1-.155.395l.777.343c.19-.429.325-.869.408-1.312l.002-.009.013-.072.01-.054.001-.01a5.846 5.846 0 0 0 .063-.53l.002-.041.01-.172.001-.07.002-.067.001-.072v-.071l-.002-.043a5.844 5.844 0 0 0-.013-.323h-.472Z"/>
    <path fill="#E51636" d="M7.059 9.361c.047.253.143.5.293.727l-.676.446a2.767 2.767 0 0 1-.41-1.006l.793-.167Z"/>
  </g>
  <defs>
    <linearGradient id="b" x1="2.994" x2="12.359" y1="9.129" y2="9.129" gradientUnits="userSpaceOnUse">
      <stop stop-color="#49B3DF"/>
      <stop offset="1" stop-color="#1D59AD"/>
    </linearGradient>
    <linearGradient id="c" x1="5.563" x2="9" y1="7.282" y2="7.282" gradientUnits="userSpaceOnUse">
      <stop stop-color="#469DDC"/>
      <stop offset="1" stop-color="#244990"/>
    </linearGradient>
    <linearGradient id="d" x1="9" x2="12.437" y1="10.719" y2="10.719" gradientUnits="userSpaceOnUse">
      <stop stop-color="#49B3DF"/>
      <stop offset="1" stop-color="#1D59AD"/>
    </linearGradient>
    <linearGradient id="e" x1="10.377" x2="14.309" y1="13.335" y2="8.268" gradientUnits="userSpaceOnUse">
      <stop stop-color="#49B3DF"/>
      <stop offset="1" stop-color="#1D59AD"/>
    </linearGradient>
    <clipPath id="a">
      <path fill="#fff" d="M0 0h18v18H0z"/>
    </clipPath>
  </defs>
</svg>
