<svg xmlns="http://www.w3.org/2000/svg" viewBox="0 0 18 18">
  <g clip-path="url(#a)">
    <path fill="#fff" d="M0 0h18v18H0V0Z"/>
    <path fill="#FF3A00" d="M9.332 3.84C6.269 3.84 4 6.108 4 9v.028c0 3.005 2.297 5.131 5.389 5.131 1.815 0 3.261-.666 4.31-1.545v-4.45h-3.574l-1.383 2.012h2.348v1.205c-.397.27-.907.411-1.588.411-1.574 0-2.694-1.148-2.694-2.764V9c0-1.517 1.106-2.708 2.538-2.708.691 0 1.238.165 1.745.466l1.44-2.094c-.871-.53-1.892-.824-3.199-.824Z"/>
  </g>
  <defs>
    <clipPath id="a">
      <path fill="#fff" d="M0 0h18v18H0z"/>
    </clipPath>
  </defs>
</svg>
