<svg xmlns="http://www.w3.org/2000/svg" viewBox="0 0 18 18">
  <g clip-path="url(#a)">
    <path fill="url(#b)" d="M0 0h18v18H0V0Z" />
    <path fill="#fff" fill-rule="evenodd"
      d="M6.738 8.645s-2.142.75-3.138 1.428c-.38.242-1.234 1.344.203 1.344a4.73 4.73 0 0 0 1.204-.257l1.935-.649.323 2.714s.06.451.095.6c0 0 .074.773.564.665a3.065 3.065 0 0 0 1.051-.233c.088-.046.244-.128.16-.469-.157-1.275-.32-2.55-.489-3.823l1.683-.528.456 3.656s.084.838.605.683l.032-.005c.171-.033.524-.1.745-.253a.444.444 0 0 1 .017-.015c.063-.048.162-.125.015-.468-.048-.194-.56-2.459-.66-3.903l.006-.001c.153-.033 1.923-.343 1.923-.343L14 7.708a29.61 29.61 0 0 0-2.549.546c-.013-.194-.154-2.594-.044-3.811l.015-.114c.04-.317.12-.938-.46-.814-.118.019-.774.139-1.106.407a.277.277 0 0 1-.036.027c-.08.055-.154.105-.035.209l.009.015c.057.081.147.209.167.636.014.17.27 3.793.27 3.793l-1.69.55s-.318-3.03-.335-4.31v-.096c0-.301.002-.962-.669-.67-.17.055-.949.31-1.496.844 0 0-.309.23.007.324a.542.542 0 0 1 .184.205.711.711 0 0 1 .079.294c.033.203.417 2.904.417 2.904l.01-.002ZM4.496 10.08c-.105.077-.174.286.033.264.275.002 1.273-.247 2.34-.643l-.082-.72s-1.472.46-2.291 1.1Z"
      clip-rule="evenodd" />
  </g>
  <defs>
    <radialGradient id="b" cx="0" cy="0" r="1" gradientTransform="rotate(135.881 9.25 3.748) scale(22.9837 21.5969)"
      gradientUnits="userSpaceOnUse">
      <stop stop-color="#00A8AB" />
      <stop offset=".715" stop-color="#0069B3" />
    </radialGradient>
    <clipPath id="a">
      <path fill="#fff" d="M0 0h18v18H0z" />
    </clipPath>
  </defs>
</svg>