<svg xmlns="http://www.w3.org/2000/svg" viewBox="0 0 18 18">
  <g clip-path="url(#a)">
    <path fill="#12132F" d="M0 0h18v18H0V0Z"/>
    <g clip-path="url(#b)">
      <path fill="#EA540A" d="m8.542 3.502.99-.001v3.412c.805-.804 1.609-1.61 2.413-2.415.238.236.475.474.71.711-.798.807-1.604 1.607-2.405 2.412h3.398v1.002H10.25c.801.805 1.606 1.606 2.407 2.412l-.71.71-2.91-2.91-2.909 2.91c-.238-.236-.477-.472-.711-.712.8-.804 1.605-1.604 2.403-2.408-1.13-.003-2.263-.001-3.395-.002V7.621h3.398c-.801-.805-1.607-1.605-2.405-2.412.235-.237.472-.475.71-.71l2.414 2.415V3.502Zm-1.847 9.99h4.683c.001.334 0 .668 0 1.003H6.696v-1.003Z"/>
    </g>
  </g>
  <defs>
    <clipPath id="a">
      <path fill="#fff" d="M0 0h18v18H0z"/>
    </clipPath>
    <clipPath id="b">
      <path fill="#fff" d="M4.42 3.5h9.235v11H4.42z"/>
    </clipPath>
  </defs>
</svg>
