<svg xmlns="http://www.w3.org/2000/svg" viewBox="0 0 18 18">
  <g clip-path="url(#a)">
    <path fill="#fff" d="M0 0h18v18H0V0Z"/>
    <path fill="#7A8691" d="m6.606 12.61-.107.114c.021-.146.108-.338.108-.338l.318-.704.456-.957.606-1.18.62-1.2.66-1.225s.464-.79.624-1.035c.272-.417.666-.91.846-1.108.781-1.007 2.68-1.626 4.024-.78 0 0-.853.135-1.462.47 0 0-.755.347-1.497 1.518 0 0-.169.27-.31.469 0 0-.21.311-.618.362 0 0-.75.102-.865.199 0 0 .548-.019.953.199 0 0-1.33.167-1.35.341 0 0 .612-.115.96.152-1.074.267-1.502.567-1.797.905-.24.273-.178.2-.355.475-.23.356-.56.953-.86 1.574-.322.67-.61 1.252-.654 1.348 0 0-.079.163-.111.206-.037.048-.033.042-.087.093-.042.039-.052.054-.102.103"/>
    <path fill="#264382" d="M6.885 14.706c-1.315 0-2.385-1.081-2.385-2.41 0-1.328 1.07-2.41 2.385-2.41a.313.313 0 1 1 0 .626c-.97 0-1.76.8-1.76 1.784 0 .983.79 1.784 1.76 1.784s1.76-.8 1.76-1.784c0-.403-.13-.783-.373-1.099a.313.313 0 1 1 .495-.382 2.4 2.4 0 0 1 .503 1.48c0 1.33-1.07 2.41-2.385 2.41Z"/>
  </g>
  <defs>
    <clipPath id="a">
      <path fill="#fff" d="M0 0h18v18H0z"/>
    </clipPath>
  </defs>
</svg>
