<svg xmlns="http://www.w3.org/2000/svg" viewBox="0 0 18 18">
  <g clip-path="url(#a)">
    <path fill="#fff" d="M0 0h18v18H0V0Z"/>
    <path d="m7.18 11.346-.712-2.602-.012-.029h.718a.334.334 0 0 1 .232.09s1.723 1.854 2.187 2.22c.373.295.601.316.777.316h.29L8.507 6.31H7.166L5.03 11.347h2.15ZM4.639 6.312H3.24v5.033h1.399V6.312Zm5.699 2.541v-.015c0-1.46 1.145-2.605 2.698-2.605a2.922 2.922 0 0 1 2.032.73l-.816.98a1.768 1.768 0 0 0-1.209-.472c-.723 0-1.281.609-1.281 1.375v.014a1.324 1.324 0 0 0 1.36 1.388c.281.012.56-.06.801-.207v-.609h-.988V8.416h2.305v2.255a3.387 3.387 0 0 1-2.176.772c-1.56 0-2.726-1.073-2.726-2.59Z"/>
  </g>
  <defs>
    <clipPath id="a">
      <path fill="#fff" d="M0 0h18v18H0z"/>
    </clipPath>
  </defs>
</svg>
