<svg xmlns="http://www.w3.org/2000/svg" viewBox="0 0 18 18">
  <g clip-path="url(#a)">
    <path d="M0 0h18v18H0V0Z"/>
    <path fill="#fff" fill-rule="evenodd" d="M11.12 6.861a1.193 1.193 0 0 1-1.053.726.17.17 0 0 1-.172-.163.167.167 0 0 1 .16-.174.842.842 0 0 0 .43-.132.869.869 0 0 0 .332-.393.325.325 0 0 0-.27-.456.687.687 0 0 0-.556.203c-.235.24-.331.666-.373.848-.035.157-.427 1.847-.585 2.53a.233.233 0 0 1-.455 0l-.058-.247-.528-2.281c-.041-.184-.137-.61-.373-.85a.69.69 0 0 0-.555-.203.326.326 0 0 0-.27.456.848.848 0 0 0 .76.525.169.169 0 0 1-.011.337 1.168 1.168 0 0 1-.595-.184 1.2 1.2 0 0 1-.458-.542.671.671 0 0 1 .04-.614.646.646 0 0 1 .515-.315c.318-.019.596.086.809.302.303.308.414.8.462 1.011.029.13.306 1.326.49 2.115l.489-2.114c.047-.211.158-.704.462-1.012.212-.216.491-.32.808-.302.212.013.405.13.516.316a.671.671 0 0 1 .04.613ZM9.636 4.196c-.223 0-.45.039-.673.115a.492.492 0 0 1-.315 0 2.097 2.097 0 0 0-.674-.115c-1.277 0-2.357 1.297-2.357 2.831 0 1.709 1.288 3.217 3.131 3.668a.22.22 0 0 0 .114 0c1.844-.45 3.131-1.96 3.131-3.668 0-1.534-1.08-2.83-2.357-2.83Z" clip-rule="evenodd"/>
    <path fill="#fff" fill-rule="evenodd" d="M8.94 11.023a.566.566 0 0 1-.27 0c-1.993-.488-3.385-2.131-3.385-3.996 0-1.717 1.232-3.168 2.69-3.168.258 0 .52.044.778.132a.165.165 0 0 0 .105 0c.258-.088.52-.132.778-.132 1.458 0 2.689 1.45 2.689 3.168 0 1.865-1.392 3.508-3.385 3.996Zm3.19-.463a.167.167 0 0 1-.166.168.167.167 0 0 1-.166-.168v-.236c0-.093.074-.168.166-.168.091 0 .166.075.166.168v.236Zm0 1.068a.167.167 0 0 1-.166.169.167.167 0 0 1-.166-.169v-.235c0-.093.074-.168.166-.168.091 0 .166.075.166.168v.235Zm-1.053.535a.167.167 0 0 1-.166.168.167.167 0 0 1-.166-.168v-.235c0-.094.074-.169.166-.169.091 0 .166.075.166.169v.235Zm0 1.069a.167.167 0 0 1-.166.168.167.167 0 0 1-.166-.168v-.236c0-.093.074-.168.166-.168.091 0 .166.075.166.168v.236Zm-1.053-.535a.167.167 0 0 1-.166.169.167.167 0 0 1-.166-.169v-.235c0-.093.074-.168.166-.168.092 0 .166.075.166.168v.235Zm0 1.069a.167.167 0 0 1-.166.169.167.167 0 0 1-.166-.169v-.235c0-.093.074-.169.166-.169.092 0 .166.076.166.169v.235ZM8.97 12.163a.167.167 0 0 1-.166.168.167.167 0 0 1-.166-.168v-.235c0-.094.074-.169.166-.169.092 0 .166.075.166.169v.235Zm0 1.069a.167.167 0 0 1-.166.168.167.167 0 0 1-.166-.168v-.236c0-.093.074-.168.166-.168.092 0 .166.075.166.168v.236Zm-1.053-.535a.167.167 0 0 1-.166.169.167.167 0 0 1-.166-.169v-.235c0-.093.075-.168.166-.168.092 0 .166.075.166.168v.235Zm0 1.069a.167.167 0 0 1-.166.169.167.167 0 0 1-.166-.169v-.235c0-.093.075-.169.166-.169.092 0 .166.076.166.169v.235Zm-1.053-1.603a.167.167 0 0 1-.166.168.167.167 0 0 1-.166-.168v-.235c0-.094.075-.169.166-.169.092 0 .166.075.166.169v.235Zm0 1.069a.167.167 0 0 1-.166.168.167.167 0 0 1-.166-.168v-.236c0-.093.075-.168.166-.168.092 0 .166.075.166.168v.236ZM5.813 10.56a.167.167 0 0 1-.166.168.167.167 0 0 1-.166-.168v-.236c0-.093.074-.168.166-.168.091 0 .166.075.166.168v.236Zm0 1.068a.167.167 0 0 1-.166.169.167.167 0 0 1-.166-.169v-.235c0-.093.074-.168.166-.168.091 0 .166.075.166.168v.235ZM8.805 3c-2.28 0-4.127 1.876-4.127 4.19v3.62c0 2.314 1.848 4.19 4.127 4.19 2.28 0 4.127-1.876 4.127-4.19V7.19c0-2.314-1.847-4.19-4.127-4.19Z" clip-rule="evenodd"/>
  </g>
  <defs>
    <clipPath id="a">
      <path fill="#fff" d="M0 0h18v18H0z"/>
    </clipPath>
  </defs>
</svg>
