<svg xmlns="http://www.w3.org/2000/svg" viewBox="0 0 18 18">
  <g clip-path="url(#a)">
    <path fill="#fff" d="M0 0h18v18H0V0Z"/>
    <path d="M4 4.055h10v9.892H4V4.055Zm.72.72v.797h.936c.555 1.087 1.11 2.17 1.664 3.252h-.778l-1.26-2.477h-.558v3.82h8.47V6.352h-.554c-.1.196-.204.392-.296.593l-.255.508c-.096.197-.204.39-.3.59-.035.073-.066.146-.108.215-.1.185-.193.374-.285.563-.258.004-.516-.004-.774.004.138-.285.277-.57.427-.848.1-.204.205-.408.309-.609.169-.323.327-.65.504-.97.127-.262.266-.516.4-.775a.092.092 0 0 0 .012-.046h.925v-.805h-2.5c-.243 1.356-.482 2.704-.72 4.056h-.67c.23-1.352.461-2.7.693-4.052H7.956c.22 1.352.443 2.7.667 4.052h-.678c-.228-1.352-.451-2.7-.678-4.052H4.72Zm0 6.125v.832h8.471v-.828c-.03-.012-.065 0-.1-.004H4.72Zm0 1.56v.763h8.471v-.767c-2.824.004-5.647 0-8.47.004Z"/>
    <path fill="#70A39A" d="M4.72 4.774h2.547c.227 1.352.45 2.7.678 4.053h.678l-.67-4.053h2.045l-.694 4.053h.67c.24-1.352.478-2.7.713-4.053h2.5v.806h-.924c0 .015 0 .03-.012.046-.135.258-.273.512-.4.774-.178.32-.336.647-.505.97-.104.201-.208.405-.308.61-.15.28-.29.566-.428.847.258-.012.516-.004.774-.004.093-.189.185-.378.285-.562.039-.07.07-.143.108-.216.097-.197.205-.39.3-.59.086-.169.17-.339.255-.508.096-.2.196-.397.297-.593h.554v3.817h-8.47V6.35h.558l1.26 2.477h.778L5.645 5.576h-.936c.011-.27.011-.536.011-.802Zm0 6.126h8.37c.032.003.07-.004.101.003v.829h-8.47v-.833Zm0 1.559h8.471v.767h-8.47v-.767Z"/>
  </g>
  <defs>
    <clipPath id="a">
      <path fill="#fff" d="M0 0h18v18H0z"/>
    </clipPath>
  </defs>
</svg>
