<svg xmlns="http://www.w3.org/2000/svg" viewBox="0 0 18 18">
  <g clip-path="url(#a)">
    <path fill="#fff" d="M0 0h18v18H0V0Z"/>
    <path fill="#851C66" fill-rule="evenodd" d="M3.5 9a5.497 5.497 0 0 0 3.349 5.06V8.978c0-.026 0-.054.002-.081.058-.906.995-1.628 2.141-1.628.052 0 .103.003.155.005l.032.002c.05.005.1.008.15.015h.004c.054.008.107.016.158.026l.006.001c.325.062.62.185.868.351V3.673A5.501 5.501 0 0 0 3.5 9.001Z" clip-rule="evenodd"/>
    <path fill="#FC0" d="M11.137 3.933v5.05c0 .948-.96 1.716-2.145 1.716a2.54 2.54 0 0 1-1.1-.245v-.827c.246.266.64.442 1.085.449.757.012 1.379-.464 1.39-1.064.01-.6-.596-1.094-1.354-1.108-.757-.011-1.38.465-1.39 1.064l.003.028v1.306l-.003-.002.003 4.026a5.499 5.499 0 0 0 3.511-10.393Z"/>
  </g>
  <defs>
    <clipPath id="a">
      <path fill="#fff" d="M0 0h18v18H0z"/>
    </clipPath>
  </defs>
</svg>
