<svg xmlns="http://www.w3.org/2000/svg" viewBox="0 0 18 18">
  <g clip-path="url(#a)">
    <path fill="#E90029" d="M0 0h18v18H0V0Z"/>
    <path fill="#fff" d="M15 9.265c-.092 0-.295-.115-.434-.662-.225-.886-.34-1.619-.721-1.619-.381 0-.567.745-.8 1.622-.134.517-.278.662-.506.662-.227 0-.434-.103-.765-1.456C11.479 6.63 11.29 4.5 10.329 4.5c-.96 0-1.246 2.786-1.37 3.323-.151.66-.52 1.442-.996 1.442s-.72-.546-.866-1.137C6.88 7.242 6.631 5.93 6.001 5.93c-.629 0-.836 1.075-1.113 2.26-.166.694-.41 1.075-.887 1.075H3a.848.848 0 0 1 .464.67c.156.99.278 1.61.63 1.61.35 0 .475-.507.679-1.34.147-.644.392-.94.682-.94.434 0 .63.517.868 1.519.464 1.979.568 2.954 1.321 2.954s.866-.96 1.362-2.954c.216-.857.63-1.519 1.105-1.519s.812.63.99 1.135c.372 1.096.546 1.506.96 1.506.413 0 .65-.493 1.01-1.693.227-.738.269-.948.94-.948H15Z"/>
  </g>
  <defs>
    <clipPath id="a">
      <path fill="#fff" d="M0 0h18v18H0z"/>
    </clipPath>
  </defs>
</svg>
