<svg xmlns="http://www.w3.org/2000/svg" viewBox="0 0 18 18">
  <g clip-path="url(#a)">
    <path fill="#8ED500" d="M0 0h18v18H0V0Z"/>
    <path fill="#fff" fill-rule="evenodd" d="M9.507 5c2.209 0 3.914 1.58 3.914 3.591v4.216a.19.19 0 0 1-.056.136.194.194 0 0 1-.135.057h-1.757a.188.188 0 0 1-.136-.056.194.194 0 0 1-.055-.137V8.885c0-.872-.666-1.86-1.775-1.86-1.163 0-1.776.988-1.776 1.86v3.921a.189.189 0 0 1-.057.136.196.196 0 0 1-.135.057H5.782a.197.197 0 0 1-.106-.032.197.197 0 0 1-.07-.087.267.267 0 0 1-.006-.017l-.005-.019a.253.253 0 0 1-.004-.038V9.012a.266.266 0 0 0-.053-.153.248.248 0 0 0-.135-.09C3.86 8.347 3.29 7.165 3.25 5.474a.185.185 0 0 1 .032-.109.184.184 0 0 1 .086-.072.15.15 0 0 1 .036-.012.26.26 0 0 1 .038-.004h1.386v.011h.419a.188.188 0 0 1 .133.054.187.187 0 0 1 .058.131c.02.692.158 1.064.484 1.261a.188.188 0 0 0 .207-.01.195.195 0 0 0 .05-.053C6.86 5.66 8.078 5 9.505 5Z" clip-rule="evenodd"/>
  </g>
  <defs>
    <clipPath id="a">
      <path fill="#fff" d="M0 0h18v18H0z"/>
    </clipPath>
  </defs>
</svg>
