<svg xmlns="http://www.w3.org/2000/svg" viewBox="0 0 18 18">
  <g clip-path="url(#a)">
    <path fill="#fff" d="M0 0h18v18H0V0Z"/>
    <path fill="#E7161A" d="M11.782 11.859c-.01-.003-.02-.007-.02-.01L10.58 9.108l2.712-2.951a.033.033 0 0 1 .007-.005A.576.576 0 0 0 13.274 5h-2.835a.576.576 0 0 0-.25 1.095.038.038 0 0 1 .01.033.037.037 0 0 1-.021.026c-.027.011-1.294 1.408-1.294 1.408s.341-1.375.35-1.406a.075.075 0 0 1 .034-.038A.576.576 0 0 0 9.072 5H6.07a.576.576 0 0 0-.149 1.133c.01.007.017.014.015.022L4.521 11.85a.117.117 0 0 1-.046.054A.576.576 0 0 0 4.723 13h2.835a.576.576 0 0 0 .29-1.073.091.091 0 0 1-.03-.077L8.3 9.915l.833 1.934c.002.006-.006.01-.015.014A.576.576 0 0 0 9.25 13h2.416a.576.576 0 0 0 .115-1.141"/>
  </g>
  <defs>
    <clipPath id="a">
      <path fill="#fff" d="M0 0h18v18H0z"/>
    </clipPath>
  </defs>
</svg>
