<svg xmlns="http://www.w3.org/2000/svg" viewBox="0 0 18 18">
  <g clip-path="url(#a)">
    <path d="M0 0h18v18H0V0Z"/>
    <path fill="#fff" d="M10.83 4.92a.52.52 0 0 0-.52.518v6.06c0 .936.647 1.582 1.585 1.582h1.335a.52.52 0 0 0 .52-.518v-.924h-1.24a.466.466 0 0 1-.464-.466V4.92H10.83Zm-6.313 0A.519.519 0 0 0 4 5.439v7.641h1.216a.519.519 0 0 0 .517-.519v-2.033l.986 1.21.837 1.031a.78.78 0 0 0 .62.31h1.697l-1.098-1.346-1.583-1.948 2.3-2.833H8.236c-.563 0-.949.171-1.29.573l-1.213 1.49V4.92H4.517Z"/>
    <path d="m12.627 7.155-4.54.002c-.616 0-1.021.218-1.308.566l-.874 1.078c.318-.24.754-.383 1.2-.383h5.522c.7 0 1.373-.214 1.373-.766 0-.55-.063-.854-.063-.854s-.329.357-1.31.357ZM5.9 8.805l.001.002.005-.006-.006.005Z"/>
    <path fill="#D22D29" d="M13.892 6.614c-.004.003-.33.336-1.265.336H8.205c-.698 0-1.026.284-1.277.591L5.912 8.793s.48-.455 1.185-.455h5.53c.605 0 1.02-.119 1.234-.353a.472.472 0 0 0 .138-.332V6.5l-.107.113Z"/>
  </g>
  <defs>
    <clipPath id="a">
      <path fill="#fff" d="M0 0h18v18H0z"/>
    </clipPath>
  </defs>
</svg>
