<svg xmlns="http://www.w3.org/2000/svg" viewBox="0 0 18 18">
  <g clip-path="url(#a)">
    <path fill="#232773" d="M0 0h18v18H0V0Z"/>
    <g clip-path="url(#b)">
      <path fill="#fff" d="M11.934 5.975a5.914 5.914 0 0 0-.211-.141 4.355 4.355 0 0 1-.196.305 2.34 2.34 0 0 1-.112.144 2.546 2.546 0 0 1-.118.138 5.124 5.124 0 0 0 .33-.211 5.183 5.183 0 0 0 .308-.235Zm-2.051 1.73.153.016c.05.005.1.013.149.023a4.076 4.076 0 0 1 .3.07c.232-.126.282-.061.282-.061a.487.487 0 0 1 .029.076.348.348 0 0 1-.03.235.222.222 0 0 1 .003.082.357.357 0 0 1-.02.08.33.33 0 0 1-.045.07.442.442 0 0 1-.064.053c0-.02 0-.159-.238-.094-.237.064-.334.176-.52.123.02.018.042.033.065.044a.197.197 0 0 0 .076.027.288.288 0 0 0 .156-.015c.173-.07.373-.185.455-.085.061.264-.2.385-1.133.599-.564.129-.69.807-.672 1.168.047 1.137.93 1.29 2.072 1.381 1.034.082 1.815.598 2 1.473a4.764 4.764 0 0 0 .878-1.647c.185-.601.246-1.23.187-1.855a4.869 4.869 0 0 0-.534-1.792 4.849 4.849 0 0 0-1.174-1.45 5.34 5.34 0 0 1-.681.493 5.238 5.238 0 0 1-1.56.62 5.218 5.218 0 0 1-.833.108c.055.03.11.057.167.082a1.87 1.87 0 0 0 .35.13c.06.017.121.033.182.046ZM6.862 6.533l-.118-.118a1.998 1.998 0 0 1-.108-.123 4.445 4.445 0 0 1-.197-.262l-.185.142a4.34 4.34 0 0 0 .458.287c.05.03.104.058.159.085l-.01-.011Zm1.538.475a3.069 3.069 0 0 0 .282.023l.141.01h.225a2.951 2.951 0 0 0 .365-.022l.18-.02c.06-.008.12-.018.18-.03a2.646 2.646 0 0 0 .958-.49c.144-.112.273-.238.39-.376a2.6 2.6 0 0 0 .309-.443 4.758 4.758 0 0 0-2.378-.54 4.757 4.757 0 0 0-2.334.714l.085.12a5.555 5.555 0 0 0 .188.223 2.7 2.7 0 0 0 1.409.828v.003Zm-.796 1.184c.282-.294.505-.161.505-.161a.222.222 0 0 0-.05-.056.34.34 0 0 0-.064-.036.263.263 0 0 0-.073-.01.282.282 0 0 0-.074.014 2.387 2.387 0 0 1-.174.076c-.06.021-.12.04-.181.059a2.076 2.076 0 0 1-.37.07c-.367 0-1.125-.473-1.078-.593.018-.047.212-.11.402-.158.55-.142 1.513.173 1.513.173a.34.34 0 0 1 .05-.047.66.66 0 0 1 .108-.088.484.484 0 0 1 .056-.038h.044a4.825 4.825 0 0 1-1.192-.33 5.122 5.122 0 0 1-1.074-.604A4.78 4.78 0 0 0 4.71 8.439a4.804 4.804 0 0 0-.168 2.325 4.817 4.817 0 0 0 2.792 3.568c-1.564-1.89-.326-5.506.27-6.14Z"/>
      <path fill="#fff" d="M6.245 4.333a2.813 2.813 0 0 1 .212-1.124.219.219 0 0 0 .003-.06.173.173 0 0 0-.021-.052.173.173 0 0 0-.082-.08.242.242 0 0 0-.059-.014.206.206 0 0 0-.059.009.167.167 0 0 0-.052.026.127.127 0 0 0-.042.044 3.138 3.138 0 0 0 .291 2.952 3 3 0 0 1 .282-.189 3.018 3.018 0 0 1-.2-.349 2.962 2.962 0 0 1-.273-1.163Zm5.848.393a.216.216 0 0 0 .012-.05.198.198 0 0 0-.021-.103.253.253 0 0 0-.031-.04.21.21 0 0 0-.045-.03.135.135 0 0 0-.05-.014.214.214 0 0 0-.053 0 .197.197 0 0 0-.09.047.176.176 0 0 0-.033.043.297.297 0 0 0-.018.048.154.154 0 0 0-.002.053 3.119 3.119 0 0 1-.047.258 3.633 3.633 0 0 1-.074.25 2.71 2.71 0 0 1-.211.475 7.393 7.393 0 0 0 .147.083c.025.015.05.031.073.047l.07.043c.047-.084.091-.17.132-.26a3.238 3.238 0 0 0 .24-.846v-.004Zm1.154.377a.19.19 0 0 0 .024-.047.603.603 0 0 0 .008-.053.188.188 0 0 0-.006-.05.134.134 0 0 0-.015-.05.22.22 0 0 0-.07-.08.236.236 0 0 0-.1-.032.188.188 0 0 0-.1.021.22.22 0 0 0-.079.07 4.606 4.606 0 0 1-.698.849 5.84 5.84 0 0 1-.277.244c.115.079.224.161.333.253a8.25 8.25 0 0 0 .275-.256 4.809 4.809 0 0 0 .49-.564c.075-.1.147-.201.215-.305ZM4.405 2.478a.17.17 0 0 0-.018-.077.216.216 0 0 0-.041-.065.262.262 0 0 0-.065-.043.188.188 0 0 0-.156.002.307.307 0 0 0-.064.045.216.216 0 0 0-.04.067.207.207 0 0 0-.016.076c.03 1.665.705 3.048 1.943 3.967a1.572 1.572 0 0 1 .15-.14c.026-.024.051-.047.076-.068l.083-.062C5.073 5.335 4.43 4.042 4.405 2.478Z"/>
    </g>
  </g>
  <defs>
    <clipPath id="a">
      <path fill="#fff" d="M0 0h18v18H0z"/>
    </clipPath>
    <clipPath id="b">
      <path fill="#fff" d="M4 2.272h10v12.456H4z"/>
    </clipPath>
  </defs>
</svg>
