<svg xmlns="http://www.w3.org/2000/svg" viewBox="0 0 18 18">
  <g clip-path="url(#a)">
    <path fill="#AD112B" d="M0 0h18v18H0V0Z"/>
    <path fill="#fff" d="M3 18h9.773l-1.389-1.87a.342.342 0 0 1 .166-.527 4.053 4.053 0 0 0-.29-.223l-.028-.018h-.001c-.168-.11-.293-.19-.222-.343l.098-.203c.107-.225.205-.432.28-.403.027.008.077.018.14.03l.052.01c.176.032.412.077.498.122.068.03.326.03.591-.095.315-.143.455-.355.53-.47a.691.691 0 0 1 .04-.058.1.1 0 0 1 .02-.02c.069-.03.198-.221.198-.221.06-.06.09-.14.099-.23.037-.16.068-.479-.068-.671-.1-.162-.326-.384-.493-.45-.227-.096-.295-.163-.295-.317-.014-.059.041-.098.108-.145l.002-.002c.078-.055.169-.12.185-.238 0-.133-.076-.259-.213-.259v-.051c.122-.015.312-.074.281-.266a.594.594 0 0 0-.167-.316s-.03-.194.069-.26c.077-.038.206-.032.345-.027h.004c.104.005.213.01.31-.002.234-.03.462-.067.462-.289 0-.273-.142-.474-.318-.721l-.083-.118-.061-.09a4.32 4.32 0 0 0-.383-.502l-.002-.003a.947.947 0 0 1-.108-.138 1.043 1.043 0 0 1-.036-.205l-.001-.009s.204-.17.273-.23c.12-.11.264-.265.165-.457-.016-.05-.06-.074-.108-.1h-.002c-.043-.023-.088-.047-.116-.092-.05-.047-.067-.12-.084-.192-.017-.072-.034-.144-.083-.191a.566.566 0 0 1-.068-.186c-.022-.084-.046-.179-.098-.266-.069-.192-.16-.516-.16-.516s.356-.222.387-.318a1.44 1.44 0 0 0 .136-.664s.128-.51-.197-.835a1.028 1.028 0 0 0-.357-.317 4.843 4.843 0 0 0-.53-.318 6.686 6.686 0 0 0-.691-.22H8.082c-.109.04-.194.053-.267.064h-.002a.61.61 0 0 0-.183.046c-.098.043-.197.08-.303.103l-.326.096A3.662 3.662 0 0 1 6.737 4l-.198.191c-.068 0-.265.097-.295.163l-.13.125a.474.474 0 0 0-.165.097c-.024.023-.056.063-.09.104l-.01.014c-.059.074-.121.152-.158.17-.083.025-.172.098-.34.237H5.35l-.099.08c-.227.221-.492.547-.53.642l-.036.073-.002.006c-.06.12-.16.32-.16.372l-.025.094c-.035.134-.088.335-.14.386l-.037.076-.004.009c-.067.137-.187.38-.187.432-.014.044-.021.134-.029.228-.009.112-.019.23-.04.281l-.014.045c-.025.08-.071.22-.106.375v.591c.02.058.045.11.067.155l.029.062a.237.237 0 0 1 .024.087c.061.244.092.487.1.738.037.163.189.702.257.835a.93.93 0 0 0 .167.288c.053.185.151.361.28.502l.022.025c.19.22.375.435.47.5.198.162.25.56.25.56s-.303.06-.37.118a3.093 3.093 0 0 0-.149.308c-.119.263-.289.64-.466.932a5.245 5.245 0 0 1-.433.581c-.097.12-.186.229-.248.32v.406l.028.037c.038.049.065.084.04.097a.566.566 0 0 0-.068.07c0 .464-.108.921-.315 1.336L3 18Z"/>
  </g>
  <defs>
    <clipPath id="a">
      <path fill="#fff" d="M0 0h18v18H0z"/>
    </clipPath>
  </defs>
</svg>
