<svg xmlns="http://www.w3.org/2000/svg" viewBox="0 0 18 18">
  <g clip-path="url(#a)">
    <path fill="#035804" d="M0 0h18v18H0V0Z"/>
    <path fill="#fff" d="M4.237 10.417h-.394l-.79-1.985v1.985H2.5V7.708h.816l.728 1.888.755-1.888h.8v2.709h-.553V8.439l-.809 1.978Zm3.583 0-.174-.503h-.963l-.182.503h-.615l1.106-2.709h.45l1.017 2.709h-.638Zm-.975-.956h.647l-.314-.91h-.003l-.33.91Zm1.905.956V7.708h.553v2.709h-.554Zm2.874 0-1.242-1.695v1.695H9.83V7.708h.488l1.253 1.699V7.708h.554v2.709h-.5Zm1.782-2.385c-.13 0-.248.066-.248.191 0 .147.18.188.327.24.27.092.594.217.594.618 0 .413-.39.59-.722.59-.294 0-.523-.111-.73-.318l.259-.253c.155.15.275.24.474.24.152 0 .302-.075.302-.243 0-.163-.174-.226-.368-.297-.247-.093-.525-.202-.525-.566 0-.362.307-.534.623-.534.245 0 .439.08.632.226l-.223.278c-.106-.09-.248-.172-.395-.172Zm1.642.031v1.576h-.39V8.063h-.452v-.33H15.5v.33h-.452Zm.452 2.354h-2.865v-.39H15.5v.39Z"/>
  </g>
  <defs>
    <clipPath id="a">
      <path fill="#fff" d="M0 0h18v18H0z"/>
    </clipPath>
  </defs>
</svg>
