<svg xmlns="http://www.w3.org/2000/svg" viewBox="0 0 18 18">
  <g clip-path="url(#a)">
    <path fill="#fff" d="M0 0h18v18H0V0Z"/>
    <path fill="#CF202E" d="M8.715 9.373 9.47 5.59h2.182C11.138 3.449 10.14 2 9.003 2 7.476 2 6.215 4.6 5.996 7.987h2.15l.569 1.386Z"/>
    <path fill="#CF202E" d="M10.483 6.836 9.105 13.61 7.328 9.25H5.973C6.027 13.001 7.367 16 9.003 16c1.675 0 3.038-3.138 3.038-6.999 0-.755-.054-1.48-.148-2.165h-1.41Z"/>
    <path fill="#fff" d="m9.47 5.589-.755 3.783-.561-1.377H5.996s-.016.186-.03.576c-.016.389 0 .685 0 .685H7.32l1.775 4.36 1.38-6.773h1.41s-.055-.413-.102-.678c-.046-.272-.132-.576-.132-.576H9.47Z"/>
  </g>
  <defs>
    <clipPath id="a">
      <path fill="#fff" d="M0 0h18v18H0z"/>
    </clipPath>
  </defs>
</svg>
