<svg xmlns="http://www.w3.org/2000/svg" viewBox="0 0 18 18">
  <g clip-path="url(#a)">
    <path fill="#fff" d="M0 0h18v18H0V0Z"/>
    <path fill="#FF3158" d="M12.214 4.533 9 5.435l-3.214-.902-1.286.361v8.314l1.286.36 3.214-.9 3.214.902 1.286-.36V4.893l-1.286-.36Zm-1.286 6.203L9 10.194l-1.928.542v-3.37L9 7.908l1.928-.542v3.37Z"/>
    <path fill="#C00033" d="M9 6.157V7.91l-3.214-.903v6.563L4.5 13.21V4.894L9 6.157Zm1.929 5.301L9 10.916v1.75l3.214.903V7.005l-1.285.36v4.093Z"/>
    <path fill="#F78" d="m12.214 4.533 1.286.361L9 6.157 4.5 4.894l1.286-.36 3.214.9 3.214-.902ZM9 10.193l1.928.543v.721L9 10.915l-1.928.542v-.722L9 10.194Z"/>
  </g>
  <defs>
    <clipPath id="a">
      <path fill="#fff" d="M0 0h18v18H0z"/>
    </clipPath>
  </defs>
</svg>
