<svg xmlns="http://www.w3.org/2000/svg" viewBox="0 0 18 18">
  <g clip-path="url(#a)">
    <path fill="#16BCDD" d="M0 0h18v18H0V0Z"/>
    <path fill="#fff" fill-rule="evenodd" d="M8.202 4.132a.798.798 0 0 0-.799.798v1.242a1.33 1.33 0 0 1-1.33 1.33H4.83a.798.798 0 0 0-.799.8v1.463a.8.8 0 0 0 .799.798h1.197a.266.266 0 0 1 0 .533H4.831A1.33 1.33 0 0 1 3.5 9.765V8.3c0-.735.596-1.33 1.33-1.33h1.243a.8.8 0 0 0 .798-.799V4.93c0-.735.596-1.33 1.33-1.33h1.597a1.33 1.33 0 0 1 1.331 1.33v4.968c0 .661-.536 1.198-1.198 1.198H8.335a1.198 1.198 0 0 1-1.198-1.198V8.434c0-.808.655-1.463 1.464-1.463h1.286a.266.266 0 1 1 0 .532H8.601a.931.931 0 0 0-.932.931v1.464c0 .367.298.665.666.665H9.93a.665.665 0 0 0 .666-.665V4.93a.798.798 0 0 0-.799-.798H8.202Zm3.37 3.105c0-.147.12-.266.267-.266h1.33a1.33 1.33 0 0 1 1.331 1.33v1.42a1.33 1.33 0 0 1-1.33 1.33h-1.243a.798.798 0 0 0-.798.799v1.33a1.33 1.33 0 0 1-1.33 1.33H8.201a1.33 1.33 0 0 1-1.331-1.33v-1.242a.266.266 0 1 1 .532 0v1.242a.8.8 0 0 0 .799.799h1.596a.8.8 0 0 0 .799-.799v-1.33a1.33 1.33 0 0 1 1.33-1.331h1.242a.798.798 0 0 0 .799-.798V8.3a.798.798 0 0 0-.799-.798h-1.33a.266.266 0 0 1-.266-.266Z" clip-rule="evenodd"/>
  </g>
  <defs>
    <clipPath id="a">
      <path fill="#fff" d="M0 0h18v18H0z"/>
    </clipPath>
  </defs>
</svg>
