<svg xmlns="http://www.w3.org/2000/svg" viewBox="0 0 18 18">
  <g clip-path="url(#a)">
    <path fill="#003A94" d="M0 0h18v18H0V0Z"/>
    <path fill="#fff" fill-rule="evenodd" d="M3.114 6.504h4.137c.809 0 1.461.669 1.465 1.492v3.056a.579.579 0 0 1-.572.583.574.574 0 0 1-.571-.582v-2.92a.542.542 0 0 0-.533-.542H4.258a.108.108 0 0 0-.11.111v3.35a.577.577 0 0 1-.571.583.577.577 0 0 1-.573-.582V6.616a.11.11 0 0 1 .11-.112Zm7.32 3.162a.11.11 0 0 1 .11-.113h2.97a.5.5 0 0 0 .495-.504.5.5 0 0 0-.495-.504h-2.97a.109.109 0 0 1-.11-.111v-.3c0-.3.238-.543.536-.543h3.494a.538.538 0 0 0 .533-.543.54.54 0 0 0-.533-.544h-3.706a1.48 1.48 0 0 0-1.465 1.492v2.107c0 .824.654 1.49 1.465 1.492h3.707a.54.54 0 0 0 .532-.543c0-.3-.238-.544-.533-.544H10.97a.538.538 0 0 1-.534-.543v-.3Z" clip-rule="evenodd"/>
  </g>
  <defs>
    <clipPath id="a">
      <path fill="#fff" d="M0 0h18v18H0z"/>
    </clipPath>
  </defs>
</svg>
