<svg xmlns="http://www.w3.org/2000/svg" viewBox="0 0 18 18">
  <g clip-path="url(#a)">
    <path fill="#2659D9" d="M0 0h18v18H0V0Z"/>
    <path fill="#fff" fill-rule="evenodd" d="M4.178 9.063c0-1.196.494-1.82 1.197-1.82.78 0 1.196.546 1.196 1.82S6.129 10.91 5.4 10.91c-.78 0-1.223-.547-1.223-1.847ZM2.8 9.115c0 1.742.91 2.913 2.549 2.913 1.534 0 2.6-1.118 2.6-2.965 0-1.638-.858-2.913-2.548-2.913C3.788 6.15 2.8 7.373 2.8 9.115Zm11.766 2.809h-.806c-.208 0-.26-.104-.26-.338l-.078-2.783h-.026l-1.223 2.939c-.078.156-.182.182-.286.182h-.312c-.156 0-.234-.026-.338-.182L9.833 8.803h-.026l-.052 2.86c0 .235-.104.26-.286.26h-.677c-.182 0-.286-.077-.286-.233v-.026l.208-5.124c0-.208.104-.26.26-.26h.599c.182 0 .26.078.338.208l1.794 3.667h.026l1.665-3.667c.078-.13.156-.208.338-.208h.572c.156 0 .208.052.234.208l.26 5.202c0 .156-.078.234-.234.234Z" clip-rule="evenodd"/>
  </g>
  <defs>
    <clipPath id="a">
      <path fill="#fff" d="M0 0h18v18H0z"/>
    </clipPath>
  </defs>
</svg>
