<svg xmlns="http://www.w3.org/2000/svg" viewBox="0 0 18 18">
  <g clip-path="url(#a)">
    <path fill="#223555" d="M0 0h18v18H0V0Z"/>
    <g clip-path="url(#b)">
      <path fill="#EAC463" d="M8.698 5.728a4.016 4.016 0 0 1 2.682.02 3.994 3.994 0 0 1 2.597 4.148c-.37-.149-.743-.293-1.115-.441v-1.29H11.49v.75L8.788 7.849l-2.73 1.1a3.981 3.981 0 0 1 2.64-3.222Z"/>
      <path fill="#fff" d="m6.059 8.95 2.73-1.101 2.701 1.066v-.75h1.372v1.29c.372.148.745.292 1.115.44.507.202 1.014.4 1.521.602v1.105c-2.236-.883-4.473-1.764-6.709-2.645l-6.286 2.538v-1.109c1.185-.48 2.371-.956 3.556-1.436Z"/>
    </g>
  </g>
  <defs>
    <clipPath id="a">
      <path fill="#fff" d="M0 0h18v18H0z"/>
    </clipPath>
    <clipPath id="b">
      <path fill="#fff" d="M2.5 5.5h13v6.106h-13z"/>
    </clipPath>
  </defs>
</svg>
