<svg xmlns="http://www.w3.org/2000/svg" viewBox="0 0 18 18">
  <g clip-path="url(#a)">
    <path fill="#FE7000" d="M0 0h18v18H0V0Z"/>
    <g clip-path="url(#b)">
      <mask id="c" width="61" height="35" x="-6" y="-18" maskUnits="userSpaceOnUse" style="mask-type:luminance">
        <path fill="#fff" d="M-5.988-17.2h60.014v33.745H-5.988V-17.2Z"/>
      </mask>
      <g mask="url(#c)">
        <path fill="#fff" fill-rule="evenodd" d="m11.907 4.96.019.072.022.077.018.085.019.078.015.066.013.046.004.016v.028l-.004.007-.003.002-.003.007L12 5.45l-.006.003-.006.007h-.006l-.003.002h-.025l-.078-.006-.088-.01-.1-.009-.103-.006-.106-.01-.11-.005-.11-.01-.105-.006-.104-.007-.094-.006-.087-.006-.075-.006-.063-.003-.046-.003-.032-.003h-.008l.006.037.006.057.006.07.009.08.01.09.009.096.019.2.01.098.009.093.01.088.005.078.006.062.004.05.002.032.004.013 1.166.065h.015l.038.01.01.005.011.004.01.006.007.01.008.005.007.01.01.01.002.009.007.009.009.037.066.656v.016l-.004.007-.002.008-.007.013-.006.006-.003.007-.01.006-.006.006-.006.004-.01.002-.005.004h-.01l-.01.003-.009-.003-1.229-.038v.032l.004.053v.075l.003.093.003.107.003.112.006.244.004.125.002.119.004.109.003.097.003.08v.107l.003.012h.056l.066.004h.297l.122.003h.257l.124.003H12l.095.003h.197l.006.003h.01l.005.003.01.003.03.016.004.003.013.02.006.005.006.01v.006l.006.019v.678l-.003.043v.07l-.003.011-.006.02-.004.005-.006.01-.012.012-.006.01-.01.002-.006.007-.028.01-.012.002h-.023l-2.375.023-.012-.004h-.01L9.86 9.75l-.018-.006-.028-.02-.013-.011-.006-.01-.006-.018-.007-.01v-.216l.003-.118-.003-.134v-.298l-.003-.336-.003-.37-.006-.39-.006-.4-.01-.403-.006-.4-.009-.384-.01-.36-.009-.325-.007-.15-.002-.134-.006-.125L9.7 5.02l-.003-.094-.006-.078-.004-.065-.006-.044.004-.007V4.72l.002-.01.01-.009.007-.012.006-.003.002-.004.02-.01.003-.002h.012l.122.006.356.019.119.01.12.005.12.006.122.01.122.006.126.01.128.009.131.01.13.012.142.01.14.012.148.013.012.002h.01l.012.004.019.006.01.006.008.003.007.006.01.007.005.006.012.019.004.01.006.009.003.012.004.01.012.053ZM8.14 9.662l-.006.019-.004.012-.006.006-.012.019-.006.007-.02.012-.005.006-.01.003-.013.004-.008.002h-.01l-.013.004h-.012l-.7-.006H7.29l-.01-.004-.012-.003-.01-.003-.037-.025-.012-.019-.006-.006-.007-.01-.006-.018v-.01l-.066-.3-.059-.29-.057-.282-.05-.268-.05-.26-.043-.25-.038-.236-.038-.232-.03-.218-.032-.21-.025-.2-.025-.19-.022-.179-.019-.172-.015-.159-.013-.15-.012-.144-.01-.131-.009-.121-.006-.113-.006-.103-.003-.094-.004-.085v-.077l-.002-.066v-.147l.002-.053v-.016l.004-.012v-.013l.009-.028.003-.006.006-.01.02-.018.008-.006.028-.01.025-.006.698-.065h.018l.007.002h.01l.024.013.006.01.01.019.003.008v.017l.003.024.003.072.01.112.009.15.012.175.015.2.017.216.037.462.019.235.013.112.008.113.01.106.012.106.01.1.012.094.013.087.01.085.011.072.01.066.013.056.01.047.002-.023.016-.059.022-.097.03-.13.038-.154.04-.178.048-.2.053-.21.053-.22.056-.226.057-.229.056-.225.057-.218.052-.203.026-.097.027-.093.023-.088.024-.082.004-.012.002-.01.007-.009.003-.01.013-.011.006-.01.006-.006.006-.003.047-.015h.025l.763-.01h.012l.01.003h.009l.006.003.007.006.01.006.009.01.002.009.006.013v.01l.004.005-.004.01v.015l-.012.044-.081.325-.066.26-.078.309-.087.353-.098.384-.1.406-.205.837-.1.41-.095.394-.043.187-.04.178-.039.169-.037.156-.031.144-.028.134-.026.116-.021.103ZM5.355 5.051l.01-.017.013-.012.002-.006.007-.003.006-.006.01-.007.005-.003.006-.007.01-.002.006-.004.019-.006h.01l.009-.003.46-.078.009.003h.01l.005.006.006.004.007.006.003.01.003.005.003.01-.009.215-.003.075v.372l.006.15v.075l.003.075.006.076.004.074.006.075.01.15.037.45.03.3.02.147.015.147.006.074.013.078.012.082.025.175.016.09.031.188.038.194.035.19.04.19.038.185.034.175.034.163.035.146.025.13.025.105.019.078.009.05.006.019v.013l-.003.009v.012l-.006.019-.006.006-.004.01-.01.005-.005.01-.006.007-.01.002-.01.006-.012.004-.01.003-.012.003h-.012l-.716-.01-.025-.002-.038-.013-.006-.006-.01-.006-.005-.004-.006-.009-.013-.012-.006-.019-.006-.01V9.64l-.013-.037-.01-.057-.012-.062-.016-.075-.016-.081-.015-.088-.015-.09-.032-.175-.012-.085-.013-.078-.012-.066-.01-.056-.006-.047-.007-.025v-.012l-.727.016-.013.055-.016.063-.015.072-.013.081-.015.082-.016.084-.013.088-.015.084-.013.081-.012.078-.01.072-.01.06-.005.052-.006.038-.007.025v.01l-.012.024-.007.006-.002.007-.013.006-.003.003-.013.006-.01.003h-.011l-.01.004h-.01l-.487-.02h-.022l-.013-.002-.028-.01-.025-.025-.002-.006-.007-.019v-.01l-.003-.011v-.01l.003-.025.003-.066.006-.046.007-.06.01-.068.008-.078.013-.088.015-.097.02-.11.022-.112.025-.124.027-.132.032-.14.034-.148.04-.155.044-.163.05-.172.053-.175.06-.184.066-.191.069-.197.074-.203.081-.206.091-.216.094-.218.1-.225.11-.229.115-.233.122-.238.131-.243Zm-.472 2.7.426-.026-.013-.362v-.09l-.003-.092V6.82l.003-.09.003-.094.01-.272.006-.094-.022.057-.025.056-.022.059-.019.063-.044.118-.019.063-.021.063-.038.124-.015.063-.02.063-.034.118-.027.113-.028.109-.048.187-.019.078-.012.063-.013.046-.006.029v.01Zm6.092 4.414-.006.013v.006l-.003.006-.003.003-.003.006-.01.01-.006.003-.003.003-.019.01h-.006l-.006.003h-.032l-.03.003h-.041l-.05.003H10.7l-.062.003-.066.004-.072.002-.075.004-.072.002-.075.004h-.072l-.068.003-.066.003-.056.003-.047.796h.01l.025-.002h.037l.05-.003.063-.004.069-.002.074-.004.079-.006.084-.003.162-.006.078-.006.075-.004.066-.003h.056l.047-.003h.012l.007.003h.006l.004.003.01.006.008.01v.006l.003.003v.025l-.056.35-.003.016-.004.01-.002.011-.004.006-.003.01-.003.007-.018.018-.01.003-.006.004-.01.002-.024.007h-.025l-.013.003h-.031l-.047.003-.066.003-.078.007-.093.006-.1.003-.11.006-.119.006-.122.006-.122.004-.125.003-.121.003-.12.003h-.112l-.106-.003h-.013l-.01-.006-.002-.004H9.31l-.01-.008-.002-.007-.003-.003v-.003l-.004-.006v-.007l-.002-.003v-.006l.021-3.365.004-.01v-.006l.003-.006v-.007l.006-.012.02-.019.024-.012h.006l.01-.003H9.7l.138-.004.15-.002h.16l.165-.004h.162l.153-.003h.279l.11-.003h.18l.026.012.012.013.01.02.003.009v.006l-.023.521v.013l-.002.01-.004.006v.006l-.015.015-.006.004-.004.005-.006.004-.009.003-.007.003-.008.003h-.017l-1.075.02-.003.008v.06l-.003.05v.056l-.003.066v.071l-.01.235v.078l-.003.078v.069l-.003.062v.1h.169l.069-.003h.075l.08-.003h.083l.08-.003.079-.004h.072l.065-.002h.097l.028-.004h.01l.006.004h.006l.019.01.006.005.007.003.002.007.004.002.006.013v.006l.003.004v.03l-.003.044-.006.063-.004.075-.01.078-.005.075-.006.063-.004.04Zm-4.566-.928-.01-.004h-.013l-.006-.002-.019-.007-.012-.006-.019-.019-.006-.012-.003-.01v-.009l-.003-.01v-.009l-.013-.062-.003-.035-.006-.075-.01-.037-.003-.018-.002-.023-.02-.055-.009-.02-.01-.015-.009-.019-.025-.03-.015-.017-.016-.012-.037-.025-.02-.01-.05-.018-.024-.006-.03-.004-.058-.006-.025.004h-.021l-.022.002-.038.013-.016.006-.012.01-.016.012-.021.022-.01.012-.01.016-.005.016-.006.012-.004.019-.006.015-.003.019-.004.015v.02l-.002.018v.056l.002.038v.034l.007.038.003.031.01.075.006.019.003.022.006.018.01.019.006.015.01.02.005.015.01.013.012.015.01.013.024.025.017.012.012.013.015.01.019.011.015.013.02.01.022.01.018.011.022.01.1.047.12.053.095.043.091.041.04.022.045.019.04.021.038.02.038.021.034.022.037.019.032.021.034.026.031.022.057.05.027.028.025.028.025.031.044.063.022.037.02.038.036.081.016.043.016.047.012.05.025.107.01.06.009.062.01.06.003.052.006.053v.147l-.004.047-.002.04-.007.04-.009.042-.019.069-.013.034-.015.028-.016.031-.037.05-.02.022-.02.022-.026.019-.022.018-.027.016-.086.037-.034.007-.03.009-.035.007-.075.006h-.125l-.047-.004-.047-.006-.05-.006-.094-.019-.047-.013-.05-.015-.047-.016-.044-.015-.046-.019-.047-.021-.044-.023-.044-.025-.04-.028-.044-.028-.038-.031-.04-.031-.037-.035-.038-.037-.035-.037-.034-.042-.032-.043-.027-.043-.032-.048-.05-.1-.021-.053-.02-.056-.018-.06-.016-.059-.012-.063-.003-.006v-.019l.003-.006v-.003l.009-.009h.003l.006-.003h.029l.422.053h.019l.019.006h.006l.018.01.01.01.006.009.006.012.003.012.003.01.007.012.006.044.015.056.006.032.013.03.006.02.007.015.018.032.013.015.01.016.024.03.031.026.038.025.019.01.021.008.025.01.023.007.028.005.028.004.031.003h.072l.016-.003.018-.007.013-.002.025-.013.013-.01.018-.019.007-.01.012-.024.003-.012.006-.013v-.015l.004-.012v-.017l.002-.015v-.031l-.002-.02V12.7l-.004-.015-.002-.034-.013-.07-.01-.034-.012-.056-.007-.025-.01-.025-.005-.022-.019-.043-.012-.02-.01-.018-.012-.016-.012-.019-.032-.03-.012-.017-.02-.012-.018-.015-.019-.013-.021-.016-.044-.025-.025-.015-.029-.013-.024-.015-.031-.013-.063-.031-.072-.035-.078-.037-.088-.043-.044-.02-.037-.022-.041-.021-.103-.066-.031-.022-.031-.025-.028-.022-.029-.025-.05-.05-.043-.05-.022-.028-.019-.025-.038-.056-.03-.056-.017-.031-.012-.031-.013-.029-.012-.031-.013-.035-.01-.03-.036-.138-.013-.075-.012-.06-.013-.118v-.166l.006-.053.007-.05.01-.05.011-.047.016-.046.015-.044.02-.044.018-.041.025-.04.025-.037.025-.035.032-.032.028-.034.069-.056.037-.025.038-.022.04-.019.044-.018.044-.016.043-.012.05-.01.048-.01.053-.005h.105l.067.002.061.007.063.01.06.012.056.015.056.019.053.022.05.022.05.028.095.056.04.034.044.035.074.075.035.04.063.088.028.047.05.093.021.05.02.054.018.05.013.053.015.056.01.053.01.057.005.059.004.056.002.06-.002.056v.015l-.004.006v.007l-.003.006-.003.003-.003.006-.006.004-.004.002-.006.004h-.003l-.006.002h-.013l-.012.004-.528-.025Zm7.526 1.06.003-.01.003-.006.01-.016.003-.006.006-.006.004-.006.012-.007.003-.006.01-.004.006-.002.012-.004.019-.006h.013l.028-.01.04-.009.047-.01.05-.011.047-.01.034-.01.019-.002h.025l.013.012v.003l.002.003v.016l-.002.006v.007l-.013.034-.012.031-.02.057-.012.05-.006.018-.003.022v.04l.003.007v.003l.006.013.004.002.003.007.002.003.006.003.004.004h.006l.007.002h.012l.01.004h.005l.01-.004h.01l.009-.002h.01l.009-.007.019-.006.009-.006.012-.007.01-.006.012-.006.01-.01.012-.01.034-.034.013-.015.01-.013.011-.015.025-.037.01-.02.013-.018.01-.022.011-.025.013-.022.01-.028.012-.025.019-.06.018-.05.016-.046.01-.037.005-.02.004-.015.003-.019v-.012l.003-.013v-.037l-.003-.01v-.01l-.007-.018-.006-.006-.006-.012-.01-.007-.012-.012-.006-.004-.01-.006-.018-.009-.022-.01-.063-.03-.062-.029-.025-.013-.029-.015-.024-.016-.022-.015-.01-.01-.012-.009-.01-.01-.008-.005-.01-.013-.019-.018-.006-.013-.01-.01-.012-.025-.01-.013-.005-.015-.004-.012-.012-.032-.007-.021-.002-.023-.007-.024-.003-.022-.003-.025v-.025l-.003-.025v-.025l-.003-.028.003-.025v-.05l.003-.053.006-.053.007-.05.009-.047.006-.047.006-.041.01-.04.005-.035.007-.03.006-.026.01-.04.01-.038.011-.041.01-.037.013-.04.078-.189.021-.037.02-.034.018-.038.022-.03.022-.035.021-.032.025-.03.051-.057.05-.05.056-.044.032-.018.027-.016.032-.016.063-.025.03-.006.035-.006.03-.003h.035l.057.006.025.007.025.008.021.01.022.012.056.047.032.038.012.019.013.021.012.025.01.022.028.075.006.025.007.028.002.025.007.054.003.028.003.025v.103l-.003.025-.003.021v.025l-.007.035-.006.047-.01.044-.008.05-.01.04-.006.038-.006.028-.007.015-.003.01-.005.012-.013.013-.006.002-.01.004-.006.003-.016.003-.028.007-.032.006-.036.006-.035.01-.034.005-.026.007h-.037l-.006-.007v-.002l-.007-.007v-.003l-.002-.006v-.016l.002-.012.01-.034.01-.054.003-.03.006-.032.003-.035v-.034l.003-.016-.003-.015v-.016l-.003-.015v-.016l-.004-.016-.002-.012-.007-.013-.003-.01-.006-.011-.016-.017-.012-.006-.01-.006-.013-.003h-.012l-.015-.003-.016.003h-.016l-.006.003-.01.004h-.009l-.006.006-.01.002-.005.007-.01.003-.01.007-.005.01-.01.005-.01.01-.006.01-.01.009-.005.012-.01.012-.012.031-.01.016-.005.015-.007.02-.01.022-.012.043-.006.025-.003.025-.006.028-.01.056-.01.05-.009.044-.003.04-.003.016v.069l.003.013v.009l.007.019.006.006.002.01.026.024.009.004.028.018.05.026.057.024.028.016.025.012.021.013.023.015.018.013.019.016.016.012.016.016.012.016.018.03.01.02.013.037.002.018.004.023.002.024-.002.025v.025l-.004.025-.002.032-.007.03-.01.032-.006.034-.009.038-.01.04-.024.085-.029.093-.015.044-.016.041-.015.044-.038.087-.021.044-.048.087-.05.088-.028.044-.028.04-.028.044-.031.04-.031.038-.031.04-.035.035-.034.038-.034.034-.07.063-.037.027-.038.025-.034.025-.04.023-.038.018-.037.016-.038.012-.038.01-.04.006-.038.003h-.037l-.013-.003h-.012l-.026-.007-.025-.012-.01-.006-.011-.006-.013-.01-.01-.012-.011-.01-.01-.015-.006-.013-.019-.03-.006-.02-.007-.021-.006-.044-.003-.025v-.053l.007-.063.012-.069.01-.037.009-.04.013-.041.012-.044.037-.094Zm-.3-2.248.004-.009v-.006l.006-.012.003-.01.018-.018.013-.006.01-.004.006-.003h.01l.005-.003h.01l.356-.015.01-.004h.01l.009.004.015.002.012.006.004.004.006.003.003.006v.006l.003.007v.006l.003.01v.018l-.046.475-.007.025-.003.01-.007.009-.002.01-.007.008-.018.02-.02.015-.046.044-.07.062-.08.07-.041.036-.08.069-.039.028-.03.028-.029.02-.013.008-.008.007-.013.006-.01.003h-.012l-.007-.003h-.002l-.007-.006v-.003l-.006-.006v-.006l.003-.026.003-.035v-.046l.007-.053.006-.063.006-.069.013-.143.01-.075.005-.072.01-.072.006-.068.006-.06.003-.053.006-.044.004-.031Zm-9.851 2.04.021.063.02.06.018.056.015.056.016.053.013.047.01.047.005.021.004.023.002.018.004.022.002.019v.065l-.006.032-.01.037-.005.013-.006.01-.01.009-.01.006-.009.01-.009.002-.038.01h-.04l-.047-.01-.016-.006-.015-.003-.016-.007-.034-.012-.031-.015-.035-.013-.031-.015-.056-.032-.047-.028-.02-.01-.018-.012-.016-.012-.012-.013-.015-.012-.01-.016-.013-.016-.009-.019-.053-.1-.05-.1-.1-.205-.044-.103-.043-.107-.04-.106-.039-.104-.037-.105-.035-.107-.034-.103-.031-.103-.057-.2-.025-.097-.021-.097-.023-.093-.021-.091-.019-.087-.015-.085-.032-.156-.012-.072-.01-.069-.01-.062-.009-.056-.006-.053-.006-.048-.003-.043-.003-.034-.003-.028v-.044l.003-.01v-.003l.003-.006.012-.012h.003l.006-.004H2.6l.05.004.05.006.087.012.082.019.037.013.034.012.034.015.063.032.057.037.05.044.044.05.021.028.019.028.019.031.015.032.02.034.015.035.031.075.012.04.016.044.025.087.013.05.012.047.013.054.021.084.016.078.012.075.006.034.007.031.003.032.007.027.002.029v.028l.007.05v.069l-.003.019v.018l-.004.019-.002.016-.004.018-.003.016-.006.016-.004.012-.006.013-.006.015-.006.013-.006.01-.01.011-.008.01-.007.013.013.008.046.048.013.015.01.016.024.031.013.02.009.017.013.02.021.037.088.175.038.094.018.043.016.047.015.044.023.065Zm-.672-.993.019-.01.002-.003.004-.006.006-.007.007-.012.002-.01v-.009l.004-.01v-.011l.003-.013v-.025l-.003-.03-.004-.035-.002-.038-.007-.044-.01-.046-.008-.054-.01-.043-.01-.038-.012-.037-.01-.034-.019-.048-.012-.025-.009-.015-.006-.013-.01-.01-.005-.011-.038-.038-.013-.006-.01-.006-.037-.02-.012-.003-.012-.006-.032-.006h-.012l-.016-.003.003.044.006.044.007.046.01.05.009.053.008.05.013.053.01.053.009.05.012.047.01.047.009.041.013.037.006.034.01.029.005.021.01.004.025.006.034.007.025.01h.038Zm.284 1.177.016.01.013.007.012.002.016.007.015.003.013.006.016.003h.019l.006-.003h.006l.006-.003.007-.006.002-.007v-.006l.004-.006v-.025l-.006-.025-.007-.032-.009-.034-.01-.037-.012-.041-.078-.218-.02-.042-.015-.037-.015-.034-.029-.057-.015-.021-.013-.022-.012-.018-.031-.032-.016-.012-.012-.01-.032-.019-.047-.019-.012-.002-.016-.004-.025-.006.01.037.01.042.011.037.013.04.015.044.013.044.016.043.015.048.038.093.019.05.043.1.022.053.05.107.006.002Zm9.105-2.253.07.004.062.006.06.01.056.009.053.015.05.016.046.018.044.022.041.022.035.025.034.029.031.03.056.063.022.035.022.037.019.037.015.04.016.039.012.043.01.04.01.045.005.043.007.047.003.044.003.047v.14l-.003.05-.003.047-.003.034-.004.032-.002.035-.007.034-.003.034-.007.035-.009.03-.006.035-.01.034-.012.035-.009.03-.013.035-.012.032-.013.034-.015.031-.016.034-.031.063-.019.031-.022.029-.019.03-.044.057-.05.056-.024.025-.085.075-.031.022-.031.025-.035.019.01.044.006.043.01.05.009.056.006.057.01.065.006.069.009.072.007.075.011.168.007.091.006.094.006.2.004.11v.018l-.004.01v.006l-.003.01-.006.005-.003.006-.013.013-.012.006-.009.007-.007.003-.01.003h-.009l-.008.003-.113.022-.17.028-.055.006-.041.006-.028.004h-.028l-.004-.004-.006-.002-.003-.004-.006-.003v-.003l-.006-.013v-.037l-.003-.037-.006-.088-.01-.088-.01-.093-.012-.094-.009-.097-.013-.094-.015-.09-.01-.084-.013-.082-.012-.072-.009-.06-.006-.053-.007-.037-.006-.024v-.01l-.021.003h-.023l-.044.007h-.024l-.022.002h-.025l-.022.004-.016.103-.015.106-.017.103-.021.103-.019.1-.019.097-.018.094-.022.088-.019.08-.015.072-.016.066-.013.056-.012.044-.01.035-.003.018-.002.01-.004.006-.003.009v.007l-.006.006-.006.012-.007.003-.009.01-.01.003-.018.01-.01.002-.005.003h-.01l-.082.01-.078.01-.078.005-.071.006-.063.007-.047.003-.031.003h-.02l-.005-.003h-.01l-.006-.003h-.003l-.01-.01-.003-.006v-.003l-.002-.003v-.02l.002-.005.013-.082.015-.08.032-.169.016-.088.012-.087.015-.091.013-.09.013-.094.015-.094.025-.194.037-.3.01-.103.013-.106.01-.106.011-.107.019-.218.028-.338.006-.115.01-.116.013-.237.01-.122.005-.122.012-.25v-.016l.01-.018.007-.006.002-.006.007-.004.003-.006.024-.013h.007l.006-.003h.075l.034-.003h.094l.053-.003h.063l.065-.003h.07l.075-.003.078-.004h.08l.082-.002.088-.004h.071Zm.182 1.066.002-.04.004-.038.003-.035v-.034l-.003-.031v-.028l-.006-.029-.004-.021-.006-.025-.019-.038-.01-.015-.024-.031-.016-.01-.015-.013-.019-.01-.038-.011-.025-.007-.022-.003-.025-.003-.027-.004h-.12l-.069.004-.078.006-.002.044-.007.05-.003.06-.006.062-.007.068-.006.072-.01.073-.005.074-.01.075-.006.072-.012.13-.007.061-.006.05-.006.044-.003.034h.08l.039-.003h.034l.034-.004.031-.002.057-.007.027-.006.051-.012.044-.02.037-.018.015-.013.048-.046.012-.02.01-.018.012-.022.01-.022.009-.025.019-.056.006-.028.01-.034.005-.035.013-.075.006-.043.004-.044Zm-8.756-1.054.004.035.003.056.006.079.01.1.012.118.009.066.01.069.009.071.025.163.015.085.017.09.015.093.019.098.018.1.022.102.025.107.025.109.029.11.028.115.062.237.075.244.04.125.004.013.009.03.01.02.009.022.013.025.015.025.038.05.012.009.022.021.016.013.012.006.013.01.047.019.018.003.016.003h.031l.012-.003.02-.007.006-.002.009-.007.006-.006.003-.006.007-.006.002-.007.004-.01.003-.006v-.009l.003-.01v-.034l-.003-.015-.003-.02-.004-.011-.006-.023-.003-.006-.003-.015-.012-.034-.016-.05-.021-.066-.026-.088-.028-.103-.015-.06-.016-.061-.019-.069-.016-.076-.019-.078-.018-.08-.019-.088-.019-.094-.018-.097-.016-.1-.019-.106-.019-.113-.037-.237-.019-.128-.015-.131-.019-.138-.015-.14-.032-.3v-.01l.003-.009v-.016l.006-.012.016-.016.007-.003h.006l.003-.003h.018l.385.016h.019l.027.01.013.005.016.016.003.006.003.01.003.005v.01l.004.007v.01l.006.105.013.118.008.132.016.137.016.147.028.235.012.08.05.338.016.088.012.084.02.088.015.09.015.088.076.35.021.084.023.087.043.17.025.08.01.028.006.032.006.028.013.063.006.062.002.035v.015l-.002.016v.03l-.016.079-.006.013-.006.015-.007.012-.015.028-.01.013-.009.016-.013.015-.015.016-.048.037-.018.01-.018.006-.02.01-.018.005-.02.004-.043.006h-.065l-.025-.003-.023-.003-.024-.004-.05-.012-.025-.009-.029-.01-.024-.009-.029-.013-.025-.012-.027-.015-.029-.013-.025-.016-.028-.019-.028-.015-.028-.019-.028-.021-.003-.004-.013-.006-.016-.013-.021-.019-.025-.021-.032-.025-.016-.015-.015-.02-.056-.056-.019-.022-.019-.024-.021-.023-.019-.027-.019-.025-.022-.029-.075-.125-.019-.034-.019-.037-.03-.075-.016-.041-.006-.01-.013-.03-.019-.054-.025-.071-.015-.044-.016-.048-.015-.05-.038-.118-.019-.066-.019-.071-.021-.076-.02-.077-.022-.082-.021-.088-.022-.09-.022-.097-.019-.097-.021-.103-.023-.106-.019-.11-.037-.23-.015-.123-.019-.121-.013-.128-.015-.132-.012-.134v-.006l.002-.01v-.006l.004-.006.002-.003.004-.006.006-.006.007-.004h.002l.007-.003h.028l.022.003.037.004.047.002.05.004.047.002.044.004h.028l.009.003.003-.003.01.003h.012l.019.01.013.012.012.018.003.013.004.006v.01l.002.006v.021Zm11.315-1.287.013.035.016.043.018.047.022.057.019.061.022.063.044.132.019.068.018.066.019.059.013.057.012.053.007.021.002.023.006.037-.002.01v.009l-.004.009v.006l-.006.013-.006.006-.003.006-.006.003-.004.004-.019.008h-.009l-.006.004h-.01l-.08.006h-.041l-.037.003h-.042l-.08.006h-.067l-.01-.002-.005-.007-.006-.003-.013-.019-.003-.006-.006-.007-.003-.009-.006-.012-.01-.03-.016-.035-.012-.042-.015-.043-.013-.047-.016-.05-.062.081-.031.038-.035.034-.034.031-.034.029-.038.028-.035.025-.074.044-.038.018-.04.016-.038.012-.04.013-.041.01-.038.005-.04.004h-.082l-.04-.004-.038-.006-.082-.018-.037-.016-.04-.016-.038-.018-.038-.023-.034-.025-.037-.024-.034-.031-.038-.032-.031-.035-.026-.024-.021-.029-.023-.025-.021-.027-.02-.025-.02-.032-.023-.028-.019-.028-.015-.032-.02-.03-.017-.035-.016-.03-.016-.035-.03-.076-.026-.075-.025-.08-.01-.044-.012-.044-.006-.047-.01-.047-.006-.05-.009-.05-.006-.053-.004-.053-.006-.057-.003-.059v-.06l-.003-.058v-.128l.003-.063.006-.063.01-.06.009-.055.01-.06.012-.053.012-.056.031-.1.02-.05.015-.047.018-.046.02-.04.018-.045.02-.037.02-.038.016-.037.038-.063.019-.028.015-.028.02-.026.011-.021.048-.063.012-.015.006-.006-.005-.006-.013-.023-.022-.034-.028-.046-.035-.057-.04-.063-.041-.071-.047-.082-.043-.08-.025-.044-.044-.088-.044-.094-.022-.043-.022-.048-.019-.046-.038-.088-.015-.044-.012-.043-.016-.044-.037-.163-.013-.074-.006-.035-.004-.037-.006-.07V5.51l.004-.032.002-.029.007-.027.006-.025.006-.028.01-.023.01-.025.012-.021.012-.019.031-.038.016-.015.018-.016.044-.025.022-.01.025-.005.056-.013.029-.003.034-.003h.028l.094.01.028.005.031.006.029.01.03.01.032.012.028.01.028.012.113.062.025.016.028.019.025.015.05.038.025.022.025.018.022.023.022.018.025.022.022.02.019.02.021.02.038.043.019.02.015.02.02.02.018.021.015.025.02.022.015.025.019.025.015.029.02.024.077.141.016.031.012.031.016.032.025.062.01.034.012.035.009.031.019.07.012.068.007.037.002.034.007.035.003.037v.128l-.003.029v.028l-.003.025-.006.025-.007.05-.012.05-.006.022-.007.025-.006.021-.006.02-.007.02-.008.023-.013.037-.016.038-.032.063-.015.028-.012.027-.015.023-.01.019.021.037.029.047.03.053.033.06.037.061.034.066.034.07.038.068.128.256.022.053.022.044.015.034.01.028.013-.031.012-.028.01-.028.005-.026.016-.046.016-.044.012-.044.01-.04.015-.044.016-.047.003-.006.015-.016h.004l.003-.003h.01l.002.003h.004l.006.004h.003l.016.015.015.02.028.027.031.037.038.044.04.054.02.024.022.028.037.057.01.01.005.009.007.012.003.01.007.009.002.009.007.013.003.008v.01l.003.01.003.012v.01l.003.021v.04l-.003.013v.013l-.006.025-.006.031-.02.069-.012.04-.012.038-.016.044-.032.08-.015.045-.019.043-.015.04-.02.039-.017.04.008.022ZM13.98 5.802l-.032-.018-.015-.007-.012-.006-.013-.003h-.03l-.01.003-.006.003-.01.006-.007.004-.006.006-.003.006-.006.01-.01.015v.006l-.002.01-.007.03-.003.026v.031l.006.044.013.05.009.028.007.025.01.028.024.05.025.056.025.054.028.05.028.047.026.046.027.04.022.035.02.028.015.023.01.015.002.003.022-.044.031-.08.013-.039.012-.075.007-.034v-.069l-.004-.034-.003-.028-.006-.031-.006-.029-.028-.074-.022-.044-.013-.022-.013-.019-.012-.015-.013-.019-.012-.013-.01-.012-.018-.022-.019-.016-.012-.013-.019-.012Zm.434 3.14.013-.003.03-.006.016-.006.038-.019.016-.009.013-.006.009-.013.025-.019.019-.018.01-.013.017-.021.017-.02.012-.018.01-.015.015-.029.003-.01-.006-.015-.007-.021-.012-.026-.013-.027-.028-.063-.034-.072-.04-.079-.041-.084-.132-.252-.04-.079-.038-.072-.034-.065-.029-.053-.021-.04-.016-.029-.003-.006-.019.027-.015.035-.031.063-.013.031-.01.028-.019.063-.009.028-.006.027-.006.032-.004.029-.006.027-.003.028v.025l-.002.029v.1l.002.022v.025l.003.018.004.025.002.037.007.038.009.035.003.028.01.034.01.037.005.02.007.015.012.037.006.016.01.019.007.015.008.02.028.046.013.016.01.015.01.012.024.025.01.013.015.013.037.028.016.006.012.006.016.006.016.004.012.002.016.004h.034ZM4.142 5.419l.01.01.009.006.01.01.005.009.02.019.005.012.01.013.006.012.019.047.006.038.007.021v.019l.003.025v.078l-.003.031-.007.032-.003.034-.006.035-.007.037-.01.037-.008.044-.013.04-.013.048-.015.046-.016.05-.08.263-.036.131-.03.128-.056.25-.044.25-.023.12-.015.121-.03.231-.03.225-.024.215-.01.103-.025.2-.012.094-.016.091-.012.09-.016.085-.02.081-.017.078-.02.075-.024.072-.025.07-.025.06-.032.061-.034.052-.046.063-.026.031-.018.022-.038.038-.013.016-.015.012-.02.013-.015.012-.056.038-.022.012-.025.009-.021.013-.05.019-.026.006-.027.006-.025.007-.032.002h-.03l-.03.004-.031-.004-.342-.021-.018-.004-.016-.002h-.006l-.013-.007-.01-.01-.002-.006-.003-.003-.004-.006v-.006l-.002-.01v-.009l-.006-.15-.004-.15-.003-.147.003-.15.012-.287.013-.144.013-.14.016-.141.018-.138.019-.134.022-.134.025-.131.028-.128.025-.126.031-.124.032-.122.034-.122.031-.116.038-.116.034-.109.037-.109.038-.106.04-.104.042-.1.037-.096.04-.094.041-.088.044-.087.04-.084.082-.157.003-.002.003-.01.01-.015.015-.02.006-.009.032-.031.025-.018.015-.01.016-.007.006-.002.016-.01.025-.015.034-.02.04-.018.048-.025.05-.025.056-.022.028-.012.112-.038.056-.012.026-.007.028-.003.025-.003h.022l.025.003.021.003.038.013.016.01.009.005Zm-.456.707.006-.02.003-.022v-.027l-.003-.013-.012-.019-.006-.006-.01-.006-.019-.006h-.05l-.024.006-.017.003-.012.003-.05.019-.034.015-.013.006-.028.067-.035.084-.018.046-.019.053-.022.057-.021.062-.094.282-.022.08-.025.082-.025.088-.025.09-.022.094-.025.097-.022.1-.022.103-.044.213-.037.224-.016.116-.016.119-.025.244-.01.124-.009.128-.006.128-.003.132h.028l.029.003.025-.003h.022l.025-.004L3 8.861l.022-.006.016-.006.019-.01.015-.006.013-.012.015-.01.012-.012.01-.013.013-.012.006-.016.019-.03.013-.033.002-.018.006-.016.017-.094V8.55l.006-.075.003-.054.003-.059.006-.06.006-.061.012-.131.01-.07.01-.071.009-.075.013-.072.012-.078.013-.075.012-.078.015-.081.016-.078.016-.082.015-.078.016-.08.019-.083.015-.078.02-.08.02-.079.038-.156.023-.078.018-.075.022-.075.022-.072.043-.137.023-.066.025-.066.006-.021Zm3.404 4.58-.007-.003h-.006l-.01-.003-.005-.003h-.006l-.004-.003-.006-.003-.013-.013-.003-.006-.006-.006v-.006l-.006-.013v-.006l-.004-.02-.002-.056-.004-.075-.003-.09-.006-.093-.004-.088v-.11L7 10.1l.006-.013.003-.003.004-.006.012-.012h.003l.012-.007.004-.002h.01l.003-.004h.32l.126.004h.441l.163.002h.165l.165.004H8.6l.159.003h.15l.14.003h.01l.006.003.01.004h.006l.006.006.019.009.01.01.009.017v.007l.002.01v.543l-.002.007v.006l-.006.012-.004.003-.003.006-.003.004-.013.006-.003.003-.012.006h-.006l-.007.003H8.89l-.05-.003h-.404v.025l.004.076.003.115.003.15.007.181.002.203.01.222.006.234.007.238.009.238.01.23.008.219.007.197.01.175.005.075.004.066.002.06.007.046v.022l-.003.006v.01l-.004.005-.002.01-.01.01-.018.009-.01.002h-.006l-.01.004H8.44l-.05-.004-.075-.002-.085-.004-.088-.002-.08-.004-.063-.003-.03-.003h-.01l-.006-.003h-.01l-.007-.004-.01-.006-.011-.006-.004-.003-.01-.019v-.006l-.005-.012v-.01l-.006-.043-.01-.072-.012-.1-.012-.119-.016-.14-.016-.16-.016-.178-.015-.191-.02-.203-.015-.21-.015-.218-.016-.221-.031-.563-.003-.113-.007-.109-.002-.106-.594-.016Z" clip-rule="evenodd"/>
      </g>
    </g>
  </g>
  <defs>
    <clipPath id="a">
      <path fill="#fff" d="M0 0h18v18H0z"/>
    </clipPath>
    <clipPath id="b">
      <path fill="#fff" d="M2.5 4.657h13v8.91h-13z"/>
    </clipPath>
  </defs>
</svg>
