<svg xmlns="http://www.w3.org/2000/svg" viewBox="0 0 18 18">
  <g clip-path="url(#a)">
    <path fill="#1475BC" d="M0 0h18v18H0V0Z"/>
    <path fill="#fff" fill-rule="evenodd" d="M3 12.613v-.407c.33.02.988-.046.988-.465V6.105C3.91 5.99 3.604 5.757 3 5.757v-.349h2.863c.723 0 1.518 0 2.035.506.317.309.566.778.564 1.47-.004 1.145-.916 1.742-1.65 1.983-.288.094-.594.108-.898.108h-.822v2.266c-.039.175.116.523 1.046.523v.349H3Zm2.092-6.74h.563c.475 0 .997.066 1.295.398.24.267.394.621.35 1.17-.071.87-.446 1.19-.865 1.406-.297.152-.64.164-.973.164h-.37V5.873Z" clip-rule="evenodd"/>
    <path fill="#fff" d="M12.458 5.82c1.11.028 1.67 1.305 1.832 2.152h.382V5.514h-.437c-.044.13-.2.236-.273.273-.437-.306-1.239-.42-1.585-.437-2.622.043-3.296 2.276-3.332 3.387-.037 1.074.35 3.3 2.404 3.824 2.054.525 3.223-.965 3.55-1.803l-.49-.164c-1.056 2.074-2.629 1.474-3.279.93-1.176-1.127-1.123-2.631-.796-3.827.3-.95 1.029-1.903 2.024-1.877Z"/>
  </g>
  <defs>
    <clipPath id="a">
      <path fill="#fff" d="M0 0h18v18H0z"/>
    </clipPath>
  </defs>
</svg>
