<svg xmlns="http://www.w3.org/2000/svg" viewBox="0 0 18 18">
  <g clip-path="url(#a)">
    <path fill="#C7353B" d="M0 0h18v18H0V0Z"/>
    <path fill="#E41937" d="M5.705 4.5h5.451c1.982 0 3.014.59 2.639 2.277-.228 1.031-.844 1.821-2.29 2.143v.026c.87.08 1.272.456 1.312 1.152.04.777-.268 2.05-.147 3.402H9.094c-.067-.67.067-1.808.107-2.585.027-.442-.174-.63-.763-.63h-.416l-.696 3.202H3.75L5.705 4.5Zm3.067 3.75c.697 0 1.26-.241 1.407-.91.147-.657-.295-.804-1.018-.804h-.322l-.375 1.7h.308v.014Z"/>
    <path fill-rule="evenodd" d="M5.302 4h5.854c1.01 0 1.912.143 2.511.612.665.518.828 1.318.616 2.273-.129.583-.376 1.132-.821 1.581a3.008 3.008 0 0 1-.625.481c.316.299.454.694.48 1.123v.002c.018.358-.028.805-.075 1.256l-.031.304c-.056.577-.1 1.195-.043 1.824l.048.544H8.641l-.045-.45c-.038-.38-.018-.87.012-1.335.014-.213.03-.418.045-.614.019-.253.037-.491.049-.712v-.004a.59.59 0 0 0 0-.074l-.01-.003a1.129 1.129 0 0 0-.254-.022h-.013l-.696 3.2h-4.6L5.303 4Zm2.72 6.286h.416c.589 0 .79.187.763.63-.012.221-.03.473-.05.735-.05.654-.105 1.37-.057 1.849h3.576a7.201 7.201 0 0 1-.027-.5c-.012-.624.05-1.22.103-1.742.046-.45.087-.845.071-1.16-.024-.415-.177-.716-.48-.909-.205-.13-.478-.21-.826-.242h-.006V8.92h.002a4.15 4.15 0 0 0 .848-.283c.852-.404 1.263-1.06 1.44-1.86.375-1.688-.657-2.277-2.639-2.277h-5.45L3.75 13.487h3.576l.696-3.201ZM9.272 8.2c.456-.1.797-.361.907-.86.147-.657-.295-.804-1.018-.804h-.322l-.375 1.7h.308v.014a2.735 2.735 0 0 0 .272-.013c.079-.009.155-.02.228-.037Zm-.183-.473a.99.99 0 0 0 .34-.113.539.539 0 0 0 .261-.382V7.23a.523.523 0 0 0 .017-.128.596.596 0 0 0-.146-.04 2.19 2.19 0 0 0-.32-.026l-.152.69Z" clip-rule="evenodd"/>
    <path fill="#fff" fill-rule="evenodd" d="M5.504 4.25h5.652c1 0 1.828.145 2.357.559.562.438.726 1.123.526 2.022-.122.55-.35 1.051-.755 1.46-.248.25-.555.458-.93.62.104.054.2.118.284.194.277.246.406.583.429.979v.001c.017.336-.027.757-.073 1.208l-.032.314c-.056.581-.101 1.219-.043 1.87l.024.273H8.868l-.023-.225c-.036-.358-.017-.829.013-1.293.013-.207.029-.41.043-.606.02-.258.039-.502.05-.724V10.9c.012-.187-.03-.247-.062-.274-.05-.042-.17-.09-.451-.09h-.214l-.697 3.2H3.44L5.504 4.25Zm2.518 6.036h.416c.589 0 .79.187.763.63-.012.221-.03.473-.05.735-.05.654-.105 1.37-.057 1.849h3.576a6.662 6.662 0 0 1-.018-.25c-.037-.715.033-1.4.094-1.992.046-.45.087-.845.071-1.16-.031-.544-.284-.892-.808-1.057a2.433 2.433 0 0 0-.498-.094h-.006V8.92h.002c.178-.04.343-.087.496-.14 1.094-.38 1.592-1.1 1.792-2.003.375-1.688-.657-2.277-2.639-2.277h-5.45L3.75 13.487h3.576l.696-3.201Zm.75-2.05v.014c.086 0 .17-.004.25-.011.579-.055 1.027-.312 1.157-.9.147-.656-.295-.803-1.018-.803h-.322l-.375 1.7h.308Zm.25-.248-.247-.001.265-1.201h.12c.364 0 .586.04.7.115.046.03.07.063.084.108a.556.556 0 0 1-.01.276.787.787 0 0 1-.379.545 1.33 1.33 0 0 1-.533.158Z" clip-rule="evenodd"/>
  </g>
  <defs>
    <clipPath id="a">
      <path fill="#fff" d="M0 0h18v18H0z"/>
    </clipPath>
  </defs>
</svg>
