<svg xmlns="http://www.w3.org/2000/svg" viewBox="0 0 18 18">
  <g clip-path="url(#a)">
    <path fill="#C82021" d="M0 0h18v18H0V0Z"/>
    <path fill="#fff" d="M13.21 13.735c-.137-.07-.31-.172-.722-.86l-.824-1.34-.963-1.58-.068-.138c.034 0 .103-.034.137-.034 1.1-.378 1.753-1.375 1.753-2.818 0-.722-.275-1.375-.825-1.856-.069-.069-.172-.137-.24-.206-.757-.481-1.753-.653-3.059-.653H5.89c-.137 0-.171.103-.103.172.07.069.138.172.138.447v7.903c-.035.31-.103.413-.138.481-.068.07-.034.172.138.172h1.821v-3.333h.825l.584.996.722 1.238.343.618c.413.687.79 1.134 1.444 1.237.068 0 .412.069.55.069h.137c.275 0 .55-.103.722-.172 0 0 .034-.034.068-.034.24-.138.172-.275.069-.31ZM8.914 8.786H7.746v-3.23h1.168c.585 0 1.031.069 1.34.378.138.103.207.24.276.412.068.206.137.447.137.756 0 .413-.034 1.684-1.753 1.684Z"/>
  </g>
  <defs>
    <clipPath id="a">
      <path fill="#fff" d="M0 0h18v18H0z"/>
    </clipPath>
  </defs>
</svg>
