<svg xmlns="http://www.w3.org/2000/svg" viewBox="0 0 18 18">
  <g clip-path="url(#a)">
    <path fill="#EE2822" d="M0 0h18v18H0V0Z"/>
    <path fill="#FFDF00" d="M8.596 4.896h.811c-.03-.021-.056-.047-.084-.075l-.008-.007-.004-.004c-.14-.143-.117-.305-.06-.363.057-.058.218.01.358.152a.75.75 0 0 1 .092.107V3.7a.891.891 0 0 1-.087.101c-.14.143-.3.21-.359.152-.057-.058.01-.22.15-.362a.899.899 0 0 1 .102-.091h-.989a.825.825 0 0 1 .098.086c.141.141.208.304.15.362-.057.058-.217-.01-.358-.151a.86.86 0 0 1-.09-.106v1.002a.879.879 0 0 1 .085-.099c.14-.142.301-.21.359-.152.057.058.08.22-.06.362a.802.802 0 0 1-.106.092Zm-.411 1.1a.834.834 0 0 0 .814.672.834.834 0 0 0 .815-.672H8.185Zm1.628-.338a.84.84 0 0 0-.654-.655v.655h.654Zm-.983-.653a.835.835 0 0 0-.645.653h.646v-.653Zm-.082 2.022A.252.252 0 0 1 9 6.774a.252.252 0 0 1 .178.432.253.253 0 0 1-.274.055.252.252 0 0 1-.155-.234Zm0 .635A.252.252 0 0 1 9 7.41a.252.252 0 0 1 .178.431.252.252 0 0 1-.274.055.252.252 0 0 1-.155-.234Zm0 .637A.252.252 0 0 1 9 8.045a.252.252 0 0 1 .178.432.252.252 0 0 1-.178.074.252.252 0 0 1-.25-.252Zm0 .635A.252.252 0 0 1 9 8.681a.252.252 0 0 1 .233.35.252.252 0 0 1-.33.137.252.252 0 0 1-.154-.234Zm-.025 1.414a.277.277 0 1 1 .553 0c0 .155-.124.28-.277.28a.278.278 0 0 1-.277-.28Zm4.447.809c.096.033.22-.075.275-.242.056-.166.022-.328-.075-.36-.097-.033-.221.074-.277.24-.056.167-.021.328.076.362Zm-8.34 0c-.098.033-.222-.075-.277-.242-.056-.166-.022-.328.076-.36.097-.033.22.074.276.24.056.167.022.328-.076.362Zm5.101-4.774a.37.37 0 0 1 .368-.372.37.37 0 0 1 .368.372.369.369 0 0 1-.629.261.37.37 0 0 1-.107-.261Zm.859-.375c0-.205.164-.371.367-.371a.37.37 0 0 1 .369.371.37.37 0 0 1-.369.372.37.37 0 0 1-.367-.372Zm.882-.318a.37.37 0 0 1 .368-.371.37.37 0 0 1 .368.371.37.37 0 0 1-.51.343.369.369 0 0 1-.226-.343Zm.929-.032a.37.37 0 0 1 .368-.372.37.37 0 0 1 .368.372.37.37 0 0 1-.368.372.37.37 0 0 1-.368-.372Zm.851.366a.37.37 0 0 1 .368-.371.37.37 0 0 1 .367.371.37.37 0 0 1-.367.371.37.37 0 0 1-.368-.37Zm.596.734a.37.37 0 0 1 .367-.371.37.37 0 0 1 .369.371.37.37 0 0 1-.369.371.37.37 0 0 1-.367-.37Zm.217.906a.37.37 0 0 1 .367-.372.37.37 0 0 1 .368.372.369.369 0 0 1-.509.342.37.37 0 0 1-.226-.342Zm-.049.929c0-.205.165-.37.368-.37a.37.37 0 0 1 0 .743.37.37 0 0 1-.368-.373Zm-.242.89c0-.205.164-.371.367-.371a.37.37 0 0 1 .368.37.37.37 0 0 1-.368.372.37.37 0 0 1-.367-.371Zm-6.64-3.1a.37.37 0 0 1 .367-.372.37.37 0 0 1 .368.372.37.37 0 0 1-.368.37.369.369 0 0 1-.367-.37Zm-.859-.375a.37.37 0 0 1 .368-.371.37.37 0 0 1 .367.371.37.37 0 0 1-.508.343.37.37 0 0 1-.227-.343Zm-.882-.318a.37.37 0 0 1 .367-.371.37.37 0 0 1 .368.371.37.37 0 0 1-.509.343.37.37 0 0 1-.226-.343Zm-.929-.032a.37.37 0 0 1 .367-.372.37.37 0 0 1 .368.372.37.37 0 0 1-.51.343.37.37 0 0 1-.225-.343Zm-.851.366a.37.37 0 0 1 .367-.371.37.37 0 0 1 .368.371.37.37 0 0 1-.509.343.369.369 0 0 1-.226-.343Zm-.596.734a.37.37 0 0 1 .368-.371.37.37 0 0 1 .367.371.37.37 0 0 1-.367.371.37.37 0 0 1-.368-.37ZM3 7.664a.37.37 0 0 1 .367-.372.37.37 0 0 1 .368.372.37.37 0 0 1-.51.342A.369.369 0 0 1 3 7.664Zm.049.929a.37.37 0 0 1 .368-.37.37.37 0 0 1 .367.37.37.37 0 0 1-.509.343.37.37 0 0 1-.226-.343Zm.242.89a.37.37 0 0 1 .368-.371.37.37 0 0 1 .368.37.37.37 0 0 1-.368.372.37.37 0 0 1-.368-.371Z"/>
    <path fill="#FFDF00" fill-rule="evenodd" d="M4.859 9.79c-.11.327-.172.555-.076.61.177.101.313-.228.343-.317.112.329.343 1.098.343 1.098-.03-.01-.06-.024-.092-.038-.144-.064-.299-.133-.352.008-.055.15.109.275.343.359.484.172 1.004-.156 1.104-.49l.556-.043c.278.436.55.604.945.604.396 0 .811-.377.78-.716-.035-.388-.42-.335-.69.129V9.723a.981.981 0 0 0 .116.128c.188.18.403.265.48.192.048-.046.032-.142-.033-.252a.982.982 0 0 0-.167-.205 1.011 1.011 0 0 0-.138-.115H9.68c-.047.032-.09.07-.137.115a.991.991 0 0 0-.168.205c-.064.11-.08.205-.033.251.078.074.292-.012.48-.19a1.074 1.074 0 0 0 .116-.129v1.27c-.27-.463-.654-.516-.69-.128-.03.339.385.716.78.716.396 0 .668-.168.946-.604l.555.043c.1.334.62.662 1.105.49.234-.084.398-.21.343-.359-.054-.141-.209-.073-.352-.009l-.092.04s.23-.77.343-1.1c.03.09.166.419.343.317.096-.055.034-.281-.076-.608l-.078-.227.594.181s.46-.635.504-1.739c.066-1.636-1.05-1.91-1.541-1.916-.448-.005-.69.094-1.05.242-.064.025-.13.053-.202.08-.126.05-.242.106-.362.164a3.813 3.813 0 0 1-1.265.403L9.74 6.71l-.337-.14v2.694h-.807V6.57l-.337.14-.001.268c-.612-.087-.95-.25-1.266-.402a5.183 5.183 0 0 0-.361-.163l-.2-.081c-.362-.148-.604-.247-1.053-.242-.49.006-1.606.28-1.54 1.916.042 1.103.504 1.74.504 1.74l.594-.182-.04.114-.038.113Zm.932.002c-.109.077-.216.5.177.822.078-.179.166-.197.249-.179.082.018.147.063.192.231l.555-.043c.009-.146.074-.241.204-.277.118-.022.224.036.313.173.081-.241.095-.551.013-.727-.038-.08-.097-.134-.179-.138-.113-.006-.213.058-.292.138a.833.833 0 0 0-.151.225 4.93 4.93 0 0 0 .043-.225c.107-.634.013-.866-.45-1.296-.374.3-.468.755-.257 1.295.033.084.074.17.12.256a.932.932 0 0 0-.286-.255.258.258 0 0 0-.25 0Zm6.416 0h-.001a.254.254 0 0 0-.249.002l-.004-.001a.957.957 0 0 0-.283.254c.047-.087.087-.172.12-.255.212-.54.118-.996-.256-1.296-.463.43-.557.661-.45 1.295.011.07.026.146.042.226a.818.818 0 0 0-.151-.225c-.079-.08-.179-.144-.293-.138-.081.004-.14.057-.177.138-.082.177-.069.486.013.727.088-.138.194-.195.313-.173.13.035.195.131.203.277l.556.043c.044-.169.11-.213.191-.23.083-.019.172 0 .249.178.393-.323.286-.745.177-.823ZM8.41 6.997a5.33 5.33 0 0 1-.151-.02l-.002.494c-.463-.02-.914-.19-1.357-.358-.451-.17-.895-.338-1.337-.342-.999-.006-1.135 1.001-1.122 1.311.011.31.029.639.236 1.075.04-.25.222-1.01.49-1.14.75-.31 1.5-.048 1.5-.048.863-.269 1.59-.269 1.59-.269v-.229c.03.002.059.002.088.002l.065-.476Zm1.333.475-.001-.494a5.31 5.31 0 0 1-.151.019l.065.477.087-.002Zm0 .228v-.228c.464-.02.914-.19 1.358-.358.45-.171.894-.34 1.337-.342.998-.007 1.134 1 1.122 1.31-.012.31-.03.64-.236 1.075-.041-.25-.201-1.009-.49-1.14-.75-.31-1.501-.048-1.501-.048-.863-.269-1.59-.269-1.59-.269Z" clip-rule="evenodd"/>
    <path fill="#FFDF00" d="m13.017 11.575-.072.695H5.03l-.071-.695s.257.277.706.266c.449-.012.854-.337 1.03-.6.037-.06.087-.063.125.003.272.37.514.641 1.176.641.627 0 .883-.375.978-.516l.015-.02.013.02c.095.139.35.516.979.516.661 0 .903-.27 1.175-.641.039-.066.089-.063.125-.003.177.262.581.587 1.03.6a.975.975 0 0 0 .707-.266Zm-7.308.901v.555h-.68l-.236-.28.236-.275h.68Zm1.215-.026c-.329 0-.597.136-.597.304 0 .167.268.303.597.303.33 0 .598-.136.598-.303 0-.168-.268-.303-.598-.303Zm5.342.026v.555h.68l.235-.28-.236-.275h-.68Zm-1.216-.026c-.33 0-.597.136-.597.304 0 .167.267.303.598.303.329 0 .597-.136.597-.303 0-.168-.268-.303-.597-.303Zm-1.312.026H8.237v.555h1.5v-.555Z"/>
    <path fill="#fff" d="M4.658 13.716a.5.5 0 0 0 .513.488h7.632a.502.502 0 0 0 .514-.488c0-.27-.23-.489-.514-.489H5.171a.501.501 0 0 0-.513.489Z"/>
  </g>
  <defs>
    <clipPath id="a">
      <path fill="#fff" d="M0 0h18v18H0z"/>
    </clipPath>
  </defs>
</svg>
