<svg xmlns="http://www.w3.org/2000/svg" viewBox="0 0 18 18">
  <g clip-path="url(#a)">
    <path fill="#093898" d="M0 0h18v18H0V0Z"/>
    <path fill="#F1C931" d="M10.957 5.232c.628.18 1.256.36 1.884.449h.449c.27 0 .449-.09.718-.18h.09c0 .09 0 .09-.09.18-.36.27-.718.449-1.077.538-.09 0-.27.09-.359.09-.449.18-.987.18-1.436.18-.897-.09-1.704-.36-2.602-.36-.807-.09-1.615.27-2.064.898-.09.359-.269.718-.269 1.077s.539.448.718.718l.27.538c.089.359.268.718.538 1.077.18.18.359.448.628.538.359.27.628.539.807.897.18.36.36.629.449.988.09.179.18.358.18.628v.09c.09.179.09.358.179.448v.09c0 .09.09.269 0 .269-.18-.18-.27-.359-.359-.538-.09-.36-.359-.718-.628-1.077-.18-.18-.36-.449-.539-.628-.717-.808-1.794-1.346-2.602-2.064 0 0 0-.09-.09-.18-.09-.18-.179-.269-.269-.448-.18-.36-.448-.718-.628-1.167 0-.18-.09-.359-.09-.538v-.09c0-.18-.448-.27-.179-.628.18-.18.718-.359.897-.718v-.18s0-.09-.09-.09-.358.18-.358-.089v-.269c.09-.18.09-.359.09-.538 0-.09.09-.09.179-.09.09 0 .27-.09.359-.09.269 0 .628 0 .807.18.09.179 0 .359 0 .538 0 .18-.18.27-.09.359h.18c.359-.27.718-.628 1.077-.987.27-.27.718-.36 1.077-.27.807 0 1.435.27 2.243.45Z"/>
    <path fill="#F1C931" d="M8.893 6.668c.09.18 0 .269-.09.448-.448.629-.628 1.436-.897 2.154h-.09c-.09 0-.09-.09-.09-.18 0-.807.27-1.525.629-2.243.09-.09.18-.269.359-.18.09-.089.09 0 .18 0Zm1.256.18c.09.268-.09.448-.18.717-.448.897-.986 1.795-1.255 2.782 0 0 0 .09-.09.09h-.09c-.09-.36 0-.808.09-1.167.27-.808.538-1.615.987-2.423.09 0 .09-.09.09-.09.18 0 .359 0 .448.09Zm1.257.089c.09.09.09.27 0 .359-.539 1.166-1.346 2.153-1.705 3.41l-.27.807c0 .09-.09.09-.09 0-.089-.09 0-.269 0-.359.09-.987.36-1.974.808-2.781.18-.449.449-.808.629-1.257.09-.09.179-.269.358-.269.09 0 .18 0 .27.09Zm1.435.09c.09.18 0 .269 0 .448-.359.898-.987 1.705-1.435 2.603-.45.717-.718 1.525-.988 2.243-.09.27-.179.449-.269.718h-.09c-.09-.09-.09-.18-.09-.27.09-.986.45-1.794.809-2.691.448-.987.986-1.885 1.435-2.872.09-.09.18-.269.36-.359.089 0 .179 0 .268.18Z"/>
  </g>
  <defs>
    <clipPath id="a">
      <path fill="#fff" d="M0 0h18v18H0z"/>
    </clipPath>
  </defs>
</svg>
