<svg xmlns="http://www.w3.org/2000/svg" viewBox="0 0 18 18">
  <g clip-path="url(#a)">
    <path fill="#271EA8" d="M0 0h18v18H0V0Z"/>
    <path fill="#fff" d="M9.394 5.696H7.38v.12c.29.086.429.305.436.686v1.99a3.41 3.41 0 0 0 .856-.26V6.18H9.7a1.426 1.426 0 0 0-.305-.484ZM9.253 10.5a2.015 2.015 0 0 0-.177-.408c-.097.005-.226.01-.329.01l-.075.002v-.67c-.196.06-.651.123-.857.15l.001 3.699v.003c-.016.361-.155.58-.424.666v.123h1.71v-.123c-.278-.09-.425-.32-.425-.669l-.005-2.77h.074c.161 0 .348-.005.507-.013Zm2.042-4.059c.042.02.105.062.136.084.42.299.652.78.652 1.355 0 .495-.184 1.495-1.65 1.982.094.166.16.339.199.432a1.25 1.25 0 0 0 .11-.023l.045-.012.03.037c.527.633.936 1.62 1.068 2.572 0 .003.047.457.049.621v.027l-.001.03v.015c-.007.133-.046.313-.29.392v.12h1.763v-.119c-.156-.047-.467-.207-.6-.747l-.02-.081c-.1-.406-.154-.63-.225-.847-.167-.514-.537-1.479-1.129-2.157l-.062-.072.085-.043c.019-.01.036-.016.053-.024l.045-.02C12.46 9.5 12.96 8.757 12.96 7.87c.01-.653-.376-1.324-.93-1.702a2.404 2.404 0 0 0-.914-.389c.11.247.163.501.179.662Z"/>
    <path fill="#fff" d="M10.05 4.973c.554.378.94 1.05.93 1.703 0 .887-.5 1.63-1.407 2.092a.722.722 0 0 1-.045.02.682.682 0 0 0-.053.025l-.085.042.063.072c.59.678.96 1.643 1.129 2.157.07.217.125.44.224.847l.02.081c.133.54.444.7.6.748v.119H9.663v-.121c.244-.078.283-.259.29-.392v-.072a10.478 10.478 0 0 0-.048-.62c-.132-.954-.541-1.94-1.068-2.573l-.03-.037-.046.012c-.6.158-1.29.24-1.995.24h-.074l.005 2.77c0 .35.147.58.425.67v.122h-1.71v-.122c.27-.087.408-.305.424-.666v-.004c0-.067-.002-6.702 0-6.78-.008-.381-.147-.6-.436-.686V4.5h2.84c.833.001 1.376.18 1.81.473Zm.053 1.712c0-.574-.231-1.056-.651-1.354-.322-.227-.72-.337-1.255-.346H6.693v3.924l.075-.001c3.01-.052 3.335-1.572 3.335-2.223Z"/>
  </g>
  <defs>
    <clipPath id="a">
      <path fill="#fff" d="M0 0h18v18H0z"/>
    </clipPath>
  </defs>
</svg>
