<svg xmlns="http://www.w3.org/2000/svg" viewBox="0 0 18 18">
  <g clip-path="url(#a)">
    <path fill="#fff" d="M0 0h18v18H0V0Z"/>
    <g clip-path="url(#b)">
      <path fill="#0067B1" d="m7.747 16.496-.067-.01-.065-.022-.05-.028-.055-.047-.048-.064-.032-.067-.022-.075-.009-.055v-.088l.017-.163.049-.299.083-.404.062-.32.02-.148-.007-.02-.041-.019-.17-.07-.239-.114-.264-.157-.162-.108-.211-.162-.127-.114-.136-.135-.105-.114-.16-.186-.034-.045-.067-.086-.161-.227-.03-.047-.057-.088-.015-.011-.005.007.002.056.016.156.033.212.084.376.022.147.004.147-.005.077-.016.076-.026.076-.025.044-.037.052-.052.05-.055.037-.052.021-.053.01-.064-.001-.052-.015-.046-.024-.05-.039-.036-.038-.043-.074-.033-.09-.014-.107v-.14l.013-.123.057-.289.069-.272.02-.113.01-.09.006-.022.015-.147.004-.26-.009-.175-.005-.05-.006-.086-.027-.155-.01-.057-.06-.236-.055-.231-.043-.323-.016-.236.003-.178.002-.026v-.104l.006-.123.005-.032.006-.1.032-.234.04-.218.046-.192.067-.223.053-.16.1-.244.096-.206.117-.211.07-.118.13-.194.149-.196.118-.143.027-.028.04-.043.149-.15.033-.03.137-.124.193-.15.086-.062.099-.069.008-.013-.004-.019-.036-.065-.019-.064-.014-.098.002-.073.023-.099.034-.079.056-.092.053-.068.109-.1.055-.04.01-.015-.006-.015-.042-.035-.043-.06-.022-.046-.007-.037-.003-.069.013-.062.03-.074.032-.052.05-.056.043-.039.08-.051.076-.033.112-.032.116-.019.084-.002.085-.004.007-.007-.005-.015-.025-.037-.028-.058-.013-.054-.001-.053.007-.041.02-.046.03-.046.038-.038.06-.037.05-.017.037-.008h.087l.06.012.098.034.084.046.056.036.087.074.061.064.102.133.058.094.04.073.011.013.005-.014-.004-.07-.029-.158-.03-.225-.026-.158-.036-.143-.022-.058-.025-.037-.028-.023-.034-.029-.022-.04-.01-.052-.008-.049-.02-.028-.038-.048-.06-.067-.027-.017-.026-.002-.04.012-.029-.004-.028-.02-.044-.046-.017-.007-.019.005-.047.038-.019.008-.023-.004-.03-.02-.088-.09-.133-.176-.121-.192-.056-.105-.062-.144-.074-.202-.029-.045-.088-.103-.158-.165-.18-.186-.04-.028-.032-.011-.056-.01-.026-.014-.024-.038-.017-.06-.01-.08.002-.054.023-.121.026-.079.047-.11.073-.142.093-.161.088-.131.095-.123.127-.151.017-.017.095-.097.164-.145.083-.065.096-.07.092-.06.172-.106.195-.091.157-.05.123-.025.097-.004.086.012.059.02.03.021.015.023.007.046-.007.053.005.023.026.033.155.176.075.08.167.184.075.078.04.025.117.044.112.054.088.052.142.1.132.105.17.165.06.075.012.023-.001.024-.013.025-.036.043.002.02.021.03.045.06.012.033-.003.027-.021.04-.002.017.019.031.071.076.04.034.043.024.056.01.028.017.03.045.014.034.007.044-.005.053-.016.055-.032.085-.067.132-.088.15-.09.132-.119.157-.112.13-.112.122-.155.149-.036.029-.034.031-.185.147-.162.115-.018.025-.007.03-.009.624-.002.132-.014.36.003.01h.01l.023-.041.029-.055.034-.055.04-.06.064-.082.077-.084.021-.018.06-.047.082-.052.064-.03.086-.026.065-.012.09.006.05.013.06.028.046.032.05.054.026.05.02.06.003.061-.012.052-.018.042-.03.049v.007l.012.005h.104l.086.017.087.034.05.03.052.051.03.045.027.063.012.053.002.053-.012.057-.021.046-.034.046-.05.04-.047.027-.005.01.009.009.06.024.042.023.075.044.135.101.106.11.05.073.034.075.019.07.007.054-.002.07-.013.07-.029.067-.036.055-.004.018.007.014.346.238.15.117.09.076.059.049.162.155.136.152.092.108.103.13.095.132.125.193.172.304.121.267.06.163.015.042.03.082.006.028.053.175.01.04.037.167.044.282.024.215.015.252-.002.271-.02.369-.022.208-.013.09-.022.13-.013.083-.027.174-.011.145v.044l-.001.025v.287l.01.133.006.063-.001.019.006.085-.004.077.005.023-.007.022-.025.223-.022.125-.031.147-.01.033-.045.157-.05.154-.025.074-.012.012h-.02l-.015-.014-.017-.055-.031-.178-.054-.21-.12-.422-.011-.105-.005-.009h-.006l-.014.017-.05.086-.138.193-.138.171-.073.082-.195.198-.057.053-.138.123-.112.092-.161.12-.205.136-.18.108-.188.095-.215.093-.203.07-.201.059-.161.04-.24.048-.259.034-.211.017-.332-.002-.11-.009-.06-.002-.282-.034-.29-.06-.184-.048-.01.007-.003.01.003.058.007.044.022.139.133.663.02.126.017.113.004.172-.005.08-.02.086-.036.08-.045.057-.047.043-.045.026-.064.019-.067.006Z"/>
      <path fill="#EF4135" d="m7.767 16.323-.05-.001-.055-.017-.04-.026-.037-.045-.028-.06-.018-.084-.005-.066.015-.168.026-.151.024-.126.003-.032.039-.19.042-.247.006-.041.016-.074.033-.187.006-.007.006.011.018.12.029.203.09.463.01.075.025.152.012.132.003.105-.012.094-.022.065-.03.045-.033.03-.05.022-.023.005Z"/>
      <path fill="#0067B1" d="m12.495 16.067-.077-.01-.056-.017-.049-.03-.05-.046-.038-.06-.024-.052-.014-.062-.007-.09.003-.025-.003-.02.013-.122.043-.208.05-.185.026-.09.038-.134.079-.27.062-.283.031-.182.009-.016.013-.007.012.003.009.014.008.045.006.09.01.14.017.124.007.062.031.188.012.072.045.213.064.316.016.151.003.116-.008.093-.018.065-.03.065-.032.045-.037.042-.038.027-.048.024-.05.012-.028.002Zm-6.419-.114-.082-.002-.069-.017-.066-.032-.043-.034-.038-.04-.039-.063-.021-.058-.018-.07-.01-.102.002-.084.022-.166.05-.246.05-.224.041-.159.027-.126.018-.08.02-.1.066-.314.045-.281.005-.06.011-.019.011-.003.012.005.007.023.022.18.045.276.093.44.043.178.004.023.019.082.03.161.021.1.028.2.007.132-.005.11-.016.088-.028.081-.024.045-.039.051-.025.026-.013.013-.07.041-.058.02-.035.005Z"/>
      <path fill="#EF4135" d="m12.493 15.903-.051-.004-.032-.013-.038-.034-.022-.033-.022-.06-.009-.053V15.6l.012-.093.012-.054.011-.075.058-.243.051-.184.048-.228.008-.009.012.043.02.16.034.261.019.115.037.281.002.073-.002.018v.03l-.01.057-.02.054-.03.047-.04.03-.048.019Zm-6.432-.12-.047-.002-.04-.01-.04-.024-.04-.038-.028-.045-.023-.066-.01-.044-.004-.076.016-.152.043-.24.073-.325.082-.447.005-.007.007.02.025.176.034.161.009.056.06.274.022.125.013.073.02.149.004.138-.017.118-.017.052-.028.053-.036.04-.043.029-.04.012Z"/>
      <path fill="#fff" d="m9.197 14.808-.04-.006-.08-.026-.025-.017-.017-.027-.012-.038-.018-.047-.02-.016-.028-.016-.017-.023-.008-.099-.004-.095-.01-.095.005-.015.033-.01.039-.005h.054l.01.006-.016.043.002.071.007.02.037.047.026.015.03.003.023-.008.037-.039.017-.007.042-.01.007.003.002.024v.021l.014.04.016.032-.004.031-.002.023.01.036.025.035.001.024-.014.04-.024.038-.017.02-.02.01-.041.012-.02.005Zm-.674-.001-.03-.002-.034-.007-.035-.003-.008-.007.023-.012.114-.042.04-.02.021-.024.022-.041.02-.013.044-.006.034.002.004.006-.003.01-.014.008-.046.016-.013.015-.013.047-.017.022-.109.05Zm.261-.212-.023-.001-.005-.025-.002-.054.006-.08-.003-.043.002-.026.01-.047.008-.024.011-.006h.056l.014.008.008.027.015.125.002.103-.008.017-.014.007-.077.02Z"/>
      <path fill="#EF4135" d="m9.764 14.45-.04-.003-.039-.017-.038-.037-.022-.035-.03-.078-.014-.097-.002-.085.013-.16.029-.151.014-.048.003-.022.011-.051.03-.122.01-.047.051-.236.016-.1.006-.002.008.028.017.106.028.143.034.144.023.08.03.118.029.16.01.114-.003.146-.016.08-.028.07-.028.045-.035.03-.04.02-.027.008Z"/>
      <path fill="#EF4135" d="m5.49 14.36-.038-.002-.031-.013-.046-.034-.034-.05-.022-.049-.016-.075-.007-.081.003-.106.023-.166.062-.296.035-.165.006-.038.018-.12.008-.07.007-.035.013-.151v-.257l-.017-.17-.04-.25-.054-.306-.026-.144-.063-.44-.013-.194.01-.42.054-.418.043-.212.043-.17.067-.214.077-.212.12-.273.123-.23.162-.257.106-.147.137-.17.151-.166.162-.162.172-.146.135-.102.142-.097.056-.035.013-.017.018-.002.022-.008.03.002.06.014.07-.003.056-.012.061-.026.062-.038.058-.048.027-.025.017.002.012.018.027.037.027.026.045.026.052.02.023.003.078-.002.053-.016.047-.026.053-.041.097-.104.15-.182.048-.041.05-.03.05-.02.045-.014.01-.013-.004-.016-.03-.01-.031-.002-.063.01-.057.022-.056.032-.053.043-.13.135-.039.043-.057.045-.039.016-.049.003-.048-.012-.028-.017-.021-.028-.016-.048v-.042l.016-.069.038-.078.052-.064.054-.05.067-.047.072-.037.107-.039.083-.017.128-.008.127.014.087.022.143.058.065.037.09.07.023.032.024.037.012.006.016-.004.009-.015.007-.044v-.34l-.012-.283-.013-.194-.008-.07-.012-.171-.01-.089-.03-.318-.028-.182-.021-.094-.033-.1-.03-.055-.047-.055-.017-.038-.003-.013v-.05l.029-.11.056-.132.073-.13.106-.159.105-.138.13-.144.172-.175.064-.058.082-.075.144-.117.173-.127.189-.118.122-.065.082-.037.073-.021.063-.004.032.012.024.03.006.036-.015.075-.047.107-.142.22-.069.09-.036.044-.078.098-.152.168-.156.158-.248.21-.148.112-.071.064-.028.046-.015.038-.004.038.005.506.008.152-.002.023.002.038v.345l-.009.444-.004.05-.012.293-.015.254.007.021.01.008h.018l.112-.079.054-.028.085-.034.07-.018.038-.005.094.002.058.014.047.02.058.036.038.04.04.061.015.048.003.05-.01.061-.022.05-.036.043-.066.043-.052.02-.014.015.007.015.016.01.04.004.062-.01.06-.024.046-.032.047-.053.028-.055.02-.063.005-.051-.008-.063-.012-.038-.026-.051-.01-.015.018.002.071.047.037.028.082.065.04.038.121.115.06.058.098.081.082.054.061.03.045.013.067.004.065-.007.026.01.132.076.144.093.211.15.19.16.036.034.123.117.022.023.082.085.122.142.023.032.035.043.102.133.02.03.16.24.06.1.09.171.06.134.009.024.053.129.075.213.067.227.026.101.034.178.036.242.017.158.001.03.005.088.002.064-.006.022.01.047.003.292-.002.103-.002.133-.013.102-.004.086-.004.017-.006.075-.013.108-.045.279-.023.242-.01.066.002.31.01.316-.006.14-.01.091-.038.205-.018.046-.008-.001-.01-.021-.05-.153-.054-.145-.029-.127-.017-.17.006-.325-.009-.145-.033-.243-.036-.172-.013-.05-.014-.121.004-.166.01-.11.011-.071.003-.106-.01-.073-.03-.097-.026-.055-.033-.05-.045-.047-.037-.023-.043-.015-.043-.002-.045.014-.043.033-.038.044-.026.048-.037.103-.017.087-.022.163-.033.11-.025.076-.032.164-.007.097.001.076.009.054.005.058.021.09.016.066.012.041.05.224.01.12-.004.054-.019.064-.027.05-.028.032-.034.021-.02.006-.032-.002-.027-.01-.03-.022-.027-.033-.024-.043-.015-.063-.004-.075.006-.075.015-.106.067-.296.031-.125.017-.112.004-.093-.012-.07-.024-.075-.036-.078-.063-.098-.082-.101-.086-.078-.112-.082-.15-.091-.087-.076-.049-.053-.045-.067-.067-.107-.09-.13-.078-.077-.069-.046-.053-.021-.063-.017-.048-.006-.074.003-.084.02-.052.024-.058.043-.043.043-.044.062-.022.05-.025.05-.03.106-.024.168-.011.227.001.03-.006.178-.017.157-.028.12-.043.13-.047.118-.043.097-.047.15-.026.112-.01.042-.005-.002-.04-.146-.06-.146-.06-.129-.075-.141-.045-.078-.064-.12-.04-.095-.038-.12-.043-.193-.05-.29-.04-.142-.036-.088-.032-.058-.034-.045-.01-.008-.024-.022-.03-.02-.038-.01h-.048l-.042.017-.036.028-.033.047-.038.086-.046.117-.037.064-.05.065-.143.138-.043.06-.028.055-.02.074-.01.053-.006.175.013.2.069.397.006.14-.004.054-.012.051-.025.039-.028.02-.03.013-.03-.001-.022-.013-.024-.025-.017-.032-.013-.041-.008-.05.006-.118.021-.113.05-.228.024-.133.007-.106-.012-.11-.026-.106-.043-.125-.026-.095-.018-.129-.012-.1-.015-.076-.03-.077-.044-.074-.045-.055-.053-.041-.04-.022-.052-.013-.021-.003-.065.003-.056.015-.06.029-.068.051-.106.095-.081.053-.067.033-.106.034-.173.04-.077.03-.058.04-.07.072-.048.069-.032.06-.024.072-.019.086-.004.127.002.098v.171l-.019.147-.019.069-.118.268-.04.133-.006.006-.007-.036-.012-.072-.054-.162-.034-.078-.038-.114-.026-.118-.014-.113-.016-.246-.012-.075-.015-.036-.027-.025-.023-.008-.028.003-.025.013-.021.023-.024.05-.021.081-.035.23-.029.099-.04.095-.02.04-.04.11-.017.073-.007.023-.011.014-.02.002-.016-.014-.013-.037-.024-.089-.069-.175-.016-.065-.02-.147-.002-.132-.01-.03-.015-.02-.023-.009-.026.008-.02.025-.014.031-.024.082-.014.125-.008.08-.01.073-.07.286-.06.224-.038.197-.021.149-.004.134.006.133.017.145.003.016.005.047.054.3.044.238.016.167-.003.09-.014.079-.026.075-.028.042-.013.011-.036.028-.045.015Z"/>
      <path fill="#fff" d="m9.17 14.275-.022-.001v-.006l.02-.001.006.003-.004.005Zm-.395-.029h-.06l-.014-.008-.03-.048-.012-.037-.012-.096.003-.067-.008-.016-.013-.009-.056-.011-.018-.015-.033-.054-.012-.04.003-.026.012-.016.023-.018.003-.02-.019-.051.005-.012.033-.01.087-.012.018-.009.007-.017-.005-.014-.014-.008-.056.002-.062.008-.02-.005-.01-.02.001-.031.006-.011.012-.003.036.004.03-.013.032-.025.043-.056.005-.016-.003-.031-.022-.072-.045-.094-.027-.045-.022-.038-.032-.048-.008-.021.004-.044.005-.023-.003-.026-.016-.029-.03-.039-.07-.069-.03-.032-.047-.047-.015-.006-.047.003-.02-.013-.022-.002-.034.005-.036-.012-.053-.025-.072-.024-.01-.009v-.012l.018-.011.128-.035.019-.015v-.02l-.01-.012-.022-.002-.155.042-.023.002-.016-.008-.022-.02-.02-.009-.033.004-.05.014-.053.004-.068-.005-.047.013-.061.03-.074.017-.052.02-.01.014-.01.036-.018.011-.055.012-.008.006-.007.035-.021.02-.002.026.001.016-.013.017-.06.026-.02.022-.038.055-.04.035-.095.07-.035.038-.025.044-.029.063-.013.037-.03.046-.005.013.003.026.021.043.01.031.025.03.012.028-.004.013-.01.006-.047-.01-.074-.02-.031-.002-.016.008-.007.013.005.014.039.015.127.04.012.01.004.019-.003.027.006.014.021.027-.002.017-.017.017-.067.032-.021.021-.015.041-.007.033-.012.01-.02-.004-.065-.03-.22-.123-.225-.147-.127-.09-.1-.083-.01-.02.002-.03.015-.04.012-.009.02.004.146.066h.022l.01-.014-.002-.023-.012-.014-.162-.078-.018-.018-.002-.01.004-.133-.008-.099.005-.018.016-.005.045-.003h.052l.122-.008.014-.006.011-.016-.001-.014-.013-.01-.03-.002-.215.007-.015-.006-.01-.016-.028-.1-.033-.078-.002-.014.005-.013.049-.033.321-.181.028-.025.002-.015-.008-.011H6.46l-.053.026-.258.152-.071.038-.021.004-.016-.01-.031-.049-.075-.093-.088-.082-.069-.052-.006-.011.008-.064.023-.137.008-.06.008-.019.006.006.044.183.034.096.056.104.054.068.043.045.012.008.01-.001.017-.06.031-.06.035-.097.035-.12.035-.075.025-.049.05-.125.02-.089.012-.09.007-.011.008.006.014.07.006.07.03.144.056.163.03.073.023.082.014.103.004.107-.006.07-.025.137-.075.267-.028.184-.001.06.008.065.02.06.025.055.032.04.038.033.043.022.034.008.06-.003.047-.016.045-.028.039-.041.028-.043.025-.067.015-.072v-.088l-.014-.125-.068-.38-.004-.043.002-.106.025-.112.05-.122.063-.13.054-.147.025-.107.018-.13.002-.135-.005-.041.003-.108.012-.069.015-.057.021-.043.04-.05.04-.036.068-.041.114-.043.126-.04.108-.051.081-.052.147-.111.077-.048.053-.021.039-.008.04.003.047.018.02.014.03.043.019.053.04.242.036.112.057.121.018.055.013.102v.084l-.014.116-.038.179-.021.07-.03.13-.012.094v.122l.014.078.028.072.03.051.039.043.05.037.045.017.032.006.058-.004.058-.017.036-.021.041-.037.032-.045.026-.057.019-.071.006-.054-.004-.095-.023-.154-.09-.413-.003-.039.002-.127.012-.074.017-.043.028-.045.037-.039.111-.087.052-.052.043-.063.026-.052.03-.094.026-.042.02-.017L8.97 11l.024.009.03.03.035.054.035.081.038.144.03.15.019.096.034.113.041.108.045.093.017.028.035.07.105.192.114.25.045.128.039.17.015.112.003.105-.012.052-.01.008h-.021l-.037-.017-.026-.025-.01-.024-.01-.047-.019-.024-.022-.012-.024.004-.066.04-.038.039-.046.028-.099.033-.053.036-.036.008-.04-.002-.021-.008-.015-.017-.02-.051-.002-.054.01-.056-.004-.024-.04-.035-.027-.01-.025-.004-.056.004-.056-.01-.034.003-.116.04-.046-.001-.015.01-.01.015h-.01l-.02-.044-.02-.049-.01-.012-.018-.002-.016.01-.005.02.052.155.005.031-.005.025-.034.045-.007.021.007.015.038.028.03.016.02.023.028.095.045.182.04.194-.002.063.008.02.014.02.024.11.048.31.012.11-.008.015-.038.01-.032.002Z"/>
      <path fill="#fff" d="m8.928 14.23-.017-.007-.005-.016-.008-.108.005-.003.028.025.025.008.07.005.036-.007.007.004-.002.016-.018.036.003.027-.017.009-.079.01-.028.002Zm.213-.023-.024-.004-.004-.013.01-.023.066-.103.018-.029.043-.047.038-.027.05-.026.015.001.015.01.006.015-.004.028-.017.031-.044.063-.04.067-.04.04-.073.015-.015.002Zm-.241-.136h-.006l-.015-.076-.043-.279-.014-.057.117-.028.064-.014.147-.035.027.004.023.023.006.023-.008.043.01.026.02.02.024.018.007.015-.012.03-.156.164-.035.062-.026.025-.037.013-.063.002-.02.008-.01.013Zm-2.055-.151-.052-.003-.042-.01-.034-.022-.07-.051-.03-.02-.11-.092-.021-.008-.067.01-.027-.01-.052-.043-.14-.13-.062-.07-.012-.02h.01l.133.092.051.038.236.161.105.06.138.076.051.027.005.008-.01.008Z"/>
      <path fill="#0067B1" d="M8.921 13.816 8.9 13.81l-.026-.023-.007-.02.003-.02.019-.02.029-.013.066-.013.04-.001.022.008.01.018-.008.038-.01.03-.016.007-.044-.007-.056.022Z"/>
      <path fill="#fff" d="m8.844 13.597-.027-.002-.013-.014-.04-.184-.036-.165.001-.02.02.002.04.008.03-.003.015-.007.02-.015h.022l.05.012.02.012.017.02.031.066.032.036.001.023-.002.032.01.023.025.023.016.05.023.026v.01l-.024.011-.119.03-.112.026Z"/>
      <path fill="#EF4135" d="m6.632 13.429-.032-.004-.031-.017-.02-.021-.017-.04-.006-.041.005-.089.023-.156.077-.391.004-.006.006.01.061.451.005.097-.002.099-.012.054-.02.031-.022.017-.02.006Z"/>
      <path fill="#fff" d="m6.065 13.37-.017-.005-.033-.034-.088-.116-.08-.12-.033-.051-.062-.096-.073-.133-.024-.065-.003-.03.012-.057.043-.13.032-.085.013-.038.014-.006.019.005.068.052.043.046.073.093.041.067.041.085.032.09.018.071.015.106.003.117-.009.096-.025.11-.012.025-.008.004Zm4.552-.32-.033-.004-.03-.007-.034-.004-.018-.016-.01-.019-.003-.015.01-.016.015-.006.03-.008.028-.031.028-.028.115-.086.012-.003.005.002-.002.016-.03.046-.043.044-.01.025.003.02.017.013.027.003.073-.02.027-.02.1-.116.005-.016.006-.026.021-.04.023-.017.025-.005.03-.003.012-.008.007-.019v-.051l.017-.03.05-.033.023-.019.054-.018.047-.032.016-.01.024-.006.06-.004.042-.013.015-.008.02.003.013.02.002.027-.017.021-.047.026-.043.018-.044.032-.084.122-.041.037-.026.013-.035.001h-.017l-.027.01-.04.04-.029.037-.051.08-.025.045-.018.022-.03.01-.044.01-.021-.007-.03-.02h-.023l-.03.02-.014.01-.038.008-.015.002Zm1.578-.054-.013-.005-.005-.02.002-.035.004-.042-.006-.025-.027-.03-.018-.017-.005-.014v-.024l.02-.041.02-.03.006-.037-.005-.033-.021-.043-.026-.024.001-.04.035-.094.008-.041-.008-.018-.018-.018-.046-.034-.019-.024v-.018l.017-.031.043-.074.03-.068-.002-.029-.012-.009-.013.005-.03.051-.03.056-.044.063-.018.012h-.016l-.04-.024-.041-.006-.018-.01-.011-.026-.024-.11-.008-.061-.002-.114.013-.104.034-.12.049-.143.012-.054.006-.114.01-.04.03-.051.032-.026.025-.008.028.004.027.015.021.026.024.044.024.078.008.055v.134l-.01.142-.011.071-.003.073.02.191.016.077.027.094.03.158.014.145.002.16-.008.137-.008.027-.058.098-.014.013Zm-2.113-.004-.02-.006-.047-.033-.032-.025-.019-.003-.047.015-.046-.002-.011-.008-.008-.031-.001-.079.009-.027.014-.008.053.004.028-.002.039.008.018.015.045.08.02.04.017.034v.018l-.011.01Zm.098-.032h-.021l-.017-.02-.086-.153-.01-.028.006-.03.017-.03.025-.02.027-.004.047.002.023-.01.052-.082.032-.03.01-.004.054.002.011-.008.005-.017-.015-.023-.033-.02-.028-.007-.034.004-.035.007-.046-.002-.044-.018-.022.002-.03.02-.038.035-.032.022-.058.003-.01-.005-.006-.028-.015-.013-.003-.008.003-.023.11-.234.066-.164.041-.138.02-.095.022-.15.016-.29.008-.23.017-.088.02-.07.036-.078.04-.053.044-.036.05-.024.056-.014h.058l.053.01.058.021.069.045.05.052.055.086.092.17.047.071.043.05.083.073.091.067.164.093.122.08.059.056.047.067.036.08.01.054.007.112-.012.12-.01.053-.009.01h-.012l-.032-.002-.022.002-.032-.002-.087.021-.014-.003-.001-.015.026-.036.113-.146.052-.076.008-.023-.004-.029-.013-.007-.014.01-.067.084-.121.159-.033.03h-.02l-.03-.026-.225-.229-.252-.278-.028-.036-.142-.174-.018-.036.003-.016.027-.027.082-.07.094-.085.01-.021-.007-.021-.014-.004-.013.008-.134.116-.069.052-.023.005-.013-.007-.073-.09-.06-.08-.035-.05-.044-.066-.012-.02-.012-.015-.013-.002-.012.01-.005.014.003.022.023.04.177.24.023.029.007.018-.018.023-.159.131-.11.085-.014.022v.023l.005.006.018-.001.034-.023.137-.107.074-.06.05-.035.019-.007.014.005.034.04.138.17.039.044.104.12.305.332.015.014.053.054.006.015-.005.008-.123.03-.029.002-.034-.009-.051-.001-.028-.013-.03-.021-.018-.006-.035.004-.075.028-.036.02-.017.018-.069.089-.026.019-.032.018-.032.036-.013.028-.008.031.004.036.013.025.02.018.02.005.098-.006.012.005.005.016-.028.09-.003.05-.015.018-.09.071-.015.006-.022-.003-.054-.021-.053-.012-.038.001-.027.013-.022.03-.05.097-.016.017-.021.003-.041-.015-.023.004-.048.025-.02.008Z"/>
      <path fill="#0067B1" d="m6.893 12.914-.034-.001-.015-.009-.005-.015.008-.014.035-.01.2-.021.22-.037.011-.008.002-.02-.025-.078-.074-.188-.075-.16-.047-.093-.05-.112-.014-.013-.013-.002-.027.007-.012-.005-.002-.015.013-.021.014-.018.001-.018-.002-.024.008-.014.015-.002.029.027.023-.004.144-.083.114-.061.336-.196.263-.153.034-.026.005-.017-.011-.035-.052-.093-.092-.143-.03-.049-.052-.08-.007-.022.003-.015.011-.008.014.003.03.036.1.143.096.161.03.057.02.019.02-.003.087-.048.025-.003.012.014-.001.02-.014.015-.075.046-.015.017-.003.023.016.037.111.207.026.058.005.027-.01.018-.009.005-.013-.007-.028-.044-.124-.244-.028-.04L8 11.578l-.057.026-.077.047-.056.03-.027.02-.024.009-.282.163-.38.214-.012.013.002.023.096.191.059.13.046.113.076.218v.019l-.021.025-.01.03-.024.009-.256.038-.16.017Z"/>
      <path fill="#fff" d="m7.422 12.883-.018-.003-.005-.012.003-.014.012-.008.023-.006.026.001.006.008-.003.013-.029.015-.015.006Z"/>
      <path fill="#0067B1" d="m8.71 12.467-.013-.006-.004-.02.008-.015.045-.02.086-.033.227-.099.226-.11.09-.049h.017l.01.012.003.015-.009.014-.057.034-.274.134-.194.086-.143.054-.017.003Z"/>
      <path fill="#fff" d="m7.323 10.404-.018-.01-.005-.014-.003-.633.006-.016.021-.008h.42l.017.008.008.027-.001.09-.007.018-.014.008h-.256l-.027.008-.007.022v.054l.008.016.026.008h.198l.016.008.007.018v.105l-.005.018-.014.008-.206.002-.022.008-.008.02.002.065.008.014.018.005h.257l.024.008.007.01v.112l-.007.013-.014.006-.429.002Zm2.378-.008-.122-.002-.015-.007-.008-.018-.001-.479-.007-.017-.017-.007-.14-.003-.016-.01-.005-.02v-.096l.005-.012.025-.008.487-.002.029.008.008.01v.11l-.012.017-.022.006-.141.002-.016.008-.006.016-.002.48-.007.017-.017.007Zm.472-.002h-.093l-.018-.008-.007-.02-.002-.622.003-.019.012-.008h.113l.02.008.008.02v.19l.007.029.014.009.234.001.024-.008.007-.02.002-.213.007-.01.02-.008h.106l.018.008.009.015.002.623-.007.022-.013.008-.121-.002-.012-.008-.006-.023v-.196l-.006-.023-.016-.008h-.252l-.009.01-.005.025.002.202-.006.014-.018.01-.017.002Z"/>
      <path fill="#fff" fill-rule="evenodd" d="m7.915 10.394-.004-.007.209-.643.014-.021.014-.006.166.002.022.008.013.018.257.63-.003.016-.015.008-.119.001-.035-.008-.013-.016-.035-.106-.017-.011h-.234l-.022.01-.033.105-.01.016-.03.01h-.11l-.014-.006Zm.399-.31-.003-.017-.072-.192h-.007l-.062.189-.007.018.012.009h.128l.011-.007Zm.807.304-.136-.195-.02-.016-.08.002-.005.006-.004.017.002.164-.005.018-.02.01h-.114l-.016-.008-.007-.017-.003-.626.009-.02.018-.006h.322l.06.01.044.017.04.028.035.04.024.052.008.04-.005.064-.01.038-.021.041-.037.046-.04.032-.003.012.15.24-.003.011-.016.006-.147.002-.02-.008Zm-.069-.38.023-.019.012-.021.004-.036-.011-.033-.03-.023-.042-.01-.11-.002-.017.008-.005.016V10l.006.014.02.008h.11l.013-.002.027-.01Z" clip-rule="evenodd"/>
      <path fill="#fff" d="m8.674 9.536-.018-.008-.006-.018-.002-.62.007-.018.014-.006h.108l.023.007.007.014.001.2.007.022.016.008h.226l.018-.005.009-.016V8.9l.002-.02.01-.01.016-.004h.11l.023.008.007.026.001.606-.008.023-.022.008-.117-.001-.015-.008-.006-.016-.001-.21-.009-.014-.026-.006h-.214l-.015.006-.008.018v.2l-.008.023-.027.008h-.103Zm-.356.002H8.2l-.018-.008-.006-.014-.001-.477-.008-.019-.024-.008h-.15l-.014-.01-.005-.027v-.08l.008-.017L8 8.87l.522-.002.02.005.008.019v.11l-.018.013-.028.003-.142-.002-.014.006-.006.011v.482l-.006.013-.018.01Zm1.583-.006-.404.001-.023-.008-.007-.021-.002-.617.007-.016.02-.008h.405l.025.008.008.015-.002.103-.007.015-.017.009H9.66l-.022.009-.006.011v.047l.005.024.011.007.023.004.185-.002.02.008.008.017v.112l-.01.015-.02.007h-.196l-.018.008-.006.018.002.057.01.013.012.003h.259l.02.008.006.016v.12l-.014.013-.028.004ZM7.558 8.74l-.073-.003-.07-.015-.048-.02L7.3 8.66l-.045-.044-.037-.055-.028-.071-.014-.066-.003-.063.01-.067.022-.066.028-.053.035-.045.051-.045.051-.03.071-.024.056-.01.056-.002.094.01.08.023.03.018.01.014.004.017v.12l-.009.014-.012.003-.083-.041-.073-.017-.054-.002-.054.008-.047.022-.034.023-.03.036-.02.043-.011.051.001.05.013.05.028.046.036.034.04.024.057.017.064.003.06-.01.049-.021.047-.03.016-.01.01.002.006.012.001.114-.008.025-.023.023-.048.023-.078.021-.056.007Zm1.486-.05-.174-.001-.014-.006-.01-.018-.199-.599-.003-.03.007-.009.034-.008.092.002.02.006.013.024.134.442.01.012h.014l.004-.01.136-.434.017-.032.024-.013h.096l.028.009.005.011-.007.035-.202.606-.012.009-.013.003Zm.392-.006L9.42 8.68l-.014-.02v-.621l.006-.014.012-.009.019-.003.405-.002.022.008.006.013v.1l-.008.024-.02.008-.254.001-.012.008-.005.017v.059l.005.017.022.008.2.001.025.008.008.018v.11l-.01.008-.02.003h-.208l-.015.006-.01.013.002.065.008.02.016.006.266.002.015.009.006.018v.1l-.008.016-.016.006-.427.002Z"/>
      <path fill="#fff" fill-rule="evenodd" d="m8.161 8.715-.056-.01-.06-.026L8 8.649 7.947 8.6l-.043-.064-.028-.067-.012-.066V8.31l.016-.068.024-.057.048-.067.051-.047.046-.029.054-.021.088-.017.084.003.07.016.074.033.064.051.039.049.02.036.023.065.012.069v.069l-.012.074-.024.06-.039.063-.036.038-.047.033-.058.028-.067.019-.057.008-.076-.002Zm.152-.168.033-.021.034-.039.021-.045.012-.055V8.33l-.014-.056-.03-.05-.041-.038-.044-.024-.054-.01-.043.002-.05.015-.042.026-.034.036-.026.046-.012.056.003.067.014.047.028.049.036.032.038.021.056.016.052.001.01-.002.053-.017Zm2.164.13-.022-.009-.096-.163-.019-.024-.025-.008h-.062l-.018.008-.008.015v.16l-.008.014-.014.006H10.1l-.022-.008-.007-.014v-.632l.012-.01.024-.004h.288l.077.01.037.01.042.027.032.033.022.04.017.057.005.044-.003.05-.017.05-.022.035-.03.03-.043.033-.002.013.12.203.007.022-.008.01-.014.003-.138-.001Zm-.112-.357.036-.01.027-.02.015-.026.006-.04-.01-.03-.018-.019-.026-.013h-.15l-.016.008-.005.014v.108l.006.02.016.008h.119Z" clip-rule="evenodd"/>
      <path fill="#EF4135" d="m7.218 7.542-.055-.003-.054-.018-.043-.033-.02-.028-.016-.038-.015-.065.002-.065.017-.082.022-.052.06-.1.064-.07.04-.037.118-.084.137-.073.138-.056.196-.048.102-.014.142-.005.117.013.095.019.096.028.107.047.075.044.1.075.077.078.04.057.002.01-.02-.01-.073-.051-.112-.056-.105-.037-.097-.02-.12-.016-.117.003-.115.02-.1.03-.099.048-.087.054-.054.047-.069.077-.088.134-.083.146-.056.063-.047.034-.055.024-.047.01Zm3.485-.056-.054-.001-.047-.013-.063-.041-.16-.142-.112-.099-.058-.046-.052-.042-.123-.084-.077-.041-.124-.052-.107-.024-.104-.012-.07.002-.084.017-.106.034-.023.009-.007-.003.019-.02.047-.033.11-.058.098-.041.152-.041.092-.017.095-.01.165.004.121.014.126.028.091.035.082.039.077.049.103.086.063.069.045.075.024.059.014.057.002.062-.01.053-.017.041-.032.043-.043.028-.053.016Z"/>
      <path fill="#0067B1" d="m9.538 7.438-.016-.003-.017-.023-.027-.05-.035-.047-.037-.033-.058-.03-.047-.012-.043-.002-.052.008-.011-.003-.004-.016.008-.016.031-.026.049-.023.039-.01.05-.003.055.013.04.025.03.03.022.034.013.046.013.131-.003.01Z"/>
      <path fill="#EF4135" d="m8.764 6.9-.022-.017-.065-.064-.097-.08-.098-.069-.11-.053-.103-.037-.132-.032-.094-.013-.05-.004-.125.002-.121.019-.152.04-.145.056-.058.012-.048-.003-.042-.015-.029-.024-.015-.024-.01-.042.008-.057.021-.054.033-.046.042-.037.06-.041.066-.032.088-.028.106-.023.06-.007.127.002.13.023.113.04.157.077.123.08.105.08.119.115.066.08.071.112.023.048.001.01-.003.006Zm.504-.039-.005-.003.02-.047.075-.106.144-.155.105-.084.128-.084.14-.073.137-.05.105-.02.052-.007.107.002.064.012.045.02.043.027.03.03.021.039.009.034-.002.04-.02.045-.03.039-.05.027-.08.024-.081.008-.33.02-.121.018-.083.022-.11.036-.081.035-.119.067-.103.079-.01.005Zm-.051-.117-.005-.003.002-.03.032-.133.043-.137.07-.155.077-.142.051-.073.093-.103.04-.04.067-.051.069-.043.085-.035.052-.012.078.002.044.015.038.03.022.026.013.042.003.045-.012.038-.028.042-.05.048-.077.05-.114.057-.102.05-.075.05-.15.112-.093.09-.06.076-.067.106-.037.068-.01.01ZM8.78 6.74l-.014-.013-.07-.11-.054-.071-.101-.106-.131-.107-.146-.093-.241-.13-.059-.043-.036-.04-.026-.05-.01-.036.001-.048.02-.044.027-.027.034-.02.036-.01.052-.002.07.014.089.044.085.053.117.103.088.096.097.131.058.1.045.104.039.122.03.126.004.047-.005.01Z"/>
      <path fill="#fff" d="m8.497 4.947-.018-.004-.028-.027-.021-.03-.006-.021.001-.038.011-.05.067-.155.086-.148.145-.21.167-.197.074-.079.103-.103.164-.142.227-.172.164-.102.17-.094.136-.059.09-.018.033.006.036.03.013.022-.002.014-.016.015-.156.07-.157.088-.084.055-.04.027-.165.118-.045.038-.135.111-.181.162-.151.166-.04.046-.07.083-.131.177-.093.142-.106.191-.03.074-.012.014Z"/>
      <path fill="#fff" d="m8.269 4.832-.028-.001-.022-.018-.133-.148.018-.077-.002-.032-.011-.022-.069-.08-.127-.142-.3-.323-.318-.345-.12-.136-.041-.042-.024-.036-.005-.03.01-.063.034-.12.056-.139.069-.138.067-.117.069-.104.148-.196.093-.101.114-.11.081-.07.12-.092.174-.11.182-.095.146-.06.114-.039.067-.014.064-.002.036.01.025.02.123.133.037.042.123.138.07.078.299.325.061.063.036.043.278.297.024.015.024.003.053-.01.033.002.022.015.045.049.027.034.03.034.003.02-.012.03-.022.054-.019.009-.085.026-.187.084-.114.063-.273.18-.135.109-.178.159-.152.153-.11.13-.07.09-.11.151-.11.177-.057.104-.034.078-.022.068-.008.007-.025.006-.03.004-.022.01ZM7.987 4.8l-.014-.007-.047-.05L7.9 4.71l-.104-.15-.074-.116-.054-.099-.015-.041-.001-.008.018.006.095.093.155.177.03.048.005.027-.011.064.009.03.033.05v.01Z"/>
      <path fill="#EF4135" d="m8.183 4.298-.05-.001-.055-.015-.06-.033-.06-.047-.077-.082-.09-.118-.063-.104-.033-.082-.02-.07-.005-.067.007-.06.018-.07.042-.087-.001-.021-.037-.058-.083-.108-.042-.06-.081-.106-.016-.033.005-.026.035-.06.03-.042.018-.004.013.008.101.124.47.61.134.18.073.092.054.071.005.017-.001.02-.062.105-.048.059-.038.032-.042.024-.041.012Z"/>
      <path fill="#fff" d="m8.16 4.08-.038-.001-.045-.02-.044-.034-.053-.059-.082-.114-.032-.06-.02-.06-.004-.02.002-.04.01-.033.01-.01h.016l.023.025.276.354.017.032-.002.014-.014.016-.02.01Z"/>
      <path fill="#EF4135" d="m8.458 3.994-.015-.008-.158-.283-.174-.3-.213-.389-.16-.3-.003-.022.014-.029.045-.054.021-.02.022-.019.018-.005.018.01.056.054.035.036.42.44.072.07.007.002-.004-.015-.114-.182-.31-.472-.032-.058v-.023l.024-.03.077-.057.034-.014.015.003.071.058.041.04.627.6.257.244.014.022-.004.018-.04.032-.073.048-.02.005-.021-.01-.039-.038-.13-.133-.062-.061-.051-.056-.04-.04-.206-.217-.114-.124-.024-.013.007.02.032.055.122.192.147.237.069.103.06.097.08.123.005.023-.01.02-.095.089-.015.008-.017-.004-.032-.03-.176-.186-.103-.114-.324-.336-.017-.01-.002.007.02.042.214.36.248.44.01.032-.012.022-.071.088-.02.012Z"/>
      <path fill="#fff" d="m7.011 3.337-.016-.006-.034-.04-.01-.026.002-.047.01-.052.043-.125.054-.122.082-.146.132-.196.031-.046.066-.077.05-.062.022-.022.117-.125.056-.054.046-.04.061-.052.155-.115.159-.097.156-.084.148-.064.123-.039.08-.014h.037l.02.01.041.04.007.016-.006.008-.124.024-.145.05-.188.088-.134.073-.187.125-.136.11-.096.086-.101.108-.14.172-.093.13-.11.178-.082.162-.045.116-.042.144-.009.01Z"/>
      <path fill="#EF4135" d="m9.27 3.202-.065-.01-.057-.021-.057-.035-.118-.103-.041-.047-.006-.014.008-.014.031-.022.077-.04.02-.002.017.01.04.038.036.035.047.03.046.011.024-.005L9.29 3l.008-.026-.012-.033-.036-.042-.04-.035-.087-.054-.111-.054-.195-.082-.18-.089-.104-.07-.056-.056-.043-.058-.024-.058-.01-.054.004-.05.013-.043.028-.043.038-.035.046-.021.065-.014h.07l.053.012.075.03.098.065.073.066.016.026-.007.017-.049.028-.062.026-.021.001-.027-.016-.052-.047-.053-.03-.047-.013-.032.006-.018.017-.009.023.002.026.015.028.038.04.074.049.084.045.04.015.02.007.02.012.198.083.104.052.102.062.065.052.047.05.041.058.022.047.015.058.001.046-.008.04-.021.04-.032.038-.043.03-.051.021-.039.008-.026.002Z"/>
      <path fill="#fff" d="m10.033 2.865-.02-.015-.041-.036-.027-.012-.031.004-.023.007-.025-.004-.043-.039-.09-.098-.164-.173-.008-.018.023.004.11.066.144.106.116.103.075.084.007.017-.003.004Z"/>
    </g>
  </g>
  <defs>
    <clipPath id="a">
      <path fill="#fff" d="M0 0h18v18H0z"/>
    </clipPath>
    <clipPath id="b">
      <path fill="#fff" d="M5.103 1.5h7.793v15H5.103z"/>
    </clipPath>
  </defs>
</svg>
