<svg xmlns="http://www.w3.org/2000/svg" viewBox="0 0 18 18">
  <g clip-path="url(#a)">
    <path fill="#232F67" d="M0 0h18v18H0V0Z"/>
    <path fill="#F99F1C" fill-rule="evenodd" d="M8.178 13.607h-.824l1.662-2.623s.25-.544-.076-1.119L6.623 6.028s-.203-.356 0-.697l.685-1.027 2.72 4.443s.7.93-.062 2.083l-1.788 2.777Zm1.988-.804 1.01-1.54s.295-.635 1.058-.635h1.072l.747 1.18s-.59-.062-.854.36l-1.103 1.66s-.36.778-1.322.778H5.58l1.977-3.033s.28-.356-.111-.945L5.688 7.8s-.433-.417.015-1.134l.514-.777L8.66 9.85s.433.544 0 1.195l-1.835 2.86h3.869s.436.082.811-.478l.962-1.478s.218-.498.7-.7h-.777s-.406.014-.716.497l-.854 1.32s-.31.56-.995.56H8.472l1.632-2.531s.889-1.168.264-2.24L7.664 4.38s-.203-.387.03-.747l.59-.884 3.08 4.96s.451.743.451 1.317-.36 1.226-.56 1.555L9.9 12.696s-.153.203-.046.28c.111.076.218-.062.31-.173h.002Z" clip-rule="evenodd"/>
  </g>
  <defs>
    <clipPath id="a">
      <path fill="#fff" d="M0 0h18v18H0z"/>
    </clipPath>
  </defs>
</svg>
