<svg xmlns="http://www.w3.org/2000/svg" viewBox="0 0 18 18">
  <g clip-path="url(#a)">
    <path fill="#25317B" d="M0 0h18v18H0V0Z"/>
    <path fill="#fff" d="M11.122 4h.116a1.457 1.457 0 0 1 1.393 1.354c.029.385-.096.782-.358 1.068-.082.097-.19.169-.274.264-.18.2-.314.448-.355.716-.038.24.009.487.113.705.133.278.344.51.574.71.366.34.498.897.351 1.371-.07.228-.209.434-.392.586-.17.139-.308.319-.392.522a.999.999 0 0 0-.05.613c.07.303.268.559.49.77.19.188.312.448.323.717a1.065 1.065 0 0 1-1.003 1.104h-.097a1.065 1.065 0 0 1-.997-.87c-.016-.085-.016-.171-.031-.256a1.533 1.533 0 0 0-.278-.713.999.999 0 0 0-.458-.332 1.361 1.361 0 0 0-.652-.055 1.316 1.316 0 0 1-1.574-1.163 2.508 2.508 0 0 0-.132-.734 1.304 1.304 0 0 0-.426-.608 1.294 1.294 0 0 0-.668-.25 1.234 1.234 0 0 0-.207.864c.052.35.259.656.503.905.089.095.197.172.28.274a1.318 1.318 0 0 1 .138 1.51 1.325 1.325 0 0 1-1.743.524 1.322 1.322 0 0 1-.337-2.118 2.03 2.03 0 0 0 .43-.758 1.18 1.18 0 0 0-.004-.67 1.478 1.478 0 0 0-.447-.658c-.058-.054-.13-.09-.191-.139a1.465 1.465 0 0 1-.564-1.094v-.125a1.462 1.462 0 0 1 1.161-1.362 1.462 1.462 0 0 1 1.749 1.639c-.006.2.036.4.112.583.097.23.266.43.481.556.271.161.592.216.903.217.14.004.278-.02.416-.001.366.036.711.237.928.534.18.246.27.556.25.86-.033.324.047.67.258.925.154.188.379.307.613.363.126-.251.181-.549.097-.821a1.258 1.258 0 0 0-.399-.586c-.074-.066-.163-.112-.235-.18-.31-.274-.473-.7-.434-1.11.02-.242.111-.475.257-.668.055-.074.122-.136.178-.21.17-.212.314-.451.383-.717a1.174 1.174 0 0 0-.047-.751 1.551 1.551 0 0 0-.578-.683A1.46 1.46 0 0 1 11.122 4Z"/>
  </g>
  <defs>
    <clipPath id="a">
      <path fill="#fff" d="M0 0h18v18H0z"/>
    </clipPath>
  </defs>
</svg>
