<svg xmlns="http://www.w3.org/2000/svg" viewBox="0 0 18 18">
  <g clip-path="url(#a)">
    <path fill="#012475" d="M0 0h18v18H0V0Z"/>
    <path fill="#33BBED" d="M7.801 13.162c-.546.16-.996.16-1.35.032C4.78 12.55 3.398 11.04 3.27 9.722c-.064-.771.257-1.382.964-1.832.225-.16.515-.289.772-.418.418-.192.868-.353 1.382-.514a.939.939 0 0 1 .29-.064c1.574-.418 3.31-.547 4.885-.322.642.097 1.253.225 1.8.418.064.032.128.032.16.065a.468.468 0 0 1 .29.192c.257.258.096.772-.097 1.158-.771 1.639-3.31 3.857-5.335 4.628-.065.032-.097.032-.161.064-.129 0-.29.032-.418.065Z"/>
    <path fill="#BFD530" d="M6.548 6.282c1.639-.45 3.47-.546 5.11-.354.675.097 1.286.226 1.864.45a.7.7 0 0 0-.16-.257 5.805 5.805 0 0 0-1.061-.835C11.079 4.514 9.472 4 8.122 4c-.192 0-.417 0-.578.032C6.323 4.192 6 5.254 6.29 6.378c.065-.064.161-.064.258-.096Z"/>
    <path fill="#92C5EB" d="M6.708 6.83c-.064.032-.16.032-.257.064.193.418.45.836.771 1.157.258.257.708.418 1.222.45 1.671.129 4.243-.707 4.917-1.607-.546-.193-1.157-.321-1.8-.418-1.542-.193-3.278-.064-4.853.354Z"/>
    <path fill="#466AA6" d="M13.747 8.34c.032-.064.065-.16.097-.224-.032 0-.032-.032-.065-.032-.096-.033-.192-.065-.321-.033a6.802 6.802 0 0 0-1.318.258c-1.382.417-2.796 1.35-3.664 2.378-.129.16-.257.321-.354.482-.45.707-.289 1.382.161 1.864.032 0 .097-.032.129-.032 1.992-.835 4.532-3.053 5.335-4.66Z"/>
    <path fill="#F58720" d="M8.797 13.45c.611.386 1.447.58 2.25.547.386-.032.772-.257 1.125-.643 1.093-1.093 2.057-3.342 1.961-4.532-.9 1.672-3.31 3.729-5.336 4.629Z"/>
  </g>
  <defs>
    <clipPath id="a">
      <path fill="#fff" d="M0 0h18v18H0z"/>
    </clipPath>
  </defs>
</svg>
