<svg xmlns="http://www.w3.org/2000/svg" viewBox="0 0 18 18">
  <g clip-path="url(#a)">
    <path fill="#fff" d="M0 0h18v18H0V0Z"/>
    <path fill="#00538E" d="M14.15 6.874C13.338 4.89 11.416 3.522 9 3.522c-2.322 0-4.219 1.322-5.03 3.244l2.908 1.118c.073-.168.256-.677.473-1.012.405-.41.601-.568.598 1.007l.094.91.957.344 1.113-.329.057-.766c.01-.325.083-.655.084-.948.003-.464.055-.62.377-.293.119.107.296.272.491.523.097.139.18.317.264.561l2.764-1.007Z"/>
    <path fill="#EF3E42" d="M9 14.458c3.081 0 5.472-2.444 5.5-5.48a6.42 6.42 0 0 0-.188-1.634l-2.866 1.011c.063.356.065.817.042 1.13-.167 1.076-.429 1.515-.648 1.797-.407.524-.586.251-.586-.083 0-.335-.125-1.893-.125-1.893l-1.13.326-.982-.305c-.073.596-.063 1.778-.063 1.778-.041.46-.17.444-.17.444-.3 0-.717-.482-.909-1.043-.3-.874-.277-1.562-.122-2.153l-2.964-1.09C3.505 7.96 3.5 8.772 3.5 8.978a5.5 5.5 0 0 0 11 0"/>
  </g>
  <defs>
    <clipPath id="a">
      <path fill="#fff" d="M0 0h18v18H0z"/>
    </clipPath>
  </defs>
</svg>
