<svg xmlns="http://www.w3.org/2000/svg" viewBox="0 0 18 18">
  <g clip-path="url(#a)">
    <path fill="#fff" d="M0 0h18v18H0V0Z"/>
    <path fill="#81BE41" d="M5.167 4.447c.24-.503.862-.698 1.385-.644.682.093 1.36.227 2.041.328.252.043.539.11.68.345.115.162.127.365.11.556l.033-.187c.366 1.321.745 2.636 1.11 3.957-1.52-.51-3.036-1.028-4.557-1.533-.48-.173-1.01-.309-1.518-.174a.553.553 0 0 0-.303.215h-.041c.39-.939.691-1.914 1.06-2.863Z"/>
    <path fill="#023C5B" d="M9.635 5.009c-.083-.035-.186-.097-.17-.201.452.085.907.152 1.36.23.6.08 1.153.478 1.419 1.024.524 1.034 1.052 2.066 1.574 3.101.194.373.238.822.108 1.222-.085.24-.271.421-.43.613l-2.264 2.671c-.452.543-1.314.71-1.921.334-1.463-.865-2.93-1.727-4.393-2.591-.735-.431-1.12-1.418-.81-2.223.149-.404.293-.809.44-1.212.052-.184.236-.28.412-.31a2.446 2.446 0 0 1 1.183.1c1.603.529 3.199 1.077 4.8 1.612-.366-1.293-.728-2.587-1.094-3.879a1.686 1.686 0 0 0-.214-.491Z"/>
  </g>
  <defs>
    <clipPath id="a">
      <path fill="#fff" d="M0 0h18v18H0z"/>
    </clipPath>
  </defs>
</svg>
