<svg xmlns="http://www.w3.org/2000/svg" viewBox="0 0 18 18">
  <g clip-path="url(#a)">
    <path fill="#001E50" d="M0 0h18v18H0V0Z"/>
    <path fill="#fff" fill-rule="evenodd" d="M3.002 8.998a5.986 5.986 0 0 1 6-5.999 5.986 5.986 0 0 1 5.998 6 5.986 5.986 0 0 1-5.999 5.998 5.986 5.986 0 0 1-5.999-5.999ZM9.073 7.69l1.704-3.84a5.117 5.117 0 0 0-1.776-.311c-.624 0-1.224.108-1.775.312l1.703 3.84c.024.035.036.071.072.071s.048-.024.072-.072Zm-1.74 3.948 1.008-2.376c.036-.084.084-.096.156-.096h.96c.072 0 .12.012.156.096l1.044 2.376c.024.036.036.072.072.072s.06-.036.072-.072l2.784-5.567a5.621 5.621 0 0 0-1.956-1.836L9.637 8.662c-.036.084-.084.096-.156.096h-.96c-.06 0-.12-.024-.144-.096L6.386 4.235A5.521 5.521 0 0 0 4.43 6.07l2.76 5.567c.024.036.036.072.072.072s.06-.036.072-.072Zm7.127-2.64a5.33 5.33 0 0 0-.348-1.908l-3.179 6.395c-.036.084-.096.156-.192.156s-.156-.072-.192-.156L9.085 10.21c-.024-.036-.036-.072-.072-.072s-.06.036-.072.072l-1.464 3.275c-.035.084-.095.156-.191.156s-.156-.072-.192-.156L3.914 7.09a5.328 5.328 0 0 0-.348 1.908c0 2.988 2.448 5.447 5.435 5.447 2.988 0 5.435-2.46 5.46-5.447Z" clip-rule="evenodd"/>
  </g>
  <defs>
    <clipPath id="a">
      <path fill="#fff" d="M0 0h18v18H0z"/>
    </clipPath>
  </defs>
</svg>
