<svg xmlns="http://www.w3.org/2000/svg" viewBox="0 0 18 18">
  <g clip-path="url(#a)">
    <path fill="#fff" d="M0 0h18v18H0V0Z"/>
    <path fill="#2A4C87" d="M13.182 7.819c.08.289.386.466.675.385a.554.554 0 0 0 .385-.674.554.554 0 0 0-.674-.386c-.29.065-.466.37-.386.675Zm-.754.578a.39.39 0 0 0 .273-.465.39.39 0 0 0-.466-.273.39.39 0 0 0-.273.465.366.366 0 0 0 .466.273Zm-1.108.193c.144-.048.24-.192.192-.337-.048-.144-.192-.24-.337-.193-.144.049-.24.193-.193.338.033.144.193.24.338.192Z"/>
    <path fill="#2E4E88" d="M10.453 8.736a.188.188 0 0 0 .128-.209c-.016-.096-.128-.145-.209-.128a.188.188 0 0 0-.128.208c.016.08.112.145.209.129Z"/>
    <path fill="#1F3D70" d="M12.765 6.695a.52.52 0 0 0 .69.192.52.52 0 0 0 .193-.69.52.52 0 0 0-.69-.193c-.241.129-.322.45-.193.69Zm-1.108.627c.096.176.305.224.482.128.176-.096.225-.305.128-.482-.096-.176-.305-.225-.482-.128-.16.096-.225.321-.128.482Zm-.787.177c-.128.064-.16.225-.096.337.064.129.225.16.337.096.128-.064.16-.224.096-.337-.064-.128-.225-.16-.337-.096Zm-.707.514c-.08.048-.112.144-.064.225.048.08.145.112.225.064.08-.048.112-.145.064-.225-.048-.08-.16-.112-.225-.064Z"/>
    <path fill="#194C88" d="M12.717 5.7a.456.456 0 0 0 0-.642.456.456 0 0 0-.643 0 .456.456 0 0 0 0 .643.456.456 0 0 0 .643 0Zm-1.108.466a.33.33 0 1 0-.466.466.33.33 0 0 0 .466-.466Zm-1.189.867c-.096.097-.096.241 0 .321.097.097.241.097.322 0 .096-.096.096-.24 0-.32-.08-.097-.225-.097-.322 0Zm-.562.867c.065.065.16.065.21 0 .063-.064.063-.16 0-.208-.065-.064-.162-.064-.21 0-.048.064-.048.16 0 .208Z"/>
    <path fill="#3468A3" d="M11.127 4.946a.42.42 0 0 0 .578-.16.42.42 0 0 0-.16-.579.42.42 0 0 0-.579.16c-.128.193-.048.45.16.579Zm-.771.722a.31.31 0 0 0 .113.418.31.31 0 0 0 .417-.113.31.31 0 0 0-.112-.417.293.293 0 0 0-.418.112Zm-.209.93c-.096-.048-.224-.016-.273.08-.048.097-.016.225.08.274.097.048.226.016.274-.08.048-.081.016-.21-.08-.274Zm-.465.819a.153.153 0 0 0-.193.049.153.153 0 0 0 .048.192c.064.048.145.016.193-.048.048-.08.016-.16-.048-.193Z"/>
    <path fill="#4C8DCB" d="M9.987 4.447a.403.403 0 0 0 .498-.289.403.403 0 0 0-.29-.498.416.416 0 0 0-.497.29.421.421 0 0 0 .289.497ZM9.65 5.716a.267.267 0 0 0 .337-.192.267.267 0 0 0-.193-.338.267.267 0 0 0-.337.193.288.288 0 0 0 .193.337Zm-.257.995c.096.032.208-.032.224-.128.033-.097-.032-.209-.128-.225-.096-.032-.209.032-.225.128-.032.097.016.193.129.225Zm-.306.627c-.016.064.017.144.097.16.064.016.144-.016.16-.096.016-.064-.016-.145-.096-.16a.142.142 0 0 0-.16.096Z"/>
    <path fill="#3498B3" d="M8.766 4.255a.39.39 0 0 0 .386-.386.377.377 0 0 0-.386-.369.39.39 0 0 0-.385.385c.016.21.193.37.385.37Zm0 .819a.254.254 0 0 0-.257.257c0 .145.113.257.257.257a.254.254 0 0 0 .257-.257.254.254 0 0 0-.257-.257Zm.177 1.366a.178.178 0 0 0-.177-.177.178.178 0 0 0-.176.176c0 .097.08.177.176.177.113 0 .177-.08.177-.177Zm-.177.753a.11.11 0 0 0-.112.113.11.11 0 0 0 .112.112.11.11 0 0 0 .113-.112c.016-.064-.048-.113-.113-.113Z"/>
    <path fill="#0AA496" d="M7.546 4.399a.333.333 0 0 0 .24-.434.333.333 0 0 0-.433-.24c-.193.063-.305.24-.24.433.047.176.24.289.433.24Zm.064 1.109a.22.22 0 0 0 .273.16.22.22 0 0 0 .16-.273.22.22 0 0 0-.272-.16c-.129.032-.193.144-.16.273Zm.337 1.059a.143.143 0 0 0 .193.112.143.143 0 0 0 .112-.192.143.143 0 0 0-.192-.113c-.08.016-.129.113-.113.193Zm.289.835c.016.048.065.08.129.064.048-.016.08-.064.064-.128-.016-.048-.064-.08-.128-.064-.049.016-.08.064-.065.128Z"/>
    <path fill="#00AA75" d="M6.39 4.865a.34.34 0 0 0 .128-.45c-.08-.16-.289-.208-.45-.128a.34.34 0 0 0-.128.45c.08.16.289.209.45.128Zm.642 1.125c.096-.048.128-.177.08-.273-.048-.097-.176-.129-.273-.08-.096.048-.128.176-.08.272.064.097.177.129.273.08Zm.546.93c.08-.047.096-.128.048-.208-.048-.08-.128-.096-.209-.048-.08.048-.096.128-.048.209.032.064.129.08.209.048Zm.433.579c-.032-.048-.08-.048-.128-.032-.032.016-.048.08-.032.112.032.048.08.048.112.032.048-.016.065-.08.048-.112Z"/>
    <path fill="#4FBA6A" d="M5.378 5.604c.112-.113.112-.305 0-.434-.113-.112-.305-.112-.434 0-.112.113-.112.305 0 .434.129.112.321.112.434 0Zm.932.675a.175.175 0 0 0-.242 0 .175.175 0 0 0 0 .24.175.175 0 0 0 .241 0 .175.175 0 0 0 0-.24Zm.754.818a.147.147 0 0 0-.193 0 .147.147 0 0 0 0 .192.147.147 0 0 0 .193 0 .147.147 0 0 0 0-.192Zm.578.659c-.032-.033-.08-.033-.096 0-.032.032-.032.08 0 .096s.08.032.096 0c.032-.016.032-.064 0-.096Z"/>
    <path fill="#7EC45F" d="M4.206 6.68c.128.08.305.031.385-.097a.286.286 0 0 0-.096-.386.286.286 0 0 0-.386.097.286.286 0 0 0 .097.385Zm1.461.353c-.08-.048-.16-.016-.209.048-.048.08-.016.16.048.209.08.048.161.016.21-.048.047-.08.015-.16-.049-.209Zm.963.577c-.064-.031-.144-.015-.176.049s-.016.144.048.177c.064.032.145.016.177-.049.032-.064 0-.144-.048-.176Z"/>
    <path fill="#4C609B" d="M13.889 8.383a.61.61 0 1 0 0 1.22.61.61 0 0 0 0-1.22Zm-.996.609a.432.432 0 0 0-.433-.433.432.432 0 0 0-.434.433c0 .241.193.434.434.434.24 0 .433-.193.433-.434Zm-1.557-.289a.288.288 0 0 0-.29.29c0 .16.13.288.29.288.16 0 .289-.128.289-.289.016-.16-.129-.289-.29-.289Z"/>
    <path fill="#54669F" d="M10.661 8.992a.186.186 0 0 0-.192-.193.186.186 0 0 0-.193.193c0 .112.08.192.193.192.112 0 .192-.08.192-.192Z"/>
    <path fill="#746FA7" d="M13.857 9.78a.554.554 0 0 0-.675.385.554.554 0 0 0 .386.674.553.553 0 0 0 .674-.385c.097-.29-.096-.595-.385-.675Zm-1.622.528a.393.393 0 0 0 .466-.273.392.392 0 0 0-.273-.465.392.392 0 0 0-.466.273.385.385 0 0 0 .273.465Zm-1.06-.385a.267.267 0 0 0 .337-.192.267.267 0 0 0-.192-.338.267.267 0 0 0-.338.193c-.048.145.049.29.193.337Zm-.819-.321a.16.16 0 0 0 .209-.128.16.16 0 0 0-.129-.209.16.16 0 0 0-.208.129c-.016.08.048.176.128.208Z"/>
    <path fill="#99558E" d="M13.455 11.11c-.24-.144-.546-.047-.69.194-.145.24-.048.546.193.69.24.145.546.048.69-.193a.52.52 0 0 0-.193-.69ZM12.267 11c.097-.177.048-.386-.128-.482-.177-.097-.386-.049-.482.128-.097.177-.048.385.128.482a.333.333 0 0 0 .482-.129Zm-1.06-.611c.064-.129.032-.273-.096-.337-.129-.065-.273-.032-.337.096-.065.129-.032.273.096.337a.243.243 0 0 0 .337-.096Zm-.819-.481c.048-.08.016-.177-.064-.225-.08-.048-.177-.016-.225.064-.048.08-.016.177.064.225.08.048.177.016.225-.064Z"/>
    <path fill="#AF3379" d="M12.074 12.284a.456.456 0 0 0 0 .642.456.456 0 0 0 .643 0 .456.456 0 0 0 0-.642.456.456 0 0 0-.643 0Zm-.465-.466a.33.33 0 1 0-.467-.466.33.33 0 0 0 .467.466Zm-.867-.867c.096-.096.096-.24 0-.321-.097-.097-.241-.097-.322 0-.096.096-.096.24 0 .321.097.096.241.096.322 0Zm-.884-.659c.065.064.16.064.21 0 .063-.064.063-.16 0-.209-.065-.064-.162-.064-.21 0-.048.049-.048.145 0 .21Z"/>
    <path fill="#BE266A" d="M11.127 13.038a.425.425 0 0 0 .417.739c.193-.113.274-.386.161-.578a.425.425 0 0 0-.578-.16Zm-.257-1.011a.31.31 0 0 0-.417-.112.31.31 0 0 0-.113.417.31.31 0 0 0 .418.113c.144-.097.208-.273.112-.418Zm-.723-.642c.097-.048.129-.176.08-.273-.047-.096-.176-.128-.272-.08-.097.048-.129.177-.08.273.064.096.176.128.272.08Zm-.594-1.059c-.064.032-.096.128-.048.192.032.065.128.097.193.048.064-.032.096-.128.048-.192a.153.153 0 0 0-.193-.048Z"/>
    <path fill="#D4525C" d="M9.987 13.537a.422.422 0 0 0-.29.498.421.421 0 0 0 .498.289.421.421 0 0 0 .29-.498.39.39 0 0 0-.498-.289Zm-.193-.74c.145-.048.241-.192.193-.337-.048-.144-.193-.24-.337-.193-.145.049-.241.193-.193.338.048.16.193.24.337.192 0 .016 0 .016 0 0Zm-.177-1.395c-.032-.097-.128-.161-.224-.129-.097.032-.161.129-.129.225s.129.16.225.128c.096-.016.16-.112.128-.224 0 .016 0 .016 0 0Zm-.289-.82a.143.143 0 0 0-.16-.097.142.142 0 0 0-.097.161c.016.064.08.112.161.096.08-.016.112-.096.096-.16Z"/>
    <path fill="#E0654F" d="M8.766 13.729a.39.39 0 0 0-.385.385.39.39 0 0 0 .385.385.38.38 0 0 0 .386-.385.371.371 0 0 0-.386-.386Zm-.241-1.059c0 .145.113.257.257.257a.254.254 0 0 0 .257-.257.254.254 0 0 0-.257-.257.254.254 0 0 0-.257.257Zm.241-.948c.097 0 .177-.08.177-.176a.178.178 0 0 0-.177-.177.178.178 0 0 0-.176.177c.016.096.08.176.176.176Zm0-1.157a.11.11 0 0 0-.112.113.11.11 0 0 0 .112.112.11.11 0 0 0 .113-.112c.016-.064-.048-.113-.113-.113Z"/>
    <path fill="#F57F2A" d="M7.546 13.585a.357.357 0 0 0-.434.241.357.357 0 0 0 .241.434.357.357 0 0 0 .434-.241.357.357 0 0 0-.241-.434Zm.337-1.269a.225.225 0 0 0-.273.16.225.225 0 0 0 .16.273.225.225 0 0 0 .274-.16c.032-.113-.049-.241-.16-.273Zm.273-1.028c-.096-.016-.177.032-.193.113-.016.096.032.176.113.192.096.016.176-.032.192-.112.033-.064-.032-.16-.112-.193Zm.274-.642a.11.11 0 0 0-.065-.128.11.11 0 0 0-.129.064.11.11 0 0 0 .065.129c.064.016.128-.017.128-.065Z"/>
    <path fill="#F89828" d="M6.39 13.12a.333.333 0 0 0-.45.112.334.334 0 0 0 .112.45.336.336 0 0 0 .45-.113c.096-.145.032-.354-.112-.45Zm.642-1.125c-.096-.048-.225-.016-.273.08-.048.096-.016.225.08.273.097.048.225.016.273-.08.048-.097.016-.225-.08-.273Zm.385-.658c.08.048.16.016.21-.048.047-.065.015-.161-.05-.21-.08-.047-.16-.015-.208.049-.048.064-.016.16.048.209Zm.563-.965c-.049-.032-.097-.016-.113.032-.032.049-.016.097.032.113.048.032.096.016.113-.032.016-.032 0-.097-.033-.113Z"/>
    <path fill="#FEC127" d="M4.944 12.38c-.112.113-.112.305 0 .434.113.128.305.112.434 0 .112-.113.112-.305 0-.434-.113-.112-.305-.112-.434 0Zm1.108-.914a.175.175 0 0 0 0 .24.175.175 0 0 0 .241 0 .175.175 0 0 0 0-.24.15.15 0 0 0-.24 0Zm.819-.771a.147.147 0 0 0 0 .192.147.147 0 0 0 .193 0 .147.147 0 0 0 0-.192.12.12 0 0 0-.193 0Zm.771-.578c-.032-.032-.08-.032-.096 0-.032.032-.032.08 0 .096.032.032.08.032.096 0 .032-.016.032-.064 0-.096Z"/>
    <path fill="#FED627" d="M4.206 11.305a.282.282 0 0 0-.097.385c.08.129.241.177.386.097a.282.282 0 0 0 .096-.386.282.282 0 0 0-.385-.096Zm1.316-.61c-.064.048-.096.128-.048.209.048.064.129.096.209.048.064-.048.096-.129.048-.209-.048-.064-.144-.096-.209-.048Zm.98-.547c-.064.032-.08.112-.048.177.032.064.112.08.177.048.064-.032.08-.113.048-.177-.048-.064-.113-.08-.177-.048Z"/>
  </g>
  <defs>
    <clipPath id="a">
      <path fill="#fff" d="M0 0h18v18H0z"/>
    </clipPath>
  </defs>
</svg>
