<svg xmlns="http://www.w3.org/2000/svg" viewBox="0 0 18 18">
  <g clip-path="url(#a)">
    <path fill="#090948" d="M0 0h18v18H0V0Z"/>
    <path fill="#0075E0" d="M12.585 5h-7.17A2.42 2.42 0 0 0 3 7.424v2.338a2.42 2.42 0 0 0 2.415 2.424h1.857l1.701 1.216 1.701-1.216h1.911A2.42 2.42 0 0 0 15 9.762V7.424A2.42 2.42 0 0 0 12.585 5Z"/>
    <path fill="#F3F3F3" fill-rule="evenodd" d="M12.743 10.04c.319-.295.524-.695.613-1.202l-.646-.098c-.052.348-.178.62-.381.82-.204.2-.441.3-.756.3s-.582-.12-.802-.359a1.257 1.257 0 0 1-.328-.88c0-.35.109-.644.327-.883a1.05 1.05 0 0 1 .803-.356c.157 0 .301.031.434.091a1.1 1.1 0 0 1 .357.268l-1.722.964.268.482 2.32-1.29c-.176-.364-.406-.64-.688-.83a1.69 1.69 0 0 0-.962-.284c-.24 0-.469.046-.687.137a1.767 1.767 0 0 0-.583.403 1.848 1.848 0 0 0-.527 1.305 1.846 1.846 0 0 0 .895 1.605c.135.082.279.144.432.186.153.043.307.064.463.064.46 0 .85-.148 1.17-.443ZM4.648 8.358v2.054l.001.001h.631V8.239c0-.249.07-.45.21-.602a.73.73 0 0 1 .559-.228c.229 0 .416.076.56.228.144.154.216.353.216.602v2.174h.628V8.239c0-.249.07-.45.212-.602a.725.725 0 0 1 .556-.228c.227 0 .412.076.555.228.14.154.212.353.212.602v2.174h.628V8.36c0-.48-.128-.861-.381-1.143-.254-.282-.593-.422-1.016-.422a1.318 1.318 0 0 0-1.086.547 1.317 1.317 0 0 0-1.085-.548c-.43 0-.77.14-1.022.42-.252.28-.378.662-.378 1.144Z" clip-rule="evenodd"/>
  </g>
  <defs>
    <clipPath id="a">
      <path fill="#fff" d="M0 0h18v18H0z"/>
    </clipPath>
  </defs>
</svg>
