<svg xmlns="http://www.w3.org/2000/svg" viewBox="0 0 18 18">
  <g clip-path="url(#a)">
    <path fill="#001952" d="M0 0h18v18H0V0Z"/>
    <path fill="#fff" d="M9.207 9.516V8.372h.509v-.52h-.51v-.753h-.53v.369c0 .217-.119.383-.38.383H8.17v.52h.454v1.24c0 .462.284.735.738.735.214 0 .324-.04.358-.056v-.487c-.026.004-.122.019-.203.019-.214.004-.31-.089-.31-.306ZM4.35 7.796c-.38 0-.664.177-.782.391v-.332H3v3.424h.203c.247 0 .365-.147.376-.343v-.9c.126.188.395.34.75.34.708 0 1.158-.558 1.158-1.296 0-.727-.41-1.284-1.136-1.284Zm-.11 2.059c-.384 0-.664-.303-.664-.775 0-.461.276-.764.664-.764.395 0 .664.303.664.764-.004.472-.277.775-.664.775Zm9.48-2.078c-.735 0-1.274.55-1.274 1.307 0 .76.543 1.31 1.274 1.31.737 0 1.28-.55 1.28-1.31 0-.757-.539-1.307-1.28-1.307Zm0 2.089c-.358 0-.687-.273-.687-.782 0-.51.329-.775.687-.775.365 0 .686.262.686.775.004.513-.321.782-.687.782Zm-5.635-.808c0-.779-.447-1.28-1.203-1.28-.624 0-1.2.516-1.2 1.295 0 .833.591 1.32 1.259 1.32.59 0 .982-.35 1.114-.778l.019-.07h-.55c-.092.2-.273.343-.583.343a.658.658 0 0 1-.672-.642H8.07a.981.981 0 0 0 .015-.188Zm-1.8-.244a.59.59 0 0 1 .6-.546c.407 0 .598.258.606.546H6.284Zm5.985.587h-.54a.619.619 0 0 1-.616.454c-.369 0-.686-.277-.686-.775s.317-.764.675-.764c.373 0 .543.244.598.461h.55c.022 0-.018-.166-.026-.192v-.003c-.103-.395-.465-.805-1.125-.805-.709 0-1.259.546-1.259 1.307 0 .749.55 1.31 1.273 1.31.646 0 1.019-.421 1.133-.805 0-.004.048-.188.022-.188Z"/>
  </g>
  <defs>
    <clipPath id="a">
      <path fill="#fff" d="M0 0h18v18H0z"/>
    </clipPath>
  </defs>
</svg>
