<svg xmlns="http://www.w3.org/2000/svg" viewBox="0 0 18 18">
  <g clip-path="url(#a)">
    <path fill="#002D72" d="M0 0h18v18H0V0Z"/>
    <path fill="#fff" fill-rule="evenodd" d="m5.795 12.854-2.24-6.107a.668.668 0 0 1-.055-.251.658.658 0 0 1 .682-.632.677.677 0 0 1 .66.474L6.586 11.4l1.71-5.043a.7.7 0 0 1 .672-.515h.097a.691.691 0 0 1 .672.515l1.71 5.043 1.743-5.074a.676.676 0 0 1 .649-.463.644.644 0 0 1 .661.62.733.733 0 0 1-.065.264l-2.24 6.106a.74.74 0 0 1-.694.536h-.13a.714.714 0 0 1-.682-.536l-1.69-4.811-1.688 4.811a.726.726 0 0 1-.693.536h-.13a.737.737 0 0 1-.693-.536Z" clip-rule="evenodd"/>
  </g>
  <defs>
    <clipPath id="a">
      <path fill="#fff" d="M0 0h18v18H0z"/>
    </clipPath>
  </defs>
</svg>
