<svg xmlns="http://www.w3.org/2000/svg" viewBox="0 0 18 18">
  <g clip-path="url(#a)">
    <path d="M0 0h18v18H0V0Z"/>
    <g clip-path="url(#b)">
      <path fill="#fff" d="M6.784 6.753c-.053.194-.213.38-.33.548-.08.127-.162.254-.244.38-.335.465-.21.417-.575.883-.309.396-.52.573-.742.782-.54.51-.977.575-1.08.562-.17-.053-.381-.013-.354-.278.003-.026.02-.146.026-.174.006-.028-.017-.08.006-.081-.154-.035-.667.325-.83.422-.216.127-.347.107-.436.053-.6-.388.17-1.16.409-1.55.053-.076.076-.1.106-.146.07-.116.573-.638.581-.232.002.1-.067.189-.115.272a2.81 2.81 0 0 1-.426.56c-.154.147-.383.338-.435.55-.015.059-.008.144.058.164.134.04.332-.1.39-.145.06-.046.228-.171.34-.243.196-.124.393-.271.571-.426.14-.123.233-.318.406-.387.01-.002.018-.006.026-.007a.236.236 0 0 1 .026-.004c.048-.005.099-.001.134.029l.036.077a6.617 6.617 0 0 0-.008.107c-.087.245-.7.857-.564 1.128.044.09.288.003.336-.028.647-.415 1.318-1.03 1.883-2.088.131-.244.308-.46.414-.707.046-.108.034-.299.01-.424-.01-.07.116-.11.12-.096.188.012.31.322.261.5Z"/>
      <path fill="#fff" fill-rule="evenodd" d="M11.654 9.966c-.274.027-.39-.032-.449-.143-.026-.05-.017-.185.023-.33.032-.12-.008-.248-.092-.196-.086.053-.538.46-.591.505-.052.046-.255.242-.341.17-.112-.09-.106-.19-.085-.281.02-.092.061-.279.078-.315.046-.099.053-.21-.045-.184-.099.026-.25.145-.303.17-.053.027-.669.434-.767.492-.099.06-.184.099-.27.047-.084-.053-.104-.158-.097-.257.006-.098.045-.255.058-.315.013-.058 0-.19-.085-.13-.086.059-.564.472-.616.518-.053.045-.217.19-.329.15-.082-.028-.197-.078-.184-.19.013-.11.092-.243.119-.335.026-.09.111-.38-.08-.347-.157.027-.656.343-.784.458a.283.283 0 0 0-.093.215c.103 1.335-.684 2.702-1.936 3.104-.188.06-.416.087-.623.083a.314.314 0 0 1-.06-.008c-.264.02-.544-.103-.757-.216a.777.777 0 0 1-.32-.332c-.324-.642.65-1.301 1.045-1.658l.686-.567a7.1 7.1 0 0 1 .505-.364s.012-.233.247-.51c.163-.191.308-.4.41-.623a.744.744 0 0 0 .051-.342c0-.045.047-.098.11-.095.168.02.246.279.194.437-.057.173-.21.335-.325.482-.15.162-.03.032-.348.412-.05.06-.064.224.008.186.231-.113.438-.288.64-.45.144-.116.251-.294.448-.321.094-.014.13.048.132.132 0 .016.013.02.013.023l.073-.005c.027-.007.787-.281.856-.31.124-.053.281-.085.295-.013.013.072.072.118 0 .275a.991.991 0 0 0-.092.276c-.006.04-.006.15.078.086.086-.066.722-.512.801-.552.078-.04.282-.085.256.124-.02.162-.059.31-.073.4-.013.093-.013.29.152.21.164-.078.531-.28.669-.38.137-.098.348-.243.387-.282.04-.039.177-.124.243-.092.065.033.144.105.105.217-.04.111-.111.302-.144.355-.033.052.006.19.131.084.125-.105.558-.4.616-.452.06-.052.21-.152.29-.144.072.006.15.118.11.275-.019.077-.091.407-.085.46.008.052.02.216.19.17a5.78 5.78 0 0 1 .335-.078c.04-.008 1.326-.255 1.533-.24.771.055.992.253 1.811.189.088-.014.42-.033.59.023.038.012.071.045.042.085-.13.184-.344.17-.544.17-.013 0-.624-.012-.792-.033-.204-.011-.837-.208-1.051-.208-.471-.05-1.497.23-1.57.243 0 0-.353.068-.399.072Zm-5.238-.228-.028-.141c-.01-.04-.102-.008-.107.007a1.845 1.845 0 0 1-.617.257c-.082.012-.152-.015-.223-.01l-.624.466c-.344.264-.668.551-.982.864-.223.222-.48.43-.528.747-.016.105.06.273.134.323.35.24.7.23 1.173.193.031-.001.247-.062.308-.085.917-.33 1.225-.93 1.365-1.858.037-.252.128-.493.13-.763Zm9.912-.114c.011-.042.09-.079.152-.067.137.025.198.086.214.172.013.069-.016.097-.03.15-.012.041-.09.079-.153.067-.136-.026-.185-.09-.214-.172-.023-.066.016-.097.031-.15Z" clip-rule="evenodd"/>
    </g>
  </g>
  <defs>
    <clipPath id="a">
      <path fill="#fff" d="M0 0h18v18H0z"/>
    </clipPath>
    <clipPath id="b">
      <path fill="#fff" d="M2 6.25h15v6.608H2z"/>
    </clipPath>
  </defs>
</svg>
