<svg xmlns="http://www.w3.org/2000/svg" viewBox="0 0 18 18">
  <g clip-path="url(#a)">
    <path fill="#fff" d="M0 0h18v18H0V0Z"/>
    <path fill="#FF6900" fill-rule="evenodd" d="M9 3c1.99 0 3.617.126 4.75 1.254C14.883 5.384 15 7.014 15 9.006c0 1.99-.115 3.618-1.247 4.749C12.621 14.885 10.992 15 9 15s-3.622-.114-4.753-1.245C3.115 12.624 3 10.995 3 9.005c0-1.989.115-3.616 1.246-4.747C5.378 3.128 7.008 3 9 3Zm3.622 3.777a.075.075 0 0 0-.075-.074h-.975a.075.075 0 0 0-.075.074v4.447c0 .04.033.073.075.073h.975a.075.075 0 0 0 .075-.073V6.777Zm-2.421.339c-.379-.38-1.147-.413-1.882-.413H5.506a.075.075 0 0 0-.075.074v4.447c0 .04.034.073.075.073h.975a.075.075 0 0 0 .076-.073v-3.49c0-.04.034-.074.075-.074h1.766c.347.008.681.05.86.229.208.208.231.623.232 1.026v2.309c0 .04.034.073.076.073h.974a.075.075 0 0 0 .076-.073v-2.27c-.002-.722-.042-1.465-.415-1.838ZM8.61 8.547a.075.075 0 0 0-.074-.073H7.513a.075.075 0 0 0-.075.073v2.677c0 .04.033.073.075.073h1.024a.075.075 0 0 0 .075-.073V8.547Z" clip-rule="evenodd"/>
  </g>
  <defs>
    <clipPath id="a">
      <path fill="#fff" d="M0 0h18v18H0z"/>
    </clipPath>
  </defs>
</svg>
