<svg xmlns="http://www.w3.org/2000/svg" viewBox="0 0 18 18">
  <g clip-path="url(#a)">
    <path d="M0 0h18v18H0V0Z"/>
    <path fill="#fff" d="M9 1.5a7.5 7.5 0 1 0 0 15 7.5 7.5 0 0 0 0-15Zm0 14.4A6.9 6.9 0 1 1 9 2.1a6.9 6.9 0 0 1 0 13.8Z"/>
    <path fill="#fff" d="M9.225 9.824h1.35v2.7h.6v-2.7h1.35v-.6h-3.3v.6Zm-.8-.675-1.3 1.301-1.3-1.3-.425.424 1.3 1.3-1.3 1.301.424.424 1.301-1.3 1.3 1.3.425-.424-1.3-1.3 1.3-1.301-.424-.425Zm2.412-.375c.932 0 1.688-.755 1.688-1.687h-.6a1.087 1.087 0 0 1-1.565.977l1.455-1.455.439-.439a1.686 1.686 0 0 0-3.104.917c0 .932.755 1.687 1.688 1.687Zm0-2.775c.211 0 .408.06.575.165L9.914 7.66A1.087 1.087 0 0 1 10.837 6Zm-3.712.908L5.86 5.4l-.46.386 1.425 1.698v1.291h.6v-1.29L8.85 5.784l-.46-.386-1.265 1.508Z"/>
  </g>
  <defs>
    <clipPath id="a">
      <path fill="#fff" d="M0 0h18v18H0z"/>
    </clipPath>
  </defs>
</svg>
