<svg xmlns="http://www.w3.org/2000/svg" viewBox="0 0 18 18">
  <g clip-path="url(#a)">
    <path fill="#041A55" d="M0 0h18v18H0V0Z"/>
    <path fill="#fff" fill-rule="evenodd" d="M7.344 4.414c.254 0 .46-.205.46-.457a.459.459 0 0 0-.46-.457.459.459 0 0 0-.46.457c0 .252.206.457.46.457Zm2.107.242a.459.459 0 0 1-.461.457.459.459 0 0 1-.46-.457c0-.252.206-.457.46-.457s.46.205.46.457Zm2.53.834a.459.459 0 0 1-.46.457.459.459 0 0 1-.461-.457c0-.252.206-.457.46-.457.255 0 .46.205.46.457Zm-5.548.476c.254 0 .46-.204.46-.456a.459.459 0 0 0-.46-.457.459.459 0 0 0-.46.457c0 .252.205.456.46.456Zm-1.738.36a.457.457 0 0 0 .46-.456.459.459 0 0 0-.46-.457.459.459 0 0 0-.46.457c0 .252.206.457.46.457Zm.648 1.314a.459.459 0 0 1-.46.457.459.459 0 0 1-.46-.457c0-.252.206-.456.46-.456s.46.204.46.456Zm.85 1.35a.459.459 0 0 1-.461.456.459.459 0 0 1-.46-.457c0-.252.205-.457.46-.457.254 0 .46.205.46.457Zm-2.073 0a.459.459 0 0 1-.46.456.459.459 0 0 1-.46-.457c0-.252.205-.457.46-.457.254 0 .46.205.46.457Zm.763 1.804c.254 0 .46-.205.46-.457a.459.459 0 0 0-.46-.457.459.459 0 0 0-.46.457c0 .252.206.457.46.457Zm1.95.128a.459.459 0 0 1-.46.457.459.459 0 0 1-.46-.457c0-.252.205-.457.46-.457.254 0 .46.205.46.457Zm-.368 2.052c.254 0 .46-.204.46-.457a.459.459 0 0 0-.46-.456.459.459 0 0 0-.46.456c0 .253.205.457.46.457Zm.368-5.931a.459.459 0 0 1-.46.457.459.459 0 0 1-.46-.457c0-.253.205-.457.46-.457.254 0 .46.204.46.457Zm1.62-1.173a.459.459 0 0 1-.46.457.459.459 0 0 1-.461-.457c0-.252.206-.457.46-.457.255 0 .46.205.46.457ZM10 6.327c.254 0 .46-.205.46-.457a.459.459 0 0 0-.46-.457.459.459 0 0 0-.46.457c0 .252.206.457.46.457Zm1.625 1.204c.254 0 .46-.205.46-.457a.459.459 0 0 0-.46-.457.459.459 0 0 0-.46.457c0 .252.206.457.46.457Zm1.95.11a.459.459 0 0 1-.46.456.459.459 0 0 1-.46-.457c0-.252.206-.456.46-.456.255 0 .46.204.46.456Zm-.46 3.153c.255 0 .46-.205.46-.457a.459.459 0 0 0-.46-.457.459.459 0 0 0-.46.457c0 .252.206.457.46.457Zm-1.03.133a.459.459 0 0 1-.46.456.459.459 0 0 1-.46-.456c0-.253.206-.457.46-.457s.46.204.46.457Zm1.235 1.638c.254 0 .46-.204.46-.457a.459.459 0 0 0-.46-.457.459.459 0 0 0-.46.457c0 .252.206.457.46.457Zm-2.86-.457a.459.459 0 0 1-.46.457.459.459 0 0 1-.46-.457c0-.252.206-.457.46-.457s.46.205.46.457Zm-2.468.457c.255 0 .46-.204.46-.457a.459.459 0 0 0-.46-.457.459.459 0 0 0-.46.457c0 .252.206.457.46.457Zm-2.85-.457a.459.459 0 0 1-.46.457.459.459 0 0 1-.46-.457c0-.252.205-.457.46-.457.254 0 .46.205.46.457Zm6.378.866c.255 0 .46-.204.46-.457a.459.459 0 0 0-.46-.456.459.459 0 0 0-.46.456c0 .253.206.457.46.457Zm-2.07.349a.459.459 0 0 1-.46.457.459.459 0 0 1-.46-.457c0-.253.206-.457.46-.457s.46.204.46.457Zm1.195 1.177c.254 0 .46-.204.46-.457a.459.459 0 0 0-.46-.457.459.459 0 0 0-.46.457c0 .253.205.457.46.457Zm-2.828-.457a.459.459 0 0 1-.46.457.459.459 0 0 1-.46-.457c0-.252.206-.457.46-.457s.46.205.46.457Zm4.463-4.597c.254 0 .46-.205.46-.457a.459.459 0 0 0-.46-.457.459.459 0 0 0-.46.457c0 .252.206.457.46.457Zm2.52-.457a.459.459 0 0 1-.46.457.459.459 0 0 1-.46-.457c0-.252.206-.457.46-.457.255 0 .46.205.46.457Zm-1.48-2.662c.254 0 .46-.205.46-.457a.459.459 0 0 0-.46-.457.459.459 0 0 0-.46.457c0 .252.206.457.46.457Zm-2.21-2.37a.459.459 0 0 1-.461.457.459.459 0 0 1-.46-.457c0-.252.205-.457.46-.457.254 0 .46.205.46.457Z" clip-rule="evenodd"/>
  </g>
  <defs>
    <clipPath id="a">
      <path fill="#fff" d="M0 0h18v18H0z"/>
    </clipPath>
  </defs>
</svg>
