<svg xmlns="http://www.w3.org/2000/svg" viewBox="0 0 18 18">
  <g clip-path="url(#a)">
    <path fill="#fff" d="M0 0h18v18H0V0Z"/>
    <path fill="#EC1C24" d="m3.686 14.888 4.644-2.454c.268.023.543.036.82.036 3.233.002 5.85-1.64 5.85-3.667s-2.617-3.664-5.854-3.664-5.85 1.642-5.85 3.664c0 1.373 1.205 2.57 2.988 3.2l-2.598 2.885Z"/>
    <path fill="#fff" d="M7.1 7.13H5.947l.056.32h.099c.07-.002.14.005.209.02.031.01.033.021.036.033v.011a.476.476 0 0 1-.069.195 4.08 4.08 0 0 1-.19.314l-.291.451-.385-.837V7.63c0-.007-.014-.029-.03-.067a.489.489 0 0 1-.024-.085h.008a.733.733 0 0 1 .196-.026l.14-.007-.057-.314H4.241l.057.314.09.01c.07.002.14.017.203.047a.62.62 0 0 1 .12.202l.59 1.27-.112.99a.253.253 0 0 1-.095.204.667.667 0 0 1-.241.045l-.135.01.056.315h1.651l-.058-.314h-.104a1.154 1.154 0 0 1-.314-.035c-.02-.006-.034-.032-.041-.076a.556.556 0 0 1-.006-.09c0-.056.004-.111.011-.166l.105-.869.816-1.303a.768.768 0 0 1 .145-.189.308.308 0 0 1 .145-.046l.13-.014-.056-.307h-.099Z"/>
    <path fill="#fff" d="m7.49 8.148-.363.07-.453.093.056.284h.104a.752.752 0 0 1 .184.013c.004.01.006.021.008.032v.058l-.096 1.327v.092a.71.71 0 0 0 .011.105.424.424 0 0 0 .432.371c.235 0 .453-.148.647-.44.036-.055.075-.122.116-.2 0 .046-.007.09-.007.13v.018c0 .052.005.103.014.154a.383.383 0 0 0 .398.335c.176 0 .34-.104.489-.314.074-.104.136-.215.185-.333l.042-.098-.268-.161-.166.254c-.044.07-.063.095-.067.105l-.008.01v-.042l.15-1.675.013-.134h-.593l-.018.105a11.78 11.78 0 0 1-.114.572 3.122 3.122 0 0 1-.169.511 3.18 3.18 0 0 1-.27.497c-.124.184-.191.193-.204.193h-.007v-.032l.006-.086.13-1.622V8.3a.153.153 0 0 0-.046-.105.145.145 0 0 0-.135-.047Zm2.557.003c-.336.077-.584.13-.733.155l-.122.02.05.307h.105a.974.974 0 0 1 .202.006v.081l-.178 1.815h.606l.014-.105c.036-.264.068-.468.093-.607a2.11 2.11 0 0 1 .16-.53c.075-.157.164-.306.265-.446.129-.183.21-.198.224-.198v.075l-.165 1.81h.612l.01-.11c.036-.384.062-.628.081-.733.028-.137.07-.27.126-.398a2.97 2.97 0 0 1 .268-.461c.084-.12.164-.187.225-.188a.026.026 0 0 1 0 .016v.056l-.105 1.323v.104c0 .032.003.063.008.095a.418.418 0 0 0 .171.287c.06.04.131.06.203.059a.57.57 0 0 0 .4-.177c.12-.123.221-.265.298-.419l.017-.032.053-.096-.279-.191-.181.283-.019.028a1.096 1.096 0 0 1-.054.072l.112-1.205v-.173a.655.655 0 0 0-.007-.104.481.481 0 0 0-.179-.324.493.493 0 0 0-.287-.098c-.218 0-.428.141-.638.431-.019.025-.037.054-.057.083a.597.597 0 0 0-.01-.102.48.48 0 0 0-.21-.34.449.449 0 0 0-.24-.071c-.21 0-.404.129-.605.394a3.31 3.31 0 0 0-.098.143l.048-.456-.127-.088-.057.009Zm3.305-.891c-.052.156-.073.32-.062.484v.437c0 .028 0 .16-.014.636l-.024.82.104.02.2.04.164-.78c.069-.318.097-.443.104-.492.105-.414.167-.659.181-.75a.804.804 0 0 0 0-.282.419.419 0 0 0-.232-.307.314.314 0 0 0-.421.175Zm-.302 2.7a.329.329 0 0 0-.066.258.44.44 0 0 0 .159.277c.074.06.166.093.262.094a.33.33 0 0 0 .267-.123.342.342 0 0 0 .07-.28.407.407 0 0 0-.16-.257.436.436 0 0 0-.264-.095.321.321 0 0 0-.268.126Z"/>
  </g>
  <defs>
    <clipPath id="a">
      <path fill="#fff" d="M0 0h18v18H0z"/>
    </clipPath>
  </defs>
</svg>
