<!-- by TradingView --><svg width="56" height="56" viewBox="0 0 56 56" xmlns="http://www.w3.org/2000/svg"><path fill="#F0F3FA" d="M0 0h56v56H0z"/><path fill-rule="evenodd" d="M13 12h30v28.81L28.15 47 13 40.81V12Zm2 2h26v25.52L28.13 45 15 39.52V14Zm18.12 23H37v-.25c-.9-.1-1.03-.17-1.5-.48l-.16-.1c-.41-.26-.9-1-1.42-1.82-.26-.4-.52-.8-.8-1.2l-3.14-5.28c2.27-.5 4.02-1.63 4.02-4.24 0-1.98-1.3-3.65-3.17-4.2-.9-.29-2.32-.43-4.24-.43h-6.22v.25h.68c.69 0 1.2.2 1.55.58.25.28.4.98.4 2.11v12.12c0 1.03-.12 1.68-.3 1.95-.34.5-.88.74-1.65.74h-.68V37h7.08v-.25h-.7c-.68 0-1.19-.19-1.53-.58-.22-.25-.22-.86-.22-1.83V28.58l.14.02.12.01h.38c.28 0 1.58 0 2.03-.03 0 0 1.62 1.4 5.45 8.42ZM32 23.63c0 3.39-2.8 4.66-7 4.29v-8.2c.66-.25 1.73-.25 2.25-.25 2.19 0 4.75 1.94 4.75 4.16Z" fill="#231F20"/></svg>