<svg xmlns="http://www.w3.org/2000/svg" viewBox="0 0 18 18">
  <g clip-path="url(#a)">
    <path fill="#fff" d="M0 0h18v18H0V0Z"/>
    <path fill="#040707" d="M8.799 8.905h.17a.375.375 0 0 1 .39-.358h5.14a4.066 4.066 0 0 0-.017-.17H9.358a.544.544 0 0 0-.56.528Z"/>
    <path fill="#040707" d="M8.14 8.906h.17a1.012 1.012 0 0 1 1.048-.97h5.054c-.01-.058-.025-.114-.037-.17H9.358a1.182 1.182 0 0 0-1.218 1.14Z"/>
    <path fill="#040707" d="M7.478 8.906h.17a1.654 1.654 0 0 1 1.71-1.586h4.893a3.762 3.762 0 0 0-.057-.17H9.358a1.824 1.824 0 0 0-1.88 1.756Z"/>
    <path fill="#040707" d="M6.817 8.905h.17a2.293 2.293 0 0 1 2.371-2.2h4.652a2.421 2.421 0 0 0-.082-.17h-4.57a2.462 2.462 0 0 0-2.541 2.37Z"/>
    <path fill="#040707" d="M6.155 8.905h.169c0-1.553 1.36-2.816 3.033-2.816h4.32l-.11-.17H9.358c-1.766 0-3.203 1.34-3.203 2.986Z"/>
    <path fill="#040707" d="M5.493 8.904h.17c0-1.893 1.658-3.432 3.695-3.432h3.87c-.048-.057-.096-.115-.147-.17H9.358c-2.131 0-3.865 1.616-3.865 3.602Z"/>
    <path fill="#040707" d="M4.83 8.904h.172c0-2.231 1.954-4.047 4.356-4.047h3.266a5.371 5.371 0 0 0-.205-.17H9.36c-2.497 0-4.528 1.892-4.528 4.217Z"/>
    <path fill="#040707" d="M4.169 8.904h.17c0-2.57 2.252-4.662 5.02-4.662h2.406a5.309 5.309 0 0 0-.316-.17h-2.09c-2.861 0-5.19 2.168-5.19 4.832"/>
    <path fill="#040707" d="M3.507 8.905h.17c0-2.911 2.548-5.277 5.681-5.277h.819a5.488 5.488 0 0 0-1.82-.09c-2.751.444-4.85 2.68-4.85 5.367Z"/>
    <path fill="#004729" d="M9.019 9.154h-.272a.325.325 0 0 1-.339.306H3.501c.008.09.018.182.03.272h4.877a.595.595 0 0 0 .611-.579"/>
    <path fill="#004729" d="M9.71 9.154h-.339a.926.926 0 0 1-.963.885h-4.83c.022.114.045.228.074.34h4.755a1.267 1.267 0 0 0 1.302-1.224"/>
    <path fill="#004729" d="M10.373 9.154h-.34a1.568 1.568 0 0 1-1.625 1.501H3.73c.035.114.076.228.12.34h4.557a1.908 1.908 0 0 0 1.965-1.84Z"/>
    <path fill="#004729" d="M11.069 9.154h-.408a2.174 2.174 0 0 1-2.253 2.082H3.95c.062.139.127.275.198.407h4.26a2.582 2.582 0 0 0 2.66-2.489"/>
    <path fill="#004729" d="M11.73 9.154h-.407c0 1.487-1.308 2.697-2.915 2.697h-4.14c.085.14.177.276.272.408h3.868c1.832 0 3.323-1.393 3.323-3.105Z"/>
    <path fill="#004729" d="M12.427 9.154h-.477c0 1.808-1.588 3.279-3.54 3.279H4.676c.13.166.271.325.42.475H8.41c2.217 0 4.019-1.684 4.019-3.753"/>
    <path fill="#004729" d="M13.087 9.154h-.476c0 2.147-1.886 3.894-4.203 3.894H5.24c.184.172.38.33.586.476h2.58c2.581 0 4.68-1.96 4.68-4.37"/>
    <path fill="#004729" d="M13.784 9.154h-.545c0 2.468-2.167 4.475-4.83 4.475H5.984c.335.22.694.401 1.07.543H8.41c2.964 0 5.375-2.25 5.375-5.019"/>
    <path fill="#004729" d="M13.902 9.154c0 2.806-2.465 5.09-5.494 5.09H7.256a5.52 5.52 0 0 0 5.637-1.324 5.402 5.402 0 0 0 1.553-3.767h-.544"/>
  </g>
  <defs>
    <clipPath id="a">
      <path fill="#fff" d="M0 0h18v18H0z"/>
    </clipPath>
  </defs>
</svg>
