<svg xmlns="http://www.w3.org/2000/svg" viewBox="0 0 18 18">
  <g clip-path="url(#a)">
    <path fill="#fff" d="M0 0h18v18H0V0Z"/>
    <path fill="url(#b)" d="M10.645 15c-.44 0-.837-.198-1.065-.53l-.357-.523a.27.27 0 0 0-.206-.12L9 13.826h-.012a.272.272 0 0 0-.21.12l-.357.522c-.228.333-.626.531-1.065.531-.249 0-.494-.065-.71-.188a1.233 1.233 0 0 1-.6-.78c-.067-.292-.01-.59.16-.837a719.42 719.42 0 0 1 1.704-2.489c.223-.326.62-.525 1.06-.525h.062c.439 0 .836.199 1.063.53l1.7 2.484c.17.248.226.546.159.838-.074.32-.293.604-.6.78a1.43 1.43 0 0 1-.709.188ZM9 13.13h.052c.325.015.626.18.807.444l.357.522a.51.51 0 0 0 .428.207c.11 0 .218-.028.314-.084a.534.534 0 0 0 .26-.332.403.403 0 0 0-.059-.32l-1.687-2.465a.055.055 0 0 1-.007-.009.512.512 0 0 0-.433-.215h-.063a.51.51 0 0 0-.428.206l-.007.012-.006.007-1.686 2.465a.404.404 0 0 0-.06.32.53.53 0 0 0 .261.333.638.638 0 0 0 .314.084.51.51 0 0 0 .428-.207l.357-.522a1.03 1.03 0 0 1 .807-.443c.015-.003.033-.003.051-.003Zm-.002-5.311h-.029c-.439 0-.836-.199-1.063-.53l-1.7-2.484a1.051 1.051 0 0 1-.159-.838c.074-.32.292-.604.6-.78.214-.122.46-.187.708-.187.44 0 .837.198 1.065.53l.357.523a.273.273 0 0 0 .206.12L9 4.174h.012a.274.274 0 0 0 .21-.12l.357-.522c.23-.334.627-.532 1.066-.532.25 0 .495.065.71.188.307.175.526.46.6.78.067.292.01.59-.16.837-1.7 2.486-1.702 2.487-1.704 2.49-.224.326-.621.525-1.06.525l-.033-.001Zm.034-.696a.512.512 0 0 0 .44-.225l1.687-2.465a.403.403 0 0 0 .06-.32.53.53 0 0 0-.261-.333.635.635 0 0 0-.313-.084.51.51 0 0 0-.428.207l-.357.522c-.181.263-.482.43-.807.443l-.052.001h-.052a1.033 1.033 0 0 1-.807-.444l-.357-.522a.51.51 0 0 0-.428-.207.628.628 0 0 0-.314.084.534.534 0 0 0-.26.332.404.404 0 0 0 .059.32l1.687 2.466a.514.514 0 0 0 .44.225l.032-.001.03.001Zm-4.824 4.858c-.409 0-.8-.24-1.021-.627A1.444 1.444 0 0 1 3 10.645c0-.44.198-.837.53-1.065l.523-.357a.27.27 0 0 0 .12-.206L4.174 9v-.014a.273.273 0 0 0-.12-.209l-.522-.357C3.198 8.192 3 7.794 3 7.355c0-.249.065-.494.188-.71.22-.386.612-.627 1.02-.627.213 0 .42.064.598.186 2.485 1.7 2.486 1.702 2.489 1.705.326.223.525.62.525 1.06v.062c0 .439-.199.836-.53 1.063l-2.484 1.7a1.05 1.05 0 0 1-.598.187Zm-.001-5.21a.507.507 0 0 0-.427.271c-.15.26-.094.593.123.742l.522.357A1.034 1.034 0 0 1 4.869 9v.053c-.015.324-.18.626-.444.807l-.522.357c-.217.148-.272.481-.123.742.095.167.26.271.427.271a.4.4 0 0 0 .226-.07l2.465-1.688a.513.513 0 0 0 .224-.469.517.517 0 0 0-.206-.462l-.011-.007-.008-.007-2.464-1.686a.404.404 0 0 0-.226-.07Zm9.584 5.21c-.212 0-.418-.064-.597-.186-2.484-1.7-2.485-1.702-2.488-1.704-.327-.223-.525-.62-.525-1.06v-.063c0-.439.199-.836.53-1.063l2.484-1.7c.179-.122.385-.186.597-.186.409 0 .8.24 1.02.627.123.216.188.46.188.709 0 .44-.198.837-.53 1.065l-.523.357a.273.273 0 0 0-.12.206L13.826 9v.015c.005.08.05.159.121.207l.522.357c.333.228.531.626.531 1.065 0 .25-.065.495-.188.71-.22.387-.612.627-1.02.627Zm-.224-.822a.39.39 0 0 0 .226.07.507.507 0 0 0 .427-.271c.15-.26.094-.593-.123-.742l-.522-.357a1.033 1.033 0 0 1-.443-.807L13.13 9v-.052c.015-.325.18-.626.444-.807l.522-.357c.217-.148.272-.481.123-.742a.509.509 0 0 0-.427-.271.402.402 0 0 0-.226.07l-2.465 1.687a.513.513 0 0 0-.224.469.517.517 0 0 0 .206.462l.011.007.008.007 2.464 1.686Z"/>
  </g>
  <defs>
    <linearGradient id="b" x1="5.5" x2="15" y1="3.5" y2="15.5" gradientUnits="userSpaceOnUse">
      <stop stop-color="#99D2B3"/>
      <stop offset=".266" stop-color="#5FBB63"/>
      <stop offset=".793" stop-color="#4398D3"/>
    </linearGradient>
    <clipPath id="a">
      <path fill="#fff" d="M0 0h18v18H0z"/>
    </clipPath>
  </defs>
</svg>
