<svg xmlns="http://www.w3.org/2000/svg" viewBox="0 0 18 18">
  <g clip-path="url(#a)">
    <path fill="#fff" d="M0 0h18v18H0V0Z"/>
    <path fill="#00539F" d="M7.623 5.018c-1.46 1.648-2.92 3.431-4.336 5.116-.081.098-.126.224-.188.331-.224.565-.054 1.237.385 1.613.815.018 1.604.036 2.455 0-.01-.072-.072-.117-.108-.18-.296-.438-.296-1.083-.018-1.522 1.434-1.774 2.912-3.503 4.417-5.277.018-.018.045-.063 0-.081-.376.009-.752 0-1.129-.009-.286 0-.564-.009-.833-.009-.215 0-.43 0-.645.018Z"/>
    <path fill="#00A0E0" d="m9.209 6.586-.01.09 1.927 2.347c.377.484.806.923 1.138 1.434.242.51.152 1.191-.206 1.63l.009.036h2.392c.152-.027.233-.188.34-.304.26-.466.278-1.111-.008-1.56a592.637 592.637 0 0 0-4.238-5.169l-.063-.009-1.281 1.505Z"/>
    <path fill="#00539F" d="M8.313 8.36c-.367.86.358 1.496.69 2.195.206-.448.636-.833.761-1.335.26-.762-.358-1.37-.734-1.962-.251.358-.538.717-.717 1.102Z"/>
    <path fill="#00539F" d="M6.826 9.66H6.53l-.027.017c-.036.296-.009.61.126.878.304.6.931.87 1.594.797.359.054.672.314.753.663.107-.188.233-.465.475-.564.457-.197 1.066-.009 1.451-.34a1.35 1.35 0 0 0 .6-1.434c-.125 0-.26 0-.385-.009-.466-.009-.95-.027-1.308.233-.403.233-.663.627-.806 1.048-.135-.367-.359-.752-.69-.976-.34-.269-.78-.305-1.228-.305-.08-.009-.17-.009-.26-.009Z"/>
  </g>
  <defs>
    <clipPath id="a">
      <path fill="#fff" d="M0 0h18v18H0z"/>
    </clipPath>
  </defs>
</svg>
