<svg xmlns="http://www.w3.org/2000/svg" viewBox="0 0 18 18">
  <g clip-path="url(#a)">
    <path fill="#fff" d="M0 0h18v18H0V0Z"/>
    <path fill="#3E007A" d="M9.872 11.362c-.882.03-1.477-.382-1.94-1.032-.22.238-.415.489-.653.688-1.414 1.193-3.625.518-4.156-1.26-.34-1.138.034-2.34.964-3.048.526-.403 1.142-.493 1.787-.437 1.036.093 1.715.683 2.177 1.57.578 1.1 1.15 2.195 1.724 3.294.034.064.055.127.097.225ZM3.981 8.947c-.06 1.129.904 1.672 1.672 1.676.9.005 1.622-.772 1.639-1.702.017-1.146-.883-1.668-1.66-1.676-.95 0-1.68.798-1.651 1.702Z"/>
    <path fill="#9C7CB8" d="M8.128 6.493c.849-.009 1.452.39 1.923 1.06.08-.105.144-.194.212-.284 1.184-1.532 3.68-1.303 4.49.459a2.63 2.63 0 0 1-1.82 3.684c-1.159.263-2.284-.22-2.861-1.248-.654-1.163-1.27-2.347-1.902-3.527-.017-.034-.02-.076-.042-.144Zm5.908 2.355c-.008-.972-.721-1.664-1.706-1.655-.942.008-1.672.764-1.677 1.715-.008 1.129.972 1.643 1.715 1.634a1.674 1.674 0 0 0 1.668-1.694Z"/>
  </g>
  <defs>
    <clipPath id="a">
      <path fill="#fff" d="M0 0h18v18H0z"/>
    </clipPath>
  </defs>
</svg>
