<svg xmlns="http://www.w3.org/2000/svg" viewBox="0 0 18 18">
  <g clip-path="url(#a)">
    <path fill="#003781" d="M0 0h18v18H0V0Z"/>
    <path fill="#fff" d="M9.795 12.086v-6.07c0-.484-.172-.647-.641-.647H7.732v.683h.086c.324 0 .387.073.387.463v5.57h1.59Zm.701 0h1.578V7.359c0-.475-.183-.646-.646-.646h-.932v5.373Zm-2.988 0V6.717h-.935c-.463 0-.643.171-.643.646v4.723h1.578ZM13.567 9c0 2.674-1.924 4.62-4.565 4.62-2.642 0-4.57-1.946-4.57-4.62 0-2.675 1.927-4.62 4.57-4.62 2.642 0 4.565 1.956 4.565 4.62Zm.934 0c0-3.146-2.353-5.501-5.5-5.501C5.856 3.5 3.5 5.855 3.5 9c0 3.146 2.353 5.5 5.502 5.5 3.148 0 5.5-2.346 5.5-5.5Z"/>
  </g>
  <defs>
    <clipPath id="a">
      <path fill="#fff" d="M0 0h18v18H0z"/>
    </clipPath>
  </defs>
</svg>
