<svg xmlns="http://www.w3.org/2000/svg" viewBox="0 0 18 18">
  <g clip-path="url(#a)">
    <path fill="#0F1F30" d="M0 0h18v18H0V0Z"/>
    <path fill="#fff" fill-rule="evenodd" d="M14.489 9.353A5.5 5.5 0 1 0 3.51 8.647a5.5 5.5 0 0 0 10.978.706Zm-.542.144a4.972 4.972 0 0 1-6.858 4.094l5.475-5.476 1.383 1.382Zm.019-.728-1.402-1.402-.587.587-2.723-2.723L6.36 8.124l-.705-.705-1.627 1.656V9a4.971 4.971 0 0 1 9.937-.231Zm-7.38 4.577 2.125-2.125L5.659 8.17l-1.57 1.6a4.976 4.976 0 0 0 2.496 3.576Zm.149-4.848 2.35 2.35 2.518-2.52-2.35-2.35-2.518 2.52Z" clip-rule="evenodd"/>
  </g>
  <defs>
    <clipPath id="a">
      <path fill="#fff" d="M0 0h18v18H0z"/>
    </clipPath>
  </defs>
</svg>
