<svg xmlns="http://www.w3.org/2000/svg" viewBox="0 0 18 18">
  <g clip-path="url(#a)">
    <path fill="#fff" d="M0 0h18v18H0V0Z"/>
    <path fill="#24C2DC" d="M7.317 14.5h4.482v-3.202c1.573-1.573 1.631-2.851 1.464-3.293h-8.37v1.19l-1.19 2.194h1.19v2.013h2.424V14.5Z"/>
    <path fill="#511374" fill-rule="evenodd" d="M5.801 5.943c-.615 1.051-.762 2.324-.572 3.188l.023.108-1.004 1.853h.896V12.9c0 .14.113.252.252.252h2.08V14.5h-.594v-.755H5.396a.846.846 0 0 1-.846-.846v-1.212h-1.3l1.376-2.54c-.187-1.003-.002-2.369.662-3.504C5.986 4.448 7.22 3.5 9.1 3.5c2.443 0 3.883 1.566 4.346 3.332.44 1.68.012 3.627-1.35 4.58v2.265h-.595v-2.59l.14-.087c1.18-.732 1.644-2.438 1.23-4.017-.406-1.55-1.641-2.888-3.771-2.888-1.643 0-2.695.813-3.3 1.848Zm.475 1.765h3.19v.594H5.63l.018-.314c.033-.577.24-1.436.765-2.158.534-.736 1.393-1.324 2.688-1.324 1.294 0 2.16.592 2.703 1.327a4.32 4.32 0 0 1 .795 2.15l.023.32h-1.303v.891h-.595v-.892h-.8v-.594h.8v-.892h.595v.892h.646a3.729 3.729 0 0 0-.64-1.522c-.444-.602-1.14-1.085-2.224-1.085-1.085 0-1.773.48-2.207 1.078a3.65 3.65 0 0 0-.618 1.529Z" clip-rule="evenodd"/>
    <path fill="#B9E6F0" fill-rule="evenodd" d="M8.46 6.04a.274.274 0 1 1-.549 0 .274.274 0 0 1 .55 0Zm.96 0a.274.274 0 1 1-.548 0 .274.274 0 0 1 .549 0Zm-.274 1.234a.274.274 0 1 0 0-.548.274.274 0 0 0 0 .548ZM8.46 7a.274.274 0 1 1-.549 0 .274.274 0 0 1 .55 0Zm-1.235.274a.274.274 0 1 0 0-.548.274.274 0 0 0 0 .548Z" clip-rule="evenodd"/>
  </g>
  <defs>
    <clipPath id="a">
      <path fill="#fff" d="M0 0h18v18H0z"/>
    </clipPath>
  </defs>
</svg>
