<svg xmlns="http://www.w3.org/2000/svg" viewBox="0 0 18 18">
  <g clip-path="url(#a)">
    <path fill="#031795" d="M0 0h18v18H0V0Z"/>
    <path fill="#fff" d="M11.066 4.644c-.86-.718-1.711-1.303-2.817-1.39-.84-.066-1.282.62-1.68 1.326-.664 1.182-2.797 5.707-2.549 7.328.532 3.47 7.156 2.477 9.587.897 1.883-1.224.873-5.308-2.541-8.16Zm2.22 5.988c-.013.146-.033.29-.063.43-.217 1.056-1.156 1.595-2.086 1.858-.883.25-1.782.447-2.69.57-.752.1-1.51.078-2.261-.267-1.744-.801-1.031-2.836-.563-3.953.609-1.45 1.105-2.917 1.821-4.402.242-.501.886-.89 1.497-.661.703.264 1.344.715 1.865 1.255.724.752 1.367 1.466 1.837 2.414.38.767.726 1.864.644 2.756Zm-1.184-1.59c-.221-.56-1.386-3.117-2.717-3.868-.886-.499-1.445.69-1.666 1.171-.39.847-.742 1.71-1.116 2.565-.365.834-.7 1.854-.483 2.804.15.655.79.997 1.37 1.04.844.063 3.141-.487 3.537-.664.93-.415 1.197-.915 1.343-1.486.12-.473-.08-1.085-.268-1.561Zm-2.147 2.6c-.504.17-1.866.474-2.725.211-.723-.22-.362-1.481-.177-2.01.251-.72 1.403-3.45 1.618-3.652.537-.505 1.133.362 1.514.902 2.634 3.385.52 4.297-.23 4.55Z"/>
    <path fill="red" d="M10.643 9.32c-.223-.483-.6-1.12-1.087-1.556-.189-.168-.73-.366-.894.085-.298.785-.532 1.597-.754 2.383-.061.217-.162.761.07.905.53.331 2.03-.65 2.494-.944.265-.168.299-.594.17-.873Zm-.706.453c-.334.295-.887.66-1.272.645-.396-.016.16-1.745.482-2.008.261-.213.829.764.862.867.055.169.049.389-.072.496Z"/>
  </g>
  <defs>
    <clipPath id="a">
      <path fill="#fff" d="M0 0h18v18H0z"/>
    </clipPath>
  </defs>
</svg>
