<svg xmlns="http://www.w3.org/2000/svg" viewBox="0 0 18 18">
  <g clip-path="url(#a)">
    <path fill="#FEF8F3" d="M0 0h18v18H0V0Z"/>
    <g clip-path="url(#b)">
      <path fill-rule="evenodd" d="M10.392 10.44c-.104-.324-.166-.37-.606-.37H7.553c-.374 0-.46.046-.564.358l-.52 1.543c-.22.663-.323 1.062-.323 1.224 0 .178.075.265.427.295l.49.045c.104.071.104.307-.028.365-.387-.029-.843-.029-1.54-.041-.49 0-1.022.03-1.42.041-.087-.058-.12-.294-.029-.365l.49-.045c.352-.03.676-.191.883-.722.266-.677.681-1.635 1.304-3.287L8.23 5.506c.207-.531.299-.809.253-1.045.357-.104.606-.37.768-.56.087 0 .195.029.224.132.19.647.427 1.324.648 1.975l2.029 5.922c.427 1.265.623 1.485 1.258 1.56l.398.045c.104.071.075.307 0 .365a35.057 35.057 0 0 0-1.789-.041c-.71 0-1.274.03-1.702.041-.12-.058-.132-.294-.029-.365l.428-.045c.31-.03.518-.117.518-.266 0-.162-.074-.427-.194-.78l-.648-2.004ZM7.466 9.129c-.12.34-.104.353.307.353h1.822c.428 0 .46-.058.324-.457l-.797-2.402c-.12-.353-.25-.751-.34-.926h-.03c-.045.07-.19.428-.357.868l-.93 2.564Z" clip-rule="evenodd"/>
    </g>
  </g>
  <defs>
    <clipPath id="a">
      <path fill="#fff" d="M0 0h18v18H0z"/>
    </clipPath>
    <clipPath id="b">
      <path fill="#fff" d="M3.989 3.9h9.89v10h-9.89z"/>
    </clipPath>
  </defs>
</svg>
