<svg xmlns="http://www.w3.org/2000/svg" viewBox="0 0 18 18">
  <g clip-path="url(#a)">
    <path d="M0 0h18v18H0V0Z"/>
    <path fill="#fff" d="M13.25 10.67a1.25 1.25 0 1 0 0 2.502 1.25 1.25 0 0 0 0-2.501Zm.752 1.267a.746.746 0 1 1-1.491-.015.746.746 0 0 1 1.491.015ZM4.75 10.67a1.26 1.26 0 0 0-.884 2.151 1.25 1.25 0 0 0 2.135-.884 1.26 1.26 0 0 0-1.25-1.266Zm.754 1.267a.753.753 0 0 1-.753.738.753.753 0 0 1-.739-.753.746.746 0 1 1 1.492.015ZM9 3.8a1.25 1.25 0 1 0 0 2.5 1.25 1.25 0 0 0 0-2.5Zm.753 1.25a.739.739 0 1 1-1.477 0 .739.739 0 0 1 1.477 0Z"/>
    <path fill="#fff" d="M12.798 10.821 10.024 5.82l-.03-.046-.03.046a1.069 1.069 0 0 1-.346.286l-.03.014.014.03 2.457 4.431a14.502 14.502 0 0 0-3.014-.301 13.474 13.474 0 0 0-3.104.301l2.456-4.415.015-.03-.03-.014a1.069 1.069 0 0 1-.347-.287l-.03-.045-.03.045-2.772 4.987-.015.03.045.015c.136.045.257.21.377.316l.014.015.015-.014h.014c1.11-.27 2.25-.396 3.39-.377a12.828 12.828 0 0 1 3.3.377l.015.03.03-.03c.12-.106.241-.272.377-.317l.045-.014-.012-.03Z"/>
  </g>
  <defs>
    <clipPath id="a">
      <path fill="#fff" d="M0 0h18v18H0z"/>
    </clipPath>
  </defs>
</svg>
