<svg xmlns="http://www.w3.org/2000/svg" viewBox="0 0 18 18">
  <g clip-path="url(#a)">
    <path fill="#000312" d="M0 0h18v18H0V0Z"/>
    <path fill="#CCF5F0" fill-rule="evenodd" d="M9 13.438a4.798 4.798 0 0 1-3.81-1.106 4.809 4.809 0 0 0 3.802 1.86 4.808 4.808 0 0 0 3.772-1.82A4.798 4.798 0 0 1 9 13.438Zm5.5-4.769A4.817 4.817 0 0 0 9 3.899c1.265.18 2.371.85 3.12 1.813a4.807 4.807 0 0 1 1.69 3.663 4.797 4.797 0 0 1-1.046 2.997A4.807 4.807 0 0 0 14.5 8.67Z" clip-rule="evenodd"/>
    <path fill="#66DECF" fill-rule="evenodd" d="M12.12 5.712A4.818 4.818 0 0 1 9 13.438a4.798 4.798 0 0 0 3.764-1.066 4.797 4.797 0 0 0 1.046-2.997c0-1.466-.656-2.78-1.69-3.663Z" clip-rule="evenodd"/>
    <path fill="#CCF5F0" fill-rule="evenodd" d="M5.911 5.674a4.812 4.812 0 0 1 3.09-1.772 4.817 4.817 0 0 0-3.81 8.432 4.797 4.797 0 0 1-1.016-2.957c0-1.489.675-2.82 1.736-3.703Z" clip-rule="evenodd"/>
    <path fill="#66DECF" fill-rule="evenodd" d="M9 13.438a4.818 4.818 0 0 1-3.089-7.766 4.807 4.807 0 0 0-1.736 3.703c0 1.115.379 2.141 1.014 2.957A4.798 4.798 0 0 0 9 13.438ZM5.911 5.671a4.798 4.798 0 0 1 3.081-1.114c1.194 0 2.287.435 3.128 1.154A4.812 4.812 0 0 0 9 3.9a4.812 4.812 0 0 0-3.089 1.772Z" clip-rule="evenodd"/>
    <path fill="#00C9AD" fill-rule="evenodd" d="M5.911 5.673A4.818 4.818 0 0 0 9 13.439a4.818 4.818 0 0 0 3.12-7.726 4.798 4.798 0 0 0-3.128-1.154 4.798 4.798 0 0 0-3.08 1.114Zm6.057 3.35a2.968 2.968 0 1 1-5.936 0 2.968 2.968 0 0 1 5.936 0Z" clip-rule="evenodd"/>
  </g>
  <defs>
    <clipPath id="a">
      <path fill="#fff" d="M0 0h18v18H0z"/>
    </clipPath>
  </defs>
</svg>
