<svg xmlns="http://www.w3.org/2000/svg" viewBox="0 0 18 18">
  <g clip-path="url(#a)">
    <path fill="#fff" d="M0 0h18v18H0V0Z"/>
    <path fill="#00A9ED" d="M14.935 8.071v1.847a.281.281 0 0 1-.079.196.265.265 0 0 1-.19.08H10.53a.265.265 0 0 0-.19.082.28.28 0 0 0-.077.195l.003 4.24a.278.278 0 0 1-.165.256.263.263 0 0 1-.104.021H8.202a.263.263 0 0 1-.19-.082.28.28 0 0 1-.079-.195v-4.242a.28.28 0 0 0-.166-.255.267.267 0 0 0-.103-.021h-4.13a.266.266 0 0 1-.19-.08.28.28 0 0 1-.079-.196V8.072a.281.281 0 0 1 .166-.255.265.265 0 0 1 .103-.022h4.13a.263.263 0 0 0 .19-.08.276.276 0 0 0 .08-.196V3.276a.281.281 0 0 1 .165-.255A.265.265 0 0 1 8.202 3h1.796a.27.27 0 0 1 .191.08.28.28 0 0 1 .078.196v4.243a.281.281 0 0 0 .166.255.265.265 0 0 0 .103.021h4.13a.272.272 0 0 1 .27.276ZM6.09 3.648l1.457 3.246a.114.114 0 0 1-.042.144.107.107 0 0 1-.05.017H3.858a.106.106 0 0 1-.087-.052.112.112 0 0 1-.009-.102l.999-2.534a.103.103 0 0 1 .074-.065.098.098 0 0 1 .094.03l.324.35a.1.1 0 0 0 .087.033.098.098 0 0 0 .076-.058l.49-1.011a.102.102 0 0 1 .078-.062.097.097 0 0 1 .105.064Zm-.227 1.686.103.077c.05.038.098.012.152-.02.096-.05.306-.158.235-.341l-.276-.72a.1.1 0 0 0-.188-.016c-.133.276-.279.588-.409.864a.102.102 0 0 1-.073.06.096.096 0 0 1-.089-.029l-.315-.312a.096.096 0 0 0-.084-.032.095.095 0 0 0-.072.053c-.213.564-.245.591.081.81a.097.097 0 0 0 .132-.018l.147-.174a.1.1 0 0 1 .14-.015l.093.078a.098.098 0 0 0 .119.005.098.098 0 0 0 .028-.031l.132-.21a.102.102 0 0 1 .066-.048.096.096 0 0 1 .078.019Zm-.794 6.5a.996.996 0 0 0-.564.174 1.035 1.035 0 0 0-.372.468 1.068 1.068 0 0 0 .22 1.136.99.99 0 0 0 1.105.225 1.02 1.02 0 0 0 .456-.384 1.062 1.062 0 0 0-.128-1.315 1.01 1.01 0 0 0-.717-.305Zm-.142-.314v-.683c0-.023.01-.045.025-.062a.088.088 0 0 1 .062-.027h.105a.083.083 0 0 1 .061.027.089.089 0 0 1 .027.062v.683a.091.091 0 0 1-.053.083.083.083 0 0 1-.034.007h-.108a.084.084 0 0 1-.06-.028.089.089 0 0 1-.026-.062h.001Zm2.21 1.297v.11a.085.085 0 0 1-.088.089h-.66a.086.086 0 0 1-.088-.088v-.11c0-.024.01-.047.025-.064a.087.087 0 0 1 .063-.026h.663a.084.084 0 0 1 .08.055.08.08 0 0 1 .007.034h-.001ZM5.214 14.23v.68a.091.091 0 0 1-.025.064.087.087 0 0 1-.063.026h-.108a.083.083 0 0 1-.061-.026.089.089 0 0 1-.026-.064v-.682a.09.09 0 0 1 .054-.082.087.087 0 0 1 .033-.006h.108c.024 0 .046.01.063.025.016.017.025.04.025.063v.002ZM3.75 13.02h-.663A.087.087 0 0 1 3 12.931v-.11c0-.024.01-.047.025-.064a.085.085 0 0 1 .063-.025h.663a.08.08 0 0 1 .061.025.09.09 0 0 1 .026.064v.11a.091.091 0 0 1-.024.064.087.087 0 0 1-.063.025Zm1.854-1.32a.088.088 0 0 1 .009-.068l.336-.588a.088.088 0 0 1 .118-.033l.093.055a.089.089 0 0 1 .04.056.092.092 0 0 1-.009.068l-.336.588a.087.087 0 0 1-.074.044.089.089 0 0 1-.044-.012l-.092-.056a.091.091 0 0 1-.04-.055v.001Zm1.278 2.2-.054.096a.084.084 0 0 1-.119.032l-.572-.346a.09.09 0 0 1-.04-.054.092.092 0 0 1 .009-.068l.054-.096a.089.089 0 0 1 .119-.031l.572.345a.087.087 0 0 1 .04.054.11.11 0 0 1 .003.036.09.09 0 0 1-.012.033Zm-2.357.217-.336.588a.086.086 0 0 1-.118.032l-.093-.056a.089.089 0 0 1-.04-.055.096.096 0 0 1 .009-.068l.336-.588a.085.085 0 0 1 .053-.04.087.087 0 0 1 .066.008l.093.055a.089.089 0 0 1 .03.124Zm-1.268-2.27.054-.095a.09.09 0 0 1 .12-.033l.572.347a.085.085 0 0 1 .041.054.085.085 0 0 1-.01.067l-.055.096a.087.087 0 0 1-.118.033l-.573-.346a.091.091 0 0 1-.031-.122Zm2.875.21.573-.346a.087.087 0 0 1 .066-.009.09.09 0 0 1 .054.041l.055.095a.091.091 0 0 1-.031.121l-.573.348a.077.077 0 0 1-.044.012.081.081 0 0 1-.043-.012.085.085 0 0 1-.032-.031l-.055-.095a.092.092 0 0 1 .03-.123Zm.071 2.495c.012.02.014.045.01.069a.096.096 0 0 1-.041.055l-.093.055a.083.083 0 0 1-.087 0 .092.092 0 0 1-.031-.031l-.339-.588a.092.092 0 0 1 .031-.122l.093-.057a.086.086 0 0 1 .066-.008c.022.006.04.02.053.04l.338.587Zm-2.195-.862-.572.348a.083.083 0 0 1-.066.009.084.084 0 0 1-.052-.042l-.055-.096a.091.091 0 0 1 .031-.12l.573-.348a.088.088 0 0 1 .118.031l.054.096a.09.09 0 0 1-.03.123v-.001Zm-.068-2.494a.091.091 0 0 1 .03-.122l.092-.057a.086.086 0 0 1 .066-.008c.022.006.041.02.053.04l.338.587a.093.093 0 0 1-.03.123l-.092.056a.09.09 0 0 1-.046.012.092.092 0 0 1-.074-.044l-.337-.588v.001Zm9.603-5.268a1.137 1.137 0 0 1-.332.836 1.09 1.09 0 0 1-.373.256c-.145.058-.3.086-.456.085a1.1 1.1 0 0 1-.827-.342 1.128 1.128 0 0 1-.334-.837c.005-.2.05-.398.131-.581.075-.186.168-.364.279-.53l.16-.261.2-.318a3.96 3.96 0 0 0 .13-.226l.004-.007c.04-.077.08-.155.118-.234l.064-.144a.083.083 0 0 1 .056-.041.084.084 0 0 1 .068.015c.012.01.023.023.029.037l.012.028c.089.198.19.388.302.572.305.485.475.764.511.838.153.258.24.552.257.852l.001.002Zm-.318.001a.091.091 0 0 0-.016-.06l-.008-.008-.003-.003a.09.09 0 0 0-.06-.024h-.089a.094.094 0 0 0-.06.024.1.1 0 0 0-.032.06v.017a.662.662 0 0 1-.188.412.63.63 0 0 1-.402.187l-.01.001a.096.096 0 0 0-.082.095v.096a.089.089 0 0 0 .044.077c.012.006.027.01.04.01a.888.888 0 0 0 .653-.335.942.942 0 0 0 .211-.548h.002Zm1.288 7.072h-2.556a.09.09 0 0 0-.086.089v.11a.09.09 0 0 0 .086.09h2.557a.086.086 0 0 0 .08-.055.09.09 0 0 0 .008-.035v-.11a.089.089 0 0 0-.089-.09Zm.485-.486v.11c0 .024-.01.046-.025.063a.086.086 0 0 1-.062.026h-2.556a.085.085 0 0 1-.06-.026.09.09 0 0 1-.027-.063v-.108a.09.09 0 0 1 .025-.065.089.089 0 0 1 .062-.026h2.556a.09.09 0 0 1 .063.026c.016.018.025.04.025.064v-.001h-.001Zm-.785 1.152v.109a.1.1 0 0 1-.024.064.086.086 0 0 1-.062.026h-2.4a.903.903 0 0 1-.459-.126.941.941 0 0 1-.204-1.46.87.87 0 0 1 .473-.268.088.088 0 0 0 .065-.06v-.004a.924.924 0 0 1 .104-.284.909.909 0 0 1 1.56-.06l.02.029a.086.086 0 0 0 .097.037l.003-.001a.098.098 0 0 0 .02-.01l.011-.008h.003a.496.496 0 0 1 .473-.004.535.535 0 0 1 .28.365v.034a.091.091 0 0 1-.024.063.087.087 0 0 1-.062.027h-.107a.085.085 0 0 1-.08-.056v-.002a.247.247 0 0 0-.482-.016v.004a.089.089 0 0 1-.085.068h-.108a.091.091 0 0 1-.085-.07v-.02a.655.655 0 0 0-.39-.516.622.622 0 0 0-.75.21.667.667 0 0 0-.132.398v.055a.09.09 0 0 1-.054.084.086.086 0 0 1-.033.006h-.054a.635.635 0 0 0-.554.324.656.656 0 0 0 .236.884.63.63 0 0 0 .318.087v.002h2.4a.08.08 0 0 1 .06.026.089.089 0 0 1 .026.063Zm-.794-2.015-.012.008a.086.086 0 0 1-.018.01.326.326 0 0 1 .03-.018Z"/>
  </g>
  <defs>
    <clipPath id="a">
      <path fill="#fff" d="M0 0h18v18H0z"/>
    </clipPath>
  </defs>
</svg>
