<svg xmlns="http://www.w3.org/2000/svg" viewBox="0 0 18 18">
  <g clip-path="url(#a)">
    <path fill="#fff" d="M0 0h18v18H0V0Z"/>
    <path fill="#FF9C1A" d="M9.283 10.17c0 .628.246 1.23.688 1.676.851.851 2.007.85 2.744.45.904-.49 2.93-1.958.824-8.046 0 2.874-4.256 3.166-4.256 5.92Z"/>
    <path fill="#0DA9FF" d="M11.22 6.766c-.14-.753-.363-1.525-.698-2.516 0 2.874-4.256 3.166-4.256 5.92 0 .628.246 1.23.687 1.676.852.851 2.017.848 2.745.45C8.002 10.49 8.6 8.401 11.22 6.765Z"/>
    <path fill="#00A443" d="M8.204 6.766c-.14-.753-.364-1.525-.698-2.516 0 2.874-4.256 3.166-4.256 5.92 0 1.414 1.144 2.036 1.144 2.036a6.32 6.32 0 0 0-.11 2.306l.546-.09c-.266-.93-.103-1.94-.086-2.04.698.28 1.42.197 1.936-.086-1.695-1.805-1.097-3.893 1.524-5.53Z"/>
  </g>
  <defs>
    <clipPath id="a">
      <path fill="#fff" d="M0 0h18v18H0z"/>
    </clipPath>
  </defs>
</svg>
