<svg xmlns="http://www.w3.org/2000/svg" viewBox="0 0 18 18">
  <g clip-path="url(#a)">
    <path fill="#fff" d="M0 0h18v18H0V0Z"/>
    <path fill="#367BC0" d="M6.945 14.232c.325-.136.624-.328.882-.568.278-.227.546-.463.816-.7a.523.523 0 0 1 .75 0c.371.344.762.668 1.169.97.079.056.16.107.245.154.083.05.173.087.265.133a.641.641 0 0 1-.086.041c-.24.076-.48.155-.72.22a.384.384 0 0 1-.247-.04 2.929 2.929 0 0 1-.617-.363 9.093 9.093 0 0 1-.36-.274.056.056 0 0 0-.066.015 5.293 5.293 0 0 1-.786.543.772.772 0 0 1-.347.123.873.873 0 0 1-.242-.04 23.325 23.325 0 0 1-.562-.176.638.638 0 0 1-.094-.038Zm7.249-7.266c-.06.167-.146.324-.255.463-.294.397-.608.78-.94 1.144a.565.565 0 0 0-.106.155.52.52 0 0 0 .1.58c.27.308.539.629.801.95.16.188.294.396.4.618.015.035.027.074.047.123a.54.54 0 0 0 .034-.063c.071-.244.144-.487.213-.731a.272.272 0 0 0 .008-.127.9.9 0 0 0-.07-.23 12.2 12.2 0 0 0-.343-.567c-.078-.117-.167-.225-.25-.336.106-.145.213-.287.308-.432.13-.172.235-.363.309-.566a.343.343 0 0 0 .023-.174 13.435 13.435 0 0 0-.176-.617c-.02-.068-.053-.134-.083-.21l-.016.02h-.004ZM10.91 3.728c-.21-.065-.42-.131-.63-.19a.514.514 0 0 0-.235-.023 1.13 1.13 0 0 0-.336.131c-.231.143-.454.308-.677.463a.062.062 0 0 1-.087 0c-.141-.105-.282-.212-.428-.309a1.803 1.803 0 0 0-.525-.274.288.288 0 0 0-.132-.019c-.235.06-.463.125-.703.191a1.186 1.186 0 0 0-.155.062c.091.043.176.079.256.122.08.047.157.099.232.154.393.287.77.596 1.129.925a.524.524 0 0 0 .732 0c.3-.256.594-.51.902-.749.216-.193.465-.345.736-.447a.353.353 0 0 0-.074-.036l-.005-.001Zm-5.325 9.369c.177-.155.36-.33.535-.502a654.82 654.82 0 0 0 2.222-2.19l.278-.274a.55.55 0 0 1 .78-.019l.497.508c.336.333.67.666 1.009.998.384.374.77.747 1.156 1.12l.415.4c.037.037.076.072.117.104l-.024.021a2.28 2.28 0 0 1-.165.136c-.08.059-.162.114-.244.171-.082.057-.154.105-.227.154-.072.05-.095.037-.13.01l-.155-.115a6.913 6.913 0 0 1-.382-.291c-.657-.55-1.284-1.166-1.89-1.747l-.357-.344-.347.337c-.622.588-1.26 1.205-1.928 1.774-.116.097-.24.188-.363.278l-.13.095a.172.172 0 0 1-.067.034.153.153 0 0 1-.048 0 19.96 19.96 0 0 1-.554-.378 2.1 2.1 0 0 1-.165-.134l.167-.146Zm7.643-7.679c.188.22.357.454.506.702.015.026.01.037 0 .049l-.023.042c-.036.06-.071.12-.111.175-.297.391-.616.765-.956 1.119-.289.308-.582.616-.875.925l-.482.509.236.245c.14.145.277.288.414.433l.105.11c.501.53 1.021 1.08 1.484 1.658.055.07.106.146.154.22.023.036.048.073.072.107a.122.122 0 0 1 0 .154l-.245.358-.19.27a.33.33 0 0 1-.038.044 25.653 25.653 0 0 0-1.248-1.33l-.342-.35c-.335-.345-.674-.687-1.013-1.028l-.49-.496a.538.538 0 0 1 0-.795l.755-.77 1.434-1.46c.193-.196.38-.396.568-.596l.24-.255a.275.275 0 0 0 .033-.037l.008-.008.004.005Zm-7.726-.711c.058-.052.12-.101.183-.146.12-.085.244-.166.367-.246l.13-.086a.05.05 0 0 1 .06 0l.079.048c.073.04.143.088.208.14l.097.082c.34.288.69.586 1.024.89.296.27.59.552.874.825l.38.364.026.023.066.057.256-.247.424-.405.053-.05c.489-.462.993-.944 1.522-1.377.113-.093.236-.179.355-.262l.098-.07a.11.11 0 0 1 .155 0l.273.204c.117.08.232.154.347.245.012.008.03.023.046.036l-.05.046-.05.046c-.309.284-.628.579-.926.876-.53.518-1.058 1.041-1.587 1.562l-.52.514a.535.535 0 0 1-.784 0l-.43-.423a775.992 775.992 0 0 0-2.09-2.043 20.26 20.26 0 0 0-.509-.463l-.12-.108.042-.032Z"/>
    <path fill="#43B649" d="M3.756 11.02c-.026-.062-.052-.116-.07-.172a15.586 15.586 0 0 1-.178-.635.39.39 0 0 1 .026-.236c.085-.215.2-.418.34-.602a7.036 7.036 0 0 1 .287-.386.062.062 0 0 0-.015-.07 5.05 5.05 0 0 1-.524-.767.617.617 0 0 1-.104-.367c.014-.095.037-.189.067-.28.052-.169.11-.335.168-.503a.483.483 0 0 1 .023-.054c.17.427.463.756.748 1.098.154.193.327.378.492.566a.521.521 0 0 1 0 .702c-.256.297-.515.592-.76.897-.155.184-.273.383-.401.579-.04.074-.072.151-.099.23Zm1.133-5.476c.224.246.455.499.691.74.577.59 1.155 1.178 1.734 1.762l.507.515a.538.538 0 0 1 0 .797l-.725.736c-.488.499-.978.998-1.47 1.497-.197.202-.39.41-.582.617l-.232.25c-.026.028-.049.057-.078.093a10.94 10.94 0 0 1-.372-.486 1.396 1.396 0 0 1-.133-.23.071.071 0 0 1 0-.04c.048-.096.103-.19.164-.278.318-.41.658-.803 1.018-1.178.28-.299.563-.597.846-.893l.463-.487-.168-.176c-.077-.08-.154-.154-.23-.239l-.068-.07c-.546-.572-1.112-1.162-1.625-1.778a4.6 4.6 0 0 1-.236-.319l-.086-.117c-.058-.077-.06-.128-.008-.193.072-.094.139-.191.206-.288.044-.063.087-.127.132-.188.044-.062.074-.093.11-.138l.031-.035.111.126Z"/>
  </g>
  <defs>
    <clipPath id="a">
      <path fill="#fff" d="M0 0h18v18H0z"/>
    </clipPath>
  </defs>
</svg>
