<svg xmlns="http://www.w3.org/2000/svg" viewBox="0 0 18 18">
  <g clip-path="url(#a)">
    <path fill="#ABD47D" d="M0 0h18v18H0V0Z"/>
    <path fill="#fff" d="M3.493 8.76a.15.15 0 0 1 .152-.151c.09 0 .153.062.153.152s-.063.152-.153.152c-.08 0-.143-.071-.152-.152Zm11.202 2.286c0-.08.063-.152.153-.152.08 0 .152.063.152.152 0 .08-.063.153-.152.153a.157.157 0 0 1-.153-.153ZM3 9.3c0-.135.116-.251.25-.251a.25.25 0 1 1 0 .502C3.117 9.54 3 9.433 3 9.299Zm1.013 1.46a.559.559 0 0 1 .537-.573.559.559 0 0 1 .574.538.559.559 0 0 1-.538.573h-.018a.543.543 0 0 1-.555-.538Zm1.38-.43a.692.692 0 0 1 .68-.708.692.692 0 0 1 .709.681.692.692 0 0 1-.681.708h-.018a.689.689 0 0 1-.69-.68Zm1.38-1.254a.88.88 0 0 1 .86-.897.88.88 0 0 1 .897.86.88.88 0 0 1-.86.897h-.02a.87.87 0 0 1-.878-.86ZM8.44 7.659a.88.88 0 0 1 .878-.879.88.88 0 0 1 .878.879.88.88 0 0 1-.878.878.874.874 0 0 1-.878-.878Zm1.954-.914A.771.771 0 0 1 11.19 6a.78.78 0 0 1 .744.744.771.771 0 0 1-1.541 0Zm1.3 1.326a.627.627 0 0 1 .608-.636.627.627 0 0 1 .637.609.627.627 0 0 1-.61.636h-.009a.62.62 0 0 1-.627-.61Zm.734 1.335a.482.482 0 0 1 .475-.493.482.482 0 0 1 .493.475.482.482 0 0 1-.475.493h-.01a.48.48 0 0 1-.483-.475Zm.824.923a.33.33 0 0 1 .323-.331c.18 0 .332.143.332.322a.33.33 0 0 1-.323.332h-.009a.321.321 0 0 1-.323-.323c-.009 0-.009 0 0 0Zm.753.52a.23.23 0 0 1 .224-.233.23.23 0 0 1 .233.224.23.23 0 0 1-.224.233.23.23 0 0 1-.233-.224ZM3.1 10.15c0-.206.17-.367.376-.367s.367.16.367.367a.363.363 0 0 1-.367.367.371.371 0 0 1-.376-.367Z"/>
  </g>
  <defs>
    <clipPath id="a">
      <path fill="#fff" d="M0 0h18v18H0z"/>
    </clipPath>
  </defs>
</svg>
