<svg xmlns="http://www.w3.org/2000/svg" viewBox="0 0 18 18">
  <g clip-path="url(#a)">
    <path d="M0 0h18v18H0V0Z"/>
    <path fill="#fff" d="M13.405 11.095c.032.032.084-.007.064-.045L9.992 5.038l-.658-1.136c-.025-.051-.07-.051-.096-.051-.026 0-.065.012-.084.064l-.942 3.161a.77.77 0 0 0 .735.993h.949c.548 0 1.07.24 1.432.652l2.077 2.374Z"/>
    <path fill="#fff" d="m7.56 7.283.736-2.457c.013-.046-.045-.071-.071-.033L4.012 12.09c-.025.052-.006.09.013.116.02.026.058.052.116.026l.013-.006L7.89 10.85a.773.773 0 0 0 .4-1.11l-.554-.968a1.858 1.858 0 0 1-.175-1.49Z"/>
    <path fill="#fff" d="M12.786 12.779h1.116c.051 0 .077-.039.09-.058.006-.02.02-.065-.013-.103l-2.813-3.226a.767.767 0 0 0-1.245.123l-.535.929a1.91 1.91 0 0 1-.993.832l-3.916 1.432a.036.036 0 0 0 .013.07h8.296Z"/>
  </g>
  <defs>
    <clipPath id="a">
      <path fill="#fff" d="M0 0h18v18H0z"/>
    </clipPath>
  </defs>
</svg>
