<svg xmlns="http://www.w3.org/2000/svg" viewBox="0 0 18 18">
  <g clip-path="url(#a)">
    <path fill="#00205C" d="M0 0h18v18H0V0Z"/>
    <g clip-path="url(#b)">
      <path fill="#fff" fill-rule="evenodd" d="M6.172 10.13c0 1.155-1.29 1.131-1.29 1.131H2.5V7.273l2.504.011s1.106.06 1.13.84c.048 1.106-.741 1.045-.741 1.045s.779.06.779.961ZM4.006 8.878s.656.109.656-.366c0-.474-.656-.328-.656-.328v.694Zm.656 1.107c0-.474-.656-.328-.656-.328v.693s.656.108.656-.365Zm10.836 1.236h-1.57s-.132-1.118-.29-1.313c-.16-.17-.475-.024-.475-.024v1.337h-1.46V7.284h2.567s1.045.133 1.069.958c.024.78-.778 1.009-.778 1.009s.22.013.426.244c.217.23.291.741.339 1.154.013.148.171.572.171.572Zm-1.691-2.746c0-.355-.658-.233-.658-.233v.561s.658.157.658-.328Z" clip-rule="evenodd"/>
      <path fill="#6786B8" d="M8.567 5.727h.39v7.148h-.39V5.727Z"/>
    </g>
  </g>
  <defs>
    <clipPath id="a">
      <path fill="#fff" d="M0 0h18v18H0z"/>
    </clipPath>
    <clipPath id="b">
      <path fill="#fff" d="M2.5 5.725h13v7.159h-13z"/>
    </clipPath>
  </defs>
</svg>
