<svg xmlns="http://www.w3.org/2000/svg" viewBox="0 0 18 18">
  <g clip-path="url(#a)">
    <path fill="#EC0000" d="M0 0h18v18H0V0Z"/>
    <path fill="#fff" d="M5.284 13.629c1.662 0 2.493-1.845 3.216-3.679.65-1.662 1.265-3.238 2.457-3.666.12-.049.097-.256-.036-.269-2.156-.097-3.168 2.371-3.95 4.314-.7 1.723-1.145 2.53-1.783 2.53-.494 0-.76-.391-.76-1.063 0-2.163 2.831-6.636 6.686-6.636 1.289 0 2.048.477 2.048 1.27 0 1.1-1.024 1.932-3 2.408-.144.037-.18.11-.18.184 0 .097.06.146.18.22.554.28.783.72.783 1.246 0 .868-.626 1.907-1.36 1.907a.475.475 0 0 1-.218-.05.914.914 0 0 0 .109-.44c0-.378-.29-.696-.615-.696s-.578.269-.578.611c0 .684.627 1.161 1.53 1.161 1.421 0 2.433-1.05 2.433-2.273 0-.72-.41-1.295-1.144-1.613 2.12-.306 3.409-1.259 3.409-2.64 0-1.16-1.169-1.955-2.987-1.955-4.578 0-7.926 3.837-7.926 7.051 0 1.284.626 2.078 1.686 2.078Z"/>
  </g>
  <defs>
    <clipPath id="a">
      <path fill="#fff" d="M0 0h18v18H0z"/>
    </clipPath>
  </defs>
</svg>
