<svg xmlns="http://www.w3.org/2000/svg" viewBox="0 0 18 18">
  <g clip-path="url(#a)">
    <path fill="#222" d="M0 0h18v18H0V0Z"/>
    <path fill="#ED1D25" d="M5.25 10.204V2.852h2.013v6.45c.008.294.003.59.004.883a1.908 1.908 0 0 0 3.668.695A1.903 1.903 0 0 0 8.03 8.63a1.99 1.99 0 0 0-.384.383V6.488a4.022 4.022 0 0 1 2.764-.164 3.998 3.998 0 0 1 2.6 2.463c.246.674.302 1.414.168 2.118a3.97 3.97 0 0 1-.805 1.744 4.018 4.018 0 0 1-1.444 1.131 4.012 4.012 0 0 1-3.84-.264 4.006 4.006 0 0 1-1.84-3.312Z"/>
    <path fill="#ED1D25" d="M8.963 8.665a1.501 1.501 0 1 1 .426 2.973 1.501 1.501 0 0 1-.426-2.973Z"/>
  </g>
  <defs>
    <clipPath id="a">
      <path fill="#fff" d="M0 0h18v18H0z"/>
    </clipPath>
  </defs>
</svg>
