<svg xmlns="http://www.w3.org/2000/svg" viewBox="0 0 18 18">
  <g clip-path="url(#a)">
    <path d="M0 0h18v18H0V0Z"/>
    <path fill="#fff" d="m15.488 8.991-4.138-.853a.066.066 0 0 1-.05-.086l.675-1.95a.014.014 0 0 0-.017-.018l-1.983.688a.068.068 0 0 1-.09-.05l-.87-4.086c-.004-.016-.027-.016-.03 0l-.889 4.096a.068.068 0 0 1-.089.05l-2.006-.697c-.011-.004-.022.007-.018.017l.684 1.972a.067.067 0 0 1-.05.087l-4.105.83a.015.015 0 0 0 0 .03l2.025.413 1.377-.52.307-.136.71-.272c.174.19.456.217.546.221a.552.552 0 0 1-.135-.184c-.048-.1-.043-.179-.042-.209a.487.487 0 0 1 .328-.45c.348-.115.6.298.6.298l1.542.107-.039.222c-.003.02.012.04.034.043l1.103.093a1.27 1.27 0 0 1-.084.438l-.003.006-.032.385a.927.927 0 0 1-.374.666c-.55.41-2.087 1.66-1.916 2.7l.528 2.52c.004.015.027.015.03 0l.843-4.044a.068.068 0 0 1 .089-.049l2.006.696c.011.004.021-.006.018-.017l-.686-1.979a.067.067 0 0 1 .05-.086l4.15-.863c.017-.004.017-.026 0-.029Z"/>
  </g>
  <defs>
    <clipPath id="a">
      <path fill="#fff" d="M0 0h18v18H0z"/>
    </clipPath>
  </defs>
</svg>
