<svg xmlns="http://www.w3.org/2000/svg" viewBox="0 0 18 18">
  <g clip-path="url(#a)">
    <path d="M0 0h18v18H0V0Z"/>
    <path fill="#fff" d="M8.105 12.41V8.827h.776c1.437 0 2.456.508 2.456 2.207 0 1.438-.614 2.12-1.981 2.12-.66 0-1.251-.025-1.251-.744Zm0-3.93V5.496c0-.453.075-.476.665-.476 1.656 0 2.397.36 2.397 1.603 0 1.127-.628 1.836-1.908 1.859H8.105ZM6.139 6.009v5.984c0 1.063-.108 1.162-1.097 1.174v.334h4.302c1.74 0 3.694-.31 3.694-2.386 0-1.508-1.382-2.151-2.598-2.398V8.69c1.061-.198 2.098-.84 2.098-2.09 0-1.829-2.24-2.101-3.694-2.101H5.042v.334c.99.012 1.097.111 1.097 1.174Z"/>
  </g>
  <defs>
    <clipPath id="a">
      <path fill="#fff" d="M0 0h18v18H0z"/>
    </clipPath>
  </defs>
</svg>
