<svg xmlns="http://www.w3.org/2000/svg" viewBox="0 0 18 18">
  <g clip-path="url(#a)">
    <path fill="#000F9F" d="M0 0h18v18H0V0Z"/>
    <g clip-path="url(#b)">
      <mask id="c" width="12" height="9" x="3" y="5" maskUnits="userSpaceOnUse" style="mask-type:luminance">
        <path fill="#fff" d="M15 5.25H3v8.195h12V5.25Z"/>
      </mask>
      <g mask="url(#c)">
        <path fill="#fff" d="M10.397 6.252c-.028-.055-.14-.038-.14-.038l.072.127s.11-.003.068-.089ZM4.4 7.76a.07.07 0 0 0 .045-.03c.024-.026.045-.043.114-.014a.158.158 0 0 1 .095.092.23.23 0 0 1-.018.166l-.004.007-.007-.002a.094.094 0 0 0-.061-.003.175.175 0 0 1-.054.007c-.09 0-.132-.096-.137-.156-.003-.038.007-.063.027-.067m.394.483.024-.011-.01.025a.451.451 0 0 1-.159.153l-.031.019.017-.033a.409.409 0 0 1 .16-.152m.112-.405.02.005c-.028.19-.06.44-.085.654l.015.013a.283.283 0 0 1 .076.131l.005.02.003.015-.006-.006-.019-.02a.312.312 0 0 1-.076-.132 31.3 31.3 0 0 0-.046.41l-.02-.001c.002-.104.005-.2.01-.289a.487.487 0 0 1-.152.14l-.01.006.005.06-.02.004a2.08 2.08 0 0 1-.03-.282L4.55 8.54a.453.453 0 0 1-.11-.19l-.003-.028.02.019a.411.411 0 0 1 .11.19l.008.035a3.123 3.123 0 0 1 .016-.518l.02.002c0 .003-.008.226 0 .496l.01-.017a.409.409 0 0 1 .158-.153l.024-.011-.01.025a.45.45 0 0 1-.159.153l-.023.014.004.1.003-.005a.408.408 0 0 1 .158-.153l.02-.01a3.19 3.19 0 0 1 .111-.649m.11.677-.026-.027a.453.453 0 0 1-.11-.191l-.003-.027.02.018a.412.412 0 0 1 .11.191l.009.036Zm-.037.09-.004-.003-.002-.003-.019-.02a.391.391 0 0 1-.095-.164l-.003-.027.02.018a.354.354 0 0 1 .095.164l.005.024v.002l.003.01Zm.02.098a.11.11 0 0 1 .067.127.42.42 0 0 1-.009.042.09.09 0 0 1-.028-.052.258.258 0 0 0-.05-.104.096.096 0 0 0-.023-.02.12.12 0 0 1 .043.007m-.074.1a.346.346 0 0 1-.084-.145l-.003-.027.02.018.002.003c.044.042.07.1.072.16l-.007-.008Zm-.382-.103a.453.453 0 0 1-.11-.191l-.003-.027.02.018a.412.412 0 0 1 .11.19l.008.037-.025-.027Zm-.093-.516a.412.412 0 0 1 .11.191l.009.036-.025-.027a.453.453 0 0 1-.111-.191l-.003-.027.02.018Zm-.116-.2a.296.296 0 0 1-.007-.089l.005-.047.015.045a.182.182 0 0 0 .23.134l.007.019a.3.3 0 0 1-.133.04.12.12 0 0 1-.045-.011c.005.085-.068.201-.068.292 0 .147.075.223.065.384-.032.516.014.276.226.293.239.017.305-.104.318-.213v-.008a.392.392 0 0 0 0-.043.07.07 0 0 1 .032.04.144.144 0 0 0 .085.11.277.277 0 0 0 .099.09l-.073.08c.079.002.172-.058.172-.11 0-.05-.046.017-.11-.044-.065-.062.184-.147.184.036 0 .182-.354.184-.335.402.014.152.155.197.41.086a.085.085 0 0 0-.029-.073l-.034.017c-.156.065-.162-.121-.007-.188.126-.065.08-.14.08-.14s-.007.06-.108.1a.253.253 0 0 0-.17.265s-.205-.14.16-.31c.265-.125-.026-.314-.026-.314s.1-.04.011-.092c-.104-.061-.021-.248-.021-.248s-.19.146-.05.29a.352.352 0 0 0-.092.084.262.262 0 0 0-.028-.168.322.322 0 0 0-.078-.078.28.28 0 0 0-.041-.02l.002-.007c.117-.205.402-.757.233-.974-.21-.269-.38-.18-.532-.18a.315.315 0 0 1-.24-.152.343.343 0 0 0-.075.247c.01.146.003.258-.094.298a3.188 3.188 0 0 1-.61.067.024.024 0 0 0-.011.031.024.024 0 0 0 .022.014c.2-.006.4.002.598.026a.288.288 0 0 1 .062.017"/>
        <path fill="#fff" d="M5.544 7.44a.436.436 0 0 0 .077-.089l.023-.044-.003.05a.12.12 0 0 1-.088.101l-.042.012.033-.03Zm.575.07.029-.042-.012.05a.595.595 0 0 1-.257.315l-.013-.016c.092-.096.177-.199.253-.308Zm.238.272c-.411.608-.645.655-.707.655l-.017-.001-.048-.012.049-.008c.22-.036.702-.64.707-.647l.016.013Zm.07.195c-.485.61-.706.69-.79.69a.07.07 0 0 1-.042-.01l-.025-.02.033.002c.077.007.242-.108.474-.33.177-.17.332-.344.334-.345l.015.013Zm.14.292.015.013c-.598.707-.86.767-.934.767-.007 0-.014 0-.021-.002l-.03-.01.03-.01c.3-.097.934-.752.94-.758m-.846-.29a.119.119 0 0 1-.109.07h-.005l-.044-.001.04-.018a.432.432 0 0 0 .101-.062l.035-.035-.018.047Zm-.687.609a.21.21 0 0 1 .077.066 2 2 0 0 1 .193-.324.897.897 0 0 0 .029-.935.797.797 0 0 1 .17.404s.286-.004.34.072a.37.37 0 0 1 .05.15l.036-.034a3.21 3.21 0 0 0 .322-.395l.017.01c-.161.312-.32.397-.327.4l-.046.025c.008.05.02.1.036.147a.948.948 0 0 1-.1-.186c-.036-.11-.122-.127-.32-.127.03.116.046.235.048.355l.07-.016a.34.34 0 0 0 .157-.092l.036-.04-.02.05a.174.174 0 0 1-.162.102h-.01l-.071-.003c.005.153-.002.307-.022.459a1.463 1.463 0 0 0-.001.16L5.6 8.83c.002 0 .268-.037.868-.706l.016.012c-.095.13-.197.253-.308.37-.221.229-.406.345-.55.345L5.6 8.85l-.064-.007c.005.128.027.255.064.378.414-.253.786-.57 1.102-.938 0 0-.158-.033-.266-.433a.744.744 0 0 0-.443-.483l-.004.04a.465.465 0 0 1-.216.317l-.07.047.057-.06c.085-.091.156-.195.209-.307l.016-.038a.914.914 0 0 0-.1-.034l-.017.046a.552.552 0 0 1-.316.343c.115-.103.215-.221.298-.352l.027-.039a1.133 1.133 0 0 0-.555 0c.106-.059.222-.1.342-.119.043-.011-.03.07.244.025.044-.003-.057.072.207.06.03.003-.059.057.125.092.053.01.035.041-.06.013-.079-.024-.118-.004.186.092.038.016.037.043-.08 0-.118-.042.115.126.203.217-.047.033-.038.096.029.159s0 .025.002.073a.363.363 0 0 0 .214.311l.052-.054c-.01-.04-.025-.11-.031-.142a.235.235 0 0 1-.147-.01.248.248 0 0 0 .142-.016 1.777 1.777 0 0 1-.01-.186c.006-.113.163-.174.222-.253a.212.212 0 0 0-.03-.056 2.074 2.074 0 0 1-.353.36s.26-.242.308-.414a.047.047 0 0 0 0-.024l-.057.052c-.01.01-.048.047-.07.047h-.003a.025.025 0 0 1-.017-.01.077.077 0 0 1-.01-.049l.001-.005a.638.638 0 0 1-.211.217s.271-.242.215-.43c-.019-.065-.165-.182-.165-.182.058.234-.151.453-.151.453s.188-.314.094-.487a.662.662 0 0 0-.2-.142.566.566 0 0 1-.01.453s.067-.339-.052-.474a.681.681 0 0 0-.225-.096.718.718 0 0 1 .12.465s-.058-.407-.186-.472a1 1 0 0 0-.234-.046c.118.115.19.268.206.432 0 0-.14-.387-.277-.424a.946.946 0 0 0-.235.005c.135.092.233.23.274.388 0 0-.205-.356-.346-.368a.822.822 0 0 0-.213.04c.142.077.253.2.311.35 0 0-.257-.317-.4-.316a.528.528 0 0 0-.174.058c.155.06.283.173.362.32 0 0-.298-.295-.44-.277a.589.589 0 0 0-.141.093.834.834 0 0 0-.47-.235c0 .036.007.072.02.106 0 0 .005-.137.158.02.11.112.082.153.205.13.097-.018.056.157.056.157a.435.435 0 0 1-.376-.224.356.356 0 0 0 .213.249c.115.13.323.134.447.122a.635.635 0 0 0-.117-.108.42.42 0 0 1 .21.1.047.047 0 0 0 .055 0 1.23 1.23 0 0 1 .365-.159s.047-.004 0 .022c-.047.025-.272.109-.334.19a.583.583 0 0 1 .233.268c.042.153-.003.403-.253.837a.61.61 0 0 0-.03.06m-.19.479c-.003.014-.022.127.073.096a.26.26 0 0 0 .137-.203.137.137 0 0 1-.082-.08l-.007.04a.18.18 0 0 1-.12.147Zm-.135.016a.303.303 0 0 0-.159.027c.05.027.103.048.158.061.015.003.08.01.089-.084l.001-.008a.339.339 0 0 1-.09.004Zm-.078-.419-.016.01.005.087a.412.412 0 0 1 .156-.147l.01-.005.008-.108-.004.01a.45.45 0 0 1-.16.153Zm4.778 2.835c-.128-.008-.283-.236-.67-.103a.363.363 0 0 1 .145-.165s-.572-.02-.6.008a.796.796 0 0 0-.186.462l.469-.1-.036-.058.076.026.035-.066.022.073.076.004-.06.051.024.076-.07-.039-.041.063-.011-.07-.392.106c.184.036.61.097.904-.019.383-.151.713-.24 1.096-.184-.313-.198-.63-.062-.781-.065m-.507-.329c.095-.33.208-.656.34-.973a.064.064 0 0 0-.069.006.44.44 0 0 0-.056.047c-.15.139-.365.1-.46.177-.077.061-.075.226-.138.3a.32.32 0 0 0-.068.084c-.017.044.005.092.004.14-.002.092-.112.158-.188.21a5.95 5.95 0 0 1 .635.01ZM5.45 9.455l.044-.021a.086.086 0 0 0-.035-.074l-.037.02c.019.02.029.047.028.075Zm.087-.138-.04.023a.105.105 0 0 1 .033.074l.037-.021a.085.085 0 0 0-.03-.076Zm1.272.223s-.124-.232.193-.634a1.079 1.079 0 0 1-.065-.14s-.806 1.079-1.287.63l-.016.283s.728-.303 1.763.057a.589.589 0 0 1 0-.393s-.325.218-.589.196m-1.366.168c.013.003.148.044.148-.063-.05.017-.1.038-.148.063Z"/>
        <path fill="#fff" d="M7.26 9.192c-.022-.007-.045.011-.064 0a.559.559 0 0 1-.166-.231c-.254.316-.188.512-.188.512a.585.585 0 0 0 .417-.281Zm.65.651s-.193-.117-.213-.22c-.022-.114.226-.254.226-.254s-.312.07-.33.199c-.013.094.179.261.318.275Z"/>
        <path fill="#fff" d="M7.913 9.497s-.184.03-.17.124c.013.097.207.19.207.19a.748.748 0 0 1-.162-.17c-.032-.079.125-.144.125-.144M3.74 5.85a.032.032 0 0 0 .042-.02l.015-.04a.033.033 0 0 0-.018-.042.032.032 0 0 0-.042.018l-.016.041a.033.033 0 0 0 .008.036.033.033 0 0 0 .011.006Zm-.061-.024.042-.109a.545.545 0 0 1-.128-.174c-.2.016-.4-.003-.593-.057h.001c.176.098.334.224.466.376a.537.537 0 0 1 .212-.036m8.587 3.303s-1.838-.76-2.406-.985c-.568-.224-.694-.362-.694-.362a.307.307 0 0 0-.112.283c.154-.009.63.18.63.18l2.544.97a.078.078 0 0 0 .038-.086m-5.069 2.679c-.033.075.27.16.398.178.127.02.104-.062.104-.062-.125.032-.501-.116-.501-.116m.749-1.598c-.05-.022-.034-.09-.048-.084a3.86 3.86 0 0 0-.164.514.137.137 0 0 0 .091.032c.065-.231.15-.45.121-.463Zm-.141.495a.162.162 0 0 1-.067-.02.028.028 0 0 0-.024-.001.028.028 0 0 0-.016.017.028.028 0 0 0 .01.032.15.15 0 0 0 .096.028.028.028 0 0 0 .02-.047.029.029 0 0 0-.02-.01m-.007.086a.13.13 0 0 1-.094-.032c-.028.109-.053.161 0 .177.053.015.066-.029.094-.146Zm-.128.231a.04.04 0 1 0 .02.044.035.035 0 0 0-.02-.044Zm.08-.003a.036.036 0 0 0 .02-.046.036.036 0 0 0-.023-.013.036.036 0 0 0-.026.007.036.036 0 0 0-.02.046.036.036 0 0 0 .049.005Zm-.126-.042c.01.02.029.031.044.024a.036.036 0 0 0 .01-.049c-.01-.02-.029-.031-.044-.024a.036.036 0 0 0-.01.049Zm5.34-3.988c.227.06.435.175.609.333a.767.767 0 0 0 .655.11c-.16-.025-.156-.154-.423-.351-.314-.232-.84-.092-.84-.092Zm1.848.552a.436.436 0 0 0-.419-.103c-.075.021-.224.08-.224.08.102.01.201.04.291.089.206.122.54.06.54.06a.633.633 0 0 1-.188-.126M8.917 9.022c-.03.007-.038.024-.038.039a.007.007 0 0 0 .003.006.007.007 0 0 0 .008 0c.005-.004.014-.005.03 0 .04.014-.298.658-.26.681.028.018.313-.59.361-.773a.185.185 0 0 1-.104.047m-.08.879s-.165.063-.154.106c0 0 0 .02.045.023.046.004.02.059.065.046.045-.012-.018-.06.015-.097.032-.038.054-.089.029-.078"/>
        <path fill="#fff" d="M9.17 9.771c-.014.162-.068.289-.139.326l-.01-.017s.08-.068.101-.304a.573.573 0 0 1 .185-.368l.014.015a.675.675 0 0 0-.152.348m.107-.397c-.104.073-.344.304-.318.47.031.196-.003.323-.173.282-.062-.024-.023-.06-.068-.076 0 0-.044-.01-.044.044s.111.183.362.073c.25-.111.03-.399.416-.822a.323.323 0 0 0-.174.03m.457.013c-.086-.023-.09-.082-.143-.08a.044.044 0 0 0-.046.053.1.1 0 0 0-.095.061s.07-.003.157-.013a.988.988 0 0 0 .127-.02m.144-.111c.112-.005.091-.026.091-.026s-.015-.04-.096-.036c-.081.004-.092.046-.092.046s-.016.022.097.016"/>
        <path fill="#fff" d="M10.017 9.339c.108-.043-.02-.067-.02-.067s.034.027-.12.035c-.154.008-.117-.023-.117-.023s-.127.028-.014.068a.49.49 0 0 0 .271-.013Zm.059.014a.698.698 0 0 1 .132-.012c.076 0 .088-.012.053-.054 0 0-.185-.008-.185.065m.231-.031c-.003.044.065.05.083.03.032-.036-.008-.116-.054-.116a.218.218 0 0 0-.091.024.058.058 0 0 1 .062.062m.174.025c1.056-.018 1.309.458 1.435.543a.128.128 0 0 0 .18-.015.129.129 0 0 0 .03-.059c-.27.054-.377-.241-.377-.241a3.767 3.767 0 0 1-.362-.137 2.838 2.838 0 0 0-.962-.166s.002.075.056.075M8.64 11.614l-.002-.007a.013.013 0 0 0-.006-.005.013.013 0 0 0-.014.003.013.013 0 0 0-.003.014.013.013 0 0 0 .025-.005Zm-.88-5.097c-.062.044-.086.09-.049.076a.523.523 0 0 0 .124-.09c.044-.048-.007-.035-.075.014Zm.179-.112c-.06.024-.087.058-.052.053a.43.43 0 0 0 .121-.05c.047-.03-.002-.03-.07-.003Z"/>
        <path fill="#fff" d="M7.567 6.637c-.006.016.142.017.142.017-.002-.053-.08-.015-.073-.046a.724.724 0 0 1 .278-.213c.103-.045.22-.07.176-.076a.76.76 0 0 0-.524.318m.192-.279c-.078-.02-.016-.127-.073-.084 0 0-.156.098.022.166 0 0 .139-.061.051-.082Zm-.551-.281c.096-.033.197-.054.3-.062-.107.028-.21.066-.31.113a.606.606 0 0 1-.034.124.893.893 0 0 1 .417-.075c-.041-.191.097-.313.093-.343a.028.028 0 0 0-.045-.018.446.446 0 0 1-.339.188c-.055.007-.075.023-.083.073m.164.344a.277.277 0 0 0-.149.085c.002.023.01.046.025.065a.336.336 0 0 0 .187-.016.21.21 0 0 1 .107.092.265.265 0 0 1 .138-.183s-.127-.023-.105-.099c-.059.043-.1.034-.203.056m-.126-.151c-.015.007-.025.014-.027.022a.592.592 0 0 1 .003.156.393.393 0 0 1 .198-.073.36.36 0 0 0 .193-.066l.009-.01c.018-.025-.012-.041-.062-.05-.007.017-.015.033-.014.017a.042.042 0 0 0-.005-.02.657.657 0 0 0-.066-.004c-.008.02-.02.046-.02.027a.05.05 0 0 0-.008-.027.795.795 0 0 0-.055.005s-.027.072-.025.043a.07.07 0 0 0-.019-.041l-.013.001c-.034.006-.039.026-.039.026s-.027.072-.025.043a.08.08 0 0 0-.024-.048m.806 3.261c.005-.02-.021-.024-.057-.018a.119.119 0 0 0-.09.075c-.011.035-.018 0-.006-.041-.045.023-.079.057-.065.09.028.074.204.173.204.173a.854.854 0 0 1 .014-.279Z"/>
        <path fill="#fff" d="M7.742 6.015a.037.037 0 1 1-.064-.027.037.037 0 0 1 .06.013.023.023 0 0 1 .004.014Zm.068-.011a.033.033 0 0 1 .057.024.033.033 0 1 1-.067 0c0-.009.003-.018.01-.024Zm.138.023a.029.029 0 1 1 0 .058.029.029 0 0 1 0-.058Zm1.23-.482a.023.023 0 0 1 .018-.008.026.026 0 0 1 .01.049.025.025 0 0 1-.024-.003.025.025 0 0 1-.004-.039m-1.756.218a.207.207 0 0 0-.067.122.137.137 0 0 0 .154-.004c.057-.044.09-.12.126-.112.061.014.127.048.07.112a.343.343 0 0 0-.074.3c.23.018.455.083.66.192.098.038.138.007.07-.019a.403.403 0 0 1-.132-.077.292.292 0 0 1-.089-.22.175.175 0 0 0-.062.149c-.066-.067-.04-.217-.04-.217a.18.18 0 0 0-.072 0 .607.607 0 0 0 .11-.087s.029-.006.035.043c.006.05.032-.028.017-.074a.097.097 0 0 1 .059.059c.009.035.042-.078-.076-.182a.64.64 0 0 0-.303-.122s.088-.2.527-.033c.162.062.167.157.235.154.068-.002.05-.045.113.02.063.064.054 0 .069-.008.015-.007.052.024.044-.026s.01-.032.028-.043c.02-.011.046-.16-.131-.237-.178-.078 0-.089.145.071.046.05.109.029.117.119.007.09.048.077.05.03.001-.048.066-.037.047.008-.019.044-.023.064.075.036.099-.028.035-.043.079-.073s.073.026.111-.005c.038-.03-.014-.102-.081-.134-.068-.032-.046-.09.023-.046.068.044.272.373.632.373.255 0 .095-.069.135-.115.039-.046.17-.052.149-.102-.02-.05-.1.027-.13-.014-.03-.04.09-.075.09-.138 0-.063-.211-.224-.257-.18-.031.028.015.05-.015.062-.025.012-.027-.042-.123-.051-.088-.008-.08.038.002.047.088.01.144.153-.046.153s-.219-.23-.657-.23c-.088 0 .111.058.061.092-.05.035-.09-.093-.147-.084-.057.01-.076-.017-.1.006-.036.034.101.03.101.075s-.223-.154-.698-.089c-.149.02.306.097.264.163-.043.066-.522-.31-.799.199-.27.007-.446.108-.413.203a.3.3 0 0 1 .114-.066Zm6.015 7.491a.015.015 0 0 1-.011.005.038.038 0 0 1-.018-.006.242.242 0 0 0-.094-.023h-.009v-.008a.051.051 0 0 1 .03-.05c.008-.002.078-.003.087.015v.002c.02.039.024.056.015.065Zm-.347-.206a.042.042 0 0 1-.02.004.143.143 0 0 1-.067-.018.135.135 0 0 0-.05-.015c-.023-.004-.048-.008-.048-.035 0-.027.018-.03.03-.031a.037.037 0 0 0 .02-.007.063.063 0 0 0 .011-.014.023.023 0 0 1 .01-.01.023.023 0 0 1 .015-.003h.001c.016.003.017.018.017.027 0 .016.002.038.049.058.031.013.039.021.04.03a.01.01 0 0 1-.003.007.013.013 0 0 1-.005.006m.583.06a.604.604 0 0 1-.245-.276c-.078-.166-.152-.01-.21-.027-.095-.028.027-.11-.095-.22-.123-.108-.134-.39-.167-.452a.193.193 0 0 0-.098-.072.051.051 0 0 0-.044.011c-.011.01-.026.033-.026.094.002.065.019.13.048.187a.3.3 0 0 1 .027.055l.004.011c.016.048.026.079.054.086.023.007.046.02.043.036 0 .008-.008.017-.032.017h-.005c-.069 0-.084-.04-.1-.086a.346.346 0 0 0-.035-.075.566.566 0 0 1-.061-.322.046.046 0 0 0-.046-.038c-.086 0-.15.063-.12.14.075.169.127.346.158.527.037.265.122.29.272.37.151.08.146.209.34.204.192-.005.276.223.361.157a.227.227 0 0 0-.023-.328"/>
        <path fill="#fff" d="m14.748 13.12.016.059-.034-.05a2.072 2.072 0 0 0-.258-.3l-.038-.038.048.02a.5.5 0 0 1 .266.31m-.99-.532a.114.114 0 0 1-.054.015.104.104 0 0 1-.035-.006.146.146 0 0 1-.083-.087 5.54 5.54 0 0 0-.21-.371l-.024-.04.038.026a.783.783 0 0 1 .2.272c.104.195.158.174.159.173l.01.018m-.466-.658a.24.24 0 0 1-.005-.06.099.099 0 0 0-.032-.083.123.123 0 0 1 .001-.119l.017-.03.002.035c0 .04.012.077.035.109.02.028.031.061.03.096a.197.197 0 0 0 .05.14l.055.047-.065-.03-.008-.005a.147.147 0 0 1-.079-.1m1.055.768c-.239 0-.185.177-.292.177-.107 0 .075-.095-.063-.215s-.175-.12-.266-.272a3.374 3.374 0 0 1-.323-.585c-.06-.187-.268-.401-.38-.367-.195.06-.245-.045-.41-.03-.25.023-.46-.022-.506-.151a.248.248 0 0 1-.198.199c-.116.03-.07.18-.232.206-.105.016-.225-.104-.435.013-.127.07-.297.135-.56-.08a.292.292 0 0 0-.388.02c.143.063.272.154.379.268.17.183.238.183.401.183.163 0 .333.098.543.095.21-.003.194-.069.458-.056.264.012.508-.13.71-.13.2 0 .582.525.676.772.09.233.19.3.314.312a.476.476 0 0 0 .179-.023.207.207 0 0 1-.08.053c.113.074.232.262.337.26a.107.107 0 0 0 .098-.056v-.001a.155.155 0 0 0 0-.159.117.117 0 0 1 .072.104.226.226 0 0 1 .068-.006c.173.007.295.032.34-.022.043-.053-.204-.509-.443-.509m-8.216-1.1a1.585 1.585 0 0 1-.78.116 1.24 1.24 0 0 1-.212-.051 1.07 1.07 0 0 0-.364-.056c.17-.019.342-.006.508.038.304.074.846-.06.852-.061l.077-.02-.08.034Zm-1.095.55c.08.048.14.122.173.21l.006.031-.023-.023a1.951 1.951 0 0 0-.236-.198.561.561 0 0 1-.174-.23l-.026-.064.044.054c.07.083.149.157.236.22m1.526-.384c-.053 0-.208.003-.313 0a.017.017 0 0 1-.015-.026.017.017 0 0 1 .01-.007l.044-.019c.333-.14.69-.209 1.052-.203.026-.05.057-.122.02-.164-.043-.05-.125-.016-.172.03-.047.046-.095.107-.16.103a.072.072 0 0 0-.098-.069.091.091 0 0 0-.01-.083.587.587 0 0 1-.196.22.495.495 0 0 0 .056-.34.476.476 0 0 1-.16.312l-.025-.27a.053.053 0 0 0-.014-.039.05.05 0 0 0-.037-.005.224.224 0 0 1-.133-.005c-.067-.036-.08-.145-.155-.16a.267.267 0 0 0-.057 0c-.102 0-.179-.09-.275-.125a.301.301 0 0 0-.328.143c.386-.038.435.113.435.113-.339-.225-1.098.126-1.324.157-.226.032-.242-.006-.355.215-.113.221.01.341.166.45.157.107.39.432.574.616.185.183.146.095.266.18.12.086.181-.09.217-.066.036.023-.016.097-.016.097.198.02.288.194.397.143.108-.052-.102-.53.032-.271.135.258-.064.174.224.148.289-.025.173-.142 0-.348a.338.338 0 0 0-.373-.13s-.153.057-.158.123c-.004.067-.077.062-.124.04s.06-.046.052-.095-.055-.09-.26-.13c-.206-.04-.478-.433-.434-.473.044-.04.336.1.677.058.341-.043.615-.04.803-.06a.468.468 0 0 0 .174-.05v-.005a.008.008 0 0 0-.003-.004.007.007 0 0 0-.005-.002"/>
        <path fill="#fff" d="M4.901 12.497c-.05-.058-.091-.092-.133-.087-.043.005-.074-.005-.097-.069-.023-.061.123-.113-.177-.314a.1.1 0 0 0 .013.058c.007.01.018.017.03.02l.045.005-.042.014a.09.09 0 0 1-.026.004.067.067 0 0 1-.035-.01.062.062 0 0 1-.03-.053.155.155 0 0 0-.048-.119.303.303 0 0 1-.092-.413c.05-.086.046-.232.37-.251.324-.02.284-.111.528-.14.245-.028.377-.117.311-.143a.287.287 0 0 0-.164.01c-.118.015-.23.023-.335.025-.112.111-.37.186-.337.153.04-.049.077-.1.11-.153-.325-.01-.551-.055-.63-.026-.12.044-.104.19-.16.266a.243.243 0 0 0 0 .287c.131.24.227.498.285.765.072.339.153.326.266.298.113-.029.132.262.351.316.22.054.026-.089.198-.073.101.01.203.01.304 0a1.238 1.238 0 0 1-.505-.37m2.245-.887-.034-.042c-.222.016-.44.067-.646.151 0 0 .188-.013.396-.013a.435.435 0 0 0-.026-.052l-.024-.04.039.026a.3.3 0 0 1 .064.067l.066.001a.352.352 0 0 0-.043-.07l-.022-.03.034.015a.23.23 0 0 1 .09.088l.06.003a.685.685 0 0 0-.05-.09l-.03-.047.044.032c.04.03.073.067.1.11l.059.007a1.088 1.088 0 0 0-.077-.115m.214-.049s-.058-.003-.151 0l.04.018a.343.343 0 0 1 .088.06.14.14 0 0 0 .022-.078Zm-.155.001a2.375 2.375 0 0 0-.088.005l.042.028a.6.6 0 0 1 .123.114.444.444 0 0 0 .026-.029.83.83 0 0 0-.07-.084l-.033-.034Zm.54.073.025.054a.34.34 0 0 1 .02.185c.01.005.019.01.027.016a.558.558 0 0 0-.002-.173l-.008-.04a.31.31 0 0 1 .057.253c.01.009.023.015.036.019a.616.616 0 0 0-.017-.202l-.019-.049c.059.072.09.16.09.253a.1.1 0 0 0 .066-.035c.013-.025.092-.165-.275-.281m-.005-.002-.005-.001a.516.516 0 0 1-.063.212.325.325 0 0 1 .07.011.417.417 0 0 0 .009-.16l-.011-.062Zm-.313.114c.008-.01.043-.072.135-.454l.02.004c-.008.075-.047.453-.121.479a.03.03 0 0 1-.01.002.036.036 0 0 1-.027-.014l-.015-.016h.018Zm.19-.435h.02s.004.111 0 .225c-.01.236-.046.254-.058.26a.029.029 0 0 1-.013.004.04.04 0 0 1-.025-.01l-.023-.017h.025c.008-.01.04-.072.074-.463m-.209.48a.112.112 0 0 0 .117.03s.1.068.127-.028c.027-.096.04-.667.04-.667a.073.073 0 0 1-.093-.019s-.226.536-.25.587c-.025.05.002.12.059.097m2.532-1.788a.021.021 0 0 1-.016.007c-.003 0-.006 0-.008-.002a.021.021 0 0 1-.007-.005.022.022 0 1 1 .03 0m-.083-.088a1.781 1.781 0 0 1-.007.121c.165.044.325.108.474.19a2.684 2.684 0 0 0-.013-.113 2.54 2.54 0 0 0-.454-.198Z"/>
        <path fill="#fff" d="M10.458 11.09a.022.022 0 0 1-.016.007.022.022 0 0 1-.022-.023.022.022 0 0 1 .022-.022c.005 0 .009.001.012.004a.022.022 0 0 1 .003.034Zm-.006.085a.023.023 0 0 1-.004.012.022.022 0 0 1-.034.003.022.022 0 0 1-.005-.024.023.023 0 0 1 .02-.014.022.022 0 0 1 .023.023Zm-.69-.262a.022.022 0 0 1-.038-.016.022.022 0 0 1 .022-.022c.003 0 .006 0 .009.002a.022.022 0 0 1 .007.036m-.032.107a.022.022 0 0 1-.016.007.023.023 0 0 1-.021-.027.022.022 0 0 1 .022-.018.022.022 0 0 1 .015.006.022.022 0 0 1 0 .032M9.476 9.9a.022.022 0 0 1 .014-.02.022.022 0 0 1 .02.002.022.022 0 0 1-.02.039.022.022 0 0 1-.012-.012.022.022 0 0 1-.002-.009Zm.033-.118a.023.023 0 0 1 .038.025.023.023 0 0 1-.044-.01.022.022 0 0 1 .006-.015Zm.013-.111a.022.022 0 0 1 .037.011.022.022 0 0 1-.034.023.022.022 0 0 1-.003-.034Zm0-.12a.022.022 0 0 1 .03 0 .023.023 0 0 1 .006.025.022.022 0 0 1-.02.014.021.021 0 0 1-.016-.007.022.022 0 0 1 0-.031Zm-.054.497a.023.023 0 0 1-.008.005.023.023 0 0 1-.02-.002.023.023 0 0 1-.01-.023.024.024 0 0 1 .006-.011.022.022 0 0 1 .032 0 .023.023 0 0 1 0 .031m-.042.095a.023.023 0 0 1-.016.006.022.022 0 0 1-.015-.007.023.023 0 0 1 .003-.034.022.022 0 0 1 .025 0 .022.022 0 0 1 .003.034Zm-.042.1a.022.022 0 0 1-.031 0 .022.022 0 0 1 0-.031.02.02 0 0 1 .007-.006.021.021 0 0 1 .009-.002c.003 0 .005 0 .008.002a.023.023 0 0 1 .007.036m-.043.11a.022.022 0 0 1-.038-.015c0-.006.003-.012.007-.016a.022.022 0 0 1 .015-.007.022.022 0 0 1 .022.023.022.022 0 0 1-.006.015Zm-.064.135a.02.02 0 0 1-.009-.002.023.023 0 0 1-.007-.005.023.023 0 0 1 0-.031.023.023 0 0 1 .007-.005.022.022 0 0 1 .03.02.022.022 0 0 1-.022.022m-.034.117a.023.023 0 0 1-.007.004.023.023 0 0 1-.009.002.023.023 0 0 1-.012-.004.022.022 0 0 1 .004-.039.022.022 0 0 1 .017 0 .023.023 0 0 1 .007.037m-.056.125a.02.02 0 0 1-.008-.002.023.023 0 0 1-.007-.036.021.021 0 0 1 .007-.005.022.022 0 0 1 .024.036.022.022 0 0 1-.016.007m-.033.132a.023.023 0 0 1-.007.005.022.022 0 0 1-.017 0 .023.023 0 0 1-.007-.005.023.023 0 0 1 0-.031.023.023 0 0 1 .016-.007c.004 0 .008.002.012.004a.022.022 0 0 1 .003.034m-.047.131a.022.022 0 0 1-.015.007.022.022 0 0 1-.016-.007.023.023 0 0 1 .007-.036.023.023 0 0 1 .03.025.022.022 0 0 1-.006.011Zm1.581.162c.139.07.262.166.362.285l-.015.014a2.236 2.236 0 0 0-.356-.282l.01-.017Zm-.223-.279a.022.022 0 0 1-.03 0 .022.022 0 0 1-.007-.011.022.022 0 0 1 .01-.023.022.022 0 0 1 .028.003.022.022 0 0 1 0 .031m.012-.137a.02.02 0 0 1-.007.005.022.022 0 0 1-.024-.005.022.022 0 0 1-.007-.016.022.022 0 0 1 .03-.02.022.022 0 0 1 .008.004.023.023 0 0 1 .005.024.022.022 0 0 1-.005.008Zm.25-.885a1.114 1.114 0 0 0-.431-.381l.007-.02c.411.162.681.563.78 1.16.044.285.053.574.025.861l-.02-.001c.027-.47-.014-1.133-.361-1.619m-.28.17a.02.02 0 0 1-.003.01.021.021 0 0 1-.007.008.022.022 0 0 1-.03-.005.022.022 0 0 1 .002-.03.022.022 0 0 1 .031 0 .022.022 0 0 1 .005.008.023.023 0 0 1 .002.009Zm-.061-.099a.022.022 0 0 1-.022-.022.022.022 0 0 1 .01-.018.022.022 0 0 1 .02-.002.022.022 0 0 1 .013.027.022.022 0 0 1-.021.015m-.044-.136a.023.023 0 0 1 .01-.019.022.022 0 0 1 .03.005.022.022 0 0 1 .004.02.022.022 0 0 1-.03.014.023.023 0 0 1-.014-.02Zm-.016-.108a.021.021 0 0 1-.015.006.022.022 0 0 1-.016-.038.022.022 0 0 1 .031 0 .02.02 0 0 1 .007.016.022.022 0 0 1-.007.016Zm-.075-.1c-.002 0-.005 0-.008-.002a.022.022 0 0 1-.01-.033.022.022 0 0 1 .04.017.022.022 0 0 1-.007.013.022.022 0 0 1-.014.005m.323-.05a.021.021 0 0 1 .015-.007.022.022 0 0 1 .016.038.022.022 0 0 1-.038-.016c0-.003 0-.006.002-.008a.023.023 0 0 1 .005-.008m.14.11-.002.01a.022.022 0 0 1-.02.014.022.022 0 0 1-.017-.008.023.023 0 0 1 .008-.036.022.022 0 0 1 .029.012.023.023 0 0 1 .001.009m.087.099a.023.023 0 0 1-.007.016.022.022 0 0 1-.015.006.022.022 0 0 1-.016-.038.022.022 0 0 1 .031 0 .023.023 0 0 1 .007.016m.057.074a.023.023 0 0 1-.014.02.022.022 0 0 1-.024-.005.023.023 0 0 1 .016-.038.022.022 0 0 1 .02.014.023.023 0 0 1 .002.009Zm.06.077-.001.009a.022.022 0 0 1-.005.007.022.022 0 0 1-.038-.016c0-.006.002-.011.007-.015a.023.023 0 0 1 .024-.005.022.022 0 0 1 .013.02Zm.055.088a.022.022 0 0 1-.004.012.022.022 0 0 1-.023.01.022.022 0 0 1-.01-.007.022.022 0 0 1-.007-.02c0-.003.002-.007.005-.01a.022.022 0 0 1 .03-.004.022.022 0 0 1 .01.019Zm.046.098-.001.008a.024.024 0 0 1-.005.007.022.022 0 0 1-.024.005.022.022 0 0 1 .017-.041.02.02 0 0 1 .007.005.023.023 0 0 1 .006.016m.028.11-.009-.002a.023.023 0 0 1-.013-.016l.001-.013a.022.022 0 0 1 .042.004.022.022 0 0 1-.009.023.022.022 0 0 1-.012.004Zm.027.08a.02.02 0 0 1 .007-.004.023.023 0 0 1 .017 0 .022.022 0 0 1-.017.041.022.022 0 0 1-.007-.005.022.022 0 0 1 0-.031Zm.086.212c.002 0 .005 0 .008.002a.023.023 0 0 1 .014.02.023.023 0 0 1-.022.023c-.003 0-.006 0-.009-.002a.022.022 0 0 1-.007-.005.022.022 0 0 1-.006-.011.029.029 0 0 1 .001-.013.023.023 0 0 1 .008-.01.023.023 0 0 1 .013-.004m-.009-.07a.022.022 0 0 1-.015.006.022.022 0 0 1-.022-.022.022.022 0 0 1 .022-.022c.002 0 .005 0 .008.002a.022.022 0 0 1 .013.02.023.023 0 0 1-.006.016Zm.436-.091a.022.022 0 0 1-.022-.018.022.022 0 0 1 .01-.023.022.022 0 0 1 .024 0 .022.022 0 0 1 .004.034.022.022 0 0 1-.016.007m.028.04a.02.02 0 0 1 .008.001.023.023 0 0 1 .008.005c.004.004.006.01.006.016a.023.023 0 0 1-.006.016.023.023 0 0 1-.008.005.023.023 0 0 1-.024-.005.022.022 0 0 1-.005-.024.023.023 0 0 1 .009-.01.022.022 0 0 1 .012-.005m.083.319a.023.023 0 0 1 .016.006c.004.005.006.01.006.016l-.001.009a.022.022 0 0 1-.033.01.022.022 0 0 1-.01-.023.024.024 0 0 1 .022-.018m-.034-.09a.022.022 0 1 1 0-.045.022.022 0 0 1 0 .045Zm-.19-.483a.022.022 0 0 1 .031 0 .023.023 0 0 1 0 .032.022.022 0 0 1-.038-.016.02.02 0 0 1 .007-.016Zm-.007-.05a.023.023 0 0 1-.024.005.023.023 0 0 1-.012-.029.022.022 0 1 1 .036.024Zm-.086-.086c0-.006.002-.012.006-.016a.022.022 0 0 1 .016-.007c.003 0 .006 0 .008.002a.023.023 0 0 1 .013.014.022.022 0 0 1-.013.027.022.022 0 0 1-.028-.01.021.021 0 0 1-.002-.01Zm-.788-.54.01.002a1.316 1.316 0 0 1 .875.78l.007.017a.798.798 0 0 1 .312-.076 1.56 1.56 0 0 0-.924-.675l-.007-.001.004-.02.006.002a1.445 1.445 0 0 1 1.087.91c.088.226.133.465.133.707h-.02a2.264 2.264 0 0 0-.045-.338c-.097.008-.56.076-.849.669l-.018-.008a1.056 1.056 0 0 1 .552-.613.811.811 0 0 1 .31-.07 1.773 1.773 0 0 0-.216-.543.713.713 0 0 0-.31.094c.029.073.053.148.072.224l.046-.02c0-.005.002-.009.004-.012a.022.022 0 0 1 .023-.008.022.022 0 0 1 .016.018.022.022 0 0 1-.021.025l-.009-.001a.022.022 0 0 1-.014-.02v-.002l-.04.034c.013.057.023.108.03.15l.041-.02-.038.035a1.2 1.2 0 0 1 .015.132l-.02.003a2.31 2.31 0 0 0-.021-.11c-.17.172-.307.374-.402.596l-.018-.007c.16-.446.372-.59.414-.613a2.35 2.35 0 0 0-.035-.136 1.76 1.76 0 0 0-.36.571l-.02-.007c.13-.414.312-.555.371-.59a2.057 2.057 0 0 0-.042-.124 2.474 2.474 0 0 0-.296.395l-.051.085.033-.093a.927.927 0 0 1 .306-.41 2.385 2.385 0 0 0-.028-.069.833.833 0 0 0-.31.41l-.02-.006a.664.664 0 0 1 .312-.445 1.604 1.604 0 0 0-.418-.565 1.192 1.192 0 0 0-.422-.238l-.01-.002.005-.018Zm.982.303a.022.022 0 0 1 .016.007.022.022 0 0 1 .003.028.022.022 0 0 1-.027.008.022.022 0 0 1 .008-.043m.077.062a.022.022 0 0 1 .016.038.022.022 0 0 1-.025.005.023.023 0 0 1-.004-.04.022.022 0 0 1 .013-.003Zm.043.058a.022.022 0 0 1 .016-.006.022.022 0 0 1 .022.022.022.022 0 0 1-.03.02.022.022 0 0 1-.012-.011.023.023 0 0 1 .004-.025Zm.054.063a.022.022 0 0 1 .016-.007.022.022 0 0 1 .015.038.022.022 0 0 1-.015.007.022.022 0 0 1-.02-.014.022.022 0 0 1 .004-.024Zm.066.084a.022.022 0 0 1 .024-.005.022.022 0 0 1 .012.012.023.023 0 0 1 .001.009.024.024 0 0 1-.002.01.021.021 0 0 1-.008.008.022.022 0 0 1-.03-.004.022.022 0 0 1-.004-.02.022.022 0 0 1 .007-.01Zm.1.164a.022.022 0 0 1 .016-.006.022.022 0 0 1 .012.04.022.022 0 0 1-.034-.023c0-.004.003-.008.006-.01Zm.057.072a.023.023 0 0 1 .016.007c.004.004.006.01.006.015a.024.024 0 0 1-.006.016.023.023 0 0 1-.016.007.022.022 0 0 1 0-.045Zm.024.075c.003 0 .006 0 .009.002a.022.022 0 0 1 .004.039.022.022 0 0 1-.025 0 .022.022 0 0 1-.01-.023.023.023 0 0 1 .014-.016.022.022 0 0 1 .008-.002Zm.027.074a.02.02 0 0 1 .008.002.02.02 0 0 1 .008.005.023.023 0 0 1 .006.011.023.023 0 0 1-.01.023.022.022 0 1 1-.012-.04m.039.084a.02.02 0 0 1 .008.002.022.022 0 0 1 .008.005.023.023 0 0 1 0 .031.024.024 0 0 1-.008.005.023.023 0 0 1-.017 0 .023.023 0 0 1-.013-.016l.001-.013a.022.022 0 0 1 .02-.014m.026.087a.02.02 0 0 1 .013.004.022.022 0 0 1 .003.034.024.024 0 0 1-.007.005.022.022 0 0 1-.024-.005.022.022 0 0 1-.005-.024.023.023 0 0 1 .008-.01.021.021 0 0 1 .012-.004Zm.04.102a.023.023 0 0 1-.014.021.023.023 0 0 1-.024-.005.022.022 0 0 1 0-.031.023.023 0 0 1 .016-.007.022.022 0 0 1 .016.007.024.024 0 0 1 .004.007.022.022 0 0 1 .002.008Zm.003.064a.023.023 0 0 1 .016.006.022.022 0 0 1 .005.024.022.022 0 0 1-.02.014.023.023 0 0 1-.013-.004.022.022 0 0 1-.01-.023.022.022 0 0 1 .022-.017m.04.102a.023.023 0 0 1 0 .031.022.022 0 0 1-.015.007.022.022 0 0 1-.016-.038.023.023 0 0 1 .024-.005.024.024 0 0 1 .007.005Zm.009.095a.022.022 0 0 1 .008.043.02.02 0 0 1-.008.002.022.022 0 0 1-.016-.007.022.022 0 0 1 .016-.038Zm-.93.513-.019-.008c.074-.174.187-.327.33-.45l.014.015a2.663 2.663 0 0 0-.325.443m-.773-.825a.02.02 0 0 1-.007.005.023.023 0 0 1-.009.002.022.022 0 0 1-.015-.007.023.023 0 0 1-.005-.024.02.02 0 0 1 .005-.007.021.021 0 0 1 .011-.007.03.03 0 0 1 .013.002.022.022 0 0 1 .012.029.022.022 0 0 1-.005.007Zm-.524-.764a.022.022 0 0 1-.032 0 .023.023 0 0 1 0-.032.022.022 0 0 1 .024-.004.022.022 0 0 1 .012.012.022.022 0 0 1-.004.024Zm-.05-.14a.022.022 0 0 1 .038-.015.022.022 0 0 1-.008.036.022.022 0 0 1-.03-.02M9.9 9.603a.022.022 0 0 1-.02-.014.022.022 0 1 1 .02.014m1.162 2.03s.235-.374.635-.08c0 0 .085-.473.405-.381 0 0-.013-.19.204-.15 0 0-.067-1.707-1.79-1.618-.328.018-.601.039-.786.055a.134.134 0 0 1 .022.025.612.612 0 0 1 .104.404c.155.032.303.085.443.16a1.971 1.971 0 0 0-.049-.217.75.75 0 0 0-.185-.36l-.003-.003.011-.016.006.005c.146.121.241.331.286.627.248.144.462.341.626.577l.002.003-.017.012-.002-.004a2.031 2.031 0 0 0-.504-.461.023.023 0 0 1-.007.016.023.023 0 0 1-.024.005.02.02 0 0 1-.007-.005.022.022 0 0 1 0-.032.025.025 0 0 1 .007-.004 2.427 2.427 0 0 0-.065-.041c.004.035.008.072.01.11.24.14.447.327.609.551l-.016.012a2.485 2.485 0 0 0-.496-.444.022.022 0 0 1-.008.012.023.023 0 0 1-.022.003.022.022 0 0 1-.014-.02c0-.007.003-.012.007-.017l.002-.001-.057-.038.004.122c.251.138.466.333.628.57l-.016.012a2.228 2.228 0 0 0-.611-.529v.094a1.64 1.64 0 0 1 .656.623l-.017.01a1.684 1.684 0 0 0-.641-.582 5.347 5.347 0 0 1-.004.102c.123.06.24.136.345.225.123.1.23.22.316.354l-.016.01a1.831 1.831 0 0 0-.649-.537 4.722 4.722 0 0 1-.008.108c.11.041.216.093.315.155.117.07.22.158.307.263l-.016.013a1.568 1.568 0 0 0-.512-.341.023.023 0 0 1-.022.02.022.022 0 0 1-.017-.037 3.918 3.918 0 0 0-.059-.024 5.202 5.202 0 0 1-.065.473l-.02-.003c.018-.147.035-.313.045-.486a2.69 2.69 0 0 0-.556-.14l.011.007a.022.022 0 0 1-.003.034.023.023 0 0 1-.021.002.02.02 0 0 1-.007-.005.023.023 0 0 1 0-.031.023.023 0 0 1 .007-.005.023.023 0 0 1 .008-.002 4.666 4.666 0 0 0-.082-.011c-.088.3-.18.532-.182.534l-.019-.006c.446-1.393.301-1.745.242-1.823a.25.25 0 0 0-.021-.021L9.7 9.461c-.149.013-.233.022-.233.022.01.168-.016.336-.076.493-.167.4-.314.809-.439 1.224 0 0 .42-.147.523.19a.562.562 0 0 1 .8.114s.357-.36.785.129"/>
        <path fill="#fff" d="M9.793 10.65a.022.022 0 0 1 .024-.005.021.021 0 0 1 .007.005.022.022 0 0 1 0 .031.023.023 0 0 1-.007.005.023.023 0 0 1-.009.002.023.023 0 0 1-.012-.004.022.022 0 0 1-.003-.034m-.097.115c.218.01.433.051.639.123a7.24 7.24 0 0 0 .004-.116 2.045 2.045 0 0 0-.595-.18 5.97 5.97 0 0 1-.048.173m.154-.202a.022.022 0 0 1-.014.007c-.005 0-.01 0-.015-.004a.022.022 0 0 1-.008-.027.023.023 0 0 1 .01-.011.023.023 0 0 1 .028.005.022.022 0 0 1-.002.03Zm.492.052a1.965 1.965 0 0 0-.56-.178 4.494 4.494 0 0 1-.032.134 1.7 1.7 0 0 1 .59.15l.002-.106m-.429-.52.009.001a.021.021 0 0 1 .007.005.023.023 0 0 1 0 .032.021.021 0 0 1-.007.004.022.022 0 0 1-.03-.016.022.022 0 0 1 .021-.026m-.09.132c.18.038.352.1.514.185a3.98 3.98 0 0 0-.008-.127 2.623 2.623 0 0 0-.482-.225 2.769 2.769 0 0 1-.023.167m.036.084a.023.023 0 0 1 .007-.005.022.022 0 0 1 .008-.001l.009.001a.023.023 0 0 1 .013.016.022.022 0 1 1-.037-.011Zm-.073.104c.192.016.38.066.554.148l-.002-.1a2.319 2.319 0 0 0-.52-.215c-.009.053-.02.109-.033.167m-4.16-.105a.048.048 0 0 1 .052.003.397.397 0 0 1 .194.372h-.02c-.017-.165-.085-.27-.198-.304a.052.052 0 0 1-.041-.038.033.033 0 0 1 .013-.033m1.253-.423c.256.061.506.145.748.248l-.008.019a4.827 4.827 0 0 0-.829-.24.048.048 0 0 1-.039.028h-.004c-.004 0-.013-.002-.016-.01-.002-.008.004-.012.008-.016a.05.05 0 0 0 .01-.009 3.755 3.755 0 0 0-.062-.01.07.07 0 0 0 .005.009c.003.004.008.01.004.017a.013.013 0 0 1-.012.006h-.006a.048.048 0 0 1-.035-.039c-.343-.05-.711-.052-.987.083l-.01-.018c.333-.218.854-.157 1.233-.067m-1.21-.112a.022.022 0 0 1 .016.006.022.022 0 0 1-.016.038.022.022 0 0 1-.016-.006.022.022 0 0 1 .016-.038Zm.13-.051a.022.022 0 0 1 .032 0 .022.022 0 1 1-.031 0Zm.147-.033a.022.022 0 0 1 .016-.007.022.022 0 0 1 .015.038.022.022 0 0 1-.037-.015c0-.006.002-.012.006-.016m.213-.024a.022.022 0 0 1 .024-.005.022.022 0 0 1 .007.005.023.023 0 0 1 0 .031.022.022 0 0 1-.036-.007.022.022 0 0 1 .005-.024Zm.214 0a.025.025 0 0 1 .016-.007.022.022 0 0 1 .016.007.022.022 0 1 1-.032 0Zm.232.024a.022.022 0 0 1 .031 0 .023.023 0 0 1-.007.037.022.022 0 0 1-.02-.003.022.022 0 0 1-.004-.034Zm.254.04a.022.022 0 1 1-.016.037.022.022 0 0 1 .004-.034.022.022 0 0 1 .012-.004Zm.196.057a.022.022 0 1 1 0 .044.022.022 0 0 1 0-.044Zm.21.69a.68.68 0 0 1 .27-.249c.031-.011.048-.002.054.01.005.013 0 .035-.025.047a.921.921 0 0 0-.282.204l-.056.062.04-.074Zm.136-.342a.039.039 0 0 1 .044-.009.03.03 0 0 1 .013.01.035.035 0 0 1 .006.028.036.036 0 0 1-.017.023l-.027.021a.472.472 0 0 0-.112.11l-.057.082.04-.091a.663.663 0 0 1 .11-.174Zm-.133.181-.023.06.004-.064a1.04 1.04 0 0 0-.01-.248.043.043 0 0 1 .01-.02.032.032 0 0 1 .033-.006.051.051 0 0 1 .028.046.593.593 0 0 1-.042.232m.355.082a.049.049 0 0 1-.033.035.916.916 0 0 0-.351.197l-.015-.013v-.001a.789.789 0 0 1 .314-.23l.02-.01c.032-.014.048-.007.055-.002a.025.025 0 0 1 .01.023m-.04.17a.057.057 0 0 1-.045.034.54.54 0 0 0-.39.255l-.018-.01a.577.577 0 0 1 .418-.32c.01.002.02.006.03.013a.03.03 0 0 1 .006.03m-.068.211-.023.008a.674.674 0 0 0-.364.248l-.048.06.031-.07a.59.59 0 0 1 .381-.308.04.04 0 0 1 .03 0 .04.04 0 0 1 .021.02c.005.014-.002.032-.028.042m-.414-.035-.02.004a.623.623 0 0 0-.298-.4c-.025-.011-.04-.027-.042-.044a.026.026 0 0 1 .013-.025.048.048 0 0 1 .05.005.654.654 0 0 1 .297.461m.028-.09h-.02a.567.567 0 0 0-.243-.48l-.005-.004a.046.046 0 0 1-.023-.04.028.028 0 0 1 .016-.023.047.047 0 0 1 .047.008.659.659 0 0 1 .229.54m-.108-.555L7.02 10.1c-.02-.02-.018-.04-.008-.05.01-.01.03-.011.05.006a.55.55 0 0 1 .134.358c.004.072 0 .143-.01.213l-.02-.002a.67.67 0 0 0-.142-.521m-.285.45a.064.064 0 0 1-.056-.032.025.025 0 0 1 .004-.026.06.06 0 0 1 .03-.012.06.06 0 0 1 .03.004c.358.088.346.512.346.516h-.02c-.044-.41-.33-.45-.333-.45m-.326.305h-.042l.006-.014c.112-.29.209-.588.288-.89.002-.008.013-.024.042-.018a.037.037 0 0 1 .026.015.022.022 0 0 1 .002.018l-.322.89Zm-.072-.318a.828.828 0 0 0-.424.196l-.014-.015a.9.9 0 0 1 .423-.232c.021-.007.041 0 .046.014.002.005.005.024-.032.037m-.372-.173a.67.67 0 0 1-.012.165l-.02-.002c.01-.273-.095-.353-.128-.37a.044.044 0 0 1-.026-.039.034.034 0 0 1 .02-.03.045.045 0 0 1 .048.01.341.341 0 0 1 .118.266m.081-.031a.718.718 0 0 1-.042.166l-.019-.006c.016-.076.06-.33-.05-.41-.03-.023-.03-.044-.028-.052a.033.033 0 0 1 .025-.025.05.05 0 0 1 .05.023.404.404 0 0 1 .064.304Zm.223-.3a.619.619 0 0 0-.102.133l-.034.055.015-.063A.595.595 0 0 1 6.226 10c.015-.026.032-.027.039-.027a.027.027 0 0 1 .023.02.042.042 0 0 1-.016.044m.186.065-.01.001a.346.346 0 0 0-.227.106l-.043.039.027-.051a.338.338 0 0 1 .24-.153c.03-.006.043.004.048.01a.023.023 0 0 1 .003.024.044.044 0 0 1-.038.024m0 .29c-.005.015-.023.024-.05.027h-.003a.602.602 0 0 0-.354.159l-.058.046.044-.06a.618.618 0 0 1 .362-.201.054.054 0 0 1 .055.007.021.021 0 0 1 .004.022m-.011-.143a.786.786 0 0 0-.457.338l-.017-.01a.782.782 0 0 1 .464-.386.052.052 0 0 1 .051.006.022.022 0 0 1 .006.022c-.004.014-.021.025-.047.03Zm-.377-.241a.05.05 0 0 1 .004-.056.034.034 0 0 1 .037-.01c.01.004.03.016.033.06a.822.822 0 0 1-.056.35l-.043.084.024-.091a.624.624 0 0 0 .001-.337Zm-.185.539c-.04-.221-.14-.263-.184-.28a.049.049 0 0 1-.034-.04.032.032 0 0 1 .016-.03.053.053 0 0 1 .056.008.41.41 0 0 1 .166.34l-.004.087-.016-.085Zm-.367-.693a.022.022 0 0 1-.031 0 .022.022 0 0 1 .016-.038.022.022 0 0 1 .015.038m-.036.91c.113-.003.164.12.164.12s.058-.132.178-.132.187.142.187.142a.232.232 0 0 1 .18-.108c.115 0 .18.145.18.145a.232.232 0 0 1 .219-.08.227.227 0 0 1 .144.183.248.248 0 0 1 .24-.053c.1.033.12.177.12.177a.234.234 0 0 1 .256-.074.211.211 0 0 1 .136.146s.193-.439.127-.549c-.05-.082.186-.717.186-.717s-1.095-.58-2.16-.232a.595.595 0 0 1-.218.017.04.04 0 0 0 0 .042.245.245 0 0 1 .01.168c.133-.023.186-.022.2.003.015.03-.024.078-.106.163-.156.16-.25.396-.214.537a.7.7 0 0 1 .027.187.183.183 0 0 1 .143-.085"/>
        <path fill="#fff" d="M5.577 9.991c-.004-.008-.042-.016-.154.004a2.468 2.468 0 0 1-.318.67c-.175.274-.325.464-.325.464s.15-.071.183-.14c.037-.075.098-.038.147-.062.05-.023.005-.098.093-.12a.082.082 0 0 1 .079.019.765.765 0 0 0-.025-.146c-.042-.162.091-.422.244-.579.084-.087.077-.108.076-.11m1.205-3.055L3.836 5.773l-.034.098 2.96 1.18c.006-.052.02-.115.02-.115m.756 1.07a.223.223 0 0 1-.33.186.26.26 0 0 1-.09-.073.101.101 0 0 0 .08-.092l.025-.187a.259.259 0 0 0-.179.26.292.292 0 0 0 .278.282c.133 0 .388-.15.388-.537a.527.527 0 0 0-.329-.502l-.063.437c.16.02.228.121.22.226Z"/>
        <path fill="#fff" d="M7.507 6.941c.12 0 .29.056.29.23 0 .188-.243.197-.243.197a.58.58 0 0 1 .272.481c0 .326-.247.593-.505.593a.353.353 0 0 1-.386-.345.325.325 0 0 1 .296-.319l.1-.745s-.147.07-.077.145c.081.088-.087.159-.086.007 0-.171.226-.244.339-.244m-.421.34a.18.18 0 0 1 .108.177c0 .123-.117.22-.259.324-.067.049-.067.049-.068.139v.016c.03.393.157.771.371 1.101.151-.105.281-.238.384-.39.379-.532.55-1.264.628-1.792a3.574 3.574 0 0 0-.564-.077c-.282-.013-.646.016-.784.23-.018.104-.031.21-.04.314a.241.241 0 0 1 .223-.042Z"/>
        <path fill="#fff" d="M7.338 8.123a.13.13 0 0 0 .118-.152.157.157 0 0 0-.146-.132l-.028.195s-.017.088.056.088m.349-.945a.165.165 0 0 0-.166-.183c-.096 0-.1.072-.1.072l-.026.203c.035.035.08.056.13.06a.159.159 0 0 0 .162-.152Z"/>
        <path fill="#fff" d="M7.688 6.746c.196.01.392.038.584.08l.015.004-.002.015c-.077.533-.25 1.28-.635 1.822-.108.161-.246.3-.407.408l-.013.008-.009-.012a2.374 2.374 0 0 1-.387-1.131v-.02c.001-.103.004-.108.082-.166.134-.098.245-.188.245-.296a.148.148 0 0 0-.087-.146.221.221 0 0 0-.208.048l-.008.006-.006.004-.003.002-.01.007-.017.012.003-.029v-.007l.001-.013.002-.015.001-.015c.01-.104.023-.209.04-.313l.001-.003.002-.003c.144-.23.523-.261.816-.248m-.86.236a3.74 3.74 0 0 0-.038.28l-.001.015-.002.014-.002.031c-.006.061-.01.121-.011.18a.763.763 0 0 1 .092-.087l.01-.007.008-.006.009-.006c.138-.095.225-.04.225.063 0 .089-.112.176-.228.261-.104.076-.098.097-.1.221.046.488.224.95.429 1.199 0 0 .85-.383 1.117-2.342 0 0-1.214-.314-1.507.184m1.374 3.171a.023.023 0 0 1-.021-.027c0-.004.003-.008.006-.011a.022.022 0 0 1 .015-.007c.006 0 .012.003.016.007a.022.022 0 0 1-.003.034.022.022 0 0 1-.013.004Zm-.02-.121a.021.021 0 0 1 .007-.005.02.02 0 0 1 .008-.002.02.02 0 0 1 .009.002.022.022 0 0 1 .012.029.022.022 0 0 1-.02.014.022.022 0 0 1-.016-.038Zm-.092.153a.117.117 0 0 1-.069-.018.083.083 0 0 1-.032-.072.091.091 0 0 1 .033-.075.208.208 0 0 1 .151-.02l-.002.02a.19.19 0 0 0-.118.031.06.06 0 0 0-.019.045.05.05 0 0 0 .018.041c.036.03.116.015.117.015l.005.02a.292.292 0 0 1-.084.013m.362-.382a.163.163 0 0 1 .184.136l.006.04a.294.294 0 0 1 .008-.01c.045-.056.052-.23-.148-.23a.28.28 0 0 0-.295.238s-.244-.057-.244.12.244.095.244.095.163.174.31.174a.14.14 0 0 0 .151-.138.141.141 0 0 0-.018-.073.276.276 0 0 1-.016-.029l-.004.03a.162.162 0 0 1-.162.136h-.023a.244.244 0 0 1-.203-.2l-.016-.095.035.089.006.014.03-.057a.2.2 0 0 1 .13-.1.19.19 0 0 1 .16.074l-.012.015a.188.188 0 0 0-.261.022l-.045.05a.23.23 0 0 0 .165.127.152.152 0 0 0 .176-.08l.016-.044a.155.155 0 0 1-.009-.053l-.028.041a.186.186 0 0 1-.13.079.167.167 0 0 1-.129-.079l.015-.013a.177.177 0 0 0 .232 0l.043-.031a.13.13 0 0 1 .016-.06l-.017-.048a.152.152 0 0 0-.177-.08c-.12.014-.179.173-.18.175l-.018-.005c0-.002.039-.214.21-.23"/>
        <path fill="#fff" d="M8.124 10.263a.084.084 0 0 0-.059.038l.033.018a.18.18 0 0 0 .129.013l.034-.01c-.047-.038-.075-.068-.137-.058"/>
        <path fill="#fff" d="m8.23 10.6-.023-.011.025.006.001-.002-.023-.005a.187.187 0 0 0-.176.04.277.277 0 0 0-.06.073l-.019-.008a.204.204 0 0 1 .113-.141.19.19 0 0 1 .15.017l.02.012a1.66 1.66 0 0 0 .042-.14l.02.004c0 .002-.01.06-.033.154l.01.006-.011-.003v.003l.035.01a.3.3 0 0 1 .122.07.892.892 0 0 0 .008-.026.257.257 0 0 0-.097-.079l.006-.019a.293.293 0 0 1 .108.045c.026-.094.03-.165-.007-.183a.624.624 0 0 1-.147-.078l-.03-.022-.027.026a.114.114 0 0 1-.072.031h-.007a.101.101 0 0 1-.072-.046l-.022-.03c-.09.115-.17.452-.201.688a2.249 2.249 0 0 1-.144.532c.061.02.12.049.174.084l-.005-.036c-.001-.004-.014-.105.17-.531.084-.2.139-.343.172-.44Z"/>
        <path fill="#fff" d="m7.973 11.597.003-.09c.004-.162.192-.416.2-.426l.017.01a4.393 4.393 0 0 0-.197.418l-.023.088Zm.261-.479c.044-.092.113-.235.164-.368a.254.254 0 0 0-.104-.116l-.032-.017a3.02 3.02 0 0 1-.206.566 1.74 1.74 0 0 0-.148.388l-.007.04c.04.026.08.054.117.084.01-.247.108-.35.217-.577m-.74-1.789c-.13.255.161.463.161.463-.357-.523.137-.51.339-.771.306-.357.09-.85.09-.85a.125.125 0 0 0-.07.093l.007.039a.265.265 0 0 1 .028-.03c.014-.01.027.006.013.021a.732.732 0 0 0-.035.042l.01.063a.297.297 0 0 1 .03-.032c.013-.01.026.006.012.021a.917.917 0 0 0-.039.048c.003.023.004.046.005.068a.304.304 0 0 1 .032-.033c.013-.01.026.006.012.021a.934.934 0 0 0-.042.052c0 .028 0 .055-.002.08a.307.307 0 0 1 .032-.033c.013-.01.026.005.012.02a.907.907 0 0 0-.049.06c-.054.443-.436.444-.545.658"/>
        <path fill="#fff" d="M7.98 8.335a.55.55 0 0 0-.088.145c-.029.238-.132.46-.295.636a.56.56 0 0 0 .355-.35.395.395 0 0 1-.107.03.853.853 0 0 0 .122-.078.763.763 0 0 0 .02-.094.406.406 0 0 1-.103.055.89.89 0 0 0 .108-.109.898.898 0 0 0 .003-.073.386.386 0 0 1-.08.058.812.812 0 0 0 .079-.106.795.795 0 0 0-.013-.114m1.6.275c.033-.058-.268-.217-.407.043-.041.1-.069.205-.081.312a.408.408 0 0 1-.091.224c-.1.09.06.14.152-.16-.017-.01-.035-.025-.03-.04.003-.015.025-.013.043-.01a.485.485 0 0 0 .013-.06c-.018-.008-.038-.021-.034-.037.003-.016.025-.016.043-.013l.001-.009a.905.905 0 0 1 .01-.054c-.016-.008-.03-.02-.028-.034.003-.014.023-.016.04-.014a.465.465 0 0 1 .018-.05c-.015-.013-.03-.031-.023-.045.008-.014.03-.008.047 0a.204.204 0 0 1 .03-.038c-.01-.014-.018-.034-.005-.046.014-.015.036.003.05.016a.156.156 0 0 1 .05-.011c0-.015 0-.033.012-.038.016-.007.032.01.04.04l.057.014c-.003-.009-.011-.035.004-.04.011-.005.04.024.054.057.017.004.03.003.035-.006m-.194.869a.514.514 0 0 0-.071.126c-.009.017.01.031.02.006a.739.739 0 0 1 .062-.109c.015-.022.027-.034.017-.04-.012-.009-.028.017-.028.017Zm-.083.22s.01-.02-.007-.024c-.02-.004-.036.082-.043.113-.007.032-.035.2-.065.304-.006.021.017.03.026.004a1.56 1.56 0 0 0 .05-.223c.01-.059.023-.117.04-.174m-1.132-.826v.006l-.008.085a.105.105 0 0 0-.041-.039c-.007.07-.006.142 0 .213a.551.551 0 0 1 .3-.324.24.24 0 0 1 .135-.255.251.251 0 0 1-.04-.09.716.716 0 0 0-.148.103.354.354 0 0 1 .138-.149 1.293 1.293 0 0 1-.02-.33.298.298 0 0 0-.048-.012l-.003-.001-.01-.002a.535.535 0 0 0-.17.006l-.004.001-.015.003a.378.378 0 0 0-.066.023c.02.064.057.06.057.06a.441.441 0 0 1 .098-.022c.03 0-.028.002-.055.052a.178.178 0 0 0-.01.027l-.002.006a.108.108 0 0 0-.001.007.307.307 0 0 1 .123-.027.435.435 0 0 0-.127.092.298.298 0 0 0 .01.063.308.308 0 0 1 .085-.035.405.405 0 0 0-.073.08l.012.038c.007.021.006.056-.016.053a.346.346 0 0 0 .012.108.089.089 0 0 1-.035.096.325.325 0 0 0-.044.015.082.082 0 0 0-.025.065.359.359 0 0 1 .148-.076c-.132.091-.153.144-.156.16m-.082 1.052a.074.074 0 0 0 .096-.04.6.6 0 0 1 .007-.015.48.48 0 0 1-.107-.082c0 .084.004.137.004.137Zm.614-1.161a2.828 2.828 0 0 0-.285.931.383.383 0 0 1 .147.002 4.15 4.15 0 0 1 .12-.383.475.475 0 0 0-.105-.084c-.03-.015-.024-.02.004-.01l.121.046a.399.399 0 0 1 .107-.172c.097-.067.002-.195-.096-.315a.205.205 0 0 0-.013-.015M8.25 9.789a.426.426 0 0 1-.158-.134 2.576 2.576 0 0 0-.004.079.44.44 0 0 0 .122.11.335.335 0 0 1 .04-.055Z"/>
        <path fill="#fff" d="M8.485 8.71a.24.24 0 0 0-.005.126.47.47 0 0 0-.224.193c.077-.043.159-.076.244-.1.043-.012.027 0 0 .011a1.58 1.58 0 0 0-.28.152.644.644 0 0 0-.031.068 1.18 1.18 0 0 1 .288-.137c.04-.012.034-.004.004.009a1.188 1.188 0 0 0-.321.21.821.821 0 0 0-.019.066.845.845 0 0 1 .295-.155c.042-.015.033-.004.004.012a1.579 1.579 0 0 0-.318.23 1.955 1.955 0 0 0-.027.214.417.417 0 0 0 .18.158.3.3 0 0 1 .112-.062c.019-.143.048-.286.087-.426a.684.684 0 0 0-.304.194c-.021.024-.04.028-.007-.008a.995.995 0 0 1 .33-.252c.044-.163.108-.32.19-.469a.237.237 0 0 0-.198-.033m.462-1.226.082-.06-.099-.128.017.188Zm.164.047-.066-.086-.096.066.01.104.152-.084Z"/>
        <path fill="#fff" d="M8.968 7.799c.013.088.052.174.052.134a.218.218 0 0 1 .139-.196c.05-.007.052.032.095.046.15.049.084.067.113.096.033.034.127-.056.054-.14a61.04 61.04 0 0 1-.55-.685c-.021.156.302.444.288.492-.014.049-.158.076-.185.14a.124.124 0 0 0-.007.027.124.124 0 0 1 .09 0c-.077.024-.088.068-.09.086"/>
        <path fill="#fff" d="M8.581 7.635a.612.612 0 0 0 .26-.134.24.24 0 0 1-.26.134Zm.044.08a.569.569 0 0 0 .234-.097.204.204 0 0 1-.234.098Zm.074.175a.31.31 0 0 0 .171-.046.119.119 0 0 1-.171.046Zm-.056-.084a.457.457 0 0 0 .216-.058.199.199 0 0 1-.216.058Zm-.132.172a.119.119 0 0 1 .14-.087.619.619 0 0 0-.14.087Zm-.03-.096a.107.107 0 0 1 .12-.076.36.36 0 0 0-.12.076Zm-.11-.064a.065.065 0 0 1 .012-.108c.047.096.08.198.1.303a.89.89 0 0 0-.111-.195m.17-.102a.463.463 0 0 0-.09.047.082.082 0 0 1 .09-.047Zm.17-.595a.699.699 0 0 1-.26.397.776.776 0 0 0 .3-.212.5.5 0 0 1-.413.27s-.04.002-.04.023c0 .02.041.019.041.019s.251.017.49-.312a.591.591 0 0 1-.444.348.185.185 0 0 0-.154.19.43.43 0 0 1-.066.249.411.411 0 0 1 .41.006.212.212 0 0 1 .14-.104.487.487 0 0 1 .178-.004.31.31 0 0 0-.31.16.227.227 0 0 0-.052-.038 1.136 1.136 0 0 0-.004.076.57.57 0 0 1 .258-.04.427.427 0 0 1 .24-.052.977.977 0 0 1-.12-.324c-.02-.184-.012-.711-.252-1.04a.67.67 0 0 1-.113.634.736.736 0 0 0 .17-.247m.374 1.582a.47.47 0 0 0-.349.035.33.33 0 0 1 .045.055l.021.032a.353.353 0 0 1 .26-.031.825.825 0 0 1 .022-.091"/>
        <path fill="#fff" d="M9.111 8.353a.28.28 0 0 0-.224.101.406.406 0 0 0-.28-.016.377.377 0 0 1 .28-.028.254.254 0 0 1 .225-.057m-.198.205a.627.627 0 0 0-.237.008.394.394 0 0 1 .233-.038.562.562 0 0 1 .214-.03.458.458 0 0 0-.21.06Zm-.376-.205a.408.408 0 0 0 .087.222.294.294 0 0 0-.129.095.262.262 0 0 1 .218.049.451.451 0 0 1 .38-.041c.052-.124.16-.194.122-.264-.02-.036-.066-.105-.116-.188a.517.517 0 0 0-.27.09.492.492 0 0 0-.292.037m0-.001-.001-.007v.007Z"/>
        <path fill="#fff" d="M8.798 8.185a.442.442 0 0 0-.27.043c0 .032.003.06.006.088a.426.426 0 0 1 .29-.03.536.536 0 0 1 .258-.092 2.405 2.405 0 0 1-.046-.082.35.35 0 0 0-.238.073m.019.663c.063.105.061.133.127.114.078-.022.096-.074.111-.144a.34.34 0 0 0-.238.03m-.235-1.924a.554.554 0 0 0-.462-.408.454.454 0 0 1 .462.408Zm-.043.035a.018.018 0 0 1-.025 0 .018.018 0 0 1 0-.025.018.018 0 0 1 .013-.005.018.018 0 0 1 .017.021.018.018 0 0 1-.005.01Zm-.635-.331a.112.112 0 0 1 .133-.057.301.301 0 0 0-.133.057Zm.072-.088a.24.24 0 0 0-.103.053.09.09 0 0 1 .103-.053Zm.451.476a.017.017 0 0 1-.019.004.018.018 0 0 1-.01-.016.018.018 0 1 1 .03.012m-.04-.478-.018-.01-.016-.008-.003-.001-.005-.002a.446.446 0 0 0-.485.025.494.494 0 0 0-.12.11c.222.01.444.047.659.108a.413.413 0 0 0-.252-.156s.372.01.328.437l-.001.011v-.011A.445.445 0 0 0 8.4 6.76c-.002.01-.093.545-.014.63.062.06.215-.367.215-.367a1.037 1.037 0 0 1-.06.268.51.51 0 0 0-.114-.729h.002a.757.757 0 0 0-.04-.023M4.428 7.844a.248.248 0 0 1 .105-.085c.03-.01 0-.012 0-.012a.106.106 0 0 0-.115.093s-.004.026.01.004m.056.093a.008.008 0 0 0 .006.004.008.008 0 0 0 .006-.002l.123-.114.002-.003a.008.008 0 0 0-.003-.01.098.098 0 0 0-.127.014.082.082 0 0 0-.007.111ZM9.336 9.28c.1-.193.178-.396.234-.606 0 0-.198-.12-.289.051-.09.172-.013.392-.254.606a.439.439 0 0 0-.122.193c-.009.028.014.063.04.012.03-.058.106-.188.231-.19a.203.203 0 0 0 .16-.065m-.481.413c-.016.126.04.124.037.068 0-.044.005-.088.017-.131.007-.05-.038-.054-.054.063ZM6.05 6.127c.08-.077-.012-.213-.35-.295-.244-.06-.382.053-.272.106l.38.183s.16.083.24.006"/>
        <path fill="#fff" d="M5.124 5.884a.113.113 0 0 0-.122.011l-.017-.011a.185.185 0 0 0 .004-.18c-.052-.094.032-.12.026-.104-.008.022-.04.056.035.129.067.06.144.106.227.14 0 0 .04.02.08-.043.041-.063-.132-.227-.28-.11a.121.121 0 0 1-.024-.033.272.272 0 0 1 .263-.087c.117.036.107.197.107.197.296-.13.612.019.687.151.075.133.011.216-.12.267a.731.731 0 0 0-.177.098.103.103 0 0 0-.07-.112l-.619-.313Zm.138.168c-.039.076-.207.066-.292-.04a.215.215 0 0 1 .008-.24.183.183 0 0 1-.003.05.163.163 0 0 0-.005.109.11.11 0 0 0 .184.07c.051-.063.14-.013.108.051Zm1.77.222c.099.042.075-.02.086-.077.011-.057.041-.085.032-.16a.09.09 0 0 1 .06-.098.353.353 0 0 1 .051-.234s-.65-.342-1.302-.342c-1.105 0-1.342.444-1.387.5a.247.247 0 0 1-.182.076l1.362.543c.502-.499 1.181-.25 1.28-.208Zm5.624 4.999a.876.876 0 0 1-.185.037s-.104.015-.104.04c0 .027.19.019.291.01.102-.007.19.068.223.04.033-.027-.003-.06-.04-.108a.17.17 0 0 0-.185-.019m1.333-1.29a.758.758 0 0 1-.65-.028c.297.295.563.198.811.19.21-.007.346.116.522.16l.005-.001a.006.006 0 0 0 .004-.004v-.005a.007.007 0 0 0-.003-.004c-.25-.152-.355-.456-.69-.308Zm-3.777-3.444c0 .065-.055.103-.16.08-.102-.022-.198-.165-.198-.165a.508.508 0 0 1-.088-.19c-.008-.082.047-.13.154-.091a.606.606 0 0 1 .292.366Zm.245-.324a.12.12 0 0 1 .018.13l.173.185-.094.01-.139-.153a.173.173 0 0 1-.05.016l.096.147-.106.008-.23-.402c.13-.013.28-.017.331.059m.134-.06a.229.229 0 0 1 .22-.041l-.012.063c-.074-.015-.13-.014-.141.028-.01.031.026.052.156.074.157.027.23.16.122.224a.245.245 0 0 1-.235-.018l.032-.05c.073.028.154.034.158-.018.005-.053-.08-.059-.184-.071-.11-.013-.194-.104-.117-.191m.424-.033.127.222s.054.097.1.106c.086.016.056-.047.02-.098-.027-.04-.139-.216-.139-.216l.08.012.118.178c.021.03.122.155-.021.185a.208.208 0 0 1-.216-.106l-.173-.284h.104Zm.418.062.162.159.012-.124.076.015.187.363-.094-.015-.107-.204.009.139-.02-.003-.163-.16.105.18-.079-.005-.201-.362.113.017Zm-1.652.445-.164-.182a.292.292 0 0 1-.068.018l.12.163-.098-.001-.343-.482c.261.027.32.027.407.114.088.086.044.148.044.148l.21.214-.108.008Zm-.632-.06-.39-.484s.114.004.235.018a.217.217 0 0 1 .206.169c.002.059-.092.111-.092.111l.147.177-.106.01Zm-.932-.764a.703.703 0 0 1 .02.362c-.026.114.226.129.24.223.014.093-.12.06-.12.06s.329.389 1.27.389c.72 0 .62-.153 1.398-.154.982 0 .724.2 1.477.248.464.03.625-.046.932-.034 0 0-.854-.104-1.373-.538-.443-.371-.635-.313-.89-.368-.26-.057-.442-.17-1.138-.041-.697.13-1.473-.06-1.815-.147"/>
        <path fill="#fff" d="m9.383 6.237.118.159c.07-.005.12-.036.07-.1-.05-.063-.188-.059-.188-.059m-.266.036c.017-.035-.017-.078-.058-.098a.615.615 0 0 0-.138-.023l.133.162a.09.09 0 0 0 .063-.042m.746-.021c-.049.053.122.243.122.243s.06.073.122.055c.052-.014-.036-.14-.074-.19-.038-.048-.136-.144-.17-.108Zm-4.179 3.07a.2.2 0 0 0 .104.104.413.413 0 0 1 .02-.069l.02-.05v.054a.73.73 0 0 0 .002.081.276.276 0 0 0 .024.006c0-.034.004-.067.011-.099l.014-.053.006.054a.69.69 0 0 0 .02.104l.021.001h.007a.416.416 0 0 1-.017-.12l.002-.054.018.052c.014.04.032.08.054.117a.269.269 0 0 0 .202-.132c-.092-.009-.175-.038-.153-.094.016-.04.059-.036.113-.024a.378.378 0 0 1 .01-.045l.016-.052.003.054a.592.592 0 0 0 .006.052l.03.007a.41.41 0 0 1 .003-.07l.009-.054.011.054a.672.672 0 0 0 .022.079.33.33 0 0 0 .037.003.419.419 0 0 1-.018-.088l-.003-.055.023.05c.014.03.03.06.049.089a.285.285 0 0 0 .19-.155c-.14-.004-.2-.038-.186-.082.01-.036.047-.033.096-.026a.393.393 0 0 1 .012-.059l.016-.052.003.055a.632.632 0 0 0 .008.063l.031.003a.418.418 0 0 1 .003-.087l.009-.054.011.054c.007.03.015.06.025.089a.283.283 0 0 0 .039-.004.419.419 0 0 1-.022-.102l-.004-.055.024.05a.68.68 0 0 0 .051.093.306.306 0 0 0 .145-.134s-.2-.015-.184-.083c.008-.037.044-.032.09-.027 0-.017.002-.035.005-.052l.01-.054.01.054c.003.02.008.04.012.056l.023.001a.41.41 0 0 1-.005-.075l.003-.055.017.052c.008.025.018.05.029.073a.143.143 0 0 0 .081-.054 2.432 2.432 0 0 1-.104-.38 5.73 5.73 0 0 1-1.216 1.02.107.107 0 0 1 .032.076l.08-.05m7.566.413a.013.013 0 0 1-.017.003 1.053 1.053 0 0 0-.358-.154.012.012 0 0 1-.007-.004.012.012 0 0 1 .007-.02c.152-.035.313.099.375.158a.013.013 0 0 1 .004.008c0 .003 0 .007-.002.01m.018.748a.01.01 0 0 1 .004.006.01.01 0 0 1 0 .007.01.01 0 0 1-.006.005.577.577 0 0 1-.4-.419.01.01 0 0 1 .005-.004.01.01 0 0 1 .007 0 .01.01 0 0 1 .005.004c.098.16.23.296.385.4m-.526-.75a.01.01 0 0 1-.005-.006.01.01 0 0 1 .001-.007.01.01 0 0 1 .013-.006.948.948 0 0 1 .48.366.01.01 0 0 1 0 .007.011.011 0 0 1-.003.006.011.011 0 0 1-.014.001 3.668 3.668 0 0 0-.472-.36m-.126.09a.012.012 0 0 1-.016.001.797.797 0 0 0-.307-.132.01.01 0 0 1-.002-.008c0-.009.01-.01.01-.01a.353.353 0 0 1 .316.134.012.012 0 0 1 .002.008.012.012 0 0 1-.003.008Zm2.076.094a.81.81 0 0 1-.268-.132c-.13-.093-.322-.013-.424.023a.696.696 0 0 1-.709-.159 1.1 1.1 0 0 0-1.086-.153.745.745 0 0 1-.398.086s.07.198.248.198.436-.147.7.426c.263.572.71.621.947.577.128-.024.179-.086.31-.02a.189.189 0 0 0 .236-.024.008.008 0 0 0 .002-.005v-.005a.008.008 0 0 0-.005-.004h-.005a.235.235 0 0 1-.231-.057c-.129-.108-.15.022-.377.022a.307.307 0 0 1-.127-.026.016.016 0 0 1-.003-.027.016.016 0 0 1 .01-.004c.17.01.34-.03.487-.114l.062-.032a.832.832 0 0 1-.788-.175.01.01 0 0 1 .003-.01.01.01 0 0 1 .006-.003.87.87 0 0 0 .667.146h.001c.287-.06.405.03.405.03.049.034.096.07.14.11a.345.345 0 0 0 .24.04.01.01 0 0 0 .008-.01.01.01 0 0 0 0-.006.466.466 0 0 1-.22-.19c-.125-.18-.252-.25-.667-.216a.747.747 0 0 1-.62-.303.015.015 0 0 1-.004-.01c0-.003.001-.006.004-.01a.015.015 0 0 1 .018-.003.974.974 0 0 0 .434.125c.255 0 .341-.105.506-.128.151-.022.25.133.498.061a.009.009 0 0 0 .005-.003.009.009 0 0 0 0-.011.009.009 0 0 0-.005-.004"/>
      </g>
    </g>
  </g>
  <defs>
    <clipPath id="a">
      <path fill="#fff" d="M0 0h18v18H0z"/>
    </clipPath>
    <clipPath id="b">
      <path fill="#fff" d="M3 5.25h12v8.195H3z"/>
    </clipPath>
  </defs>
</svg>
