<svg xmlns="http://www.w3.org/2000/svg" viewBox="0 0 18 18">
  <g clip-path="url(#a)">
    <path fill="#fff" d="M0 0h18v18H0V0Z"/>
    <path fill="#1852A4" d="M14.767 11.579h-5.42a.214.214 0 0 1-.214-.214v-.56c0-.117.096-.213.213-.213h5.42c.118 0 .214.096.214.213v.56a.214.214 0 0 1-.213.214Zm-.68-5.079a.25.25 0 0 0-.203.105l-1.611 2.242a.042.042 0 0 1-.069 0l-1.66-2.245a.252.252 0 0 0-.202-.101H9.63a.144.144 0 0 0-.144.143v3.17c0 .077.063.14.14.14h.744c.08 0 .146-.066.146-.147V8.239l1.154 1.609a.253.253 0 0 0 .205.105h.732a.24.24 0 0 0 .197-.103l1.125-1.607v1.569c0 .078.064.141.142.141h.782c.07 0 .126-.056.126-.126V6.65a.15.15 0 0 0-.15-.15h-.742ZM8.7 7.489H3.12a.14.14 0 0 1-.14-.14v-.708a.14.14 0 0 1 .14-.14H8.7a.14.14 0 0 1 .14.14v.708a.14.14 0 0 1-.14.14Zm-5.715 3.696.002.278c0 .087.077.137.134.137l5.228-.001h.022c.079 0 .14-.057.14-.145v-.5l-.002-.524a.137.137 0 0 0-.134-.142H7.7a.085.085 0 0 0-.072.04l-.119.18a.558.558 0 0 1-.06.076.086.086 0 0 1-.062.026H4.035a.085.085 0 0 1-.085-.085v-.09l-.002-1.152v-.089c0-.047.039-.085.086-.085h3.352c.023 0 .045.01.061.026.02.02.04.045.061.076.05.074.093.14.118.18.016.025.043.04.072.04h.676a.137.137 0 0 0 .134-.142l.001-.524v-.501c0-.087-.061-.145-.14-.144H3.12a.139.139 0 0 0-.134.136l-.001.277.001 2.652Z"/>
  </g>
  <defs>
    <clipPath id="a">
      <path fill="#fff" d="M0 0h18v18H0z"/>
    </clipPath>
  </defs>
</svg>
