<svg xmlns="http://www.w3.org/2000/svg" viewBox="0 0 18 18">
  <g clip-path="url(#a)">
    <path fill="#1B2D4E" d="M0 0h18v18H0V0Z"/>
    <path fill="#fff" d="M3.83 9a5.18 5.18 0 0 1 4.756-5.157v2.382a2.8 2.8 0 0 1 3.126 2.077h.848a3.635 3.635 0 0 0-3.154-2.907V3H9a6 6 0 0 0-1.24 11.869v-.848a5.179 5.179 0 0 1-3.93-5.022Z"/>
    <path fill="#FD7548" d="M10.241 3.13v.848a5.173 5.173 0 0 1-.83 10.178v-1.553a3.634 3.634 0 0 0 3.154-2.913h-.851a2.799 2.799 0 0 1-4.477 1.483 2.8 2.8 0 0 1 .523-4.687v-.894a3.627 3.627 0 0 0 .83 7.011V15h.413c.14 0 .277 0 .413-.014a6 6 0 0 0 .83-11.856h-.005Z"/>
  </g>
  <defs>
    <clipPath id="a">
      <path fill="#fff" d="M0 0h18v18H0z"/>
    </clipPath>
  </defs>
</svg>
