<svg xmlns="http://www.w3.org/2000/svg" viewBox="0 0 18 18">
  <g clip-path="url(#a)">
    <path fill="#002069" d="M0 0h18v18H0V0Z"/>
    <path fill="#FF5100" d="M8.174 5.939C7.8 5.414 7.316 5.11 6.82 5.11c-.157 0-.303.024-.425.07a3.39 3.39 0 0 0-.485 1.756c0 .66.187 1.278.514 1.797.116.04.25.064.402.064.508 0 1.039-.315 1.395-.81a1.528 1.528 0 0 1-.415-1.05c0-.38.14-.73.368-.998Z"/>
    <path fill="#8C019F" d="M9.096 13.809c0-.105-.053-.158-.14-.21l-.292-.187c-.852-.478-1.43-1.015-1.43-1.803 0-.542.222-.88.397-1.067a3.95 3.95 0 0 1-.7.064 3.39 3.39 0 0 1-.735-.076c-.093.222-.28.747-.28 1.365 0 2.66 2.089 3.256 2.958 3.39.1.017.192-.064.192-.164l.03-1.312Z"/>
    <path fill="#FF5100" d="M12.77 6.936A3.428 3.428 0 0 0 8.5 3.611c.234.11.456.245.66.402a3.702 3.702 0 0 1 1.283 1.856 1.534 1.534 0 0 1 0 2.135 3.728 3.728 0 0 1-1.51 2.018c.133-.011.268-.017.408-.017 1.166 0 2.111.449 2.111 1.616 0 .886-.7 1.411-1.481 1.831l-.245.158c-.088.052-.135.105-.135.204l.03 1.33c0 .105.093.181.198.163a3.429 3.429 0 0 0 2.952-3.395V6.937Z"/>
    <path fill="#1D77EA" d="M6.826 9.042c-1.073 0-1.458-.939-1.458-2.094 0-1.155.385-2.094 1.458-2.094.706 0 1.307.501 1.686 1.137h1.715a3.432 3.432 0 0 0-3.33-2.49c-1.838.028-3.35 1.516-3.396 3.354a3.428 3.428 0 0 0 6.726 1.02H8.582c-.361.66-1.038 1.167-1.756 1.167Z"/>
  </g>
  <defs>
    <clipPath id="a">
      <path fill="#fff" d="M0 0h18v18H0z"/>
    </clipPath>
  </defs>
</svg>
