<svg xmlns="http://www.w3.org/2000/svg" viewBox="0 0 18 18">
  <g clip-path="url(#a)">
    <path fill="#DC0000" d="M0 0h18v18H0V0Z"/>
    <path fill="#fff" d="M12.458 8.941v1.887h-.86V9.227c0-.327-.129-.587-.47-.587-.29 0-.558.213-.558.593v1.595h-.86V7.973h.806v.64c.153-.523.65-.724.997-.724.584 0 .945.404.945 1.053Zm-9.063.46c0-.526.438-.818.93-.818.166 0 .339.035.502.103v-.655a1.957 1.957 0 0 0-.74-.142c-1.03 0-1.587.776-1.587 1.506 0 1.113.806 1.518 1.63 1.518.302 0 .652-.065.809-.139v-.654a1.759 1.759 0 0 1-.592.099c-.452 0-.95-.18-.95-.818h-.002ZM15.5 9.083v1.746h-.806v-.425c-.168.31-.507.509-.924.509-.669 0-.968-.459-.968-.912 0-.566.448-.916 1.17-.916.224 0 .482.046.67.113 0-.422-.237-.616-.667-.616-.304 0-.592.064-.96.21v-.654c.203-.084.722-.25 1.233-.25.631 0 1.252.222 1.252 1.194v.001Zm-.86.632v-.076a.802.802 0 0 0-.434-.129c-.322 0-.525.182-.525.44 0 .215.154.39.411.39.347 0 .547-.316.547-.624l.001-.001ZM5.732 7.542a.52.52 0 0 0 0-1.042.52.52 0 0 0 0 1.042Zm2.878 2.69c.212 0 .43-.042.625-.125v.642c-.174.08-.547.164-.908.164-.442 0-.815-.119-1.094-.334-.287.177-.64.334-1.052.334-.413 0-.692-.21-.798-.493-.069-.186-.081-.407-.081-.66V7.973h.86v1.775c0 .186.02.327.095.433.074.104.19.16.34.16a1 1 0 0 0 .339-.077 1.57 1.57 0 0 1-.252-.891c0-.828.656-1.485 1.535-1.485.69 0 1.016.463 1.016.877 0 .652-.55 1.019-1.197 1.34.168.085.367.126.572.126v.001ZM7.577 9.36c0 .197.056.358.15.488.34-.231.636-.545.636-.93 0-.184-.097-.334-.277-.334-.245 0-.51.312-.51.776Z"/>
  </g>
  <defs>
    <clipPath id="a">
      <path fill="#fff" d="M0 0h18v18H0z"/>
    </clipPath>
  </defs>
</svg>
