<svg xmlns="http://www.w3.org/2000/svg" viewBox="0 0 18 18">
  <g clip-path="url(#a)">
    <path d="M0 0h18v18H0V0Z"/>
    <path fill="#A9CC3D" d="M5.157 7.676a1.263 1.263 0 1 0 0-2.527 1.263 1.263 0 0 0 0 2.527Zm2.392 2.59a1.263 1.263 0 1 0 0-2.527 1.263 1.263 0 0 0 0 2.527Zm0 2.586a1.263 1.263 0 1 0 0-2.527 1.263 1.263 0 0 0 0 2.527Zm2.597-5.176a1.263 1.263 0 1 0 0-2.527 1.263 1.263 0 0 0 0 2.527Z"/>
    <path fill="#A9CC3D" d="M10.146 10.266a1.263 1.263 0 1 0 0-2.527 1.263 1.263 0 0 0 0 2.527Zm0 2.586a1.263 1.263 0 1 0 0-2.526 1.263 1.263 0 0 0 0 2.526Zm2.591-5.176a1.263 1.263 0 1 0 0-2.526 1.263 1.263 0 0 0 0 2.526Z"/>
    <path fill="#A9CC3D" d="M12.737 10.266a1.263 1.263 0 1 0 0-2.527 1.263 1.263 0 0 0 0 2.527Zm0 2.586a1.263 1.263 0 1 0 0-2.527 1.263 1.263 0 0 0 0 2.527Z"/>
  </g>
  <defs>
    <clipPath id="a">
      <path fill="#fff" d="M0 0h18v18H0z"/>
    </clipPath>
  </defs>
</svg>
