<svg xmlns="http://www.w3.org/2000/svg" viewBox="0 0 18 18">
  <g clip-path="url(#a)">
    <path d="M0 0h18v18H0V0Z"/>
    <path fill="#fff" d="M5.738 5.924c-2.05 2.05-1.982 4.17.207 6.359 2.186 2.186 4.304 2.254 6.355.203l2.359-2.36-1.435-1.434-2.359 2.359c-1.094 1.094-2.256 1.027-3.486-.203-1.231-1.232-1.3-2.395-.206-3.49l1.074-1.074a.805.805 0 0 1 1.134 0 .804.804 0 0 1-.003 1.131L7.785 9.008l1.435 1.434 1.592-1.592a2.83 2.83 0 0 0 .004-4 2.834 2.834 0 0 0-4.004 0L5.738 5.924Z"/>
  </g>
  <defs>
    <clipPath id="a">
      <path fill="#fff" d="M0 0h18v18H0z"/>
    </clipPath>
  </defs>
</svg>
