<svg xmlns="http://www.w3.org/2000/svg" viewBox="0 0 18 18">
  <g clip-path="url(#a)">
    <path fill="#0B0203" d="M0 0h18v18H0V0Z"/>
    <path fill="#A4664D" fill-rule="evenodd" d="M13.603 7.746c-.568-1.11-1.766-1.738-3.087-1.746H3.11v.41l6.271-.003a4.014 4.014 0 0 0-.717.148 2.688 2.688 0 0 0-.437.176c-.475.082-.767.206-.934.302l-.048.008c-.29.048-.687.17-.908.296a3.472 3.472 0 0 0-.645.162l-.013.004-.002.001c-.372.137-.498.279-.498.279 1.558-.56 3.34.057 4.183 1.534.842 1.476.167 3.309-1.12 4.342 0 0 3.033-1.749 1.624-4.625-.553-1.13-1.706-1.64-2.943-1.736a3.463 3.463 0 0 1 3.393 1.717c.842 1.476.167 3.308-1.12 4.341-.115.078 3.098-1.662 1.624-4.624-.56-1.126-1.762-1.714-2.944-1.736 1.335-.149 2.675.415 3.394 1.716.822 1.488.167 3.31-1.12 4.342 0 0 3.062-1.679 1.624-4.624-.552-1.13-1.762-1.715-2.943-1.737 1.334-.148 2.668.401 3.393 1.717.82 1.489.167 3.309-1.12 4.342.06-.052 2.974-1.734 1.624-4.625-.488-1.045-1.545-1.548-2.65-1.718h.206s2.224-.039 3.02 1.923c.608 1.374-.14 3.31-1.17 3.99.762-.272 2.695-2.182 1.47-4.576Z" clip-rule="evenodd"/>
  </g>
  <defs>
    <clipPath id="a">
      <path fill="#fff" d="M0 0h18v18H0z"/>
    </clipPath>
  </defs>
</svg>
