<svg xmlns="http://www.w3.org/2000/svg" viewBox="0 0 18 18">
  <g clip-path="url(#a)">
    <path fill="#7ACC00" d="M0 0h18v18H0V0Z"/>
    <path fill="#fff" d="M14.498 9.264c0 .112-.073.204-.205.268-.095.039-.227.06-.227.205 0 .121.093.195.093.317 0 .144-.32.197-.441.217.214.083.336.112.336.246 0 .176-.234.124-.234.32 0 .101.05.194.05.307 0 .245-.194.44-.676.44-.32 0-.464-.102-.648-.102-.113 0-.227.052-.34.218-.39.543-.728 2.042-.964 2.505-.061.113-.132.164-.256.164-.451 0-1.458-.934-3.337-1.253-.01 0-.01-.01-.01-.01 0-.01 0-.01.01-.022 1.273-.78 1.746-1.477 1.746-1.787 0-.112-.052-.173-.154-.173-.196 0-.463.256-1.366.256-1.888 0-3.15-1.89-4.301-1.88-.348 0-.7.176-1.048.617h-.01s-.01 0-.01-.012c.02-1.19.903-1.89 2.095-1.89.79 0 1.077.31 1.467.31.638 0 .964-.533 1.047-.71l.01-.009s0-.01-.01-.01v.01c-.37.144-.677.195-.933.195-1.15 0-1.304-1.233-2.25-1.233-.163 0-.287.031-.45.073h-.01v-.012c.288-.39.614-.534.984-.534.473 0 .812.288 1.15.288.656 0 .627-.308 1.714-.451v-.01c-.943 0-1.19-.534-1.19-.956 0-.01 0-.01.01-.01.39.132.72.215.995.215 1.377 0 2.332-.863 4.138-.863 1.58 0 2.26.585 2.26 1.1 0 .174-.062.328-.052.338.348.38.524 1.007.524 1.55 0 .278-.095.422-.095.668 0 .237.198.483.287.617.042.061.105.144.167.215.06.083.134.156.134.268Z"/>
  </g>
  <defs>
    <clipPath id="a">
      <path fill="#fff" d="M0 0h18v18H0z"/>
    </clipPath>
  </defs>
</svg>
