<svg xmlns="http://www.w3.org/2000/svg" viewBox="0 0 18 18">
  <g clip-path="url(#a)">
    <path fill="#fff" d="M0 0h18v18H0V0Z"/>
    <path fill="#F47521" d="M9.09 6.636c.553 0 1.002-.45 1.002-1.007 0-.556-.449-1.007-1.002-1.007-.553 0-1.002.45-1.002 1.007 0 .556.449 1.007 1.002 1.007Z"/>
    <path fill="#F47521" d="M13.07 4.25a.428.428 0 0 0-.31.149L8.984 9.043 7.532 6.708a.722.722 0 0 0-.556-.294H5.899l1.76 2.838L4.9 14.25h.01a.398.398 0 0 0 .299-.149l3.764-4.637 1.455 2.346c.121.162.309.27.522.287h1.108l-1.767-2.85L13.07 4.25Z"/>
  </g>
  <defs>
    <clipPath id="a">
      <path fill="#fff" d="M0 0h18v18H0z"/>
    </clipPath>
  </defs>
</svg>
