<svg xmlns="http://www.w3.org/2000/svg" viewBox="0 0 18 18">
  <g clip-path="url(#a)">
    <path fill="#fff" d="M0 0h18v18H0V0Z"/>
    <path fill="#F60" d="M14.121 11.203c-1.197 2.782-4.46 4.052-7.289 2.835l-.03-.014-.026-.012 1.902-4.383 3.555-.025c.071.424.444.75.89.751h.014a.879.879 0 0 0 .872-.891.905.905 0 0 0-.911-.878.879.879 0 0 0-.87.758l-3.555.026-1.515-3.183.508-.232-.593-1.246-1.253.572.593 1.246.508-.231L8.446 9.5l-1.91 4.4-.153-.08-.056-.03a3.22 3.22 0 0 1-.155-.09c-.046-.027-.092-.054-.136-.083a4.844 4.844 0 0 1-.507-.36l-.144-.12-.026-.023a4.842 4.842 0 0 1-.342-.325 5.515 5.515 0 0 1-.752-.962l-.01-.015a4.784 4.784 0 0 1-.191-.34c-.02-.036-.039-.074-.058-.112a3.985 3.985 0 0 1-.152-.34 2.09 2.09 0 0 1-.083-.213l-.012-.03a2.296 2.296 0 0 1-.046-.139 1.14 1.14 0 0 1-.025-.076 1.48 1.48 0 0 1-.027-.087 2.745 2.745 0 0 1-.058-.215l-.008-.031c-.013-.05-.024-.1-.035-.15l-.01-.049a4.853 4.853 0 0 1-.072-.438l-.01-.08a1.183 1.183 0 0 1-.004-.058 2.24 2.24 0 0 1-.013-.14l-.01-.182a5.388 5.388 0 0 1 .438-2.336c1.197-2.781 4.46-4.05 7.288-2.834 2.829 1.217 4.152 4.46 2.954 7.241Z"/>
    <path fill="#F60" d="M13.8 9.465a.672.672 0 0 1-.673.681.692.692 0 0 1-.697-.672.673.673 0 0 1 .672-.682h.004a.694.694 0 0 1 .693.673Z"/>
  </g>
  <defs>
    <clipPath id="a">
      <path fill="#fff" d="M0 0h18v18H0z"/>
    </clipPath>
  </defs>
</svg>
