<svg xmlns="http://www.w3.org/2000/svg" viewBox="0 0 18 18">
  <g clip-path="url(#a)">
    <path fill="url(#b)" d="M0 0h18v18H0V0Z"/>
    <path fill="#fff" fill-rule="evenodd" d="M13.074 7.753c.006-.492.442-.89.974-.89s.958.397.952.889c-.006.491-.442.89-.974.89-.044 0-.088-.003-.13-.008l-1.442 3.517H5.422L4.068 8.64a1.123 1.123 0 0 1-.116.006c-.532 0-.958-.398-.952-.889.006-.491.442-.89.974-.89.531 0 .958.398.952.889a.86.86 0 0 1-.27.61c.609.985 1.218 1.761 1.685 1.761.609 0 .685-1.492.597-2.9-.493-.08-.863-.477-.857-.956.006-.535.482-.97 1.062-.97.579 0 1.044.433 1.037.969-.004.385-.25.717-.604.875.286 1.42.661 2.685 1.388 2.685.008 0 .016 0 .025-.002.715-.019 1.117-1.279 1.436-2.692-.341-.16-.574-.487-.569-.867.007-.536.482-.97 1.062-.97.58 0 1.044.433 1.038.969-.006.484-.395.886-.897.959-.124 1.408-.084 2.901.525 2.9.47 0 1.1-.783 1.736-1.774a.842.842 0 0 1-.246-.601Z" clip-rule="evenodd"/>
  </g>
  <defs>
    <linearGradient id="b" x1="9" x2="9" y1="0" y2="18" gradientUnits="userSpaceOnUse">
      <stop stop-color="#3479E1"/>
      <stop offset="1" stop-color="#2750B2"/>
    </linearGradient>
    <clipPath id="a">
      <path fill="#fff" d="M0 0h18v18H0z"/>
    </clipPath>
  </defs>
</svg>
