<svg xmlns="http://www.w3.org/2000/svg" viewBox="0 0 18 18">
  <g clip-path="url(#a)">
    <path fill="#136734" d="M0 0h18v18H0V0Z"/>
    <path fill="#fff" fill-rule="evenodd" d="M9.606 9.322v1.063h2.057c.194 0 .242.07.143.234-.128.21-.257.42-.408.611a3.374 3.374 0 0 1-1.726 1.17 3.563 3.563 0 0 1-1.621.086 3.286 3.286 0 0 1-1.457-.627 3.608 3.608 0 0 1-.804-.825 3.586 3.586 0 0 1-.558-1.303 3.529 3.529 0 0 1 .33-2.41c.223-.408.495-.776.863-1.07.274-.222.565-.413.895-.54a3.646 3.646 0 0 1 1.604-.242c.419.03.809.143 1.188.308.477.21.875.528 1.214.92.202.235.39.485.499.782.065.175.049.194-.145.194H9.602v1.064h4.394V4.438H12.93v.974c0 .42.002.838-.001 1.257 0 .04-.033.082-.052.122-.032-.027-.074-.048-.097-.082-.101-.15-.189-.31-.297-.455a5.309 5.309 0 0 0-.918-.953A4.66 4.66 0 0 0 8.82 4.255c-.4-.02-.798.02-1.191.113-.868.204-1.626.61-2.245 1.247a5.69 5.69 0 0 0-.701.892c-.238.372-.425.774-.505 1.216-.06.333-.143.665-.168 1.002a4.45 4.45 0 0 0 .288 1.894c.232.627.566 1.193 1.04 1.665.196.196.413.372.63.545.452.358.972.581 1.522.743.459.136.928.151 1.404.151a3.842 3.842 0 0 0 1.06-.177 4.661 4.661 0 0 0 1.382-.652 4.856 4.856 0 0 0 1.227-1.229c.105-.152.204-.307.306-.463l.05.008c.013.063.038.127.038.192.004.688.002 1.374.002 2.062v.158H14v-4.3H9.606Z" clip-rule="evenodd"/>
  </g>
  <defs>
    <clipPath id="a">
      <path fill="#fff" d="M0 0h18v18H0z"/>
    </clipPath>
  </defs>
</svg>
