<svg xmlns="http://www.w3.org/2000/svg" viewBox="0 0 18 18">
  <g clip-path="url(#a)">
    <path d="M0 0h18v18H0V0Z"/>
    <g clip-path="url(#b)">
      <path fill="#DB1B16" fill-rule="evenodd" d="M14.477 10.616c.016.022.04.104-.024.156-.756.6-2.335 1.24-3.966 1.434-1.713.204-2.588.32-4.544 1.58-.118.075-.183-.018-.183-.018-.593-.768-1.145-1.59-1.145-3.435 0-1.39-.75-2.431-1.077-2.898-.086-.124.01-.182.04-.201 1.896-1.299 2.806-1.36 4.512-1.549 1.631-.179 3.1-.901 3.97-1.446.06-.037.12-.071.196.039.293.424 1.077 1.551 1.077 3.017-.002 1.791.584 2.561 1.144 3.32Z" clip-rule="evenodd"/>
    </g>
  </g>
  <defs>
    <clipPath id="a">
      <path fill="#fff" d="M0 0h18v18H0z"/>
    </clipPath>
    <clipPath id="b">
      <path fill="#fff" d="M3.5 4.2h11v9.617h-11z"/>
    </clipPath>
  </defs>
</svg>
