<svg xmlns="http://www.w3.org/2000/svg" viewBox="0 0 18 18">
  <g clip-path="url(#a)">
    <path fill="#092876" d="M0 0h18v18H0V0Z"/>
    <path fill="#fff" fill-rule="evenodd" d="M5.133 12.996v-.133c.29-.045.867-.227.867-.6v-6.4c-.089-.223-.413-.667-1-.667v-.133h4.2c.733 0 2.333.613 2.333 2 0 1.386-1.11 2.044-1.666 2.2.933.933 2.64 2.6 3.066 2.866.427.267 1.645.911 2.067 1-2.019.306-3.276-.561-4.625-2.093-.69-.784-1.697-1.44-1.775-1.44H7.267v2.666c.066.2.373.6 1.066.6v.134h-3.2Zm2.134-3.9c.444.044 1.48.066 2.066-.2.734-.334.836-.935.867-1.4.03-.454.078-1.519-.905-1.977-.314-.146-.67-.157-1.015-.157H7.267v3.734Z" clip-rule="evenodd"/>
  </g>
  <defs>
    <clipPath id="a">
      <path fill="#fff" d="M0 0h18v18H0z"/>
    </clipPath>
  </defs>
</svg>
