<svg xmlns="http://www.w3.org/2000/svg" viewBox="0 0 18 18">
  <g clip-path="url(#a)">
    <path fill="#0059A3" d="M0 0h18v18H0V0Z"/>
    <path fill="#fff" fill-rule="evenodd" d="M11.738 9.18a.716.716 0 0 1-.318.287c-.052.023-.098.057-.15.083a.209.209 0 0 0-.108.158c-.028.192-.058.386-.074.582-.024.24-.034.48-.046.721-.006.13-.008.256-.012.382-.008.333-.02.662-.026.995-.002.197-.002.398-.002.595-.003.497-.006.99-.006 1.486v.224c-.232.111-.459.228-.69.338-.43.206-.865.398-1.32.544a4.019 4.019 0 0 1-.43.112c-.236.046-.367-.04-.424-.275-.015-.055-.02-.112-.032-.178-.155-.017-.31 0-.464-.011-.02-.066-.026-1.084-.009-1.27.218-.009.436.003.657-.006.04-.14.086-.275.117-.413a.387.387 0 0 1 .215-.275c.444-.24.83-.576 1.129-.986.082-.115.15-.24.226-.361.017-.026.028-.058.04-.086-.038.014-.058.02-.078.031a14.47 14.47 0 0 1-1.57.723 3.293 3.293 0 0 1-.632.183 1.81 1.81 0 0 1-.278.012c-.031 0-.063-.014-.103-.026v-.284h-.304c-.063-.003-.071-.009-.071-.066v-.76l.008-.043h.361c.014-.143 0-.28.008-.427a.283.283 0 0 1 .07-.011c.165-.011.329-.017.495-.035.134-.01.266-.048.39-.108a.792.792 0 0 0 .157-.118c.026-.023.037-.06.06-.1H7.367a8.41 8.41 0 0 1-.005-.935c.03-.002.062-.006.094-.006.14-.002.28-.028.415-.074a.256.256 0 0 0 .135-.086c-.213-.106-.427-.169-.65-.238v-.441c-.176-.006-.344.002-.516-.006V7.847c.166-.011.332.003.51-.009v-.501h.397V5.841h-.395V4.648h-.827c-.026-.068-.035-1.135-.011-1.273h.255V3.06c.082-.031.16-.017.23-.017h.227v-.327a.35.35 0 0 1 .078-.011c.278 0 .555-.012.834.003.234.01.466.048.699.083.297.043.584.123.858.243.562.244.978.645 1.284 1.167.25.424.407.886.504 1.367.068.324.108.654.114.986l.01.035.048-.037c.063-.046.117-.05.172.005a.798.798 0 0 1 .129.172c.102.201.172.422.2.645.092.656-.074 1.253-.418 1.806Zm-2.29-2.115c.119-.072.15-.2.081-.313-.034-.057-.09-.083-.151-.106a1.38 1.38 0 0 0-1.146.057.369.369 0 0 0-.123.09.16.16 0 0 0 .014.24c.046.038.1.066.157.083.17.055.35.06.527.063.112-.008.227-.014.341-.026a.68.68 0 0 0 .3-.092v.004Zm2.356.777a.826.826 0 0 0-.06-.52c-.015-.03-.02-.068-.072-.082a.619.619 0 0 0-.026.106l-.086.617c-.02.14-.02.286 0 .429.006.04.017.08.029.124.018-.012.026-.012.026-.018.008-.017.017-.03.022-.048.072-.198.13-.401.17-.608h-.003Z" clip-rule="evenodd"/>
  </g>
  <defs>
    <clipPath id="a">
      <path fill="#fff" d="M0 0h18v18H0z"/>
    </clipPath>
  </defs>
</svg>
