<svg xmlns="http://www.w3.org/2000/svg" viewBox="0 0 18 18">
  <g clip-path="url(#a)">
    <path fill="#fff" d="M0 0h18v18H0V0Z"/>
    <path fill="#82BD41" d="M10.622 12.6c-2.186.528-4.407-.804-4.947-2.993a4.358 4.358 0 0 1-.118-.964c0-.487.082-.968.254-1.418a4.195 4.195 0 0 0-.022.428c0 2.679 2.15 4.868 4.833 4.947Z"/>
    <path fill="#A1CD71" d="M10.218 13.05a4.097 4.097 0 0 1-4.947-2.993 3.964 3.964 0 0 1 .14-2.371 3.48 3.48 0 0 0-.025.414 4.957 4.957 0 0 0 4.832 4.95Z"/>
    <path fill="#C1DEA0" d="M9.818 13.497a4.083 4.083 0 0 1-4.821-5.361 5.93 5.93 0 0 0-.015.425c0 2.682 2.143 4.867 4.836 4.936Z"/>
    <path fill="#E0EED0" d="M9.414 13.822a4.183 4.183 0 0 1-.989.124A4.085 4.085 0 0 1 4.34 9.861c0-.483.093-.954.253-1.404a8.41 8.41 0 0 0-.01.425 4.947 4.947 0 0 0 4.831 4.94Z"/>
    <path fill="#ECF5E3" d="M9 14.21a4.083 4.083 0 0 1-4.95-2.979 4.016 4.016 0 0 1 .14-2.381c-.015.138-.022.28-.022.424A4.94 4.94 0 0 0 9 14.21Z"/>
    <path fill="#033C5A" d="M14.525 8.986c0 3.04-2.475 5.514-5.525 5.514h-.14c2.44-.611 3.925-3.075 3.315-5.5a4.544 4.544 0 0 0-5.51-3.304A4.505 4.505 0 0 0 3.5 8.526 5.508 5.508 0 0 1 9.471 3.52a5.492 5.492 0 0 1 5.04 5.465h.014Z"/>
  </g>
  <defs>
    <clipPath id="a">
      <path fill="#fff" d="M0 0h18v18H0z"/>
    </clipPath>
  </defs>
</svg>
