<svg xmlns="http://www.w3.org/2000/svg" viewBox="0 0 18 18">
  <g clip-path="url(#a)">
    <path fill="#FFDB00" d="M0 0h18v18H0V0Z"/>
    <path fill-rule="evenodd" d="M18 5.51H4.256c-.917-.023-1.354.234-1.555.492-.28.369-.269.906.044 1.6h.011c.202.459.583.952 1.075 1.41.929.829 1.936 1.198 2.485.94h2.507c1.746 1.88 3.57 3.862 3.95 4.31.633.748 1.097.722 1.196.717l.014-.001H18v-.393l-4.062.001h-.005c-.048.001-.302.006-.711-.414H18v-.201h-4.958a2.776 2.776 0 0 0-.075-.085 3.667 3.667 0 0 1-.149-.173H18v-.201h-5.36v.011a18.025 18.025 0 0 1-.15-.167 17.882 17.882 0 0 0-.287-.314H18v-.202h-5.976l-.002-.002a16.484 16.484 0 0 1-.379-.423H18v-.19h-6.536l-.282-.303c-.11-.12-.224-.243-.345-.369H18v-.19h-7.342c-.155-.178-.322-.356-.489-.534l-.003-.003H18v-.202H9.987l-.192-.208-.2-.217H18v-.19H9.416a6.566 6.566 0 0 1-.135-.14 3.59 3.59 0 0 0-.134-.14H18v-.202H8.968L8.851 9.4a2.997 2.997 0 0 1-.118-.13H18v-.19H8.554c-.028-.027-.053-.055-.078-.083a2.148 2.148 0 0 0-.079-.084H18V8.71H8.207a5.421 5.421 0 0 0-.117-.128 5.382 5.382 0 0 1-.118-.13H18v-.2H7.793c-.039-.045-.078-.087-.117-.13a2.932 2.932 0 0 1-.118-.128H18v-.202H7.379l-.117-.128a3.688 3.688 0 0 1-.118-.129H18v-.19H6.954c-.135-.146-.27-.291-.392-.426H18v-.167H6.383a47.88 47.88 0 0 1-.47-.504H18v-.202H5.723a.805.805 0 0 1-.063-.07l-.016-.02-.033-.033c-.012-.01-.023-.022-.034-.022L18 5.897V5.51ZM6.416 7.366c-.145-.157-.28-.302-.391-.425v.011h-.873c.1.078.212.168.313.257.056.045.111.1.167.156l.001.001h.783Zm-1.958-.862c.145.067.28.146.425.247h.951l-.134-.14a4.409 4.409 0 0 0-.1-.107H4.457Zm-.448-.201h1.41c-.022-.034-.044-.056-.056-.056H3.81c.067.011.134.033.201.056Zm1.142-.258a.867.867 0 0 0-.302-.1c-.851-.112-1.321-.034-1.579.1h1.88Zm-2.104.202h-.034v.011c0-.011.022-.011.034-.011Zm.01.436a.394.394 0 0 0-.078.291c.012.124.034.247.09.38h1.98c-.604-.492-1.265-.805-1.701-.783-.135.012-.235.045-.291.112Zm2.217.873H3.159c.124.235.291.47.493.706H5.89a4.335 4.335 0 0 0-.615-.706Zm-1.444.907c.09.09.18.18.269.257.145.135.302.247.459.359h1.734a2.018 2.018 0 0 0-.268-.616H3.83Zm2.418 1.063c.056-.056.078-.145.078-.246l-1.455-.01c.638.37 1.186.47 1.377.257Zm.347-1.97h-.762c.224.235.403.47.538.706h.873a26.806 26.806 0 0 0-.31-.336c-.117-.127-.232-.25-.34-.37Zm.841.91-.002-.003h-.951c.112.213.19.425.212.616h1.31c-.19-.212-.38-.413-.569-.614Zm.798.848c-.014-.014-.028-.028-.039-.045H6.719c0 .017-.003.03-.006.045a.217.217 0 0 0-.006.044h1.567c-.01-.016-.025-.03-.039-.044Zm-1.561.246a.654.654 0 0 1-.112.19h2.07a2.95 2.95 0 0 1-.179-.19h-1.78Z" clip-rule="evenodd"/>
  </g>
  <defs>
    <clipPath id="a">
      <path fill="#fff" d="M0 0h18v18H0z"/>
    </clipPath>
  </defs>
</svg>
