<svg xmlns="http://www.w3.org/2000/svg" viewBox="0 0 18 18">
  <g clip-path="url(#a)">
    <path fill="#002677" d="M0 0h18v18H0V0Z"/>
    <path fill="#fff" d="M7.833 10.918a.446.446 0 0 1-.004.626.448.448 0 0 1-.628-.639.448.448 0 0 1 .632.013Zm-.737-.758a.463.463 0 0 0-.646-.001.463.463 0 0 0-.002.646c.18.18.463.183.643.005a.453.453 0 0 0 .005-.65Zm-.008-2.964a.457.457 0 0 0-.632 0 .457.457 0 0 0-.003.632c.174.178.458.18.635.004a.447.447 0 0 0 0-.636Zm.106-.737a.448.448 0 0 0 .634.633.442.442 0 0 0 0-.628.442.442 0 0 0-.634-.005Zm.747 5.193a.445.445 0 0 0 .63.628.44.44 0 0 0 0-.623.444.444 0 0 0-.63-.005Zm-2.224-1.595c.172.17.467.17.634 0a.456.456 0 0 0-.002-.63.448.448 0 0 0-.632.003.448.448 0 0 0 0 .627Zm.633-2.108a.447.447 0 0 0-.631-.008.447.447 0 0 0 .002.63.44.44 0 0 0 .623 0 .44.44 0 0 0 .006-.622Zm1.59-1.606a.44.44 0 0 0 .625.006.445.445 0 0 0-.626-.631.447.447 0 0 0 0 .625h.001Zm.77 6.075a.413.413 0 0 0 0 .579c.16.159.42.16.579.002a.411.411 0 0 0 0-.579.412.412 0 0 0-.579-.002Zm-2.228-.168a.41.41 0 0 0 .578.01.41.41 0 0 0-.005-.579.399.399 0 0 0-.57 0 .398.398 0 0 0-.004.57Zm-.741-1.312a.41.41 0 0 0 .004.574.404.404 0 1 0 .569-.574.405.405 0 0 0-.572 0h-.001Zm-.737-2.222a.39.39 0 0 0 .003.561c.16.16.4.162.559.003a.387.387 0 0 0 0-.559.39.39 0 0 0-.561-.005h-.001Zm2.24 4.257a.376.376 0 0 0 .536.006.375.375 0 0 0 .003-.535.38.38 0 0 0-.536-.006.38.38 0 0 0-.003.535ZM5.748 7.057a.397.397 0 0 0 .572.003.406.406 0 0 0-.573-.575.4.4 0 0 0 0 .57l.001.002Zm1.308-.734a.406.406 0 0 0 .008-.576.413.413 0 0 0-.579-.004.414.414 0 0 0 0 .578.405.405 0 0 0 .57.002Zm2.223-.757a.39.39 0 0 0-.003-.548.385.385 0 0 0-.553.001.381.381 0 0 0 .009.546c.152.151.4.154.547 0v.001Zm-3.72 5.192a.379.379 0 0 0 .003-.536.374.374 0 0 0-.534-.009.373.373 0 0 0-.005.534c.15.151.385.156.536.01Zm-.535-3.511a.374.374 0 0 0 0 .532c.15.152.392.155.54.008a.38.38 0 0 0-.002-.534.374.374 0 0 0-.537-.005v-.001Zm2.737-1.672a.374.374 0 0 0 .028-.543.38.38 0 0 0-.539-.018.38.38 0 0 0-.014.534c.14.15.376.163.525.027Zm.249 8.123c.13.132.36.133.493.002a.353.353 0 0 0 .003-.491.345.345 0 0 0-.496-.001.35.35 0 0 0 0 .49Zm1.49-.497a.347.347 0 0 0-.002.49c.14.14.356.143.494.004a.343.343 0 0 0-.002-.488.346.346 0 0 0-.49-.006ZM4.796 9.989a.35.35 0 0 0-.497-.492.35.35 0 0 0 .497.493ZM4.302 8.5c.137.146.37.133.495.007a.352.352 0 0 0-.007-.496.342.342 0 0 0-.487.002.343.343 0 0 0-.002.487Zm1.486 3.965a.345.345 0 0 0 .004.485.338.338 0 0 0 .478.004.338.338 0 0 0 .004-.483.346.346 0 0 0-.486-.006Zm-.735-.252c.131.13.35.129.482-.002a.346.346 0 0 0 .003-.482.35.35 0 0 0-.49-.005.35.35 0 0 0 .005.489ZM9.5 4.797a.357.357 0 0 0 .494 0 .356.356 0 0 0-.003-.495.347.347 0 0 0-.492.003.347.347 0 0 0 0 .492H9.5Zm-1.497-.49a.347.347 0 0 0 .015.49c.138.135.353.13.489-.01a.342.342 0 0 0-.013-.489.347.347 0 0 0-.49.008Zm-1.448 8.92a.304.304 0 0 0 0 .442.308.308 0 0 0 .438.007.307.307 0 0 0-.001-.445.303.303 0 0 0-.437-.004Zm-1.02-7.439a.35.35 0 0 0-.488.002.35.35 0 0 0 0 .482.347.347 0 0 0 .487.003.347.347 0 0 0 .001-.487Zm-1.212 5.655a.318.318 0 0 0 .449.007.318.318 0 0 0 .001-.444.31.31 0 0 0-.441-.004.31.31 0 0 0-.01.441Zm1.464-5.916c.133.137.355.14.488.007a.345.345 0 0 0 .002-.482.336.336 0 0 0-.48-.005.335.335 0 0 0-.01.48Zm3.428 8.883a.302.302 0 0 0 0-.435.312.312 0 0 0-.431 0 .312.312 0 0 0 .002.437c.12.118.309.118.429-.002ZM4.329 6.547a.31.31 0 0 0-.003.442.306.306 0 0 0 .441.009.305.305 0 0 0 .004-.44.308.308 0 0 0-.442-.01v-.001Zm2.67-2.22a.325.325 0 0 0-.453 0 .324.324 0 0 0 .004.446c.118.12.326.12.446 0A.324.324 0 0 0 7 4.326ZM3.59 8.778a.303.303 0 0 0 0 .43.299.299 0 0 0 .434.003.3.3 0 0 0-.004-.428.303.303 0 0 0-.43-.005ZM9.22 3.59a.315.315 0 0 0-.438 0 .316.316 0 0 0 .007.439.306.306 0 0 0 .43-.009.306.306 0 0 0 .001-.43Z"/>
    <path fill="#0AE" d="M10.827 8.607a.495.495 0 1 1 .004-.698.494.494 0 0 1-.005.698h.001Zm-2.96-.701a.501.501 0 0 0-.701.002.494.494 0 1 0 .7-.002Zm.04-.745a.496.496 0 0 0 .697.706.496.496 0 0 0-.698-.706h.001Zm1.488.702a.487.487 0 0 0 .695 0 .487.487 0 0 0 .004-.695.492.492 0 0 0-.7 0 .492.492 0 0 0 0 .695Zm-.727 3.69a.469.469 0 0 0 .665.002.47.47 0 0 0-.005-.66.46.46 0 0 0-.657.005.46.46 0 0 0-.003.652Zm2.227-2.228a.45.45 0 0 0 .655-.003.457.457 0 0 0-.006-.657.465.465 0 0 0-.658.008.46.46 0 0 0 .008.652Zm-4.446-.66a.47.47 0 0 0-.001.663.47.47 0 0 0 .662 0 .469.469 0 0 0-.66-.663h-.001Zm2.219-2.221a.469.469 0 0 0 .666.66.469.469 0 0 0-.666-.66Zm1.507 5.094a.431.431 0 0 0 .625-.001.43.43 0 0 0-.003-.625.436.436 0 0 0-.625 0 .436.436 0 0 0 .003.626Zm1.375-1.379a.464.464 0 0 0-.647-.002.464.464 0 0 0-.002.647.453.453 0 0 0 .643.005.453.453 0 0 0 .006-.65Zm-.008-2.964a.457.457 0 0 0-.633 0 .458.458 0 0 0-.004.632c.175.178.459.18.636.003a.446.446 0 0 0 0-.635Zm-1.376-.11c.17.175.466.178.638.005a.452.452 0 0 0 0-.63.443.443 0 0 0-.629-.004.446.446 0 0 0-.008.63h-.001Zm-.739 4.57a.445.445 0 0 0 .635.621.44.44 0 0 0-.005-.623.444.444 0 0 0-.63 0v.001Zm2.226-2.232a.444.444 0 0 0-.001.625.439.439 0 0 0 .63.005.438.438 0 0 0-.004-.624.444.444 0 0 0-.626-.006h.001Zm.003-.85c.17.17.457.169.626 0a.451.451 0 0 0 .003-.626.441.441 0 0 0-.63-.003.44.44 0 0 0 0 .63ZM9.428 6.34a.442.442 0 0 0 .637-.613.445.445 0 0 0-.627-.017.445.445 0 0 0-.01.63Zm1.506 5.906a.41.41 0 0 0 .579.015.41.41 0 0 0 0-.579.399.399 0 0 0-.569-.005.398.398 0 0 0-.01.569Zm.743-.733c.153.156.42.158.577.005a.416.416 0 0 0 0-.584.41.41 0 0 0-.574.004.41.41 0 0 0-.003.575Zm.748-2.238a.407.407 0 0 0 .572.009.406.406 0 0 0 .002-.566.395.395 0 0 0-.562-.005.395.395 0 0 0-.012.562Zm-1.674 3.709a.382.382 0 0 0-.527-.552.382.382 0 0 0 .527.552Zm.93-6.5a.41.41 0 0 0 .576.58.41.41 0 0 0-.575-.58h-.002Zm-.162-.736a.414.414 0 0 0-.579-.007.413.413 0 0 0-.001.578c.157.16.416.16.576-.001a.405.405 0 0 0 .004-.57Zm.918 4.472a.374.374 0 0 0 .008.533c.15.147.394.146.536-.003a.378.378 0 0 0-.01-.536.374.374 0 0 0-.535.005Zm.54-2.435c.148-.14.143-.382.003-.534a.38.38 0 0 0-.54-.007.374.374 0 0 0-.002.532c.126.143.37.169.539.009Zm-2.76-2.227a.387.387 0 0 0 .541.002.386.386 0 0 0-.007-.542.375.375 0 0 0-.532.008.374.374 0 0 0-.002.532Zm2.99 3.933a.35.35 0 0 0 .491.498.35.35 0 0 0-.492-.498h.001Zm-.004-.993c.137.147.37.134.496.008a.353.353 0 0 0-.005-.495.343.343 0 0 0-.487 0 .343.343 0 0 0-.004.487Zm-1.48 4.453c.129.13.359.132.489.003a.35.35 0 0 0-.003-.488.343.343 0 0 0-.486.484Zm.745-1.232a.349.349 0 0 0-.008.483c.13.138.352.142.488.01a.347.347 0 0 0 .008-.482.35.35 0 0 0-.488-.011Zm-1.017 1.954a.313.313 0 0 0-.005-.447.31.31 0 0 0-.44 0 .306.306 0 0 0 .005.444.31.31 0 0 0 .44.002v.001Zm1.498-7.887a.351.351 0 0 0-.481 0 .351.351 0 0 0-.003.488.347.347 0 0 0 .487 0 .347.347 0 0 0-.002-.487Zm-.735-.735a.347.347 0 0 0-.49-.003.348.348 0 0 0 .002.484.343.343 0 0 0 .488-.48V5.05Zm1.461 6.395a.316.316 0 0 0 0-.444.32.32 0 0 0-.45.003.32.32 0 0 0 .006.445c.122.12.323.12.444-.003Zm-.446-4.45c.117.12.326.121.446.004a.324.324 0 0 0 .004-.446.314.314 0 0 0-.45-.001.315.315 0 0 0 0 .444v-.001Zm-1.774-2.67A.325.325 0 0 0 11 4.325a.324.324 0 0 0 .003.448c.117.12.325.12.446.001a.324.324 0 0 0 .004-.447Zm2.522 4.89a.32.32 0 0 0 .435.004.32.32 0 0 0 .005-.436.309.309 0 0 0-.44.432Zm-5.324.874a.494.494 0 1 0 .698-.7.494.494 0 0 0-.698.7Zm1.479 0a.494.494 0 1 0 .698-.7.494.494 0 0 0-.698.7Zm-2.96 0a.494.494 0 1 0 .698-.7.494.494 0 0 0-.699.7Zm.736.742a.494.494 0 1 0 .699-.7.494.494 0 0 0-.699.7Zm1.49-1.486a.494.494 0 1 0 .697-.7.494.494 0 0 0-.698.7Zm0 1.486a.494.494 0 1 0 .697-.7.494.494 0 0 0-.698.7Zm-1.49-1.486a.494.494 0 1 0 .699-.7.494.494 0 0 0-.699.7Zm.745-.74a.494.494 0 1 0 .698-.7.494.494 0 0 0-.698.7Z"/>
  </g>
  <defs>
    <clipPath id="a">
      <path fill="#fff" d="M0 0h18v18H0z"/>
    </clipPath>
  </defs>
</svg>
