<svg xmlns="http://www.w3.org/2000/svg" viewBox="0 0 18 18">
  <g clip-path="url(#a)">
    <path fill="#003867" d="M0 0h18v18H0V0Z"/>
    <path fill="#fff" fill-rule="evenodd" d="M3.865 11.773c-1.141 0-1.859-.34-1.859-.835 0-.708 1.132-1.076 2.463-1.076.55 0 1.151.068 1.784.172.248-.25.492-.518.727-.779.47-.522 1.161-1.272 1.739-1.715 1.096-.839 2.495-1.445 3.972-1.445 1.837 0 3.308.62 3.308 1.546 0 .531-.522.991-1.455 1.027l-.03-.17c.196-.09.438-.254.438-.756 0-.66-.74-1.315-2.1-1.315-1.309 0-2.056.614-2.897 1.488-.44.456-.913 1.024-1.344 1.467-.323.33-.669.633-1.027.904 1.474.296 3.033.642 4.475.642 1.484 0 2.159-.385 2.505-.704l.094.137c-.372.763-1.497 1.412-2.935 1.412-1.843 0-3.487-.519-4.929-.953-1.008.604-2.051.953-2.929.953Zm1.879-1.256c-.64-.17-1.233-.287-1.784-.287-.58 0-1.04.248-1.04.633 0 .362.342.577.952.577.626 0 1.262-.388 1.872-.923Z" clip-rule="evenodd"/>
  </g>
  <defs>
    <clipPath id="a">
      <path fill="#fff" d="M0 0h18v18H0z"/>
    </clipPath>
  </defs>
</svg>
