<svg xmlns="http://www.w3.org/2000/svg" viewBox="0 0 18 18">
  <g clip-path="url(#a)">
    <path fill="#003A70" d="M0 0h18v18H0V0Z"/>
    <path fill="#fff" d="M6.405 6.26v4.25L3.762 6.524l-.01-.018c-.068-.109-.184-.292-.397-.292-.19 0-.355.16-.355.348v5.206h.64V7.5l2.66 4.01c.06.1.183.306.404.306.153 0 .34-.082.34-.47V6.26h-.64Zm3.804.235c-.045-.093-.134-.287-.385-.295h-.026c-.175.004-.317.116-.389.307L7.317 11.73l-.015.038h.732l1.78-4.578 1.77 4.56.008.018h.733l-2.116-5.274Z"/>
    <path fill="#F9BE00" d="m10.938 9.201-5.73.153 5.349.146-1.645 1.61 1.828-1.528.19.501"/>
    <path fill="#FF4612" d="M10.938 9.202 17 9.049l-5.673-.154 1.745-1.711-1.936 1.622-.21-.516"/>
  </g>
  <defs>
    <clipPath id="a">
      <path fill="#fff" d="M0 0h18v18H0z"/>
    </clipPath>
  </defs>
</svg>
