<svg xmlns="http://www.w3.org/2000/svg" viewBox="0 0 18 18">
  <g clip-path="url(#a)">
    <path d="M0 0h18v18H0V0Z"/>
    <path fill="#fff" d="M4.5 5.188h1.618l2.184 5.025h.37c.73-1.675 1.46-3.351 2.192-5.025h1.557v7.79c-.45.002-.898 0-1.348.002-.003-.537 0-1.074-.001-1.61V7.633c-.56 1.294-1.12 2.589-1.678 3.884H7.479L5.85 7.642v3.749c0 .53.002 1.059-.002 1.588-.449-.002-.899 0-1.348-.001v-7.79Z"/>
    <path fill="#5AED4A" d="M13.982 11.322a.87.87 0 0 1 .987.632.877.877 0 0 1-.788 1.105h-.107a.876.876 0 0 1-.091-1.737Z"/>
  </g>
  <defs>
    <clipPath id="a">
      <path fill="#fff" d="M0 0h18v18H0z"/>
    </clipPath>
  </defs>
</svg>
