<svg xmlns="http://www.w3.org/2000/svg" viewBox="0 0 18 18">
  <g clip-path="url(#a)">
    <path fill="#000" d="M0 0h18v18H0V0Z" />
    <path fill="#F33"
      d="M12.404 5.376a3.177 3.177 0 0 1 .362.362c.124.136.235.283.332.44.484.72.778 1.55.854 2.415a5.137 5.137 0 0 1-.973 3.43c-.365.495-.878.95-1.491.971-.49.018-.944-.244-1.344-.527-.584-.413-1.507-1.318-2.636-2.811-.068-.09-.37-.531-.34-.639a.303.303 0 0 1 .347-.171c.181.173.347.36.496.562a29.327 29.327 0 0 0 1.524 1.612c.265.267.549.515.848.742.19.141.41.237.641.281a.659.659 0 0 0 .552-.116c.397-.393.092-1.037-.139-1.432a3.537 3.537 0 0 0-.252-.369c-.093-.116-.198-.22-.28-.34a.253.253 0 0 1-.019-.29c.18-.22.455.09.575.22.124.141.266.267.422.373a.816.816 0 0 0 .674.134c.356-.117.514-.499.576-.868a4.889 4.889 0 0 0-.545-3.114 4.663 4.663 0 0 0-.285-.45.91.91 0 0 1-.172-.248.165.165 0 0 1 .029-.145.137.137 0 0 1 .118-.064.268.268 0 0 1 .126.042Z" />
    <path fill="#F33"
      d="M4.034 7.848c.004-.056.012-.112.024-.167.028-.11.062-.22.101-.327.056-.176.13-.346.22-.507a5.051 5.051 0 0 1 5.128-2.813c.61.068 1.26.285 1.585.806.262.415.262.94.22 1.427-.066.712-.395 1.977-1.115 3.692-.044.103-.273.586-.383.615a.306.306 0 0 1-.32-.22c.051-.245.125-.484.22-.716.1-.294.195-.593.285-.892.125-.408.244-.82.347-1.236.099-.36.172-.727.22-1.098a1.55 1.55 0 0 0-.078-.694.645.645 0 0 0-.375-.42c-.54-.149-.944.44-1.17.835-.074.13-.14.265-.196.404-.053.136-.088.279-.154.41a.255.255 0 0 1-.241.163c-.288-.044-.15-.439-.097-.608.062-.179.1-.365.114-.553a.826.826 0 0 0-.22-.66c-.278-.25-.687-.197-1.038-.065a4.893 4.893 0 0 0-2.668 2.503.93.93 0 0 1-.13.275.176.176 0 0 1-.14.048.138.138 0 0 1-.115-.077.22.22 0 0 1-.024-.125Z" />
    <path fill="#F33"
      d="M10.34 13.788a1.188 1.188 0 0 1-.161.057 3.11 3.11 0 0 1-.334.076 3.05 3.05 0 0 1-.547.066 5.053 5.053 0 0 1-2.523-.47 5.126 5.126 0 0 1-2.486-2.558c-.246-.558-.382-1.232-.095-1.775.22-.439.683-.696 1.127-.902.659-.299 1.902-.641 3.755-.879.112-.015.646-.057.723.025a.3.3 0 0 1-.03.384 4.23 4.23 0 0 1-.734.162 29.953 29.953 0 0 0-2.159.514c-.362.1-.717.226-1.06.376-.218.093-.41.234-.565.413a.659.659 0 0 0-.174.536c.14.54.85.6 1.318.595.147-.002.294-.013.44-.033.144-.022.287-.064.438-.073a.255.255 0 0 1 .262.13c.107.27-.303.349-.48.386a2.228 2.228 0 0 0-.535.18.81.81 0 0 0-.459.501c-.079.367.174.694.461.931a4.833 4.833 0 0 0 1.904.945 4.99 4.99 0 0 0 1.065.142c.18 0 .36 0 .539-.02a.939.939 0 0 1 .303-.021.162.162 0 0 1 .11.096.139.139 0 0 1 0 .134.24.24 0 0 1-.104.082Z" />
  </g>
  <defs>
    <clipPath id="a">
      <path fill="#fff" d="M0 0h18v18H0z" />
    </clipPath>
  </defs>
</svg>