<svg xmlns="http://www.w3.org/2000/svg" viewBox="0 0 18 18">
  <g clip-path="url(#a)">
    <path fill="#fff" d="M0 0h18v18H0V0Z"/>
    <path fill="#CD3029" d="M8.828 5.967V3.3L6.626 4.548V7.25l2.202-1.284Zm.387 3.457V3.32l2.546 1.62v5.903l-2.546-1.42Zm2.919 1.606V8.39L14.5 9.789v2.546l-2.366-1.305Zm-5.687.301L9.03 9.732l5.406 2.962-2.789 1.541-5.199-2.904Zm-2.581 1.563 2.251-1.29 2.295 1.247-2.237 1.313-2.31-1.27Zm4.962-3.471V6.368L3.5 9.423v3.241l5.328-3.241Z"/>
  </g>
  <defs>
    <clipPath id="a">
      <path fill="#fff" d="M0 0h18v18H0z"/>
    </clipPath>
  </defs>
</svg>
