<svg xmlns="http://www.w3.org/2000/svg" viewBox="0 0 18 18">
  <g clip-path="url(#a)">
    <path fill="#7F2629" d="M0 0h18v18H0V0Z"/>
    <path fill="#A2A9AD" d="M2.5 7.188c.858 0 1.308 1.05 1.752 2.086.41.958.816 1.903 1.498 1.903.683 0 1.089-.945 1.499-1.903.444-1.037.893-2.086 1.751-2.086.858 0 1.308 1.05 1.751 2.086.41.958.816 1.903 1.499 1.903.685 0 1.089-.945 1.499-1.903.444-1.037.893-2.086 1.751-2.086v.176c-.742 0-1.17.997-1.59 1.98-.434 1.01-.86 2.01-1.66 2.01-.798 0-1.226-1-1.66-2.01-.422-.983-.848-1.98-1.59-1.98-.742 0-1.17.997-1.59 1.98-.434 1.01-.86 2.01-1.66 2.01-.798 0-1.226-1-1.66-2.01-.422-.983-.847-1.98-1.59-1.98v-.176Z"/>
    <path fill="#fff" d="M14.149 9.015c-.468-1.104-.928-2.197-1.9-2.197-.97 0-1.432 1.09-1.898 2.197-.388.918-.78 1.845-1.351 1.845s-.963-.93-1.351-1.845C7.18 7.911 6.72 6.818 5.75 6.818s-1.433 1.09-1.899 2.197c-.388.918-.78 1.845-1.35 1.845v.699c1.03 0 1.514-1.144 1.99-2.273.375-.89.748-1.769 1.26-1.769.51 0 .883.878 1.259 1.77.477 1.127.961 2.272 1.99 2.272 1.03 0 1.514-1.145 1.99-2.273.376-.89.748-1.769 1.26-1.769.511 0 .884.878 1.26 1.77.477 1.127.961 2.272 1.99 2.272v-.699c-.571 0-.963-.927-1.351-1.845Z"/>
  </g>
  <defs>
    <clipPath id="a">
      <path fill="#fff" d="M0 0h18v18H0z"/>
    </clipPath>
  </defs>
</svg>
