<svg xmlns="http://www.w3.org/2000/svg" viewBox="0 0 18 18">
  <g clip-path="url(#a)">
    <path fill="#0626A9" d="M0 0h18v18H0V0Z"/>
    <path fill="#fff" d="M12.603 12.69a.076.076 0 0 1-.057-.021l-7.47-7.48a.076.076 0 0 1 0-.109.076.076 0 0 1 .11 0l7.474 7.48c.03.031.03.078 0 .109a.103.103 0 0 1-.057.02Zm-7.464.005a.075.075 0 0 1-.057-.13l7.474-7.474a.074.074 0 0 1 .109 0 .074.074 0 0 1 0 .108l-7.469 7.475a.078.078 0 0 1-.057.02Zm3.745 1.547a.08.08 0 0 1-.078-.077V3.585a.08.08 0 0 1 .078-.078.08.08 0 0 1 .077.077v10.581a.08.08 0 0 1-.077.078Zm5.286-5.29H3.593a.08.08 0 0 1-.078-.077.08.08 0 0 1 .078-.078h10.572a.08.08 0 0 1 .077.078c0 .04-.03.077-.072.077Zm-.719-2.645h-9.18a.08.08 0 0 1-.078-.078.08.08 0 0 1 .077-.077h9.181a.08.08 0 0 1 .077.077.08.08 0 0 1-.077.078Zm-.01 5.29H4.27a.08.08 0 0 1-.078-.077.08.08 0 0 1 .077-.078h9.17a.08.08 0 0 1 .079.078.075.075 0 0 1-.078.077Zm-4.557 2.646a.08.08 0 0 1-.078-.078V3.585a.08.08 0 0 1 .078-.078.08.08 0 0 1 .077.077v10.581a.08.08 0 0 1-.077.078Zm-2.643-.725a.08.08 0 0 1-.078-.078V4.284a.08.08 0 0 1 .078-.078.08.08 0 0 1 .077.078v9.157a.076.076 0 0 1-.077.078Zm5.286 0a.08.08 0 0 1-.078-.078V4.3a.08.08 0 0 1 .078-.078.08.08 0 0 1 .078.078v9.142a.077.077 0 0 1-.078.077Zm2.643-4.566a.078.078 0 0 1-.057-.02L8.827 3.635a.075.075 0 0 1 0-.108.074.074 0 0 1 .108 0l5.287 5.29a.074.074 0 0 1 0 .108c-.016.016-.031.026-.052.026Zm-5.286 5.29a.078.078 0 0 1-.057-.02l-5.286-5.29a.075.075 0 0 1 0-.109.074.074 0 0 1 .108 0l5.286 5.29a.074.074 0 0 1 0 .109.072.072 0 0 1-.051.02Zm0 0a.075.075 0 0 1-.057-.13l5.286-5.289a.075.075 0 0 1 .11 0c.03.03.03.078 0 .108l-5.288 5.29a.072.072 0 0 1-.051.021Zm-5.291-5.29a.076.076 0 0 1-.057-.02.074.074 0 0 1 0-.109l5.291-5.295a.074.074 0 0 1 .108 0 .074.074 0 0 1 0 .108L3.65 8.931a.103.103 0 0 1-.056.021Z"/>
    <path fill="#fff" fill-rule="evenodd" d="M8.869 14.237a5.359 5.359 0 0 1-5.365-5.362A5.359 5.359 0 0 1 8.87 3.512a5.358 5.358 0 0 1 5.363 5.363 5.358 5.358 0 0 1-5.363 5.362Zm5.208-5.367A5.204 5.204 0 0 0 8.87 3.662 5.203 5.203 0 0 0 3.66 8.87a5.203 5.203 0 0 0 5.209 5.207 5.203 5.203 0 0 0 5.208-5.207Z" clip-rule="evenodd"/>
    <path fill="#fff" d="M8.874 9.32a.45.45 0 1 1 0-.9.45.45 0 0 1 0 .9Zm.01 2.53a.33.33 0 1 1 0-.66.33.33 0 0 1 0 .66ZM6.24 6.56a.33.33 0 1 1 0-.66.33.33 0 0 1 0 .661Zm-.005 5.41a.45.45 0 1 1-.002-.9.45.45 0 0 1 .002.9Zm7.934-2.765a.33.33 0 1 1 0-.66.33.33 0 0 1 0 .66Zm-5.286 5.29a.33.33 0 1 1-.001-.66.33.33 0 0 1 0 .66Zm2.638-.604a.45.45 0 1 1 0-.9.45.45 0 0 1 0 .9ZM4.27 11.85a.33.33 0 1 1 0-.662.33.33 0 0 1 0 .662Zm7.252-7.102a.45.45 0 1 1 0-.902.45.45 0 0 1 0 .902ZM4.265 6.685a.45.45 0 1 1 0-.9.45.45 0 0 1 0 .9Zm9.186-.125a.33.33 0 1 1 0-.66.33.33 0 0 1 0 .66Zm-1.924 2.65a.331.331 0 1 1 0-.662.331.331 0 0 1 0 .663ZM5.134 5.464a.33.33 0 1 1 0-.661.33.33 0 0 1 0 .661Zm1.107-.833a.33.33 0 1 1-.001-.662.33.33 0 0 1 0 .662Z"/>
  </g>
  <defs>
    <clipPath id="a">
      <path fill="#fff" d="M0 0h18v18H0z"/>
    </clipPath>
  </defs>
</svg>
