<svg xmlns="http://www.w3.org/2000/svg" viewBox="0 0 18 18">
  <g clip-path="url(#a)">
    <path fill="#233041" d="M0 0h18v18H0V0Z"/>
    <path fill="#fff" d="M8.732 12.796 9 11.764 7.186 4.815l-.09.007-2.686-.007H4l2.603 8.462c.265.908.988.908 1.042.908h.107c.12-.007.656-.106.979-1.388Z"/>
    <path fill="#06D49D" d="M11.397 13.277 14 4.815h-.41l-2.687.007-.09-.007-2.083 7.98c-.364 1.451-1.003 1.388-1.003 1.388h2.627c.054.001.778.001 1.043-.906Z"/>
  </g>
  <defs>
    <clipPath id="a">
      <path fill="#fff" d="M0 0h18v18H0z"/>
    </clipPath>
  </defs>
</svg>
