<svg xmlns="http://www.w3.org/2000/svg" viewBox="0 0 18 18">
  <g clip-path="url(#a)">
    <path fill="#242525" d="M0 0h18v18H0V0Z"/>
    <path fill="#D2CBC4" d="M9.766 4.647c.534 0 .851.335 1.105.607.108.127.28.371.516.598.208.199.96.634 1.812 1.902 1.603 2.383 2.301 4.122 2.301 4.484 0 .091-.036.118-.09.118-.182 0-.598-.272-.888-.489l-.01.009c.091.226.372 1.015.454 1.25a.53.53 0 0 1 .045.2c0 .072-.018.117-.055.153a.221.221 0 0 1-.163.055h-.335c-.136 0-.19.027-.272.109a5.796 5.796 0 0 0-.235.226.257.257 0 0 1-.181.082c-.136 0-.2-.091-.236-.254-.181-.96-.344-2.011-.39-2.301 0-.018-.008-.045-.008-.064 0-.027.009-.045.045-.045s.045.036.063.1c.064.28.335 1.286.508 2.102.009.063.045.09.081.09.027 0 .045-.009.082-.045l.154-.154c.036-.036.045-.055.045-.1a.734.734 0 0 0-.036-.172c-.027-.136-.1-.525-.172-.86-.01-.064-.019-.082-.019-.1 0-.018.019-.036.037-.036s.036.009.045.036c.054.154.308.897.353 1.033a.314.314 0 0 0 .055.081c.018.018.045.027.108.027h.157c.029 0 .045-.002.06-.018.01-.009.019-.027.019-.054 0-.036-.018-.073-.027-.109l-.49-1.413a13.822 13.822 0 0 1-2.092-1.84c-.68-.742-1.323-1.639-1.558-2.635a.977.977 0 0 1-.037-.19c0-.019.01-.037.037-.037.027 0 .036.01.045.036.027.064.045.118.082.182.434.96.942 1.72 1.512 2.373.816.915 1.821 1.658 2.98 2.446l.01-.009c-.408-1.114-1.133-2.546-2.238-4.158a7.795 7.795 0 0 0-.851-1.051c-.435-.453-.725-.607-.87-.743-.217-.2-.399-.471-.516-.598-.254-.28-.508-.552-.933-.552a.75.75 0 0 0-.725.489c-.036.1-.045.163-.082.217-.036.064-.1.172-.172.29h.317l-.18.317a1.67 1.67 0 0 1 .398-.054c.208 0 .435.054.543.262.163.318.136 1.033.317 1.54.19.526.544 1.006.97 1.432.009.018.018.018.018.036s-.018.036-.046.036c0 0-.009 0-.018-.009-.516-.39-.978-.887-1.16-1.395-.208-.543-.208-1.268-.325-1.504-.064-.126-.218-.172-.417-.172-.227 0-.408.036-.643.09l.208-.389h-.426c.1-.154.317-.543.372-.625.027-.036.045-.136.081-.217.109-.281.444-.616.96-.616Zm2.156 5.689c.063.045.135.09.226.145-.308.697-.851 1.304-1.486 1.658-.29.163-.552.28-1.105.28H8.48a2.47 2.47 0 0 0-.716.082c-.226.064-.38.118-.625.118-.435 0-.797-.227-.942-.39l-1.014.789c-.308.244-.59.29-.897.29H4.23v-.082c0-.055.018-.1.046-.127a.191.191 0 0 1 .126-.036c.164 0 .354-.046.508-.136.154-.09.253-.2.253-.49 0-.37-.117-.498-.607-.66l.236-.146c.353.145.589.263.589.77 0 .046 0 .082-.01.127l.01.01c.19-.146 1.087-.807 1.16-.861l.126.163-.253.2c.135.144.416.289.715.289.209 0 .335-.054.535-.109.2-.054.435-.1.815-.1h1.07c.497 0 .724-.09.978-.235.534-.299 1.05-.824 1.395-1.549Zm-7.23-2.165-.1.208c-.099 0-1.041.1-1.041.363 0 .226.589.452.824.452a.7.7 0 0 0 .29-.081c.1-.036.19-.073.326-.073.281 0 .843.218 1.196.417l-.045.073c-.027.054-.064.072-.118.072-.018 0-.036 0-.054-.009-.317-.127-.689-.272-.979-.272-.127 0-.217.037-.308.073-.09.036-.199.081-.317.081-.226 0-.643-.172-.824-.335-.018.045-.036.09-.036.145 0 .263.489.67.95.788l.046.218c-.317-.037-.589-.136-.797-.3a.248.248 0 0 0-.036.127c0 .091.045.173.072.209.045.081.3.362.335.408.109.117.181.135.263.135.072 0 .127-.018.19-.036.055-.009.118-.027.19-.027.164 0 .372.082.607.217.236.136.463.309.635.508l-.2.145a2.63 2.63 0 0 0-.534-.426c-.227-.136-.399-.2-.553-.2-.136 0-.253.055-.39.11-.452.19-1.068.434-1.186.489-.308.135-.317.308-.317.498v.226c0 .1-.018.2-.19.2h-.082c-.009-.127-.009-.281-.009-.417 0-.344.109-.562.534-.743.127-.054.653-.28.943-.39l-.073-.072c-.344-.362-.516-.553-.516-.86 0-.146.045-.218.045-.281 0-.082-.072-.145-.136-.245-.054-.1-.109-.208-.109-.29 0-.136.055-.208.055-.326 0-.09-.054-.136-.054-.227 0-.317.824-.552 1.503-.552Zm6.432 1.73c.046.036.136.1.2.136-.607.326-.86.716-1.133 1.16a.24.24 0 0 0 .118.009c.28 0 .516-.163.788-.38l.01.09a.2.2 0 0 1 .008.072c0 .055-.009.1-.081.154-.19.154-.498.317-.797.317-.082 0-.145-.018-.218-.036-.516.317-1.322.453-2.183.453h-.163l.018-.082a.2.2 0 0 1 .054-.108c.018-.027.046-.037.118-.037.154 0 .661-.018.97-.09-.082-.208-.236-.48-.472-.48-.154 0-.371.081-.607.181-.28.118-.552.254-.652.308l-.127-.172c.09-.064.38-.218.707-.363.28-.117.516-.226.725-.226.299 0 .58.344.688.688.19-.036.344-.09.462-.135.48-.19.444-.462.897-.942.2-.209.435-.417.67-.517Zm-6.06-.29c.217 0 .335.109.444.3.09.162.163.343.262.488.236.345.508.48.816.48.271 0 .589-.108.888-.28l.045.208c-.308.172-.634.29-.951.29-.372 0-.761-.163-1.042-.58-.109.018-.3.055-.562.055-.1 0-.154 0-.2-.019-.035-.018-.044-.045-.054-.09l-.018-.1h.1c.208 0 .49-.018.607-.063l-.045-.09c-.118-.255-.2-.354-.372-.354a.895.895 0 0 0-.299.063c-.018 0-.036.018-.072.018-.064 0-.09-.045-.109-.117l-.009-.046c.19-.081.38-.163.57-.163Zm5.463-.09a3.8 3.8 0 0 0 .172.126l-.118.145c-.444.562-.815 1.042-1.114 1.042-.29 0-.39-.335-.4-.589-.443.046-.86.2-1.285.453l-.055-.208c.471-.254.897-.453 1.595-.525.018.262-.01.597.19.597.181 0 .57-.462 1.014-1.041Zm1.839-.97c.009 0 .027.018.045.037.235.298.507.597.77.878.335.363.697.734 1.033 1.033.009.018.018.027.018.036 0 .027-.018.046-.037.046-.018 0-.027-.01-.045-.019l-.109-.081a7.357 7.357 0 0 1-.978-.843 4.47 4.47 0 0 1-.661-.878c-.064-.1-.082-.136-.082-.172 0-.019.018-.037.046-.037Zm-5.11.78.136.171c-.317.127-.951.4-.951.635 0 .081.045.145.235.145.335 0 .698-.164 1.033-.327.027-.009.054-.018.082-.018.045 0 .072.018.1.055l.054.072c-.39.218-.88.444-1.323.444-.308 0-.444-.145-.444-.335 0-.326.57-.643 1.078-.843Zm2.917-.137c.036.046.109.11.163.164-.072.045-.489.271-.915.271a3.07 3.07 0 0 1-.525-.045 3.375 3.375 0 0 0-.426-.036c-.163 0-.48.045-.67.136l-.136-.172c.29-.2.589-.227.824-.227.145 0 .317.018.49.045.144.018.271.037.425.037.317 0 .634-.118.77-.173ZM8.497 6.94l-.172.416.39.173a1.604 1.604 0 0 0-.662.878c-.063.218-.072.462-.081.616v.055c-.01.018-.027.036-.046.036-.018 0-.027-.018-.036-.036a1.695 1.695 0 0 1-.072-.499c0-.507.344-.924.507-1.023l-.254-.1.11-.254-.046.019a.432.432 0 0 1-.2.045c-.117 0-.199-.036-.335-.036a.526.526 0 0 0-.38.145.61.61 0 0 0-.181.416c-.01.046-.01.09-.01.136-.008.263-.054.354-.19.553-.136.217-.353.516-.516.752-.054-.027-.19-.109-.236-.127a5.08 5.08 0 0 1 .444-.652c.163-.218.218-.29.254-.598.018-.227.027-.471.272-.707a.744.744 0 0 1 .743-.163c.09.027.163.036.226.036.09 0 .181-.027.29-.045l.181-.036Zm-1.44-1.423c.172 0 .263.037.444.118.127.064.235.064.39.064h.244l-.263.38.344.263c-.489.154-.588.263-.724.426-.037.054-.055.072-.091.072-.027 0-.036-.018-.036-.036 0-.01.009-.027.018-.054.045-.118.19-.381.462-.463l-.217-.154.163-.217a.31.31 0 0 1-.1.01.563.563 0 0 1-.272-.055.753.753 0 0 0-.326-.082.535.535 0 0 0-.371.145c-.118.118-.145.272-.19.444-.118.49-.309.698-.617 1.06l-.1.118c-.298.353-.507.815-.67 1.15l-.036.073h-.142a.891.891 0 0 0-.157.009c.28-.689.444-.997.77-1.377.245-.29.317-.363.426-.517.127-.19.19-.38.226-.57.064-.227.118-.435.29-.598a.794.794 0 0 1 .535-.209Zm2.5 2.71.09.198H8.47l.118-.199h.97Zm-3.913-3.59a.54.54 0 0 1 .39.154c.108.1.171.244.171.39a.433.433 0 0 1-.145.334.303.303 0 0 1 .027.136c0 .2-.144.444-.39.526-.026.235-.28.38-.534.38-.063 0-.081-.009-.081-.045 0-.045.136-.045.272-.181a.57.57 0 0 0 .163-.3c.208-.072.326-.208.326-.398a.513.513 0 0 0-.027-.163.337.337 0 0 0 .117-.254.305.305 0 0 0-.308-.308.3.3 0 0 0-.28.182.538.538 0 0 0-.544.561.565.565 0 0 0-.154.29c-.018.064-.018.109-.063.109-.037 0-.046-.054-.055-.109-.018-.118-.1-.39-.426-.426-.045-.317-.326-.48-.58-.48-.054 0-.108 0-.153.018a.346.346 0 0 0-.254-.126.305.305 0 0 0-.308.308.3.3 0 0 0 .19.29v.018a.59.59 0 0 0 .598.588.515.515 0 0 0 .399.336.17.17 0 0 1 .072.018.05.05 0 0 1 .027.045.05.05 0 0 1-.027.045c-.018.01-.036.01-.072.018a.427.427 0 0 0-.317.173c-.037-.01-.082-.01-.118-.01-.308 0-.553.155-.57.381a.315.315 0 0 0-.2.29c0 .181.127.308.308.308a.304.304 0 0 0 .226-.1.451.451 0 0 0 .263.082c.145 0 .263-.073.362-.218.2 0 .4-.045.526-.163.063-.045.063-.081.1-.081.027 0 .036.018.036.045 0 .018-.018.054-.036.1a.532.532 0 0 1-.462.308h-.055a.51.51 0 0 1-.453.235.713.713 0 0 1-.208-.036.536.536 0 0 1-.3.1.567.567 0 0 1-.579-.58c0-.172.1-.353.272-.426 0-.181.235-.453.797-.453h.036v-.036c-.09-.018-.172-.109-.172-.172-.407 0-.68-.39-.68-.643V5.66c-.171-.117-.262-.253-.262-.453 0-.317.254-.57.57-.57a.54.54 0 0 1 .39.154c.046-.01.09-.01.136-.01.354 0 .571.245.67.535.127.01.272.1.29.236h.046c0-.399.317-.67.57-.67a.536.536 0 0 1 .463-.245Zm2.038 2.78c.045 0 .09.01.136.037.036.018.045.054.045.082 0 .1-.163.208-.254.208-.054.01-.09-.045-.09-.127 0-.018 0-.054.009-.081.018-.055.054-.118.154-.118Zm-3.053-.941c.127.136.417.48.589.833a1.617 1.617 0 0 0-.181.236 6.094 6.094 0 0 0-.517-.97l.109-.1ZM15.5 6.232v.281c-.28.1-.78.299-1.05.417a.19.19 0 0 0-.064.045c0 .027.036.045.136.045.18 0 .444-.054.697-.1v.209a3.657 3.657 0 0 1-.975.109h-.067c-.235 0-.489.081-.779.199-.018-.018-.136-.19-.154-.208a19.785 19.785 0 0 1 2.256-.997Zm-11.27.661.046.136-.843.281c-.036.01-.045.018-.054.018-.027 0-.036-.018-.036-.036s.009-.027.018-.036c.28-.218.534-.308.87-.363Zm9.685-1.974c-.118.235-.3.652-.3.942 0 .136.046.235.227.235.163 0 .444-.081.743-.163.272-.1.534-.2.661-.235v.271c-.117.028-.335.118-.588.2-.3.1-.617.199-.816.199-.326 0-.462-.19-.462-.453v-.054h-.036c-.2.308-.38.616-.544.797l-.172-.19c.308-.372.87-1.269 1.015-1.55h.272ZM7.156 5.997a.21.21 0 0 1 .154.063.082.082 0 0 1 .037.072c0 .055-.055.11-.118.145a.3.3 0 0 1-.145.046c-.072 0-.1-.046-.1-.118 0-.1.055-.208.172-.208Zm-1.685-.59c.019 0 .037.019.037.037 0 .009-.01.018-.018.036-.145.209-.417.643-.508.77l-.118-.072a1.72 1.72 0 0 1 .3-.49c.081-.1.162-.172.253-.244.018-.018.036-.036.054-.036Zm-2.065 0c.172.073.317.146.444.254.109.082.208.182.317.3l-.1.108c-.118-.1-.507-.417-.706-.589-.018-.018-.028-.036-.028-.045 0-.018.01-.036.037-.036.009 0 .018 0 .036.009Zm6.088-.099c.054 0 .1.01.136.036.054.027.09.064.09.1 0 .045-.045.082-.1.136-.063.054-.144.1-.208.1-.081 0-.109-.082-.109-.145 0-.082.046-.227.19-.227Z"/>
  </g>
  <defs>
    <clipPath id="a">
      <path fill="#fff" d="M0 0h18v18H0z"/>
    </clipPath>
  </defs>
</svg>
