<svg xmlns="http://www.w3.org/2000/svg" viewBox="0 0 18 18">
  <g clip-path="url(#a)">
    <path fill="#20A4DB" d="M0 0h18v18H0V0Z"/>
    <path fill="#fff" d="M11.754 4.386c-1.34.477-2.699.91-4.016 1.455-.545.225-1.1.452-1.588.79a2.946 2.946 0 0 0-.69.663c-.557.762-.523 1.871-.34 2.758.083.408.323 1.577.408 1.17.095-.453.303-.937.618-1.276.262-.27.574-.485.918-.634.625-.289 1.301-.468 1.943-.717 1.128-.439 2.413-.847 3.36-1.626.403-.332.681-.791.788-1.303.149-.71-.082-1.47-.222-2.166-.217.45-.676.707-1.18.886Z"/>
    <path fill="#fff" d="M11.954 9.362c.106-.507-.058-1.049-.158-1.545-.157.322-.484.505-.844.633-.958.34-1.925.65-2.865 1.038-.39.16-.785.322-1.135.567a2.1 2.1 0 0 0-.492.472c-.398.544-.374 1.336-.244 1.969.06.29.231 1.125.292.835.068-.323.216-.67.442-.911.188-.192.41-.346.656-.453.446-.206.928-.333 1.386-.511.806-.313 1.722-.605 2.398-1.16a1.63 1.63 0 0 0 .564-.934Z"/>
    <path fill="#fff" d="M10.357 11.613c-.657.234-1.321.446-1.966.712-.268.11-.54.221-.778.387a1.47 1.47 0 0 0-.338.325c-.273.373-.258.916-.167 1.35.041.2.158.773.2.573.044-.231.15-.447.304-.624.128-.132.28-.236.45-.31.305-.141.636-.228.951-.35.553-.215 1.181-.415 1.646-.796.197-.163.333-.388.385-.638.073-.349-.04-.721-.108-1.061-.108.219-.333.344-.579.432Z"/>
  </g>
  <defs>
    <clipPath id="a">
      <path fill="#fff" d="M0 0h18v18H0z"/>
    </clipPath>
  </defs>
</svg>
