<svg xmlns="http://www.w3.org/2000/svg" viewBox="0 0 18 18">
  <g clip-path="url(#a)">
    <path fill="#191919" d="M0 0h18v18H0V0Z"/>
    <path fill="#fff" fill-rule="evenodd" d="M14.367 4.777c.077-.203.01-.45-.116-.545-.418-.314-.798-.139-1.08.172-.334.365-.766 1.157-.95 1.452-1.68 2.718-2.962 5.622-2.962 5.622s-.444-1.352-.506-2.427c-.058-1.013-.104-1.98-.148-2.454-.013-.189-.094-.486-.425-.594-.255-.084-.628-.117-.889-.02-.021.324-.034.48-.169.862-.135.383-1 2.07-1.148 2.331-.754 1.343-1.748 3.013-1.806 3.12-.203.377-.484.89-.002 1.07.482.182.905.085 1.114-.224.04-.06.095-.17.095-.17s-.14-.116.16-.816c.09-.185.196-.401.315-.64l.072-.13a1.17 1.17 0 0 0 .08-.172c.495-.977 1.154-2.239 1.742-3.344-.004.644.05 1.44.138 2.018.134 1.128.41 1.604.514 2.504-.02.608.04.713.482.835.414.114.655 0 .81-.383.6-1.51 2.318-4.98 3.78-6.863.151-.197.732-.762.9-1.204Z" clip-rule="evenodd"/>
  </g>
  <defs>
    <clipPath id="a">
      <path fill="#fff" d="M0 0h18v18H0z"/>
    </clipPath>
  </defs>
</svg>
