<svg xmlns="http://www.w3.org/2000/svg" viewBox="0 0 18 18">
  <g clip-path="url(#a)">
    <path fill="#2E3239" d="M0 0h18v18H0V0Z"/>
    <path fill="url(#b)" d="M7.101 11.29a3.734 3.734 0 0 0 1.58 3.05c-.138-.905-.809-2.163-1.557-3.338a2.099 2.099 0 0 0-.023.29m2.218 3.049a3.736 3.736 0 0 0 1.581-3.05 2.114 2.114 0 0 0-.024-.29c-.748 1.176-1.418 2.433-1.557 3.34ZM5 10.59a4 4 0 0 0 2.997 3.872 4.251 4.251 0 0 1-1.42-3.173c.008-.304.059-.606.15-.896A38.965 38.965 0 0 0 5.542 8.73 4.796 4.796 0 0 0 5 10.59Zm6.274-.197c.092.29.143.593.151.898a4.25 4.25 0 0 1-1.42 3.173A4 4 0 0 0 13 10.59a4.796 4.796 0 0 0-.54-1.86 38.858 38.858 0 0 0-1.187 1.664m-3.974-.09c.689.997 1.26 2.07 1.701 3.198a15.676 15.676 0 0 1 1.701-3.198A15.28 15.28 0 0 0 9 7.148a15.23 15.23 0 0 0-1.701 3.156M5.8 8.203c.317.415.721.961 1.142 1.573a18.215 18.215 0 0 1 1.739-3.098 39.332 39.332 0 0 0-1.023-1.412 26.309 26.309 0 0 0-1.857 2.937m3.517-1.525c.679.973 1.261 2.01 1.739 3.097.42-.612.825-1.16 1.142-1.573-.554-1.018-1.175-2-1.859-2.936a41.15 41.15 0 0 0-1.02 1.412ZM9 3.5s-.435.531-1.017 1.32c.285.373.641.853 1.017 1.392.377-.54.733-1.02 1.018-1.391A37.52 37.52 0 0 0 9 3.5Z"/>
  </g>
  <defs>
    <linearGradient id="b" x1="9" x2="9" y1="15.5" y2="4" gradientUnits="userSpaceOnUse">
      <stop stop-color="#62BE89"/>
      <stop offset=".55" stop-color="#69C2BF"/>
      <stop offset="1" stop-color="#6DC4D6"/>
    </linearGradient>
    <clipPath id="a">
      <path fill="#fff" d="M0 0h18v18H0z"/>
    </clipPath>
  </defs>
</svg>
