<svg xmlns="http://www.w3.org/2000/svg" viewBox="0 0 18 18">
  <g clip-path="url(#a)">
    <path fill="#0E2F3F" d="M0 0h18v18H0V0Z"/>
    <path fill="#fff" fill-rule="evenodd" d="M3.937 12.6V9.234a1.65 1.65 0 0 1 .468-1.259c.322-.322.76-.526 1.23-.497.497-.03.936.175 1.287.527.322.35.498.848.468 1.317v3.248h.761V9.35a2.6 2.6 0 0 0-.76-1.96 2.37 2.37 0 0 0-1.67-.673c-.35 0-.701.088-1.023.263-.322.147-.586.41-.761.703v-.878h-.761V12.6h.76Zm6.233 0v-1.112l.879-1.2 1.844 2.312h.936l-2.312-2.898 2.195-2.897h-.966l-2.575 3.424V4.756H9.41V12.6h.76Z" clip-rule="evenodd"/>
    <path fill="#2FC5F4" fill-rule="evenodd" d="M14.07 9.672c0-.204.176-.41.381-.41.205 0 .41.176.41.381 0 .205-.176.41-.38.41-.235.03-.41-.146-.41-.38Zm-.321.879c0-.204.175-.38.38-.38.205 0 .38.176.38.38 0 .205-.175.38-.38.38a.387.387 0 0 1-.38-.38Zm0-1.727c0-.205.175-.38.38-.38.205 0 .38.175.38.38 0 .205-.175.38-.38.38a.387.387 0 0 1-.38-.38Z" clip-rule="evenodd"/>
  </g>
  <defs>
    <clipPath id="a">
      <path fill="#fff" d="M0 0h18v18H0z"/>
    </clipPath>
  </defs>
</svg>
