<svg xmlns="http://www.w3.org/2000/svg" viewBox="0 0 18 18">
  <g clip-path="url(#a)">
    <path fill="#2A2625" d="M0 0h18v18H0V0Z"/>
    <path fill="#fff" d="M12.84 5.044c-.044.253-.14.699-.342.935v.07c.324.253.788.961.84 1.048.053.088.175.105.254.228.079.13-.009.227.061.358.079.131 1.05 1.8 1.68 2.508.219.245.166.245.149.323-.01.088-.123.114-.193.254s.009.358-.079.463a.584.584 0 0 1-.376.192c-.166.158-.586.227-.708.131 0 0-.167-.07-.202-.463-.455-.087-1.39-.664-1.61-.874-.253.044-.726-.183-.77-.21-.052-.026-.06-.104-.2-.017s-.176.14-.202.253L10.468 12H1.5l1.986-.874-.84-.402.306-.2c.438-.22.99-.49 1.103-.551.219-.105.936-.324.936-.324s-.131-.07-.332-.148l-.718-.455A10.68 10.68 0 0 1 6.47 8.024L4.772 7.56c.394-.14 1.584-.516 2.695-.542 0 0-.665-.21-1.321-.315 0 0 .192-.07.481-.166l1.698-.48c-.263-.07-.648-.193-.823-.341 0 0 .989-.166 1.61-.149.665.026 1.365.149 1.365.149s-.359-.411-.822-.507c0 0 .428-.114 1.058.06.613.167.779.237.779.237s.989-.175 1.251-.507"/>
  </g>
  <defs>
    <clipPath id="a">
      <path fill="#fff" d="M0 0h18v18H0z"/>
    </clipPath>
  </defs>
</svg>
