<svg xmlns="http://www.w3.org/2000/svg" viewBox="0 0 18 18">
  <g clip-path="url(#a)">
    <path fill="#fff" d="M0 0h18v18H0V0Z"/>
    <g clip-path="url(#b)">
      <path fill="#08254F" fill-rule="evenodd" d="M8.815 5h.508a9.378 9.378 0 0 1 1.732.203 6.935 6.935 0 0 1 1.494.5 4.9 4.9 0 0 1 1.144.746c.324.29.605.634.802 1.024.23.45.343.956.335 1.46.001.448-.09.898-.267 1.31-.152.36-.37.688-.631.976a4.45 4.45 0 0 1-1.001.812 6.039 6.039 0 0 1-1.2.546 8.248 8.248 0 0 1-1.754.369c-.597.06-1.2.07-1.798.026a8.494 8.494 0 0 1-1.765-.312 6.154 6.154 0 0 1-1.388-.591 4.262 4.262 0 0 1-1.09-.9 3.28 3.28 0 0 1-.575-.972c-.12-.32-.184-.66-.199-1.001v-.282a3.313 3.313 0 0 1 .588-1.77c.378-.55.91-.981 1.493-1.297a6.848 6.848 0 0 1 1.934-.673A9.935 9.935 0 0 1 8.815 5Zm-.324.486a5.767 5.767 0 0 0-1.715.364c-.44.172-.858.413-1.209.732a3.03 3.03 0 0 0-.801 1.167 3.552 3.552 0 0 0-.192 1.648c.05.451.193.893.426 1.284a3.2 3.2 0 0 0 .646.768c.352.306.764.539 1.199.705a5.744 5.744 0 0 0 1.587.349c.54.043 1.087.029 1.622-.054a5.225 5.225 0 0 0 1.476-.444 3.602 3.602 0 0 0 1.13-.836c.311-.346.54-.766.661-1.214a3.65 3.65 0 0 0 .056-1.62 3.1 3.1 0 0 0-.616-1.353 3.49 3.49 0 0 0-1.042-.872 4.86 4.86 0 0 0-1.372-.5 6.983 6.983 0 0 0-1.856-.124Z" clip-rule="evenodd"/>
    </g>
  </g>
  <defs>
    <clipPath id="a">
      <path fill="#fff" d="M0 0h18v18H0z"/>
    </clipPath>
    <clipPath id="b">
      <path fill="#fff" d="M3.162 5h11.676v8H3.162z"/>
    </clipPath>
  </defs>
</svg>
