<svg xmlns="http://www.w3.org/2000/svg" viewBox="0 0 18 18">
  <g clip-path="url(#a)">
    <path fill="#00833E" d="M0 0h18v18H0V0Z"/>
    <path fill="#fff" d="M5.075 4.504a.575.575 0 0 0-.575.574v7.846a.575.575 0 0 0 .575.574h1.21a.575.575 0 0 0 .575-.574V7.44a.575.575 0 0 1 .574-.575h3.124a.575.575 0 0 1 .575.575v3.115a.575.575 0 0 1-.575.575H8.76a.575.575 0 0 0-.574.574v1.211a.575.575 0 0 0 .574.575h4.165a.575.575 0 0 0 .575-.575V5.078a.574.574 0 0 0-.575-.574h-7.85Z"/>
  </g>
  <defs>
    <clipPath id="a">
      <path fill="#fff" d="M0 0h18v18H0z"/>
    </clipPath>
  </defs>
</svg>
