<svg xmlns="http://www.w3.org/2000/svg" viewBox="0 0 18 18">
  <g clip-path="url(#a)">
    <path fill="#0053A3" d="M0 0h18v18H0V0Z"/>
    <path fill="#fff" d="M14.593 6.526a3.52 3.52 0 0 0-1.187-1.252 3.392 3.392 0 0 1 1.183 2.581c-.004 1.795-1.326 3.704-3.497 4.788-1.071.532-2.199.79-3.253.79a5.73 5.73 0 0 1-1.939-.324c1.517.767 3.672.73 5.637-.25 2.835-1.41 4.201-4.248 3.056-6.333Zm-10.79 4.868a3.373 3.373 0 0 1-.41-1.634c0-1.795 1.321-3.705 3.492-4.787a7.373 7.373 0 0 1 3.257-.79 5.79 5.79 0 0 1 1.77.268c-1.506-.675-3.566-.606-5.454.335-2.83 1.413-4.2 4.247-3.05 6.333.293.54.726.973 1.258 1.3a3.53 3.53 0 0 1-.862-1.025Z"/>
    <path fill="#fff" fill-rule="evenodd" d="M12.33 8.27a.365.365 0 0 1-.349.278h-1.329a.216.216 0 0 0-.205.166c-.019.088.044.16.14.16h1.354c.158 0 .257.122.228.269a.36.36 0 0 1-.338.271h-1.443l-.103.533h-.937l.066-.036a.673.673 0 0 0 .36-.603.41.41 0 0 0-.16-.334.67.67 0 0 0 .38-.495.619.619 0 0 0 .02-.147.397.397 0 0 0-.17-.342h2.251c.162 0 .268.125.235.28ZM9.352 9.8c-.158.089-.396.144-.738.144l-.88.003H6.597l.133-.654a1.02 1.02 0 0 0 .147-.088c.194-.135.3-.33.34-.54a1.34 1.34 0 0 0 .027-.208.502.502 0 0 0-.25-.46h2.313c.227 0 .375.037.46.095.08.06.113.13.113.24a.814.814 0 0 1-.011.125c-.044.198-.162.363-.426.444l-.004.003h-.007c0 .003-.001.004-.004.004a.009.009 0 0 1-.007.004c0 .002-.001.003-.004.003l-.004.004-.003.007c-.002 0-.004.001-.004.004l-.004.007-.003.004v.007c0 .003-.001.005-.004.008v.018c.003.003.004.005.004.007v.004c0 .003.001.004.003.004l.004.007V9a.046.046 0 0 1 .007.007v.004a.08.08 0 0 0 .011.007h.004c0 .003.002.004.004.004s.003.001.003.003a.35.35 0 0 1 .162.118c.03.044.048.1.048.165a.49.49 0 0 1-.019.128.55.55 0 0 1-.275.364Zm-.701-.59H7.637l-.066.325h1.014a.216.216 0 0 0 .205-.16c.019-.093-.044-.166-.14-.166Zm.154-.786H7.79l-.066.326H8.74a.215.215 0 0 0 .202-.165c.018-.088-.04-.161-.136-.161Z" clip-rule="evenodd"/>
    <path fill="#fff" fill-rule="evenodd" d="M10.593 9.737h.496l-.026.118h-.334l-.015.088h.305l-.018.107h-.309l-.018.102h.334l-.026.122h-.495l.106-.537Zm.566.147h.147l-.011.048h.003c.019-.026.074-.059.15-.059.082 0 .133.04.137.11 0 .026-.008.063-.011.085l-.048.206h-.147l.044-.206a.264.264 0 0 0 .008-.051c-.004-.03-.026-.048-.06-.048-.087 0-.095.077-.11.14l-.032.165h-.147l.077-.39Zm.624.228c-.004.008-.004.01-.004.026.008.04.037.062.085.062.051 0 .073-.018.084-.044h.143c-.033.096-.12.132-.231.132-.125 0-.217-.055-.224-.172-.004-.136.095-.243.261-.243.113 0 .205.059.212.173a.694.694 0 0 1-.003.066h-.323Zm.183-.073c.004-.045-.022-.078-.073-.078-.059 0-.088.03-.103.078h.176Zm.268-.155h.143l-.014.066h.003a.155.155 0 0 1 .136-.077c.022 0 .037 0 .052.007l-.026.114c-.019-.007-.037-.007-.066-.007-.08 0-.11.044-.121.11l-.037.177h-.147l.077-.39Zm.426.401a.05.05 0 0 0 .02.033.079.079 0 0 0 .043.015c.092 0 .092-.063.103-.125-.022.033-.074.048-.117.048-.104 0-.17-.063-.177-.15-.004-.115.066-.232.21-.232.058 0 .117.015.14.066h.003l.008-.055h.143l-.063.312c-.033.165-.091.213-.258.213-.095 0-.198-.026-.2-.125h.146Zm.199-.235c-.004-.044-.026-.08-.074-.08-.077 0-.106.066-.106.124.003.041.022.074.077.074.073 0 .103-.059.103-.118Zm.183.253c.02.003.04.004.059.004.044 0 .048-.018.062-.044l-.1-.378h.152l.044.272h.003l.122-.272h.154l-.213.371c-.063.11-.081.15-.228.15-.025 0-.047-.004-.073-.007l.018-.096Zm-5.93-1.846c0 .054-.006.115-.018.184a.724.724 0 0 1-.293.463c-.162.113-.409.19-.76.19l-1.136.004-.129.642H3.9l.382-1.942h2.034c.313 0 .515.048.632.125.118.077.165.176.165.334Zm-.815-.022H5.082l-.07.33h1.215a.217.217 0 0 0 .206-.165.134.134 0 0 0-.136-.165Z" clip-rule="evenodd"/>
  </g>
  <defs>
    <clipPath id="a">
      <path fill="#fff" d="M0 0h18v18H0z"/>
    </clipPath>
  </defs>
</svg>
