<svg xmlns="http://www.w3.org/2000/svg" viewBox="0 0 18 18">
  <g clip-path="url(#a)">
    <path fill="#fff" d="M0 0h18v18H0V0Z"/>
    <path fill="#2A469D" d="M9 3a6 6 0 0 0-6 6 5.97 5.97 0 0 0 1.223 3.62l2.005-1.518A3.462 3.462 0 0 1 5.518 9v-.007c0-.111.006-.221.016-.33.002-.025.007-.049.009-.073.01-.086.023-.17.038-.253l.019-.09c.017-.077.036-.154.06-.229a3.231 3.231 0 0 1 .111-.32c.008-.022.016-.045.026-.067.042-.097.087-.19.137-.283.008-.016.018-.031.027-.047a4.04 4.04 0 0 1 .133-.22l.057-.08c.025-.037.048-.073.074-.108l.004.002a3.474 3.474 0 0 1 5.54 0l.003-.002c.027.035.051.071.076.108.019.026.039.053.056.08.048.072.092.146.134.22.008.016.018.031.027.047a3.5 3.5 0 0 1 .248.582c.01.029.018.059.026.088.022.075.042.152.06.23l.019.089c.016.083.028.168.038.253a3.289 3.289 0 0 1 .026.403V9c0 .79-.266 1.516-.71 2.1l-.003-.002 2.008 1.521A5.965 5.965 0 0 0 15 9a5.999 5.999 0 0 0-6-6Z"/>
    <path fill="#31C2DB" d="M8.455 9.413a.9.9 0 0 1 1.09 0l1.083.821c.26-.343.418-.77.418-1.233a2.045 2.045 0 0 0-4.09 0c0 .464.156.89.417 1.233l1.084-.821h-.002Z"/>
  </g>
  <defs>
    <clipPath id="a">
      <path fill="#fff" d="M0 0h18v18H0z"/>
    </clipPath>
  </defs>
</svg>
