<svg xmlns="http://www.w3.org/2000/svg" viewBox="0 0 18 18">
  <g clip-path="url(#a)">
    <path fill="#00B6EF" d="M0 0h18v18H0V0Z"/>
    <path fill="#fff" fill-rule="evenodd" d="M10.066 4H8.198c-.041 0-.083 0-.124.042a.228.228 0 0 0-.125.207v10.294H7.16V4.25c0-.124-.083-.249-.207-.249H5.708c-.125 0-.208.125-.208.25v10.5c0 .126.083.209.208.25.124 0 .249-.083.249-.207V4.457h.788V14.75c0 .125.083.208.208.208h1.245c.125 0 .208-.083.208-.208V4.623c0-.083.083-.166.166-.166h1.494c1.951 0 3.487 1.577 3.487 3.57 0 1.992-1.536 3.57-3.487 3.57h-.415v-.665h.207a2.926 2.926 0 0 0 2.906-2.823c.042-1.618-1.328-2.947-2.947-2.947h-.415c-.125 0-.208.083-.208.208v1.12c0 .084.042.167.125.208.041.042.083.042.124.042h.208c.664 0 1.204.498 1.245 1.162.042.664-.498 1.204-1.162 1.245h-.332c-.125 0-.208.083-.25.208 0 .124.084.249.208.249h.29c.914 0 1.661-.706 1.661-1.578.042-.913-.705-1.66-1.619-1.701H9.61v-.748h.166c1.37 0 2.532 1.121 2.491 2.49 0 1.33-1.12 2.409-2.449 2.409h-.415c-.125 0-.208.082-.208.207v1.12c0 .125.083.208.208.208h.664c2.2 0 3.943-1.743 3.943-3.985C14.01 5.743 12.266 4 10.066 4Z" clip-rule="evenodd"/>
  </g>
  <defs>
    <clipPath id="a">
      <path fill="#fff" d="M0 0h18v18H0z"/>
    </clipPath>
  </defs>
</svg>
