<svg xmlns="http://www.w3.org/2000/svg" viewBox="0 0 18 18">
  <g clip-path="url(#a)">
    <path fill="#fff" d="M0 0h18v18H0V0Z"/>
    <path fill="#E71618" d="M6.893 8.338a2.256 2.256 0 0 0-.836.157 5.515 5.515 0 0 0 2.02 2.792c.198.14.407.264.625.37.254-.35.39-.772.39-1.206 0-1.167-.985-2.114-2.199-2.114"/>
    <path fill="#E71618" d="M11.937 9.493c.807-.624 2.846-1.973 2.53-2.52-.255-.441-1.37.092-2.628.782-.989.543-.776-.113-.147-1.071.555-.844 1.387-1.983.922-2.291-.54-.359-2.196 1.626-2.583 2.018-.387.392-.74.603-.546-.489.26-1.45.312-2.208-.012-2.3-.452-.127-.735.442-1.412 2.035-.485 1.144-.909 1.347-.96.32-.068-1.843-.533-1.42-.712-1.137-.49.779-.657 1.724-.546 2.67.399-.153.822-.23 1.248-.23 1.887 0 3.417 1.488 3.417 3.321 0 .533-.13 1.057-.382 1.525 1.077.199 2.213.104 3.068-.325.142-.072.488-.286.273-.581-.43-.59-1.205-.28-2.034-.523-.727-.213-.079-.754.504-1.205"/>
    <path fill="#5A5C5E" d="M8.7 11.68a2.236 2.236 0 0 1-1.807.91c-1.215 0-2.2-.948-2.2-2.116a2.13 2.13 0 0 1 .382-1.192c.243-.35.586-.616.982-.765a5.243 5.243 0 0 1-.214-.99c-1.271.485-2.171 1.686-2.171 3.092 0 1.835 1.53 3.323 3.42 3.323a3.41 3.41 0 0 0 1.762-.477 3.451 3.451 0 0 0 1.272-1.32 5.573 5.573 0 0 1-1.425-.466Z"/>
  </g>
  <defs>
    <clipPath id="a">
      <path fill="#fff" d="M0 0h18v18H0z"/>
    </clipPath>
  </defs>
</svg>
