<svg xmlns="http://www.w3.org/2000/svg" viewBox="0 0 18 18">
  <g clip-path="url(#a)">
    <path d="M0 0h18v18H0V0Z"/>
    <path fill="#fff" d="M4.3 11.28h.18c.36 0 .72 0 .72-.48s-.34-.5-.72-.5H4.3v.98Zm-1-1.78h1.54c.84 0 1.4.38 1.4 1.28 0 .92-.5 1.32-1.38 1.32h-.58v1.28h-1c.02 0 .02-3.88.02-3.88Zm5.34 2.36.94-2.36h1.1l-1.66 3.88h-.78L6.6 9.5h1.1m6 1.5V9.5h1v3.88h-1V11.8h-1.46v1.58h-1V9.5h1V11"/>
  </g>
  <defs>
    <clipPath id="a">
      <path fill="#fff" d="M0 0h18v18H0z"/>
    </clipPath>
  </defs>
</svg>
