<svg xmlns="http://www.w3.org/2000/svg" viewBox="0 0 18 18">
  <g clip-path="url(#a)">
    <path fill="#1F64B0" d="M0 0h18v18H0V0Z"/>
    <path fill="#fff" d="M16.005 10.394a.496.496 0 1 0-.047-.99.496.496 0 0 0 .047.99Zm-.379.388a.444.444 0 0 0-.64-.394.446.446 0 1 0 .64.394Zm-.935.668a.4.4 0 0 0-.572-.344.402.402 0 1 0 .572.344Zm-1.336.757a.361.361 0 1 0-.034-.721.361.361 0 0 0 .034.721Zm-.638-.313a.326.326 0 1 0-.65.03.325.325 0 0 0 .65-.03Zm-.873-.26a.294.294 0 0 0-.307-.282.293.293 0 0 0-.278.31.293.293 0 1 0 .585-.028Zm-.954-.187a.263.263 0 1 0-.026-.526.263.263 0 0 0 .025.526Zm-.302-.83a.237.237 0 1 0-.474.024.237.237 0 0 0 .474-.024Zm-.436-.585a.213.213 0 1 0-.426.02.214.214 0 0 0 .426-.02Zm-.344-.586a.192.192 0 1 0-.383.018.192.192 0 0 0 .383-.018Zm-.255-.571a.183.183 0 1 0-.367 0 .183.183 0 0 0 .367 0Zm-7.496.645a.557.557 0 1 0 0-1.113.557.557 0 0 0 0 1.114Zm.725-1.176a.496.496 0 1 0-.046-.99.496.496 0 0 0 .046.99Zm.798-.952a.446.446 0 1 0-.043-.892.446.446 0 0 0 .043.892Zm.888-.712a.401.401 0 1 0-.039-.801.401.401 0 0 0 .039.801Zm.95-.417a.361.361 0 1 0-.035-.721.361.361 0 0 0 .035.72Zm.944-.098a.325.325 0 1 0-.03-.649.325.325 0 0 0 .03.65Zm.84.228a.293.293 0 1 0-.029-.585.293.293 0 0 0 .029.585Zm.673.434a.263.263 0 1 0-.025-.526.263.263 0 0 0 .025.526Zm.524.531a.237.237 0 1 0-.022-.473.237.237 0 0 0 .022.473Zm.188.359a.213.213 0 1 0 .426-.02.213.213 0 0 0-.426.02Zm.544.769a.192.192 0 1 0-.018-.384.192.192 0 0 0 .018.384Z"/>
  </g>
  <defs>
    <clipPath id="a">
      <path fill="#fff" d="M0 0h18v18H0z"/>
    </clipPath>
  </defs>
</svg>
