<svg xmlns="http://www.w3.org/2000/svg" viewBox="0 0 18 18">
  <g clip-path="url(#a)">
    <path fill="#E3E3D6" d="M0 0h18v18H0V0Z"/>
    <path fill="#B6121B" fill-rule="evenodd" d="M7.725 8.997c.36-.691 1.236-1.302 3.097-1.156 2.928.248 4.626 1.81 5.178 2.534-.232-.931-1.748-2.922-4.977-3.172-3.168-.24-3.517 1.102-3.298 1.794Z" clip-rule="evenodd"/>
    <path fill="#1C3F95" d="M4.943 8.614C6 6.244 8.748 5.921 9.991 6.057c-.374-.196-1.545-.58-3.235 0-1.724.591-1.912 1.99-1.813 2.557Z"/>
    <path fill="#B6121B" fill-rule="evenodd" d="M10.275 8.952c-.36.691-1.235 1.302-3.097 1.156C4.25 9.86 2.552 8.298 2 7.574c.232.931 1.748 2.922 4.977 3.172 3.168.24 3.517-1.101 3.298-1.794Z" clip-rule="evenodd"/>
    <path fill="#1C3F95" d="M12.454 9.335c-1.056 2.37-3.805 2.693-5.048 2.557.374.196 1.545.58 3.235 0 1.724-.591 1.913-1.99 1.813-2.557Z"/>
  </g>
  <defs>
    <clipPath id="a">
      <path fill="#fff" d="M0 0h18v18H0z"/>
    </clipPath>
  </defs>
</svg>
