<svg xmlns="http://www.w3.org/2000/svg" viewBox="0 0 18 18">
  <g clip-path="url(#a)">
    <path fill="#0D0D36" d="M0 0h18v18H0V0Z"/>
    <path fill="#fff" d="M12.711 12.6a1.105 1.105 0 0 1-1.111 1.112h-1.092v-2.22h2.204v1.109Zm0-6.5A1.1 1.1 0 0 1 11.6 7.207H9.325a1.105 1.105 0 0 0-1.102 1.108v4.284a1.108 1.108 0 0 1-1.105 1.111h-1.83V8.317A1.105 1.105 0 0 1 6.4 7.21h.741a1.105 1.105 0 0 0 1.105-1.108v-.705a1.108 1.108 0 0 1 1.079-1.112h3.383v1.814l.003.003Z"/>
  </g>
  <defs>
    <clipPath id="a">
      <path fill="#fff" d="M0 0h18v18H0z"/>
    </clipPath>
  </defs>
</svg>
