<svg xmlns="http://www.w3.org/2000/svg" viewBox="0 0 18 18">
  <g clip-path="url(#a)">
    <path fill="#FFF8F6" d="M0 0h18v18H0V0Z"/>
    <path fill="#0078C1" d="M11.646 8.096a.662.662 0 0 0-.384-.11.689.689 0 0 0-.41.135v-.983h-.486v3.208h.487V8.67c0-.115.098-.244.28-.252a.303.303 0 0 1 .25.118c.06.088.058.209.058.338l-.003 1.472h.486V8.857c0-.44-.055-.596-.277-.76ZM7.691 9.198c0 .313-.01.4-.014.428-.016.176-.09.36-.293.36-.201 0-.283-.198-.292-.368-.002 0-.013-.107-.013-.42s.01-.445.013-.445c0-.179.094-.355.292-.355.2 0 .29.176.293.352 0 .003.014.135.014.448Zm.47-.38c-.069-.683-.459-.832-.777-.832-.454 0-.728.289-.778.833a3.806 3.806 0 0 0-.014.379c-.002.186.011.34.014.379.03.508.322.818.777.818.456 0 .748-.316.78-.818a6.128 6.128 0 0 0-.002-.758Zm4.576.092c.003-.108.003-.13.005-.16.014-.192.1-.352.297-.352.234-.002.289.226.297.352.005.069.008.113.008.16h-.607Zm.601.642s0 .036-.005.08c-.014.112-.058.354-.294.354-.203 0-.28-.184-.294-.365-.002-.053-.01-.11-.01-.308h1.084s0-.162-.003-.258c0-.039-.002-.102-.01-.236a1.086 1.086 0 0 0-.212-.574.68.68 0 0 0-.555-.259c-.44 0-.714.286-.766.833a5.27 5.27 0 0 0 0 .758c.027.5.324.818.766.818.44 0 .734-.31.767-.843h-.467Z"/>
    <path fill="#0078C1" d="M5.054 5.5h7.905l3.022 3.538-3.022 3.488H5.054L2.02 9.027 5.054 5.5Zm8.095-.393H4.862L1.5 9.013l3.365 3.882h8.284L16.5 9.027l-3.351-3.92Z"/>
    <path fill="#0078C1" d="M5.153 7.573h.228c.25 0 .387.132.393.368 0 .02.003.039.003.074 0 .044 0 .058-.003.077-.014.14-.077.385-.368.385h-.253v-.904Zm1.151 2.571-.05-.785c-.021-.352-.112-.56-.296-.668.132-.08.302-.275.3-.684 0-.62-.388-.84-.844-.846h-.742v3.184h.478l.003-1.456h.267c.153 0 .326.134.354.513l.05.745c.005.107.024.198.024.198h.48s-.021-.088-.024-.2ZM9.58 9.53a.71.71 0 0 1-.005.088c-.013.178-.074.368-.293.368-.201 0-.28-.206-.297-.357-.008-.09-.006-.162-.008-.431-.003-.313.008-.396.013-.445.017-.2.094-.355.292-.355.206-.002.29.176.293.352 0 .003.006.044.009.137h.48l-.002-.074c-.055-.665-.462-.827-.78-.827-.454 0-.728.289-.778.833a3.806 3.806 0 0 0-.014.379c-.002.186.011.34.014.379.03.508.322.818.778.818.472.003.733-.285.78-.818l.002-.047h-.483Z"/>
  </g>
  <defs>
    <clipPath id="a">
      <path fill="#fff" d="M0 0h18v18H0z"/>
    </clipPath>
  </defs>
</svg>
