<svg xmlns="http://www.w3.org/2000/svg" viewBox="0 0 18 18">
  <g clip-path="url(#a)">
    <path fill="#012D5C" d="M0 0h18v18H0V0Z"/>
    <path fill="#fff" fill-rule="evenodd" d="M8.852 3.793a.277.277 0 0 1 .296 0c1.18.748 3.286 1.178 4.39 1.327a.255.255 0 0 1 .218.222c.634 5.525-2.733 8.601-4.636 9.703a.238.238 0 0 1-.24 0c-1.903-1.102-5.27-4.178-4.636-9.703a.255.255 0 0 1 .219-.222c1.103-.149 3.21-.579 4.389-1.327Zm.26 1.47a.256.256 0 0 0-.225 0c-1.173.576-1.91.818-3.13.987a.255.255 0 0 0-.22.26c.134 3.922 1.066 5.316 3.314 6.98.088.065.21.065.298 0 2.248-1.664 3.18-3.058 3.314-6.98a.255.255 0 0 0-.22-.26c-1.22-.17-1.957-.41-3.13-.987Z" clip-rule="evenodd"/>
    <path fill="#81CBEF" fill-rule="evenodd" d="M9.568 6.912H8.432v1.64H6.73v1.136h1.703v1.64h1.136v-1.64h1.703V8.553H9.568v-1.64Z" clip-rule="evenodd"/>
  </g>
  <defs>
    <clipPath id="a">
      <path fill="#fff" d="M0 0h18v18H0z"/>
    </clipPath>
  </defs>
</svg>
