<svg xmlns="http://www.w3.org/2000/svg" viewBox="0 0 18 18">
  <g clip-path="url(#a)">
    <path fill="#fff" d="M0 0h18v18H0V0Z"/>
    <path fill="url(#b)" d="M5.627 4.192h6.746c.243 0 .473.107.63.292l.763.952c.266.315.155.874-.208 1.07-.371.202-.403.578-.258.978 1.128 2.133 1.398 5.768-4.15 7.309a.575.575 0 0 1-.3 0C3.3 13.252 3.57 9.617 4.7 7.484c.145-.4.113-.776-.258-.977-.363-.197-.474-.756-.208-1.071l.764-.952a.823.823 0 0 1 .629-.292Z"/>
    <path fill="#888A8C" fill-rule="evenodd" d="M4.966 4.457a.864.864 0 0 1 .661-.307h6.746c.255 0 .496.112.66.307l.765.951c.143.17.182.402.14.615a.748.748 0 0 1-.36.519.562.562 0 0 0-.302.387c-.034.158-.008.343.062.538.567 1.072.92 2.525.43 3.906-.491 1.385-1.824 2.686-4.606 3.458a.614.614 0 0 1-.324 0c-2.782-.772-4.115-2.073-4.606-3.458-.49-1.381-.137-2.834.43-3.906.07-.195.096-.38.062-.538a.562.562 0 0 0-.302-.387.748.748 0 0 1-.36-.52.734.734 0 0 1 .14-.613l.764-.952Zm.064.053-.765.95v.001a.652.652 0 0 0-.123.546c.038.194.15.371.32.463.195.106.304.26.343.441.038.18.008.382-.067.587V7.5l-.002.003c-.561 1.06-.906 2.49-.426 3.843.479 1.35 1.785 2.638 4.55 3.406.09.025.19.025.28 0 2.765-.768 4.071-2.055 4.55-3.406.48-1.354.135-2.783-.426-3.843l-.001-.003-.001-.002a1.081 1.081 0 0 1-.067-.587.644.644 0 0 1 .344-.441.667.667 0 0 0 .319-.463c.038-.194 0-.4-.123-.546l-.764-.95V4.51a.782.782 0 0 0-.598-.278H5.627a.782.782 0 0 0-.597.278Z" clip-rule="evenodd"/>
    <path fill="url(#c)" d="m5.578 4.918-.753.963c.434.156 1.143.886.354 2.431-1 1.956-.009 3.887 1.44 4.751 1.148.685 2.051.99 2.369 1.044a2.005 2.005 0 0 1 .008 0c.317-.054 1.221-.359 2.37-1.044 1.447-.864 2.439-2.795 1.439-4.75-.79-1.546-.08-2.276.354-2.432l-.753-.963H5.578Z"/>
    <path fill="url(#d)" d="M7.877 6.63c.681-.91 3.522-.78 5.039-.6l.26-.16-.157-.19a13.258 13.258 0 0 0-3.94-.11c-1.757.21-3.592 1.978-.638 2.88 2.96.902 1.744 2.019.748 2.216-2.892.354-3.241.675-3.653 1.082.523 1.057 1.716 1.718 2.214 1.892 0-.266.678-.675 1.345-.942 2.093-.839 2.62-1.657 2.62-2.74 0-1.157-.975-1.736-1.909-2.003-.995-.283-2.633-.382-1.929-1.324Z"/>
    <path fill="url(#e)" d="M7.675 6.63c.682-.91 3.729-.78 5.245-.6l.26-.16-.157-.19c-1.678-.3-3.258-.216-4.146-.11-1.757.21-3.591 1.978-.638 2.88 2.96.902 1.744 2.019.749 2.216-2.892.354-3.242.675-3.653 1.082.522 1.057 1.814 1.648 2.312 1.822 0-.266.58-.605 1.246-.872 2.094-.839 2.62-1.657 2.62-2.74 0-1.157-.975-1.736-1.908-2.003-.996-.283-2.633-.382-1.93-1.324Z"/>
    <path fill="#fff" fill-rule="evenodd" d="M5.548 4.858h6.888l.824 1.053-.08.03c-.201.071-.472.28-.599.656-.126.374-.11.926.279 1.688 1.018 1.992.006 3.956-1.463 4.832-1.096.654-1.975.966-2.34 1.042v.022l-.065-.01-.066.01v-.022c-.365-.076-1.243-.388-2.34-1.042-1.468-.876-2.48-2.84-1.462-4.832.39-.762.404-1.314.278-1.688a1.042 1.042 0 0 0-.598-.657l-.08-.029.824-1.053Zm.06.123-.685.876c.22.104.472.33.596.7.14.416.115 1.002-.285 1.784-.982 1.92-.011 3.819 1.416 4.67 1.137.679 2.03.98 2.342 1.035.313-.055 1.204-.356 2.342-1.035 1.427-.851 2.398-2.75 1.416-4.67-.4-.782-.425-1.368-.286-1.784.124-.37.377-.596.596-.7l-.684-.876H5.608Z" clip-rule="evenodd"/>
  </g>
  <defs>
    <linearGradient id="b" x1="4.041" x2="13.963" y1="9.107" y2="9.107" gradientUnits="userSpaceOnUse">
      <stop stop-color="#B6B7BA"/>
      <stop offset=".503" stop-color="#FDFDFE"/>
      <stop offset=".514" stop-color="#616365"/>
      <stop offset="1" stop-color="#9FA1A4"/>
    </linearGradient>
    <linearGradient id="c" x1="8.992" x2="8.992" y1="4.918" y2="14.108" gradientUnits="userSpaceOnUse">
      <stop stop-color="#DBC19A"/>
      <stop offset=".247" stop-color="#CC9634"/>
      <stop offset="1" stop-color="#C93"/>
    </linearGradient>
    <linearGradient id="d" x1="9.356" x2="9.356" y1="5.473" y2="13.64" gradientUnits="userSpaceOnUse">
      <stop stop-color="#fff"/>
      <stop offset="1" stop-color="#999"/>
    </linearGradient>
    <linearGradient id="e" x1="9.259" x2="8.048" y1="5.473" y2="10.562" gradientUnits="userSpaceOnUse">
      <stop stop-color="#C9C9C9"/>
      <stop offset="1"/>
    </linearGradient>
    <clipPath id="a">
      <path fill="#fff" d="M0 0h18v18H0z"/>
    </clipPath>
  </defs>
</svg>
