<svg xmlns="http://www.w3.org/2000/svg" viewBox="0 0 18 18">
  <g clip-path="url(#a)">
    <path fill="#fff" d="M0 0h18v18H0V0Z"/>
    <g clip-path="url(#b)">
      <path fill="#FAA21B" d="M4.291 6.293c.035-.52.464-.97 1.03-.936.154.018.343.018.634.243 1.27 1.126 2.024 3.102 1.801 4.817-.017.087-.103.087-.137 0-.36-1.23-1.544-2.634-2.59-3.067-.498-.19-.772-.554-.738-1.057Z"/>
      <path fill="#70BF54" d="M7.568 12.34c-.326-1.075-1.938-2.86-3.122-2.86a.93.93 0 0 0-.944.988c.035.59.532.884.978.884 1.012 0 2.23.433 2.985 1.057.051.035.12 0 .103-.07Z"/>
      <path fill="#00BAE9" d="M9.026 13.623c-.017.086-.103.086-.138 0C7.55 9.412 9.952 4.785 11.736 4.75c.944-.017 1.595.676 1.595 1.456 0 .537-.171.97-.789 1.317-1.56.883-3.31 3.17-3.516 6.1Z"/>
      <path fill="#128ACB" d="M10.535 12.393c-.051.034-.12 0-.103-.07.326-1.074 1.939-2.859 3.122-2.859a.93.93 0 0 1 .944.988c-.034.589-.532.883-.978.883-.995 0-2.213.468-2.985 1.058Z"/>
    </g>
  </g>
  <defs>
    <clipPath id="a">
      <path fill="#fff" d="M0 0h18v18H0z"/>
    </clipPath>
    <clipPath id="b">
      <path fill="#fff" d="M3.5 4.75h11v8.938h-11z"/>
    </clipPath>
  </defs>
</svg>
