<svg xmlns="http://www.w3.org/2000/svg" viewBox="0 0 18 18">
  <g clip-path="url(#a)">
    <path fill="#0E2B72" d="M0 0h18v18H0V0Z"/>
    <path fill="#fff" fill-rule="evenodd" d="M12.117 5.378c-.091.02-.1.123-.107.2-.01.266 0 .533-.005.8.004.145-.019.305.065.436.395.024.791.004 1.186.01.099.005.257-.01.235-.147.01-.387.013-.775 0-1.16.005-.154-.184-.155-.292-.153-.36.01-.722-.017-1.082.014Zm-7.722.925c.57 1.701 1.175 3.391 1.77 5.084.07.12.02.292-.138.29-.545.04-1.094-.007-1.64.023-.059.32-.028.646-.036.968.003.155-.017.317.043.465.11.036.227.03.34.031.868-.007 1.735-.002 2.602-.002a.763.763 0 0 0 .642-.28c.176-.213.184-.52.09-.77-.526-1.505-1.062-3.007-1.577-4.515-.07-.227-.206-.454-.133-.698.559-.014 1.118.005 1.677-.013.026-.487.01-.977.011-1.466a1.932 1.932 0 0 0-.53-.057c-.803.01-1.606-.01-2.41.01-.454.006-.868.48-.711.93Zm4.144-.732c-.004 2.386 0 4.773-.002 7.16 0 .138.004.276.014.413.251.023.502.02.754.018 1.287-.007 2.574.01 3.86-.008-.414-.418-.834-.83-1.245-1.25-.108-.107-.223-.24-.39-.233-.502-.015-1.005.011-1.506-.013-.027-2.049.002-4.1-.015-6.148.012-.104-.128-.139-.208-.142-.33-.006-.662-.002-.993-.002-.122-.009-.305.048-.269.205Zm3.474 1.763c-.015 1.244 0 2.49-.008 3.733 0 .138-.01.301.108.4.46.453.91.917 1.375 1.365.019-.446.006-.892.01-1.337-.01-1.386.018-2.773-.014-4.16-.49-.025-.982-.023-1.47 0h-.001Z" clip-rule="evenodd"/>
  </g>
  <defs>
    <clipPath id="a">
      <path fill="#fff" d="M0 0h18v18H0z"/>
    </clipPath>
  </defs>
</svg>
