<svg xmlns="http://www.w3.org/2000/svg" viewBox="0 0 18 18">
  <g clip-path="url(#a)">
    <path fill="#fff" d="M0 0h18v18H0V0Z"/>
    <path d="m4.8 12.157 1.373-1.318c.541.735 1.679 1.345 3.08 1.345 1.137 0 1.942-.402 1.942-1.234 0-2.109-6.298-.291-6.062-4.023h.014c1.415 1.775 8.13-.07 8.13 3.954 0 1.886-1.582 3.107-4.065 3.107-1.984 0-3.635-.749-4.412-1.831ZM9.212 4c2.039 0 3.26.638 4.078 1.706L11.93 7.01c-.596-.68-1.29-1.206-2.718-1.206-1.346 0-1.97.416-1.97 1.082 0 .152.041.319.097.416v.014c-.583-.056-2.04-.292-2.04-1.263C5.3 5.083 6.714 4 9.212 4Z"/>
  </g>
  <defs>
    <clipPath id="a">
      <path fill="#fff" d="M0 0h18v18H0z"/>
    </clipPath>
  </defs>
</svg>
