<svg xmlns="http://www.w3.org/2000/svg" viewBox="0 0 18 18">
  <g clip-path="url(#a)">
    <path fill="#0047BB" d="M0 0h18v18H0V0Z"/>
    <path fill="#C3C3C3" d="M8.977 14.09a4.912 4.912 0 0 0 3.204-1.155 4.855 4.855 0 0 1-3.47 1.401c-3.61.056-6.171-4.585-3.776-8.171-2.019 3.53.432 7.98 4.042 7.925Z"/>
    <path fill="#fff" d="M13.979 9.279a5.48 5.48 0 0 1-1.798 3.656 4.913 4.913 0 0 1-3.204 1.155c-3.61.056-6.05-4.41-4.042-7.925a4.31 4.31 0 0 1 1.16 1.16c2.53-1.346 4.122.327 4.474.784a4.33 4.33 0 0 1 3.34-.216c.081.457.105.923.07 1.386Z"/>
    <path fill="#fff" d="M9.676 6.725a3.464 3.464 0 0 0-3.516.023 3.698 3.698 0 0 0-1.004-.965 4.933 4.933 0 0 1 4.183-2.12c3.008 0 4.213 2.728 4.454 3.768a4.163 4.163 0 0 0-3.184.085 3.465 3.465 0 0 0-.933-.791Z"/>
  </g>
  <defs>
    <clipPath id="a">
      <path fill="#fff" d="M0 0h18v18H0z"/>
    </clipPath>
  </defs>
</svg>
