<svg xmlns="http://www.w3.org/2000/svg" viewBox="0 0 18 18">
  <g clip-path="url(#a)">
    <path fill="#0B364A" d="M0 0h18v18H0V0Z"/>
    <path fill="#fff" fill-rule="evenodd" d="M5.96 12.049a4.15 4.15 0 0 0 1.303.829 6.028 6.028 0 0 0 2.237.393 6.052 6.052 0 0 0 1.493-.148 4.59 4.59 0 0 0 1.499-.752v-.491a5.888 5.888 0 0 1-1.192.463 4.951 4.951 0 0 1-1.157.131 4.058 4.058 0 0 1-1.566-.278 3.316 3.316 0 0 1-.95-.67 3.267 3.267 0 0 1-.76-1.162 4.375 4.375 0 0 1-.286-1.636 3.318 3.318 0 0 1 .816-2.438 3.003 3.003 0 0 1 2.237-.872c.436-.015.871.054 1.28.202.343.14.652.348.906.61.034.262.05.606.062 1.031h.47l.268-1.974s-1.118-.354-1.538-.43a8.281 8.281 0 0 0-1.431-.12 5.281 5.281 0 0 0-3.657 1.172 3.876 3.876 0 0 0-1.292 3.01c-.006.69.143 1.373.436 2.001.207.419.485.8.822 1.129Z" clip-rule="evenodd"/>
  </g>
  <defs>
    <clipPath id="a">
      <path fill="#fff" d="M0 0h18v18H0z"/>
    </clipPath>
  </defs>
</svg>
