<svg xmlns="http://www.w3.org/2000/svg" viewBox="0 0 18 18">
  <g clip-path="url(#a)">
    <path fill="#101531" d="M0 0h18v18H0V0Z"/>
    <path fill="#fff" fill-rule="evenodd" d="M12.234 13.449a.299.299 0 0 0 .08-.06A5.5 5.5 0 0 0 5.94 4.43c-.262-.002-.46 0-.608.003a6.07 6.07 0 0 0-.323.013.655.655 0 0 0-.075.01.226.226 0 0 0-.093.043.212.212 0 0 0 .06.364c.074.046.168.119.249.211a5.5 5.5 0 0 0 7.085 8.376Zm.165-.677A5.064 5.064 0 0 0 14.076 9a5.06 5.06 0 0 0-.41-2.003l-6.256.161c.003.243.01.494.027.742a106.094 106.094 0 0 1 1.278.03c.771.025 1.65.063 2.01.12l.133.02c.308.039.75.095 1.074.494.366.45.557 1.29.452 2.876 0 .404.005.758.01 1.048l.004.284Zm-.69.523a40.337 40.337 0 0 0-1.69-.981c-1.8-.99-4.136-2.112-6.045-2.59a5.05 5.05 0 0 0 .596 1.758c.933.246 2.074.734 3.094 1.233a26.35 26.35 0 0 1 2.313 1.268 5.046 5.046 0 0 0 1.731-.688Zm-2.39.772a30.004 30.004 0 0 0-1.84-.972c-.846-.414-1.76-.811-2.555-1.068a5.07 5.07 0 0 0 4.395 2.04ZM3.931 9.278c1.898.448 4.208 1.537 6.02 2.517.052-.518.012-.905-.061-1.18-.071-.266-.169-.418-.233-.487l-1.834-.07-.005-.001a4.953 4.953 0 0 0-.431-.008l-.158.001a4.93 4.93 0 0 1-.746-.043 1.706 1.706 0 0 1-.724-.263 1.12 1.12 0 0 1-.456-.698c-.314-1.405-.22-2.713.006-3.392a.491.491 0 0 0 .026-.167A5.06 5.06 0 0 0 3.93 9.278Zm2.832-4.837.445.011c1.024.028 1.656.448 2.018.978l.046.07a99.02 99.02 0 0 0 4.114.942 5.075 5.075 0 0 0-6.623-2Zm3.536 6.067a2.044 2.044 0 0 0-.13-.36l.406.015c.218.016.575.102.87.304.29.196.516.497.516.966 0 .43.006.79.01 1.08.004.177.006.327.006.45a40.113 40.113 0 0 0-1.626-.95c.086-.645.045-1.14-.052-1.505Zm1.306-1.677c.19.235.354.679.381 1.546a1.729 1.729 0 0 0-.302-.26 2.325 2.325 0 0 0-1.082-.376h-.004l-2.522-.097c-.154-.04-.292-.18-.404-.46a3.518 3.518 0 0 1-.195-.86 106.052 106.052 0 0 1 1.226.03c.783.024 1.63.062 1.956.114.057.01.114.018.168.025.31.043.568.08.778.338Zm-4.236.795h.054a1.734 1.734 0 0 1-.144-.285c-.138-.344-.21-.777-.248-1.215a17.865 17.865 0 0 1-.042-1.666l.001-.316c0-.49.086-.86.197-1.123.022-.052.045-.1.069-.144l-.06-.002a47.197 47.197 0 0 0-1.68-.023l.061.085c.147.22.244.518.133.851-.196.59-.296 1.817.006 3.166.048.212.15.349.286.443.14.099.327.159.545.192.218.034.452.039.681.038h.141Zm.334-4.665a.53.53 0 0 1 .021-.026c.577.122.933.411 1.153.734.234.344.323.74.337 1.047l-1.804.019.002-.263.001-.328c0-.44.077-.754.164-.958.043-.102.088-.176.126-.225Zm4.507 1.663-2.573.083a2.575 2.575 0 0 0-.132-.714 93.63 93.63 0 0 0 2.705.631Z" clip-rule="evenodd"/>
  </g>
  <defs>
    <clipPath id="a">
      <path fill="#fff" d="M0 0h18v18H0z"/>
    </clipPath>
  </defs>
</svg>
