<svg xmlns="http://www.w3.org/2000/svg" viewBox="0 0 18 18">
  <g clip-path="url(#a)">
    <path fill="#fff" d="M0 0h18v18H0V0Z"/>
    <path fill="#D20000" d="m6.338 15.25 6.735-2.295 2.258-8.705H2.97l3.367 11Z"/>
    <path fill="#fff" d="M9.385 5.752h.536v1.606h-.749v-.24c0-.65-.7-.632-.618-.145.038.21.51.95.914 1.752 1.085 2.15-.476 3.523-1.348 2.535l-.146.202h-.49V9.71h.774v.438c-.037.636 1.33.749.203-1.3a9.087 9.087 0 0 1-.75-1.497c-.396-1.146.413-1.651.944-1.636a.783.783 0 0 1 .57.217l.16-.18Zm2.767 5.044v.629s0 .423-.314.423c-.48 0-.513-.633-.543-2.247-.038-2.111.797-2.119.857-1.363v.289h.749V6.935h-.532l-.142.18c-.041-.213-1.793-.928-1.872 2.408-.067 2.886.64 3.313 1.412 3.313.513 0 1.168-.505 1.168-1.498v-.542h-.783Zm-7.559-4.58h.659v-.501h.206v3.793l-.24.146v.748h1.45v-.748l-.24-.146V5.715h.213v.502h.663v-1.54H4.593v1.54Z"/>
  </g>
  <defs>
    <clipPath id="a">
      <path fill="#fff" d="M0 0h18v18H0z"/>
    </clipPath>
  </defs>
</svg>
