<svg xmlns="http://www.w3.org/2000/svg" viewBox="0 0 18 18">
  <g clip-path="url(#a)">
    <path fill="#8B2434" d="M0 0h18v18H0V0Z"/>
    <path fill="#fff" fill-rule="evenodd" d="m9.568 6.544 2.543.001c.335 0 .606.263.606.587a.596.596 0 0 1-.606.587l-1.283-.004c-.67 0-1.212.526-1.212 1.174l.003 3.521a.596.596 0 0 1-.606.587h-.026a.596.596 0 0 1-.606-.587l.003-3.521c0-.648-.543-1.174-1.212-1.174L5.89 7.72a.596.596 0 0 1-.606-.587c0-.324.271-.587.606-.587h2.547v-.001C8.172 5.621 7.302 4.94 6.265 4.94c-1.188 0-2.179.9-2.255 2.05L4 7.135l.014 4.567c0 .708.595 1.285 1.327 1.285s1.327-.577 1.327-1.285l.01-2.814c0-.262.22-.475.49-.475s.49.213.49.475l.002 3.521c0 .708.595 1.285 1.327 1.285h.026c.732 0 1.327-.577 1.327-1.285l.001-3.521c0-.262.22-.475.49-.475.271 0 .491.213.491.475l.01 2.814c0 .708.595 1.285 1.327 1.285.731 0 1.327-.577 1.327-1.285L14 7.137l-.009-.145c-.08-1.145-1.07-2.041-2.255-2.041a2.25 2.25 0 0 0-2.168 1.593Z" clip-rule="evenodd"/>
  </g>
  <defs>
    <clipPath id="a">
      <path fill="#fff" d="M0 0h18v18H0z"/>
    </clipPath>
  </defs>
</svg>
