<svg xmlns="http://www.w3.org/2000/svg" viewBox="0 0 18 18">
  <g clip-path="url(#a)">
    <path fill="#393939" d="M0 0h18v18H0V0Z"/>
    <path fill="#F47621" fill-rule="evenodd" d="M6.07 3.52a6.218 6.218 0 0 0 .547 11.225c.794.33 1.713.366 2.468-.05.928-.511 1.853-1.526 2.102-3.372a.05.05 0 0 0-.046-.055 9.436 9.436 0 0 1-1.277-.135.048.048 0 0 1-.038-.065c.216-.533.931-1.862 2.04-3.312a.048.048 0 0 1 .073-.005c.448.476 1.454 1.844 2.227 3.56.013.028-.004.061-.036.063-.102.008-.265.004-.451 0h-.007a23.926 23.926 0 0 0-.36-.006.05.05 0 0 0-.049.046c-.038.573-.359 1.902-1.37 3.092a6.218 6.218 0 0 0-.537-11.256c-.822-.338-1.776-.358-2.542.094-.893.529-1.761 1.535-2 3.314a.05.05 0 0 0 .045.056c.527.025.73.05 1.277.135.03.005.05.036.038.065-.216.532-.931 1.862-2.04 3.312a.048.048 0 0 1-.073.004c-.448-.475-1.454-1.843-2.227-3.559-.013-.029.004-.061.036-.064.102-.007.265-.003.452.001h.005c.115.003.237.006.36.006a.05.05 0 0 0 .05-.046c.038-.566.35-1.87 1.332-3.048Z" clip-rule="evenodd"/>
    <path fill="#fff" d="M11.56 4.592c-.561 1.95-2.243 6.464-4.486 8.921l4.485-8.921Z"/>
    <path fill="#2183C6" d="M11.41 4.528c-1.22 1.62-3.816 5.68-4.43 8.948l4.43-8.948Z"/>
  </g>
  <defs>
    <clipPath id="a">
      <path fill="#fff" d="M0 0h18v18H0z"/>
    </clipPath>
  </defs>
</svg>
