<svg xmlns="http://www.w3.org/2000/svg" viewBox="0 0 18 18">
  <g clip-path="url(#a)">
    <path fill="#171A10" d="M0 0h18v18H0V0Z"/>
    <path fill="#fff" d="M12.223 8.412a.202.202 0 0 0 .204-.2.203.203 0 0 0-.407 0c0 .11.091.2.203.2Z"/>
    <path fill="#fff" d="M13.264 8.302c-.332-.218-.73-.824-1.497-.824a1.53 1.53 0 0 0-.959.318.99.99 0 0 0-.11.1C9.593 6.99 4.73 5.733 4.73 3.493c0-.07.003-.14.01-.209a.734.734 0 0 0-.236.248C3.362 5.169 5.942 6.835 7.799 7.448c-.707.052-3.076-1.053-3.682-2.192C3.402 6.81 6.12 8.043 7.97 8.25c-.222.109-2.928-.12-3.695-1.343C4 8.408 6.206 8.916 8.164 8.92c-.151.235-2.437.253-3.335-.477.084 1.295 2.494 1.19 3.65 1.142-.118.168-2.021.351-2.772-.03.163.584 1.197.65 3.095.65-.155.187-1.697.185-2.075.054.17.365 1.135.471 2.29.471 1.154 0 .924 1.875-1.993 4.06.279 0 1.106-.341 1.39-.528-.052.245-.544.642-.913.898.345-.081 1.586-.668 1.927-1.581l.003-.002c.131-.329.267-.866.26-1.677.132.523.103 1.045.044 1.429 1.023-.88 1.926-2.081 1.926-3.406 0-.77-.358-1.473-.936-2.002l.032-.027a1.396 1.396 0 0 1 .837-.277c.167 0 .289.027.433.074.055.018.106.039.155.062.258.137.338.32.338.495 0 .247-.169.292-.365.396-.286.15-.336.44-.215.559.12.118.411.136.648-.239.18-.287.529-.42 1.91-.447l-1.232-.212-.002-.003Z"/>
  </g>
  <defs>
    <clipPath id="a">
      <path fill="#fff" d="M0 0h18v18H0z"/>
    </clipPath>
  </defs>
</svg>
