<svg xmlns="http://www.w3.org/2000/svg" viewBox="0 0 18 18">
  <g clip-path="url(#a)">
    <path fill="#142640" d="M0 0h18v18H0V0Z"/>
    <path fill="#fff" fill-rule="evenodd" d="M5.322 5.804h.716c2.048 1.456 2.907 2.291 2.757 3.02-.173.852-1.24 1.483-3.468 2.466l-.307-.017C7.554 10.205 8.454 9.33 8.27 8.62c-.196-.763-.949-1.29-2.948-2.815Z" clip-rule="evenodd"/>
    <path fill="#fff" fill-rule="evenodd" d="M6.744 5.799h.711c2.113 1.45 2.656 2.414 2.333 2.996-.562 1.013-1.863 1.653-3.918 2.48l-.3.02c2.205-.955 3.677-1.773 3.762-2.67.073-.748-.573-1.302-2.588-2.82v-.006Z" clip-rule="evenodd"/>
    <path fill="#fff" fill-rule="evenodd" d="M8.165 5.804h.71c2.053 1.447 2.373 2.342 1.93 3.01-.67 1.029-2.205 1.655-4.326 2.481h-.315c2.654-1.09 3.776-1.71 4.134-2.5.413-.926-.317-1.588-2.135-2.986l.002-.005Z" clip-rule="evenodd"/>
    <path fill="#fff" fill-rule="evenodd" d="M9.586 5.804h.71c1.92 1.616 1.998 2.39 1.581 2.972-.719 1.002-2.907 1.996-4.834 2.514h-.315c2.312-.808 3.923-1.411 4.617-2.525.488-.783 0-1.498-1.76-2.96v-.001Z" clip-rule="evenodd"/>
    <path fill="#fff" fill-rule="evenodd" d="M11.006 5.804h.71c1.18 1.225 1.6 2.272 1.183 2.982-.836 1.411-3.553 2.1-5.285 2.504h-.319c2.36-.644 4.482-1.378 5.07-2.506.342-.654.138-1.506-1.359-2.98Z" clip-rule="evenodd"/>
    <path fill="#fff" fill-rule="evenodd" d="M13.859 7.388c.386 3.044-2.48 3.583-2.52 3.619-.19.06-.618.168-.618.168-1.747.347-4.182.369-5.442.176-1.348-.205-2.272-.642-2.475-1.447 1.013 1.593 5.875 1.601 8.442.827 1.654-.6 2.37-1.654 2.343-3.226-.008-.164-.013-.586.163-.776.24-.263.826-.18.872.22.077.574-.709.58-.675.114.015-.227.38-.319.447-.087a.172.172 0 0 1-.158.214.171.171 0 0 1-.096-.026c-.054-.038-.06-.063-.038-.101a.055.055 0 0 1 .089 0 .055.055 0 0 0 .08.03c.067-.036.01-.188-.13-.138a.166.166 0 0 0-.008.276c.307.144.45-.23.275-.414a.276.276 0 0 0-.24-.08c-.287.015-.33.335-.314.65" clip-rule="evenodd"/>
    <path fill="#fff" fill-rule="evenodd" d="M12.008 12.252s.52.03 1.323-.344c.754-.349 2.372-1.563.81-4.08-.037.439-.037 1.837-1.377 2.775-1.252.993-6.637 1.452-8.862.588-.919-.441-1.102-.974-1.102-.974s.183 1.966 1.065 2.021l8.143.014Z" clip-rule="evenodd"/>
    <path fill="#fff" d="M11.975 5.736H5.037v.098h6.938v-.098Z"/>
    <path fill="#fff" d="M8.814 5.207h-.098v.566h.098v-.566Z"/>
  </g>
  <defs>
    <clipPath id="a">
      <path fill="#fff" d="M0 0h18v18H0z"/>
    </clipPath>
  </defs>
</svg>
