<svg xmlns="http://www.w3.org/2000/svg" viewBox="0 0 18 18">
  <g clip-path="url(#a)">
    <path fill="#E11F26" d="M0 0h18v18H0V0Z"/>
    <path fill="#fff" d="M4.64 6.814c.164-.118.318-.086.461-.1.144-.012.3-.099.457-.075.043.006.042-.038.045-.069.025-.145.042-.291.048-.438a.424.424 0 0 1 .1-.252c.077-.133.173-.254.284-.36.082-.068.1-.18.2-.246.156-.1.323-.182.498-.245.065-.026.088 0 .091.056.008.083.008.167 0 .25-.04.29-.063.584-.126.872v.022c-.022.163-.015.169.14.129.451-.12.909-.217 1.37-.29a.686.686 0 0 0 .333-.121c.09-.07.208-.041.313-.055.258-.037.27-.065.332-.254.12-.34.223-.687.307-1.038.06-.285.205-.54.255-.825a.797.797 0 0 0 .03-.1c.035-.478.36-.689.76-.828.137-.04.27-.088.399-.148.063-.034.092-.01.082.058a.487.487 0 0 1-.064.215.72.72 0 0 0-.122.405.22.22 0 0 1-.013.093c-.2.384-.283.807-.451 1.202a7.562 7.562 0 0 0-.25.818c-.014.049 0 .068.052.06a.368.368 0 0 0 .082-.012c.175-.06.356-.103.54-.127.201-.035.401-.083.597-.143a6.892 6.892 0 0 1 1.096-.288 4.26 4.26 0 0 0 .736-.2c.167-.054.347-.06.516-.127.138-.055.223.015.218.164a.4.4 0 0 1-.192.35c-.16.088-.288.221-.463.29-.088.04-.18.074-.274.099-.117.024-.206.124-.337.141-.303.04-.582.188-.88.24-.3.053-.581.227-.897.187a.046.046 0 0 0-.023 0c-.305.142-.652.108-.964.228a.252.252 0 0 0-.146.133c-.1.184-.133.387-.21.579-.106.267-.179.549-.262.826-.02.07-.057.131-.08.199-.13.398-.298.797-.39 1.212-.069.286-.2.557-.254.844-.079.418-.228.829-.176 1.268a.347.347 0 0 0 .422.323.163.163 0 0 0 .1-.046c.1-.135.223-.242.32-.38.238-.34.235-.736.28-1.118a3.71 3.71 0 0 1 .226-.88 3.19 3.19 0 0 1 .282-.628c.096-.155.179-.318.246-.487.05-.12.161-.2.235-.31.166-.248.36-.476.576-.681a.997.997 0 0 1 1.371.013c.257.243.226.53.222.824a.964.964 0 0 1-.14.498c-.117.189-.267.23-.475.15-.237-.089-.337-.284-.414-.497a.154.154 0 0 1 .076-.185.1.1 0 0 1 .128-.017.1.1 0 0 1 .032.034c.057.06.282.058.351.01a.125.125 0 0 0 .04-.044c.1-.221-.108-.565-.349-.586-.02 0-.045-.008-.058 0-.1.067-.238.116-.299.21-.1.166-.259.273-.344.439-.118.227-.263.44-.36.68-.012.032-.018.077-.043.1-.119.08-.116.22-.174.328-.136.25-.175.533-.305.782a.2.2 0 0 0-.021.128.164.164 0 0 1 0 .093c-.084.157-.059.336-.109.499a.341.341 0 0 0 0 .152c.029.128.047.259.055.39a.13.13 0 0 0 .09.128.13.13 0 0 0 .15-.037 3.29 3.29 0 0 0 .498-.633c.141-.202.252-.423.33-.657.099-.299.25-.579.349-.879a.253.253 0 0 1 .215-.17c.105-.008.212-.024.316-.024a.184.184 0 0 1 .162.252c-.138.313-.174.653-.284.973-.08.235-.052.488-.03.734.01.1.085.117.183.09.32-.091.43-.363.555-.624a.398.398 0 0 1 .069-.11.22.22 0 0 0 .062-.072c.1-.289.27-.552.265-.88a3.03 3.03 0 0 1 .1-.707c.05-.228.071-.463.125-.691.047-.261.11-.519.19-.772.098-.23.17-.47.21-.717.011-.114.12-.191.134-.313.035-.332.2-.62.348-.907.07-.135.104-.278.16-.414.094-.232.265-.415.384-.63a.697.697 0 0 0 .1-.215c.014-.094.104-.126.156-.19.136-.168.134-.165.316-.04.078.059.14.137.178.228.09.14.156.294.196.455.025.156.025.315 0 .471-.046.37-.168.72-.243 1.082-.06.292-.163.574-.305.837-.084.171-.153.35-.206.534a1.22 1.22 0 0 1-.16.342c-.176.249-.25.55-.414.806-.1.159-.155.343-.264.504-.092.136-.19.272-.279.411-.082.14-.154.286-.214.437-.02.056-.027.116-.02.175.014.14.067.272.153.382.082.124.22.106.35.068a.648.648 0 0 0 .274-.2l.159-.178a2.4 2.4 0 0 0 .498-.785c.091-.208.166-.423.223-.643a.246.246 0 0 1 .032-.077.153.153 0 0 1 .165-.092.135.135 0 0 1 .11.137 1.45 1.45 0 0 1-.058.673 3.048 3.048 0 0 1-.293.624.982.982 0 0 1-.231.268c-.1.071-.15.199-.241.277-.266.219-.56.412-.92.398a.513.513 0 0 1-.5-.34 1.602 1.602 0 0 0-.088-.172 5.908 5.908 0 0 0-.342.523c-.155.305-.408.446-.726.52a.769.769 0 0 1-.608-.126c-.1-.06-.112-.17-.157-.261a2.141 2.141 0 0 1-.079-.21.189.189 0 0 0-.09.1 1.35 1.35 0 0 1-.289.435 1.464 1.464 0 0 1-.598.455c-.199.072-.555-.056-.68-.226-.038-.055-.074-.112-.112-.169-.138.234-.29.466-.52.598-.31.177-.65.245-.978.029-.13-.086-.189-.233-.254-.37-.014-.034-.013-.091-.056-.093-.043-.002-.061.047-.08.08a3.145 3.145 0 0 1-.2.365c-.15.212-.347.386-.577.507-.195.095-.413.13-.627.1a.525.525 0 0 1-.41-.432c-.017-.131-.053-.259-.063-.39a2.742 2.742 0 0 1 .118-.966 4.587 4.587 0 0 0 .178-.743c.147-.2.114-.458.235-.656.142-.236.191-.505.309-.75a.474.474 0 0 1 .057-.089c.078-.093.131-.1.21 0 .116.13.184.294.192.468 0 .164.017.33-.076.487a.49.49 0 0 0-.061.312.177.177 0 0 1-.04.145.492.492 0 0 0-.1.25c-.062.278-.15.55-.262.81a1.327 1.327 0 0 0-.108.688.36.36 0 0 1-.007.163.25.25 0 0 0 .11.3c.09.063.172.015.243-.035a1.07 1.07 0 0 0 .353-.366c.22-.4.394-.826.515-1.268.057-.237.146-.471.2-.71.074-.379.22-.73.335-1.092.115-.362.2-.719.299-1.076.086-.3.161-.605.267-.897.02-.056.052-.138.015-.168a.193.193 0 0 0-.2 0c-.13.068-.277 0-.41.055-.344.137-.712.09-1.066.15-.159.033-.32.056-.481.068-.06 0-.076.031-.089.087-.047.2-.1.41-.143.612-.048.235-.17.46-.142.708a.09.09 0 0 1-.01.058c-.154.186-.19.427-.235.644-.084.398-.27.753-.385 1.136a2.45 2.45 0 0 1-.265.579c-.063.097-.11.204-.137.316a.498.498 0 0 1-.178.328.29.29 0 0 0-.065.1l-.399.719a.236.236 0 0 1-.085.08.468.468 0 0 0-.128.138c-.112.152-.24.293-.38.42-.035.028-.077.048-.1.088a.278.278 0 0 1-.215.153.118.118 0 0 0-.063.031c-.155.19-.38.18-.59.2a1.063 1.063 0 0 1-.415-.008.262.262 0 0 1-.171-.117.105.105 0 0 0-.028-.039c-.25-.148-.256-.414-.308-.654-.032-.148-.052-.3-.075-.448a.214.214 0 0 1-.005-.106c.1-.218.08-.45.1-.68a.71.71 0 0 1 .078-.211c.08-.193.062-.399.135-.598.04-.108.088-.211.124-.32.075-.234.088-.498.21-.706.121-.207.091-.466.225-.67.042-.065.019-.148.04-.221.089-.312.174-.625.256-.94a.846.846 0 0 0 .038-.41c-.02-.083.04-.152.05-.232a1.444 1.444 0 0 0-.073-.498c-.028-.13-.242-.16-.367-.057-.124.104-.282.19-.398.3a1.518 1.518 0 0 0-.333.398c-.053.103-.12.2-.2.285a1.114 1.114 0 0 0-.237.378c-.072.214-.208.399-.26.626a1.74 1.74 0 0 0 .01.96c.047.145.18.227.304.31.038.024.1.031.083.1-.017.067-.042.133-.118.15a1.26 1.26 0 0 1-.461.043.598.598 0 0 1-.454-.372 1.213 1.213 0 0 1-.08-.73c.055-.27.161-.516.238-.775.042-.094.094-.183.155-.266.143-.26.336-.49.469-.757a.534.534 0 0 1 .126-.158c.227-.199.405-.453.647-.638.23-.184.505-.302.797-.342.094-.011.186-.052.28-.057.22-.01.449.177.55.372.102.194.075.398.108.598.053.328-.044.64-.086.954-.034.255-.144.498-.207.75-.05.213-.115.422-.192.626-.078.2-.1.418-.164.616s-.1.418-.192.611a.36.36 0 0 0-.039.185c.01.136-.1.23-.118.36-.023.147-.075.298-.09.436a3.643 3.643 0 0 0-.02 1.043c.01.242.272.388.499.327.2-.056.255-.239.383-.353.19-.171.322-.398.377-.648.021-.093.107-.145.143-.232.139-.294.253-.6.342-.914a.938.938 0 0 1 .071-.188c.092-.169.152-.353.178-.543a.623.623 0 0 1 .06-.193c.144-.38.234-.776.268-1.18a.31.31 0 0 1 .04-.124.164.164 0 0 0 .034-.075c0-.285.114-.559.075-.849A1.627 1.627 0 0 1 5.536 7c.008-.065 0-.1-.079-.079a.264.264 0 0 1-.2-.019.153.153 0 0 0-.126-.018c-.175.07-.308-.055-.49-.07Zm9.068 2.22c.153-.157.282-.338.383-.534.061-.118.09-.256.174-.36.105-.153.191-.317.257-.49.09-.188.153-.391.23-.587.087-.227.198-.44.276-.672.116-.35.2-.71.314-1.061.07-.218.106-.439.153-.659a.085.085 0 0 0-.043-.107c-.058-.031-.07.022-.09.048a.39.39 0 0 0-.065.114c-.06.171-.218.299-.227.491 0 0 0 .007-.006.01-.133.299-.342.573-.369.918a.113.113 0 0 1-.02.056c-.083.1-.1.232-.164.341-.064.11-.025.242-.09.342-.101.167-.17.35-.207.542-.065.29-.167.567-.255.848-.07.23-.106.476-.241.683-.01.018-.01.046-.01.078Zm-1.154 4.535a4.627 4.627 0 0 0-.386.442c-.075.087-.133.094-.216.015-.083-.079-.171-.143-.257-.213-.018-.015-.038-.04-.062-.024a.074.074 0 0 0-.017.053c0 .225-.007.45 0 .675 0 .149-.02.19-.166.228-.315.084-.32.084-.323-.238v-1.323c0-.1.047-.14.136-.18a.345.345 0 0 1 .47.126c.09.102.184.199.286.288.045.047.074.047.111-.006.122-.171.26-.333.366-.514a.513.513 0 0 1 .46-.263c.08 0 .091.044.091.107 0 .294.006.588.008.883v.632a.143.143 0 0 1-.142.168c-.08.01-.157.027-.236.04-.078.013-.116-.022-.113-.113.008-.21.008-.42.007-.63a1.07 1.07 0 0 0-.017-.153Zm-3.244.873v-.753a.144.144 0 0 1 .123-.162c.255-.06.498-.148.761-.193a.417.417 0 0 1 .445.162.462.462 0 0 1 .019.498.57.57 0 0 1-.239.256c-.08.044-.08.1-.028.167.05.066.12.161.24.15.052 0 .066.032.063.079-.003.047 0 .1 0 .155 0 .18-.088.255-.273.241-.21-.017-.328-.159-.438-.313a.814.814 0 0 1-.055-.106.07.07 0 0 0-.087-.043c-.044.013-.046.047-.045.086v.44a.114.114 0 0 1-.052.112.826.826 0 0 1-.367.09c-.075 0-.066-.068-.066-.117v-.752l-.002.003Zm.778-.719c-.073.022-.159.044-.24.074-.05.018-.074.263-.033.299.009.008.02.011.033.01.122-.027.255-.036.34-.15a.173.173 0 0 0 .02-.17c-.017-.049-.063-.06-.12-.063ZM7.189 15.78c-.093 0-.074-.063-.053-.12.066-.176.136-.35.2-.524.145-.377.292-.754.433-1.134a.182.182 0 0 1 .17-.139.831.831 0 0 0 .165-.026c.075-.024.115 0 .151.07.145.283.3.564.44.846.094.18.184.362.283.539.044.08.027.116-.056.136-.112.028-.223.06-.334.088a.114.114 0 0 1-.152-.073c-.035-.08-.066-.187-.13-.218-.064-.03-.154.055-.233.056-.246 0-.399.1-.424.356a.1.1 0 0 1-.088.086c-.118.021-.24.038-.372.057Zm.81-1.195a.463.463 0 0 0-.077.199c-.012.077-.1.17-.042.221.056.05.155-.025.237-.037h.024c.036-.005.05-.025.03-.058a1.95 1.95 0 0 0-.173-.33v.005Zm5.873-.328c-.1.005-.2.005-.299 0-.088-.007-.133-.039-.11-.136.023-.096.038-.178.059-.267.02-.088.08-.086.149-.063a.468.468 0 0 0 .266.04.162.162 0 0 0 .124-.082c.025-.058-.016-.1-.05-.137a2.075 2.075 0 0 0-.347-.287.505.505 0 0 1-.005-.77.903.903 0 0 1 .673-.173c.298.034.298.039.23.329-.015.068-.045.104-.124.08a.705.705 0 0 0-.186-.037.174.174 0 0 0-.128.32c.114.1.252.167.352.284.065.07.115.153.147.243a.42.42 0 0 1-.185.508 1.11 1.11 0 0 1-.566.148Zm-8.02 1.288v-1.247c0-.162.013-.175.172-.184.282-.016.563-.039.844-.055.159-.01.183.014.175.17-.01.192-.016.2-.2.214-.13.011-.26.025-.391.034-.08.005-.115.037-.11.12.005.082.05.106.127.1.076-.008.158-.013.237-.017.032 0 .074-.01.09.02.034.092.04.193.018.29-.007.063-.07.089-.137.088a.773.773 0 0 0-.1.008c-.24.015-.24.015-.239.261v.405a.116.116 0 0 1-.123.14c-.086.006-.174.005-.262.008-.062 0-.1-.025-.1-.09v-.265h-.001Zm8.961-.534c-1.536-.02-3.007.3-4.456.764.141-.097.293-.178.451-.243.5-.211 1.013-.388 1.537-.528.434-.12.875-.214 1.321-.28a3.27 3.27 0 0 1 .797-.023c.178.013.365.12.35.31Zm-5.478-2.143c-.12.1-.27.114-.407.159-.323.106-.648.21-.979.288-.33.077-.653.155-.985.218a5.097 5.097 0 0 1-1.196.091.5.5 0 0 1-.47-.262c1.37-.07 2.705-.274 4.037-.494Z"/>
    <path fill="#fff" d="M7.63 7.773a.658.658 0 0 1-.084.341c-.133.234-.399.263-.548.04-.167-.25-.25-.524-.092-.819a.323.323 0 0 1 .559-.043.81.81 0 0 1 .164.481Zm-.252-3.875c.01-.155.04-.298.19-.386a.252.252 0 0 1 .361.093.574.574 0 0 1 0 .612.261.261 0 0 1-.461 0 .54.54 0 0 1-.09-.318Zm.426.008c-.026-.074.013-.204-.11-.204-.105 0-.1.119-.1.2 0 .08 0 .219.106.22.106 0 .08-.136.104-.216Zm-.684.022a.566.566 0 0 1-.084.3.271.271 0 0 1-.453.006.585.585 0 0 1 0-.63.272.272 0 0 1 .266-.124.268.268 0 0 1 .228.184.66.66 0 0 1 .042.264Zm-.423-.009c.02.076 0 .2.11.2.111 0 .1-.12.1-.2 0-.078.014-.216-.106-.217-.12 0-.09.129-.104.217Zm-3.773-.01v-.31c0-.069.016-.1.093-.1.106 0 .214 0 .32-.005.071 0 .077.041.076.093 0 .052 0 .1-.071.093h-.144c-.032 0-.066 0-.063.05.003.048.034.046.068.046.059 0 .123-.01.123.084 0 .07-.012.118-.1.107-.068-.008-.1.014-.1.092s.045.09.107.087h.108c.06 0 .1.012.094.087-.005.074-.02.107-.093.107h-.333c-.068 0-.09-.032-.089-.1.006-.11.004-.22.004-.331Zm3.152.217c.106 0 .2 0 .17.136-.01.05-.029.066-.075.066-.124 0-.247.01-.37.007-.038 0-.099.01-.099-.052s-.02-.117.051-.156a.615.615 0 0 0 .23-.22.157.157 0 0 0 .02-.168c-.036-.061-.091-.024-.14-.018-.05.006-.134.033-.157-.057-.023-.09.013-.135.107-.16.18-.048.28-.034.366.074a.327.327 0 0 1 0 .389l-.103.16Zm-2.233.222c-.167 0-.182-.017-.16-.15.011-.078.038-.106.116-.066.036.018.086.024.11-.012.024-.036-.02-.07-.043-.1-.038-.046-.083-.086-.122-.131A.246.246 0 0 1 3.71 3.6a.241.241 0 0 1 .26-.128c.075.011.2-.023.16.132-.012.054-.027.09-.093.061-.037-.017-.082-.029-.106.015a.1.1 0 0 0 .027.13c.028.028.06.053.087.08.082.088.152.185.1.31-.052.124-.165.152-.301.147Zm.727-.34v-.167c.01-.1-.009-.163-.13-.144-.069.011-.079-.041-.074-.093.005-.052 0-.11.076-.11.16 0 .319.006.477 0 .085 0 .085.047.086.108 0 .06-.018.106-.087.093-.13-.022-.141.05-.138.15.005.131 0 .264 0 .4 0 .063-.016.1-.09.088-.054-.008-.126.018-.12-.083.005-.08 0-.159 0-.239v-.003Zm3.926-.52c.278.011.278.011.233.285-.024.146-.047.291-.072.436-.02.113-.065.141-.185.115-.1-.022-.045-.1-.038-.144.02-.126.05-.25.08-.373.018-.079.006-.124-.088-.11h-.1c-.08.009-.1-.03-.1-.1s.022-.109.101-.109c.058.006.114 0 .17 0Zm-3.281.772c.01.092-.063.067-.106.074-.06.01-.085-.023-.084-.084 0-.062.046-.083.1-.082.053.001.101.027.09.093ZM16.1 12.288a.539.539 0 1 1-.538-.524.526.526 0 0 1 .537.524Zm-.944 0a.407.407 0 0 0 .697.297.397.397 0 0 0 .11-.293.405.405 0 1 0-.808 0v-.004Zm.322.275h-.126v-.524c.066-.012.133-.017.2-.016a.324.324 0 0 1 .182.039.148.148 0 0 1 .05.114.133.133 0 0 1-.108.122v.006a.157.157 0 0 1 .1.128c.005.046.018.09.038.13h-.131a.438.438 0 0 1-.042-.127c-.009-.057-.04-.082-.109-.082h-.057l.004.21Zm0-.299h.057c.068 0 .122-.023.122-.077 0-.053-.035-.08-.112-.08a.3.3 0 0 0-.066.007v.15Z"/>
  </g>
  <defs>
    <clipPath id="a">
      <path fill="#fff" d="M0 0h18v18H0z"/>
    </clipPath>
  </defs>
</svg>
