<svg xmlns="http://www.w3.org/2000/svg" viewBox="0 0 18 18">
  <g clip-path="url(#a)">
    <path fill="#00607B" d="M0 0h18v18H0V0Z"/>
    <path fill="#fff" d="M5.07 11.509a1.253 1.253 0 0 0 .877-1.518L4.77 5.401H3.5l1.458 5.721c.036.137.073.266.112.387Zm7.838-4.306a9.942 9.942 0 0 0-.127-.442 1.253 1.253 0 0 0-.858 1.536l.379 1.37H10.99a1.25 1.25 0 0 0-1.248 1.174h2.885l.575 2.084H14.5l-1.592-5.722Z"/>
    <path fill="#fff" d="M10.916 6.386h1.736c-.122-.313-.253-.55-.408-.713-.285-.271-.681-.423-1.328-.423-.654 0-1.049.153-1.321.425-.266.282-.46.782-.658 1.528l-1.213 4.32c-.157.301-.358.36-.668.36H5.202c.135.341.283.595.447.77.286.27.76.407 1.407.407.653 0 1.122-.138 1.393-.41.267-.283.492-.782.69-1.528l.317-1.235.765-2.726c.183-.67.298-.775.695-.775Z"/>
  </g>
  <defs>
    <clipPath id="a">
      <path fill="#fff" d="M0 0h18v18H0z"/>
    </clipPath>
  </defs>
</svg>
