<svg xmlns="http://www.w3.org/2000/svg" viewBox="0 0 18 18">
  <g clip-path="url(#a)">
    <path fill="#EBEBEB" d="M0 0h18v18H0V0Z"/>
    <g clip-path="url(#b)">
      <path fill="#fff" d="M8.94 14.936A5.932 5.932 0 0 1 3.003 9 5.93 5.93 0 0 1 8.94 3.063 5.93 5.93 0 0 1 14.876 9a5.93 5.93 0 0 1-5.936 5.937Z"/>
      <path fill="#007BC7" d="M8.954 14.673A5.661 5.661 0 0 1 3.295 9a5.66 5.66 0 0 1 5.659-5.673A5.66 5.66 0 0 1 14.613 9a5.66 5.66 0 0 1-5.66 5.673Z"/>
      <mask id="c" width="12" height="12" x="3" y="3" maskUnits="userSpaceOnUse" style="mask-type:luminance">
        <path fill="#fff" d="M8.943 14.658A5.653 5.653 0 0 1 3.283 9a5.653 5.653 0 0 1 5.66-5.657A5.653 5.653 0 0 1 14.6 9a5.653 5.653 0 0 1-5.659 5.657Z"/>
      </mask>
      <g mask="url(#c)">
        <path fill="#007BC7" d="M3.471 13.416c-.322-.703-.468-1.492-.468-2.281 0-3.275 2.69-5.907 5.995-5.907 3.304 0 5.995 2.632 5.995 5.877a6.04 6.04 0 0 1-.468 2.31c-.906-.994-3.041-1.695-5.527-1.695-2.485 0-4.62.701-5.527 1.696Z"/>
        <path fill="#007CC8" d="M3.471 13.387a5.744 5.744 0 0 1-.468-2.252c0-3.216 2.69-5.848 5.995-5.848 3.304 0 5.995 2.632 5.995 5.849 0 .79-.176 1.579-.468 2.251-.936-.965-3.041-1.637-5.527-1.637-2.485 0-4.62.672-5.527 1.637Z"/>
        <path fill="#007EC9" d="M3.5 13.386c-.321-.672-.468-1.433-.468-2.251 0-3.188 2.662-5.79 5.966-5.79 3.304 0 5.966 2.602 5.966 5.79 0 .79-.176 1.579-.468 2.251-.907-.965-3.012-1.637-5.498-1.637-2.485 0-4.591.672-5.498 1.637Z"/>
        <path fill="#0080CA" d="M3.5 13.386a5.603 5.603 0 0 1-.468-2.223c0-3.187 2.662-5.76 5.966-5.76 3.275 0 5.966 2.573 5.966 5.76 0 .79-.176 1.55-.468 2.223-.907-.965-3.041-1.638-5.498-1.638-2.485 0-4.591.673-5.498 1.638Z"/>
        <path fill="#0083CD" d="M3.53 13.386c-.322-.672-.468-1.432-.468-2.222 0-3.158 2.66-5.731 5.936-5.731 3.275 0 5.936 2.573 5.936 5.73 0 .79-.175 1.55-.468 2.223-.906-.964-3.011-1.637-5.468-1.637s-4.562.673-5.468 1.637Z"/>
        <path fill="#0085CE" d="M3.53 13.358a5.45 5.45 0 0 1-.468-2.194c0-3.1 2.66-5.673 5.936-5.673 3.275 0 5.908 2.574 5.908 5.673 0 .79-.147 1.55-.44 2.194-.906-.936-3.011-1.609-5.468-1.609s-4.562.673-5.468 1.609Z"/>
        <path fill="#0087CF" d="M3.53 13.357a5.394 5.394 0 0 1-.44-2.164c0-3.1 2.633-5.644 5.908-5.644 3.246 0 5.908 2.544 5.908 5.644a5.43 5.43 0 0 1-.469 2.164c-.906-.936-2.982-1.58-5.439-1.58s-4.562.644-5.468 1.58Z"/>
        <path fill="#0088D0" d="M3.559 13.358a5.43 5.43 0 0 1-.468-2.164c0-3.07 2.632-5.615 5.907-5.615 3.246 0 5.878 2.545 5.878 5.615 0 .76-.146 1.491-.438 2.164-.908-.936-3.013-1.58-5.44-1.58-2.457 0-4.532.644-5.44 1.58Z"/>
        <path fill="#008AD1" d="M3.559 13.357a5.37 5.37 0 0 1-.439-2.135c0-3.042 2.632-5.585 5.878-5.585s5.878 2.543 5.878 5.556c0 .76-.175 1.491-.468 2.164-.906-.936-2.983-1.58-5.41-1.58-2.457 0-4.532.644-5.44 1.58Z"/>
        <path fill="#008CD3" d="M3.588 13.328a5.036 5.036 0 0 1-.468-2.105c0-3.012 2.632-5.527 5.878-5.527 3.217 0 5.849 2.515 5.849 5.527 0 .76-.146 1.462-.44 2.105-.905-.906-2.982-1.55-5.409-1.55-2.427 0-4.532.644-5.41 1.55Z"/>
        <path fill="#008ED4" d="M3.588 13.327a5.023 5.023 0 0 1-.439-2.105c0-2.983 2.603-5.468 5.85-5.468 3.216 0 5.848 2.485 5.848 5.468a5.05 5.05 0 0 1-.468 2.105c-.877-.906-2.954-1.55-5.38-1.55-2.428 0-4.504.644-5.41 1.55Z"/>
        <path fill="#0090D5" d="M3.617 13.328a5.017 5.017 0 0 1-.468-2.076c0-2.983 2.632-5.469 5.85-5.469 3.216 0 5.818 2.486 5.818 5.469a4.6 4.6 0 0 1-.467 2.076c-.877-.906-2.954-1.52-5.352-1.52-2.427 0-4.503.614-5.38 1.52Z"/>
        <path fill="#0093D7" d="M3.617 13.328a4.992 4.992 0 0 1-.438-2.076c0-2.924 2.602-5.41 5.82-5.41 3.187 0 5.818 2.486 5.818 5.41 0 .73-.175 1.433-.467 2.076-.877-.906-2.954-1.52-5.352-1.52-2.427 0-4.475.614-5.38 1.52Z"/>
        <path fill="#0095D8" d="M3.647 13.328a5.004 5.004 0 0 1-.468-2.076c0-2.895 2.602-5.352 5.82-5.352 3.187 0 5.79 2.457 5.79 5.352a4.59 4.59 0 0 1-.469 2.076c-.877-.906-2.924-1.52-5.322-1.52-2.427 0-4.475.614-5.351 1.52Z"/>
        <path fill="#0097DA" d="M3.647 13.298a4.72 4.72 0 0 1-.44-2.018c0-2.895 2.574-5.351 5.762-5.351 3.217 0 5.82 2.456 5.82 5.351 0 .702-.176 1.404-.469 2.018-.877-.877-2.924-1.491-5.351-1.491-2.369 0-4.446.614-5.322 1.491Z"/>
        <path fill="#0099DB" d="M3.676 13.3a4.655 4.655 0 0 1-.468-2.019c0-2.836 2.602-5.293 5.76-5.293 3.218 0 5.791 2.428 5.791 5.293 0 .731-.175 1.404-.468 2.018-.877-.877-2.924-1.462-5.322-1.462-2.369 0-4.416.585-5.293 1.462Z"/>
        <path fill="#009BDC" d="M3.676 13.298a4.6 4.6 0 0 1-.44-1.988c0-2.837 2.574-5.264 5.733-5.264 3.187 0 5.76 2.427 5.76 5.264 0 .701-.145 1.374-.438 1.988-.877-.877-2.924-1.462-5.322-1.462-2.369 0-4.416.585-5.293 1.462Z"/>
        <path fill="#009DDD" d="M3.705 13.3a4.625 4.625 0 0 1-.468-1.99c0-2.807 2.573-5.205 5.732-5.205 3.187 0 5.76 2.398 5.76 5.206 0 .701-.174 1.374-.467 1.988-.848-.877-2.895-1.462-5.293-1.462-2.369 0-4.416.585-5.264 1.462Z"/>
        <path fill="#009FDE" d="M3.705 13.269a4.378 4.378 0 0 1-.439-1.959c0-2.778 2.544-5.176 5.703-5.176 3.187 0 5.732 2.398 5.732 5.176 0 .702-.146 1.375-.44 1.959-.877-.848-2.894-1.433-5.292-1.433-2.369 0-4.387.585-5.264 1.433Z"/>
        <path fill="#00A1E0" d="M3.705 13.269c-.263-.584-.439-1.257-.439-1.93 0-2.749 2.574-5.147 5.703-5.147 3.158 0 5.732 2.398 5.732 5.147a4.37 4.37 0 0 1-.468 1.93c-.849-.819-2.896-1.433-5.264-1.433-2.34 0-4.387.614-5.264 1.433Z"/>
        <path fill="#00A5E2" d="M3.734 13.269a4.344 4.344 0 0 1-.439-1.93c0-2.72 2.545-5.088 5.674-5.088 3.158 0 5.702 2.369 5.702 5.088 0 .673-.146 1.346-.438 1.93-.878-.819-2.896-1.403-5.264-1.403-2.34 0-4.357.584-5.235 1.403Z"/>
        <path fill="#00A7E3" d="M3.734 13.24a4.433 4.433 0 0 1-.439-1.9c0-2.691 2.545-5.03 5.674-5.03 3.158 0 5.702 2.339 5.702 5.03 0 .672-.175 1.345-.468 1.9-.848-.79-2.865-1.374-5.234-1.374-2.34 0-4.357.584-5.235 1.374Z"/>
        <path fill="#00A9E4" d="M3.763 13.24a4.015 4.015 0 0 1-.438-1.871c0-2.69 2.515-5.03 5.644-5.03s5.673 2.34 5.673 5.03c0 .672-.146 1.316-.439 1.871-.877-.79-2.865-1.374-5.234-1.374-2.34 0-4.357.585-5.206 1.374Z"/>
        <path fill="#00ABE5" d="M3.763 13.24a4.015 4.015 0 0 1-.438-1.871c0-2.632 2.544-4.972 5.644-4.972 3.129 0 5.673 2.34 5.673 4.972 0 .672-.176 1.316-.468 1.871-.848-.79-2.865-1.374-5.205-1.374s-4.328.585-5.206 1.374Z"/>
        <path fill="#00ADE7" d="M3.793 13.24a3.974 3.974 0 0 1-.44-1.843c0-2.632 2.516-4.942 5.616-4.942 3.129 0 5.644 2.31 5.644 4.942a4.07 4.07 0 0 1-.439 1.842c-.877-.79-2.865-1.345-5.205-1.345-2.31 0-4.328.556-5.176 1.345Z"/>
        <path fill="#00AFE8" d="M3.793 13.24a4.064 4.064 0 0 1-.44-1.841c0-2.603 2.516-4.914 5.616-4.914 3.1 0 5.644 2.31 5.644 4.914 0 .643-.175 1.257-.468 1.842-.848-.79-2.836-1.345-5.176-1.345-2.31 0-4.328.555-5.176 1.345Z"/>
        <path fill="#00B1E9" d="M3.822 13.21a3.895 3.895 0 0 1-.468-1.812c0-2.574 2.544-4.855 5.615-4.855 3.1 0 5.615 2.281 5.615 4.855 0 .643-.146 1.257-.439 1.813-.848-.761-2.836-1.316-5.176-1.316-2.31 0-4.299.555-5.147 1.316Z"/>
        <path fill="#06B4EA" d="M3.822 13.212a3.838 3.838 0 0 1-.438-1.784c0-2.544 2.514-4.825 5.585-4.825 3.1 0 5.586 2.28 5.586 4.825 0 .614-.147 1.228-.44 1.784-.847-.761-2.836-1.316-5.146-1.316s-4.299.555-5.147 1.316Z"/>
        <path fill="#21B8ED" d="M3.852 13.21a3.743 3.743 0 0 1-.44-1.783c0-2.515 2.486-4.767 5.557-4.767 3.07 0 5.586 2.252 5.586 4.767 0 .643-.147 1.228-.44 1.784-.847-.761-2.836-1.316-5.146-1.316s-4.27.555-5.117 1.316Z"/>
        <path fill="#29BAEE" d="M3.852 13.211a3.743 3.743 0 0 1-.44-1.784c0-2.485 2.486-4.738 5.557-4.738 3.07 0 5.556 2.253 5.556 4.738a3.75 3.75 0 0 1-.438 1.784c-.849-.76-2.808-1.286-5.118-1.286-2.281 0-4.27.525-5.117 1.286Z"/>
        <path fill="#30BCEF" d="M3.88 13.182a3.522 3.522 0 0 1-.438-1.725C3.442 9 5.927 6.748 8.97 6.748c3.07 0 5.556 2.252 5.556 4.709 0 .614-.175 1.198-.438 1.725-.849-.732-2.808-1.257-5.118-1.257-2.281 0-4.27.525-5.089 1.257Z"/>
        <path fill="#37BEF0" d="M3.88 13.182a3.522 3.522 0 0 1-.438-1.725c0-2.428 2.485-4.65 5.527-4.65 3.07 0 5.527 2.222 5.527 4.65 0 .614-.146 1.198-.439 1.725-.819-.732-2.807-1.257-5.088-1.257s-4.24.525-5.089 1.257Z"/>
        <path fill="#44C0F0" d="M3.88 13.181c-.263-.526-.438-1.082-.438-1.696 0-2.427 2.485-4.65 5.527-4.65 3.041 0 5.527 2.223 5.527 4.65 0 .614-.146 1.17-.439 1.696-.848-.731-2.807-1.228-5.088-1.228s-4.24.497-5.089 1.228Z"/>
        <path fill="#4FC2F1" d="M3.88 13.182a3.631 3.631 0 0 1-.409-1.696c0-2.398 2.456-4.591 5.498-4.591 3.041 0 5.527 2.193 5.527 4.59 0 .615-.176 1.2-.439 1.697-.848-.702-2.807-1.228-5.088-1.228s-4.24.526-5.089 1.228Z"/>
        <path fill="#59C4F1" d="M3.91 13.211a3.495 3.495 0 0 1-.439-1.696c0-2.398 2.456-4.591 5.498-4.591 3.041 0 5.497 2.193 5.497 4.591 0 .585-.146 1.17-.438 1.696-.819-.73-2.778-1.258-5.06-1.258-2.28 0-4.24.527-5.059 1.258Z"/>
        <path fill="#62C6F2" d="M3.91 13.21a3.386 3.386 0 0 1-.439-1.667c0-2.397 2.456-4.562 5.498-4.562 3.041 0 5.497 2.165 5.497 4.562 0 .585-.146 1.14-.438 1.667-.819-.73-2.778-1.229-5.06-1.229-2.28 0-4.21.498-5.059 1.23Z"/>
        <path fill="#6BC8F3" d="M3.91 13.211c-.263-.497-.439-1.082-.439-1.667 0-2.34 2.486-4.503 5.498-4.503 3.041 0 5.497 2.163 5.497 4.503 0 .585-.146 1.17-.438 1.667-.819-.702-2.778-1.229-5.06-1.229-2.28 0-4.21.527-5.059 1.23Z"/>
        <path fill="#76CBF3" d="M3.91 13.21a3.496 3.496 0 0 1-.41-1.638c0-2.339 2.457-4.503 5.469-4.503 3.041 0 5.497 2.164 5.497 4.503 0 .586-.175 1.141-.438 1.639-.848-.703-2.778-1.2-5.06-1.2-2.25 0-4.21.497-5.059 1.2Z"/>
        <path fill="#7ECEF4" d="M3.94 13.24a3.381 3.381 0 0 1-.44-1.667c0-2.31 2.457-4.444 5.469-4.444 3.041 0 5.469 2.134 5.469 4.444a3.7 3.7 0 0 1-.41 1.668c-.848-.732-2.778-1.229-5.06-1.229-2.25 0-4.21.497-5.029 1.229Z"/>
        <path fill="#85D0F4" d="M3.94 13.24a3.2 3.2 0 0 1-.44-1.638c0-2.31 2.457-4.445 5.469-4.445 3.012 0 5.469 2.135 5.469 4.445 0 .585-.147 1.141-.44 1.638-.818-.701-2.748-1.2-5.03-1.2-2.25 0-4.21.499-5.029 1.2Z"/>
        <path fill="#8CD2F5" d="M3.94 13.24c-.264-.497-.44-1.053-.44-1.609 0-2.31 2.457-4.415 5.469-4.415 3.012 0 5.469 2.105 5.469 4.415 0 .556-.147 1.112-.44 1.609-.818-.701-2.778-1.2-5.03-1.2-2.25 0-4.21.499-5.029 1.2Z"/>
        <path fill="#92D4F5" d="M3.94 13.24a3.368 3.368 0 0 1-.41-1.608c0-2.28 2.427-4.386 5.439-4.386s5.469 2.106 5.469 4.386c0 .585-.176 1.112-.44 1.609-.818-.673-2.778-1.17-5.03-1.17-2.25 0-4.181.497-5.029 1.17Z"/>
        <path fill="#98D6F6" d="M3.968 13.24a2.992 2.992 0 0 1-.438-1.579c0-2.28 2.427-4.357 5.439-4.357s5.439 2.076 5.439 4.357a3.25 3.25 0 0 1-.41 1.58c-.847-.673-2.778-1.17-5.03-1.17-2.25 0-4.181.497-5 1.17Z"/>
        <path fill="#9FD8F7" d="M3.968 13.268a3.094 3.094 0 0 1-.438-1.607c0-2.253 2.456-4.3 5.439-4.3 3.012 0 5.439 2.047 5.439 4.3 0 .584-.146 1.11-.438 1.607-.82-.701-2.75-1.17-5.001-1.17-2.252 0-4.182.469-5.001 1.17Z"/>
        <path fill="#A4DBF7" d="M3.968 13.269c-.263-.497-.438-1.024-.438-1.579 0-2.223 2.456-4.298 5.439-4.298 3.012 0 5.439 2.075 5.439 4.298 0 .556-.146 1.082-.438 1.579-.82-.673-2.75-1.17-5.001-1.17-2.252 0-4.182.497-5.001 1.17Z"/>
        <path fill="#AADDF8" d="M3.968 13.269a3.142 3.142 0 0 1-.41-1.55c0-2.222 2.428-4.269 5.41-4.269 3.013 0 5.44 2.047 5.44 4.27 0 .555-.175 1.081-.438 1.549-.82-.673-2.75-1.14-5.001-1.14-2.252 0-4.182.467-5.001 1.14Z"/>
        <path fill="#B0DFF8" d="M3.968 13.268a3.143 3.143 0 0 1-.41-1.549c0-2.194 2.428-4.24 5.41-4.24 2.984 0 5.41 2.046 5.41 4.24a3.14 3.14 0 0 1-.409 1.55c-.818-.673-2.749-1.14-5-1.14-2.252 0-4.153.467-5.001 1.14Z"/>
        <path fill="#B8E2F9" d="M3.998 13.27a2.787 2.787 0 0 1-.44-1.521c0-2.193 2.428-4.21 5.41-4.21 2.984 0 5.41 2.017 5.41 4.21 0 .527-.145 1.052-.437 1.52-.82-.643-2.72-1.11-4.972-1.11-2.223 0-4.153.467-4.971 1.11Z"/>
        <path fill="#BDE4F9" d="M3.998 13.298c-.264-.468-.44-.995-.44-1.55 0-2.164 2.428-4.152 5.41-4.152 2.984 0 5.41 1.988 5.41 4.152 0 .556-.145 1.082-.437 1.55-.82-.673-2.72-1.14-4.972-1.14-2.223 0-4.153.467-4.971 1.14Z"/>
        <path fill="#C2E6FA" d="M3.998 13.298a3.12 3.12 0 0 1-.41-1.52c0-2.164 2.398-4.153 5.38-4.153 2.984 0 5.41 1.99 5.41 4.152 0 .527-.175 1.054-.437 1.521-.82-.643-2.75-1.111-4.972-1.111-2.223 0-4.153.468-4.971 1.111Z"/>
        <path fill="#C7E8FA" d="M3.998 13.298a3.01 3.01 0 0 1-.41-1.491c0-2.164 2.398-4.123 5.38-4.123 2.984 0 5.382 1.959 5.382 4.123 0 .527-.147 1.024-.41 1.491-.819-.643-2.749-1.111-4.971-1.111-2.223 0-4.153.468-4.971 1.111Z"/>
        <path fill="#CCEAFA" d="M4.027 13.299a2.698 2.698 0 0 1-.439-1.492c0-2.105 2.427-4.094 5.38-4.094 2.984 0 5.382 1.989 5.382 4.094 0 .527-.147 1.053-.44 1.492-.789-.644-2.719-1.082-4.941-1.082-2.223 0-4.124.438-4.942 1.082Z"/>
        <path fill="#D1ECFB" d="M4.027 13.328c-.264-.468-.439-.965-.439-1.492 0-2.105 2.427-4.065 5.38-4.065 2.984 0 5.382 1.96 5.382 4.065 0 .527-.146 1.024-.44 1.492-.818-.643-2.719-1.111-4.941-1.111-2.223 0-4.124.468-4.942 1.11Z"/>
        <path fill="#D6EEFB" d="M4.027 13.327a3.01 3.01 0 0 1-.41-1.491C3.617 9.76 6.015 7.8 8.97 7.8s5.381 1.96 5.381 4.035c0 .527-.176 1.023-.44 1.491-.818-.643-2.719-1.082-4.941-1.082-2.223 0-4.124.44-4.942 1.082Z"/>
        <path fill="#DBF0FC" d="M4.027 13.327a2.823 2.823 0 0 1-.41-1.461c0-2.077 2.398-4.007 5.352-4.007s5.351 1.93 5.351 4.007c0 .525-.146 1.023-.41 1.461-.818-.643-2.719-1.082-4.941-1.082-2.223 0-4.124.44-4.942 1.082Z"/>
        <path fill="#DFF1FC" d="M4.056 13.328a2.573 2.573 0 0 1-.439-1.432c0-2.076 2.398-3.977 5.352-3.977s5.351 1.9 5.351 3.977a2.8 2.8 0 0 1-.41 1.432c-.818-.614-2.719-1.052-4.941-1.052-2.223 0-4.124.438-4.913 1.052Z"/>
        <path fill="#E4F4FD" d="M4.056 13.328c-.263-.438-.439-.906-.439-1.433 0-2.047 2.398-3.948 5.352-3.948s5.351 1.901 5.351 3.948c0 .527-.146.995-.438 1.433-.79-.614-2.69-1.053-4.913-1.053-2.193 0-4.094.439-4.913 1.053Z"/>
        <path fill="#EAF6FD" d="M4.056 13.356a2.801 2.801 0 0 1-.41-1.432c0-2.048 2.369-3.92 5.323-3.92s5.351 1.872 5.351 3.92c0 .497-.175.993-.438 1.432-.819-.614-2.69-1.053-4.913-1.053-2.193 0-4.094.44-4.913 1.053Z"/>
        <path fill="#EFF8FE" d="M4.056 13.358a2.724 2.724 0 0 1-.41-1.433c0-1.99 2.399-3.89 5.323-3.89 2.954 0 5.322 1.9 5.322 3.89 0 .526-.146.994-.409 1.433-.819-.614-2.69-1.053-4.913-1.053-2.193 0-4.094.439-4.913 1.053Z"/>
        <path fill="#F3FAFE" d="M4.085 13.357a2.49 2.49 0 0 1-.438-1.404c0-1.988 2.398-3.86 5.322-3.86s5.322 1.872 5.322 3.86a2.7 2.7 0 0 1-.409 1.404c-.819-.614-2.72-1.024-4.913-1.024s-4.094.41-4.884 1.024Z"/>
        <path fill="#F7FCFE" d="M4.085 13.357c-.263-.409-.438-.877-.438-1.375 0-1.988 2.398-3.859 5.322-3.859s5.322 1.871 5.322 3.86c0 .497-.146.965-.439 1.374-.789-.585-2.69-1.023-4.883-1.023s-4.094.438-4.884 1.023Z"/>
        <path fill="#FCFDFF" d="M4.085 13.357a2.524 2.524 0 0 1-.41-1.375c0-1.958 2.37-3.801 5.294-3.801 2.924 0 5.293 1.843 5.293 3.801 0 .498-.146.966-.41 1.375-.789-.585-2.69-.994-4.883-.994s-4.065.41-4.884.994Z"/>
        <path fill="#fff" d="M4.085 13.386c-.263-.438-.41-.906-.41-1.374 0-1.96 2.37-3.773 5.294-3.773 2.924 0 5.293 1.813 5.293 3.773 0 .468-.146.936-.41 1.374-.818-.585-2.69-1.023-4.883-1.023s-4.065.438-4.884 1.023Z"/>
      </g>
      <path fill="#007BC7" d="M14.116 11.31a5.668 5.668 0 0 1-5.176 3.335c-2.31 0-4.27-1.375-5.177-3.334 1.492-.556 3.246-.877 5.177-.877 1.93 0 3.714.32 5.176.877Z"/>
    </g>
  </g>
  <defs>
    <clipPath id="a">
      <path fill="#fff" d="M0 0h18v18H0z"/>
    </clipPath>
    <clipPath id="b">
      <path fill="#fff" d="M3 3.059h12v11.883H3z"/>
    </clipPath>
  </defs>
</svg>
