<svg xmlns="http://www.w3.org/2000/svg" viewBox="0 0 18 18">
  <g clip-path="url(#a)">
    <path d="M0 0h18v18H0V0Z"/>
    <path fill="#fff" d="M13.946 6.662h.316c.414.031.848.163 1.136.478.223.23.323.549.345.863h-.954a.53.53 0 0 0-.275-.395c-.277-.143-.624-.109-.891.041-.241.131-.267.528-.038.683.203.145.455.193.693.253.33.088.677.142.975.321.268.151.484.4.573.696.103.347.077.74-.111 1.055a1.372 1.372 0 0 1-.64.537 2.438 2.438 0 0 1-.81.182h-.336c-.444-.036-.888-.211-1.199-.536a1.396 1.396 0 0 1-.386-.951c.308-.002.616 0 .923 0a.73.73 0 0 0 .25.455c.22.177.519.212.792.188.204-.022.42-.093.554-.258a.412.412 0 0 0-.006-.533c-.195-.213-.495-.26-.763-.323-.394-.09-.801-.186-1.136-.426a1.117 1.117 0 0 1-.452-.643c-.08-.333-.054-.708.144-.996.287-.424.796-.653 1.296-.69Zm-6.523.795a2.316 2.316 0 0 1 1.352-.76c.023.333.032.668.054 1.001-.335.1-.633.328-.794.64a1.51 1.51 0 0 0 .005 1.36c.18.355.532.605.92.682.015.332.037.664.046.996H9a3.089 3.089 0 0 1-.594-.136 2.248 2.248 0 0 1-1.22-1.014c-.27-.478-.352-1.049-.281-1.591a2.27 2.27 0 0 1 .517-1.178Zm2.29-.755a2.297 2.297 0 0 1 1.396.808c.3.367.466.833.496 1.304.043.597-.114 1.22-.493 1.692-.39.501-1.002.804-1.63.864.022-.332.03-.663.053-.995a1.34 1.34 0 0 0 .836-.556c.273-.411.31-.965.11-1.415a1.297 1.297 0 0 0-.815-.698c.014-.335.034-.67.048-1.004Zm-7.503.055c.398.003.796-.002 1.194.002.286.415.575.826.864 1.238.289-.413.575-.827.865-1.239h1.192L4.845 8.81c.591.825 1.187 1.646 1.779 2.47H5.44c-.39-.55-.782-1.097-1.173-1.646-.4.547-.796 1.097-1.194 1.645-.391.003-.783 0-1.174.002.595-.825 1.195-1.645 1.79-2.47-.494-.685-.988-1.369-1.48-2.054Z"/>
  </g>
  <defs>
    <clipPath id="a">
      <path fill="#fff" d="M0 0h18v18H0z"/>
    </clipPath>
  </defs>
</svg>
