<svg xmlns="http://www.w3.org/2000/svg" viewBox="0 0 18 18">
  <g clip-path="url(#a)">
    <path fill="#120F40" d="M0 0h18v18H0V0Z"/>
    <path fill="#fff" d="M5.243 9.3a.98.98 0 0 1-.178-.187l-.433.413a.997.997 0 1 0 .175.19l.436-.416Zm8.761-2.568a.997.997 0 0 0-.806 1.584l-.446.421a.986.986 0 0 1 .177.188l.445-.421a.997.997 0 1 0 .63-1.772Zm-2.51 3.553a.983.983 0 0 1-.177-.189l-.446.422a.991.991 0 0 0-.993-.155l-.3-.541a.997.997 0 0 0-.955-1.73l-.3-.542a.997.997 0 1 0-1.395-.215l-.433.414a.983.983 0 0 1 .176.189l.435-.414a.99.99 0 0 0 .992.152l.299.541a.997.997 0 0 0 .955 1.73l.3.542a.997.997 0 1 0 1.396.217l.446-.421Z"/>
    <path fill="#fff" d="M6.862 8.52a.997.997 0 1 1-1.995.002.997.997 0 0 1 1.995-.002Zm5.261-.006a.997.997 0 1 0 .002 1.994.997.997 0 0 0-.002-1.994Z"/>
  </g>
  <defs>
    <clipPath id="a">
      <path fill="#fff" d="M0 0h18v18H0z"/>
    </clipPath>
  </defs>
</svg>
