<svg xmlns="http://www.w3.org/2000/svg" viewBox="0 0 18 18">
  <g clip-path="url(#a)">
    <path fill="#0545F5" d="M0 0h18v18H0V0Z"/>
    <path fill="#FF8200" d="M13.403 7.014a.883.883 0 1 1 0-1.762.883.883 0 0 1 0 1.762Z"/>
    <path fill="#fff" d="M16 10.721h-.956l-.225-2.07h-.051l-.723 2.07h-1.283l-.721-2.07h-.052l-.225 2.07h-.955s.19-1.74.27-2.445c.071-.655.414-.989 1.018-.989h.434l.855 2.417h.037l.855-2.417h.429c.601 0 .944.334 1.02.99.077.677.273 2.444.273 2.444ZM5.04 7.287l1.635 3.434h-1.22l-.307-.735H3.447l-.308.735H2s.815-1.69 1.095-2.307c.327-.726.607-1.127 1.288-1.127h.656Zm-.762.714-.573 1.345h1.184L4.315 8h-.037Zm6.193 1.75c0 .605-.45.97-1.294.97H6.926v-2.47c0-.544.313-.964.997-.964h1.159c.801 0 1.185.323 1.185.873 0 .367-.233.606-.553.722v.024c.227.029.757.268.757.844ZM8.785 8.666c.262 0 .458-.11.458-.36 0-.222-.161-.361-.458-.361h-.829v.72h.83Zm.042 1.396c.312 0 .545-.123.545-.397 0-.294-.246-.405-.545-.405h-.87v.802h.87Z"/>
  </g>
  <defs>
    <clipPath id="a">
      <path fill="#fff" d="M0 0h18v18H0z"/>
    </clipPath>
  </defs>
</svg>
