<svg xmlns="http://www.w3.org/2000/svg" viewBox="0 0 18 18">
  <g clip-path="url(#a)">
    <path fill="#00A5DD" d="M0 0h18v18H0V0Z" />
    <path fill="#fff"
      d="M7.524 18c.693-1.69 1.292-3.406 1.292-5.858 0-.139 0-.244-.004-.35a1.952 1.952 0 0 1-.042-.079c-.68.554-2.014 1.597-3.035 1.597-1.23 0-1.75-.518-1.75-1.017 0-.43.426-.77.716-1l.083-.066c-.228-.135-.63-.297-.912-.297a.995.995 0 0 0-.335.06l-.01.004a.871.871 0 0 1-.272.052c-.212 0-.359-.199-.359-.482 0-.332.218-.642.534-.838.125-.088.26-.18.402-.276.558-.377 1.213-.82 1.692-1.357.484-.542.712-1.45.87-2.08.035-.136.066-.26.095-.363h.002c.129-.71.523-1.365.959-1.864C7.905 3.266 8.833 3 9.5 3c1.844-.145 5.11 1.842 3.5 15H7.524Z" />
    <path fill="url(#b)"
      d="M9.487 10.507c.447-.42.615-.642.615-1.052 0-.579-1.116-.877-1.202-2.282-.056-.93-.13-1.213-.262-1.213-.235 0-.49.576-1.117.576-.436 0-.303-.688-.505-.688-.212 0-.265 1.639-1.08 2.494-.928.972-1.88 1.423-2.305 1.672-.303.176-.35.295-.35.49 0 .064-.003.171.098.171.11 0 .198-.13.498-.13.724 0 1.466.83 2.332.83 1.034 0 2.776-1.473 2.987-1.669l.214.243c-.592.651-2.875 2.453-3.82 2.453-.383 0-.799-.112-.799-.283 0-.198.329-.472.53-.646a4.2 4.2 0 0 0-.258-.12c-.305.22-.71.447-.71.906 0 .48.696.644 1.209.652.47.007.909-.275 1.152-.397.86-.433 2.3-1.563 2.773-2.007Z" />
    <path fill="#0D4D84"
      d="M10.828 6.369c-.284 0-.381-.201-.381-.445 0-.348.13-.667.37-.667.204 0 .346.28.353.679.004.268-.14.433-.342.433Z" />
  </g>
  <defs>
    <linearGradient id="b" x1="5.225" x2="6.744" y1="8.225" y2="9.404" gradientUnits="userSpaceOnUse">
      <stop stop-color="#FBCD94" />
      <stop offset="1" stop-color="#F68B1B" />
    </linearGradient>
    <clipPath id="a">
      <path fill="#fff" d="M0 0h18v18H0z" />
    </clipPath>
  </defs>
</svg>