<svg xmlns="http://www.w3.org/2000/svg" viewBox="0 0 18 18">
  <g clip-path="url(#a)">
    <path fill="#17283D" d="M0 0h18v18H0V0Z"/>
    <path fill="#fff" d="m11.717 12.022.388.662.072.146.036.075H4.464a.415.415 0 0 1-.221-.056.472.472 0 0 1-.185-.165.621.621 0 0 1-.054-.239.54.54 0 0 1 .054-.238l2.187-3.804L8.707 4.12l.071-.146.057-.075.054.075.074.146.367.663c.05.073.075.153.075.238a.395.395 0 0 1-.075.221l-3.748 6.543h5.733c.085 0 .165.024.238.074a.49.49 0 0 1 .164.164Z"/>
    <path fill="#fff" d="M11.019 11.25H7.328a.536.536 0 0 1-.238-.053.466.466 0 0 1-.165-.185.392.392 0 0 1 0-.46l2.462-4.299a.503.503 0 0 1 .164-.164.418.418 0 0 1 .239-.074.34.34 0 0 1 .22.074c.074.036.129.09.165.164l3.69 6.433.094.146.038.074h-1.011a.516.516 0 0 1-.24-.056.494.494 0 0 1-.163-.164L9.79 7.796l-.296.498-1.044 1.838h1.91c.085 0 .165.018.238.053.074.05.129.112.164.185l.385.663.075.128.056.09h-.259Z"/>
  </g>
  <defs>
    <clipPath id="a">
      <path fill="#fff" d="M0 0h18v18H0z"/>
    </clipPath>
  </defs>
</svg>
