<svg xmlns="http://www.w3.org/2000/svg" viewBox="0 0 18 18">
  <g clip-path="url(#a)">
    <path fill="#2E3E50" d="M0 0h18v18H0V0Z"/>
    <path fill="#fff" d="M10.376 7.885c.776-.578 1.662-.859 2.576-1.067.412-.095.834-.159 1.25-.238.002.015.009.03.012.049-.055.024-.11.049-.165.07-.71.275-1.403.584-2.03 1.03-.931.666-1.606 1.53-2.062 2.578-.339.777-.507 1.59-.601 2.423-.01.07-.019.138-.031.208a.176.176 0 0 0-.04.006l-.183-.638-.11.177c-.012-.021-.021-.034-.018-.037.107-.217.116-.446.107-.684-.028-.565.055-1.121.158-1.675.031-.158-.024-.339-.058-.504-.168-.873-.317-1.75-.287-2.646.043-1.188.293-2.319.914-3.351a.264.264 0 0 1 .08-.086c-.264.443-.288.929-.267 1.418.01.226.07.452.135.669.17.583.357 1.164.528 1.748.05.17.058.354.089.547M8.49 13.278c-.014-.208-.027-.418-.045-.626-.107-1.164-.388-2.286-.892-3.346-.306-.638-.675-1.234-1.164-1.748a5.898 5.898 0 0 0-1.467-1.106 7.278 7.278 0 0 0-2.441-.834c-.14-.021-.284-.021-.428-.046.183-.119.394-.143.602-.155.816-.055 1.607.097 2.386.323.749.22 1.464.517 2.081 1.009.504.403.813.94 1.03 1.537.311.855.424 1.744.47 2.649.037.76-.006 1.518-.085 2.273 0 .024-.013.046-.019.07h-.027Zm3.243.11-.45.684h.96s.01.028.012.04c-.278.125-.501.354-.846.357-1.522 0-3.047.016-4.568.03-.193 0-.358-.03-.504-.158-.086-.073-.187-.131-.321-.226H7.1c-.12-.226-.22-.422-.34-.65 1.66-.025 3.294-.053 4.975-.077"/>
    <path fill="#fff" d="M9.823 13.179c.07-.523.104-1.06.486-1.476.098-.11.223-.201.354-.272.12-.064.248-.033.333.086.083.116.006.208-.073.287a1.44 1.44 0 0 1-.217.174 1.983 1.983 0 0 0-.84 1.122.39.39 0 0 1-.04.079M7.98 11.814c-.02-.12-.036-.241-.06-.357-.083-.364-.257-.648-.648-.743a.39.39 0 0 1-.138-.07c-.091-.067-.137-.248-.058-.318a.288.288 0 0 1 .245-.049.862.862 0 0 1 .54.486c.144.336.19.688.162 1.048-.012 0-.027 0-.04.003"/>
  </g>
  <defs>
    <clipPath id="a">
      <path fill="#fff" d="M0 0h18v18H0z"/>
    </clipPath>
  </defs>
</svg>
