<svg xmlns="http://www.w3.org/2000/svg" viewBox="0 0 18 18">
  <g clip-path="url(#a)">
    <path fill="#243746" d="M0 0h18v18H0V0Z"/>
    <path fill="#00BC70" d="M4.368 9.681c-.13.107-.252.212-.368.315V8.508c1.592-1.162 3.038-1.204 3.469-.599l.67.941c-.458-.643-2.062-.556-3.77.831ZM4 7.104c1.307-.72 2.414-.676 2.782-.16l-.67-.94C5.807 5.579 5.003 5.474 4 5.85v1.253Zm1.056 3.542c-.435.353-.782.69-1.056 1.01v1.974c.265-.61.795-1.288 1.726-2.043 1.709-1.387 3.313-1.475 3.77-.832l-.67-.94c-.458-.643-2.062-.556-3.77.831Zm7.146-5.315h-.91a7.53 7.53 0 0 1-.882.73c-1.439 1.022-2.935 1.381-3.345.804l.727 1.023c.41.577 1.907.217 3.346-.804a7.26 7.26 0 0 0 1.06-.909l.004-.02V5.33ZM13.6 7.298h-.91a7.52 7.52 0 0 1-.882.73C10.37 9.05 8.874 9.41 8.464 8.832l.727 1.023c.41.577 1.907.217 3.346-.804.407-.289.765-.6 1.06-.909l.004-.02v-.824ZM15 9.264h-.91a7.52 7.52 0 0 1-.882.73c-1.438 1.022-2.935 1.382-3.345.805l.727 1.023c.41.576 1.907.217 3.346-.804.407-.289.765-.6 1.06-.91l.004-.02v-.824Z"/>
  </g>
  <defs>
    <clipPath id="a">
      <path fill="#fff" d="M0 0h18v18H0z"/>
    </clipPath>
  </defs>
</svg>
