<svg xmlns="http://www.w3.org/2000/svg" viewBox="0 0 18 18">
  <g clip-path="url(#a)">
    <path fill="#012B5C" d="M0 0h18v18H0V0Z"/>
    <path fill="#3A7BF8" d="M13.338 5.532a3.311 3.311 0 0 0-2.042-1.03 3.23 3.23 0 0 0-2.294.626 3.251 3.251 0 0 0-1.747-.64A3.276 3.276 0 0 0 4.667 5.53a3.662 3.662 0 0 0-.822 3.542.607.607 0 0 0 1.121.119.607.607 0 0 0 .05-.465c-.248-.839-.041-1.743.54-2.36a2.063 2.063 0 0 1 1.626-.662 2.075 2.075 0 0 1 1.379.656.613.613 0 0 0 .884 0 2.05 2.05 0 0 1 1.719-.647c.49.053.934.28 1.286.654.855.907.858 2.386.008 3.297l-3.444 3.37-.768-.756a.611.611 0 0 0-.856.87l1.195 1.175a.607.607 0 0 0 .855.002l3.882-3.799.017-.016c1.292-1.373 1.292-3.607 0-4.98Z"/>
    <path fill="#3A7BF8" d="M10.699 8.118a.667.667 0 0 0-.663-.677.67.67 0 0 0-.475.192l-2.93 2.87-.78-.759a.67.67 0 0 0-.934.96l1.247 1.216a.666.666 0 0 0 .937-.002l3.397-3.329a.664.664 0 0 0 .201-.471Z"/>
  </g>
  <defs>
    <clipPath id="a">
      <path fill="#fff" d="M0 0h18v18H0z"/>
    </clipPath>
  </defs>
</svg>
