<svg xmlns="http://www.w3.org/2000/svg" viewBox="0 0 18 18">
  <g clip-path="url(#a)">
    <path fill="#007B96" d="M0 0h18v18H0V0Z"/>
    <path fill="#231F20" d="M6.544 10.626a73.009 73.009 0 0 0-1.531-.013c-.065-.14.006-.291.024-.473-.53.393-1.087.58-1.843.548-1.112-.048-1.637-.405-1.38-.932.318-.65 1.538-.977 3.699-1.023l.011-.023c.338-.691.072-1.023-.614-1.023-.712 0-1.326.34-1.925 1.019H2.86l.017-.923a9.488 9.488 0 0 1 2.366-.304c.846.001 1.401.142 1.625.394.252.27.188.603-.043 1.078l-.132.27c-.406.83-.588 1.204-.1 1.28l-.049.125Zm-1.32-1.698c-.97.057-1.602.279-1.865.817-.209.428.016.675.38.686.703.02 1.164-.45 1.599-1.34l.089-.157a1.457 1.457 0 0 0-.202-.006Zm1.386 1.613c.596-.117.697-.425 1.022-1.104l.09-.187.389-.814c.16-.254.212-.573-.23-.597l.032-.084c.679-.052 1.4-.092 1.896-.18l-.267.63c.546-.503 1.152-.699 1.901-.698 1.212 0 1.546.422 1.055 1.384l-.157.328c-.03.065-.062.129-.09.188-.327.685-.591 1.04 0 1.129v.1a32.395 32.395 0 0 0-2.488-.002l.03-.065c.577-.11.763-.427 1.054-1.036l.134-.281.132-.275c.375-.785.29-1.154-.364-1.155-.636 0-1.064.43-1.411 1.155l-.132.276-.064.134c-.35.732-.498 1.053 0 1.159l-.03.089a39.308 39.308 0 0 0-1.43-.026c-.34 0-.65.004-1.103.021l.03-.089Z"/>
    <path fill="#231F20" d="m15.075 8.639-.294.615c-.033.07-.06.136-.092.193-.518.93-.416 1 .068 1.1l-.059.088a33.367 33.367 0 0 0-2.447.001l.031-.1c.588-.117.713-.396 1.019-1.035l.114-.24.39-.814c.199-.416.155-.55-.22-.608l.027-.095c.7-.058 1.457-.095 2.002-.177a20.13 20.13 0 0 0-.539 1.072Z"/>
    <path fill="#fff" d="M6.68 10.626a73.017 73.017 0 0 0-1.531-.013c-.065-.14.006-.291.024-.473-.53.393-1.087.58-1.843.548-1.112-.048-1.637-.405-1.38-.932.318-.65 1.538-.977 3.699-1.023l.011-.023c.338-.691.072-1.023-.614-1.023-.712 0-1.326.34-1.925 1.019h-.125l.017-.923a9.488 9.488 0 0 1 2.366-.304c.846.001 1.401.142 1.625.394.252.27.188.603-.043 1.078l-.132.27c-.406.83-.589 1.204-.1 1.28l-.049.125ZM5.36 8.928c-.97.057-1.602.279-1.865.817-.209.428.016.675.38.686.703.02 1.164-.45 1.599-1.34l.089-.157a1.459 1.459 0 0 0-.202-.006Zm1.385 1.613c.597-.117.698-.425 1.023-1.104l.09-.187.389-.814c.16-.254.212-.573-.23-.597l.032-.084c.679-.052 1.4-.092 1.896-.18l-.267.63c.546-.503 1.152-.699 1.901-.698 1.212 0 1.546.422 1.055 1.384l-.157.328c-.03.065-.062.129-.09.188-.327.685-.591 1.04 0 1.129v.1a32.395 32.395 0 0 0-2.488-.002l.03-.065c.577-.11.763-.427 1.054-1.036l.134-.281.132-.275c.375-.785.29-1.154-.364-1.155-.636 0-1.064.43-1.411 1.155l-.132.276-.065.134c-.35.732-.497 1.053.001 1.159l-.03.089a39.311 39.311 0 0 0-1.43-.026c-.34 0-.65.004-1.103.021l.03-.089Z"/>
    <path fill="#fff" d="m15.211 8.639-.294.615c-.033.07-.06.136-.092.193-.518.93-.416 1 .068 1.1l-.059.088a33.368 33.368 0 0 0-2.447.001l.031-.1c.588-.117.714-.396 1.019-1.035l.115-.24.389-.814c.198-.416.155-.55-.22-.608l.027-.095c.7-.058 1.457-.095 2.002-.177-.191.346-.362.703-.539 1.072Z"/>
    <path fill="#231F20" d="M15.024 6.338c.437 0 .667.249.52.585-.147.336-.593.584-1.03.584-.457 0-.67-.242-.52-.585.147-.336.593-.584 1.03-.584Z"/>
    <path fill="url(#b)" d="M15.186 6c.437 0 .666.249.52.585-.147.336-.593.584-1.03.584-.457 0-.67-.242-.52-.585.147-.336.593-.584 1.03-.584Z"/>
  </g>
  <defs>
    <linearGradient id="b" x1="14.148" x2="15.707" y1="6.95" y2="6.223" gradientUnits="userSpaceOnUse">
      <stop offset=".455" stop-color="#ED1C24"/>
      <stop offset=".499" stop-color="#F1441D"/>
      <stop offset=".553" stop-color="#F56D15"/>
      <stop offset=".61" stop-color="#F88F0E"/>
      <stop offset=".669" stop-color="#FAAC09"/>
      <stop offset=".733" stop-color="#FCC205"/>
      <stop offset=".803" stop-color="#FED102"/>
      <stop offset=".884" stop-color="#FFDA01"/>
      <stop offset="1" stop-color="#FD0"/>
    </linearGradient>
    <clipPath id="a">
      <path fill="#fff" d="M0 0h18v18H0z"/>
    </clipPath>
  </defs>
</svg>
