<svg xmlns="http://www.w3.org/2000/svg" viewBox="0 0 18 18">
  <g clip-path="url(#a)">
    <path fill="#07428D" d="M0 0h18v18H0V0Z"/>
    <path fill="#fff" d="M13.259 8.313c0-.314-.01-.61-.01-.87 0-1.654-.794-2.481-1.46-2.884A4.45 4.45 0 0 0 9.564 4c-1.651 0-2.867.465-3.618 1.38a3.484 3.484 0 0 0-.752 1.891.286.286 0 0 0 0 .054.882.882 0 0 0 .89.8.822.822 0 0 0 .896-.693c.192-.889.616-1.712 2.43-1.712.96 0 1.588.198 1.916.605a1.175 1.175 0 0 1 .307.913c0 .302-.114.67-1.006.867-.579.126-1.188.196-1.776.263l-.282.034c-3.338.394-3.841 2.155-3.841 3.168 0 1.839 2.21 2.879 3.807 2.929h.296a4.617 4.617 0 0 0 1.767-.31l.05-.02a4.104 4.104 0 0 0 2.398-2.443c.26-.7.236-2.142.213-3.413Zm-1.698 1.87c0 2.107-2.023 2.568-2.803 2.568-1.063 0-2.209-.565-2.209-1.481 0-.986.888-1.297 2.753-1.582a56.078 56.078 0 0 0 1.798-.313c.158-.033.313-.083.461-.148v.956Z"/>
  </g>
  <defs>
    <clipPath id="a">
      <path fill="#fff" d="M0 0h18v18H0z"/>
    </clipPath>
  </defs>
</svg>
