<svg xmlns="http://www.w3.org/2000/svg" viewBox="0 0 18 18">
  <g clip-path="url(#a)">
    <path fill="#2621F6" d="M0 0h18v18H0V0Z"/>
    <path fill="#fff" d="M12.072 6.799c-.045-1.814-.735-2.549-2.504-2.549H6.944v1.694h1.904c.75 0 1.17 0 1.17.69v.99c-.345 0-1.2-.016-1.844-.016-1.77 0-2.429.72-2.474 2.549v1.56c.045 1.708.63 2.443 2.189 2.533l1.604-1.694c-.165.015-.36.015-.6.015-.75 0-1.169 0-1.169-.69V9.977c0-.69.42-.69 1.17-.69.794 0 1.169 0 1.169.69v4.258h2.009V6.799Z"/>
  </g>
  <defs>
    <clipPath id="a">
      <path fill="#fff" d="M0 0h18v18H0z"/>
    </clipPath>
  </defs>
</svg>
