<svg xmlns="http://www.w3.org/2000/svg" viewBox="0 0 18 18">
  <g clip-path="url(#a)">
    <path fill="#002A41" d="M0 0h18v18H0V0Z"/>
    <path fill="#fff" d="M13.055 3.285c-1.211-.863-4.01.987-6.25 4.132-2.242 3.145-3.076 6.394-1.865 7.257 1.211.863 4.01-.987 6.25-4.132 2.241-3.145 3.076-6.394 1.865-7.257Zm-2.378 6.86c-2.046 2.87-4.53 4.61-5.548 3.884-1.018-.726-.185-3.64 1.86-6.511 2.046-2.87 4.53-4.61 5.548-3.884 1.018.726.185 3.64-1.86 6.511Z"/>
    <path fill="#fff" d="M9 4.027a5 5 0 1 0 0 10 5 5 0 0 0 0-10Zm.247 9.737a4.49 4.49 0 1 1 0-8.98 4.49 4.49 0 0 1 0 8.98Z"/>
  </g>
  <defs>
    <clipPath id="a">
      <path fill="#fff" d="M0 0h18v18H0z"/>
    </clipPath>
  </defs>
</svg>
