<svg xmlns="http://www.w3.org/2000/svg" viewBox="0 0 18 18">
  <g clip-path="url(#a)">
    <path fill="#FFE539" d="M0 0h18v18H0V0Z"/>
    <path fill-rule="evenodd" d="M6.982 9.69a1.483 1.483 0 1 0 0-2.966 1.483 1.483 0 0 0 0 2.965Zm2.651-2.35c.646 0 1.17-.549 1.17-1.226 0-.676-.524-1.224-1.17-1.224-.645 0-1.168.55-1.168 1.224 0 .674.523 1.225 1.169 1.225M9 9.45c1.565.011 3.03.268 4.3.71A2.185 2.185 0 1 0 9 9.45Zm7 2.305C14.378 10.59 11.946 9.85 9.227 9.85c-2.985 0-5.623.892-7.227 2.26 2.055-.694 4.553-1.113 7.254-1.145a2.182 2.182 0 0 0 3.715.205c1.022.127 2.035.322 3.031.584Z" clip-rule="evenodd"/>
  </g>
  <defs>
    <clipPath id="a">
      <path fill="#fff" d="M0 0h18v18H0z"/>
    </clipPath>
  </defs>
</svg>
