<svg xmlns="http://www.w3.org/2000/svg" viewBox="0 0 18 18">
  <g clip-path="url(#a)">
    <path fill="#fff" d="M0 0h18v18H0V0Z"/>
    <path fill="#7D5697" fill-rule="evenodd" d="M0 .013c2.954 0 7.7-.002 10.654.001a27.154 27.154 0 0 0-3.222 1.898c-1.284.89-2.498 1.903-3.49 3.115-.76.93-1.385 1.993-1.683 3.163a5.948 5.948 0 0 0-.158 2.036c.118 1.2.617 2.33 1.295 3.314.167-.103.326-.219.489-.33-.558-.807-.985-1.717-1.147-2.689-.172-.993-.034-2.03.346-2.96.493-1.215 1.323-2.262 2.253-3.172 1.02-.996 2.176-1.844 3.382-2.602A28.416 28.416 0 0 1 11.861.093c.083-.037.165-.086.259-.081.5.002 1-.002 1.5.002a35.782 35.782 0 0 0-3.108 1.741 26.476 26.476 0 0 0-2.663 1.9c-.904.743-1.754 1.559-2.464 2.49-.544.715-1.004 1.502-1.274 2.36a5.012 5.012 0 0 0-.177 2.372c.16.944.611 1.817 1.197 2.566.618.789 1.372 1.465 2.18 2.054.115-.158.23-.315.348-.472a12.196 12.196 0 0 1-1.363-1.157c-.569-.567-1.073-1.21-1.414-1.941a4.461 4.461 0 0 1-.425-1.702c-.038-.93.252-1.849.7-2.657.479-.868 1.124-1.634 1.825-2.331.878-.864 1.852-1.626 2.867-2.323A35.47 35.47 0 0 1 14.874.069c.06-.03.125-.06.194-.057L18 .013v17.981h-7.381c-.063.01-.1-.048-.14-.086a7.439 7.439 0 0 1-.83-1.17c-.508-.861-.931-1.77-1.327-2.688a48.184 48.184 0 0 1-1.26-3.275l-.56.186a44.718 44.718 0 0 0 1.617 4.09c.477 1.021.983 2.04 1.666 2.942H0V.013Zm7.95 6.022c.034.193.072.385.101.58.803-.114 1.626-.12 2.422.046.473.1.939.266 1.338.544.079.06.16.116.241.174.121-.15.255-.291.38-.44-.536-.459-1.205-.732-1.89-.869a7.581 7.581 0 0 0-2.593-.035Zm-.216 1.893c.199.387.488.73.846.979.424.295.956.432 1.468.364.68-.08 1.291-.43 1.828-.84-.121-.155-.24-.313-.363-.467-.362.28-.762.527-1.205.656-.36.106-.76.111-1.109-.042-.408-.174-.72-.516-.933-.899l-.532.25Zm3.806 3.463c-.123.383-.189.804-.065 1.195.091.301.321.554.61.68.398.178.848.154 1.273.11-.02-.194-.051-.388-.077-.581-.31.033-.636.059-.932-.057a.51.51 0 0 1-.313-.333c-.094-.297-.004-.605.079-.892.207-.878.426-1.753.627-2.631-.19-.048-.38-.092-.569-.137-.213.881-.42 1.765-.633 2.646Zm1.556 3.223c-.3.075-.61.055-.915.058-.187-.002-.378.01-.563-.031a1.617 1.617 0 0 1-.507-.195c-.104.168-.204.335-.308.5.35.213.76.327 1.17.313.395-.011.794.032 1.182-.056.242-.049.475-.134.696-.245-.096-.17-.17-.353-.276-.515-.158.064-.313.135-.48.17Zm-1.393 1.583v.589h1.373v-.588l-1.373-.001Z" clip-rule="evenodd"/>
  </g>
  <defs>
    <clipPath id="a">
      <path fill="#fff" d="M0 0h18v18H0z"/>
    </clipPath>
  </defs>
</svg>
