<svg xmlns="http://www.w3.org/2000/svg" viewBox="0 0 18 18">
  <g clip-path="url(#a)">
    <path fill="#202124" d="M0 0h18v18H0V0Z"/>
    <g clip-path="url(#b)">
      <path fill="#F37F00" d="M6.379 6h1.134c-.458.8-.913 1.603-1.37 2.404l-2.01 3.527h-1.13L4.81 8.756C5.334 7.838 5.854 6.918 6.38 6Zm1.705 0h.7L6.683 9.691c-.025.044-.053.088-.073.135L5.405 11.93h-.699l2.426-4.26c.318-.556.633-1.115.952-1.671ZM9.52 6h.414c-.43.75-.854 1.503-1.283 2.254l-2.092 3.678h-.411c.784-1.383 1.57-2.762 2.355-4.144.34-.596.678-1.193 1.018-1.788Zm1.221 0h.198c-.443.776-.883 1.554-1.325 2.33l-2.049 3.601h-.2l1.707-2.998L10.741 6Z"/>
      <path fill="#D52B1E" fill-rule="evenodd" d="M13.103 6h.17c.106.005.214.009.32.023.113.018.226.033.336.059.158.038.313.089.46.16.136.067.265.154.37.265.08.083.142.181.184.288a.896.896 0 0 1 .028.53 1.455 1.455 0 0 1-.182.426c-.79 1.394-1.58 2.788-2.373 4.181h-1.698l.736-1.301h-.834l-.736 1.3H8.167l2.628-4.647c.14-.28.342-.529.588-.72a2.38 2.38 0 0 1 .589-.34c.36-.144.746-.21 1.131-.224Zm-.684 1.642a.596.596 0 0 0-.234.216c-.258.454-.512.91-.77 1.364h.835l.69-1.22a.548.548 0 0 0 .077-.213.158.158 0 0 0-.06-.141.384.384 0 0 0-.186-.064.645.645 0 0 0-.352.058Z" clip-rule="evenodd"/>
    </g>
  </g>
  <defs>
    <clipPath id="a">
      <path fill="#fff" d="M0 0h18v18H0z"/>
    </clipPath>
    <clipPath id="b">
      <path fill="#fff" d="M3 6h12v5.936H3z"/>
    </clipPath>
  </defs>
</svg>
