<svg xmlns="http://www.w3.org/2000/svg" viewBox="0 0 18 18">
  <g clip-path="url(#a)">
    <path d="M0 0h18v18H0V0Z"/>
    <path fill="#fff" d="m4.75 4.33.76.757c.759.758 1.519.883 2.531.883h2.089c1.012 0 1.544.063 2.367.631h.101l-1.392-1.388c-.759-.757-1.519-.884-2.531-.884H4.75Zm2.152 2.398.76.757c.76.758 1.52.883 2.532.883h2.088c1.013 0 1.544.064 2.367.632-.823.568-1.354.63-2.367.63h-2.088c-1.013 0-1.772.127-2.532.884l-.76.757h3.924c1.013 0 1.772-.127 2.532-.884L14.75 9l-1.392-1.39c-.76-.757-1.52-.883-2.532-.883H6.902ZM4.75 13.67l.76-.758c.759-.757 1.519-.883 2.531-.883h2.089c1.012 0 1.544-.063 2.367-.631h.101l-1.392 1.389c-.759.757-1.519.883-2.531.883H4.75Z"/>
  </g>
  <defs>
    <clipPath id="a">
      <path fill="#fff" d="M0 0h18v18H0z"/>
    </clipPath>
  </defs>
</svg>
