<svg xmlns="http://www.w3.org/2000/svg" viewBox="0 0 18 18">
  <g clip-path="url(#a)">
    <path fill="#13284C" d="M0 0h18v18H0V0Z"/>
    <path fill="#59BEC9" d="M9 3.5A5.5 5.5 0 1 0 14.5 9 5.493 5.493 0 0 0 9 3.5Zm1.059 9.504-.072.041a1 1 0 0 1-1.352-.406L5.643 7.083A1 1 0 0 1 6.05 5.73l.071-.041a.996.996 0 0 1 1.352.406l2.992 5.556c.257.489.077 1.09-.406 1.352Zm1.208-1.542L8.943 7.15a2.45 2.45 0 0 1 3.321.997 2.446 2.446 0 0 1-.997 3.315Z"/>
  </g>
  <defs>
    <clipPath id="a">
      <path fill="#fff" d="M0 0h18v18H0z"/>
    </clipPath>
  </defs>
</svg>
