<svg xmlns="http://www.w3.org/2000/svg" viewBox="0 0 18 18">
  <g clip-path="url(#a)">
    <path d="M0 0h18v18H0V0Z"/>
    <g clip-path="url(#b)">
      <path fill="#fff" fill-rule="evenodd" d="M7.435 3.5h.003l3.598 2.46c.299.204.492.553.503.915a1.17 1.17 0 0 1-.576 1.06c-.227.127-.456.248-.684.373l1.843 1.228a1.176 1.176 0 0 1 .158 1.827c-.13.127-.296.205-.454.29-2.058 1.114-4.117 2.225-6.174 3.34v-5.42c.833-.456 1.668-.907 2.502-1.36l-.72-.478V3.5Zm1.1 2.08v1.567c.236.159.473.316.71.473.383-.208.767-.415 1.149-.625.057-.02.066-.106.012-.134-.623-.428-1.248-.853-1.872-1.28ZM6.75 10.225v2.924c1.582-.857 3.166-1.711 4.749-2.568.055-.022.061-.11.007-.135-.773-.516-1.547-1.03-2.32-1.545-.811.443-1.624.882-2.436 1.324Z" clip-rule="evenodd"/>
    </g>
  </g>
  <defs>
    <clipPath id="a">
      <path fill="#fff" d="M0 0h18v18H0z"/>
    </clipPath>
    <clipPath id="b">
      <path fill="#fff" d="M5.652 3.5h6.992V15H5.652z"/>
    </clipPath>
  </defs>
</svg>
