<svg xmlns="http://www.w3.org/2000/svg" viewBox="0 0 18 18">
  <g clip-path="url(#a)">
    <path fill="#0038FF" d="M0 0h18v18H0V0Z"/>
    <path fill="#fff" d="m10.244 7.898.37-.278c.79-.577.756-1.278.62-1.697-.154-.474-.59-.982-1.35-.982H6V3.6h3.883a2.72 2.72 0 0 1 2.626 1.91 2.724 2.724 0 0 1-1.004 3.09l-.148.107-1.113-.809Zm.57 1.203.687.499a2.724 2.724 0 0 1 1.005 3.09A2.72 2.72 0 0 1 9.88 14.6H6v-1.342h3.88c.76 0 1.197-.507 1.35-.983.155-.475.1-1.142-.516-1.59l-1.04-.755-1.14-.829-1.194-.867V9.97l.645-.468 1.14.828-2.061 1.499A.67.67 0 0 1 6 11.286V6.918a.67.67 0 0 1 1.064-.542l2.61 1.896 1.14.829Z"/>
  </g>
  <defs>
    <clipPath id="a">
      <path fill="#fff" d="M0 0h18v18H0z"/>
    </clipPath>
  </defs>
</svg>
