<svg xmlns="http://www.w3.org/2000/svg" viewBox="0 0 18 18">
  <g clip-path="url(#a)">
    <path fill="#fff" d="M0 0h18v18H0V0Z"/>
    <path fill="#007FB2" d="M14.995 10.424a7.067 7.067 0 0 0-1.188-1.855c-.861-1.01-3.368-3.069-3.368-3.069s1.104 2.757 1.37 4.032c.043.235.063.473.056.711 2.123.275 3.007.195 3.13.181Z"/>
    <path fill="#ABDEF8" d="M11.39 10.179C7.018 9.554 2 7.359 2 7.359s2.643 2.821 5.932 4.244c2.603 1.126 3.458.96 3.458.96l.024-.014c0-.015.446-1.184.456-2.306l-.48-.064Z"/>
    <path fill="#72CDF4" d="M14.997 10.431v-.007c-.123.014-1.006.094-3.124-.18-.008 1.12-.454 2.29-.46 2.305L15 10.44a.031.031 0 0 0-.003-.01Z"/>
  </g>
  <defs>
    <clipPath id="a">
      <path fill="#fff" d="M0 0h18v18H0z"/>
    </clipPath>
  </defs>
</svg>
