<svg xmlns="http://www.w3.org/2000/svg" viewBox="0 0 18 18">
  <g clip-path="url(#a)">
    <path d="M0 0h18v18H0V0Z"/>
    <path fill="#fff" d="M9.01 3a6 6 0 1 0-.02 12 6 6 0 0 0 .02-12Zm5.585 6a5.584 5.584 0 1 1-1.634-3.948A5.6 5.6 0 0 1 14.604 9h-.01Z"/>
    <path fill="#fff" d="M11.902 6.474c.082.109.17.213.264.311l1.214-.765a3.004 3.004 0 0 1-.242-.286l-.758.498.335-.67-.243-.243-.67.332.503-.765c-.097-.07-.168-.143-.287-.242l-.765 1.214c.095.072.214.191.311.262l.721-.374.049-.024-.024.048-.408.704ZM9.153 4.911l.335-.74.024-.073v.073l.025 1.003c.12.004.24.02.357.048l-.047-1.457c-.167-.024-.335-.024-.502-.048l-.335.816-.323-.816c-.168.004-.335.02-.5.048l-.049 1.457c.119-.024.243-.024.36-.048l.021-1.003v-.073l.025.073.335.74h.274ZM6.477 6.084c.19-.192.311-.432.12-.67a.405.405 0 0 0-.43-.095h-.025v-.024a.357.357 0 0 0-.126-.36.274.274 0 0 0-.265-.073c-.192.025-.31.146-.692.552-.121.119-.286.335-.384.454l1.03.97a9.21 9.21 0 0 0 .772-.754Zm-1.34-.243c.165-.203.341-.396.527-.58a.507.507 0 0 1 .119-.073.104.104 0 0 1 .143.097.197.197 0 0 1-.07.19c-.122.12-.527.55-.527.55l-.192-.184Zm.408.39s.381-.407.524-.55c.049-.046.097-.095.12-.095a.15.15 0 0 1 .142 0 .085.085 0 0 1 .049.119c-.024.049-.07.119-.095.168l-.527.548-.213-.19Z"/>
    <path fill="#0066B1" d="M9.01 5.438V9H5.448A3.57 3.57 0 0 1 9.01 5.437ZM12.572 9a3.556 3.556 0 0 1-3.562 3.562V9h3.562Z"/>
    <path fill="#fff" d="M12.572 9H9.01V5.437A3.57 3.57 0 0 1 12.572 9ZM9.01 12.562A3.556 3.556 0 0 1 5.447 9H9.01v3.562Z"/>
  </g>
  <defs>
    <clipPath id="a">
      <path fill="#fff" d="M0 0h18v18H0z"/>
    </clipPath>
  </defs>
</svg>
