<svg xmlns="http://www.w3.org/2000/svg" viewBox="0 0 18 18">
  <g clip-path="url(#a)">
    <path fill="#006098" d="M0 0h18v18H0V0Z"/>
    <path fill="#fff" d="M10.985 8.61a11.11 11.11 0 0 1 .944.853c.149.151.294.306.435.465a10.918 10.918 0 0 1-.38.966 10.578 10.578 0 0 1-.466.928 6.889 6.889 0 0 0-.335-.914 7.286 7.286 0 0 0-.458-.859l.663 4.73-1.101.221h-2.64l-1.1-.222.664-4.73c-.254.251-.519.49-.793.714A11.8 11.8 0 0 1 4.5 9.927a7.296 7.296 0 0 0 1.58-.673 7.187 7.187 0 0 0 1.376-1.031L7.1 8.15l.982-1.022A11.874 11.874 0 0 1 6.66 6.113a11.538 11.538 0 0 1-1.25-1.22A11.092 11.092 0 0 1 6.254 3a7.108 7.108 0 0 0 .933 1.946 7.056 7.056 0 0 0 1.48 1.573l.3-.313.3.313a11.426 11.426 0 0 1 2.134-2.46 11.574 11.574 0 0 1 1.918.834 7.064 7.064 0 0 0-1.898.862 7.13 7.13 0 0 0-1.569 1.373l.012.012.97 1.009-.355.074c.172.124.34.253.505.386Z"/>
  </g>
  <defs>
    <clipPath id="a">
      <path fill="#fff" d="M0 0h18v18H0z"/>
    </clipPath>
  </defs>
</svg>
