<svg xmlns="http://www.w3.org/2000/svg" viewBox="0 0 18 18">
  <g clip-path="url(#a)">
    <path d="M0 0h18v18H0V0Z"/>
    <path fill="#fff" d="M6.155 7.113a.693.693 0 0 0-.084-.107 98.53 98.53 0 0 1-.775-.833 8.114 8.114 0 0 1-.382-.42.887.887 0 0 1-.186-.363c-.14-.607-.24-1.221-.301-1.84a.046.046 0 0 1 .078-.037L6.912 5.72l.036.033c.048.05.087.09.13.138.11.126.202.268.273.42.102.21.187.429.257.652L8.16 8.72l.025.088.095.342.024.088.211.744.025.088.2.697.026.088.157.546.026.088.081.277c.007.024.016.054.018.068.003.015.01.024.016.024s.019-.019.028-.042L11.453 5.7a.07.07 0 0 1 .062-.043h2.253a.028.028 0 0 1 .027.012.028.028 0 0 1 .002.03l-3.54 8.752a.072.072 0 0 1-.062.042h-2.24a.068.068 0 0 1-.06-.043L6.278 9.605a3.678 3.678 0 0 0-.233-.536 2.634 2.634 0 0 0-.276-.42 60.12 60.12 0 0 1-.622-.793 1.05 1.05 0 0 1-.215-.508l-.16-1.208a.046.046 0 0 1 .077-.028l.375.388.062.068 1.221 1.321c.018.019.024.015.015-.008-.002 0-.202-.513-.366-.768Z"/>
  </g>
  <defs>
    <clipPath id="a">
      <path fill="#fff" d="M0 0h18v18H0z"/>
    </clipPath>
  </defs>
</svg>
