<svg xmlns="http://www.w3.org/2000/svg" viewBox="0 0 18 18">
  <g clip-path="url(#a)">
    <path fill="#E80310" d="M0 0h18v18H0V0Z"/>
    <path fill="#fff" d="M6.089 7.9a.98.98 0 0 0-.83-.391H2.1v.521h3.144a.429.429 0 0 1 .298.088.25.25 0 0 1 .07.277c-.055.154-.214.193-.368.195H2.1v.512h3.144c.187 0 .384.069.384.28 0 .21-.197.276-.384.278H2.1v.519h3.159a.983.983 0 0 0 .83-.393.74.74 0 0 0-.112-.95.74.74 0 0 0 .112-.937Zm9.481-.085a1.786 1.786 0 0 0-1.053-.3c-.307 0-.77 0-1.18-.013h-1.353v.528c1.015 0 1.716 0 2.51.012.242-.01.481.052.688.178a.761.761 0 0 1 0 1.26 1.23 1.23 0 0 1-.7.184c-.782.021-1.5.015-2.506.015v.519c1.02 0 1.754 0 2.532-.015a1.8 1.8 0 0 0 1.053-.296 1.267 1.267 0 0 0 0-2.074l.009.002Zm-7.774.858c-.272 0-.358-.092-.36-.362-.002-.27 0-.547 0-.802h-.6v1.027c.019.489.18.643.677.658H8.61v-.52h-.815Zm2.968-.363c0 .264-.088.35-.36.354H8.877v1.53h.703V9.192h1.068c.53-.015.69-.165.71-.658V7.5h-.594c0 .262.002.553 0 .81Z"/>
  </g>
  <defs>
    <clipPath id="a">
      <path fill="#fff" d="M0 0h18v18H0z"/>
    </clipPath>
  </defs>
</svg>
