<svg xmlns="http://www.w3.org/2000/svg" viewBox="0 0 18 18">
  <g clip-path="url(#a)">
    <path fill="#1D2953" d="M0 0h18v18H0V0Z"/>
    <path fill="#2AD870" d="m12.545 7.802-.792-.792.346-.357.446-.446.802.803-.802.792Zm0-2.308-.792-.792.455-.456.337-.347.802.803-.802.792Zm1.159 1.16-.802-.803.445-.436.357-.357.792.793-.792.802Z"/>
    <path fill="#fff" d="M9.029 12.596c-1.783 0-2.942-1.437-2.942-3.536 0-2.1 1.218-3.537 2.981-3.537 1.298 0 1.872.654 2.318 1.13l.793-.803c-.417-.436-1.258-1.496-3.15-1.496C6.7 4.354 4.7 6.108 4.7 9.07c0 2.972 1.793 4.735 4.27 4.735 1.842 0 2.842-.97 3.228-1.476l-.822-.822a3.07 3.07 0 0 1-2.347 1.09Z"/>
  </g>
  <defs>
    <clipPath id="a">
      <path fill="#fff" d="M0 0h18v18H0z"/>
    </clipPath>
  </defs>
</svg>
