<svg xmlns="http://www.w3.org/2000/svg" viewBox="0 0 18 18">
  <g clip-path="url(#a)">
    <path d="M0 0h18v18H0V0Z"/>
    <g clip-path="url(#b)">
      <path fill="#A37B21" fill-rule="evenodd" d="M8.449 3.346h.029a.202.202 0 0 1 .039.15.898.898 0 0 1 .164 0c.024.027.053.032.087.014a.155.155 0 0 1 .135.097.043.043 0 0 1-.019.014.449.449 0 0 1 .101.199.606.606 0 0 0 .063-.073.37.37 0 0 1 .145-.01.05.05 0 0 1 .03.034.144.144 0 0 0-.01.087c.064.003.128.005.193.005.014.007.02.018.02.034a.506.506 0 0 1 .135-.005l.193.116c.052.01.104.019.155.03a.08.08 0 0 1 .024.052c.014.014.03.023.048.03.002.02.007.039.015.057.035.005.07.015.101.03-.016.04-.003.07.04.086a.085.085 0 0 1 .033-.034.787.787 0 0 1 .174 0c.01.003.02.008.03.015a.173.173 0 0 0 .028.073c.07.023.142.046.213.067a.068.068 0 0 1 .024.044c.006.042.012.084.02.125a.168.168 0 0 0 .033.068.067.067 0 0 0 .034-.039l.048-.164a.038.038 0 0 1 .02-.01c.066.045.138.06.217.044a.1.1 0 0 0 .034-.082.045.045 0 0 1 .03-.02c.04.012.077.03.11.054.01.02.012.04.005.062a.46.46 0 0 0-.082.17c.001.032.017.053.048.062a.049.049 0 0 0 .024-.038c.009-.059.019-.117.03-.174.053-.065.103-.064.15.005.056.028.097.014.12-.044.008-.015.02-.02.034-.014l.048.048c.046.02.09.045.131.072a.251.251 0 0 1 .014.054.974.974 0 0 0-.024.227.15.15 0 0 0 .024.014l.126.01c.055.013.071.045.049.097a.04.04 0 0 1-.044-.005.204.204 0 0 0-.063.072.077.077 0 0 1-.063-.004.112.112 0 0 1-.005.067.154.154 0 0 0-.038.02.125.125 0 0 1 .01.038.356.356 0 0 0-.025.078.18.18 0 0 0 .111.038c-.017-.107.024-.14.121-.096l.01.029a.124.124 0 0 1 .082-.068c.022.007.04.02.053.039a.154.154 0 0 0 .034.14c.057.004.088-.023.092-.082a.165.165 0 0 1 .14-.049c.082-.01.098.018.049.082a.746.746 0 0 0-.145.04c-.047.033-.06.075-.039.125a.184.184 0 0 1-.087.029l-.02.058a.232.232 0 0 0-.077.034c-.016.042-.006.078.03.106.082-.05.162-.1.241-.155.028.032.057.062.087.092.023.009.038 0 .043-.024a.145.145 0 0 0-.028-.126.196.196 0 0 1-.073-.072.085.085 0 0 1 .029-.039.188.188 0 0 1 .077-.043.1.1 0 0 1 .044.058c.025.094.054.188.087.28a.229.229 0 0 1 .222-.126c.073.007.145.012.218.015.004.079.044.135.12.17a.087.087 0 0 1 .102-.006c.065.05.113.113.145.189a.038.038 0 0 1-.019.034.068.068 0 0 0-.044.024.514.514 0 0 0-.019.126.038.038 0 0 1-.02.01.206.206 0 0 1-.125-.185.203.203 0 0 1-.082.044.215.215 0 0 1-.073.12.065.065 0 0 0 .01.059.46.46 0 0 0 .13.053.336.336 0 0 1 .063.073l.01-.087a.092.092 0 0 1 .024-.015c.049-.004.097-.01.145-.02.04-.044.09-.054.145-.028a.868.868 0 0 1 .049.072c.013.013.025.013.038 0a.07.07 0 0 1 .025.02c.02.056.035.114.048.174a.07.07 0 0 0 .058.048.7.7 0 0 0 0 .106.082.082 0 0 0 .092.039c.003-.036.022-.047.058-.034a.46.46 0 0 1 .106.145l.03.015a.1.1 0 0 1 .11.02c.013.039.002.07-.034.09.11-.01.156.04.136.15.015.02.03.038.048.054a.407.407 0 0 1-.072.111.21.21 0 0 1 .01.097.81.81 0 0 0-.04.116.11.11 0 0 1-.033.043.77.77 0 0 1 .145-.019c.02.064.035.13.043.198.03.032.067.044.112.039a.116.116 0 0 1-.039.082c-.139.018-.213.097-.222.237 0 .144.071.22.212.227a.085.085 0 0 1 .034-.034c.018.017.03.036.039.059.015.104.033.207.053.309a1.638 1.638 0 0 0-.024.261l.12.184a.975.975 0 0 1-.082.087.234.234 0 0 1-.033.082h-.078a.328.328 0 0 0 .126.242l.087.029c.059.077.118.153.179.227v.3a.381.381 0 0 0 .082.038.063.063 0 0 1 .005.058l-.048.049a.78.78 0 0 0 0 .096.116.116 0 0 0-.063.097.556.556 0 0 0 .179.261.346.346 0 0 1 .038.068c.002.074.002.148 0 .222a.18.18 0 0 0 .034.078v.019a.286.286 0 0 1-.087.111l-.213.136c.017.052.05.076.102.072.02.018.027.04.024.068.005.086-.033.143-.116.169a.148.148 0 0 0-.048.087.115.115 0 0 1-.01.106.436.436 0 0 1-.193.005c.04-.018.047-.044.019-.077a.109.109 0 0 0-.058-.02.59.59 0 0 1-.126.01c0-.038.014-.072.039-.101.042-.005.084-.011.126-.02a.141.141 0 0 0 .048-.038.105.105 0 0 0-.082-.054c-.06.041-.123.078-.189.112-.07.015-.139.03-.208.043-.006.013-.005.024.005.034l.097.029.029.048a.49.49 0 0 0 .116.04.069.069 0 0 1 .048.038.87.87 0 0 1-.072.043c.002.052.01.104.024.155 0 .04-.02.064-.058.072a.297.297 0 0 1-.106 0 .085.085 0 0 1-.044-.043c-.003.055-.032.084-.087.087a.315.315 0 0 1-.198-.126.029.029 0 0 1 .02-.019.13.13 0 0 0 .11-.01 1.68 1.68 0 0 0 .034-.145c.035.024.07.05.102.078a.144.144 0 0 0-.082-.16.1.1 0 0 0-.073.005.97.97 0 0 0 0 .087.174.174 0 0 0-.101-.053c-.03.045-.057.092-.083.14a.166.166 0 0 0-.106.135c-.037.027-.07.02-.097-.019a1.304 1.304 0 0 1-.024-.126.55.55 0 0 1-.135-.101 1.185 1.185 0 0 0-.126-.068c-.133-.014-.152.028-.058.126.02.01.041.018.063.024a.17.17 0 0 1 .092-.005c.021.047.054.056.096.024a.05.05 0 0 1 .03.034.413.413 0 0 1-.059.063.146.146 0 0 1 .005.155l-.111.13a.098.098 0 0 1-.039.015.232.232 0 0 1-.101-.107c-.004-.016 0-.03.014-.043a.891.891 0 0 0-.043-.073.07.07 0 0 1 .005-.058c-.051-.075-.106-.08-.165-.014a.12.12 0 0 1-.068 0 .77.77 0 0 0-.183-.078.597.597 0 0 0 .077-.072c-.113-.163-.24-.175-.382-.039a.158.158 0 0 0 0 .078c.036.06.05.124.044.193a.085.085 0 0 1-.049-.014.389.389 0 0 0-.227-.131.24.24 0 0 0-.072.024.148.148 0 0 1-.116.097 2.736 2.736 0 0 0-.411.836.723.723 0 0 0-.02.116c-.008.324.008.646.049.967a.97.97 0 0 0 .038.223c.026.041.058.048.097.019 0-.024.008-.043.024-.058.026.013.049.03.068.053.082.045.145.027.188-.053a.433.433 0 0 0 .121.063c.075.008.15.02.223.039a.14.14 0 0 1 .072.053l.01-.068a.035.035 0 0 1 .014-.01c.069.03.1.082.092.155a.14.14 0 0 1-.082.039 4.03 4.03 0 0 1-.242-.087 3.27 3.27 0 0 1-.12.019 9.047 9.047 0 0 0-1.248-.029 541.2 541.2 0 0 1-.092-.005.216.216 0 0 0-.063-.043.058.058 0 0 0-.048.038c-.011.051-.02.103-.029.155l-.077.039-.024.067h-.04a.166.166 0 0 0-.086-.062.275.275 0 0 1-.107-.03l-.116-.096a.19.19 0 0 0-.174-.02l-.038.078a.563.563 0 0 1-.28-.049.088.088 0 0 0-.073-.043c-.067.02-.135.036-.203.048a1.355 1.355 0 0 0-.257-.043 3.678 3.678 0 0 0-.657-.02.148.148 0 0 0-.03.054.264.264 0 0 0-.231-.053c-.09.02-.18.03-.271.028a.171.171 0 0 1-.053-.043c-.018.034-.034.07-.049.106-.029.026-.058.026-.087 0a.489.489 0 0 1-.038-.116.058.058 0 0 0-.039-.038.346.346 0 0 0-.126.125.548.548 0 0 1-.251.145.207.207 0 0 1-.058-.048.725.725 0 0 0-.073-.135.363.363 0 0 0-.067.072.552.552 0 0 1-.107.049c-.021.06-.055.067-.101.024a.223.223 0 0 1-.03-.107.136.136 0 0 0-.043-.063 3.635 3.635 0 0 0-.531-.033l-.223.005a.46.46 0 0 0-.13.024.085.085 0 0 1-.044-.039.87.87 0 0 1-.087.087.146.146 0 0 1-.024-.077c-.026-.033-.057-.037-.092-.015a.781.781 0 0 1-.106.126.073.073 0 0 1-.087 0 .71.71 0 0 1-.087-.102.813.813 0 0 1-.14.116.085.085 0 0 1-.02-.067.395.395 0 0 1 .073-.082c.107-.074.224-.132.348-.175a.12.12 0 0 1 .067 0 .144.144 0 0 0 .136.068c.024.02.05.037.077.053a.096.096 0 0 0 .024-.048.062.062 0 0 1 .03-.01c.052.017.103.036.154.058a.25.25 0 0 0 .135-.232 12.15 12.15 0 0 0 0-1.131 2.831 2.831 0 0 0-.029-.338 1.31 1.31 0 0 0-.372-.358.374.374 0 0 0-.053.048 2.385 2.385 0 0 0-.063.13.6.6 0 0 0-.17.025.024.024 0 0 0 0 .029.333.333 0 0 1 .141.164l-.01.01c-.068-.072-.12-.062-.16.029a3.453 3.453 0 0 0-.023.174.178.178 0 0 1-.121-.01.117.117 0 0 0-.082.073.065.065 0 0 1-.058-.01l-.063-.063a.024.024 0 0 1 0-.029.76.76 0 0 1 .106-.097.15.15 0 0 1 .024-.038.071.071 0 0 1-.005-.058.917.917 0 0 1 .083-.078.496.496 0 0 1-.083-.048.2.2 0 0 1-.014-.097.184.184 0 0 0-.068-.024c-.013-.016-.013-.032 0-.048-.09-.027-.131-.088-.126-.184 0-.028.006-.055.015-.082.03-.04.062-.08.097-.116a.072.072 0 0 0 .014-.077.66.66 0 0 0-.382.125.041.041 0 0 0 0 .039c.054.053.066.112.034.179a1.67 1.67 0 0 0-.145 0 2.64 2.64 0 0 1-.126.034.245.245 0 0 0-.12-.039.763.763 0 0 1-.19.005.127.127 0 0 1-.047-.049c-.007-.006-.013-.006-.02 0a.162.162 0 0 0-.053.121c.058.028.118.053.179.073.055.054.045.096-.03.126a.472.472 0 0 0-.221.087.046.046 0 0 1-.049-.005.28.28 0 0 0-.029-.082.596.596 0 0 0-.174-.058.045.045 0 0 1-.02-.03.276.276 0 0 1 .184-.174c.053-.033.059-.072.02-.115a.321.321 0 0 1-.082-.034.057.057 0 0 1 .004-.053.189.189 0 0 1 .063-.015.44.44 0 0 0 .14.005.999.999 0 0 1 .155-.068.387.387 0 0 1 .184-.005.11.11 0 0 0 .048.058.07.07 0 0 0 .025-.02l.024-.086a.69.69 0 0 1 .053.097.187.187 0 0 0 0-.213.409.409 0 0 0-.218-.135v.077a.17.17 0 0 1-.087-.015.657.657 0 0 0-.063-.082.198.198 0 0 0-.072.145.914.914 0 0 1-.174-.101l-.044-.015c-.01.018-.025.026-.043.024a.457.457 0 0 0-.082-.082.034.034 0 0 0-.03.03 2.81 2.81 0 0 1 0 .154.177.177 0 0 1-.033.02.667.667 0 0 0-.092-.04.118.118 0 0 1-.063.03 1.613 1.613 0 0 1-.155-.063l-.058-.015a.11.11 0 0 1-.067.005l-.04-.077a.318.318 0 0 1-.057-.015.202.202 0 0 0-.077-.16.024.024 0 0 0-.03 0l-.057.068c-.008.007-.015.005-.02-.005a.063.063 0 0 0 .005-.077l-.068-.068a.942.942 0 0 1-.038-.164.108.108 0 0 0-.044-.029v-.01a1.8 1.8 0 0 0 .078-.11.138.138 0 0 1-.025-.112c.057-.037.11-.077.16-.12a.127.127 0 0 0-.087-.03c-.007-.074.023-.127.092-.16a.039.039 0 0 1 .02.01.27.27 0 0 0 .086.252.185.185 0 0 1 .044-.068c.033.02.067.04.101.058a.353.353 0 0 0 .121-.082 1.077 1.077 0 0 1-.087-.02.283.283 0 0 1-.024-.043l-.03-.367a.067.067 0 0 0-.023-.034.194.194 0 0 1-.058-.015l.058-.048c.012-.092.064-.136.154-.13a.384.384 0 0 1 .068.077.05.05 0 0 0 .029.004.032.032 0 0 1 .02-.033.165.165 0 0 1 .086.004.055.055 0 0 0 .049-.033c-.028-.108-.097-.165-.208-.17-.012-.036 0-.063.034-.082a.507.507 0 0 0 .135-.092.082.082 0 0 0-.087.015 2.595 2.595 0 0 0-.193.184.149.149 0 0 1-.155.033c-.028-.038-.019-.066.029-.082a1.95 1.95 0 0 0 .135-.029.316.316 0 0 0-.14-.15.11.11 0 0 1-.034.015.534.534 0 0 1-.058.077.123.123 0 0 1-.092-.014l-.096.058c-.057-.01-.082-.043-.073-.097a.096.096 0 0 1 .049-.024c.058 0 .116.004.174.014a1.14 1.14 0 0 0-.02-.082.16.16 0 0 1 .044-.053.132.132 0 0 0-.034-.13 3.266 3.266 0 0 1-.126-.03.142.142 0 0 1-.029-.062.058.058 0 0 0-.048-.02c-.003-.056.022-.08.077-.072.063.046.124.094.184.145a.057.057 0 0 0 .053-.005.205.205 0 0 0 .03-.165.458.458 0 0 0-.131-.053c-.047-.024-.05-.053-.01-.087a1.08 1.08 0 0 1 .126-.067c.039-.02.045-.046.019-.078-.077-.026-.107-.08-.092-.16.012-.028.031-.037.058-.028a1.33 1.33 0 0 0 .218-.054c.076-.04.076-.079 0-.116l-.116-.01c-.07-.006-.076-.027-.015-.062a.417.417 0 0 1 .43-.256.069.069 0 0 0 .015-.073l-.092-.242c.213.024.226-.013.039-.11a.073.073 0 0 1-.005-.093.856.856 0 0 0 .097-.087.64.64 0 0 1-.015-.096c.04.017.082.025.126.024.061-.077.137-.101.227-.073l.01.107a.18.18 0 0 0 .067.038c.01-.073.053-.1.131-.082.044.015.079.04.106.077.007.007.013.007.02 0a.309.309 0 0 0-.025-.207L4.5 7.31a.145.145 0 0 1-.01-.096.938.938 0 0 1 .087-.136.655.655 0 0 0 .03-.155.042.042 0 0 1 .038-.019c.04.02.067.008.082-.034a.2.2 0 0 1 .189.024c0 .041.008.08.024.116.023.012.046.01.067-.004l.068-.068a.063.063 0 0 1 .048 0c.061.06.113.125.155.198.009.01.018.012.03.005.012-.032.035-.049.067-.048a.67.67 0 0 0 .087.125c.04.026.056.017.048-.024a.1.1 0 0 1 .015-.038c.035-.034.07-.07.101-.107-.123.011-.179-.044-.169-.164a.044.044 0 0 1 .024-.024.241.241 0 0 1 .111.004.114.114 0 0 0 .058-.029 1.66 1.66 0 0 1 .04-.183.07.07 0 0 1 .023-.02c.027.01.04 0 .039-.033.002-.043-.017-.067-.058-.073l-.106.039a.078.078 0 0 1-.054-.02.39.39 0 0 1-.12.083 1.34 1.34 0 0 1-.223.038.196.196 0 0 1-.092-.111.484.484 0 0 1-.019-.222.203.203 0 0 1-.184-.136c.018-.118.03-.237.034-.358a.655.655 0 0 1 .27-.053.242.242 0 0 1 .025.111c.016.033.035.036.058.01a.125.125 0 0 0 .02-.126.042.042 0 0 0-.034-.01.59.59 0 0 0-.005-.106.244.244 0 0 1-.044-.072.517.517 0 0 0 .073-.082.34.34 0 0 0-.02-.184c-.059-.037-.054-.066.015-.087.067.02.128.009.184-.034-.047-.012-.07-.043-.068-.092a.175.175 0 0 1 .02-.053.11.11 0 0 0 .096-.039l.029-.004c.037.011.074.024.111.038a.085.085 0 0 0 .044-.038.836.836 0 0 1 .014.125.177.177 0 0 0 .121.136.1.1 0 0 0 .029-.01c.015.03.009.054-.02.072a.72.72 0 0 1-.115.02.248.248 0 0 0 .164.048.111.111 0 0 1 .044.034.352.352 0 0 1-.02-.126.456.456 0 0 1 .111-.16.195.195 0 0 1 .058-.014c.11.036.22.036.33 0a.1.1 0 0 0-.03-.12c-.089.002-.13-.041-.126-.131-.007-.035.006-.05.04-.044.07.034.14.064.212.092.035-.023.046-.056.034-.097-.015-.092-.068-.145-.16-.16a.385.385 0 0 1-.101-.14.306.306 0 0 1-.073-.086c.01-.044.037-.064.082-.058.08.006.156.027.228.063.02.012.03.03.029.053a.335.335 0 0 0 .241-.073c.06-.006.12 0 .18.015.042.008.058-.008.048-.049a.432.432 0 0 1-.15-.28c.046.003.09.003.135 0a.043.043 0 0 0 .015-.02.488.488 0 0 0 .004-.096c.025 0 .045.012.058.034a.146.146 0 0 0 .126-.024.387.387 0 0 1-.082-.058.09.09 0 0 1 0-.058.285.285 0 0 0 .029-.194.091.091 0 0 1 .014-.024.708.708 0 0 0 .184-.058.17.17 0 0 0 .063-.14.042.042 0 0 1 .039-.02l.14.034a.175.175 0 0 1 .063.17.674.674 0 0 1-.073.11c.026-.012.044-.003.053.025l.01.26c.036.038.073.038.111 0a.788.788 0 0 1 .02-.067.057.057 0 0 0 .043-.038 1.94 1.94 0 0 1 .03-.136.126.126 0 0 1 .081-.038c.013-.02.01-.039-.01-.054A.742.742 0 0 0 7.84 3.7c-.04-.034-.033-.058.019-.073.034.016.07.02.106.015.127-.122.252-.122.377 0-.03.01-.061.02-.091.033-.008.051.013.079.062.083a.202.202 0 0 0 .034-.063.23.23 0 0 1 .092-.184.273.273 0 0 1 .01-.164Zm1.402.764c.004.011.01.021.02.029a.29.29 0 0 1-.04.174c.004-.042-.015-.061-.057-.058a.146.146 0 0 0-.116.053.045.045 0 0 1-.04.01.34.34 0 0 1-.028-.102c0-.028.01-.05.029-.068 0 .022.012.031.034.03a.477.477 0 0 0 .101-.03c.01-.005.012-.011.005-.02a.117.117 0 0 1-.043-.033.328.328 0 0 1 .135.015Zm-.619.415c.004.012.01.022.02.03a.14.14 0 0 1-.04.086.354.354 0 0 0-.183.121L9 4.777a.151.151 0 0 0-.077-.049.038.038 0 0 0-.034.02.401.401 0 0 1-.034.092c-.038-.002-.061-.023-.068-.063a.418.418 0 0 1 .015-.049.974.974 0 0 1 .096-.087.194.194 0 0 0 .034-.072.249.249 0 0 1 .107.029.157.157 0 0 0 .077 0 .162.162 0 0 1 .116-.073Zm-.754.532a.173.173 0 0 1-.039.058.39.39 0 0 0-.15.087.197.197 0 0 1-.096.165c-.052-.043-.066-.095-.044-.155a.547.547 0 0 0-.053-.039.146.146 0 0 1 .014-.14l.025-.005c.044.012.087.025.13.039.043-.008.05-.03.02-.063a1.213 1.213 0 0 1-.112-.053.576.576 0 0 1-.038-.097.068.068 0 0 0-.034-.024c.078-.03.16-.056.241-.077.01-.01.012-.022.005-.034-.03-.037-.06-.074-.092-.111a.205.205 0 0 1 .145-.04.592.592 0 0 1 .005.344.295.295 0 0 0 0 .107c.03.005.054.018.073.038Zm.126-.493a.24.24 0 0 1 .062.039.22.22 0 0 0 .049-.02 1 1 0 0 1-.058.242.102.102 0 0 1-.044.058c-.047-.042-.051-.09-.014-.145a.105.105 0 0 0 .053-.043.498.498 0 0 1-.058-.107.028.028 0 0 0 .01-.024Zm.319.377h.019c-.023.061-.007.077.048.049.012-.048.04-.066.087-.054a.11.11 0 0 1 .034.073l.01.155c.003.023.01.046.02.067a.4.4 0 0 0 .12.01.233.233 0 0 1-.02.082c.01.023.026.039.05.048a.059.059 0 0 1-.044.034.761.761 0 0 0-.271-.067.802.802 0 0 1-.136-.068.2.2 0 0 1-.207.053c-.042-.04-.05-.087-.025-.14a.27.27 0 0 1 .16-.135.23.23 0 0 1 .101.106 3.945 3.945 0 0 1 0-.174.065.065 0 0 1 .054-.039Zm.31.145a.116.116 0 0 1-.059-.01c0-.059.026-.102.077-.13a.28.28 0 0 1 .136-.01c.037.017.037.037 0 .058a.628.628 0 0 1-.155.092Zm-2.167.29a.11.11 0 0 0-.02.049c-.02.018-.043.022-.067.01a.285.285 0 0 1-.029-.049.028.028 0 0 0-.01-.024l-.087-.03c-.01-.01-.011-.02-.004-.033a.427.427 0 0 1 .062-.005l.121-.082a.045.045 0 0 1 .03.02c.004.048.006.096.004.144Zm.484.02a.07.07 0 0 1 .062.048.217.217 0 0 1 .044.155c-.077-.014-.118-.06-.126-.14a.878.878 0 0 1 .02-.063Zm.425.29-.02-.02a.142.142 0 0 0-.014-.077 1.493 1.493 0 0 0-.092-.106c0-.011.004-.02.01-.03a.59.59 0 0 1 .164-.004.057.057 0 0 0-.004.053.46.46 0 0 1 .043.077.235.235 0 0 1-.087.107Zm1.76.02c.015 0 .026.006.034.018a.484.484 0 0 1 .034.344.063.063 0 0 1-.049 0 .778.778 0 0 1-.053-.063.203.203 0 0 0-.024.058c-.02.024-.038.02-.053-.01a.063.063 0 0 1 0-.048 1 1 0 0 1 .096-.097 3.4 3.4 0 0 1 .015-.203Zm3.017.115v.01a.178.178 0 0 0-.058.005c-.04.025-.079.053-.116.082a.304.304 0 0 1-.03-.044h-.096c-.069-.093-.044-.136.073-.13.084.002.16.027.227.077Zm-4.342.155c.053-.004.09.019.111.068.025.082.06.16.107.232.006.012.005.023-.005.033a.17.17 0 0 1-.097-.029l-.208-.15c-.02-.025-.02-.051 0-.077a.986.986 0 0 0 .092-.077Zm4.332.048a.063.063 0 0 1 .044.01l.01.097.067.106c.016.052 0 .091-.048.116a.097.097 0 0 1-.058-.087 2.66 2.66 0 0 0 0-.155c-.038-.024-.043-.053-.015-.087Zm-2.843.31a.122.122 0 0 0-.005-.097.71.71 0 0 1-.12-.048.8.8 0 0 1 .12-.136c.035.06.062.123.083.189a.125.125 0 0 1-.078.092Zm-1.77-.165c.09.023.138.081.146.174a.15.15 0 0 0-.068.024.683.683 0 0 1-.164.14.037.037 0 0 1-.024-.019 1.406 1.406 0 0 1-.054-.208.049.049 0 0 1 .039-.024c.029.007.058.01.087.01a.118.118 0 0 0-.01-.063.122.122 0 0 1 .049-.034Zm3.26.02c.079-.003.087.02.024.067a.221.221 0 0 0-.02.049 2.71 2.71 0 0 1-.053.328c-.012.01-.025.008-.039-.004l-.106-.087a.135.135 0 0 0-.097-.005.193.193 0 0 1 .039-.13.071.071 0 0 1 .058.004c.018.047.05.064.097.048a.179.179 0 0 0 0-.116.201.201 0 0 1 .096-.154Zm.87.193c-.014.005-.02.014-.02.029-.04.045-.082.089-.125.13a.366.366 0 0 0-.063.025.176.176 0 0 0-.053-.02c0-.014-.006-.024-.02-.029a.131.131 0 0 1 .03-.125c.074-.041.145-.088.212-.14a.313.313 0 0 0 .058-.015.088.088 0 0 0 .048.01.662.662 0 0 1-.067.135Zm-.62.02a.08.08 0 0 0 .02.028.067.067 0 0 0 .03.044c.049.026.097.054.144.082a.665.665 0 0 1-.251.097.554.554 0 0 0 .014-.184.197.197 0 0 0-.116.068.672.672 0 0 1 .03-.213.38.38 0 0 1 .13.077Zm-5.637.154c.006.033-.007.052-.038.058a.488.488 0 0 1-.097-.005.234.234 0 0 1-.058-.16c-.003-.056.023-.08.077-.072a.357.357 0 0 1 .116.179Zm1.702-.145a.476.476 0 0 1 .174.024c.03.073.006.1-.072.082a.103.103 0 0 0-.097.078c.003.06-.024.088-.082.082-.044-.025-.059-.062-.044-.111a.887.887 0 0 0 .121-.155Zm-.657.039a.203.203 0 0 1 .096.048l.02-.01c.033.034.05.073.048.116a.114.114 0 0 1-.116-.038.14.14 0 0 1-.048-.116Zm-.232.106a.125.125 0 0 1 .048.005c.019.02.035.04.048.063a.181.181 0 0 1 .063-.058.085.085 0 0 1 .039.029.203.203 0 0 1-.077.241c.006-.021.001-.04-.015-.053l-.106-.029a.148.148 0 0 0-.058-.067 2.211 2.211 0 0 0-.145-.078c.069-.016.137-.034.203-.053Zm-.445.068c.004.011.01.021.02.029a.169.169 0 0 1-.04.169 1.082 1.082 0 0 1-.309.029c-.047-.029-.06-.069-.039-.12a.133.133 0 0 1 .097 0l.03-.015a.329.329 0 0 1 .028-.087.204.204 0 0 1 .213-.005Zm1.789.019c.035-.003.058.013.067.048a.904.904 0 0 1-.13.174.103.103 0 0 0-.077-.096c-.022-.029-.024-.056-.005-.082a.482.482 0 0 1 .106 0 .054.054 0 0 0 .039-.044Zm1.895.27a.07.07 0 0 1-.02.059.117.117 0 0 0-.067.014.535.535 0 0 1-.058.078c-.086.023-.126-.01-.12-.102a.205.205 0 0 0 .067-.174.066.066 0 0 1 .029-.048.047.047 0 0 1 .024.024c.006.025.014.05.024.072.04.027.08.053.121.078ZM5.78 6.77a.088.088 0 0 1 .053.01.17.17 0 0 1 .03.106.285.285 0 0 1-.044.024.476.476 0 0 1-.136 0l-.01-.01a.692.692 0 0 1 .107-.13Zm1.305.793a.084.084 0 0 0 .02.029v.029a.068.068 0 0 0-.02.029 1.3 1.3 0 0 1-.493-.044.253.253 0 0 1-.179-.237c-.063-.073-.132-.083-.208-.029a.143.143 0 0 1-.091-.048.024.024 0 0 1 0-.03.14.14 0 0 1 .053-.023.068.068 0 0 0 .024-.044l.01-.232.014-.014a2.65 2.65 0 0 0 .213-.039 3.67 3.67 0 0 0 .184-.13l.058.082c.055.01.11.02.164.033a.262.262 0 0 1 .024.165.06.06 0 0 1-.029.01 11.27 11.27 0 0 0-.227-.049.041.041 0 0 1-.02.044 1.272 1.272 0 0 1-.164.029.516.516 0 0 0-.048.14.339.339 0 0 1 .106 0c.005.035.015.07.03.101a.04.04 0 0 0 .043-.004c.04.014.08.03.12.048a.127.127 0 0 0 .059-.044c.035-.023.066-.018.091.015a.179.179 0 0 0 .073.14.81.81 0 0 0 .174.039.19.19 0 0 1 .02.034Zm.3-.735.02.048c0 .019.01.03.029.034l.077.014a.3.3 0 0 0 .024.223l.015.014.106.01c.034.052.031.104-.01.155a.103.103 0 0 1-.092-.015.865.865 0 0 1-.029-.125.12.12 0 0 0-.062-.034c.012-.065-.015-.106-.083-.121a.517.517 0 0 0-.053.02.207.207 0 0 1-.068.009.046.046 0 0 0-.048-.005.494.494 0 0 0-.077.087.093.093 0 0 1-.044.015.357.357 0 0 1-.12-.054c-.043-.036-.039-.06.014-.072.04.012.08.018.12.02a.79.79 0 0 0-.023-.146l.091.073a.235.235 0 0 0 .194-.073c.012-.01.009-.017-.01-.02a.078.078 0 0 1 .03-.057Zm5.792.048c.007.012.01.025.01.039a.125.125 0 0 1-.073.087c-.044-.008-.063.012-.058.058.007.02.018.036.034.048.005.014.014.02.03.02.012.015.028.02.048.014l.038-.068a.575.575 0 0 1 .097-.038.193.193 0 0 1 .048-.063.067.067 0 0 1 .034.038c.004.03.01.06.02.088.03.051.058.104.082.16a.056.056 0 0 1-.01.028l-.077.01a.637.637 0 0 0-.097.13 2.551 2.551 0 0 1-.135-.13l-.044-.015a.014.014 0 0 0-.014.01c-.014.004-.02.014-.02.029a1.548 1.548 0 0 1-.024.126c-.018.023-.038.023-.058 0a.092.092 0 0 0-.048-.068 1.45 1.45 0 0 0-.208.14.063.063 0 0 1-.049 0 .313.313 0 0 0-.091-.092.514.514 0 0 0-.121.078.066.066 0 0 1-.039-.01 1.117 1.117 0 0 1-.005-.222.068.068 0 0 1 .024-.034.27.27 0 0 1 .199-.015l.024-.01a.256.256 0 0 1 .029-.072.698.698 0 0 0 .3-.203.236.236 0 0 1 .154-.063Zm-2.678.02a.083.083 0 0 1 .067.053l.03.004a.836.836 0 0 0 .14-.048c.032.014.06.034.082.063.1.053.182.032.247-.063.007.052.017.104.029.155.023.052.05.102.082.15a.516.516 0 0 1-.073.13.093.093 0 0 1-.048.03 88.652 88.652 0 0 0-.126-.05l-.024.006a.279.279 0 0 1-.039.058.04.04 0 0 1-.038 0l-.117-.078c-.115.026-.162-.021-.14-.14a.197.197 0 0 1 .111-.053c.026-.02.026-.039 0-.058a.548.548 0 0 0-.106-.048.87.87 0 0 1-.053-.063.207.207 0 0 0-.073.077.03.03 0 0 1-.029.01c-.013-.07.013-.115.078-.136Zm-.31.038a.063.063 0 0 1 .058.039.195.195 0 0 1-.135.12.088.088 0 0 1-.024-.091.251.251 0 0 1 .101-.068Zm-2.204.087c.018 0 .03.01.034.03a.335.335 0 0 1-.03.24.045.045 0 0 1-.028.02.196.196 0 0 1-.083-.063c.03 0 .055-.01.073-.033l.01-.145a.094.094 0 0 1 .024-.049ZM5.5 7.523c-.013.002-.023 0-.03-.01.008-.044.033-.065.078-.063a.254.254 0 0 0 .097-.135.277.277 0 0 1 .004-.111c.017-.045.041-.05.073-.015a.25.25 0 0 0 .058.083l.126-.092c.037-.026.063-.018.077.024a5.324 5.324 0 0 0-.092.29 3.461 3.461 0 0 0-.005.15.127.127 0 0 1-.125-.01l-.165-.126a.231.231 0 0 0-.096.015Zm-.242-.27c.092-.004.121.036.087.12a.213.213 0 0 1-.164-.005.126.126 0 0 1 .077-.116Zm3.79.019c.005.013.015.02.03.019a.38.38 0 0 1 .077.13 1.445 1.445 0 0 0-.024.228c.02.014.042.024.067.029a.1.1 0 0 1 .015.038.315.315 0 0 0-.005.126.546.546 0 0 0 .082.034c.054.056.05.106-.014.15.006.032.027.053.062.063a.2.2 0 0 0 .068.014c.043-.008.085-.017.126-.029a.042.042 0 0 0 .01.034c.115-.02.168.027.16.14-.018.023-.04.03-.064.02A.743.743 0 0 0 9.6 8.19a6.82 6.82 0 0 1-.184.247 1.48 1.48 0 0 0-.13.034l-.01.077a.2.2 0 0 0-.068.048.41.41 0 0 1-.015.082c-.027.02-.052.02-.077-.004a.533.533 0 0 0-.058-.063c-.012-.007-.024-.005-.034.005a.955.955 0 0 1 0-.426.164.164 0 0 0 .073-.169.2.2 0 0 0-.044-.15l-.01-.135a.062.062 0 0 1-.048-.039.27.27 0 0 1-.014-.106.08.08 0 0 0 .063-.039.295.295 0 0 0 0-.106.093.093 0 0 0-.025-.049c.001-.014-.005-.024-.019-.029a.125.125 0 0 1-.014-.087c.017-.022.038-.026.062-.01Zm.89-.01c.045-.002.09 0 .135.005.05.012.06.039.034.082a.089.089 0 0 1-.048.048.483.483 0 0 1-.034.102.819.819 0 0 1-.251.034.42.42 0 0 1-.145-.02.072.072 0 0 1 .014-.077.388.388 0 0 1 .256-.14.2.2 0 0 0 .039-.034Zm-.542.048h.04a.378.378 0 0 1-.02.14c.013.03.03.03.053.005a.064.064 0 0 1-.015.063.152.152 0 0 0-.072.005c.002.061.006.122.014.184a.133.133 0 0 1-.014.067 1.342 1.342 0 0 1-.189-.266c.06-.074.128-.14.203-.198Zm2.582.058c.005.014.014.02.03.02.019.02.036.043.052.067.021.035.016.065-.014.092l-.174.126a.255.255 0 0 1-.184.01.24.24 0 0 1-.043-.092c-.065-.015-.073-.043-.024-.083a.268.268 0 0 1 .193-.038.086.086 0 0 1 .038.029.082.082 0 0 0 .04.005.43.43 0 0 1 .023-.126.118.118 0 0 1 .063-.01Zm1.77.03a.06.06 0 0 0 .02.028.056.056 0 0 1-.02.039.392.392 0 0 0-.232.261.124.124 0 0 1-.078.039 1.562 1.562 0 0 0-.125-.073 2.804 2.804 0 0 1-.184-.014c.004-.035.023-.056.058-.063a.378.378 0 0 1 .164-.01l.058-.087c.043-.009.084-.018.126-.029a.188.188 0 0 1 .039-.097.164.164 0 0 1 .174.005Zm-4.883.29c.004.011.01.02.019.028a.98.98 0 0 1 .029.252c-.005.164-.013.329-.024.493a.848.848 0 0 1-.03.164c-.027.025-.053.021-.077-.01a1.362 1.362 0 0 1-.033-.154c.02-.105.045-.208.077-.31a.463.463 0 0 1-.039-.072c.018-.047.038-.094.058-.14a.048.048 0 0 0-.01-.024.286.286 0 0 1-.043-.025.18.18 0 0 1-.005-.198.076.076 0 0 1 .078-.005Zm.986.057a.097.097 0 0 1 .068.015c-.031.102-.071.2-.121.295a.18.18 0 0 1-.058.058.035.035 0 0 1-.02-.02.162.162 0 0 0-.087-.145c-.022-.06-.004-.107.054-.14a.736.736 0 0 1 .164-.063Zm3.24.03a.7.7 0 0 1 .115.004.194.194 0 0 1 .097.034.314.314 0 0 1-.16.097.045.045 0 0 1-.029-.02 1.643 1.643 0 0 0-.033-.096.393.393 0 0 0 .01-.02Zm-8.056.038c.071.002.095.037.073.106a.316.316 0 0 1-.145.107.125.125 0 0 1 0-.145.701.701 0 0 1 .072-.068Zm-1.13.397c.02 0 .034.01.043.029.019.066.041.13.067.193.009.012.02.02.034.024a.889.889 0 0 1 .126.03c.027.03.02.052-.02.067a.212.212 0 0 1-.232-.03.041.041 0 0 0-.038 0 .72.72 0 0 1-.102.102.48.48 0 0 1-.077-.251c.034-.095.1-.15.198-.164Zm7.242.193c.041-.01.07.005.087.043a.262.262 0 0 1-.16.131.198.198 0 0 1 .073-.174Zm-4.564.058a.055.055 0 0 1 .053.029.22.22 0 0 1 .034.12c-.07.02-.112-.007-.126-.081a.12.12 0 0 1 .039-.068Zm6.962.3a.067.067 0 0 1-.039-.01c0-.03.012-.05.039-.063.158-.045.189-.004.092.121a.173.173 0 0 0-.078-.058.014.014 0 0 0-.014.01Zm-9.863.241a.52.52 0 0 1 .154.02l.01.02a.323.323 0 0 0-.02.086.143.143 0 0 0 .064-.02.21.21 0 0 1 .024.044c.043.01.084.023.125.039a.185.185 0 0 1 .044.15.043.043 0 0 1-.015.02.487.487 0 0 1-.106-.093 1.355 1.355 0 0 0-.213-.077.57.57 0 0 1-.087-.048.093.093 0 0 1-.038-.063.337.337 0 0 1 .058-.078Zm-.039.397a.068.068 0 0 0-.029-.02c-.069-.052-.092-.118-.068-.198.026-.012.052-.009.078.01.035.055.083.08.145.077.03.057.017.102-.039.136a.166.166 0 0 1-.087-.005Zm10.395.406a.068.068 0 0 0 .02-.029.297.297 0 0 1 .217.039c.024.045.01.067-.044.067a.09.09 0 0 1-.058-.033.2.2 0 0 0-.067-.015c-.068.01-.136.017-.204.02a.044.044 0 0 1 .02-.044l.116-.005Zm.425.242c-.013.004-.02.014-.019.029a.278.278 0 0 1-.077.072c-.058.022-.09.002-.097-.063a.158.158 0 0 1 .087-.125c.01.008.019.01.029.005a.136.136 0 0 0 .044-.063c.038-.021.073-.015.106.02a.127.127 0 0 1 .005.047c-.055-.003-.08.023-.078.078Zm-9.515-.145a.37.37 0 0 1 .16.038c.018.046.003.08-.044.102a.213.213 0 0 1-.106-.005.357.357 0 0 1-.039-.126c.013.003.023 0 .03-.01Zm8.336.048c.104.007.12.047.048.12-.066.028-.114.01-.145-.052a.11.11 0 0 1 .097-.068Zm-2.67.658a.108.108 0 0 0-.019.067.293.293 0 0 1-.087.063 2.08 2.08 0 0 0-.406.16.147.147 0 0 0-.014-.078 1.005 1.005 0 0 0-.082-.043c-.03-.037-.032-.077-.005-.121a.69.69 0 0 1 .101-.14c.027-.027.056-.03.087-.01.054.07.117.13.189.179a.33.33 0 0 0 .082-.044c.02-.012.03-.03.03-.053h-.05a.401.401 0 0 0 .05-.12.052.052 0 0 1-.006-.044.364.364 0 0 1 .184-.174.129.129 0 0 1 .029.126c-.028.077-.056.154-.082.232Zm-6.014 0c0 .01-.003.02-.01.029a1.17 1.17 0 0 1-.183.082c-.065.022-.104 0-.116-.068a.136.136 0 0 1 .029-.039c.06.011.117.005.174-.019a.25.25 0 0 0 .039-.043.042.042 0 0 0-.03-.025.726.726 0 0 0-.164-.024l-.029-.02c.05-.054.105-.104.165-.149a.1.1 0 0 1 .077-.01.054.054 0 0 1 .039.044 1.97 1.97 0 0 0-.049.12.433.433 0 0 0 .058.122Zm2.099-.29c.103.013.12.058.048.135-.03.026-.06.053-.087.082a.23.23 0 0 1 .039.005.299.299 0 0 1-.078.13.041.041 0 0 1-.048-.01.101.101 0 0 0 .058-.067.46.46 0 0 0-.044-.101.13.13 0 0 1 .04-.117.207.207 0 0 1 .072-.057Zm6.42.425c0-.015-.005-.024-.02-.029a.027.027 0 0 0-.009-.024c.045.004.09.004.136 0a.498.498 0 0 1 .087-.078.865.865 0 0 0 .116-.014.228.228 0 0 1 .135-.189.33.33 0 0 1 .174-.024.172.172 0 0 1-.029.198.644.644 0 0 0-.164.131c.06.053.075.117.043.193a.333.333 0 0 1-.043.102c-.007.006-.013.006-.02 0a.122.122 0 0 0-.067-.087 1.163 1.163 0 0 0-.261-.039.183.183 0 0 0-.078-.14Zm-6.623-.329.019.02c.002.067 0 .135-.005.203-.015.024-.033.025-.053.004-.045-.084-.032-.16.039-.227Zm4.912.049c.058-.012.084.013.077.072a.149.149 0 0 1-.058.13.067.067 0 0 1-.034-.038.328.328 0 0 1 .015-.165Zm-6.392.164a.089.089 0 0 1 .01.048.095.095 0 0 1-.049.092 2.38 2.38 0 0 0-.145.034l-.029-.01c-.023-.059-.05-.062-.082-.01a1.266 1.266 0 0 1-.02.117.211.211 0 0 1-.091-.107.682.682 0 0 1 .111-.125l.034-.068a.487.487 0 0 1 .261.029Zm-1.267.01a.1.1 0 0 1 .097.043l-.024.053a1.381 1.381 0 0 0-.213.165.038.038 0 0 0-.034-.02.738.738 0 0 0-.106.039c-.033-.002-.05-.018-.053-.048.047.034.074.022.082-.034a.708.708 0 0 0 .116-.015.275.275 0 0 0 .024-.106.254.254 0 0 1 .063-.014.139.139 0 0 1 .048-.063Zm10.685.038a.141.141 0 0 1 .078.015c.026.037.02.07-.02.097a.208.208 0 0 1-.125.038c-.035-.074-.012-.124.067-.15Zm-.56.078a.047.047 0 0 1 .038.01l.03.106a.944.944 0 0 1 .173-.111.08.08 0 0 1 .068.01c.012.037.027.074.043.11a.833.833 0 0 1 .102.111.058.058 0 0 1-.039.04.562.562 0 0 0-.063.014c-.051-.022-.091-.01-.12.034a.166.166 0 0 1-.155-.01c.019-.046.035-.092.048-.14-.012-.033-.031-.038-.058-.015a.229.229 0 0 0-.058.15.516.516 0 0 1-.067.01.209.209 0 0 1 .048-.082.095.095 0 0 0-.049-.02.039.039 0 0 1-.019-.034 1.79 1.79 0 0 1 .034-.125.099.099 0 0 1 .043-.058Zm-9.564.019c.076.012.115.057.116.135-.012.11-.074.153-.183.13a.37.37 0 0 1 .043-.246.093.093 0 0 0 .024-.019Zm-.338.048c.053-.007.1.006.14.039.017.048.003.085-.044.111a.64.64 0 0 1-.058.024.07.07 0 0 1-.024-.019.257.257 0 0 1-.014-.155Zm6.353.252a.322.322 0 0 1 .02-.02c-.002-.005-.005-.009-.01-.01a.153.153 0 0 1-.049-.077.117.117 0 0 1 .03-.053.206.206 0 0 1 .231.01c.03.032.062.061.097.087a.579.579 0 0 0 .198-.015l.024.01a.378.378 0 0 1-.02.208.3.3 0 0 1-.183-.048l-.232-.03a.442.442 0 0 1-.106-.062Zm-6.991-.145c.004.013.014.02.029.019.004.014.014.02.029.02a.234.234 0 0 0 .116.048c.013.04.01.078-.01.116a1.43 1.43 0 0 0-.145-.058.048.048 0 0 0-.024.01c-.002.05-.028.079-.078.086-.123-.03-.14-.088-.053-.174.005 0 .009-.003.01-.01a.298.298 0 0 1-.02-.019.364.364 0 0 1 .097-.058.15.15 0 0 0 .049.02Zm6.585.212-.02-.019.058.01a.643.643 0 0 0-.048-.092.2.2 0 0 1 .101-.111.284.284 0 0 1 .146.154.146.146 0 0 1-.015.107.14.14 0 0 0-.039-.058.568.568 0 0 0-.053.067.149.149 0 0 0-.014-.043 1.175 1.175 0 0 1-.116-.015Zm2.417-.193c.05.006.078.033.087.082a.233.233 0 0 1-.13.16.066.066 0 0 1-.044-.049.194.194 0 0 1 .053-.058 1.36 1.36 0 0 1 .034-.135Zm-6.479.048h.049a.821.821 0 0 1-.005.126c-.018.055-.055.08-.111.077a1.58 1.58 0 0 1-.165-.038.196.196 0 0 1-.048.01c.013-.083.061-.133.145-.15.046-.01.091-.017.135-.025Zm-1.247.348a.192.192 0 0 0-.058.02.042.042 0 0 1-.02-.015.195.195 0 0 0 .044-.188.178.178 0 0 1 .16-.049c.019.041.006.065-.039.073a.355.355 0 0 0-.053.12.189.189 0 0 0-.034.04Zm.222-.241a.18.18 0 0 1 .17.058c.017.06-.006.087-.068.077-.108.006-.142-.039-.102-.135Zm6.982.319c.05.009.098.023.145.043a.04.04 0 0 1 .02.025.548.548 0 0 1-.155.28.042.042 0 0 1-.025-.03 1.123 1.123 0 0 1 .015-.318Zm-4.941.029c.11-.005.141.043.092.145a.044.044 0 0 1-.044.02c0-.037-.016-.05-.048-.04a.071.071 0 0 1-.024-.019.105.105 0 0 1 .024-.106Zm2.591.068c.006.008.01.018.01.029a1.81 1.81 0 0 1-.082.154.14.14 0 0 1-.083.039.16.16 0 0 0-.024-.155c-.013-.045.005-.07.053-.072a.317.317 0 0 1 .126.005Zm-1.798.26c-.014.005-.02.015-.02.03-.053.05-.064.108-.034.174.023.033.05.036.078.01.011-.039.021-.077.029-.117a.097.097 0 0 1 .087-.067.2.2 0 0 1 .092.053c.035.006.07.006.106 0a.063.063 0 0 0 .01-.044c0-.013.006-.019.019-.019a.419.419 0 0 1 .145.082.456.456 0 0 0-.068.058.14.14 0 0 1 .054.024c-.004.09.036.151.12.184a1.56 1.56 0 0 1 .175-.116l.019.01a.052.052 0 0 0-.005.048c.051.03.067.076.048.135a.14.14 0 0 0-.072.087.592.592 0 0 1 .063.117c.015.073.024.147.029.222.03.383.037.767.019 1.15a.366.366 0 0 1-.189.247.12.12 0 0 1-.067 0 1.26 1.26 0 0 0-.237-.072c-.028-.005-.046.007-.053.034-.053.023-.098.015-.136-.025-.002-.01-.01-.017-.024-.02a.033.033 0 0 0-.024.01.043.043 0 0 0-.034.01.385.385 0 0 1-.15-.154 2.364 2.364 0 0 1-.454.198 3.907 3.907 0 0 0-.184.029.119.119 0 0 1-.126.039.08.08 0 0 1-.048-.054.241.241 0 0 0-.005-.067.085.085 0 0 0-.014.048c-.03.07-.08.089-.15.058a.454.454 0 0 1-.039-.106 16.755 16.755 0 0 1-.029-1.325c.105-.227.218-.45.339-.667a.785.785 0 0 1 .062-.063c.057-.02.115-.036.174-.048a.202.202 0 0 0 .083-.063.115.115 0 0 1 .058.029c0 .024.008.045.024.063a.265.265 0 0 0 .135-.01.127.127 0 0 0 .005-.082.553.553 0 0 1-.034-.126.304.304 0 0 0 .194-.092c.052-.016.08.004.087.058a.342.342 0 0 1-.058.13Zm-1.315-.115a.067.067 0 0 1 .01.029l-.136.164c-.009.007-.012.016-.01.029a.06.06 0 0 0 .048-.01.592.592 0 0 1 .237-.067c.106-.002.148.05.126.154a3.38 3.38 0 0 1-.198.522c0-.014-.006-.024-.02-.029a.068.068 0 0 0-.028-.038c0-.015-.006-.025-.02-.03a.068.068 0 0 0-.029-.038c0-.015-.006-.024-.02-.029a.737.737 0 0 0-.26-.247.47.47 0 0 1-.102-.169.057.057 0 0 1 .005-.053.17.17 0 0 1 .087.01.214.214 0 0 0 .135.034.093.093 0 0 0-.01-.097.266.266 0 0 1-.207-.106.048.048 0 0 1-.005-.03 2.1 2.1 0 0 1 .397 0Zm3.877-.01a.063.063 0 0 0 .03.029.14.14 0 0 1-.035.077.823.823 0 0 0-.072.078c-.014.004-.02.014-.02.029-.013.004-.02.014-.019.029-.033.046-.023.082.029.106a.342.342 0 0 0 .15.193c.015.02.026.04.034.063a.038.038 0 0 1-.01.02.439.439 0 0 0 .053.033c.02.026.02.052 0 .078-.046.014-.06.043-.043.087a.1.1 0 0 1-.015.048l-.116.078a.024.024 0 0 0 0 .029.55.55 0 0 0 .092.082.04.04 0 0 0 .039 0 .151.151 0 0 1 .082-.073.28.28 0 0 0 .12.015.546.546 0 0 0 .025-.15.246.246 0 0 1 .039-.087.08.08 0 0 1 .048-.02c.033.014.063.029.092.044a.28.28 0 0 0-.049-.072c.001-.015-.005-.025-.019-.03a.152.152 0 0 0-.106-.062c-.012-.012-.012-.023 0-.034a.837.837 0 0 1 .193-.024l.024-.025a.945.945 0 0 1 .049-.145.042.042 0 0 1 .038-.019c.02.004.037.01.054.02.004.013.014.02.029.019.103.095.195.202.275.319a.853.853 0 0 1 .049.251c.011.429.011.857 0 1.286a.44.44 0 0 1-.092.16.098.098 0 0 1-.039.014 2.444 2.444 0 0 0-.14-.048.055.055 0 0 0-.058.029l-.107-.039a.042.042 0 0 0-.029.02.625.625 0 0 0-.13-.097.762.762 0 0 0-.145.073.784.784 0 0 1-.116.029 1.93 1.93 0 0 1-.542-.01.349.349 0 0 0-.067-.087.112.112 0 0 0-.097-.005c-.015 0-.025.006-.03.02-.086.118-.18.123-.28.014a.158.158 0 0 0 .068-.102.068.068 0 0 0-.043-.067c-.115.042-.158.122-.13.241a.09.09 0 0 1-.098.024c-.216-.04-.308-.17-.275-.391a35.124 35.124 0 0 0-.092-1.073.998.998 0 0 1 .155-.373.062.062 0 0 1 .048 0 .237.237 0 0 1 .024.102c.027.01.054.012.082.005a.212.212 0 0 1 .087-.058l.155-.025a.13.13 0 0 0 .02-.116 4.514 4.514 0 0 1-.204-.096.374.374 0 0 1 .058-.111.024.024 0 0 1 .03 0c.014.038.04.066.077.082A.356.356 0 0 1 9.483 12c.054.01.105.027.155.048a.179.179 0 0 1 .184-.043.534.534 0 0 0 .039.053c.063-.068.07-.142.024-.222a.063.063 0 0 1 0-.049.65.65 0 0 1 .343-.135Zm1.025.135c-.014.005-.02.014-.02.03a.03.03 0 0 0-.019.019c-.013.004-.02.014-.019.029.003.01.01.017.024.019a.885.885 0 0 1 .28-.087c.049.001.08.024.097.068a.412.412 0 0 1-.019.174 2.96 2.96 0 0 1-.14.329c-.014.004-.02.014-.02.028a.287.287 0 0 1-.029.034c-.01.008-.02.006-.029-.005a.298.298 0 0 0-.053-.087c-.126-.118-.25-.237-.372-.357 0-.015-.006-.025-.02-.03a.103.103 0 0 1 0-.082c.066.001.13.01.194.025.032.003.048-.012.048-.044a.076.076 0 0 0-.038-.068 1.351 1.351 0 0 1-.194-.096.07.07 0 0 1 .03-.02c.125-.019.25-.019.376 0 .008.01.006.022-.005.034a.934.934 0 0 1-.072.087Z" clip-rule="evenodd" opacity=".995"/>
      <path fill="#D3BC8F" fill-rule="evenodd" d="M9.85 4.11c.016.002.022.012.02.028a.068.068 0 0 1-.02-.029Z" clip-rule="evenodd"/>
      <path fill="#DCCCA9" fill-rule="evenodd" d="M9.619 4.138c.005-.015.014-.02.029-.015a.032.032 0 0 1-.03.015Z" clip-rule="evenodd"/>
      <path fill="#D3BD90" fill-rule="evenodd" d="M9.232 4.525c.015.003.021.013.02.03a.068.068 0 0 1-.02-.03Z" clip-rule="evenodd"/>
      <path fill="#A27B1F" fill-rule="evenodd" d="M5.857 4.67a.044.044 0 0 1 .044.019.2.2 0 0 0 .135.164.081.081 0 0 0 .039-.039.135.135 0 0 1 .039.03.411.411 0 0 1 .014.217.156.156 0 0 1-.034.014.282.282 0 0 0-.12-.004.637.637 0 0 1-.097.043c.034-.092.01-.166-.073-.222a.204.204 0 0 1-.024.096.205.205 0 0 1-.116-.087.644.644 0 0 1 .193-.232Z" clip-rule="evenodd" opacity=".93"/>
      <path fill="#A27B1F" fill-rule="evenodd" d="M5.519 4.7c.02.001.04.006.058.014l.048.072.049-.02c.004.04-.016.062-.058.069a1.191 1.191 0 0 1-.073-.02l-.014.01c.042.08.02.114-.068.101a.118.118 0 0 1-.106-.077.253.253 0 0 1 .164-.15Z" clip-rule="evenodd" opacity=".89"/>
      <path fill="#D4C196" fill-rule="evenodd" d="M8.942 4.94h-.02a.092.092 0 0 1 .025-.02c.006.01.005.016-.005.02Z" clip-rule="evenodd"/>
      <path fill="#C4A86E" fill-rule="evenodd" d="M8.477 5.058c.01.03-.003.049-.038.057a.172.172 0 0 0 .038-.057Z" clip-rule="evenodd"/>
      <path fill="#CEB989" fill-rule="evenodd" d="M9.174 5.076a.115.115 0 0 0 .058.01.045.045 0 0 1-.03.01c-.014-.002-.023-.008-.028-.02Z" clip-rule="evenodd"/>
      <path fill="#D1BA8B" fill-rule="evenodd" d="M7.066 5.377c.004.021-.003.037-.02.048a.109.109 0 0 1 .02-.048Z" clip-rule="evenodd"/>
      <path fill="#D0B889" fill-rule="evenodd" d="M6.95 5.386a.283.283 0 0 0 .029.048c-.025-.006-.035-.022-.029-.048Z" clip-rule="evenodd"/>
      <path fill="#E9DEC8" fill-rule="evenodd" d="M7.859 5.453a.055.055 0 0 0-.01.029c-.013-.014-.01-.024.01-.029Z" clip-rule="evenodd"/>
      <path fill="#DBCBA8" fill-rule="evenodd" d="m7.956 5.666.019.02c0 .004-.004.008-.01.009a.03.03 0 0 1-.01-.029Z" clip-rule="evenodd"/>
      <path fill="#D3BE92" fill-rule="evenodd" d="M12.752 5.83v-.009c.016.004.021.013.014.029a.032.032 0 0 0-.014-.02Z" clip-rule="evenodd"/>
      <path fill="#D3BB8E" fill-rule="evenodd" d="M11.64 6.401c.015.003.021.013.019.03a.067.067 0 0 1-.02-.03Z" clip-rule="evenodd"/>
      <path fill="#D0BA8B" fill-rule="evenodd" d="M12.258 6.38c.001.015-.005.025-.019.03 0-.015.006-.025.02-.03Z" clip-rule="evenodd"/>
      <path fill="#D0B98A" fill-rule="evenodd" d="M11.978 6.517c.014.004.02.014.02.028-.014-.004-.02-.014-.02-.028Z" clip-rule="evenodd"/>
      <path fill="#C3A66B" fill-rule="evenodd" d="M6.002 6.556c.02.04.007.059-.038.057.03-.005.043-.025.038-.057Z" clip-rule="evenodd"/>
      <path fill="#D6C095" fill-rule="evenodd" d="M6.37 6.623c.015.003.021.013.019.029a.068.068 0 0 1-.02-.029Z" clip-rule="evenodd"/>
      <path fill="#E5D9C0" fill-rule="evenodd" d="M7.385 6.826c0-.005.004-.008.01-.01a.107.107 0 0 1 .01.058l-.02-.048Z" clip-rule="evenodd"/>
      <path fill="#E8DEC7" fill-rule="evenodd" d="M7.356 6.885c.019.002.022.008.01.019l-.01-.02Z" clip-rule="evenodd"/>
      <path fill="#D3BE91" fill-rule="evenodd" d="M13.177 6.874c.01.001.017.008.02.02a.021.021 0 0 1-.01.018.067.067 0 0 0-.01-.038Z" clip-rule="evenodd"/>
      <path fill="#CFB685" fill-rule="evenodd" d="M10.054 6.913c.01.014.012.03.005.048a.027.027 0 0 1-.024.01.069.069 0 0 0 .019-.058Z" clip-rule="evenodd"/>
      <path fill="#C5A96E" fill-rule="evenodd" d="M7.327 7.049c-.008.014-.021.02-.039.019a.044.044 0 0 1-.029-.01.205.205 0 0 0 .068-.01Z" clip-rule="evenodd"/>
      <path fill="#A27B1F" fill-rule="evenodd" d="M14.434 7.077a.06.06 0 0 1 .049.053c-.024.09-.082.134-.174.13a.213.213 0 0 1 .125-.183Z" clip-rule="evenodd" opacity=".872"/>
      <path fill="#D4BF93" fill-rule="evenodd" d="M13.09 7.107c.015 0 .024.006.029.02-.015 0-.024-.006-.029-.02Z" clip-rule="evenodd"/>
      <path fill="#D2BB8D" fill-rule="evenodd" d="M9.048 7.272c.015-.001.025.005.03.019-.016 0-.025-.006-.03-.02Z" clip-rule="evenodd"/>
      <path fill="#D3BD90" fill-rule="evenodd" d="M13.11 7.29c0 .015-.006.024-.02.029 0-.015.006-.024.02-.029Z" clip-rule="evenodd"/>
      <path fill="#D4BF93" fill-rule="evenodd" d="M11.978 7.368c.015 0 .024.006.029.02-.015 0-.024-.006-.029-.02Z" clip-rule="evenodd"/>
      <path fill="#D0B889" fill-rule="evenodd" d="M9 7.368c.013.005.02.014.02.029-.014-.005-.02-.014-.02-.029Z" clip-rule="evenodd"/>
      <path fill="#D2B98B" fill-rule="evenodd" d="M13.748 7.396c.015.004.021.013.019.03a.068.068 0 0 1-.02-.03Z" clip-rule="evenodd"/>
      <path fill="#DFCFAE" fill-rule="evenodd" d="M12.452 7.493c.012.007.024.01.038.01-.004.006-.01.009-.019.01-.011-.003-.018-.01-.019-.02Z" clip-rule="evenodd"/>
      <path fill="#DCCCA8" fill-rule="evenodd" d="M5.47 7.513a.031.031 0 0 0 .03.01c-.012.012-.025.012-.04 0 .002-.007.005-.01.01-.01Z" clip-rule="evenodd"/>
      <path fill="#D3BC8F" fill-rule="evenodd" d="M7.085 7.56c.015.004.022.013.02.03a.068.068 0 0 1-.02-.03Z" clip-rule="evenodd"/>
      <path fill="#D0B888" fill-rule="evenodd" d="M7.105 7.62c.002.015-.005.025-.02.028a.068.068 0 0 1 .02-.029Z" clip-rule="evenodd"/>
      <path fill="#D3BD90" fill-rule="evenodd" d="M8.865 7.687c.014.003.02.012.019.028a.068.068 0 0 1-.02-.028Z" clip-rule="evenodd"/>
      <path fill="#D4C095" fill-rule="evenodd" d="M13.506 8.75c.012.007.024.01.038.01-.004.006-.01.009-.019.01-.011-.003-.018-.01-.019-.02Z" clip-rule="evenodd"/>
      <path fill="#D1B888" fill-rule="evenodd" d="M3.614 9.38c.012.004.021.01.029.02-.016.001-.026-.005-.029-.02Z" clip-rule="evenodd"/>
      <path fill="#E6DBC2" fill-rule="evenodd" d="M14.057 9.775a.068.068 0 0 1-.02.03c-.001-.017.005-.027.02-.03Z" clip-rule="evenodd"/>
      <path fill="#D0BA8A" fill-rule="evenodd" d="M14.463 10.046c0 .014-.005.024-.019.029 0-.015.006-.025.02-.03Z" clip-rule="evenodd"/>
      <path fill="#D4C095" fill-rule="evenodd" d="M6.496 10.414c0-.005.003-.008.01-.01a.03.03 0 0 1 .009.029l-.02-.02Z" clip-rule="evenodd"/>
      <path fill="#E6DBC2" fill-rule="evenodd" d="m4.31 10.48.029.02a.121.121 0 0 1-.048-.005.042.042 0 0 1 .02-.014Z" clip-rule="evenodd"/>
      <path fill="#D3BF93" fill-rule="evenodd" d="M4.6 10.607c.014.014.01.024-.01.03a.055.055 0 0 0 .01-.03Z" clip-rule="evenodd"/>
      <path fill="#D4BF94" fill-rule="evenodd" d="M5.016 10.626c.011.003.018.01.02.024a.038.038 0 0 1-.01.024.088.088 0 0 0-.01-.048Z" clip-rule="evenodd"/>
      <path fill="#C8AE76" fill-rule="evenodd" d="M10.615 10.607a.107.107 0 0 1-.02.068c0-.026.006-.048.02-.068Z" clip-rule="evenodd"/>
      <path fill="#D1B989" fill-rule="evenodd" d="M13.1 10.714c.013.004.02.014.02.029-.014-.005-.02-.014-.02-.03Z" clip-rule="evenodd"/>
      <path fill="#D1BB8D" fill-rule="evenodd" d="M3.334 10.927c.014 0 .024.005.028.019-.014 0-.024-.006-.028-.02Z" clip-rule="evenodd"/>
      <path fill="#CFB888" fill-rule="evenodd" d="M3.363 10.945c.014 0 .024.006.028.02-.014 0-.024-.006-.028-.02Z" clip-rule="evenodd"/>
      <path fill="#D1BC8E" fill-rule="evenodd" d="M3.188 10.965a.277.277 0 0 0 .02.019c-.002.006-.005.009-.01.01a.33.33 0 0 0-.02-.02c.002-.005.005-.009.01-.01Z" clip-rule="evenodd"/>
      <path fill="#D7C49C" fill-rule="evenodd" d="M10.334 11.042c.005 0 .009.004.01.01a.315.315 0 0 0-.02.019c-.005 0-.008-.004-.009-.01a.313.313 0 0 0 .02-.019Z" clip-rule="evenodd"/>
      <path fill="#D3BA8D" fill-rule="evenodd" d="M9.89 11.12h.01l.018.018c-.016.002-.025-.004-.028-.019Z" clip-rule="evenodd"/>
      <path fill="#D1B98A" fill-rule="evenodd" d="M4.61 11.34c-.015.018-.034.024-.058.02a.19.19 0 0 1 .057-.02Z" clip-rule="evenodd"/>
      <path fill="#CEB888" fill-rule="evenodd" d="M9.464 11.517c.02.005.023.014.01.028 0-.01-.004-.02-.01-.028Z" clip-rule="evenodd"/>
      <path fill="#D6C096" fill-rule="evenodd" d="M10.228 11.65c.02 0 .029.01.029.03a.063.063 0 0 1-.029-.03Z" clip-rule="evenodd"/>
      <path fill="#D3BF94" fill-rule="evenodd" d="M6.35 11.66c.02.005.023.015.01.029 0-.01-.004-.02-.01-.029Z" clip-rule="evenodd"/>
      <path fill="#A27B1F" fill-rule="evenodd" d="M3.295 11.68a.48.48 0 0 1 .068.034c.064.01.129.019.193.03.068.037.095.093.082.169-.093.132-.2.142-.319.029a.65.65 0 0 1-.048-.232.102.102 0 0 0 .024-.03Z" clip-rule="evenodd" opacity=".943"/>
      <path fill="#D4C196" fill-rule="evenodd" d="M8.033 11.796c-.013 0-.02.007-.02.02-.008-.007-.011-.017-.009-.03.012-.001.022.002.029.01Z" clip-rule="evenodd"/>
      <path fill="#D1BA8B" fill-rule="evenodd" d="M7.665 11.776c.001.015-.005.025-.019.03 0-.015.006-.025.02-.03Z" clip-rule="evenodd"/>
      <path fill="#D4BE92" fill-rule="evenodd" d="M11.253 11.787c0 .015-.006.024-.02.029 0-.015.006-.024.02-.029Z" clip-rule="evenodd"/>
      <path fill="#D0B989" fill-rule="evenodd" d="M10.15 11.836c.001.015-.005.024-.019.029 0-.015.006-.024.02-.03Z" clip-rule="evenodd"/>
      <path fill="#D2BC90" fill-rule="evenodd" d="M11.214 11.836c0 .015-.005.024-.019.029 0-.015.006-.024.02-.03Z" clip-rule="evenodd"/>
      <path fill="#D0B98A" fill-rule="evenodd" d="M6.225 11.855c.006.016.02.023.038.02a.066.066 0 0 1-.048.01c-.002-.013.001-.023.01-.03Z" clip-rule="evenodd"/>
      <path fill="#D4C094" fill-rule="evenodd" d="M10.131 11.863c0 .015-.005.024-.019.029 0-.015.006-.024.02-.029Z" clip-rule="evenodd"/>
      <path fill="#D4BF93" fill-rule="evenodd" d="M10.915 11.952c.013.005.02.014.019.029-.014-.005-.02-.014-.02-.029Z" clip-rule="evenodd"/>
      <path fill="#A27B1F" fill-rule="evenodd" d="M13.97 11.98c.11.006.175.064.194.173a.049.049 0 0 1-.02.044.41.41 0 0 1-.12-.024.408.408 0 0 0 0-.087.413.413 0 0 1-.054-.107Z" clip-rule="evenodd" opacity=".874"/>
      <path fill="#CFB887" fill-rule="evenodd" d="M10.915 12.048c.014 0 .024.006.028.02-.014 0-.024-.007-.028-.02Z" clip-rule="evenodd"/>
      <path fill="#D2BC8E" fill-rule="evenodd" d="M6.312 12.318c.013.005.02.014.019.03-.013-.005-.02-.015-.02-.03Z" clip-rule="evenodd"/>
      <path fill="#CFB888" fill-rule="evenodd" d="M10.663 12.338c.014.004.02.014.02.029-.014-.005-.02-.015-.02-.03Z" clip-rule="evenodd"/>
      <path fill="#D0B98A" fill-rule="evenodd" d="M11.437 12.367c0 .015-.006.024-.02.029 0-.015.006-.024.02-.029Z" clip-rule="evenodd"/>
      <path fill="#D2BD90" fill-rule="evenodd" d="M6.36 12.387c.014.004.02.014.02.028-.014-.004-.02-.014-.02-.028Z" clip-rule="evenodd"/>
      <path fill="#D4BE93" fill-rule="evenodd" d="M6.409 12.454c.013.005.02.014.019.029-.014-.005-.02-.014-.02-.029Z" clip-rule="evenodd"/>
      <path fill="#D9C7A1" fill-rule="evenodd" d="M7.83 13.973a.032.032 0 0 1 .024-.01c.013.002.021.008.024.02a.087.087 0 0 0-.048-.01Z" clip-rule="evenodd"/>
      <path fill="#D1B98A" fill-rule="evenodd" d="M9.706 13.962c-.005.014-.014.02-.03.02.005-.014.015-.02.03-.02Z" clip-rule="evenodd"/>
      <path fill="#CCB583" fill-rule="evenodd" d="m6.834 14.039-.02-.02a.08.08 0 0 1 .015-.047.239.239 0 0 1 .005.067Z" clip-rule="evenodd"/>
    </g>
  </g>
  <defs>
    <clipPath id="a">
      <path fill="#fff" d="M0 0h18v18H0z"/>
    </clipPath>
    <clipPath id="b">
      <path fill="#fff" d="M3 3.35h12v11.101H3z"/>
    </clipPath>
  </defs>
</svg>
