<svg xmlns="http://www.w3.org/2000/svg" viewBox="0 0 18 18">
  <g clip-path="url(#a)">
    <path fill="#EF7622" d="M0 0h18v18H0V0Z"/>
    <path fill="#fff" d="M10.938 9.842c-.673 0-1.058.337-1.106 1.591 0 .772-.433.965-.818.965-.673 0-.914-.676-.914-2.315v-2.17c0-1.302.049-2.266.914-2.266.481 0 .818.337.818.916 0 .916.385 1.254 1.106 1.254.625 0 1.058-.386 1.058-1.254s-.529-2.652-3.03-2.652c-2.645 0-3.126 1.495-3.174 3.52H-.846c-.817 0-1.154.53-1.154 1.06 0 .628.337 1.11 1.154 1.11h6.638v.29c0 2.314.288 4.194 3.174 4.194 2.55 0 3.03-2.025 3.03-2.99.048-.82-.384-1.253-1.058-1.253Z"/>
  </g>
  <defs>
    <clipPath id="a">
      <path fill="#fff" d="M0 0h18v18H0z"/>
    </clipPath>
  </defs>
</svg>
