<svg xmlns="http://www.w3.org/2000/svg" viewBox="0 0 18 18">
  <g clip-path="url(#a)">
    <path fill="#fff" d="M0 0h18v18H0V0Z"/>
    <path fill="#003D79" d="M10.797 6.389a3.22 3.22 0 0 0-1.242 4.385c.774 1.38 2.449 2 3.937 1.45a5.5 5.5 0 0 0 .281-5.905 3.189 3.189 0 0 0-2.976.07Zm-4.37 3.637c.293.526.668.994 1.113 1.391a5.621 5.621 0 0 1-.527-.771 5.358 5.358 0 0 1 1.804-7.134 5.435 5.435 0 0 0-1.933.397 5.589 5.589 0 0 0-.457 6.117Z"/>
    <path fill="#003D79" d="M5.818 10.365a6.208 6.208 0 0 1-.176-5.754C3.23 6.482 2.784 9.956 4.67 12.365c1.816 2.327 5.155 2.83 7.568 1.123-.304.046-.62.07-.937.07a6.261 6.261 0 0 1-5.483-3.193Z"/>
    <path fill="#003D79" d="M10.141 5.242a3.904 3.904 0 0 0-1.359 5.544 3.941 3.941 0 0 1 1.675-5.006 3.97 3.97 0 0 1 2.636-.432 4.8 4.8 0 0 0-.609-.585 3.824 3.824 0 0 0-2.343.48Z"/>
    <path fill="#003D79" d="M7.622 10.307c.13.233.281.456.445.654-.011-.023-.035-.046-.046-.07-1.242-2.21-.446-5.017 1.769-6.256a4.77 4.77 0 0 1 1.64-.55 6.251 6.251 0 0 0-1.289-.456 4.671 4.671 0 0 0-2.519 6.678Z"/>
    <path fill="#fff" d="M13.492 12.224a3.23 3.23 0 0 1-4.148-1.894 3.215 3.215 0 0 1 1.898-4.14 3.255 3.255 0 0 1 2.543.117c-.2-.34-.422-.667-.691-.96a3.926 3.926 0 0 0-4.581 3.135 3.991 3.991 0 0 0 .27 2.304 3.893 3.893 0 0 1 3.257-6.034c.151 0 .292.011.444.023a5.583 5.583 0 0 0-1.054-.679 4.537 4.537 0 0 0-1.64.55 4.58 4.58 0 0 0-1.77 6.245c.012.024.036.047.047.07a4.637 4.637 0 0 1 1.348-7.005c.234-.129.48-.234.726-.327A5.755 5.755 0 0 0 8.946 3.5h-.14C6.415 5.032 5.618 8.155 7 10.634c.153.269.328.526.527.772a5.55 5.55 0 0 1-1.113-1.392 5.57 5.57 0 0 1 .47-6.105c-.446.176-.856.41-1.243.702a6.255 6.255 0 0 0 2.94 8.35 6.249 6.249 0 0 0 3.656.55c.48-.374.902-.807 1.254-1.287Z"/>
  </g>
  <defs>
    <clipPath id="a">
      <path fill="#fff" d="M0 0h18v18H0z"/>
    </clipPath>
  </defs>
</svg>
