<svg xmlns="http://www.w3.org/2000/svg" viewBox="0 0 18 18">
  <g clip-path="url(#a)">
    <path fill="#FCFCFC" d="M0 0h18v18H0V0Z"/>
    <g clip-path="url(#b)">
      <path fill="#00ACED" fill-rule="evenodd" d="M8.183 4.382c.275-.29.543-.59.816-.881.273.292.542.587.814.881.92.158 1.787.604 2.455 1.254a4.7 4.7 0 0 1 1.36 2.528c.01.035.009.08.04.104.276.254.549.51.826.763-.28.264-.569.521-.847.788a4.741 4.741 0 0 1-2.132 3.204 4.74 4.74 0 0 1-1.71.663c-.275.282-.537.578-.805.867-.266-.289-.533-.575-.796-.866a4.72 4.72 0 0 1-3.85-3.87 90.588 90.588 0 0 1-.848-.786c.282-.259.56-.522.845-.778A4.744 4.744 0 0 1 5.513 5.86a4.705 4.705 0 0 1 2.67-1.478Zm.333.646a4.025 4.025 0 0 0-2.489 1.29 4.037 4.037 0 0 0-.94 1.771 4.036 4.036 0 0 0 2.114 4.55 3.996 3.996 0 0 0 2.296.395 4.012 4.012 0 0 0 2.465-1.278 4.023 4.023 0 0 0 .655-4.483 4.043 4.043 0 0 0-1.626-1.743 3.998 3.998 0 0 0-2.475-.502Zm.47.627.799 2.59c.84.26 1.679.523 2.518.785-.838.25-1.681.486-2.52.734-.265.88-.531 1.759-.799 2.637-.26-.88-.516-1.759-.777-2.638-.836-.247-1.676-.482-2.51-.734l2.512-.785c.26-.863.512-1.727.777-2.589Z" clip-rule="evenodd"/>
    </g>
  </g>
  <defs>
    <clipPath id="a">
      <path fill="#fff" d="M0 0h18v18H0z"/>
    </clipPath>
    <clipPath id="b">
      <path fill="#fff" d="M3.5 3.5h11v11.057h-11z"/>
    </clipPath>
  </defs>
</svg>
