<svg xmlns="http://www.w3.org/2000/svg" viewBox="0 0 18 18">
  <g clip-path="url(#a)">
    <path fill="#EBEBEA" d="M0 0h18v18H0V0Z"/>
    <path fill="#2F3033" d="M10.887 11.744a.22.22 0 0 0 .123-.034 3.46 3.46 0 0 0 1.296-2.552 3.431 3.431 0 0 0-1.117-2.71.182.182 0 0 0-.269.01.186.186 0 0 0 .012.272 3.05 3.05 0 0 1 .994 2.405 3.046 3.046 0 0 1-1.151 2.259.188.188 0 0 0-.034.27c.034.057.09.08.145.08Z"/>
    <path fill="#2F3033" d="M10.373 10.638c.045.034.09.056.134.056.056 0 .1-.01.145-.045a2.36 2.36 0 0 0 .637-1.626 2.39 2.39 0 0 0-1.106-2.033.195.195 0 0 0-.268.056c-.056.09-.034.215.055.271a1.995 1.995 0 0 1 .392 3.05c-.067.079-.067.203.011.271Z"/>
    <path fill="#2F3033" d="M12.138 12.4a.685.685 0 0 0-.871-.057 3.992 3.992 0 0 1-2.325.745c-2.235 0-4.045-1.84-4.034-4.088a4.52 4.52 0 0 1 1.095-2.913 3.998 3.998 0 0 1 3.889-1.062c.09.022.156.09.2.17a.3.3 0 0 1 .012.259v.011a.307.307 0 0 1-.369.192 3.164 3.164 0 0 0-.86-.112c-.905 0-1.743.35-2.38.982a3.425 3.425 0 0 0-1.006 2.394 3.437 3.437 0 0 0 1.391 2.82c.625.467 1.788.746 2.553.618l.022-.005a.698.698 0 0 0 .458-.293c.112-.158.146-.35.112-.543v-.01a.69.69 0 0 0-.804-.566c-.123.023-.258.023-.38.023-1.073-.034-1.934-.938-1.934-2.01 0-.531.213-1.028.581-1.4a1.93 1.93 0 0 1 1.386-.577c.1 0 .19-.09.19-.192a.197.197 0 0 0-.19-.192 2.34 2.34 0 0 0-1.654.689 2.403 2.403 0 0 0-.693 1.671c-.01 1.299 1.028 2.372 2.302 2.406.156 0 .313-.011.458-.034a.327.327 0 0 1 .369.26v.011a.375.375 0 0 1-.056.249.275.275 0 0 1-.2.135 2.986 2.986 0 0 1-2.66-.87 3.026 3.026 0 0 1-.86-2.168 3.057 3.057 0 0 1 .893-2.123 2.976 2.976 0 0 1 2.872-.768.7.7 0 0 0 .828-.418v-.01a.694.694 0 0 0-.47-.938 4.27 4.27 0 0 0-1.14-.147 4.404 4.404 0 0 0-3.106 1.31A4.504 4.504 0 0 0 4.483 9c0 2.451 1.977 4.461 4.414 4.461.928 0 1.8-.282 2.548-.812a.301.301 0 0 1 .391.022l.023.023c.066.068.111.158.1.248 0 .09-.044.17-.123.226a5.05 5.05 0 0 1-2.928.938h-.056c-2.738-.023-4.984-2.315-4.984-5.104 0-1.367.525-2.643 1.486-3.614a5.043 5.043 0 0 1 3.578-1.492c1.095 0 2.134.339 3.006.994.09.056.201.045.269-.046.055-.09.044-.203-.045-.27A5.368 5.368 0 0 0 8.932 3.5a5.355 5.355 0 0 0-3.845 1.615A5.544 5.544 0 0 0 3.5 9c0 1.456.548 2.823 1.565 3.862a5.342 5.342 0 0 0 3.8 1.638h.066c1.14 0 2.224-.35 3.152-1.005a.705.705 0 0 0 .29-.52.66.66 0 0 0-.212-.553l-.023-.023Z"/>
    <path fill="#2F3033" d="M11.468 5.341a.183.183 0 0 0-.269.045.188.188 0 0 0 .045.272 4.04 4.04 0 0 1 1.743 3.433 3.987 3.987 0 0 1-.804 2.372c-.067.09-.056.203.034.27a.187.187 0 0 0 .11.035.194.194 0 0 0 .157-.08c.559-.745.86-1.648.883-2.585a4.484 4.484 0 0 0-1.9-3.761Z"/>
    <path fill="#2F3033" d="M13.2 5.613a.184.184 0 0 0-.268-.034.188.188 0 0 0-.034.271 5.068 5.068 0 0 1 1.084 2.993 5.131 5.131 0 0 1-.883 3.06.188.188 0 0 0 .045.272.214.214 0 0 0 .112.033.212.212 0 0 0 .156-.079c.66-.971.983-2.112.95-3.286a5.448 5.448 0 0 0-1.163-3.23h.001Z"/>
  </g>
  <defs>
    <clipPath id="a">
      <path fill="#fff" d="M0 0h18v18H0z"/>
    </clipPath>
  </defs>
</svg>
