<svg xmlns="http://www.w3.org/2000/svg" viewBox="0 0 18 18">
  <g clip-path="url(#a)">
    <path fill="#243454" d="M0 0h18v18H0V0Z"/>
    <path fill="#00AEEF" fill-rule="evenodd" d="M3.5 9.479C3.5 6.46 5.984 4.011 9 4c3.058.011 5.5 2.46 5.5 5.479a5.466 5.466 0 0 1-1.85 4.106.463.463 0 0 1-.309.113.485.485 0 0 1-.417-.237L9.285 9.01a.332.332 0 0 0-.57 0l-2.639 4.45a.485.485 0 0 1-.417.237.464.464 0 0 1-.308-.113A5.466 5.466 0 0 1 3.5 9.479Zm5.321.2a.23.23 0 0 1 .4 0l2.127 3.684a.23.23 0 0 1-.2.346H6.894a.23.23 0 0 1-.2-.346l2.127-3.685Zm4.36-.053c.149 0 .27-.121.262-.27a4.7 4.7 0 0 0-1.296-2.996A4.37 4.37 0 0 0 9 5.008 4.37 4.37 0 0 0 5.853 6.36a4.7 4.7 0 0 0-1.296 2.996.259.259 0 0 0 .263.27.283.283 0 0 0 .278-.27 4.128 4.128 0 0 1 1.137-2.6A3.84 3.84 0 0 1 9 5.569a3.84 3.84 0 0 1 2.765 1.189 4.128 4.128 0 0 1 1.137 2.599c.01.149.13.27.278.27Zm-1.631-.021a.247.247 0 0 0 .252-.263 3.092 3.092 0 0 0-.813-1.86A2.726 2.726 0 0 0 9 6.603c-.746 0-1.462.316-1.99.88-.468.5-.754 1.16-.812 1.859a.247.247 0 0 0 .252.263.286.286 0 0 0 .277-.263 2.51 2.51 0 0 1 .657-1.462A2.216 2.216 0 0 1 9 7.165c.606 0 1.188.257 1.617.715.37.395.6.912.656 1.462a.286.286 0 0 0 .277.263Z" clip-rule="evenodd"/>
  </g>
  <defs>
    <clipPath id="a">
      <path fill="#fff" d="M0 0h18v18H0z"/>
    </clipPath>
  </defs>
</svg>
