<svg xmlns="http://www.w3.org/2000/svg" viewBox="0 0 18 18">
  <g clip-path="url(#a)">
    <path fill="#C2002F" d="M0 0h18v18H0V0Z"/>
    <path fill="#fff" fill-rule="evenodd" d="M8.683 10.22v.474A1.1 1.1 0 0 1 8 11.714a1.1 1.1 0 0 1-.423.083H4.105A1.106 1.106 0 0 1 3 10.694v-2.84a1.1 1.1 0 0 1 .682-1.02c.134-.055.278-.084.423-.084h3.472a1.1 1.1 0 0 1 .782.323 1.102 1.102 0 0 1 .324.78v.475l-1.58.315v-.63H4.579v2.522h2.526v-.63l1.579.315Zm6.314-.71a1.022 1.022 0 0 1-1.026 1.025h-3.078v1.262H9.314V6.75h4.657a1.018 1.018 0 0 1 .755.328 1.027 1.027 0 0 1 .271.776V9.51Zm-4.104-.236h2.526V8.012h-2.526v1.262Z" clip-rule="evenodd"/>
  </g>
  <defs>
    <clipPath id="a">
      <path fill="#fff" d="M0 0h18v18H0z"/>
    </clipPath>
  </defs>
</svg>
