<svg xmlns="http://www.w3.org/2000/svg" viewBox="0 0 18 18">
  <g clip-path="url(#a)">
    <path fill="#00A9EA" d="M0 0h18v18H0V0Z"/>
    <path fill="#fff" fill-rule="evenodd" d="M12.946 12.773s-1.429 1.28-3.622 1.225c-2.98-.074-4.924-1.929-4.924-4.9C4.4 6.223 6.362 4.01 9.717 4c1.77-.005 3.249 1.534 3.249 1.534l-1.662 1.58c.026-.026-.736-.547-.791-.58-.878-.528-2.005-.537-2.808.157-.667.576-.843 1.46-.833 2.308 0 1.968 1.169 2.975 2.816 2.975.825 0 1.645-.81 1.645-.81l1.613 1.609Z" clip-rule="evenodd"/>
  </g>
  <defs>
    <clipPath id="a">
      <path fill="#fff" d="M0 0h18v18H0z"/>
    </clipPath>
  </defs>
</svg>
