<svg xmlns="http://www.w3.org/2000/svg" viewBox="0 0 18 18">
  <g clip-path="url(#a)">
    <path fill="#fff" d="M0 0h18v18H0V0Z"/>
    <g clip-path="url(#b)">
      <path fill="#ED1C24" d="M6.407 4.934c.034 0 .057.03.056.066a.1.1 0 0 1-.031.067c-.834 1.036-1.441 2.248-1.441 3.93 0 1.68.607 2.87 1.441 3.906.021.02.03.045.031.066.001.036-.022.067-.056.067-.018 0-.04-.01-.064-.033L2.791 9.566c-.178-.152-.291-.33-.291-.581 0-.254.113-.43.29-.581l3.553-3.438c.023-.024.046-.033.064-.032Z"/>
      <path fill="#005BAB" d="M10.624 5.567a.34.34 0 0 1-.107.245c-.396.382-.551.764-.552 1.102-.002.644.556 1.123 1.07 1.123.709 0 1.126-.557 1.126-1.277 0-.682-.291-1.251-.608-1.706a.107.107 0 0 1-.018-.057c.001-.037.021-.066.053-.066.02 0 .042.01.066.035l3.554 3.438c.177.15.291.328.291.581 0 .252-.114.43-.291.581l-3.554 3.437c-.024.025-.047.035-.066.035-.031 0-.052-.029-.053-.065 0-.018.006-.039.018-.058.317-.455.608-1.024.608-1.706 0-.72-.417-1.277-1.126-1.277-.514 0-1.072.48-1.07 1.124.001.337.156.719.552 1.101a.342.342 0 0 1 .107.246c-.002.402-.714.89-1.548.89-1.392 0-1.936-1.944-1.936-4.296 0-2.35.544-4.322 1.936-4.322.834 0 1.546.489 1.548.892Z"/>
    </g>
  </g>
  <defs>
    <clipPath id="a">
      <path fill="#fff" d="M0 0h18v18H0z"/>
    </clipPath>
    <clipPath id="b">
      <path fill="#fff" d="M2.5 4.668h13v8.634h-13z"/>
    </clipPath>
  </defs>
</svg>
