<svg xmlns="http://www.w3.org/2000/svg" viewBox="0 0 18 18">
  <g clip-path="url(#a)">
    <path fill="#fff" d="M0 0h18v18H0V0Z"/>
    <path fill="#3D90CF" d="M12.184 11.828h-3.71s-.318-1.396-.318-2.009c0-.532-.049-3.183 2.776-3.069 1.12.045 1.817 1.03 1.817 1.473-.282 0-1.362.26-2.06 1.526 0 0 .968-.976 1.978-.976 1.025 0 1.466 1.097 1.466 1.525 0 1.31-1.55 1.53-1.95 1.53Zm-4.29 0s-1.612-2-1.612-3.613c0-1.612 1.246-3.044 2.925-3.044.916 0 1.412.732 1.412.777-.232 0-3.256-.173-3.256 3.342 0 1.117.864 2.538.864 2.538h-.332Zm-1.384 0c-.612 0-2.756-.455-2.756-2.16 0-1.168 1.033-1.643 1.619-1.643 0 2.197 2.13 3.803 2.218 3.803H6.51Zm6.29-3.606c0-1.724-1.513-2.268-2.123-2.268 0-.238-.503-1.397-2.098-1.397-1.65 0-3.201 1.66-3.201 3.256a2.232 2.232 0 0 0-.473-.041C3.972 7.772 3 8.639 3 9.88c0 2.345 2.705 2.87 3.43 2.87h5.838c.566 0 2.732-.347 2.732-2.398 0-.889-.807-2.13-2.2-2.13Z"/>
  </g>
  <defs>
    <clipPath id="a">
      <path fill="#fff" d="M0 0h18v18H0z"/>
    </clipPath>
  </defs>
</svg>
