<svg xmlns="http://www.w3.org/2000/svg" viewBox="0 0 18 18">
  <g clip-path="url(#a)">
    <path fill="url(#b)" d="M0 0h18v18H0V0Z"/>
    <path fill="#fff" d="M14.479 7.243c.607 0 1.037.188 1.404.504l-.565.676c-.246-.207-.495-.327-.837-.327-.497 0-.883.42-.883.948v.011c0 .56.391.96.94.96a.99.99 0 0 0 .553-.143v-.42h-.682v-.701H16v1.557a2.339 2.339 0 0 1-1.502.534c-1.076-.002-1.882-.744-1.882-1.79v-.01c0-1.007.792-1.799 1.863-1.799Zm-9.445.067v.842H3.997v2.62h-.96v-2.62H2V7.31h3.034Zm7.551 0v.842h-1.037v2.62h-.96l.003-2.62h-1.04V7.31h3.034Zm-6.119 0 .825 1.34.825-1.34h1.015v3.46h-.953V8.78l-.884 1.354h-.02l-.88-1.345v1.977h-.94V7.31h1.012Z"/>
  </g>
  <defs>
    <linearGradient id="b" x1="9" x2="9" y1="24" y2="-1.5" gradientUnits="userSpaceOnUse">
      <stop stop-color="#000051"/>
      <stop offset="1" stop-color="#6F74DD"/>
    </linearGradient>
    <clipPath id="a">
      <path fill="#fff" d="M0 0h18v18H0z"/>
    </clipPath>
  </defs>
</svg>
