<svg xmlns="http://www.w3.org/2000/svg" viewBox="0 0 18 18">
  <g clip-path="url(#a)">
    <path fill="#fff" d="M0 0h18v18H0V0Z"/>
    <g clip-path="url(#b)">
      <path fill="#040606" d="m8.93 4.75 5.65 4.222-5.627 4.196-5.65-4.173L8.93 4.75Z"/>
      <path fill="#FFE024" fill-rule="evenodd" d="M12.259 9.194c.429 0 .868.162.884.17l.019.007.014.007c.004.004.504.279.945.279.485 0 .804-.064 1.174-.24l-.008.48c-.429.203-.617.2-1.166.2-.52 0-1.05-.279-1.14-.328-.06-.018-.406-.135-.722-.135-.342 0-.88.15-.937.165-.082.035-.68.275-1.32.275-.68 0-.917-.15-.936-.161l.015-.47c.004.003.36.19.921.19a3.37 3.37 0 0 0 1.163-.243l.014-.008h.012c.026-.008.647-.188 1.068-.188Z" clip-rule="evenodd"/>
      <path fill="#00B6E7" fill-rule="evenodd" d="M12.259 10.25c.429 0 .868.162.884.17l.019.003.014.008c.004.004.504.282.945.282.485 0 .804-.068 1.174-.245l-.008.482c-.429.207-.617.199-1.166.199-.52 0-1.05-.275-1.14-.323a2.435 2.435 0 0 0-.722-.136c-.342 0-.88.147-.937.162-.082.037-.68.278-1.32.278-.68 0-.917-.154-.936-.162l.015-.47c.004 0 .36.192.921.192.583 0 1.159-.244 1.163-.244l.014-.008.012-.003c.026-.008.647-.185 1.068-.185Z" clip-rule="evenodd"/>
      <path fill="#D3272C" fill-rule="evenodd" d="M12.259 11.284c.429 0 .868.162.884.166l.019.007.014.008c.004.004.504.282.945.282.485 0 .804-.068 1.174-.245l-.008.482c-.429.207-.617.2-1.166.2-.52 0-1.05-.276-1.14-.324a2.398 2.398 0 0 0-.722-.14c-.342 0-.88.15-.937.166-.082.038-.68.274-1.32.274-.68 0-.917-.15-.936-.158l.015-.47c.004 0 .36.193.921.193.583 0 1.159-.245 1.163-.249l.014-.003.012-.004c.026-.008.647-.185 1.068-.185Z" clip-rule="evenodd"/>
    </g>
  </g>
  <defs>
    <clipPath id="a">
      <path fill="#fff" d="M0 0h18v18H0z"/>
    </clipPath>
    <clipPath id="b">
      <path fill="#fff" d="M3.3 4.75h12v8.424h-12z"/>
    </clipPath>
  </defs>
</svg>
