<svg xmlns="http://www.w3.org/2000/svg" viewBox="0 0 18 18">
  <g clip-path="url(#a)">
    <path fill="#EA0029" d="M0 0h18v18H0V0Z"/>
    <path fill="#fff" fill-rule="evenodd" d="M12.793 12.242a.129.129 0 0 1-.019.163l-.823.985a.226.226 0 0 1-.161.075c-.025 0-.044-.006-.057-.02a.812.812 0 0 1-.143-.055l-.038-.019-.143-.05C8.877 12.28 7.262 9.616 7.262 9.616s1.634 1.51 5.407 2.502c.055.018.105.05.124.124Zm1.042-3.774c-.02.343-.07.955-.106 1.13 0 .037 0 .112-.056.143-.013 0-.025.006-.038.019h-.019L7.481 8.9s4.021-.7 5.543-.7c.256 0 .561.032.611.032.13.018.218.13.2.236ZM11.95 4.333l.194-.068h.019l.019-.02c.09-.016.163.003.217.057.175.212.624.842.755 1.023.031.05.031.124.019.181a.32.32 0 0 1-.15.106c-.337.069-3.623.667-5.543 2.389.623-.88 2.082-2.782 4.47-3.668Zm-4.67-.337.106-.161c0-.013.006-.026.019-.038.056-.075.106-.162.162-.23l.218-.257c0-.018.013-.018.05-.037.038-.013.094-.013.113-.013l1.215-.112c.075 0 .144.037.181.112.037.088.019.159-.056.213-.555.505-1.952 1.87-2.6 3.686-.037.143-.144.623-.18.842-.163-1.958.467-3.487.772-4.005ZM4.338 6.51c-.019-.037-.037-.087 0-.143 0-.038.25-.7.499-1.06.056-.088.143-.107.218-.088.088.013.144.106.144.175l.019.162a6.446 6.446 0 0 0 .679 2.532s-1.253-.88-1.559-1.578ZM5.86 9.597s-.736 1.367-1.041 2.427c-.032.124-.088.305-.194.305-.019 0-.162.019-.218-.125-.163-.374-.268-1.022-.287-1.147 0-.037 0-.093.037-.143.518-.668 1.703-1.317 1.703-1.317Zm3.579 5.015c.069.057.069.143.05.218a.192.192 0 0 1-.106.088h-.019l-1.384.218h-.05c-.02 0-.056-.037-.056-.037-1.815-1.977-1.348-5.39-1.348-5.39s.269 2.334 2.426 4.417l.107.112c.161.174.305.306.38.374Z" clip-rule="evenodd"/>
    <path fill="#fff" d="m5.71 8.762-.61-.125c-.144-.037-.805-.18-1.091-.43a4.322 4.322 0 0 1-.056-.057.213.213 0 0 0-.2-.05.198.198 0 0 0-.143.144c-.05.182-.125.824-.106.955a.265.265 0 0 0 .087.105l.075.02h.037c.287-.038 1.092-.288 1.434-.4l.574-.162Z"/>
  </g>
  <defs>
    <clipPath id="a">
      <path fill="#fff" d="M0 0h18v18H0z"/>
    </clipPath>
  </defs>
</svg>
