<svg xmlns="http://www.w3.org/2000/svg" viewBox="0 0 18 18">
  <g clip-path="url(#a)">
    <path fill="#fff" d="M0 0h18v18H0V0Z"/>
    <path fill="#005984" d="M10.645 13.524c-.264.28-.614.463-.995.519-.576.034-1.138-.32-1.308-1.609l-2.33-.686c1.018 3.624 3.834 3.497 4.803 1.92.066-.104.046-.156 0-.181-.046-.027-.104-.027-.17.037Zm0-9.513c-.937-1.874-4.258-.023-4.834 4.814a.51.51 0 0 0 .256.557c.295.16.616.266.949.314.254.06.517.082.778.066a.487.487 0 0 0 .461-.418c.496-5.189 1.68-6.365 2.231-5.25.064.13.225.061.156-.083h.003Z"/>
    <path fill="#54B948" d="M10.071 5.649a.603.603 0 0 0-.597.262 2.272 2.272 0 0 0-.265.799c-.061.284-.08.575-.055.865a.363.363 0 0 0 .346.262c1.061.066 4.175.51 4.613 1.415.288.623-.577.782-1.217.946a.518.518 0 0 0-.418.418 1.204 1.204 0 0 0 .173.934.288.288 0 0 0 .395.1l.038-.025a3.59 3.59 0 0 0 .864-.799c2.082-2.903-2.283-5.145-3.877-5.177Z"/>
    <path fill="#26BCD7" d="M11.14 10.402c-5.22.577-9.34-1.81-6.22-2.39 0 0 .398-.092.473-.317.075-.224.098-.288.184-.62.055-.204.104-.32.156-.478.083-.245-.072-.392-.418-.222-2.851 1.392-2.018 3.993.308 5.296a7.207 7.207 0 0 0 5.05.844 1.03 1.03 0 0 0 .69-.478c.234-.352.336-.776.288-1.197a.428.428 0 0 0-.51-.432v-.006Z"/>
  </g>
  <defs>
    <clipPath id="a">
      <path fill="#fff" d="M0 0h18v18H0z"/>
    </clipPath>
  </defs>
</svg>
