<svg xmlns="http://www.w3.org/2000/svg" viewBox="0 0 18 18">
  <g clip-path="url(#a)">
    <path fill="#134D77" d="M0 0h18v18H0V0Z"/>
    <path fill="#1FA9E1" d="M12.096 8.565c-.12-1.757-1.126-3.378-3.122-3.378-1.724 0-3.055 1.45-3.208 3.378h6.33Zm-7.217.427v-.035c0-2.525 1.774-4.538 4.129-4.538 2.44 0 3.992 1.979 3.992 4.555 0 .154 0 .205-.017.342H5.766c.153 2.167 1.706 3.43 3.412 3.43 1.348 0 2.27-.598 2.986-1.366l.58.512c-.887.956-1.928 1.638-3.6 1.638-2.286 0-4.265-1.826-4.265-4.538Z"/>
  </g>
  <defs>
    <clipPath id="a">
      <path fill="#fff" d="M0 0h18v18H0z"/>
    </clipPath>
  </defs>
</svg>
