<svg xmlns="http://www.w3.org/2000/svg" viewBox="0 0 18 18">
  <g clip-path="url(#a)">
    <path d="M0 0h18v18H0V0Z"/>
    <g clip-path="url(#b)">
      <path fill="#fff" fill-rule="evenodd" d="M6.445 6.866a.178.178 0 0 1 0-.254l1.81-1.809a.176.176 0 0 1 .195-.039.18.18 0 0 1 .058.04l.159.158a.17.17 0 0 1 .039.059.174.174 0 0 1 0 .137.176.176 0 0 1-.04.058l-1.81 1.808a.178.178 0 0 1-.253 0l-.158-.158Zm-.664.986a.18.18 0 0 1 .052.124.176.176 0 0 1-.052.124L3.966 9.914a.17.17 0 0 1-.19.038.168.168 0 0 1-.057-.038l-.165-.164a.188.188 0 0 1-.038-.057.183.183 0 0 1-.014-.068.18.18 0 0 1 .052-.124l1.814-1.814a.172.172 0 0 1 .124-.052.177.177 0 0 1 .124.052l.165.165ZM9.337 9.75a.175.175 0 0 1 0-.249l1.814-1.813a.19.19 0 0 1 .057-.04.182.182 0 0 1 .134 0c.021.01.04.023.057.04l.165.164a.202.202 0 0 1 .038.057.18.18 0 0 1-.038.19L9.742 9.915a.176.176 0 0 1-.247 0l-.158-.164Zm-.67.989c.016.016.03.035.038.057a.15.15 0 0 1 .014.067.164.164 0 0 1-.014.066.161.161 0 0 1-.038.057l-1.814 1.815a.174.174 0 0 1-.191.038.174.174 0 0 1-.057-.038l-.164-.165a.18.18 0 0 1-.039-.056.183.183 0 0 1 0-.135.18.18 0 0 1 .039-.057l1.814-1.814a.175.175 0 0 1 .191-.038.16.16 0 0 1 .056.038l.165.165ZM8.669 9.5a.176.176 0 0 1 0 .249l-.165.164a.19.19 0 0 1-.056.038.182.182 0 0 1-.134 0 .193.193 0 0 1-.057-.038L6.443 8.1a.19.19 0 0 1-.039-.057.178.178 0 0 1 .04-.191l.163-.164a.19.19 0 0 1 .057-.04.18.18 0 0 1 .135 0c.02.01.04.023.056.04L8.67 9.5Zm2.886-2.883a.176.176 0 0 1 0 .248l-.164.164a.173.173 0 0 1-.248 0L9.33 5.216a.202.202 0 0 1-.038-.056.182.182 0 0 1 0-.135.192.192 0 0 1 .038-.057l.165-.165a.192.192 0 0 1 .056-.038.178.178 0 0 1 .192.038l1.813 1.815Zm.008 5.77a.175.175 0 0 1 0 .247l-.172.17a.173.173 0 0 1-.124.051.175.175 0 0 1-.124-.052L9.329 10.99a.174.174 0 0 1 0-.249l.165-.164a.175.175 0 0 1 .19-.038.16.16 0 0 1 .057.038l1.822 1.81ZM14.442 9.5a.19.19 0 0 1 .039.057.183.183 0 0 1 0 .135.19.19 0 0 1-.04.057l-.163.164a.202.202 0 0 1-.057.038.182.182 0 0 1-.135 0 .202.202 0 0 1-.056-.038L12.216 8.1a.176.176 0 0 1 0-.248l.164-.164a.189.189 0 0 1 .057-.04.182.182 0 0 1 .134 0 .19.19 0 0 1 .057.04L14.442 9.5Z" clip-rule="evenodd"/>
    </g>
  </g>
  <defs>
    <clipPath id="a">
      <path fill="#fff" d="M0 0h18v18H0z"/>
    </clipPath>
    <clipPath id="b">
      <path fill="#fff" d="M3.5 4.75h11v8.108h-11z"/>
    </clipPath>
  </defs>
</svg>
