<svg xmlns="http://www.w3.org/2000/svg" viewBox="0 0 18 18">
  <g clip-path="url(#a)">
    <path fill="#0050B5" d="M0 0h18v18H0V0Z"/>
    <path fill="#fff" d="M12.082 4H5.81a.292.292 0 0 0-.297.297v.86a.297.297 0 0 0 .297.297h6.272a.297.297 0 0 0 .301-.297v-.86A.297.297 0 0 0 12.086 4m-5.003 8.802v1.897a.297.297 0 0 1-.297.301h-.99a.305.305 0 0 1-.296-.301V11.2a2.581 2.581 0 0 1 2.581-2.58h3.992a.297.297 0 0 1 .297.296v.86a.296.296 0 0 1-.297.302h-3.75a1.29 1.29 0 0 0-1.261 1.183v1.501l.021.039Z"/>
  </g>
  <defs>
    <clipPath id="a">
      <path fill="#fff" d="M0 0h18v18H0z"/>
    </clipPath>
  </defs>
</svg>
