<svg xmlns="http://www.w3.org/2000/svg" viewBox="0 0 18 18">
  <g clip-path="url(#a)">
    <path fill="#D52E01" d="M0 0h18v18H0V0Z"/>
    <path fill="#fff" d="M7.706 9.543c0 .32 0 .855-.62.855s-.642-.556-.642-.855V7.789h-.898V9.52c0 1.091.428 1.669 1.497 1.669.342 0 .535-.107.663-.193v.15h.899V7.789h-.899v1.754ZM4.562 7.575c0-.236.192-.257.278-.257h.192l.15-.791c-.962-.107-1.176.128-1.369.342-.15.214-.171.492-.171.684v.236H3.15v.791h.492v2.546h.898V8.602h.663v-.813h-.641v-.214Zm8.791.15c-.406 0-.791.15-1.09.385.192.213.341.47.427.748a.898.898 0 0 1 .663-.32c.492 0 .877.427.877.94 0 .514-.385.942-.877.942s-.877-.407-.877-.92c0-.45-.17-.856-.449-1.155a1.73 1.73 0 0 0-1.305-.578c-.32 0-.62.086-.898.236V6.569l-.899.15v4.407h.899v-.15c.257.15.556.214.898.214.407 0 .792-.15 1.091-.385a2.01 2.01 0 0 1-.428-.749.82.82 0 0 1-.663.342c-.492 0-.877-.427-.877-.962 0-.535.385-.963.877-.963s.877.428.877.963c0 .449.171.855.45 1.155.02.021.02.043.042.043.193.192.428.342.685.427.192.065.385.107.599.107.984 0 1.775-.77 1.775-1.732-.021-.941-.813-1.711-1.797-1.711Z"/>
  </g>
  <defs>
    <clipPath id="a">
      <path fill="#fff" d="M0 0h18v18H0z"/>
    </clipPath>
  </defs>
</svg>
