<svg xmlns="http://www.w3.org/2000/svg" viewBox="0 0 18 18">
  <g clip-path="url(#a)">
    <path fill="#fff" d="M0 0h18v18H0V0Z"/>
    <g clip-path="url(#b)">
      <path fill="#0B81C5" d="M8.164 8.541 4.036 6.12a1.22 1.22 0 0 1 .375-.342l3.753-2.15v4.913Z"/>
      <path fill="#94D9F8" d="M13.964 6.154 9.767 8.576v.92l-.784-.477V3.15s4.4 2.525 4.606 2.628c.17.136.272.238.375.375Z"/>
      <path fill="#266FB3" d="M8.983 9.019v5.901s-4.47-2.626-4.572-2.695c-.136-.102-.306-.204-.375-.375l4.128-2.559v-.75l.82.478Z"/>
      <path fill="#104E94" d="M8.164 9.292 4.036 11.85a1.055 1.055 0 0 1-.102-.444v-4.81c0-.204.034-.307.102-.477l4.128 2.422v.75Z"/>
      <path fill="#0B81C5" d="M13.964 11.884a.879.879 0 0 1-.375.34c-.103.07-3.822 2.218-3.822 2.218V9.496l4.197 2.388Z"/>
      <path fill="#104E94" d="M14.066 11.407c0 .182-.034.34-.102.477L9.767 9.496v-.92l4.197-2.423a.995.995 0 0 1 .102.478v4.776Z"/>
    </g>
  </g>
  <defs>
    <clipPath id="a">
      <path fill="#fff" d="M0 0h18v18H0z"/>
    </clipPath>
    <clipPath id="b">
      <path fill="#fff" d="M3.93 3.15h10.139v11.772H3.93z"/>
    </clipPath>
  </defs>
</svg>
