<svg xmlns="http://www.w3.org/2000/svg" viewBox="0 0 18 18">
  <g clip-path="url(#a)">
    <path fill="#fff" d="M0 0h18v18H0V0Z"/>
    <path fill="#006E9A" fill-rule="evenodd" d="M9.075 14.5a2.806 2.806 0 0 1-.906-.725 3.364 3.364 0 0 1-.613-1.07 3.885 3.885 0 0 1-.233-1.313c0-2.763 2.305-4.266 2.055-7.063 0-.164-.035-.32-.078-.458a.982.982 0 0 0-.216-.371c.337.173.656.414.907.725.259.311.475.665.613 1.07.138.407.233.856.233 1.313 0 2.392-2.185 4.145-2.185 6.71 0 .232.044.457.112.655.087.182.182.371.311.527Z" clip-rule="evenodd"/>
    <path fill="#00AEEF" fill-rule="evenodd" d="M11.148 14.344a1.954 1.954 0 0 1-.614-.484 2.3 2.3 0 0 1-.414-.725 2.693 2.693 0 0 1-.155-.88c0-1.857 1.7-2.91 1.433-5.302.328.294.604.82.76 1.209a2.7 2.7 0 0 1 .155.88c0 1.598-1.459 2.772-1.459 4.499a1.208 1.208 0 0 0 .294.803Zm-4.266-3.151a1.949 1.949 0 0 1-.613-.484 2.305 2.305 0 0 1-.414-.725 2.701 2.701 0 0 1-.156-.88c0-1.857 1.701-2.91 1.434-5.302.328.293.604.82.76 1.209.094.276.155.57.155.88 0 1.598-1.46 2.772-1.46 4.499a1.229 1.229 0 0 0 .294.803Z" clip-rule="evenodd"/>
  </g>
  <defs>
    <clipPath id="a">
      <path fill="#fff" d="M0 0h18v18H0z"/>
    </clipPath>
  </defs>
</svg>
