<svg xmlns="http://www.w3.org/2000/svg" viewBox="0 0 18 18">
  <g clip-path="url(#a)">
    <path fill="#fff" d="M0 0h18v18H0V0Z"/>
    <g clip-path="url(#b)">
      <path fill="#1F396F" fill-rule="evenodd" d="M8.981 8.575c.733 0 1.467-.022 2.199 0 .208 0 .292-.083.292-.27-.023-.898 0-1.8-.023-2.72 0-.373-.163-.564-.563-.687-.124-.063-.398-.04-.355-.25.04-.23.27-.106.418-.106.67-.023 1.317 0 1.966 0 .067 0 .147-.023.213 0 .063.043.124.107.186.168-.062.04-.106.125-.168.148-.565.123-.69.372-.69.96v6.289c0 .628.149.819.735 1.005.101.021.207.04.309.106.044.018.108.103.108.143-.024.066-.108.106-.17.127-.04.019-.101 0-.164 0h-2.596c-.124-.044-.147-.146-.063-.252.019-.04.085-.063.125-.084.626-.146.755-.565.732-1.146a38.496 38.496 0 0 1 0-2.697c0-.21-.061-.294-.27-.294H6.807c-.294 0-.316.04-.316.334v2.927c0 .459.146.65.586.796.147.04.314.061.439.124.084.04.124.125.188.186-.085.045-.148.107-.233.107-.501-.022-1.024-.045-1.526-.045-.395 0-.794.023-1.194.023-.08 0-.164-.063-.249-.106.063-.08.103-.21.186-.228.716-.27.796-.417.796-1.172V5.778c0-.588-.147-.774-.711-.92-.085-.023-.168-.045-.248-.085-.066-.023-.085-.084-.13-.124.064-.045.107-.085.17-.107.022-.023.083 0 .123 0h2.43c.06 0 .127-.023.167 0 .04.022.106.062.106.107.019.016-.043.08-.066.101a1.733 1.733 0 0 1-.31.108c-.308.097-.476.306-.502.626 0 .061-.022.146-.022.208v2.573c0 .227.062.31.316.31.732-.022 1.464 0 2.173 0Z" clip-rule="evenodd"/>
    </g>
  </g>
  <defs>
    <clipPath id="a">
      <path fill="#fff" d="M0 0h18v18H0z"/>
    </clipPath>
    <clipPath id="b">
      <path fill="#fff" d="M4.392 4.5h9.215v9H4.392z"/>
    </clipPath>
  </defs>
</svg>
