<svg xmlns="http://www.w3.org/2000/svg" viewBox="0 0 18 18">
  <g clip-path="url(#a)">
    <path fill="#343638" d="M0 0h18v18H0V0Z"/>
    <path fill="#8EC582" d="M7.614 7.545a.839.839 0 1 1-1.678 0 .839.839 0 0 1 1.678 0Z"/>
    <path fill="#FBF3F1" d="M10.902 6.988 12.5 4.22H6.032l.565.978h4.207L8.702 8.843l.565.979 1.156-2.004a3.045 3.045 0 0 1-2.538 5.527 2.92 2.92 0 0 1-.497-.256l-.481.832a4.002 4.002 0 0 0 5.82-1.94A4.022 4.022 0 0 0 10.9 6.988Z"/>
    <path fill="#8EC582" d="M6.64 12.428a3.059 3.059 0 0 1-.471-3.035l.056-.145-.886-.35-.058.143a3.995 3.995 0 0 0 .854 4.26l.505-.873Z"/>
  </g>
  <defs>
    <clipPath id="a">
      <path fill="#fff" d="M0 0h18v18H0z"/>
    </clipPath>
  </defs>
</svg>
