<svg xmlns="http://www.w3.org/2000/svg" viewBox="0 0 18 18">
  <g clip-path="url(#a)">
    <path fill="#fff" d="M0 0h18v18H0V0Z"/>
    <path fill="#B1B1B1" fill-rule="evenodd" d="M10.192 5.322h.637v6.29H9.37c-.352 0-.708-.042-1.042-.16a1.825 1.825 0 0 1-.88-.634c-.283-.389-.378-.884-.364-1.357.015-.555.214-1.122.614-1.517.294-.298.695-.48 1.108-.533.384-.055.78-.008 1.142.127.082.03.163.065.243.1V5.322ZM8.468 8.135a1.35 1.35 0 0 0-.594.678 1.95 1.95 0 0 0-.091 1.125c.069.338.27.652.562.84.301.198.67.27 1.025.271.274.002.548 0 .822.002V8.217a1.966 1.966 0 0 0-.668-.244 1.677 1.677 0 0 0-1.056.161Zm-3.785-.613c.33-.153.714-.168 1.062-.075.324.085.609.302.778.59.123.2.196.425.234.654.045.248.036.502.037.753v2.169h-.636V9.187c-.003-.304-.05-.625-.228-.88a.836.836 0 0 0-.572-.34 1.211 1.211 0 0 0-.802.148 1.51 1.51 0 0 0-.545.565c-.005.977 0 1.955-.003 2.933h-.636V7.472h.636v.626c.181-.236.401-.451.675-.576Zm8.372.363a1.853 1.853 0 0 1 1.663-.452c.331.072.636.25.868.494.217.224.372.504.46.803.089.275.108.566.103.853h-3.072c.002.339.085.684.285.961.17.24.422.42.702.51.32.107.67.095.997.024a2.41 2.41 0 0 0 1.023-.525v.645a2.61 2.61 0 0 1-.724.37c-.36.114-.744.148-1.12.115a1.998 1.998 0 0 1-.92-.313 1.914 1.914 0 0 1-.64-.727 2.37 2.37 0 0 1-.246-.874c-.03-.362 0-.732.116-1.079.1-.303.27-.586.505-.805Zm.404.471c-.188.215-.29.489-.346.765.794.004 1.587 0 2.38.002-.036-.364-.184-.738-.488-.958a1.143 1.143 0 0 0-.836-.2 1.14 1.14 0 0 0-.71.391ZM2.15 11.612V7.471h.636l.001 4.142-.637-.001Zm9.262-4.14h.637v4.14h-.637v-4.14Z" clip-rule="evenodd"/>
    <path fill="#8DD042" d="M11.633 5.797a.417.417 0 0 1 .5.284.417.417 0 0 1-.295.52.416.416 0 0 1-.415-.131.41.41 0 0 1-.08-.401.411.411 0 0 1 .29-.272Z"/>
  </g>
  <defs>
    <clipPath id="a">
      <path fill="#fff" d="M0 0h18v18H0z"/>
    </clipPath>
  </defs>
</svg>
