<svg xmlns="http://www.w3.org/2000/svg" viewBox="0 0 18 18">
  <g clip-path="url(#a)">
    <path fill="#fff" d="M0 0h18v18H0V0Z"/>
    <g clip-path="url(#b)">
      <path fill="#D17D06" d="M3.626 7.028a.625.625 0 1 0 .001-1.251.625.625 0 0 0 0 1.25Zm2.59-.266a.625.625 0 1 0 .001-1.251.625.625 0 0 0-.001 1.25Zm1.869 1.783a.625.625 0 1 0-.626-.626.62.62 0 0 0 .626.626Zm2.371 1.366a.625.625 0 1 0 .001-1.25.625.625 0 0 0 0 1.25Zm0 2.257a.625.625 0 1 0 0-1.252.62.62 0 0 0-.626.626c0 .351.285.626.626.626Zm2.628.94a.625.625 0 1 0-.626-.626.62.62 0 0 0 .626.626Zm1.29-2.182a.625.625 0 1 0-.626-.626.614.614 0 0 0 .626.626Z"/>
    </g>
  </g>
  <defs>
    <clipPath id="a">
      <path fill="#fff" d="M0 0h18v18H0z"/>
    </clipPath>
    <clipPath id="b">
      <path fill="#fff" d="M3 5.5h12v7.608H3z"/>
    </clipPath>
  </defs>
</svg>
