<svg xmlns="http://www.w3.org/2000/svg" viewBox="0 0 18 18">
  <g clip-path="url(#a)">
    <path fill="#fff" d="M0 0h18v18H0V0Z"/>
    <path fill="#F47320" d="M8.678 14.498a6.768 6.768 0 0 1-2.887-.645c-.174-.12-.208-.192-.208-.359v-.877c0-.16.056-.318.352-.318.157 0 .263.084.487.246.901.629 1.759.885 2.485.885 1.223 0 2.054-.741 2.054-1.659.01-2.397-5.461-1.663-5.461-5.2 0-1.637 1.261-3.069 3.591-3.069 1.159 0 2.21.222 2.803.454.16.072.19.153.19.316v1.015c0 .156-.047.278-.238.278-.155 0-.28-.096-.473-.24-.7-.502-1.37-.812-2.246-.812-.98 0-1.75.525-1.75 1.339 0 2.006 5.551 1.791 5.551 5.018 0 2.438-2.03 3.585-4.253 3.585"/>
  </g>
  <defs>
    <clipPath id="a">
      <path fill="#fff" d="M0 0h18v18H0z"/>
    </clipPath>
  </defs>
</svg>
