<svg xmlns="http://www.w3.org/2000/svg" viewBox="0 0 18 18">
  <g clip-path="url(#a)">
    <path fill="#051D5C" d="M0 0h18v18H0V0Z"/>
    <path fill="#fff" d="M10.004 4.658v5.82c-.011.7-.176 1.233-.49 1.585-.311.35-.7.521-1.188.523-.453 0-.833-.105-1.127-.311-.303-.212-.578-.533-.82-.955l-.093-.164-.83.52.081.15c.27.5.632.91 1.073 1.216.447.31 1.011.471 1.677.48h.002c.365 0 .71-.063 1.027-.185.318-.123.604-.309.85-.552.258-.257.463-.589.61-.986.146-.392.221-.852.224-1.368V4.478h-.143c-.23.034-.522.09-.854.18Z"/>
  </g>
  <defs>
    <clipPath id="a">
      <path fill="#fff" d="M0 0h18v18H0z"/>
    </clipPath>
  </defs>
</svg>
