<svg xmlns="http://www.w3.org/2000/svg" viewBox="0 0 18 18">
  <g clip-path="url(#a)">
    <path fill="#003E6A" d="M0 0h18v18H0V0Z"/>
    <path fill="#FFCF00" fill-rule="evenodd" d="M3.878 7.441a5.07 5.07 0 0 1 1.617-2.368c.1-.234.2-.47.169-.488a.01.01 0 0 0-.007-.001c-.058.012-.287.37-.453.602.056-.244.124-.52.09-.532a.01.01 0 0 0-.003 0c-.042.004-.174.314-.283.548-.002-.29.041-.832-.01-.84-.05-.006-.144.466-.22.753-.036-.253-.073-.553-.11-.551-.037.002-.05.33-.068.592-.105-.275-.254-.77-.304-.758-.05.012.039.51.07.804-.125-.22-.271-.496-.311-.496h-.003c-.035.015.066.31.143.556-.193-.216-.486-.59-.537-.58l-.003.002c-.043.03.231.479.362.74a2.816 2.816 0 0 0-.483-.365c-.002 0-.005 0-.006.002-.027.026.166.257.326.456-.247-.127-.612-.342-.683-.338a.013.013 0 0 0-.01.004c-.03.044.397.371.611.567a3.778 3.778 0 0 0-.59-.174c-.008 0-.013.003-.015.007-.015.034.244.177.463.304-.241-.026-.58-.08-.704-.073-.028.002-.045.006-.046.015-.012.051.505.202.774.306-.11.007-.238.012-.35.02-.157.008-.283.02-.285.045-.002.038.296.078.547.117-.287.077-.723.17-.716.217.007.051.534.006.825.004-.243.112-.585.252-.572.292.012.036.313-.038.565-.093-.24.176-.616.422-.593.464.025.044.481-.178.754-.287-.186.191-.448.44-.422.471.026.032.294-.159.512-.302-.16.251-.43.627-.393.658.026.021.185-.134.352-.3" clip-rule="evenodd"/>
    <path fill="#0D672F" d="M11.315 7.413h-1.24v1.294h1.24V7.413Z"/>
    <path fill="#1A1818" d="M11.304 5.181h-.986v.986h.986V5.18Z"/>
    <path fill="#8DBADC" d="M12.496 5.592h-.515v.515h.515v-.515Z"/>
    <path fill="#1A1818" d="M13.215 5.731h-.321v.321h.32v-.32Z"/>
    <path fill="#071F46" d="M13.496 6.348h-.676v.675h.676v-.675Z"/>
    <path fill="#8DBADC" d="M13.32 7.321h-1.123v1.124h1.124V7.321Z"/>
    <path fill="#0D672F" d="M12.151 6.454h-.486v.486h.486v-.486Zm1.954.706h-.379v.378h.379v-.379Z"/>
    <path fill="#071F46" d="M12.057 4.906h-.362v.363h.362v-.363Z"/>
    <path fill="#8DBADC" d="M11.255 6.608h-.487v.487h.486v-.487Z"/>
    <path fill="#fff" d="M7.533 6.995c1.027.151 2.07.16 3.1.03-1.014.05-2.03-.048-3.016-.29a1.923 1.923 0 0 0-.084.26Zm3.537 4.917c-.474.05-.952.066-1.428.049-2.064 0-3.907-.623-4.742-1.488a5.204 5.204 0 0 1 .435-3.883 3.899 3.899 0 0 1-.652-.431 5.032 5.032 0 0 0-.722 4.388c.809.898 2.724 1.576 4.837 1.576a9.638 9.638 0 0 0 2.272-.211Z"/>
    <path fill="#fff" d="M4.87 5.93a5.09 5.09 0 0 0 1.984.929 4.35 4.35 0 0 0-.24.825c-.245 1.313-.174 2.648.218 3.443a8.654 8.654 0 0 1 .067-3.086c.332-1.736 1.31-2.886 2.196-3.447-.688.143-1.573.881-2.1 1.949a4.36 4.36 0 0 1-1.22-.638c.772-1 2.031-1.837 3.413-1.996A5.38 5.38 0 0 0 4.87 5.93Zm.634 5.906a3.9 3.9 0 0 1-1.33-.7c.893 1.945 2.844 3.138 4.782 3.144.16 0 .412.01.566-.004a5.266 5.266 0 0 1-4.018-2.44Zm8.162-.667s-.655 1.909-2.623 2.777c0 0 2.403-.755 3.211-3.312a5.52 5.52 0 0 1-.588.535Z"/>
  </g>
  <defs>
    <clipPath id="a">
      <path fill="#fff" d="M0 0h18v18H0z"/>
    </clipPath>
  </defs>
</svg>
