<svg xmlns="http://www.w3.org/2000/svg" viewBox="0 0 18 18">
  <g clip-path="url(#a)">
    <path fill="#fff" d="M0 0h18v18H0V0Z"/>
    <g clip-path="url(#b)">
      <path fill="#C41230" fill-rule="evenodd" d="m15.992 6.274-1.375 6.263-.027.126-.107-.07c-.005-.005-.557-.369-1.5-.551-.868-.168-2.258-.21-3.942.538l-.038.018-.037-.02c-.008-.004-.703-.37-1.727-.553-.943-.17-2.366-.214-3.793.535l-.102.052-1.34-6.338h13.988Z" clip-rule="evenodd"/>
      <path fill="#fff" fill-rule="evenodd" d="M12.203 7.7v.507l-.273.33h-.112l.123-.359h-.249V7.7h.51Zm-4.09 1.4a.724.724 0 0 1-.01.127h-1.5c0 .296.165.476.427.476.224 0 .395-.063.432-.247h.655c-.08.477-.414.754-1.146.754-.806 0-1.233-.415-1.233-1.11 0-.694.445-1.11 1.188-1.11.793 0 1.187.508 1.187 1.11Zm6.17-.464h-.602c0-.1-.126-.201-.34-.201-.217 0-.302.077-.302.145 0 .33 1.313.007 1.313.868 0 .415-.311.738-1.124.738-.72 0-.988-.318-.988-.701v-.012h.657c0 .18.144.273.345.273.179 0 .27-.06.27-.172 0-.3-1.255-.013-1.255-.86 0-.452.422-.718 1.083-.718.588 0 .944.292.944.64Zm-3.592-.598h.785v2.1h-.785v-2.1Zm-1.89.004.553 1.213h.015l.554-1.213h.649l-.998 2.1h-.647l-1.032-2.1H8.8Zm-4.288.019v1.547h1.188v.531H3.727V8.063h.786Zm2.12.793h.6c0-.23-.076-.414-.3-.414-.223 0-.3.207-.3.414Z" clip-rule="evenodd"/>
    </g>
  </g>
  <defs>
    <clipPath id="a">
      <path fill="#fff" d="M0 0h18v18H0z"/>
    </clipPath>
    <clipPath id="b">
      <path fill="#fff" d="M2 6.271h14v6.393H2z"/>
    </clipPath>
  </defs>
</svg>
