<svg xmlns="http://www.w3.org/2000/svg" viewBox="0 0 18 18">
  <g clip-path="url(#a)">
    <path fill="#fff" d="M0 0h18v18H0V0Z"/>
    <path d="M11.854 10.455H9.763l.418.722a.775.775 0 0 0 .67.384h2.094l-.418-.723a.772.772 0 0 0-.67-.383m-3.451 1.027a.917.917 0 0 0 0 .924l.599 1.027.597-1.027a.922.922 0 0 0 0-.924l-.597-1.027-.6 1.027Zm-2.928-.644-.418.723h2.092a.778.778 0 0 0 .67-.384l.419-.722H6.145a.772.772 0 0 0-.67.383m2.768-1.022L7.511 8.56a1.242 1.242 0 0 0-1.073-.614H3l.732 1.255a1.237 1.237 0 0 0 1.073.614h3.438Zm1.972-2.084a1.526 1.526 0 0 0 0-1.539L9 4.111 7.788 6.193a1.527 1.527 0 0 0 0 1.538L9 9.813l1.215-2.081ZM15 7.94h-3.438a1.241 1.241 0 0 0-1.07.612L9.759 9.81h3.434a1.237 1.237 0 0 0 1.073-.614L15 7.941Z"/>
  </g>
  <defs>
    <clipPath id="a">
      <path fill="#fff" d="M0 0h18v18H0z"/>
    </clipPath>
  </defs>
</svg>
