<svg xmlns="http://www.w3.org/2000/svg" viewBox="0 0 18 18">
  <g clip-path="url(#a)">
    <path fill="#fff" d="M0 0h18v18H0V0Z"/>
    <path fill="#00CDBE" fill-rule="evenodd" d="M10.283 6.042v.499h.014c.134-.19.295-.337.484-.442.188-.104.404-.156.648-.156.233 0 .447.045.64.135.194.09.34.25.44.477.11-.162.26-.304.448-.427.19-.124.412-.186.67-.186a2 2 0 0 1 .544.072c.168.047.31.123.43.227.12.105.212.241.279.41.067.169.1.372.1.61v2.463h-1.016V7.638c0-.124-.005-.24-.015-.35a.734.734 0 0 0-.079-.284.476.476 0 0 0-.19-.192.692.692 0 0 0-.34-.072.653.653 0 0 0-.347.082.593.593 0 0 0-.207.214.847.847 0 0 0-.1.3 2.279 2.279 0 0 0-.026.337v2.05h-1.016V7.659c0-.109-.002-.217-.007-.323a.905.905 0 0 0-.061-.296.456.456 0 0 0-.179-.217c-.084-.054-.207-.082-.369-.082-.048 0-.11.01-.19.032a.628.628 0 0 0-.229.121.702.702 0 0 0-.19.257 1.028 1.028 0 0 0-.078.438v2.136H9.324V6.042h.959Zm-3.73 3.682-.66-2.471H5.88l-.63 2.47H4.196l-1.174-3.68h1.074l.68 2.499h.015l.616-2.5h.988l.63 2.493h.015l.68-2.493h1.045L7.598 9.724H6.553Z" clip-rule="evenodd"/>
    <path fill-rule="evenodd" d="M9.044 11.881c2.198 0 3.31-.83 3.31-.83l.474.636s-1.641 1.384-3.784 1.384c-2.142 0-3.783-1.384-3.783-1.384l.473-.636s1.113.83 3.31.83Z" clip-rule="evenodd"/>
  </g>
  <defs>
    <clipPath id="a">
      <path fill="#fff" d="M0 0h18v18H0z"/>
    </clipPath>
  </defs>
</svg>
