<svg xmlns="http://www.w3.org/2000/svg" viewBox="0 0 18 18">
  <g clip-path="url(#a)">
    <path fill="#fff" d="M0 0h18v18H0V0Z"/>
    <path fill="#76757E" fill-rule="evenodd" d="M6.862 8.993S7.96 8.474 7.93 7.13c0 0 .963.705 2.146 0 0 0-.108 1.21 1.071 1.86 0 0-1.1.52-1.073 1.857 0 0-.996-.699-2.142 0 0 0 .091-1.23-1.07-1.854Z" clip-rule="evenodd"/>
    <path fill="#0068B7" fill-rule="evenodd" d="M10.628 5.111a1.613 1.613 0 1 1-3.227.002 1.613 1.613 0 0 1 3.227-.002ZM7.224 7.037a1.613 1.613 0 1 1-3.224 0 1.613 1.613 0 1 1 3.224 0ZM14 7.042a1.613 1.613 0 1 1-3.224 0 1.613 1.613 0 1 1 3.224 0Zm-3.372 5.848a1.613 1.613 0 1 0-3.227-.003 1.613 1.613 0 0 0 3.227.003Zm-3.404-1.913c0-.892-.722-1.615-1.612-1.615a1.614 1.614 0 0 0 0 3.23c.89 0 1.612-.723 1.612-1.615ZM14 10.962a1.613 1.613 0 1 0-3.224 0 1.613 1.613 0 1 0 3.224 0Z" clip-rule="evenodd"/>
  </g>
  <defs>
    <clipPath id="a">
      <path fill="#fff" d="M0 0h18v18H0z"/>
    </clipPath>
  </defs>
</svg>
