<svg xmlns="http://www.w3.org/2000/svg" viewBox="0 0 18 18">
  <g clip-path="url(#a)">
    <path fill="#fff" d="M0 0h18v18H0V0Z"/>
    <g clip-path="url(#b)">
      <path fill="#002060" fill-rule="evenodd" d="M3.5 10.456a.641.641 0 0 0 .027-.192.566.566 0 0 0 .013-.141.254.254 0 0 1 .123-.228c.644-.537 1.347-1 2.095-1.38.758-.377 1.56-.658 2.389-.836.038-.009.053 0 .068.034l.269.575c.022.046.008.054-.037.065-.661.146-1.308.351-1.933.613a10.304 10.304 0 0 0-2.951 1.899c-.018.016-.028.048-.063.04v-.449Z" clip-rule="evenodd"/>
      <path fill="#002060" fill-rule="evenodd" d="M9.05 3.358c.104.015.204.044.299.086.228.075.45.166.67.263a.098.098 0 0 1 .066.084c.047.284.082.57.117.856a12.275 12.275 0 0 1 .011 2.759 12.184 12.184 0 0 1-.448 2.145.07.07 0 0 0 .024.086c.35.312.707.613 1.07.908.205.166.418.324.63.483.177.13.357.256.54.378a3.1 3.1 0 0 0 .324.206c.01.028.037.038.06.053.183.117.376.225.574.333.314.174.639.33.972.464.157.062.316.108.473.173a6.41 6.41 0 0 1-.575.505s-.015 0-.019.011c-.152.19-.324.121-.504.048a14.61 14.61 0 0 0-.52-.204c-.146-.053-.284-.127-.425-.19-.34-.154-.669-.325-.998-.5-.188-.098-.359-.23-.54-.336-.216-.127-.418-.284-.628-.425-.099-.067-.185-.16-.281-.236-.44-.351-.855-.734-1.239-1.146a.068.068 0 0 0-.082-.024 21.096 21.096 0 0 0-2.97 1.212c-.107.039-.209.09-.304.15a9.092 9.092 0 0 0-1.272.842c-.125.1-.247.203-.369.304a6.696 6.696 0 0 1-.16-.887.092.092 0 0 1 .036-.085A12.478 12.478 0 0 1 6.923 9.57a11.082 11.082 0 0 1 1.802-.58.101.101 0 0 0 .091-.092c.157-.77.27-1.55.342-2.332.024-.292.045-.582.056-.874a.364.364 0 0 0 .013-.057 10.5 10.5 0 0 0-.06-1.644 4.197 4.197 0 0 0-.116-.633Z" clip-rule="evenodd"/>
      <path fill="#002060" fill-rule="evenodd" d="M12.963 13.736c-.137.071-.26.14-.386.2-.127.06-.276.125-.413.188a.123.123 0 0 1-.108 0c-.132-.051-.263-.107-.396-.153-.243-.092-.476-.205-.71-.316a10.58 10.58 0 0 1-.888-.484c-.34-.209-.667-.437-.98-.682a5.644 5.644 0 0 1-.421-.347 12.233 12.233 0 0 1-.675-.662 1.27 1.27 0 0 0-.123-.118c-.036-.031-.033-.06-.007-.096.12-.168.238-.338.356-.509.028-.042.045-.045.08-.006.2.216.41.432.626.628a10.63 10.63 0 0 0 2.09 1.525c.434.24.886.448 1.352.621.182.07.37.128.555.191a.474.474 0 0 1 .048.02Zm-2.179-9.621c.192.108.374.23.546.354l.194.14a.102.102 0 0 1 .033.073c.029.216.056.43.081.643a10.845 10.845 0 0 1-.131 3.157c-.037.188-.078.376-.118.564-.047.216-.13.432-.197.648a.043.043 0 0 1-.02.029.044.044 0 0 1-.034.006c-.143-.01-.287-.022-.432-.026-.07 0-.144-.022-.216-.028-.055 0-.035-.046-.024-.072a2.47 2.47 0 0 0 .091-.287c.051-.186.094-.374.144-.56.1-.378.171-.764.216-1.153.015-.136.023-.276.04-.412.027-.227.041-.455.043-.683 0-.343 0-.686-.025-1.03a11.128 11.128 0 0 0-.186-1.322.154.154 0 0 1-.005-.04Z" clip-rule="evenodd"/>
      <path fill="#FC7134" fill-rule="evenodd" d="M9.05 3.358c.056.208.095.42.117.634.062.546.082 1.095.06 1.644a.273.273 0 0 1-.013.057 4.52 4.52 0 0 0-.715.027c-.373.043-.74.126-1.095.25a.689.689 0 0 1-.108-.223 5.45 5.45 0 0 1 .76-1.663 1.84 1.84 0 0 1 .78-.668c.068-.03.14-.05.215-.058Z" clip-rule="evenodd"/>
      <path fill="#002060" fill-rule="evenodd" d="M3.718 9.104c.092-.37.214-.73.367-1.08a.113.113 0 0 1 .044-.05 10.159 10.159 0 0 1 2.591-1.35 8.217 8.217 0 0 1 .836-.22.081.081 0 0 1 .075.061c.083.191.174.379.264.567.023.046.02.066-.035.078a9.835 9.835 0 0 0-4.07 1.944c-.017.01-.037.029-.072.05Z" clip-rule="evenodd"/>
      <path fill="#FC7134" fill-rule="evenodd" d="M3.706 12.646c.123-.102.244-.207.369-.306a9.095 9.095 0 0 1 1.276-.84c.093-.061.194-.112.3-.15.23.451.52.87.863 1.244.086.075.168.156.243.242a.438.438 0 0 1-.081.133 2.73 2.73 0 0 0-.373.074c-.477.1-.966.135-1.453.103a1.845 1.845 0 0 1-.928-.296.88.88 0 0 1-.216-.204Zm10.73-.006c-.156-.06-.316-.108-.473-.173a8.646 8.646 0 0 1-.97-.469 10.61 10.61 0 0 1-.58-.342c-.022-.014-.05-.025-.059-.053a1.89 1.89 0 0 1 .151-.28 5.08 5.08 0 0 0 .549-1.44c.03.007.065 0 .09.026.06.021.09.075.13.118.388.402.72.856.984 1.348.17.303.255.646.242.994a.79.79 0 0 1-.064.27Z" clip-rule="evenodd"/>
      <path fill="#002060" fill-rule="evenodd" d="M11.243 14.44c-.373.1-.754.168-1.14.202a.17.17 0 0 1-.086-.014A9.817 9.817 0 0 1 7.58 13.04a7.317 7.317 0 0 1-.538-.546.08.08 0 0 1 .012-.095c.124-.172.25-.341.37-.515.03-.043.044-.04.075 0 .175.194.36.38.55.557.363.333.747.642 1.15.922a9.96 9.96 0 0 0 1.959 1.04l.085.036Zm.982-9.2c.083.075.161.155.234.24.177.194.34.4.491.614.02.03.031.063.033.098.028.408.037.816.026 1.224-.013.398-.049.795-.108 1.188-.053.32-.122.635-.208.947-.023.09-.06.176-.086.266-.012.042-.032.043-.07.041-.129-.009-.257-.02-.387-.028-.098 0-.196-.01-.292-.03-.025-.008-.033-.017-.023-.04.06-.143.076-.296.123-.443a6.96 6.96 0 0 0 .2-.842c.119-.66.172-1.33.16-2 0-.278-.021-.557-.052-.834-.012-.133-.028-.26-.041-.4Zm-4.93.507a.65.65 0 0 0 .108.223c0 .02-.012.023-.028.027-.94.143-1.781.533-2.582 1.027l-.216.139c0-.037.02-.052.033-.07a4.544 4.544 0 0 1 2.42-1.79c.046-.015.059 0 .076.036.056.14.125.273.189.408Zm5.845 4.164c-.027-.026-.061-.017-.091-.025a8.31 8.31 0 0 0 .235-.804 8.927 8.927 0 0 0 .165-1.354 7.305 7.305 0 0 0 0-.672v-.063c.043.076.08.156.108.239.08.173.141.354.185.54.16.642.175 1.312.043 1.96l-.016.088c-.02.135-.02.134-.155.126l-.405-.042c-.02 0-.045.005-.07.007ZM6.676 12.97a.408.408 0 0 0 .09-.128c.063.059.12.124.171.193a6.67 6.67 0 0 0 1.643 1.327c.149.089.302.172.452.27-.108-.016-.216-.029-.324-.048a4.44 4.44 0 0 1-2.25-1.11c-.084-.077-.085-.076-.017-.173.068-.097.156-.224.235-.332Z" clip-rule="evenodd"/>
    </g>
  </g>
  <defs>
    <clipPath id="a">
      <path fill="#fff" d="M0 0h18v18H0z"/>
    </clipPath>
    <clipPath id="b">
      <path fill="#fff" d="M3.5 3.357h11v11.285h-11z"/>
    </clipPath>
  </defs>
</svg>
