<svg xmlns="http://www.w3.org/2000/svg" viewBox="0 0 18 18">
  <g clip-path="url(#a)">
    <path fill="#fff" d="M0 0h18v18H0V0Z"/>
    <g clip-path="url(#b)">
      <path fill="#00AAC7" fill-rule="evenodd" d="M9.999 9.303a1.199 1.199 0 0 1-.026-.576l-.003-.015c.1-.78.735-.932.975-.96.168.044.342.046.51.004l.037-.01a1.02 1.02 0 0 0 .189-.076c.019-.01.037-.019.055-.03a.936.936 0 0 0 .2-.152 1.032 1.032 0 0 0 0-1.458 1.023 1.023 0 0 0-.19-.148c-.02-.012-.04-.021-.06-.032a1.017 1.017 0 0 0-.416-.116c-.011 0-.022-.003-.034-.003a1.035 1.035 0 0 0-.242.021c-.21-.019-.918-.148-1.01-.996a1.028 1.028 0 0 0-1.73-.954 1.032 1.032 0 0 0 0 1.458c.271.272.657.356 1.002.26.777.1.93.73.96.972v.003a1.184 1.184 0 0 1-.033.606c-.057.285-.256.805-.976.882A1.027 1.027 0 0 0 7.953 9a1.025 1.025 0 0 0 1.303 1.002c.777.1.93.73.96.972v.001a1.187 1.187 0 0 1-.03.593c-.052.28-.247.818-.979.897a1.027 1.027 0 0 0-.953.275 1.031 1.031 0 0 0 1.457 1.458 1.03 1.03 0 0 0 .26-1.003c.1-.782.734-.933.974-.962.168.045.342.047.51.005l.037-.01a1.03 1.03 0 0 0 .189-.076c.019-.01.037-.018.055-.03a.936.936 0 0 0 .2-.152 1.032 1.032 0 0 0 0-1.458 1.017 1.017 0 0 0-.19-.148c-.02-.012-.04-.02-.06-.032a1.024 1.024 0 0 0-.16-.067c-.021-.007-.042-.014-.063-.019a1.016 1.016 0 0 0-.193-.03c-.011 0-.022-.003-.034-.003a1.016 1.016 0 0 0-.242.021c-.204-.018-.874-.146-.995-.931Z" clip-rule="evenodd"/>
      <path fill="#1D295A" fill-rule="evenodd" d="M5.568 9.301a1.194 1.194 0 0 1 .054-.827c.09-.29.324-.683.94-.75.333.075.695-.015.954-.274A1.031 1.031 0 0 0 6.06 5.992a1.027 1.027 0 0 0-.26 1.003c-.1.782-.735.933-.975.961a1.027 1.027 0 0 0-.51-.004l-.037.01a1.024 1.024 0 0 0-.189.076c-.018.01-.037.018-.055.03a.936.936 0 0 0-.2.152 1.031 1.031 0 0 0 .19 1.605c.02.012.04.021.06.032a1.022 1.022 0 0 0 .416.116l.034.004c.081.002.162-.005.242-.022.21.02.918.148 1.01.996a1.028 1.028 0 0 0 1.73.954 1.031 1.031 0 0 0 0-1.458 1.025 1.025 0 0 0-1.002-.26c-.7-.09-.893-.607-.946-.886Z" clip-rule="evenodd"/>
      <path fill="#7BC14D" fill-rule="evenodd" d="M14.472 9.01a1.03 1.03 0 1 0-2.062 0 1.03 1.03 0 0 0 2.062 0Z" clip-rule="evenodd"/>
    </g>
  </g>
  <defs>
    <clipPath id="a">
      <path fill="#fff" d="M0 0h18v18H0z"/>
    </clipPath>
    <clipPath id="b">
      <path fill="#fff" d="M3.532 3.5h10.937v11H3.532z"/>
    </clipPath>
  </defs>
</svg>
