<svg xmlns="http://www.w3.org/2000/svg" viewBox="0 0 18 18">
  <g clip-path="url(#a)">
    <path fill="#fff" d="M0 0h18v18H0V0Z"/>
    <path fill="url(#b)" d="M3.471 9.587v-.01a.064.064 0 0 1 .055-.07H7.07a.056.056 0 0 1 .051.046c.678 2.57 1.322 3.427 1.88 3.427.776 0 1.385-1.663 1.686-2.687.021-.074.116-.045.104.033C10.15 14.5 8.23 14.5 7.613 14.5c-1.93-.003-3.567-2.062-4.142-4.913Zm11.056-.017a.06.06 0 0 0-.057-.063h-3.16a.056.056 0 0 0-.052.055c-.22 2.196-.78 3.792-1.746 4.68a.07.07 0 0 0-.015.075.07.07 0 0 0 .015.023.061.061 0 0 0 .02.015c.278.088.568.134.86.136 1.937 0 3.574-2.095 4.137-4.921h-.002Z"/>
    <path fill="url(#c)" d="M14.529 8.413v.01a.064.064 0 0 1-.055.07H10.93a.057.057 0 0 1-.051-.046C10.202 5.877 9.558 5.02 9 5.02c-.776 0-1.385 1.663-1.686 2.687-.022.075-.116.045-.104-.033C7.85 3.5 9.77 3.5 10.387 3.5c1.93.003 3.567 2.062 4.142 4.913ZM3.473 8.43a.06.06 0 0 0 .057.063h3.16a.056.056 0 0 0 .052-.055c.22-2.196.78-3.792 1.746-4.68a.07.07 0 0 0 0-.098.061.061 0 0 0-.02-.015 2.874 2.874 0 0 0-.86-.136c-1.937 0-3.574 2.095-4.137 4.921h.002Z"/>
  </g>
  <defs>
    <linearGradient id="b" x1="13.925" x2="3.769" y1="12.001" y2="12.001" gradientUnits="userSpaceOnUse">
      <stop stop-color="#FF8F1C"/>
      <stop offset="1" stop-color="#ED2024"/>
    </linearGradient>
    <linearGradient id="c" x1="4.075" x2="14.231" y1="5.999" y2="5.999" gradientUnits="userSpaceOnUse">
      <stop stop-color="#FF8F1C"/>
      <stop offset="1" stop-color="#ED2024"/>
    </linearGradient>
    <clipPath id="a">
      <path fill="#fff" d="M0 0h18v18H0z"/>
    </clipPath>
  </defs>
</svg>
