<svg xmlns="http://www.w3.org/2000/svg" viewBox="0 0 18 18">
  <g clip-path="url(#a)">
    <path fill="#F1E4DB" d="M0 0h18v18H0V0Z"/>
    <path d="M8.174 7.58c0 .137.077.015.26.015.199 0 .26.122.26-.016a.268.268 0 0 0-.26-.26.268.268 0 0 0-.26.26Zm1.606 0c0 .137-.076.015-.26.015-.199 0-.26.122-.26-.016 0-.137.122-.26.26-.26s.26.123.26.26Z"/>
    <path d="M8.48 7.044c-.382 0-.566.26-.566.582 0 .428.382.978 1.055 1.208.673-.245 1.056-.796 1.056-1.208 0-.322-.184-.582-.566-.582-.321 0-.49.2-.49.214 0-.015-.168-.214-.489-.214Zm.505 0s.137-.214.55-.198c.46.015.673.397.673.749 0 .505-.49 1.147-1.239 1.361-.749-.199-1.238-.856-1.238-1.361 0-.352.229-.734.672-.75.429 0 .582.2.582.2Z"/>
    <path d="M8.985 7.763c.076 0 .137.046.137.153 0 .122-.076.32-.137.32-.061 0-.138-.213-.138-.32-.015-.107.061-.153.138-.153Z"/>
    <path d="M8.985 9.554c.199.076.413.137.642.168-.061.06-.122.137-.183.199a3.892 3.892 0 0 0-.46.596 3.893 3.893 0 0 0-.458-.596c-.061-.062-.122-.138-.184-.2.23-.045.444-.106.643-.167Zm0 3.64c-.444 0-.429-.796-.429-.796 0-.505.123-1.01.429-1.514.29.505.428 1.01.428 1.514-.015 0 .015.796-.428.796Zm0-6.653s.795-.031 1.239.382c.198.199.29.459.29.78 0 .352-.23.78-.612 1.086-.26.199-.566.382-.902.52a3.672 3.672 0 0 1-.902-.52c-.398-.306-.612-.734-.612-1.086 0-.321.092-.581.29-.78.398-.413 1.209-.382 1.209-.382Zm1.1 3.013a12.625 12.625 0 0 1 1.851-1.362 21.826 21.826 0 0 1 3.273-1.606 3.776 3.776 0 0 1-.458 1.025c-.398.597-1.178 1.377-2.692 1.759a7.588 7.588 0 0 1-1.973.184Zm-4.174-.2c-1.5-.366-2.295-1.162-2.692-1.758-.275-.428-.413-.81-.459-1.025.474.184 1.881.765 3.273 1.606.734.444 1.346.902 1.85 1.361a6.38 6.38 0 0 1-1.972-.183Zm3.074-2.997s-.872-.03-1.361.444c-.245.229-.368.535-.368.917 0 .413.26.887.704 1.24.153.121.398.305.734.473a3.017 3.017 0 0 1-.535.107c-.535-.52-1.224-1.024-2.034-1.53-1.713-1.054-3.457-1.682-3.472-1.697L2.5 6.25l.015.168c0 .03.077.612.536 1.285.413.627 1.238 1.453 2.814 1.835.887.214 1.636.26 2.233.2a6.18 6.18 0 0 1 .795.948 3.352 3.352 0 0 0-.444 1.651c0 .03.016.581.23.81.107.123.199.154.321.154s.214-.031.321-.153c.214-.23.23-.78.23-.81 0-.551-.138-1.102-.444-1.653.138-.214.306-.428.505-.642.092-.107.183-.199.29-.306.597.061 1.33.03 2.233-.199 1.576-.382 2.386-1.208 2.814-1.835.46-.688.536-1.27.536-1.285l.015-.168-.153.061c-.015 0-1.759.643-3.472 1.698-.81.49-1.483 1.01-2.034 1.53a3.017 3.017 0 0 1-.535-.108 4.11 4.11 0 0 0 .734-.474c.444-.352.704-.826.704-1.239 0-.382-.123-.673-.367-.917-.52-.475-1.392-.444-1.392-.444Z"/>
  </g>
  <defs>
    <clipPath id="a">
      <path fill="#fff" d="M0 0h18v18H0z"/>
    </clipPath>
  </defs>
</svg>
