<svg xmlns="http://www.w3.org/2000/svg" viewBox="0 0 18 18">
  <g clip-path="url(#a)">
    <path fill="#fff" d="M0 0h18v18H0V0Z"/>
    <g clip-path="url(#b)">
      <path fill="#F8D668" d="M3.44 8.54c1.862-1.263 3.74-2.504 5.59-3.785l-.003.073c-.053 1.321-.01 2.644-.023 3.966C7 10.13 5.029 11.508 3.014 12.825a527.29 527.29 0 0 1-.003-3.773c-.037-.27.253-.378.428-.512Z"/>
      <path fill="#E8B13C" d="M9.027 4.828c2.004 1.305 3.963 2.68 5.958 3.996.008 1.34.012 2.68-.001 4.019-.959-.616-1.891-1.273-2.84-1.904-1.039-.727-2.111-1.405-3.14-2.146.013-1.321-.03-2.644.023-3.965Z"/>
    </g>
  </g>
  <defs>
    <clipPath id="a">
      <path fill="#fff" d="M0 0h18v18H0z"/>
    </clipPath>
    <clipPath id="b">
      <path fill="#fff" d="M3 4.75h12v8.101H3z"/>
    </clipPath>
  </defs>
</svg>
