<svg xmlns="http://www.w3.org/2000/svg" viewBox="0 0 18 18">
  <g clip-path="url(#a)">
    <path fill="#067BC3" d="M0 0h18v18H0V0Z"/>
    <path fill="#fff" d="M11.483 6.643 9.007 5.211l-.902-.163v.656l.698.643-.963-.088c.008.022.283.322.834.9l3.646.607.645.418-1.672.085-.683 2.51-2.258 1.507H6.878l.494-.98-.079-.035-1.324 1.015h-.318l1.356-1.91c.014-.13.05-.556.107-1.274l-.204-.289-.544 2.106-1.134 1.367h-.29l.673-.951.94-2.895-.22.121-.427 1.14-.286.16-1.03 2.437A5.877 5.877 0 0 1 3.5 8.846c0-1.377.508-2.587 1.528-3.646 1.091-1.122 2.437-1.688 4.04-1.688 1.438 0 2.676.485 3.71 1.447.82.763 1.328 1.578 1.518 2.448l-2.813-.764Zm2.236.25c-.336-.856-.915-1.567-1.742-2.13a5.035 5.035 0 0 0-2.91-.896c-1.491 0-2.75.526-3.77 1.581-.942.992-1.41 2.121-1.41 3.399 0 .973.232 1.88.7 2.714L5.98 7.833c.293-.152.436-.215.436-.193l.623-1.58.397-.215.501-1.049 1.091.171 2.201 1.23 2.49.695Zm-.468 5.652c-.48.61-1.11 1.092-1.893 1.44a5.542 5.542 0 0 1-2.319.504c-1.757 0-3.163-.648-4.226-1.944h8.438Zm-1.743-1.766-.805 1.507h-.765l1.42-1.784.15.277Zm2.054-1.603-.515 1.2-.469.404-.93 1.506h-.612l.612-1.077.48-.397.693-1.935.741.3Zm-.923-.363-.672 1.262-.362.064.093-.737-.093-.152.093-.822.941.385Zm1.861.685c-.068 1.003-.412 1.932-1.027 2.788h-1.227l1.163-1.848.357-1.195.734.255Z"/>
  </g>
  <defs>
    <clipPath id="a">
      <path fill="#fff" d="M0 0h18v18H0z"/>
    </clipPath>
  </defs>
</svg>
