<svg xmlns="http://www.w3.org/2000/svg" viewBox="0 0 18 18">
  <g clip-path="url(#a)">
    <path d="M0 0h18v18H0V0Z"/>
    <path fill="#fff" d="M6.816 10.274c.726 0 1.315-.569 1.315-1.27 0-.701-.589-1.27-1.315-1.27-.727 0-1.316.569-1.316 1.27 0 .701.59 1.27 1.316 1.27Zm0-4.054c.726 0 1.315-.569 1.315-1.27 0-.701-.589-1.27-1.315-1.27-.727 0-1.316.569-1.316 1.27 0 .701.59 1.27 1.316 1.27Zm4.368 5.565c.727 0 1.316.566 1.316 1.27 0 .699-.589 1.267-1.316 1.267-.726 0-1.315-.568-1.315-1.267 0-.704.589-1.27 1.315-1.27Z"/>
    <path fill="#5D87A1" d="M11.184 10.274c.727 0 1.316-.569 1.316-1.27 0-.701-.589-1.27-1.316-1.27-.726 0-1.315.569-1.315 1.27 0 .701.589 1.27 1.315 1.27Z"/>
  </g>
  <defs>
    <clipPath id="a">
      <path fill="#fff" d="M0 0h18v18H0z"/>
    </clipPath>
  </defs>
</svg>
