<svg xmlns="http://www.w3.org/2000/svg" viewBox="0 0 18 18">
  <g clip-path="url(#a)">
    <path fill="#774DEF" d="M0 0h18v18H0V0Z"/>
    <path fill="#fff" d="M13.865 10.01h-3.69a.643.643 0 0 1-.636-.64V5.64c0-.35.288-.641.635-.641h3.69c.348 0 .636.29.636.641v3.73a.643.643 0 0 1-.635.642Zm-3.391 1.066H8.988a.535.535 0 0 1-.527-.533V6.95a.596.596 0 0 0-.6-.606H4.1a.597.597 0 0 0-.599.606v3.8c0 .34.264.605.6.605h3.594c.287 0 .527.243.527.533v1.464c0 .182.144.34.336.34h1.929c.18 0 .335-.146.335-.34v-1.948c-.024-.182-.167-.327-.347-.327Z"/>
  </g>
  <defs>
    <clipPath id="a">
      <path fill="#fff" d="M0 0h18v18H0z"/>
    </clipPath>
  </defs>
</svg>
