<svg xmlns="http://www.w3.org/2000/svg" viewBox="0 0 18 18">
  <g clip-path="url(#a)">
    <path fill="#fff" d="M0 0h18v18H0V0Z"/>
    <path fill="url(#b)" d="M11.086 5.778c.238 1.564-.605 3.2-1.826 4.157.927.092 1.983.392 2.91.077.523-1.94-.368-3.921-1.563-5.439.242.338.415.788.479 1.205Z"/>
    <path fill="url(#c)" d="M6.63 5.497a4.53 4.53 0 0 0-.435.655c-.668 1.218-.825 2.745.16 3.546.416.338.904.431 1.385.363l.03-.004c.06-.01.119-.02.177-.034l.034-.01c-.654-1.048-1.109-2.74-1.204-4.693-.05.057-.1.116-.148.177h.001Z"/>
    <path fill="url(#d)" d="M10.486 5.716a2.21 2.21 0 0 0-.095-.288l-.003-.007a1.737 1.737 0 0 0-1.433-1.086c-.01 0-.019-.002-.028-.003a2.222 2.222 0 0 0-1.06.167c-.349.145-.685.393-.985.708a2.75 2.75 0 0 0-.105.114c.095 1.952.55 3.644 1.204 4.693l.052-.013.045-.013a2.854 2.854 0 0 0 .15-.049l.09-.034a3.066 3.066 0 0 0 .877-.542l.052-.045.048-.046a4.37 4.37 0 0 0 .11-.109c.029-.03.057-.058.085-.089.08-.087.156-.177.228-.272.668-.865 1.035-2.03.77-3.087l-.002.001Z"/>
    <path fill="url(#e)" d="M13.116 9.054c-.609 1.606-2.578 1.013-3.856.88 1.379-1.052 2.35-3.183 1.619-4.874-.792-1.83-2.754-1.579-4.149-.256-1.166 1.104-1.942 3.09-1.211 4.636.293.62.719 1.076 1.577 1.194.698.096 1.304-.25 2.008-.154 1.369.186 3.095.862 4.316-.704.126-.163.222-.347.298-.54l-.602-.18v-.002Zm-6.76.646c-1.593-1.295-.201-4.49 1.512-5.2 1.125-.468 2.312.003 2.62 1.217.323 1.285-.29 2.732-1.24 3.601-.765.7-1.995 1.11-2.891.381l-.001.001Z"/>
    <path fill="url(#f)" d="M9.1 12.732c-.989.709-3.151 1.104-3.173 1.147.013-.005 2.462-.248 3.98-1.4.216-.164.42-.522.39-.804-.035-.336-.27-.646-.538-.84a2.86 2.86 0 0 0-.685-.36c-.691-.084-1.29.252-1.98.157a2.665 2.665 0 0 1-.123-.02c-.008 0-.017 0-.025-.002.487.129.908.16 1.377.37.186.073.35.145.492.217.73.358 1.258.835.284 1.533l.001.002Z"/>
    <path fill="url(#g)" d="M14.092 9.71a1.63 1.63 0 0 0-.374-.475c-.006.015-.011.029-.018.043-.014.037-.03.071-.045.106-.064.138-.142.27-.235.39-.861 1.105-1.973 1.094-3.034.926-.444-.07-.878-.167-1.28-.222a.292.292 0 0 0-.03-.004c.148.057.4.155.684.361.269.194.504.503.54.84.029.282-.175.64-.39.804-1.52 1.153-3.968 1.396-3.981 1.4.022-.043 2.184-.438 3.173-1.147.973-.697.446-1.175-.285-1.533a8.114 8.114 0 0 0-.491-.217c-.123.196-.251.4-.387.605-1.188 2.026-2.366 2.444-4.619 2.629l-.03.002c1.1-.01 2.71-.172 3.851-.343l-.03.007c1.27-.144 2.544-.392 3.758-.8a10.203 10.203 0 0 0 1.537-.644 4.853 4.853 0 0 0 1.178-.824c.337-.33.634-.748.664-1.234a1.224 1.224 0 0 0-.154-.67h-.002Zm-9.34 4.328.036-.003c-.013 0-.025.003-.037.003Z"/>
    <path fill="url(#h)" d="M3.297 14.197c-.01.004-.094.025-.01.02l.031-.001c2.254-.185 3.431-.603 4.619-2.629l.011-.02c-1.216 1.352-2.967 2.035-4.652 2.63Z"/>
  </g>
  <defs>
    <radialGradient id="b" cx="0" cy="0" r="1" gradientTransform="translate(10.742 5.852) scale(4.64185)" gradientUnits="userSpaceOnUse">
      <stop offset=".03" stop-color="#BAF0FF"/>
      <stop offset=".46" stop-color="#54DAFF"/>
      <stop offset=".87" stop-color="#0881B6"/>
    </radialGradient>
    <radialGradient id="c" cx="0" cy="0" r="1" gradientTransform="translate(6.567 11.818) scale(6.35668)" gradientUnits="userSpaceOnUse">
      <stop offset=".36" stop-color="#BAF0FF"/>
      <stop offset="1" stop-color="#54DAFF"/>
    </radialGradient>
    <radialGradient id="d" cx="0" cy="0" r="1" gradientTransform="rotate(-86.73 8.882 .751) scale(7.09038 2.97796)" gradientUnits="userSpaceOnUse">
      <stop offset=".17" stop-color="#54DAFF"/>
      <stop offset=".26" stop-color="#4DD2F8"/>
      <stop offset=".39" stop-color="#3BBCE7"/>
      <stop offset=".55" stop-color="#1D9ACA"/>
      <stop offset=".64" stop-color="#0881B6"/>
      <stop offset=".84" stop-color="#005A80"/>
      <stop offset="1" stop-color="#004A69"/>
    </radialGradient>
    <radialGradient id="e" cx="0" cy="0" r="1" gradientTransform="translate(13 10.047) scale(11.5158)" gradientUnits="userSpaceOnUse">
      <stop offset=".58" stop-color="#A1CB5A"/>
      <stop offset="1" stop-color="#82BA22"/>
    </radialGradient>
    <radialGradient id="f" cx="0" cy="0" r="1" gradientTransform="matrix(3.31327 0 0 2.05423 6.913 11.89)" gradientUnits="userSpaceOnUse">
      <stop offset=".58" stop-color="#54DAFF"/>
      <stop offset="1" stop-color="#0881B6"/>
    </radialGradient>
    <radialGradient id="g" cx="0" cy="0" r="1" gradientTransform="translate(6.363 13.893) scale(9.75703)" gradientUnits="userSpaceOnUse">
      <stop offset=".23" stop-color="#005A80"/>
      <stop offset=".53" stop-color="#0A84B9"/>
      <stop offset=".63" stop-color="#22A7DB"/>
      <stop offset=".79" stop-color="#36CAFF"/>
      <stop offset=".81" stop-color="#47CEFF"/>
      <stop offset=".85" stop-color="#76DAFF"/>
      <stop offset=".91" stop-color="#BFEEFF"/>
      <stop offset=".95" stop-color="#FCFEFF"/>
    </radialGradient>
    <linearGradient id="h" x1="5.733" x2="6.209" y1="13.127" y2="13.964" gradientUnits="userSpaceOnUse">
      <stop stop-color="#54DAFF"/>
      <stop offset="1" stop-color="#005A80"/>
    </linearGradient>
    <clipPath id="a">
      <path fill="#fff" d="M0 0h18v18H0z"/>
    </clipPath>
  </defs>
</svg>
