<svg xmlns="http://www.w3.org/2000/svg" viewBox="0 0 18 18">
  <g clip-path="url(#a)">
    <path fill="#fff" d="M0 0h18v18H0V0Z"/>
    <path fill="#211D53" d="M3.566 8.39c.117-.579.27-.968.565-1.385.576-.815 1.432-1.335 2.41-1.4 1.48-.099 2.99-.18 4.451.01 2.218.29 3.443 2.172 2.904 4.145-.068.249-.186.485-.312.805-.568-.466-1.085-.882-1.59-1.31-.067-.057-.094-.18-.11-.277-.178-1.092-.758-1.655-1.867-1.712a24.25 24.25 0 0 0-2.503 0c-1.084.057-1.814.725-1.848 1.61-.035.942.612 1.637 1.692 1.736.595.055 1.2.01 1.9.01l-.763-.675c.02-.04.043-.078.064-.118.934 0 1.869-.001 2.804.003.066 0 .146.026.196.067.979.8 1.954 1.606 2.93 2.41-.014.052.014.139 0 .191h-2.847c-.168-.008-.16-.194-.328-.203-.174-.008-.348.03-.523.032-1.293.015-2.6.152-3.876.008-1.745-.196-3.118-1.107-3.38-2.944-.024-.164-.062-.466.03-1.004Z"/>
  </g>
  <defs>
    <clipPath id="a">
      <path fill="#fff" d="M0 0h18v18H0z"/>
    </clipPath>
  </defs>
</svg>
