<svg xmlns="http://www.w3.org/2000/svg" viewBox="0 0 18 18">
  <g clip-path="url(#a)">
    <path fill="#FEE600" d="M0 0h18v18H0V0Z"/>
    <path fill="#2B2D33" fill-rule="evenodd" d="m11.677 8.146 1.53-1.53.409.41.002-.003c0-.263-.077-1.166-.803-1.873-.812-.793-1.625-.329-1.906-.05L9.436 6.573l.365.365L9 7.74l-.801-.8.365-.366L7.09 5.1c-.28-.28-1.093-.743-1.906.05-.726.707-.803 1.61-.803 1.873l.002.003.41-.41 1.529 1.53.421-.421V6.717l.434.434v1.218l.596.597-3.097 3.097 1.226 1.226L9 10.19l3.097 3.098 1.226-1.226-3.098-3.097.597-.597V7.151l.434-.434v1.008l.421.421Z" clip-rule="evenodd"/>
  </g>
  <defs>
    <clipPath id="a">
      <path fill="#fff" d="M0 0h18v18H0z"/>
    </clipPath>
  </defs>
</svg>
