<svg xmlns="http://www.w3.org/2000/svg" viewBox="0 0 18 18">
  <g clip-path="url(#a)">
    <path fill="#181B32" d="M0 0h18v18H0V0Z"/>
    <path fill="#39BDEE" d="M7.644 9.365h3.305a1.306 1.306 0 0 0 0-2.61H4.801l1.093 1h5.05c.17 0 .31.14.31.31 0 .169-.14.309-.31.309H7.747c-1.021 0-1.852.83-1.852 1.851v.31c.144-.84.83-1.17 1.75-1.17Z"/>
    <path fill="#fff" d="M14.25 8.055a3.308 3.308 0 0 0-3.3-3.305h-7.7l1.004 1h6.695a2.308 2.308 0 0 1 2.305 2.31 2.308 2.308 0 0 1-2.305 2.309H7c-.415 0-.78.25-.932.635a.989.989 0 0 0 .254 1.098l1.903 1.758h1.47L7 11.364v-.004h1.475l2.703 2.5h1.47l-2.703-2.5h1.05a3.313 3.313 0 0 0 3.255-3.305Z"/>
  </g>
  <defs>
    <clipPath id="a">
      <path fill="#fff" d="M0 0h18v18H0z"/>
    </clipPath>
  </defs>
</svg>
