<svg xmlns="http://www.w3.org/2000/svg" viewBox="0 0 18 18">
  <g clip-path="url(#a)">
    <path fill="#212E61" d="M0 0h18v18H0V0Z"/>
    <path fill="#fff" fill-rule="evenodd" d="m13.157 10.323-3.76-2.715a.543.543 0 0 0-.635 0l-1.675 1.21a.452.452 0 0 1-.713-.434.446.446 0 0 1 .18-.294l1.189-.858 1.034-.747a1.487 1.487 0 0 1 1.891.124.33.33 0 0 0 .42.022l2.069-1.494v5.186Zm-.048 1.062-.005.036a.505.505 0 0 1-.123.246.419.419 0 0 1-.537.038l-1.835-1.326-.014-.01c-.11-.08-.292-.08-.394.013a.303.303 0 0 0 .026.472l.022.017 1.683 1.215a.412.412 0 0 1 .01.68l-.038.028a.42.42 0 0 1-.49 0l-2.088-1.508c-.11-.08-.293-.08-.394.013a.303.303 0 0 0 .025.472l1.706 1.232a.427.427 0 0 1 .178.283.411.411 0 0 1-.167.397l-.039.028a.42.42 0 0 1-.49 0l-.381-.275-1.707-1.233c-.111-.08-.293-.08-.394.013a.303.303 0 0 0 .025.472l1.706 1.232a.412.412 0 0 1 .01.68l-.037.027a.419.419 0 0 1-.442.03l-4.082-2.949v-6.57l1.774 1.28.559.404-1.013.732c-.242.174-.4.432-.447.726a1.113 1.113 0 0 0 1.107 1.287c.234 0 .462-.073.656-.213l1.416-1.023c.11-.08.26-.08.37 0l3.716 2.686c.101.094.15.23.128.368Zm-.43-6.722L10.994 5.88a.156.156 0 0 1-.175.006 2.16 2.16 0 0 0-2.286-.035.348.348 0 0 0-.063.036l-.727.526-2.422-1.75h7.358Zm1.047-.566A.333.333 0 0 0 13.49 4H4.51a.332.332 0 0 0-.333.331v7.546c0 .106.05.206.137.268l4.32 3.122a.626.626 0 0 0 .732 0l4.32-3.12a.331.331 0 0 0 .137-.269V4.331a.331.331 0 0 0-.097-.234Z" clip-rule="evenodd"/>
  </g>
  <defs>
    <clipPath id="a">
      <path fill="#fff" d="M0 0h18v18H0z"/>
    </clipPath>
  </defs>
</svg>
