<svg xmlns="http://www.w3.org/2000/svg" viewBox="0 0 18 18">
  <g clip-path="url(#a)">
    <path fill="url(#b)" d="M0 0h18v18H0V0Z"/>
    <g clip-path="url(#c)">
      <path fill="url(#d)" d="M5.6 14.186V6.633c.29-.051.61-.081.926-.081 1.322 0 2.064.437 2.064 1.503 0 1.067-.7 1.448-1.85 1.448-.33 0-.739-.03-1.016-.072.085.41.2.826.328 1.208.53 1.73 1.254 3.179 2.005 4.143.077.094.18.162.303.218a5.948 5.948 0 0 1-2.76-.818v.004ZM8.624 3A5.947 5.947 0 0 0 4.18 4.992c.653-.094 1.454-.15 2.197-.15 2.644 0 4.235.878 4.235 3.11 0 1.359-.576 2.258-1.476 2.751a7.562 7.562 0 0 1-1.049.42c.734 1.958 2.662 2.815 3.408 3.157a6.013 6.013 0 0 0 3.11-5.27C14.607 5.69 11.93 3 8.624 3Z"/>
      <path fill="#fff" d="M5.6 14.186V6.633c.29-.051.61-.081.926-.081 1.322 0 2.064.437 2.064 1.503 0 1.067-.7 1.448-1.85 1.448-.33 0-.739-.03-1.016-.072.085.41.2.826.328 1.208.53 1.73 1.254 3.179 2.005 4.143.077.094.18.162.303.218a5.948 5.948 0 0 1-2.76-.818v.004ZM8.624 3A5.947 5.947 0 0 0 4.18 4.992c.653-.094 1.454-.15 2.197-.15 2.644 0 4.235.878 4.235 3.11 0 1.359-.576 2.258-1.476 2.751a7.562 7.562 0 0 1-1.049.42c.734 1.958 2.662 2.815 3.408 3.157a6.013 6.013 0 0 0 3.11-5.27C14.607 5.69 11.93 3 8.624 3Z"/>
    </g>
  </g>
  <defs>
    <linearGradient id="b" x1="9" x2="9" y1="18.013" y2="0" gradientUnits="userSpaceOnUse">
      <stop offset=".2" stop-color="#00274F"/>
      <stop offset=".34" stop-color="#002D57"/>
      <stop offset=".57" stop-color="#003E70"/>
      <stop offset=".8" stop-color="#00558F"/>
    </linearGradient>
    <linearGradient id="d" x1="9.392" x2="9.392" y1="15.009" y2="3" gradientUnits="userSpaceOnUse">
      <stop offset=".2" stop-color="#00274F"/>
      <stop offset=".34" stop-color="#002D57"/>
      <stop offset=".57" stop-color="#003E70"/>
      <stop offset=".8" stop-color="#00558F"/>
    </linearGradient>
    <clipPath id="a">
      <path fill="#fff" d="M0 0h18v18H0z"/>
    </clipPath>
    <clipPath id="c">
      <path fill="#fff" d="M4.06 3h10.56v12H4.06z"/>
    </clipPath>
  </defs>
</svg>
