<svg xmlns="http://www.w3.org/2000/svg" viewBox="0 0 18 18">
  <g clip-path="url(#a)">
    <path fill="#fff" d="M0 0h18v18H0V0Z"/>
    <path fill="url(#b)" d="m6.415 6.718 4.803-3.557c.07-.052.034-.161-.051-.161h-3.94c-.454 0-.894.182-1.215.503L3.503 6.009A1.73 1.73 0 0 0 3 7.227v3.546c0 .457.182.894.503 1.218l2.506 2.506c.324.321.764.503 1.218.503h3.41c.093 0 .124-.127.036-.17L3.9 11.636a.81.81 0 0 1-.464-.73v-1.7a.56.56 0 0 1 .228-.451l.975-.725V6.715h1.776v.003Z"/>
    <path fill="#CD163F" d="m11.085 8.088-.464 1.26h.906l-.442-1.26Zm-3.897.051c0-.403-.276-.46-.567-.46h-.585v.951H6.6c.297-.003.588-.042.588-.49Z"/>
    <path fill="#CD163F" d="M14.564 6.078 12.23 3.745a.385.385 0 0 0-.49-.042L7.247 6.727c.852.054 1.367.397 1.367 1.185 0 .685-.37 1.112-.997 1.188v.012a.981.981 0 0 1 .627.37.529.529 0 0 1 .103.215l.355 1.075 1.527-3.824a.356.356 0 0 1 .328-.221H11.9l1.785 4.467h-1.103a.587.587 0 0 1-.527-.355l-.173-.488H10.26l-.316.843h-2.42a.264.264 0 0 1-.261-.228l-.403-1.17c-.055-.2-.255-.233-.452-.233h-.39v1.627h-1.38V8.482l-.824.555a.272.272 0 0 0-.118.227v1.725c0 .112.067.212.167.254l7.772 3.255c.146.063.313.03.425-.08l2.503-2.493a1.49 1.49 0 0 0 .439-1.058V7.133a1.48 1.48 0 0 0-.44-1.055Z"/>
  </g>
  <defs>
    <linearGradient id="b" x1="5.043" x2="11.344" y1="14.005" y2="3.09" gradientUnits="userSpaceOnUse">
      <stop offset=".28" stop-color="#CD163F"/>
      <stop offset=".9" stop-color="#F58025"/>
    </linearGradient>
    <clipPath id="a">
      <path fill="#fff" d="M0 0h18v18H0z"/>
    </clipPath>
  </defs>
</svg>
