<svg xmlns="http://www.w3.org/2000/svg" viewBox="0 0 18 18">
  <g clip-path="url(#a)">
    <path fill="#061726" d="M0 0h18v18H0V0Z"/>
    <path fill="#85C742" d="M10.75 9.709a.862.862 0 0 0 0-1.34A9.721 9.721 0 0 0 8.775 7.1c-.488-.234-1.034.091-1.112.648-.12.85-.141 1.707-.063 2.521.053.563.591.9 1.087.684a8.996 8.996 0 0 0 2.065-1.24V9.71Zm3.178-2.476a2.681 2.681 0 0 1 .007 3.609 11.985 11.985 0 0 1-6.007 3.588 2.345 2.345 0 0 1-2.826-1.64c-.698-2.384-.595-5.079.078-7.473C5.534 4.06 6.717 3.27 7.935 3.56c2.256.538 4.374 1.923 5.993 3.673Z"/>
  </g>
  <defs>
    <clipPath id="a">
      <path fill="#fff" d="M0 0h18v18H0z"/>
    </clipPath>
  </defs>
</svg>
