<svg xmlns="http://www.w3.org/2000/svg" viewBox="0 0 18 18">
  <g clip-path="url(#a)">
    <path fill="#38D430" d="M0 0h18v18H0V0Z"/>
    <path fill="#fff" d="M8.356 4.734c0 .43.188.832.483 1.1h.322c.295-.268.483-.67.483-1.1 0-.51-.242-.966-.644-1.234-.376.295-.644.724-.644 1.234Zm2.227.242a1.53 1.53 0 0 0-.134 1.18c.107.054.16.108.268.161.402-.08.751-.348.966-.724.241-.43.268-.94.054-1.368a1.544 1.544 0 0 0-1.154.75Zm1.797 1.341a1.546 1.546 0 0 0-.724.966c.054.107.107.16.161.268.376.107.805.08 1.18-.134.43-.242.698-.698.752-1.154a1.386 1.386 0 0 0-1.369.054Zm.886 2.039c-.43 0-.832.188-1.1.483v.322c.268.295.67.483 1.1.483.51 0 .966-.241 1.234-.644-.295-.402-.724-.644-1.234-.644Zm-4.91 4.91c0-.43.188-.832.483-1.1h.322c.295.268.483.67.483 1.1 0 .51-.242.966-.644 1.234-.376-.295-.644-.724-.644-1.234Zm2.227-.242a1.53 1.53 0 0 1-.134-1.18c.107-.054.16-.108.268-.161.402.08.751.348.966.724.241.43.268.939.054 1.368a1.544 1.544 0 0 1-1.154-.75Zm1.797-1.341a1.546 1.546 0 0 1-.724-.966c.054-.107.107-.16.161-.268a1.53 1.53 0 0 1 1.18.134c.43.242.698.698.752 1.154a1.39 1.39 0 0 1-1.369-.054ZM7.417 4.976c.215.375.242.805.134 1.18-.107.054-.16.108-.268.161a1.458 1.458 0 0 1-.966-.724 1.457 1.457 0 0 1-.054-1.368c.457.053.913.322 1.154.75ZM5.62 6.317c.375.215.617.563.724.966-.054.107-.107.16-.161.268a1.53 1.53 0 0 1-1.18-.134 1.544 1.544 0 0 1-.752-1.154 1.39 1.39 0 0 1 1.369.054Zm1.797 6.707a1.53 1.53 0 0 0 .134-1.18c-.107-.054-.16-.108-.268-.161-.403.08-.751.348-.966.724a1.46 1.46 0 0 0-.054 1.368 1.544 1.544 0 0 0 1.154-.75ZM5.62 11.683c.375-.214.617-.563.724-.966-.054-.107-.107-.16-.161-.268a1.53 1.53 0 0 0-1.18.134c-.43.242-.698.698-.752 1.154.43.214.94.214 1.369-.054Zm-.886-2.039c.43 0 .832-.188 1.1-.483V8.84a1.499 1.499 0 0 0-1.1-.483c-.51 0-.966.242-1.234.644.268.403.724.644 1.234.644Zm1.905.107c-.107-.08-.188-.134-.268-.241A3.287 3.287 0 0 1 6.317 9c0-.188.027-.349.054-.51.107-.08.188-.134.268-.241h1.02l.16.161v1.18l-.16.161h-1.02Zm3.568-2.119v-.778c.108-.054.134-.08.242-.134.322.214.617.51.832.831-.054.108-.081.135-.135.242h-.778l-.16-.161ZM6.72 7.551c.214-.322.51-.617.831-.831.108.053.134.08.242.134v.778l-.161.16h-.778c-.054-.106-.08-.133-.134-.24ZM8.249 9.59V8.41l.16-.161H9.59l.161.161v1.18l-.16.161H8.41l-.161-.16Zm0-1.958v-.993c.08-.107.134-.187.241-.268A3.27 3.27 0 0 1 9 6.317c.188 0 .349.027.51.054.08.107.134.188.241.268v.993l-.16.161H8.41l-.161-.161Zm2.119 2.575h.778c.054.107.08.134.134.241a3.06 3.06 0 0 1-.831.832c-.107-.053-.134-.08-.242-.134v-.778l.161-.161ZM7.551 11.28a3.067 3.067 0 0 1-.831-.832c.053-.107.08-.134.134-.241h.778l.16.161v.778c-.107.054-.133.08-.24.134Zm2.656-1.69V8.41l.161-.161h.993c.107.08.188.134.268.241.027.161.054.35.054.51 0 .161-.027.349-.054.51-.107.08-.188.134-.295.241h-1.02c0-.053-.053-.107-.107-.16ZM9 11.71c-.188 0-.349-.027-.51-.054-.08-.107-.134-.188-.241-.269v-1.019l.16-.161H9.59l.161.161v1.02c-.08.107-.134.187-.241.268a3.291 3.291 0 0 1-.51.053Z"/>
  </g>
  <defs>
    <clipPath id="a">
      <path fill="#fff" d="M0 0h18v18H0z"/>
    </clipPath>
  </defs>
</svg>
