<svg xmlns="http://www.w3.org/2000/svg" viewBox="0 0 18 18">
  <g clip-path="url(#a)">
    <path fill="#fff" d="M0 0h18v18H0V0Z"/>
    <path fill="#00AFAA" d="M6.773 7.161c.285.352.343.805.204 1.2a.7.7 0 0 0 .132.702l.015.015a.666.666 0 0 0 .702.212 1.56 1.56 0 0 1 1.85.922c.22.52.132 1.119-.226 1.558-.68.827-1.873.76-2.473-.022a1.565 1.565 0 0 1-.168-1.617.672.672 0 0 0-.095-.724L6.707 9.4a.73.73 0 0 0-.68-.249 1.234 1.234 0 0 1-.688-.088.507.507 0 0 0-.534.073l-.037.03a.51.51 0 0 0-.183.402.796.796 0 0 1-.336.673.801.801 0 0 1-1.083-.16.786.786 0 0 1 .168-1.127.775.775 0 0 1 .673-.117.512.512 0 0 0 .63-.607 1.23 1.23 0 0 1 .482-1.295 1.22 1.22 0 0 1 1.654.226Zm4.462 3.709a1.24 1.24 0 0 1-.205-1.199.701.701 0 0 0-.132-.702l-.014-.015a.666.666 0 0 0-.703-.212 1.56 1.56 0 0 1-1.85-.922 1.525 1.525 0 0 1 .226-1.558 1.564 1.564 0 0 1 2.633 1.646.672.672 0 0 0 .096.724l.007.008a.729.729 0 0 0 .68.248 1.24 1.24 0 0 1 .688.088c.176.08.388.051.534-.073l.037-.03a.51.51 0 0 0 .183-.402.796.796 0 0 1 .336-.673.801.801 0 0 1 1.083.161.786.786 0 0 1-.168 1.127.775.775 0 0 1-.673.117.512.512 0 0 0-.63.607 1.23 1.23 0 0 1-.482 1.295 1.222 1.222 0 0 1-1.646-.234Z"/>
  </g>
  <defs>
    <clipPath id="a">
      <path fill="#fff" d="M0 0h18v18H0z"/>
    </clipPath>
  </defs>
</svg>
