<svg xmlns="http://www.w3.org/2000/svg" viewBox="0 0 18 18">
  <g clip-path="url(#a)">
    <path d="M0 0h18v18H0V0Z"/>
    <path fill="#0096D5" d="M11.254 7.018 7.17 11.102l5.352 1.434a.136.136 0 0 0 .166-.167l-1.434-5.351Z"/>
    <path fill="#00C9E8" d="m12.19 5.805-6.718-1.8a.13.13 0 0 0-.16.16L7.17 11.1l5.077-5.078a.13.13 0 0 0-.058-.218Z"/>
    <path fill="#1D3AB2" d="m7.17 11.102.547 2.04-1.792-.48a.149.149 0 0 1-.067-.248l1.312-1.312Z"/>
    <path fill="#206BCE" d="m7.17 11.102 3.77 1.01-2.591 2.591a.138.138 0 0 1-.23-.061l-.949-3.54Z"/>
  </g>
  <defs>
    <clipPath id="a">
      <path fill="#fff" d="M0 0h18v18H0z"/>
    </clipPath>
  </defs>
</svg>
