<svg xmlns="http://www.w3.org/2000/svg" viewBox="0 0 18 18">
  <g clip-path="url(#a)">
    <path fill="#0A253E" d="M0 0h18v18H0V0Z"/>
    <path fill="#fff" d="M8.172 4h3.754v1.818c-1.085.001-2.17-.002-3.256.002-.406.027-.849.066-1.178.328-.253.226-.232.599-.21.908.03.327.275.586.565.716.636.299 1.35.33 2.022.503.754.185 1.559.378 2.135.932.44.407.648 1.009.684 1.596.074.798-.09 1.661-.633 2.276-.547.631-1.402.908-2.22.92H5.784v-1.804c1.086-.002 2.172.003 3.257-.002.475-.02 1-.01 1.402-.304.244-.177.29-.496.274-.776a.858.858 0 0 0-.348-.745c-.357-.256-.799-.345-1.221-.433-.762-.14-1.53-.289-2.254-.57-.53-.208-1.022-.565-1.296-1.073-.193-.346-.266-.74-.302-1.13v-.607c.046-.657.296-1.316.78-1.776.553-.54 1.342-.756 2.097-.779Z"/>
  </g>
  <defs>
    <clipPath id="a">
      <path fill="#fff" d="M0 0h18v18H0z"/>
    </clipPath>
  </defs>
</svg>
