<svg xmlns="http://www.w3.org/2000/svg" viewBox="0 0 18 18">
  <g clip-path="url(#a)">
    <path fill="#671B63" d="M0 0h18v18H0V0Z"/>
    <path fill="#C3922E" d="M8.828 11.265a1.47 1.47 0 0 1-1.48-.221c-.168-.14-.36-.406-.46-.986l-.156.278s.087.842.805 1.189c.272.117.57.157.863.116l.428-.376Zm.243-4.549a1.471 1.471 0 0 1 1.48.222c.167.14.361.406.46.986l.161-.28s-.087-.842-.805-1.19a1.62 1.62 0 0 0-.864-.116l-.432.378Z"/>
    <path fill="url(#b)" d="M7.077 7.405c.316-.407 1.601-1.578 2.42-2.447a2.939 2.939 0 0 0 .797-1.91s.327.766.343 1.263c.013.447-.047 1.221-.557 1.873-.317.408-1.6 1.578-2.42 2.448a3.374 3.374 0 0 0-.871 1.962s-.197-.874-.27-1.316c-.071-.442.048-1.218.558-1.873Z"/>
    <path fill="#fff" d="M10.682 11.784c-.16-1.294-2.563-5.102-2.516-6.142.089-1.954 2.128-2.594 2.128-2.594-1.934-.37-3.721 1.422-3.49 3.3.161 1.293 2.564 5.1 2.518 6.14-.089 1.955-1.997 2.459-1.997 2.459 1.933.371 3.59-1.286 3.357-3.163Z"/>
    <path fill="url(#c)" d="M7.71 11.798c.326-.41 1.65-1.587 2.494-2.458a3.36 3.36 0 0 0 .903-1.962s.198.873.27 1.314c.071.44-.054 1.222-.58 1.88-.327.409-1.65 1.588-2.495 2.457a3.72 3.72 0 0 0-.977 1.922s-.187-.806-.197-1.27c-.005-.45.055-1.225.582-1.883Z"/>
  </g>
  <defs>
    <radialGradient id="b" cx="0" cy="0" r="1" gradientTransform="rotate(45 -3.965 13.722) scale(2.94306)" gradientUnits="userSpaceOnUse">
      <stop stop-color="#FFFAC2"/>
      <stop offset="1" stop-color="#CDA349"/>
    </radialGradient>
    <radialGradient id="c" cx="0" cy="0" r="1" gradientTransform="rotate(45 -8.864 16.706) scale(2.99236)" gradientUnits="userSpaceOnUse">
      <stop stop-color="#FFFAC2"/>
      <stop offset="1" stop-color="#CDA349"/>
    </radialGradient>
    <clipPath id="a">
      <path fill="#fff" d="M0 0h18v18H0z"/>
    </clipPath>
  </defs>
</svg>
