<svg xmlns="http://www.w3.org/2000/svg" viewBox="0 0 18 18">
  <g clip-path="url(#a)">
    <path d="M0 0h18v18H0V0Z"/>
    <path fill="#fff" fill-rule="evenodd" d="M14.417 4.637c-.06.204-.908 2.196-1.755 4.03-.762 1.66-1.48 3.087-1.762 3.652-1.123 2.243-1.75 2.478-1.902 2.478-.151-.004-.772-.237-1.901-2.478a115.88 115.88 0 0 1-1.761-3.651c-.844-1.841-1.688-3.827-1.758-4.03 0 0-.167-.327-.013-.397.202-.091.497.232.598.267.3.058.576.2.799.409.385.38 2.814 4.026 3.395 4.705.31.363.565.686.644.686.08 0 .333-.323.644-.686.582-.678 3.007-4.324 3.394-4.705.222-.209.5-.351.799-.41.1-.034.396-.357.597-.266.154.07-.014.396-.018.396Zm-.27.066c.1-.114.34-.337.25-.385-.124-.07-.42.264-.597.31a1.108 1.108 0 0 0-.641.335c-.32.302-.903 1.254-1.933 2.792-.644.964-1.18 1.705-1.48 2.081-.375.48-.632.707-.745.707-.113 0-.372-.232-.745-.707-.301-.377-.838-1.119-1.481-2.081-1.031-1.538-1.614-2.49-1.932-2.792a1.112 1.112 0 0 0-.64-.336c-.176-.045-.474-.378-.6-.31-.086.049.155.272.252.386.371.423 3 5.87 3.594 6.883.595 1.012 1.344 2.249 1.553 2.259.21 0 .968-1.25 1.56-2.26.593-1.007 3.22-6.46 3.59-6.882h-.005Z" clip-rule="evenodd"/>
    <path fill="#fff" d="M13.557 5c-.14.232-.691 1.313-1.395 2.589a146.617 146.617 0 0 1-1.9 3.356c-.349.589-1.044 1.592-1.261 1.6-.216-.01-.91-1.011-1.26-1.602A182.913 182.913 0 0 1 5.844 7.59C5.138 6.32 4.582 5.233 4.449 5c-.133-.23-.092-.31.184 0 .41.477 1.396 2.19 1.396 2.19s1.7 2.836 1.965 3.211c.266.375.81 1.077 1.005 1.084.2-.007.756-.728 1.007-1.084.251-.356 1.968-3.21 1.968-3.21s.988-1.71 1.4-2.181c.275-.32.318-.26.184-.01Z"/>
  </g>
  <defs>
    <clipPath id="a">
      <path fill="#fff" d="M0 0h18v18H0z"/>
    </clipPath>
  </defs>
</svg>
