<svg xmlns="http://www.w3.org/2000/svg" viewBox="0 0 18 18">
  <g clip-path="url(#a)">
    <path fill="#002554" d="M0 0h18v18H0V0Z"/>
    <path fill="#0C9" d="M12.03 4.938a.57.57 0 0 0-.484.273L6.98 12.499a.264.264 0 0 0 0 .277l1.122 1.814a.286.286 0 0 0 .492.002l6.035-9.645-2.6-.009Z"/>
    <path fill="#0E7A77" d="M6.462 7.627 4.245 7.62a.254.254 0 0 0-.205.39l1.08 1.759 1.342-2.142Z"/>
    <path fill="#099D91" d="m6.769 12.416 3.896-6.229-2.71-.008a.569.569 0 0 0-.484.272l-2.13 3.393a.264.264 0 0 0 0 .278l1.428 2.294Z"/>
  </g>
  <defs>
    <clipPath id="a">
      <path fill="#fff" d="M0 0h18v18H0z"/>
    </clipPath>
  </defs>
</svg>
