<svg xmlns="http://www.w3.org/2000/svg" viewBox="0 0 18 18">
  <g clip-path="url(#a)">
    <path d="M0 0h18v18H0V0Z"/>
    <g clip-path="url(#b)">
      <path fill="#fff" fill-rule="evenodd" d="M8.463 9.268h.225v-.664h-.225v-.15h.889v.15h-.22v.664h.202c.194 0 .317-.123.317-.294h.145v.444H8.463v-.15Zm1.527-.664h-.22v-.15h.968v.15h-.233l.321.594.326-.594h-.194v-.15h.664v.15h-.22l-.444.814h-.52l-.448-.814Zm-4.184 0h-.233l.325.594.321-.594h-.193v-.15h.664v.15h-.22l-.44.814h-.519l-.449-.814h-.22v-.15h.964v.15Zm1.698-.167c.45 0 .687.22.687.501 0 .286-.225.51-.682.51-.458 0-.687-.228-.687-.51 0-.281.238-.506.682-.501Zm.01.15c-.155-.005-.243.158-.247.343 0 .176.07.356.233.36.167.005.237-.176.242-.352.004-.184-.075-.352-.229-.352Zm4.918-.15c.45 0 .687.22.687.501 0 .286-.225.51-.682.51-.458 0-.687-.228-.687-.51 0-.281.238-.506.682-.501Zm-.237.493c0 .176.07.356.233.36.167.005.237-.176.242-.352.004-.184-.075-.347-.229-.352-.154-.004-.242.159-.246.344ZM14.5 9c0 3.036-2.464 5.5-5.5 5.5A5.502 5.502 0 0 1 3.5 9a5.502 5.502 0 0 1 8.629-4.523l-.56.559a4.726 4.726 0 1 0 1.4 1.399l.559-.559A5.48 5.48 0 0 1 14.5 9Zm-.215-5.284v2.512h-.15a5.976 5.976 0 0 0-.633-.933l-.784.783a4.83 4.83 0 0 0-.796-.792l.783-.783a5.916 5.916 0 0 0-.937-.633v-.154h2.517Z" clip-rule="evenodd"/>
    </g>
  </g>
  <defs>
    <clipPath id="a">
      <path fill="#fff" d="M0 0h18v18H0z"/>
    </clipPath>
    <clipPath id="b">
      <path fill="#fff" d="M3.5 3.5h11v11h-11z"/>
    </clipPath>
  </defs>
</svg>
