<svg xmlns="http://www.w3.org/2000/svg" viewBox="0 0 18 18">
  <g clip-path="url(#a)">
    <path fill="#76787A" d="M0 0h18v18H0V0Z"/>
    <g clip-path="url(#b)">
      <mask id="c" width="97" height="56" x="-7" y="-7" maskUnits="userSpaceOnUse" style="mask-type:luminance">
        <path fill="#fff" d="M-6.485-6.022h96.264v54.224H-6.485V-6.022Z"/>
      </mask>
      <g mask="url(#c)">
        <path fill="#fff" d="M13.432 11.649 11.295 7.41l-2.138 4.239H7.414l-.5-.991-.496.978-1.475.013-2.438-4.834H3.98l2.04 4.034.496-.978-1.54-3.056h1.48l2.168 4.3 2.174-4.3h1.675l2.439 4.834h-1.48Z"/>
        <path fill="#005288" d="M9.66 11.65c.67-1.853 2.37-2.982 4.478-2.982.48 0 .933.1 1.358.261v.452c-.412-.185-.898-.286-1.475-.286-1.652 0-2.507 1.16-2.868 2.554H9.66Z"/>
      </g>
    </g>
  </g>
  <defs>
    <clipPath id="a">
      <path fill="#fff" d="M0 0h18v18H0z"/>
    </clipPath>
    <clipPath id="b">
      <path fill="#fff" d="M2.5 6.813h13v4.838h-13z"/>
    </clipPath>
  </defs>
</svg>
