<svg xmlns="http://www.w3.org/2000/svg" viewBox="0 0 18 18">
  <g clip-path="url(#a)">
    <path fill="#EE2D2E" d="M0 0h18v18H0V0Z"/>
    <path fill="#fff" fill-rule="evenodd" d="M9.37 10.23c-.079-.127-.205-.376-.375-.376-.24 0-.399.33-.502.513l-.831 1.448c-.16.262-.354.604-.707.604-.423 0-.672-.456-.867-.777L3.924 8.12C3.56 7.516 3 7.867 3 7.286c0-.73 1.745-.786 2.268-.786.444 0 1.825.012 1.825.684 0 .263-.218.365-.218.513 0 .194.524 1.21.81 1.21.204 0 .522-.594.522-.754 0-.547-.705-.547-.705-.969 0-.228.057-.684 2.289-.684.433 0 1.653-.023 1.653.605 0 .41-.363.444-.363.706 0 .228.432 1.118.683 1.118.342 0 .775-1.038.775-1.118 0-.286-.32-.353-.32-.73 0-.57 1.015-.58 1.39-.58.387 0 1.391 0 1.391.568 0 .64-.695.184-1.209 1.142l-1.457 2.863c-.194.363-.696 1.345-1.197 1.345-.445 0-.98-.923-1.186-1.254l-.58-.935Z" clip-rule="evenodd"/>
  </g>
  <defs>
    <clipPath id="a">
      <path fill="#fff" d="M0 0h18v18H0z"/>
    </clipPath>
  </defs>
</svg>
