<svg xmlns="http://www.w3.org/2000/svg" viewBox="0 0 18 18">
  <g clip-path="url(#a)">
    <path fill="#fff" d="M0 0h18v18H0V0Z"/>
    <g clip-path="url(#b)">
      <path fill="#7E8083" d="M4.725 6.25H7.73l.958 1.743-.555 1.003c-.342-.615-.679-1.233-1.02-1.848H5.218l-.494-.898Zm9.164 0h1.109c-.845 1.538-1.692 3.075-2.538 4.613-.549.995-1.092 1.994-1.645 2.987-.15-.247-.282-.504-.424-.755-.36-.655-.725-1.306-1.084-1.962.187-.333.37-.668.555-1.001.316.571.632 1.143.945 1.716 1.027-1.866 2.056-3.731 3.082-5.597Z"/>
      <path fill="#BB9A53" d="M3 6.25h1.104c1.026 1.866 2.052 3.733 3.081 5.598C8.211 9.98 9.24 8.116 10.265 6.25h3.003l-.493.898h-1.896L7.193 13.85h-.008L3 6.263V6.25Z"/>
    </g>
  </g>
  <defs>
    <clipPath id="a">
      <path fill="#fff" d="M0 0h18v18H0z"/>
    </clipPath>
    <clipPath id="b">
      <path fill="#fff" d="M3 6.25h12v7.6H3z"/>
    </clipPath>
  </defs>
</svg>
