<svg xmlns="http://www.w3.org/2000/svg" viewBox="0 0 18 18">
  <g clip-path="url(#a)">
    <path d="M0 0h18v18H0V0Z"/>
    <path fill="#fff" fill-rule="evenodd" d="M3.993 6a.58.58 0 0 1 .218.043l.05.024L8.84 8.493a.127.127 0 0 1 .064.085l.003.027v.948a.126.126 0 0 1-.044.096l-.023.016-4.578 2.426a.572.572 0 0 1-.213.064l-.056.003H3.14a.14.14 0 0 1-.122-.21l.016-.022 2.22-2.544a.273.273 0 0 1 .154-.089l.037-.004 2.46-.128v-.164l-2.46-.128a.273.273 0 0 1-.166-.067l-.026-.026-2.22-2.544a.14.14 0 0 1 .08-.23L3.141 6h.852Zm10.866 0a.14.14 0 0 1 .106.232l-2.22 2.544a.273.273 0 0 1-.19.093l-2.461.128v.164l2.46.128a.273.273 0 0 1 .192.093l2.22 2.544a.14.14 0 0 1-.107.232h-.852a.574.574 0 0 1-.268-.067L9.16 9.665a.126.126 0 0 1-.067-.112v-.948c0-.047.026-.09.067-.112l4.579-2.426A.574.574 0 0 1 14.007 6h.852Z" clip-rule="evenodd"/>
  </g>
  <defs>
    <clipPath id="a">
      <path fill="#fff" d="M0 0h18v18H0z"/>
    </clipPath>
  </defs>
</svg>
