<svg xmlns="http://www.w3.org/2000/svg" viewBox="0 0 18 18">
  <g clip-path="url(#a)">
    <path d="M0 0h18v18H0V0Z"/>
    <g clip-path="url(#b)">
      <path fill="#fff" d="M12.152 10.888h-.864V8.444l.864.864v1.58Zm-3.459-.15.865.865v1.22l-1.729-1.727V6.203L5.59 3.974a4.282 4.282 0 0 1 .738-.485l2.364 2.357h.001V3.003a1.423 1.423 0 0 1 .134 2.838h1.107l.004.005.86.86H8.695v4.033Zm1.729-3.159-.004 3.304h-.864l.004-4.172.864.868Zm.863.864-.863-.863h1.237l.865.863h-1.24ZM4 7.272c.004-.372.055-.732.147-1.075l1.951 1.95V6.926L4.491 5.319c.137-.262.301-.509.487-.735l1.986 1.984v3.716L4 7.272Zm5.556 6.772v1.222L4.017 9.73V8.508l5.54 5.537Zm5.44-3.155a1.424 1.424 0 0 1-2.847 0h.865V9.797h.865l1.118 1.092Z"/>
    </g>
  </g>
  <defs>
    <clipPath id="a">
      <path fill="#fff" d="M0 0h18v18H0z"/>
    </clipPath>
    <clipPath id="b">
      <path fill="#fff" d="M4 3h11v12.268H4z"/>
    </clipPath>
  </defs>
</svg>
